<svg preserveAspectRatio="none" width="100%" height="100%" overflow="visible" style="display: block;" viewBox="0 0 101.899 14.4873" fill="none" xmlns="http://www.w3.org/2000/svg">
<path id="Vector 27" d="M1.28211 4.59274C1.94558 5.04944 2.79301 5.67854 3.42854 6.16788C3.62789 6.32128 3.50953 6.26739 3.64626 6.37431C3.91368 6.58356 4.1758 6.76108 4.43771 6.97134C4.52443 7.04117 4.38837 6.99215 4.47973 7.06452C4.94758 7.43511 5.40381 7.76916 5.87461 8.14253C5.90811 8.16912 5.94158 8.19573 5.97502 8.22237C6.80985 8.88886 7.66083 9.51845 8.51993 10.1616C8.51378 10.1506 8.45597 10.1569 8.48731 10.151C8.51136 10.1424 8.56383 10.1025 8.60839 10.0479C8.70094 9.93713 8.77693 9.77827 8.82644 9.61151C9.29131 8.05684 9.24013 6.37544 9.05323 4.69454C8.94369 3.64766 8.76319 2.36638 8.71125 1.24476C8.70578 1.11272 8.67106 1.19228 8.66739 1.16719C8.62533 0.851697 8.66976 0.87055 8.69407 0.759908C8.70065 0.724396 8.70698 0.679419 8.71655 0.618934C8.73868 0.48645 8.79018 0.276695 8.96677 0.133187C9.14403 -0.0119336 9.37208 -0.0120563 9.5173 0.0116732C9.83339 0.0668912 10.0782 0.201427 10.3157 0.332836C10.7844 0.603065 11.2002 0.912081 11.586 1.20325C11.9105 1.45243 11.637 1.14027 11.9315 1.43024C11.9517 1.45032 11.8471 1.41564 11.9309 1.4892C12.1243 1.6579 12.4948 1.96311 12.64 2.09386C12.9227 2.34767 12.9685 2.38807 13.2351 2.62637C13.599 2.95294 14.0127 3.35877 14.4019 3.70797C14.4851 3.78243 14.4038 3.65216 14.5397 3.76912C14.6752 3.88551 15.0168 4.20875 15.1265 4.32402C15.2371 4.44011 15.1656 4.41652 15.1813 4.44109C15.3048 4.63998 15.7666 4.95308 15.8173 4.99628C16.1881 5.31665 16.5449 5.64561 16.8796 5.90526C17.1585 6.10147 17.3741 6.49235 17.4544 6.51524C17.5181 6.55899 17.7334 6.44848 17.8343 6.26885C17.8985 6.16573 17.947 6.03391 17.9849 5.89362C18.1858 5.0589 18.1898 4.04833 18.4198 3.18488C18.4352 3.12428 18.4513 3.06444 18.4683 3.00513C18.6793 1.97776 19.7498 1.29923 20.7403 1.49025C20.8538 1.50386 20.7257 1.4395 20.8665 1.45828C22.3099 1.70794 23.5055 2.47231 24.6396 3.2468C24.7526 3.32635 24.5818 3.26165 24.693 3.34324C25.3791 3.83868 26.3847 4.71022 26.8862 4.88308C27.3288 5.24289 27.8578 5.69 28.2229 6.04576C28.4621 6.27829 28.1857 6.10358 28.5066 6.35021C28.5801 6.4069 28.5146 6.29952 28.6213 6.38553C28.8985 6.60644 29.2619 6.9278 29.4679 7.06942C29.6164 7.12435 29.7514 7.10142 29.8905 7.01779C29.9713 6.96694 29.9295 6.94838 29.9488 6.92884C30.1029 6.76735 30.5025 6.49607 30.6016 6.4411C30.6307 6.42157 30.6603 6.4025 30.6901 6.38427C30.9396 6.24022 31.1515 6.2895 31.324 6.31672C31.4963 6.351 31.6532 6.4015 31.8025 6.45332C32.1024 6.55922 32.3849 6.67842 32.6952 6.82183C32.8453 6.89187 32.6872 6.76574 32.8334 6.83247C33.4615 7.12225 34.0867 7.44774 34.6869 7.77464C34.8054 7.83928 34.922 7.90349 35.0365 7.96714C35.1917 8.05358 35.0282 8.01394 35.1013 8.05705C35.4232 8.24635 35.5375 8.21978 35.845 8.39943C35.9115 8.43808 35.8571 8.44871 35.8677 8.45859C36.0341 8.61322 36.2391 8.62504 36.2889 8.64906C36.9278 8.95517 37.2811 9.2408 37.8921 9.54723C37.9645 9.58343 37.8225 9.45937 38.0262 9.5642C39.3861 10.2624 40.8024 11.0226 42.1449 11.7164C42.3523 11.8229 42.1881 11.7799 42.1989 11.7897C42.3934 11.9543 42.5635 11.9403 42.6375 11.9716C43.1895 12.2061 43.6841 12.4981 44.0944 12.5349C44.2703 12.5995 44.4373 12.6547 44.6072 12.6898C44.7709 12.7365 44.9551 12.6874 44.9011 12.6993C45.2254 10.6301 44.2933 8.4546 44.3971 6.27137C44.397 6.23863 44.4409 6.29532 44.4406 6.23087C44.4444 5.51597 44.3978 5.58842 44.3301 5.1972C44.3247 5.156 44.3203 5.11196 44.318 5.0649C44.3135 4.99781 44.3516 4.83141 44.4408 4.71248C44.5425 4.55595 44.7141 4.52964 44.7352 4.53067C44.8987 4.53093 44.748 4.61566 44.7972 4.61382C45.1252 4.67845 45.1725 4.50352 45.594 4.77956C45.6067 4.78927 45.53 4.78018 45.5624 4.80853C45.6652 4.89894 45.7599 4.95677 45.8531 5.05374C46.0401 5.258 46.0455 5.39695 46.3883 5.65892C46.4311 5.69297 46.4551 5.5446 46.7498 5.86393C46.8619 5.98192 47.372 6.55075 47.4966 6.71141C47.6279 6.87614 47.5052 6.79088 47.5137 6.80331C47.8424 7.26715 47.6857 7.11529 47.8115 7.38079C47.9343 7.64431 48.0193 7.47251 48.1076 7.54912C48.1967 7.6264 48.4247 7.97296 48.477 8.06152C48.5295 8.14977 48.4315 8.06583 48.4817 8.14141C48.8135 8.64159 48.7135 8.2924 48.858 8.42949C49.1986 8.75371 49.3194 9.12018 49.5691 9.46339C49.6372 9.55709 49.6029 9.46431 49.668 9.544C49.9235 9.85759 50.0384 10.0739 50.3514 10.4213C50.4 10.4748 50.6919 10.7277 50.7919 10.9523C50.8064 10.9849 50.721 10.9268 50.8216 11.0698C50.964 11.2735 51.2532 11.6604 51.4264 11.8625C51.564 12.0239 51.4585 11.8048 51.6049 12.0158C51.6683 12.1068 51.5141 11.9643 51.6382 12.1371C51.7243 12.2542 51.8835 12.4584 52.0442 12.6255C52.1284 12.7132 52.239 12.744 52.3076 12.7523C52.5013 12.7631 52.3937 12.7139 52.4097 12.7134C52.4953 12.7115 52.802 12.5918 52.8565 12.5501C52.8605 12.5479 52.8634 12.5463 52.8653 12.5453C54.2836 11.7089 54.4169 9.78365 55.8051 8.75347C55.8799 8.70309 55.9584 8.65685 56.0397 8.61435C56.1641 8.55133 56.0624 8.55374 56.0812 8.54372C56.522 8.33692 56.2114 8.58458 56.5324 8.5103C56.4605 8.44411 56.6495 8.39004 56.9732 8.31245C57.128 8.27639 57.0372 8.26073 57.0506 8.25443C57.277 8.15914 57.452 8.20485 57.4962 8.21241C57.6563 8.24172 57.8195 8.16763 57.9298 8.19215C58.0372 8.21705 57.7988 8.28294 58.1124 8.26016C58.1995 8.22366 57.959 8.15729 58.1982 8.12959C59.1071 8.01498 60.7928 8.16781 61.5144 8.23237C62.2354 8.29309 62.4685 8.30971 62.888 8.35823C63.0279 8.37471 63.1339 8.38553 63.2157 8.39207C63.5729 8.42222 63.4603 8.36582 63.849 8.38768C64.3248 8.4185 64.0752 8.53742 64.1389 8.57729C64.2018 8.61761 64.279 8.595 64.359 8.62387C64.4383 8.65275 64.2585 8.64901 64.4495 8.68288C64.6402 8.71531 65.1748 8.74663 65.2494 8.72751C65.4063 8.68483 65.1798 8.56562 65.6872 8.68893C65.7161 8.69619 65.614 8.71573 65.7248 8.74158C66.6083 8.9466 67.5171 9.18337 68.3692 9.48647C68.4877 9.52877 68.3675 9.53526 68.436 9.56032C69.1393 9.82523 68.9078 9.6719 69.324 9.73553C69.1986 9.80556 69.3942 9.9415 69.9195 10.1527C70.2369 10.2823 70.2017 10.2178 70.4159 10.2721C70.4843 10.2901 70.6921 10.4155 70.7414 10.4132C70.8999 10.4044 70.7284 10.2382 71.2522 10.5081C71.2749 10.52 71.1845 10.5229 71.2638 10.5611C71.531 10.6885 71.6985 10.7485 71.8402 10.7639C71.9953 10.7761 72.1659 10.7849 72.4587 10.8148C72.9373 10.8658 73.8007 10.9679 74.3543 11.0183C74.3346 11.1382 74.8581 11.1515 75.0798 11.0885C75.4393 11.1246 75.8286 11.1612 76.1745 11.2173C76.2934 11.2366 76.2104 11.2613 76.225 11.267C76.449 11.3563 76.6133 11.2987 76.6926 11.3074C77.5347 11.4049 78.2002 11.6066 78.9937 11.7691C79.0213 11.775 79.0923 11.7065 79.2812 11.8284C79.2932 11.8367 79.0267 11.7944 79.3896 11.9099C79.7537 12.0249 80.4117 12.3124 80.908 12.4974C81.0277 12.5402 81.3532 12.6172 81.5598 12.7854C81.5873 12.8079 81.5425 12.8117 81.5807 12.8468C81.603 12.8672 81.6251 12.8828 81.6471 12.8957C81.7467 12.9542 81.8454 12.9543 81.9531 13.0808C82.084 13.2352 82.3991 13.4708 82.8773 13.703C82.8921 13.7103 83.0351 13.7181 83.1762 13.807C83.3493 13.9156 83.5721 14.0677 83.7755 14.1946C83.8397 14.2354 83.9124 14.2472 83.9759 14.2337C84.1031 14.1947 84.0051 14.1804 84.0264 14.1729C84.6695 13.6264 84.8697 12.937 85.3 12.0965C85.3753 11.9361 85.5272 11.4517 85.7094 11.1597C85.9106 10.8409 85.9327 11.2719 86.2541 10.4794C86.386 10.164 86.3463 9.64597 86.7797 9.17424C86.8902 8.97491 87.0105 8.77986 87.1368 8.5972C87.6805 7.80431 88.5627 7.40071 89.5014 7.17144C89.5542 7.15792 89.7093 7.05435 89.8384 7.03663C90.0289 7.01035 90.1357 7.03361 90.272 7.023C90.8385 6.98281 91.3614 6.95884 91.9101 6.99494C92.1184 7.00984 92.0426 7.03943 92.2903 7.06105C92.5366 7.0841 92.7067 7.05393 93.0384 7.11635C93.2888 7.16425 93.5269 7.29226 93.857 7.35428C93.8838 7.26407 94.1126 7.30007 94.5221 7.34551C94.6011 7.35429 94.5228 7.30776 94.5605 7.31027C94.7138 7.31978 94.8476 7.37098 94.9936 7.37888C95.029 7.38085 95.0363 7.34974 95.0655 7.34958C95.3152 7.3471 95.699 7.49248 95.7636 7.5174C96.0167 7.61341 96.1448 7.59543 96.3419 7.65118C96.5365 7.70632 96.2355 7.67428 96.466 7.7285C96.6383 7.76879 96.8292 7.8082 97.0222 7.84394C97.3464 7.97912 97.6914 8.12126 97.9846 8.25239C98.1652 8.33331 98.0593 8.23947 98.0855 8.25012C98.4679 8.40866 98.8184 8.63383 99.0601 8.6667C99.2069 8.99581 99.2917 8.76111 99.7787 9.10068C99.8166 9.1275 99.8138 9.24656 99.6536 9.16877C99.4936 9.09101 99.2775 8.92767 99.0497 8.83306C98.9957 8.8092 98.6572 8.7446 98.6141 8.73089C98.2771 8.61668 98.2963 8.45814 98.2822 8.44145C98.1277 8.26724 97.7095 8.19927 97.6076 8.16474C97.3823 8.08669 97.1766 8.0062 96.979 7.92928L97.0063 7.93696C96.7859 7.90103 96.5729 7.86235 96.3606 7.83538C96.093 7.80112 96.0475 7.89572 95.8397 7.85341C95.1488 7.71312 94.9333 7.52704 94.2607 7.53778C94.1168 7.54104 94.2374 7.67091 93.7517 7.50709C93.7213 7.49653 93.3607 7.36256 93.139 7.38591C93.1112 7.38879 93.108 7.42098 93.0721 7.41922C92.8319 7.40722 92.6762 7.36366 92.4154 7.35165C92.155 7.33992 91.8423 7.33627 91.5486 7.31548C91.371 7.30231 91.1439 7.24076 91.058 7.22709C90.8161 7.1859 90.5619 7.2686 90.4101 7.2291C90.2555 7.19047 90.5459 7.0842 90.1438 7.08919C90.1379 7.17436 90.1141 7.26385 90.1012 7.35051C89.2638 7.44631 88.4372 7.66522 87.8195 8.20001C87.7446 8.2664 87.8505 8.23249 87.7732 8.30491C87.621 8.45049 87.489 8.59591 87.3694 8.75864C87.2296 8.94978 87.0951 9.15249 86.9674 9.38531C86.7802 9.72685 86.6251 10.1298 86.4565 10.5047C86.2588 10.6882 86.0306 11.259 85.8401 11.6665C85.7731 11.8091 85.7546 11.7878 85.7008 11.8877C85.5007 12.2607 85.6584 12.1156 85.6235 12.2267C85.47 12.7054 85.2822 12.6666 85.0259 13.2029C85.0146 13.2298 84.9242 13.6243 84.8992 13.6759C84.7549 14.0026 84.8418 13.7077 84.7174 13.8932C84.6154 14.0378 84.5134 14.1666 84.374 14.2895C84.305 14.3482 84.2193 14.4152 84.0946 14.4585C83.9673 14.5068 83.7782 14.4961 83.6437 14.4138C83.5994 14.3896 83.5529 14.3646 83.5039 14.3387C83.3868 14.2774 83.0895 14.1652 82.9028 13.9924C82.8784 13.9698 82.9116 13.9504 82.89 13.9348C82.4977 13.6571 82.4312 13.7442 82.1777 13.6392C81.9248 13.5347 81.5902 13.2698 81.5237 13.2111C81.5115 13.2002 81.5018 13.1912 81.4943 13.1837C81.4606 13.1501 81.4731 13.1501 81.5045 13.1645C81.5649 13.1922 81.6918 13.2722 81.6996 13.2728C81.8183 13.2823 81.689 13.2051 81.5292 13.1179C81.478 13.0899 81.4236 13.0612 81.3735 13.034C81.3915 12.9247 81.093 12.7848 81.1593 12.921C81.1675 12.9359 81.3337 13.0078 81.3735 13.034C81.1445 13.0315 80.822 12.8878 80.4941 12.6462C80.3391 12.5348 80.5241 12.5463 79.9868 12.3613C79.742 12.2809 79.8117 12.3823 79.5912 12.3267C79.0899 12.2007 78.4628 11.9578 77.9363 11.8541C77.7457 11.8164 77.922 11.895 77.7919 11.871C77.4467 11.8087 77.1477 11.7239 76.7957 11.6832C76.764 11.6797 76.8345 11.7324 76.7264 11.716C75.9037 11.5943 75.1832 11.4984 74.308 11.4305C73.8864 11.3973 73.1244 11.3695 72.6769 11.3197C72.3898 11.2882 72.0764 11.2423 71.7605 11.1697C71.149 10.9513 70.7678 10.7053 70.3726 10.5572C69.9801 10.4004 70.0512 10.4766 69.8719 10.4332C69.5304 10.3506 68.9911 10.048 68.9163 10.007C68.916 10.0058 69.255 10.1187 69.0833 10.0337C68.9938 9.95431 68.9201 10.0082 68.9163 10.007C68.8698 9.9772 68.1846 9.7368 68.046 9.70534C67.9695 9.68613 68.0001 9.73648 67.9603 9.7258C67.0262 9.47541 66.0866 9.26039 65.1265 9.07333C65.1096 9.06957 65.1428 9.03104 65.1029 9.02274C64.5472 8.90753 64.1763 8.91087 63.71 8.88799C63.513 8.8787 63.3368 8.86657 63.1731 8.84801C62.9459 8.8223 62.756 8.78324 62.5981 8.72567C62.2419 8.70343 61.7354 8.62915 61.4439 8.58823C61.1535 8.54723 61.1051 8.62988 61.0797 8.62976C60.2733 8.63345 59.815 8.55977 58.9862 8.55167C58.5933 8.54563 57.8197 8.5941 57.4156 8.67001C57.0971 8.72634 56.9007 8.74759 56.6314 8.84507C56.5958 8.85846 56.644 8.88256 56.6334 8.88753C56.3561 9.03312 56.4644 8.89919 56.3974 8.90638C56.2466 8.92867 56.1322 8.95483 55.9928 9.03673C55.913 9.08466 55.8241 9.15427 55.7244 9.26441C55.6575 9.33333 55.5803 9.62248 55.4908 9.76658C55.3713 9.95647 55.3785 9.85871 55.2602 10.0705C55.2504 10.0889 55.2769 10.0998 55.1999 10.2296C54.838 10.8359 54.51 11.5918 53.9829 12.2626C53.9086 12.3535 54.0418 12.2672 53.932 12.3988C53.7206 12.6469 53.4495 12.891 53.1178 13.0594C52.9298 13.1534 52.7295 13.2258 52.484 13.2442C52.2477 13.2664 51.9097 13.1902 51.701 12.9626C51.6188 12.8751 51.5369 12.7755 51.467 12.6874C51.3517 12.5408 51.4527 12.6106 51.4351 12.5744C51.3339 12.3603 51.0643 12.1551 51.0298 12.1138C50.2156 11.1363 49.6938 10.3081 48.8726 9.31629C48.8279 9.26204 48.4231 8.89436 48.3349 8.65785C48.3288 8.64173 48.2436 8.40552 48.0685 8.27578C48.0576 8.26785 48.1183 8.40885 47.9595 8.2053C47.8008 8.00202 47.5168 7.69836 47.3231 7.39784C47.2639 7.30536 47.1506 7.04624 46.8843 6.8391C46.8653 6.82284 46.4182 6.53729 46.3675 6.33864C46.359 6.30664 46.4605 6.25554 46.1461 6.00709C46.0871 5.96177 46.1636 6.07305 46.0177 5.94593C45.7868 5.74535 45.517 5.44761 45.2164 5.28473C45.1645 5.25445 44.9136 5.17127 44.851 5.10415C44.8442 5.09379 44.8673 5.06223 44.841 5.05322C44.8128 5.0719 44.9859 4.97859 44.9533 4.98302C44.9431 4.99801 44.9222 5.08904 44.9218 5.20691C44.9173 5.5204 44.9198 5.82513 44.9154 6.13487C44.9131 6.33346 44.8526 6.23614 44.8458 6.44627C44.8387 6.65697 44.8514 7.08178 44.8975 7.29987C44.9432 7.51694 45.0106 7.26731 45.0499 7.59594C45.1971 9.02044 45.568 10.3839 45.5761 11.9698C45.5658 12.2049 45.6128 12.0102 45.5844 12.3617C45.5698 12.5077 45.5468 12.6661 45.5113 12.8326C45.4866 12.9546 45.4117 13.0922 45.2995 13.1823C45.1878 13.2729 45.0815 13.3045 44.999 13.3226C44.8315 13.3552 44.7132 13.3412 44.6103 13.3297C44.3964 13.3009 44.2207 13.2495 44.0433 13.1937C43.6926 13.0805 43.3578 12.9415 43.0364 12.7998C42.3907 12.5126 41.8147 12.2154 41.4193 11.9855C40.7113 11.5699 41.6463 11.9908 41.1021 11.6929C40.8327 11.5454 40.4988 11.4933 40.4307 11.4622C39.783 11.1686 39.3639 10.8977 38.7923 10.6157C38.6725 10.5565 38.7688 10.6551 38.667 10.6042C38.3271 10.435 37.9777 10.2304 37.6495 10.0621C37.5046 9.98796 37.516 10.0308 37.3832 9.95831C37.0618 9.78325 36.7872 9.62354 36.49 9.433C36.4629 9.41565 36.6729 9.47995 36.4375 9.35475C36.0507 9.14911 35.5929 8.87505 35.1361 8.67142C34.9992 8.61045 34.9608 8.67454 34.7037 8.48218C34.6498 8.44209 34.765 8.40308 34.4123 8.3016C34.4084 8.30048 34.4045 8.29935 34.4005 8.29821C34.3369 8.27934 33.7428 8.08867 33.5009 7.89124C33.4372 7.83903 33.2895 7.6823 33.1249 7.61374C33.1029 7.60494 33.1698 7.68267 33.0389 7.62238C32.5729 7.40881 32.0847 7.16859 31.6155 7.01559C31.4918 6.97727 31.6593 7.07656 31.4785 7.02149C31.2765 6.94447 30.9641 6.95541 31.0676 6.93836C30.8402 7.08391 30.5926 7.38196 30.198 7.59465C29.9143 7.72313 30.0966 7.59956 30.0747 7.60675C29.7182 7.69873 29.4477 7.71021 29.323 7.67988C29.2974 7.67315 29.2722 7.6655 29.2472 7.65699C29.0592 7.57338 29.0536 7.54584 28.9886 7.5036C28.9225 7.45391 28.8952 7.43221 28.8457 7.39198C28.7414 7.30664 28.6829 7.25481 28.5909 7.17423C28.4374 7.03851 28.2813 6.89707 28.1017 6.75135C27.9998 6.66856 28.0454 6.75848 28.0235 6.74445C27.8035 6.60304 27.9975 6.67501 27.8738 6.56036C27.5283 6.2399 27.1194 5.90443 26.7462 5.61038C26.6085 5.50202 26.7323 5.6598 26.611 5.56391C25.8852 4.9919 25.1199 4.40781 24.392 3.88533C24.2548 3.78703 24.3623 3.81738 24.3375 3.7911C24.1682 3.60921 23.8251 3.48041 23.7534 3.44484C23.4199 3.27663 23.3178 3.18045 23.0281 3.02381C21.7198 2.26621 19.5029 1.53698 19.1676 2.9726C19.1421 3.03794 19.1185 3.10774 19.0968 3.18196C18.74 4.3012 18.9225 5.306 18.3524 6.58368C18.1658 6.85607 17.8654 7.25105 17.2439 7.09018C16.8982 6.93085 16.8559 6.75789 16.7575 6.65849C16.6719 6.55114 16.5961 6.4714 16.507 6.40581C16.4655 6.37515 16.422 6.34168 16.3761 6.30526C16.2715 6.22142 16.3443 6.34039 16.2606 6.2733C15.1877 5.3704 14.2674 4.42962 13.2541 3.53172C13.1716 3.45799 13.2599 3.5979 13.1264 3.48075C12.8522 3.2405 12.5103 2.93176 12.2429 2.68102C12.1119 2.55845 12.3183 2.68726 12.186 2.56468C11.8778 2.27966 11.5375 1.9903 11.1964 1.73163C11.0536 1.62399 11.2385 1.82517 11.0549 1.68314C10.6654 1.3853 10.2613 1.09559 9.86615 0.887845C9.67678 0.785983 9.45424 0.709207 9.38315 0.714047C9.34602 0.723297 9.44392 0.690676 9.4535 0.657019C9.4624 0.635251 9.43628 0.689538 9.43442 0.780218C9.41232 1.3627 9.45616 1.97225 9.50596 2.59502C9.5152 2.70789 9.43567 2.81576 9.48327 3.05215C9.51077 3.06688 9.54032 3.06214 9.56828 3.06654C9.86421 5.23644 10.185 7.55127 9.52485 9.81284C9.46655 10.0109 9.38548 10.2066 9.25836 10.3962C9.17767 10.5081 9.36452 10.3412 9.19464 10.5606C9.09807 10.6717 8.98345 10.7866 8.78848 10.872C8.60632 10.9646 8.25172 10.9579 8.05241 10.7916C7.31601 10.2515 6.5666 9.71369 5.83135 9.10146C5.74247 9.02745 5.84117 8.99622 5.56389 8.79867C5.54876 8.78788 5.50059 8.75262 5.43666 8.70588C5.29513 8.60243 5.07023 8.44166 4.99147 8.39781C4.97555 8.38919 5.02511 8.47715 4.89426 8.37874C4.13567 7.80819 3.33844 7.2083 2.58475 6.62869C2.46296 6.535 2.62012 6.59696 2.53367 6.53C1.9203 6.05548 1.21764 5.58963 0.635132 5.12805C0.246544 4.82022 0.437748 4.86608 0.264867 4.65537C0.238079 4.62386 -0.00869195 4.44833 0.000236407 4.40342C0.0271138 4.2932 0.216535 4.28468 0.231543 4.15762C0.231453 4.12761 -0.116641 3.91683 0.114122 4.00619C0.132139 4.0138 0.3879 4.16933 0.4589 4.19517C0.5089 4.21359 0.457208 4.12486 0.554022 4.17157C0.649619 4.21748 0.722053 4.31251 0.877232 4.39721C1.0293 4.47952 0.996474 4.39633 1.28211 4.59274ZM60.1293 8.42112C59.8582 8.36956 59.813 8.51769 60.1085 8.49326C60.1226 8.49193 60.1431 8.4237 60.1293 8.42112ZM88.4554 7.65025C88.1139 7.74382 87.9775 7.96654 88.2036 7.87992C88.4276 7.8032 88.5579 7.6252 88.4554 7.65025ZM92.0145 7.13306C91.602 7.05648 91.5294 7.26611 91.9714 7.24767C91.9969 7.24688 92.0384 7.13769 92.0145 7.13306ZM1.27301 5.34727C1.27191 5.34401 1.09191 5.21287 1.08709 5.21188C0.963761 5.18207 1.321 5.44229 1.27301 5.34727ZM95.6499 7.60702C95.5261 7.55439 95.1521 7.51865 95.3046 7.58323C95.4259 7.63481 95.8031 7.67219 95.6499 7.60702ZM49.5185 9.51722C49.5174 9.51221 49.4217 9.38538 49.4139 9.39592C49.3879 9.42855 49.533 9.59727 49.5185 9.51722ZM101.384 9.9509C100.521 9.60203 100.104 9.19226 101.003 9.62099C101.168 9.69578 100.623 9.51754 100.828 9.62376C101.206 9.81847 101.507 9.81737 101.893 10.0165C101.963 10.0539 101.434 9.97321 101.383 9.95053C101.383 9.95065 101.384 9.95078 101.384 9.9509ZM59.979 8.23545C59.9733 8.23307 59.7553 8.22402 59.7492 8.22601C59.6293 8.26963 60.0699 8.28772 59.979 8.23545ZM44.4666 6.85855C44.4617 6.87121 44.4966 7.38176 44.5035 7.39764C44.6012 7.65619 44.5299 6.62699 44.4666 6.85855ZM74.3628 11.0222C74.6067 10.9929 74.8918 11.011 75.0787 11.0884C74.8397 11.0634 74.6028 11.0436 74.3628 11.0222Z" fill="var(--stroke-0, black)"/>
</svg>
