<svg preserveAspectRatio="none" width="100%" height="100%" overflow="visible" style="display: block;" viewBox="0 0 14.1897 29.7516" fill="none" xmlns="http://www.w3.org/2000/svg">
<g id="Group 9">
<path id="Vector 17" d="M4.16421 29.2726C3.90092 28.9147 3.61694 28.4211 3.41798 28.0423C3.35455 27.9218 3.41245 27.9686 3.37067 27.886C3.288 27.7225 3.19467 27.5848 3.11745 27.4222C3.09187 27.368 3.16466 27.412 3.1374 27.3563C2.98805 27.0516 2.825 26.7754 2.67081 26.4689C2.30568 25.7424 1.95128 25.018 1.60293 24.2904C1.22473 23.4971 0.878592 22.6775 0.650612 21.7952C0.499787 21.2351 0.441594 20.5237 0.384155 19.9479C0.376575 19.8805 0.343194 19.9239 0.339101 19.9113C0.312755 19.829 0.31132 19.792 0.318523 19.7671C0.328491 19.7321 0.355161 19.7204 0.354315 19.6437C0.348338 19.1202 0.299179 18.5416 0.239213 18.0419C0.213561 17.8289 0.160241 18.0496 0.181525 17.8312C0.182922 17.816 0.226851 17.8667 0.225648 17.8076C0.222951 17.6751 0.192889 17.4227 0.18673 17.3204C0.174887 17.1214 0.171585 17.0894 0.155195 16.9012C0.133309 16.6455 0.125831 16.3374 0.0946369 16.0634C0.087808 16.0041 0.054151 16.0857 0.0397614 15.9921C0.0252637 15.8988 0.00966768 15.6484 0.0135702 15.5644C0.0171198 15.4778 0.0511351 15.5127 0.0573151 15.4971C0.109236 15.3712 0.0101076 15.0843 0.00798139 15.0446C0.00481887 15.0062 0.00222041 14.9644 0.000582024 14.9268C-0.000739142 14.8729 -0.000858143 14.8259 0.0119676 14.7595C0.0289261 14.7035 0.0444307 14.5525 0.255374 14.4949C0.57993 14.4983 0.566228 14.61 0.651866 14.6618C0.776323 14.7838 0.867046 14.9066 0.955427 15.0273C1.13027 15.2698 1.28412 15.5135 1.45648 15.7553C1.58499 15.9337 1.73389 16.1411 1.86222 16.2591C1.873 16.2653 1.80249 16.2058 1.71092 16.2493C1.64636 16.2893 1.66688 16.291 1.6679 16.2784C1.67907 16.2523 1.69322 16.1955 1.70246 16.1429C1.72222 16.032 1.73397 15.9126 1.74449 15.7966C1.78821 15.2686 1.8124 14.8044 1.82654 14.2738C1.82801 14.2177 1.77871 14.2819 1.78046 14.2134C1.78465 14.0531 1.79025 13.8925 1.79942 13.731C1.80379 13.6773 1.80459 13.6231 1.83871 13.5325C1.857 13.4889 1.89093 13.4184 1.97752 13.3649C2.06618 13.3112 2.15759 13.3162 2.20378 13.3237C2.37284 13.3675 2.41533 13.3855 2.36992 13.381C2.60233 13.3793 2.7613 13.0508 2.83765 12.6818C2.85184 12.6161 2.87862 12.7089 2.89511 12.6424C2.99915 12.2314 3.07419 11.5247 2.89063 11.2666C2.89424 10.9687 2.89337 10.6022 2.93051 10.3311C2.95485 10.1554 2.99821 10.3271 2.9818 10.1112C2.97845 10.0628 2.93764 10.1249 2.93577 10.0523C2.93356 9.95652 2.93536 9.85785 2.94032 9.75924C2.95002 9.6366 2.95518 9.50708 3.05038 9.35147C3.14793 9.16529 3.44753 9.15054 3.55684 9.19973C3.61514 9.21716 3.6229 9.19925 3.63477 9.18999C3.63828 9.18705 3.64191 9.18507 3.6469 9.18555C3.84064 9.22102 3.82197 9.28228 3.89084 9.27127C3.91385 9.26661 3.93943 9.25737 3.96494 9.24529C4.25491 9.09805 4.44203 8.91119 4.65535 8.67206C4.70943 8.61001 4.61018 8.65246 4.66014 8.59182C4.9186 8.27618 5.1421 7.90954 5.33695 7.54771C5.3803 7.46693 5.38117 7.56032 5.4037 7.52249C5.50165 7.35378 5.44805 7.28368 5.53258 7.1182C5.55014 7.083 5.57429 7.11622 5.58046 7.11095C5.67748 7.02773 5.63167 6.90553 5.63958 6.8781C5.73769 6.5266 5.88945 6.32731 5.96986 5.97896C5.97911 5.93746 5.91245 6.01898 5.9409 5.90298C6.1318 5.12903 6.27352 4.2948 6.45753 3.51066C6.48841 3.38528 6.50242 3.4821 6.50803 3.47478C6.59526 3.36445 6.53203 3.26397 6.53991 3.21992C6.54523 3.19085 6.55129 3.1633 6.55794 3.13725C6.62861 2.86139 6.73789 2.61711 6.68572 2.40661C6.84992 1.73241 6.8413 1.13656 6.89967 0.34959C6.93834 0.250533 6.94493 0.177398 7.06566 0.0550369C7.11728 -0.021067 7.34318 -0.0151172 7.38931 0.053622C7.45284 0.108986 7.47504 0.151307 7.50389 0.201013C7.59483 0.374866 7.63823 0.540655 7.68155 0.70386C7.7645 1.03268 7.81868 1.36183 7.86054 1.69268C7.86279 1.70985 7.81584 1.68769 7.8204 1.72142C7.87367 2.12902 7.92237 2.0399 8.04844 2.29373C8.08015 2.35822 8.02058 2.57958 8.01663 2.59885C8.00228 2.66949 7.92917 2.61117 7.92797 2.6342C7.91996 2.82392 8.11832 2.76013 8.15936 3.0072C8.16029 3.01495 8.11752 2.98886 8.11721 3.0101C8.11611 3.07601 8.14173 3.13878 8.13912 3.20337C8.13308 3.35286 8.04228 3.41862 8.13644 3.63129C8.14856 3.6579 8.25653 3.59543 8.28797 3.8173C8.30009 3.90597 8.36899 4.29327 8.38289 4.4C8.39651 4.50934 8.34511 4.44263 8.34502 4.45076C8.35299 4.70435 8.32622 4.66748 8.29263 4.7474C8.28747 4.76168 8.28232 4.77944 8.27736 4.80282C8.24179 4.964 8.40172 4.88309 8.43493 4.93922C8.46838 4.99521 8.47232 5.21907 8.46796 5.27447C8.46405 5.32986 8.42792 5.26865 8.42896 5.31703C8.43504 5.63711 8.53993 5.4378 8.58613 5.53534C8.69466 5.76597 8.59906 5.97616 8.62843 6.19891C8.63643 6.25907 8.65618 6.20497 8.66911 6.25735C8.72058 6.46419 8.70639 6.59903 8.80014 6.82487C8.81541 6.86269 8.93931 7.02822 8.9222 7.16309C8.9197 7.18249 8.87332 7.14401 8.89385 7.23195C8.90009 7.25825 8.90817 7.28891 8.91761 7.32144C8.95317 7.45006 9.02986 7.60988 9.10006 7.69931C9.16501 7.78098 9.14104 7.6541 9.20243 7.76738C9.23159 7.8172 9.14065 7.75175 9.19969 7.84466C9.25515 7.94145 9.46914 8.12799 9.56563 8.17394C9.65876 8.22446 9.62662 8.15985 9.63549 8.16192C9.65498 8.16542 9.69313 8.17722 9.73414 8.18738C9.79163 8.20092 9.87084 8.20529 9.88146 8.2072C10.0308 8.2336 10.2107 8.22876 10.3942 8.3374C11.1722 8.88036 10.8967 9.82621 10.7336 10.5199C10.7156 10.5892 10.7697 10.5552 10.7674 10.5659C10.7142 10.8101 10.6607 10.5899 10.5754 10.744C10.6336 10.7441 10.6346 10.7845 10.6221 10.8521C10.6152 10.8923 10.6014 10.9425 10.6039 10.9894C10.6119 11.0477 10.6437 11.0082 10.6471 11.0141C10.6933 11.0299 10.6995 11.0973 10.7159 11.1231C10.7585 11.2001 10.8613 11.1662 10.9043 11.2089C10.908 11.2123 10.9106 11.2156 10.9123 11.2188C10.9185 11.2309 10.9121 11.2414 10.9057 11.251C10.8988 11.2609 10.8918 11.2698 10.8999 11.279C10.9071 11.2877 10.9296 11.2972 10.9803 11.3054C11.0305 11.282 10.9249 11.1832 11.0476 11.1891C11.4939 11.2063 12.3497 11.2876 12.7506 11.4543C12.7645 11.4598 12.7776 11.4652 12.7898 11.4704C13.1715 11.6441 13.2357 11.8671 13.2412 12.0979C13.2386 12.2198 13.2249 12.2906 13.2222 12.3398C13.2097 12.4675 13.2547 12.4486 13.2218 12.6384C13.1657 12.8986 13.0652 12.7253 13.0238 12.7499C12.9817 12.772 12.9987 12.819 12.9657 12.8533C12.933 12.8865 12.9489 12.7923 12.9038 12.8829C12.8608 12.9734 12.7865 13.2485 12.7974 13.2964C12.8229 13.3978 12.9501 13.3204 12.7945 13.5503C12.7855 13.5633 12.7764 13.4996 12.7436 13.5506C12.4852 13.9554 12.2161 14.3693 12.0325 14.8046C12.0079 14.8648 11.9857 14.7957 11.971 14.8312C11.8908 15.0334 11.9025 15.0987 11.9236 15.1427C11.9447 15.1791 11.978 15.2016 12.0411 15.2218C11.925 15.2419 11.9483 15.4326 12.2552 15.5385C12.431 15.5994 12.4151 15.5421 12.5366 15.5426C12.5731 15.5426 12.6885 15.6056 12.717 15.5896C12.8084 15.5371 12.71 15.4312 13.0035 15.5332C13.0164 15.5378 12.9652 15.5666 13.0106 15.5796C13.2757 15.6557 13.3442 15.6082 13.5956 15.6521C13.6269 15.658 13.6597 15.6659 13.6938 15.6767C13.8322 15.7174 14.051 15.8464 14.1375 16.0719C14.2249 16.2935 14.1834 16.5103 14.1504 16.6622C14.0363 16.6361 13.9935 16.9049 14.0226 17.0442C13.9469 17.226 13.8554 17.4163 13.7539 17.5737C13.719 17.6278 13.7091 17.5737 13.7019 17.5789C13.5895 17.6565 13.6164 17.7684 13.5974 17.806C13.4177 18.1526 13.1929 18.3956 13.0212 18.7039C12.9954 18.751 12.9688 18.8033 12.9453 18.8557C12.9392 18.8694 12.9976 18.9341 12.8854 18.998C12.8779 19.0023 12.9185 18.8638 12.8119 19.0304C12.7044 19.1981 12.4726 19.5 12.3676 19.7599C12.3419 19.823 12.3162 20.0043 12.2022 20.096C12.1869 20.1081 12.1758 20.0789 12.1511 20.095C12.0716 20.1476 12.1228 20.2299 12.0105 20.2808C11.8981 20.332 11.7485 20.4856 11.6536 20.7543C11.6505 20.7628 11.6764 20.8539 11.632 20.9301C11.561 21.0516 11.45 21.2186 11.3775 21.3464C11.3429 21.4075 11.4016 21.3893 11.3962 21.4003C11.181 21.8233 10.9813 22.0965 10.7044 22.5222C10.6532 22.6008 10.5614 22.8584 10.4248 22.9849C10.2739 23.1221 10.2174 22.846 10.0044 23.2363C9.97368 23.2905 9.96167 23.3677 9.94654 23.4493C9.91256 23.6084 9.86945 23.7926 9.6693 23.9091C9.32755 24.4066 8.95083 24.8259 8.63674 25.3386C8.61804 25.3691 8.59981 25.3995 8.58163 25.4304C8.56691 25.4554 8.57492 25.5717 8.53551 25.6266C8.47677 25.7083 8.41738 25.7339 8.37429 25.7915C8.19354 26.0316 8.05759 26.273 7.8798 26.5024C7.812 26.5895 7.80745 26.5376 7.72594 26.6403C7.64421 26.7421 7.6262 26.8404 7.49502 26.9627C7.39501 27.055 7.23666 27.0931 7.1086 27.2109C7.13994 27.2455 7.13451 27.2845 7.10393 27.3355C7.07085 27.3817 7.00848 27.4399 6.929 27.5154C6.8984 27.5444 6.95388 27.5434 6.94034 27.5584C6.88534 27.6206 6.80862 27.6424 6.75571 27.701C6.74278 27.7153 6.76008 27.7421 6.75038 27.7552C6.66827 27.8692 6.44554 27.9228 6.40789 27.9301C6.26271 27.9617 6.22636 28.0296 6.12253 28.0653C6.01915 28.1002 6.14906 28.0033 6.0336 28.0527C5.79461 28.1549 5.49672 28.3006 5.25257 28.3979C5.15527 28.4368 5.23741 28.4496 5.22386 28.4561C5.02488 28.548 4.8041 28.5757 4.71314 28.6926C4.5908 28.5961 4.57184 28.6317 4.51309 28.6868C4.46882 28.7207 4.40005 28.7626 4.26868 28.7571C4.24354 28.7558 4.20422 28.6557 4.29435 28.6313C4.34949 28.6162 4.42427 28.6159 4.50155 28.606L4.49157 28.6082C4.53923 28.5968 4.58866 28.5816 4.63364 28.5583C4.66171 28.5446 4.79546 28.3984 4.81529 28.3847C4.97201 28.2809 5.05075 28.4147 5.06342 28.4195C5.20241 28.4657 5.36182 28.2856 5.40951 28.2561C5.63134 28.1227 5.83592 28.0453 6.01342 27.9224C6.12914 27.8417 6.0903 27.7465 6.1851 27.6949C6.49517 27.5204 6.68602 27.563 6.87896 27.2593C6.90945 27.209 6.84279 27.1726 6.92479 27.1163L6.90347 27.1358C6.92605 27.1168 6.96159 27.0945 7.01637 27.0656C7.03117 27.0589 7.22095 26.9706 7.25535 26.8512C7.25959 26.8364 7.23465 26.8158 7.2445 26.8C7.31075 26.6941 7.38316 26.6459 7.45769 26.5313C7.53222 26.4165 7.61668 26.2743 7.7184 26.1542C7.77968 26.082 7.90015 26.018 7.9386 25.9896C8.04843 25.9095 8.07151 25.7558 8.1596 25.7199C8.24855 25.6831 8.22193 25.8582 8.3713 25.703C8.30687 25.6485 8.24645 25.5843 8.18434 25.5256C8.26359 25.4134 8.34407 25.3026 8.42504 25.1921C8.6195 24.9266 8.81922 24.6661 9.01343 24.3958C9.04755 24.3482 8.97569 24.3699 9.01142 24.3182C9.16258 24.1 9.32751 23.934 9.48461 23.7084C9.57405 23.5799 9.65482 23.431 9.74295 23.2886C9.76918 23.2443 9.79978 23.1943 9.82824 23.1499C9.98098 23.1063 10.1344 22.8204 10.2645 22.6283C10.3103 22.5612 10.3294 22.5789 10.3677 22.5332C10.5092 22.3628 10.3832 22.4049 10.4032 22.3467C10.4888 22.0952 10.6649 22.1756 10.8174 21.9068C10.8255 21.8928 10.8375 21.6683 10.8456 21.6415C10.8973 21.4689 10.8912 21.634 10.9523 21.5433C11.0643 21.3765 11.1543 21.2685 11.2446 21.0491C11.2707 20.9852 11.2964 20.8106 11.4051 20.7191C11.4194 20.707 11.4441 20.7322 11.4528 20.7209C11.6075 20.515 11.5183 20.4564 11.5589 20.3116C11.5999 20.1664 11.7755 20.0066 11.8169 19.977C11.9244 19.8993 11.7913 20.069 11.793 20.077C11.8108 20.1752 11.8827 20.0265 11.95 19.92C12.0493 19.9566 12.1321 19.8 12.0196 19.8091C12.0072 19.8103 11.9665 19.9008 11.95 19.92C11.9161 19.7731 12.0015 19.5979 12.1925 19.4607C12.2818 19.3972 12.2786 19.5047 12.4172 19.2331C12.4812 19.109 12.3906 19.1202 12.4382 19.0034C12.503 18.8439 12.6206 18.6799 12.7403 18.5203C12.8182 18.4166 12.8955 18.3179 12.9544 18.2232C13.0087 18.1359 12.9201 18.1968 12.956 18.1364C13.0514 17.9756 13.1661 17.8554 13.2504 17.6913C13.2579 17.6765 13.2016 17.6891 13.231 17.6406C13.4471 17.2744 13.662 16.949 13.7452 16.5743C13.7637 16.4872 13.7657 16.3654 13.7383 16.2967C13.7122 16.2281 13.6741 16.1994 13.6173 16.164C13.5832 16.1435 13.5383 16.1223 13.481 16.1035C13.1539 16.0012 12.7874 15.8867 12.5006 15.822C12.2704 15.7678 12.3073 15.8192 12.1956 15.8122C12.0868 15.8012 11.9424 15.7429 11.7987 15.6088C11.6332 15.4905 11.5911 15.144 11.6287 15.1104C11.6277 15.1064 11.618 15.2372 11.66 15.3237C11.6992 15.4052 11.7318 15.4425 11.6874 15.3298C11.6789 15.1822 11.632 15.119 11.6287 15.1104C11.6294 15.1075 11.6304 15.1033 11.6316 15.0977C11.6411 15.0288 11.7642 14.6426 11.7935 14.5708C11.8066 14.527 11.7609 14.5357 11.7687 14.513C11.9586 13.9777 12.2459 13.5363 12.4913 13.1006C12.4961 13.0932 12.5287 13.1251 12.5394 13.1073C12.6889 12.8581 12.7119 12.6675 12.7407 12.4556C12.7498 12.3847 12.7576 12.3214 12.7665 12.2654C12.7844 12.1514 12.8023 12.0956 12.8406 12.0394C12.8215 11.965 12.7569 11.8632 12.6368 11.797C12.6332 11.7949 12.6296 11.7929 12.6261 11.7911C12.5226 11.7417 12.4789 11.8167 12.4694 11.8151C12.0951 11.7853 11.8531 11.7258 11.411 11.6764C11.2762 11.6605 11.0636 11.6501 10.8315 11.6102C10.6926 11.5828 10.544 11.5509 10.3923 11.4396C10.2621 11.3535 10.1675 11.1411 10.1753 11.0127C10.1753 10.8818 10.2034 10.8086 10.2158 10.7506C10.2251 10.7123 10.2343 10.6763 10.2419 10.641C10.2468 10.6181 10.2039 10.63 10.2045 10.6228C10.2151 10.4286 10.2773 10.544 10.3043 10.5111C10.3994 10.3988 10.4564 10.3257 10.4787 10.0996C10.4843 10.0468 10.3817 9.87685 10.3847 9.79095C10.3889 9.67752 10.4324 9.72446 10.4298 9.60669C10.4293 9.59683 10.4007 9.5965 10.4042 9.52725C10.4209 9.19935 10.349 8.91811 10.1448 8.79367C10.1199 8.77779 10.125 8.82326 10.0998 8.81915C10.0997 8.8208 10.1001 8.82206 10.1005 8.82244C10.1001 8.80405 9.89622 8.82417 9.52772 8.70136C9.29569 8.60452 9.11027 8.45954 8.96633 8.30327C8.8897 8.21724 8.96406 8.24619 8.95389 8.22175C8.89424 8.07692 8.71119 7.95833 8.69105 7.92665C8.58998 7.78191 8.51648 7.63042 8.46362 7.47923C8.29126 6.97545 8.24998 6.52662 8.12395 5.99829C8.11494 5.96135 7.97487 5.69543 8.02949 5.55826C8.03309 5.54897 8.0897 5.4114 8.01477 5.31529C8.01008 5.30952 7.98433 5.39184 7.96259 5.26103C7.94465 5.15472 7.89446 5.00318 7.87416 4.85889C7.86786 4.81949 7.86308 4.77383 7.86278 4.73364C7.86292 4.67051 7.91018 4.50267 7.81595 4.33933C7.8089 4.32746 7.61894 4.0802 7.70054 3.96261C7.71406 3.94375 7.82113 3.9458 7.73239 3.74151C7.71548 3.70353 7.70424 3.77979 7.67236 3.67702C7.62286 3.51621 7.61613 3.29974 7.53672 3.10756C7.52289 3.07489 7.4277 2.93832 7.46155 2.8122C7.46683 2.79233 7.50748 2.82157 7.50086 2.75863C7.46947 2.4594 7.39238 2.15483 7.35965 1.85394C7.34812 1.74877 7.41414 1.78986 7.40759 1.67753C7.40163 1.56742 7.36955 1.34192 7.31842 1.23594C7.26776 1.13201 7.20739 1.27133 7.16097 1.10755C7.10557 0.916468 7.04948 0.718958 6.99179 0.57394C6.9782 0.539686 6.96317 0.508346 6.95743 0.498042C6.97288 0.479514 6.88882 0.539235 7.20275 0.612206C7.36361 0.622699 7.46959 0.529005 7.48782 0.507387C7.51873 0.473301 7.51512 0.470367 7.51534 0.470263C7.50995 0.477334 7.49787 0.500725 7.48316 0.540869C7.49844 0.453961 7.47646 0.603205 7.47596 0.669942C7.47163 0.753773 7.46777 0.843675 7.46296 0.933423C7.45349 1.11373 7.44044 1.29626 7.42359 1.47977C7.41214 1.59778 7.45385 1.50373 7.43707 1.67916C7.3963 2.12016 7.29043 2.77119 7.12344 3.29873C7.06312 3.49384 7.01014 3.72842 6.95763 3.88903C6.82773 4.30071 6.88142 3.76108 6.80137 4.08204C6.76353 4.2344 6.83697 4.42403 6.83317 4.46357C6.79917 4.84192 6.70349 5.09339 6.64463 5.43294C6.63233 5.50301 6.68907 5.44397 6.67801 5.50375C6.64029 5.70874 6.57076 5.91659 6.52308 6.11124C6.50179 6.1981 6.53759 6.19065 6.51327 6.27003C6.45505 6.4597 6.39138 6.62466 6.30188 6.79979C6.29373 6.81561 6.29222 6.69008 6.24492 6.82901C6.16788 7.05412 6.03733 7.32022 5.95487 7.58569C5.93011 7.66446 5.998 7.69891 5.87474 7.83847C5.84821 7.86754 5.7908 7.78559 5.76618 8.00484C5.76414 8.04099 5.68446 8.40489 5.52866 8.51647C5.48836 8.54658 5.36344 8.60248 5.31329 8.69119C5.30659 8.70351 5.37195 8.68192 5.32501 8.75294C5.15821 9.00218 4.94208 9.23935 4.70851 9.45595C4.64551 9.51377 4.77036 9.46326 4.67398 9.54844C4.57072 9.63822 4.44943 9.72817 4.31773 9.80913C4.19697 9.884 4.00421 9.97443 3.77163 9.95752C3.54083 9.93727 3.41384 9.84818 3.36338 9.82777C3.35478 9.82329 3.34861 9.82017 3.34504 9.81815C3.34098 9.81155 3.35141 9.77915 3.35185 9.77531C3.34716 9.73701 3.54201 9.7502 3.55705 9.71628C3.61914 9.63971 3.57038 9.72662 3.56899 9.79753C3.55752 9.90814 3.54574 10.022 3.54911 10.1456C3.55087 10.2119 3.59068 10.1654 3.59399 10.1787C3.62672 10.3147 3.55733 10.2126 3.54906 10.2993C3.52614 10.5433 3.53461 10.8196 3.54342 11.0741C3.54669 11.1676 3.59055 11.0618 3.59293 11.1458C3.60602 11.6441 3.61101 12.1748 3.51032 12.7057C3.49 12.8062 3.46527 12.7369 3.45411 12.7566C3.3784 12.8893 3.39668 13.1219 3.38337 13.1797C3.32998 13.4283 3.26163 13.5231 3.08091 13.7422C2.9394 13.9091 2.69054 14.0478 2.45273 14.0731C2.14307 14.0894 2.01733 13.9806 2.09317 14.0168C2.11968 14.0211 2.21685 14.0355 2.33162 13.9716C2.44329 13.9063 2.47713 13.8259 2.48984 13.7978C2.51189 13.7368 2.50096 13.7551 2.50202 13.7711C2.47012 14.3864 2.45661 15.0498 2.41477 15.6136C2.40117 15.7933 2.38506 15.9704 2.35472 16.1546C2.33833 16.2478 2.32222 16.3415 2.27891 16.4655C2.2477 16.5342 2.24738 16.5969 2.10342 16.7415C2.03273 16.8154 1.83884 16.8942 1.69103 16.8565C1.54794 16.8239 1.49296 16.7705 1.44224 16.7281C0.90787 16.1294 0.684962 15.6278 0.270156 15.1673C0.235975 15.1313 0.236259 15.1994 0.206546 15.1698C0.18582 15.1494 0.165302 15.1316 0.156685 15.1256C0.157024 15.117 0.124344 15.1371 0.285678 15.1643C0.368473 15.183 0.555393 15.1061 0.602236 15.0324C0.664096 14.9541 0.661724 14.9287 0.669019 14.9098C0.674755 14.8839 0.670267 14.9007 0.671022 14.9241C0.682213 15.4218 0.727322 15.9766 0.782877 16.5163C0.788995 16.5746 0.825521 16.4863 0.836872 16.5802C0.860392 16.7718 0.879925 17.016 0.883578 17.212C0.885491 17.3081 0.836182 17.1833 0.838899 17.2802C0.845006 17.5042 0.863761 17.7434 0.891726 17.9717C0.903728 18.069 0.935212 17.9181 0.947268 18.0443C1.00073 18.5981 1.05467 19.1465 1.08934 19.7011C1.10869 20.0144 1.11874 20.3145 1.13771 20.613C1.14135 20.6697 1.05714 20.7329 1.09384 20.8512C1.1204 20.8562 1.14985 20.8509 1.17731 20.8505C1.36285 21.9181 1.76115 22.9518 2.25351 23.9674C2.30321 24.0693 2.35221 24.169 2.40228 24.2699C2.42602 24.3177 2.42811 24.2136 2.47425 24.3059C2.74012 24.8369 3.01587 25.344 3.25811 25.9029C3.28181 25.9575 3.19247 25.9718 3.28757 26.1222C3.30383 26.1479 3.4413 26.379 3.49065 26.4306C3.49761 26.4375 3.50921 26.3754 3.55162 26.4509C3.79527 26.8855 4.04498 27.3486 4.27732 27.7873C4.31469 27.858 4.23478 27.8067 4.26104 27.8571C4.44981 28.2174 4.7097 28.5734 4.89562 28.903C5.02102 29.1214 4.9078 29.0895 4.933 29.2412C4.93586 29.2628 5.0338 29.3834 5.00897 29.4171C4.94493 29.5044 4.80325 29.5181 4.74074 29.6178C4.7241 29.64 4.91635 29.8016 4.77133 29.7361C4.75676 29.7287 4.62902 29.6123 4.58638 29.5891C4.55762 29.5753 4.55696 29.6428 4.5062 29.6076C4.4543 29.5704 4.44292 29.4971 4.36868 29.4308C4.29507 29.3647 4.27939 29.4281 4.16421 29.2726ZM12.0263 11.5816C11.8899 11.5249 11.8538 11.6715 12.0085 11.653C12.016 11.6519 12.0332 11.5845 12.0263 11.5816ZM8.83105 24.8486C8.99447 24.7324 8.99199 24.5707 8.87231 24.6497C8.75268 24.7291 8.78126 24.8843 8.83105 24.8486ZM7.73904 26.471C7.91273 26.3264 7.7621 26.1732 7.65693 26.3853C7.65073 26.3975 7.72893 26.4793 7.73904 26.471ZM4.54829 28.7346C4.54808 28.7382 4.60985 28.8342 4.61325 28.8355C4.68653 28.8597 4.56247 28.6671 4.54829 28.7346ZM6.39451 27.8106C6.46851 27.7999 6.61589 27.6646 6.52519 27.6809C6.45333 27.6943 6.30369 27.8242 6.39451 27.8106ZM8.55785 6.21852C8.55958 6.21588 8.54602 6.13312 8.53398 6.13708C8.49507 6.15012 8.52812 6.26289 8.55785 6.21852ZM3.30711 28.7128C3.79225 28.7187 4.09778 28.8802 3.5613 28.8741C3.46459 28.8721 3.76875 28.8146 3.6454 28.801C3.42064 28.7763 3.27191 28.8859 3.04298 28.8271C3.00161 28.8163 3.27944 28.7122 3.30798 28.7125C3.30769 28.7126 3.3074 28.7127 3.30711 28.7128ZM11.9649 11.3938C11.9623 11.3914 11.8471 11.3775 11.8441 11.3793C11.7772 11.4201 12.0083 11.4479 11.9649 11.3938ZM7.75888 1.39431C7.76243 1.38799 7.70821 1.12084 7.70221 1.11504C7.59658 0.995591 7.70475 1.52722 7.75888 1.39431ZM14.1462 16.6665C14.1665 16.8096 14.1175 16.9695 14.0229 17.0437C14.0738 16.9238 14.1161 16.7983 14.1462 16.6665Z" fill="var(--stroke-0, #3C8634)"/>
<path id="Vector 18" d="M4.5212 29.0216C4.50817 28.9424 4.52207 28.8282 4.54116 28.7491C4.54708 28.7227 4.57359 28.7361 4.57887 28.7176C4.58916 28.6816 4.57615 28.6519 4.58841 28.6164C4.5926 28.6047 4.63459 28.6192 4.63802 28.607C4.65654 28.539 4.64582 28.4804 4.6547 28.4117C4.69851 28.0864 4.71393 27.7606 4.7326 27.4302C4.73871 27.3196 4.77661 27.1891 4.75976 27.0735C4.75776 27.06 4.72092 27.0682 4.71788 27.0656C4.67132 27.0265 4.74573 27.0396 4.75557 27.0142C4.79443 26.9138 4.79762 26.7973 4.78321 26.7009C4.77698 26.6591 4.70386 26.7012 4.74486 26.6589C4.74763 26.6559 4.78679 26.6665 4.79094 26.655C4.80028 26.629 4.79318 26.5785 4.79624 26.5584C4.80234 26.5203 4.80194 26.5139 4.80231 26.4775C4.80316 26.4277 4.82248 26.3676 4.8135 26.3128C4.81147 26.3011 4.77138 26.3165 4.76452 26.2981C4.75767 26.2801 4.76096 26.2322 4.77038 26.2159C4.77981 26.1996 4.81135 26.2065 4.81857 26.2036C4.87952 26.1798 4.79491 26.1237 4.79281 26.1164C4.7569 25.9816 4.80477 25.8737 4.80432 25.7469C4.80389 25.6543 4.78774 25.5543 4.78968 25.4635C4.79215 25.3578 4.81364 25.2685 4.80961 25.1635C4.80923 25.1525 4.7621 25.1656 4.76154 25.1521C4.75566 25.0132 4.76038 24.8681 4.79179 24.7297C4.79498 24.7156 4.83645 24.7336 4.84211 24.7195C4.87589 24.634 4.95719 24.4936 4.77673 24.4447C4.78358 24.3867 4.79063 24.3156 4.82679 24.2627C4.85007 24.2286 4.89529 24.2615 4.8759 24.2197C4.87158 24.2103 4.83212 24.2227 4.82863 24.2085C4.81396 24.1483 4.82659 24.0857 4.80597 24.0271C4.80168 24.0152 4.76629 24.0186 4.75991 24.0152C4.70818 23.9872 4.79336 23.9395 4.79952 23.9292C4.84549 23.85 4.82708 23.7931 4.82795 23.7207C4.82817 23.7039 4.78069 23.724 4.7792 23.7078C4.77208 23.6239 4.77583 23.5351 4.79662 23.4524C4.80136 23.4342 4.84192 23.4508 4.84626 23.4421C4.86489 23.4036 4.78835 23.3953 4.80474 23.3583C4.8081 23.3505 4.84279 23.3547 4.84659 23.3533C4.90629 23.3308 4.82151 23.3117 4.81961 23.3059C4.79378 23.2333 4.88202 23.1861 4.86922 23.1151C4.8676 23.1068 4.8238 23.1257 4.82193 23.1023C4.80919 22.9473 4.82054 22.7765 4.85498 22.6229C4.86028 22.5987 4.89331 22.6158 4.89736 22.6143C4.96074 22.5892 4.87561 22.5735 4.87238 22.5656C4.84905 22.5034 4.92013 22.4445 4.81863 22.4022C4.85263 22.1391 4.79453 21.8766 4.88403 21.6129C4.88506 21.6095 4.92698 21.6153 4.92887 21.6086C4.952 21.5286 4.88697 21.5446 4.80708 21.4922C4.78702 21.479 4.88296 21.4381 4.88999 21.4345C4.9159 21.4213 4.97829 21.4346 4.98329 21.4302C5.02261 21.3938 4.81653 21.4007 4.81622 21.3518C4.81655 21.3502 4.85452 21.3565 4.85828 21.3523C4.87005 21.3395 4.85492 21.3269 4.86791 21.3143C4.89799 21.2855 4.99809 21.2748 4.93958 21.2312C4.93221 21.2258 4.82197 21.2342 4.82026 21.1945L4.82074 21.2065C4.8206 21.2053 4.82056 21.204 4.82063 21.2027C4.82162 21.185 4.81389 21.1079 4.81985 21.0859C4.82579 21.0639 4.86446 21.0758 4.86597 21.0742C4.91134 21.0127 4.93357 21.033 5.00496 20.9987C5.07608 20.9643 4.90191 20.9854 4.88152 20.9752C4.86121 20.9651 4.89898 20.9191 4.91244 20.9076C4.92591 20.896 4.95077 20.9073 4.95813 20.8974C5.00619 20.8316 4.86935 20.8768 4.84008 20.8585C4.7708 20.8157 4.8976 20.7688 4.90702 20.7245C4.90956 20.7125 4.88077 20.7243 4.87722 20.7141C4.86349 20.6729 4.90201 20.6445 4.86132 20.5998C4.85469 20.5925 4.77385 20.5601 4.82915 20.531C4.83713 20.5269 4.87018 20.5344 4.87607 20.5161C4.88493 20.4891 4.88832 20.4404 4.87532 20.4125C4.86572 20.3919 4.81436 20.4203 4.82885 20.3924C4.83533 20.38 4.86814 20.3995 4.87771 20.3764C4.88728 20.3535 4.88161 20.2974 4.87891 20.2762C4.87618 20.255 4.83671 20.2698 4.83386 20.2682C4.8175 20.2592 4.79487 20.2194 4.79464 20.2157C4.77561 20.0323 4.83076 19.8596 4.79452 19.682C4.79174 19.6681 4.74989 19.6807 4.74903 19.6786C4.72754 19.6322 4.84359 19.6612 4.87892 19.625C4.79291 19.6364 4.80705 19.6155 4.79502 19.5828C4.78916 19.567 4.75638 19.5784 4.75284 19.5771C4.70019 19.5567 4.76451 19.5348 4.7776 19.5294C4.82576 19.5095 4.76609 19.4965 4.79826 19.4831C4.83019 19.4698 4.88066 19.4911 4.87758 19.4588C4.84596 19.452 4.76699 19.4822 4.75202 19.4586C4.6955 19.3707 4.74578 19.1917 4.74684 19.1169C4.74784 19.0415 4.74038 19.0181 4.74838 18.9742C4.76285 18.8947 4.70496 18.9273 4.67394 18.8806C4.64293 18.8337 4.79221 18.8467 4.82342 18.8374C4.85462 18.8282 4.82144 18.8231 4.83825 18.8133C4.85506 18.8035 4.87796 18.8203 4.88305 18.7999C4.88813 18.7793 4.82782 18.7292 4.79412 18.7241C4.72276 18.714 4.65079 18.7441 4.67288 18.6888C4.67419 18.6856 4.71371 18.6928 4.71679 18.6807C4.74003 18.5858 4.73508 18.4885 4.75519 18.3943C4.75802 18.3814 4.80197 18.3898 4.8041 18.3822C4.82649 18.3034 4.75553 18.3354 4.6718 18.2983C4.78008 18.3007 4.84431 18.2726 4.84109 18.2141C4.8392 18.179 4.79259 18.1882 4.75798 18.1677C4.74754 18.1614 4.77818 18.1341 4.75578 18.131C4.68254 18.1206 4.60314 18.1494 4.63146 18.0865C4.63282 18.0838 4.67293 18.0897 4.67474 18.0804C4.68664 18.0198 4.61066 18.0187 4.59748 17.9539C4.58714 17.9033 4.62799 17.8123 4.63216 17.7535C4.75329 17.7477 4.72249 17.6952 4.6378 17.678C4.63917 17.6411 4.63223 17.6004 4.64187 17.5637C4.64515 17.5511 4.68064 17.5574 4.68435 17.5557C4.74252 17.5286 4.66045 17.5167 4.65685 17.5089C4.62144 17.4236 4.6796 17.3493 4.61571 17.2688C4.61341 17.2659 4.52903 17.2647 4.58951 17.2397C4.59369 17.2381 4.63317 17.264 4.63444 17.2246C4.63571 17.1852 4.67785 17.11 4.63685 17.0567C4.62698 17.0439 4.55744 17.013 4.60994 16.9847C4.61708 16.9809 4.64135 16.984 4.65462 16.9784C4.69688 16.9604 4.61147 16.9539 4.68314 16.9319C4.75482 16.91 4.8077 16.868 4.75636 16.8154C4.75487 16.8136 4.68705 16.8023 4.68768 16.7849C4.68874 16.7572 4.7019 16.7178 4.70089 16.6894C4.70037 16.6758 4.65865 16.6854 4.65784 16.683C4.63254 16.5902 4.66896 16.5244 4.68457 16.4248C4.68751 16.4069 4.63019 16.3548 4.67545 16.3193C4.72502 16.2808 4.9305 16.3205 4.88201 16.2335C4.86269 16.198 4.60213 16.1492 4.73854 16.0874C4.70744 15.9617 4.78044 15.8499 4.73924 15.7234C4.73741 15.7178 4.66564 15.6961 4.66741 15.6826C4.67017 15.6629 4.70482 15.6541 4.70793 15.6403C4.7218 15.583 4.69672 15.5262 4.70592 15.4706C4.70686 15.4648 4.71013 15.4614 4.71447 15.4589C4.72727 15.4518 4.74589 15.4551 4.75188 15.4378C4.76011 15.4144 4.72015 15.3847 4.75254 15.3576C4.77718 15.3376 4.87472 15.3468 4.89616 15.3257C4.81135 15.2869 4.8212 15.2668 4.82033 15.2181C4.82034 15.2085 4.78767 15.2001 4.78629 15.1946C4.78052 15.1712 4.81161 15.1725 4.80573 15.149C4.80439 15.1433 4.77846 15.1247 4.7761 15.1187C4.75617 15.0648 4.84622 15.0724 4.85958 15.0775C4.91382 15.0906 4.89614 15.0517 4.92611 15.0522C4.95462 15.0544 4.94322 15.0916 4.96898 15.087C5.0207 15.0786 5.07101 15.0504 5.11854 15.037C5.13706 15.0316 5.112 14.9948 5.11434 14.9931C5.1528 14.9699 5.20332 15.0055 5.21039 14.9177C5.28016 15.1279 5.23185 14.8914 5.30119 14.9253C5.30661 14.9281 5.32674 15.03 5.31183 15.0476C5.29668 15.0652 5.26508 15.0375 5.24618 15.0653C5.24075 15.0719 5.2312 15.1732 5.22939 15.1798C5.21228 15.231 5.16881 15.0826 5.1644 15.0749C5.1192 14.9917 5.11225 15.1045 5.10863 15.114C5.0827 15.1595 5.04599 15.1554 5.03586 15.192C5.02966 15.2158 5.09535 15.2938 5.08745 15.2967C5.06447 15.3037 4.93068 15.2462 5.01594 15.3466C5.03463 15.368 5.13898 15.4058 5.04674 15.3981C5.04128 15.3965 4.95615 15.3937 4.99795 15.4279C5.00328 15.432 5.03391 15.4424 5.03564 15.4458C5.04664 15.4683 5.01842 15.4723 5.02446 15.4968C5.02755 15.5081 5.03186 15.521 5.0336 15.5341L5.04132 15.4868C5.04511 15.5023 5.04596 15.5181 5.03911 15.533C5.03115 15.5503 4.96931 15.5692 4.95395 15.5769C4.90972 15.5991 4.97756 15.6295 4.9252 15.6415C4.87258 15.6538 4.79607 15.6181 4.76014 15.6573C4.84395 15.664 4.92986 15.6727 5.0141 15.6802C5.00586 15.7681 4.97482 15.8537 4.97566 15.9432C4.97585 15.9543 5.02138 15.9444 5.02275 15.9563C5.0284 16.0064 4.99514 16.0485 5.007 16.1014C5.01638 16.1414 5.06364 16.1858 5.07536 16.2282C4.97894 16.2531 5.01129 16.3153 5.00259 16.3613C4.99958 16.3775 4.97389 16.3764 4.96554 16.3877C4.93471 16.4303 5.01964 16.41 5.03307 16.4216C5.09047 16.4711 4.8981 16.4776 4.90354 16.5373C4.90376 16.5404 5.00683 16.5774 5.0133 16.5826C5.05547 16.6157 4.97769 16.5887 4.97046 16.61C4.95726 16.6491 4.93329 16.6765 4.96432 16.721C4.9735 16.734 5.03815 16.7641 4.98939 16.7912C4.98301 16.7948 4.94907 16.7938 4.94716 16.7966C4.91539 16.847 5.02192 16.8449 5.0588 16.8719C5.09566 16.8987 5.02358 16.9447 5.0027 16.9544C4.94869 16.9797 4.97869 16.9372 4.97328 16.9362C4.90881 16.9233 4.92086 16.9554 4.91628 16.9796C4.81202 16.9866 4.81947 17.0203 4.91196 17.0048C4.92206 17.003 4.91168 16.9846 4.91628 16.9796C5.01941 16.9973 5.03381 17.0335 4.9397 17.0786C4.89561 17.0997 4.84258 17.0837 4.86405 17.1418C4.87376 17.1679 4.94519 17.1547 4.96575 17.1773C5.01265 17.2288 4.94878 17.3022 4.96196 17.3567C4.96675 17.3766 5.00514 17.3552 5.00977 17.3687C5.02217 17.4044 4.99433 17.4392 5.01126 17.4743C5.01285 17.4775 5.05359 17.4674 5.05469 17.4786C5.06387 17.5642 5.04163 17.6412 5.04605 17.7313C5.04825 17.7756 5.07549 17.8512 5.0737 17.8968C5.07086 17.9767 5.01705 18.075 5.03602 18.1422C5.04816 18.1852 5.08866 18.1728 5.1179 18.1895C5.17456 18.2217 5.08158 18.2923 5.06711 18.3021C5.06662 18.3024 5.05439 18.2652 5.03464 18.2868C4.99144 18.3015 5.06689 18.3017 5.06711 18.3021C5.05777 18.3087 5.05351 18.3841 5.0624 18.3984C5.06725 18.4062 5.1059 18.399 5.10769 18.4031C5.14948 18.5015 5.16639 18.6003 5.15558 18.7045C5.15492 18.7064 5.11116 18.7068 5.11016 18.7111C5.09502 18.7713 5.15103 18.8049 5.18624 18.8514C5.22145 18.8982 5.2137 18.9374 5.14103 18.9715C5.15314 19.0073 5.124 19.0626 5.10623 19.0947C5.08846 19.1268 5.17356 19.1247 5.17543 19.1272C5.23525 19.2056 5.19038 19.2579 5.18939 19.3451C5.18873 19.386 5.20721 19.4665 5.21991 19.5107C5.2301 19.5459 5.2118 19.5679 5.22697 19.5993C5.229 19.6035 5.26641 19.5962 5.26797 19.5974C5.31588 19.63 5.22228 19.6197 5.20637 19.6284C5.14851 19.6601 5.11787 19.6792 5.14963 19.7236C5.1569 19.7338 5.2922 19.7554 5.30143 19.7738C5.31322 19.7982 5.26486 19.7924 5.27842 19.8178C5.27954 19.82 5.30888 19.8173 5.30884 19.8337C5.30902 19.9099 5.29836 19.9949 5.30732 20.073C5.30843 20.0838 5.35397 20.0664 5.35635 20.0819C5.3675 20.1547 5.37195 20.2353 5.35556 20.3079C5.35139 20.3259 5.31792 20.3174 5.30852 20.3219C5.25169 20.3498 5.33941 20.3766 5.34145 20.382C5.39236 20.5094 5.32292 20.6158 5.36963 20.7455C5.37233 20.7525 5.46785 20.8013 5.39142 20.8322C5.38633 20.8343 5.30807 20.8651 5.3645 20.8829C5.36803 20.884 5.40812 20.8654 5.40594 20.8927C5.4038 20.9204 5.43451 20.9605 5.39193 21.0007C5.37852 21.0134 5.30064 21.0469 5.36696 21.077C5.37157 21.0789 5.51966 21.1221 5.42169 21.1489C5.41093 21.1518 5.36048 21.1548 5.34495 21.1677C5.34498 21.1725 5.34621 21.187 5.3459 21.1919C5.33771 21.1977 5.33806 21.2067 5.35616 21.2206C5.36668 21.2285 5.39014 21.2139 5.40493 21.2349C5.42774 21.2671 5.3997 21.3099 5.44689 21.3491C5.45524 21.356 5.52698 21.3849 5.47276 21.4086C5.46426 21.4124 5.42901 21.4055 5.42513 21.4179C5.40652 21.4769 5.43037 21.538 5.4063 21.5977C5.39784 21.6191 5.34085 21.6084 5.3257 21.6308C5.31056 21.6531 5.2961 21.6979 5.32223 21.721C5.34837 21.7441 5.43898 21.7183 5.44641 21.753C5.47865 21.9033 5.42611 22.0526 5.41901 22.2033C5.41794 22.2256 5.45033 22.207 5.45109 22.2398C5.45404 22.3591 5.48541 22.5712 5.41685 22.6752C5.36195 22.759 5.31944 22.654 5.29722 22.718C5.28662 22.7485 5.39225 22.7825 5.3956 22.7899C5.42965 22.8636 5.38313 22.9148 5.39773 22.9805C5.40076 22.9941 5.44346 22.9806 5.44557 22.9921C5.45314 23.0316 5.43423 23.0729 5.43787 23.1103C5.4396 23.1273 5.47224 23.1241 5.46978 23.1399C5.46428 23.1776 5.45068 23.211 5.42022 23.2476C5.41744 23.251 5.37673 23.2287 5.37533 23.2564C5.37318 23.3013 5.3432 23.3568 5.37457 23.4078C5.38401 23.4229 5.45865 23.4232 5.40723 23.4559C5.39649 23.4629 5.30684 23.4539 5.38442 23.4923C5.39731 23.4988 5.502 23.5633 5.43479 23.5951C5.4171 23.6035 5.34385 23.6251 5.35544 23.6434C5.35729 23.6459 5.39734 23.6358 5.40131 23.651C5.41459 23.7046 5.41051 23.7605 5.42326 23.8149C5.42675 23.8294 5.46815 23.8075 5.47202 23.8294C5.48273 23.8904 5.47243 23.9662 5.45965 24.025C5.45486 24.0467 5.42045 24.0319 5.41671 24.0335C5.35598 24.059 5.43813 24.0737 5.44294 24.0821C5.47179 24.1342 5.43335 24.1735 5.44373 24.2228C5.44648 24.2362 5.4856 24.2265 5.4891 24.2292C5.5233 24.2569 5.45292 24.2364 5.44523 24.254C5.42346 24.3033 5.42678 24.3579 5.43195 24.407C5.4339 24.4251 5.47922 24.4046 5.48045 24.4208C5.48858 24.5151 5.48457 24.6188 5.45983 24.7121C5.45509 24.7297 5.4201 24.7187 5.41213 24.7224C5.35636 24.748 5.43265 24.7847 5.43994 24.7932C5.47319 24.8313 5.44233 24.8474 5.4482 24.8821C5.47743 25.0512 5.45755 25.2599 5.44532 25.4174C5.4296 25.6262 5.39675 25.7866 5.40584 25.9834C5.40638 25.9958 5.45284 25.9832 5.4539 25.9938C5.46544 26.1356 5.44756 26.2689 5.46129 26.4121C5.46233 26.4236 5.50638 26.407 5.50954 26.4254C5.51632 26.4633 5.51402 26.5109 5.50002 26.5484C5.49327 26.5668 5.4554 26.5423 5.44938 26.5607C5.43529 26.6052 5.43224 26.6528 5.4394 26.6976C5.44253 26.7167 5.48756 26.6878 5.48813 26.7126C5.49292 26.8801 5.50097 27.0473 5.44285 27.2192C5.43886 27.2308 5.34725 27.2411 5.36486 27.2656C5.39029 27.2674 5.4202 27.2672 5.44738 27.268C5.4624 27.5155 5.43094 27.7594 5.42627 28.0066C5.42609 28.017 5.47462 27.999 5.4745 28.0191C5.4739 28.1337 5.48744 28.2476 5.43927 28.3686C5.43456 28.3803 5.34915 28.3746 5.36209 28.4085C5.36445 28.4132 5.37587 28.4685 5.39442 28.4818C5.39722 28.4836 5.43708 28.474 5.43825 28.491C5.44436 28.5866 5.43531 28.6917 5.41098 28.7908C5.40698 28.8062 5.36452 28.7898 5.3613 28.8007C5.33879 28.8821 5.37108 28.9687 5.33254 29.0452C5.30659 29.0972 5.2332 29.0763 5.16097 29.1038C5.15078 29.1085 5.14917 29.1409 5.10714 29.1421C5.00146 29.1462 4.88574 29.1312 4.7731 29.1374C4.74883 29.1393 4.77497 29.1779 4.71633 29.1551C4.71241 29.1539 4.69295 29.124 4.67306 29.1155C4.65931 29.1099 4.61657 29.12 4.59896 29.1085C4.58137 29.0956 4.6172 29.0867 4.59652 29.0688C4.57558 29.0509 4.52696 29.0597 4.5212 29.0216ZM5.0268 19.2378C4.9882 19.269 5.13764 19.262 5.09967 19.2342C5.09766 19.2329 5.02869 19.2362 5.0268 19.2378ZM4.8625 15.849C4.79512 15.8824 4.8912 15.9109 4.94303 15.8873C4.99482 15.8641 4.88293 15.839 4.8625 15.849ZM4.83771 15.4702C4.78235 15.508 4.99323 15.5313 4.95417 15.4837C4.95272 15.4819 4.90387 15.4756 4.86989 15.4722L4.86641 15.4935C4.85666 15.491 4.84815 15.4889 4.84243 15.4877L4.84529 15.4701C4.84093 15.4699 4.83818 15.4699 4.83771 15.4702ZM5.14039 28.9786C5.13841 28.9791 5.13648 29.0014 5.13844 29.0018C5.18594 29.0136 5.18977 28.9692 5.14039 28.9786ZM4.93088 15.1607C4.90111 15.1498 4.90448 15.1983 4.94152 15.2093C4.96972 15.2194 4.96565 15.176 4.93088 15.1607ZM4.97972 20.7178C4.97753 20.7184 4.97675 20.7348 4.98929 20.7335C5.02966 20.7293 5.01654 20.7077 4.97972 20.7178ZM5.49632 14.9829C5.40234 14.9841 5.32265 14.8173 5.43069 14.8253C5.45001 14.8268 5.39579 14.8851 5.42149 14.8983C5.4685 14.9222 5.48641 14.81 5.53711 14.8645C5.54595 14.8745 5.50174 14.9832 5.49617 14.9832C5.49622 14.9831 5.49627 14.983 5.49632 14.9829ZM4.8489 19.2675C4.84697 19.2682 4.84681 19.291 4.8488 19.2914C4.89707 19.3001 4.89743 19.2542 4.8489 19.2675ZM4.92521 21.6737C4.921 21.675 4.91731 21.7278 4.9212 21.7295C4.99897 21.7566 5.00666 21.6499 4.92521 21.6737ZM4.63534 17.7524C4.58623 17.7303 4.57894 17.701 4.63774 17.6781C4.63592 17.7027 4.63685 17.7274 4.63534 17.7524Z" fill="var(--stroke-0, #3C8634)"/>
<path id="Vector 19" d="M4.52201 23.51C4.50946 23.443 4.5247 23.3535 4.54522 23.2872C4.55159 23.2662 4.57786 23.2775 4.58346 23.263C4.5944 23.2342 4.58202 23.2085 4.59503 23.1807C4.59947 23.1716 4.64113 23.1842 4.64483 23.1746C4.6648 23.1217 4.65563 23.0716 4.66639 23.0182C4.71954 22.7546 4.74874 22.4985 4.78602 22.2336C4.79824 22.1467 4.84415 22.0431 4.83485 21.9515C4.83372 21.9408 4.79649 21.9441 4.79362 21.9418C4.74984 21.9065 4.82313 21.9231 4.83468 21.9034C4.88029 21.8251 4.89165 21.735 4.88486 21.6554C4.88187 21.6215 4.80584 21.6481 4.84993 21.6183C4.85292 21.6163 4.89106 21.6284 4.89609 21.6197C4.90741 21.5999 4.90428 21.5599 4.90897 21.5441C4.91818 21.5138 4.91831 21.5087 4.92173 21.4795C4.92677 21.4396 4.95112 21.3941 4.94695 21.3504C4.94595 21.341 4.90475 21.3488 4.89956 21.3334C4.89436 21.3181 4.90207 21.2796 4.91295 21.2676C4.92382 21.2556 4.95453 21.2647 4.96197 21.2632C5.02471 21.2512 4.94593 21.197 4.94454 21.191C4.92152 21.0816 4.9806 20.9973 4.99358 20.8993C5.00343 20.8242 4.99887 20.743 5.01176 20.6715C5.02709 20.5877 5.06002 20.5186 5.07006 20.4363C5.07119 20.4275 5.02295 20.4299 5.02424 20.4191C5.03794 20.3052 5.0636 20.1939 5.11778 20.0875C5.12322 20.077 5.16087 20.0996 5.16873 20.0897C5.21607 20.0272 5.31929 19.9398 5.15369 19.8573C5.17128 19.8131 5.1929 19.7563 5.23878 19.7247C5.26838 19.7042 5.30504 19.7419 5.29525 19.704C5.29313 19.6954 5.25234 19.6949 5.25207 19.6827C5.25103 19.6311 5.27768 19.5847 5.27271 19.5315C5.27156 19.5208 5.23695 19.5129 5.2317 19.5083C5.18936 19.4703 5.28313 19.4578 5.29179 19.4516C5.35462 19.4055 5.35592 19.3547 5.37775 19.3004C5.37834 19.2989 5.37893 19.2975 5.37955 19.296C5.38496 19.2833 5.33474 19.2808 5.33838 19.2679C5.35777 19.2014 5.38895 19.1372 5.43481 19.084C5.44516 19.0721 5.4769 19.1008 5.48374 19.096C5.5134 19.0747 5.44604 19.0378 5.47322 19.017C5.47885 19.0126 5.50915 19.0299 5.5131 19.0303C5.57513 19.0378 5.50408 18.9892 5.50431 18.9841C5.50498 18.92 5.60135 18.922 5.61362 18.8661C5.61509 18.8592 5.56879 18.8546 5.57536 18.8364C5.6185 18.7158 5.68963 18.5999 5.77867 18.5051C5.79246 18.4903 5.81525 18.5179 5.81942 18.5187C5.88487 18.5305 5.8154 18.4798 5.8156 18.4726C5.81871 18.4172 5.90344 18.4102 5.83055 18.3321C5.96236 18.1624 6.01776 17.9528 6.19942 17.8183C6.20165 17.8165 6.23565 17.8414 6.23993 17.8378C6.29177 17.7946 6.22925 17.7727 6.18071 17.6971C6.16853 17.6781 6.26788 17.6979 6.27542 17.6988C6.30309 17.7027 6.35203 17.7427 6.35811 17.7422C6.40662 17.7367 6.22498 17.6392 6.24372 17.6058C6.24461 17.6049 6.27519 17.628 6.28006 17.627C6.2953 17.6241 6.28703 17.608 6.30321 17.6059C6.34054 17.6011 6.43193 17.6429 6.39775 17.5844C6.39324 17.5769 6.28786 17.5259 6.30922 17.4987C6.3178 17.488 6.34502 17.4342 6.35963 17.4231C6.37429 17.4119 6.40192 17.44 6.40392 17.4397C6.4694 17.4234 6.47936 17.4483 6.55529 17.4629C6.631 17.4771 6.47336 17.4002 6.46046 17.3829C6.44761 17.3655 6.49955 17.3552 6.51606 17.3545C6.53256 17.3538 6.54896 17.3741 6.55955 17.3713C6.62895 17.3527 6.4923 17.3122 6.47497 17.2853C6.4337 17.2218 6.5624 17.2556 6.58947 17.2302C6.59676 17.2234 6.56688 17.2169 6.56815 17.2082C6.57337 17.1742 6.61849 17.1746 6.60158 17.1245C6.59885 17.1163 6.54149 17.0555 6.60157 17.0628C6.61022 17.0639 6.63603 17.085 6.64864 17.0754C6.66758 17.0611 6.68991 17.0303 6.68961 17.0051C6.68937 16.9874 6.63817 16.982 6.65383 16.9711L6.6458 16.9965C6.64643 16.9958 6.64722 16.995 6.64818 16.9941C6.65716 16.9862 6.68473 17.009 6.69903 16.9937C6.71333 16.9784 6.71996 16.934 6.72187 16.9171C6.72377 16.9002 6.68228 16.9023 6.67984 16.9004C6.66592 16.8895 6.65233 16.8543 6.65287 16.8515C6.67296 16.7085 6.762 16.5872 6.76097 16.4448C6.76094 16.4337 6.71763 16.4345 6.71719 16.4328C6.70524 16.3924 6.81294 16.4392 6.8545 16.4184C6.76826 16.4093 6.78614 16.3961 6.78068 16.3682C6.77797 16.3548 6.74376 16.3568 6.74054 16.3552C6.69294 16.3289 6.75995 16.3254 6.77377 16.3239C6.82459 16.3186 6.76866 16.2966 6.80264 16.2929C6.83638 16.2891 6.88177 16.3157 6.8848 16.2903C6.85512 16.2788 6.77222 16.2859 6.76197 16.265C6.72339 16.1849 6.80454 16.0594 6.81863 16.0009C6.83269 15.9433 6.82926 15.9243 6.84461 15.8915C6.87229 15.832 6.80983 15.8474 6.78707 15.806C6.76425 15.7647 6.90897 15.8005 6.94121 15.7987C6.97342 15.797 6.94161 15.7873 6.95975 15.7826C6.97788 15.7779 6.99767 15.795 7.00603 15.7799C7.01437 15.765 6.96315 15.715 6.93074 15.7056C6.86206 15.6858 6.78642 15.697 6.81689 15.6581C6.81869 15.6559 6.85649 15.668 6.86142 15.6592C6.89924 15.5897 6.90909 15.5134 6.94264 15.443C6.94731 15.4333 6.98949 15.4465 6.9927 15.441C7.02615 15.383 6.95144 15.3973 6.87393 15.3562C6.98059 15.3739 7.04812 15.3613 7.05301 15.3148C7.05597 15.2868 7.00861 15.2874 6.97713 15.2665C6.96764 15.2603 7.00159 15.2436 6.97982 15.2381C6.9087 15.2199 6.82635 15.2315 6.86262 15.1864C6.86432 15.1844 6.90326 15.1945 6.90626 15.1874C6.92588 15.1418 6.85085 15.1299 6.84568 15.0794C6.84165 15.0393 6.89304 14.9719 6.90363 14.928C7.02452 14.9379 6.99985 14.8924 6.91756 14.8695C6.92295 14.8403 6.92025 14.8085 6.93351 14.7813C6.93804 14.7719 6.9727 14.7804 6.97656 14.7794C7.03711 14.7643 6.9567 14.7461 6.95389 14.7396C6.92701 14.6688 6.99151 14.6171 6.93451 14.548C6.93245 14.5456 6.84849 14.5378 6.91074 14.5234C6.91502 14.5225 6.95232 14.5457 6.95669 14.5153C6.96104 14.4857 7.00871 14.4276 6.97125 14.3839C6.96225 14.3731 6.89482 14.3455 6.94895 14.3257C6.95629 14.3231 6.98034 14.327 6.99391 14.3234C7.03717 14.3115 6.9523 14.3016 7.02508 14.2884C7.09786 14.2751 7.15297 14.2452 7.10418 14.1999C7.10276 14.1984 7.03555 14.1863 7.03694 14.1727C7.03921 14.1508 7.05389 14.1203 7.05384 14.098C7.05379 14.0873 7.01177 14.0934 7.01104 14.0916C6.98879 14.0168 7.02668 13.9669 7.04306 13.888C7.04615 13.8739 6.98897 13.8328 7.03397 13.8045C7.08321 13.7736 7.28928 13.8035 7.23953 13.7333C7.21955 13.7033 6.9581 13.673 7.09212 13.6192C7.05629 13.5219 7.1219 13.4257 7.06805 13.3292C7.06566 13.3247 6.99207 13.3153 6.99238 13.3051C6.99297 13.2899 7.02637 13.2796 7.02774 13.2677C7.0345 13.2201 7.00172 13.18 7.00155 13.1363C7.00127 13.1188 7.03694 13.1207 7.03651 13.1003C7.0361 13.081 6.98824 13.0717 7.00653 13.0425C7.02045 13.0206 7.11057 12.9834 7.11476 12.9493C7.05298 12.9614 7.03174 12.9556 7.01485 12.9443C7.00654 12.9384 6.99919 12.9306 6.98871 12.9219C6.9825 12.9168 6.95262 12.9314 6.94805 12.9293C6.92877 12.9213 6.95215 12.9036 6.93158 12.8965C6.92663 12.8947 6.89561 12.9022 6.88982 12.9012C6.83932 12.8929 6.9012 12.8434 6.91207 12.835C6.95317 12.8028 6.91046 12.8025 6.92487 12.7819C6.93933 12.7615 6.96769 12.7804 6.97439 12.759C6.98826 12.7148 6.97236 12.666 6.96577 12.626C6.96293 12.6101 6.92336 12.6293 6.92199 12.6273C6.90469 12.5962 6.94295 12.5547 6.85608 12.5516C7.06775 12.4891 6.83137 12.5354 6.86627 12.4797C6.86912 12.4754 6.97058 12.4531 6.98805 12.4647C7.00548 12.4762 6.97732 12.5032 7.00429 12.5186C7.01061 12.5222 7.11108 12.5305 7.11755 12.5329C7.168 12.5515 7.01669 12.5854 7.00861 12.5886C6.92181 12.6236 7.03118 12.6354 7.04 12.642C7.08055 12.6737 7.06649 12.7108 7.097 12.7377C7.11678 12.7552 7.21613 12.7339 7.21695 12.7508C7.21983 12.807 7.08724 12.8606 7.21951 12.8833C7.23366 12.8857 7.26706 12.8774 7.28748 12.8762C7.3081 12.8763 7.31683 12.8864 7.28006 12.924C7.27599 12.9313 7.20366 12.9786 7.25689 12.9928C7.26356 12.9942 7.29552 12.9892 7.29871 12.992C7.31941 13.0112 7.29625 13.0318 7.31145 13.0537C7.32654 13.0746 7.34841 13.1048 7.33995 13.1308C7.33502 13.1473 7.27691 13.1739 7.26289 13.183C7.22237 13.2074 7.29359 13.2237 7.24327 13.2411C7.19267 13.2582 7.11242 13.2384 7.08159 13.2753C7.16554 13.2706 7.25179 13.2672 7.33626 13.2633C7.33857 13.3382 7.31528 13.4166 7.32169 13.4891C7.32258 13.4984 7.36739 13.4872 7.36951 13.4972C7.37826 13.5412 7.34703 13.5757 7.3609 13.6205C7.37176 13.6539 7.42024 13.689 7.43274 13.7252C7.33686 13.7485 7.36997 13.7984 7.36126 13.8373C7.35826 13.8508 7.33256 13.8501 7.32419 13.8592C7.29321 13.8939 7.3782 13.8778 7.39157 13.8874C7.44857 13.929 7.25617 13.9325 7.26054 13.9812C7.26072 13.9836 7.36295 14.0159 7.36928 14.0204C7.41058 14.0487 7.33353 14.0246 7.32573 14.0419C7.31146 14.0735 7.28661 14.0957 7.31593 14.1326C7.32462 14.1435 7.38798 14.1708 7.33804 14.191C7.3315 14.1936 7.29765 14.1913 7.29561 14.1935C7.26152 14.2336 7.36796 14.2367 7.40338 14.2607C7.4388 14.2847 7.36417 14.3183 7.34274 14.3249C7.28732 14.3422 7.3198 14.3095 7.31445 14.3084C7.25084 14.2943 7.26105 14.3205 7.25496 14.3403C7.15049 14.3398 7.15579 14.3674 7.24907 14.3608C7.25925 14.3602 7.25006 14.3442 7.25496 14.3403C7.35676 14.3619 7.36884 14.3918 7.27184 14.4217C7.22637 14.4357 7.17472 14.4186 7.19188 14.4671C7.19959 14.4892 7.27178 14.4842 7.29054 14.504C7.33335 14.5488 7.26359 14.6027 7.27175 14.6484C7.27473 14.6646 7.31487 14.6511 7.31825 14.6623C7.32735 14.6921 7.29641 14.7165 7.30977 14.7472C7.31103 14.75 7.35255 14.7458 7.35253 14.7552C7.35311 14.8265 7.32292 14.8845 7.31701 14.9583C7.31425 14.9931 7.33224 15.058 7.32476 15.0947C7.31224 15.157 7.24595 15.2305 7.25567 15.2854C7.26184 15.3212 7.30356 15.3172 7.33017 15.3348C7.38175 15.3689 7.27975 15.412 7.26404 15.4175C7.26353 15.4177 7.25675 15.3862 7.23415 15.4005C7.18937 15.4058 7.26389 15.4171 7.26404 15.4175C7.25388 15.4216 7.23877 15.4802 7.24538 15.4931C7.24901 15.5001 7.28823 15.5003 7.28939 15.5039C7.31602 15.5888 7.3173 15.6705 7.28982 15.7512C7.28887 15.7526 7.24572 15.7455 7.24403 15.7487C7.21931 15.7944 7.26894 15.83 7.29575 15.8732C7.32256 15.9162 7.30811 15.9467 7.23084 15.9605C7.23659 15.9909 7.19834 16.0289 7.17524 16.0506C7.15215 16.0724 7.236 16.0868 7.23739 16.0892C7.28182 16.164 7.22853 16.195 7.21131 16.2636C7.20296 16.2963 7.20586 16.363 7.20979 16.3999C7.21306 16.4292 7.19081 16.4433 7.19948 16.4712C7.20063 16.475 7.2386 16.4771 7.23988 16.4784C7.28024 16.5144 7.19086 16.4865 7.17361 16.49C7.11085 16.5028 7.07727 16.5108 7.09947 16.552C7.10456 16.5614 7.2323 16.6069 7.23751 16.6238C7.24404 16.6457 7.1981 16.6305 7.20611 16.6537C7.20675 16.6556 7.23591 16.6599 7.23251 16.6729C7.21705 16.7334 7.18927 16.796 7.18128 16.8601C7.18008 16.8688 7.22805 16.8656 7.22707 16.8783C7.22242 16.9381 7.20945 17.0015 7.17749 17.0549C7.16949 17.068 7.1389 17.0533 7.12879 17.0546C7.09877 17.0586 7.10248 17.0707 7.11415 17.0826C7.10914 17.1009 7.09573 17.1539 7.08635 17.1704C7.09492 17.1856 7.11189 17.2028 7.11166 17.2053C7.10246 17.3223 6.99616 17.3637 6.97886 17.4787C6.97819 17.4849 7.03809 17.5686 6.95883 17.5507C6.9535 17.5496 6.873 17.5302 6.91321 17.5718C6.91572 17.5744 6.95828 17.5823 6.94416 17.6001C6.93007 17.6178 6.93771 17.6622 6.88321 17.6676C6.866 17.6693 6.78489 17.6508 6.82738 17.7064C6.83048 17.71 6.93588 17.8184 6.84097 17.784C6.82536 17.7783 6.73435 17.725 6.76529 17.7807C6.77132 17.7915 6.79759 17.7926 6.80216 17.8146C6.80925 17.8485 6.76777 17.8648 6.79304 17.9157C6.79757 17.9246 6.84825 17.9805 6.79158 17.9702C6.78271 17.9686 6.75485 17.9464 6.74649 17.9531C6.70662 17.9852 6.70255 18.0398 6.65769 18.0691C6.64187 18.0795 6.59676 18.0438 6.57478 18.0514C6.5528 18.0591 6.52252 18.0824 6.53599 18.1112C6.54946 18.1401 6.63812 18.1679 6.63079 18.1952C6.59894 18.3142 6.49522 18.3884 6.432 18.486C6.42264 18.5004 6.45793 18.5037 6.44619 18.5262C6.40278 18.609 6.35498 18.7626 6.25747 18.8018C6.17921 18.8332 6.17851 18.7424 6.13611 18.7758C6.11569 18.7922 6.19809 18.8631 6.19861 18.8694C6.20397 18.9339 6.14506 18.9478 6.13617 18.9991C6.13435 19.0097 6.17726 19.0191 6.17531 19.0279C6.16909 19.0579 6.13857 19.0777 6.12953 19.1053C6.12561 19.1176 6.15624 19.1292 6.14905 19.1387C6.13223 19.1614 6.10929 19.1785 6.07015 19.1908C6.06658 19.1919 6.03651 19.1598 6.02657 19.1781C6.01065 19.2077 5.96563 19.2346 5.97881 19.2825C5.98279 19.2969 6.05114 19.3268 5.99396 19.3293C5.98206 19.3298 5.90209 19.2888 5.96207 19.3456C5.97194 19.3552 6.04956 19.4398 5.97825 19.4361C5.95951 19.4351 5.88564 19.4218 5.89102 19.4391C5.89201 19.4416 5.93196 19.4498 5.93123 19.4619C5.9298 19.4809 5.92499 19.4992 5.91976 19.5175C5.915 19.5359 5.90954 19.5552 5.90896 19.5769C5.90877 19.5875 5.95279 19.5878 5.95134 19.6029C5.94811 19.6425 5.92166 19.689 5.89753 19.7236C5.88843 19.7367 5.85863 19.7166 5.85473 19.7166C5.79124 19.7163 5.86674 19.7505 5.86964 19.7576C5.88672 19.8012 5.84213 19.8175 5.84265 19.8549C5.84272 19.8651 5.88235 19.8685 5.88521 19.8713C5.91314 19.8989 5.84894 19.8668 5.83827 19.8768C5.80823 19.9047 5.8011 19.9461 5.79764 19.982C5.79639 19.9953 5.844 19.9914 5.84239 20.0032C5.83354 20.074 5.81351 20.145 5.77474 20.2095C5.7674 20.2214 5.73482 20.2063 5.72645 20.2074C5.66789 20.215 5.73703 20.2578 5.74291 20.2656C5.7697 20.301 5.73714 20.3067 5.738 20.333C5.74222 20.464 5.69622 20.6153 5.66542 20.7346C5.62554 20.8896 5.57605 21.0081 5.56583 21.1613C5.56515 21.171 5.61249 21.1669 5.6125 21.1753C5.61049 21.2842 5.58051 21.3877 5.58255 21.4971C5.58264 21.506 5.62781 21.4979 5.62943 21.5124C5.63305 21.5422 5.62693 21.5788 5.61 21.6068C5.60182 21.6205 5.56609 21.5975 5.55863 21.6114C5.54118 21.6438 5.53455 21.6798 5.53832 21.7152C5.54003 21.7302 5.587 21.7122 5.58572 21.7314C5.57798 21.8625 5.57491 21.9913 5.50666 22.1194C5.50198 22.1282 5.41001 22.1293 5.42609 22.1501C5.45134 22.1534 5.48117 22.1556 5.50823 22.1582C5.50872 22.3503 5.46534 22.5375 5.45101 22.7294C5.45041 22.7375 5.49959 22.7258 5.49869 22.7416C5.49357 22.8322 5.50327 22.9206 5.45172 23.0111C5.44668 23.0202 5.36148 23.0124 5.37344 23.0402C5.37562 23.0451 5.38565 23.0864 5.40386 23.0974C5.40661 23.0989 5.44669 23.0928 5.44744 23.1059C5.45109 23.1828 5.43998 23.2617 5.4142 23.3379C5.40996 23.35 5.36776 23.3362 5.36438 23.3449C5.34071 23.4061 5.37212 23.4747 5.3332 23.5338C5.30702 23.5737 5.23373 23.5585 5.16141 23.5795C5.1512 23.5825 5.14953 23.6072 5.10751 23.6084C5.00183 23.6116 4.88612 23.5993 4.77347 23.6041C4.7492 23.6052 4.77532 23.6389 4.71669 23.6189C4.71277 23.6175 4.69334 23.5929 4.67347 23.5867C4.65973 23.5824 4.61697 23.59 4.59939 23.5812C4.58183 23.5724 4.61769 23.5629 4.59709 23.5482C4.57623 23.5334 4.52755 23.5397 4.52201 23.51ZM7.07169 16.1481C7.02822 16.1648 7.17595 16.1883 7.14377 16.1593C7.14204 16.1579 7.07383 16.1472 7.07169 16.1481ZM7.20214 13.4193C7.1377 13.4534 7.23531 13.4677 7.28536 13.4452C7.33531 13.4222 7.22166 13.4088 7.20214 13.4193ZM7.13099 13.1123C7.08317 13.1537 7.2947 13.1378 7.24781 13.1025C7.24514 13.1004 7.13375 13.1098 7.13099 13.1123ZM5.1415 23.48C5.13951 23.4803 5.13741 23.498 5.13937 23.4984C5.18678 23.5082 5.19094 23.473 5.1415 23.48ZM7.02001 12.8171C6.9946 12.8342 7.03403 12.856 7.06555 12.8347C7.0909 12.8177 7.05163 12.796 7.02001 12.8171ZM6.65508 17.2622C6.65293 17.2615 6.64527 17.2722 6.65663 17.2777C6.69323 17.2952 6.69122 17.2738 6.65508 17.2622ZM6.9215 12.3208C6.92469 12.3955 6.75949 12.47 6.76586 12.3841C6.76708 12.3687 6.82608 12.4076 6.83871 12.3862C6.86179 12.3476 6.74955 12.3408 6.80274 12.2968C6.81251 12.2891 6.92167 12.3165 6.92176 12.3209C6.92167 12.3209 6.92159 12.3209 6.9215 12.3208ZM6.89196 16.1367C6.88994 16.1369 6.88567 16.1544 6.88756 16.155C6.93328 16.1711 6.94193 16.1358 6.89196 16.1367ZM6.21106 17.8802C6.20691 17.879 6.18281 17.9131 6.18549 17.9162C6.24205 17.9737 6.291 17.9048 6.21106 17.8802ZM6.9069 14.9276C6.86061 14.9051 6.85662 14.881 6.91749 14.8696C6.91302 14.8887 6.91118 14.9087 6.9069 14.9276Z" fill="var(--stroke-0, #3C8634)"/>
</g>
</svg>
