<svg width="21" height="9" viewBox="0 0 21 9" fill="none" xmlns="http://www.w3.org/2000/svg">
<path d="M20.7844 0.490506C20.7188 0.630338 20.604 0.801703 20.5103 0.925719C20.4813 0.964153 20.4705 0.929892 20.4492 0.956168C20.4068 1.009 20.3886 1.06643 20.3448 1.11768C20.3306 1.13385 20.3074 1.09006 20.2933 1.10754C20.2155 1.20506 20.1661 1.31154 20.0957 1.41503C19.7483 1.92538 19.4275 2.44 19.092 2.96497C18.9814 3.13818 18.8198 3.33367 18.7247 3.52358C18.7135 3.54598 18.7527 3.55227 18.7529 3.5579C18.7545 3.64529 18.7036 3.58559 18.6702 3.62175C18.5373 3.76646 18.4247 3.94542 18.3403 4.11104C18.3049 4.18091 18.4082 4.15211 18.3321 4.19801C18.3269 4.20124 18.3038 4.16387 18.2891 4.18005C18.2556 4.21677 18.213 4.29987 18.1908 4.33011C18.1476 4.3889 18.1416 4.39942 18.105 4.45828C18.1037 4.46034 18.1024 4.46239 18.101 4.46446C18.05 4.54417 17.9754 4.6279 17.9279 4.71637C17.9176 4.73585 17.9671 4.73342 17.9535 4.76662C17.9399 4.79988 17.8853 4.8755 17.8598 4.89603C17.8344 4.91659 17.8159 4.8878 17.8068 4.88832C17.7309 4.8916 17.7394 5.02726 17.7329 5.03991C17.6164 5.26677 17.4469 5.41091 17.2995 5.59468C17.1873 5.73464 17.0753 5.89132 16.9603 6.01744C16.8227 6.16791 16.6894 6.2784 16.5538 6.42185C16.5395 6.43689 16.5902 6.45265 16.5727 6.4711C16.4808 6.56806 16.3856 6.66129 16.2861 6.74919C16.1768 6.84628 16.058 6.93143 15.9313 7.00156C15.9061 7.01537 15.9122 6.96045 15.8858 6.97201C15.7245 7.04649 15.4602 7.09749 15.4442 7.30216C15.335 7.34646 15.1996 7.3933 15.0901 7.39314C15.0197 7.39288 15.0658 7.32949 14.9955 7.37343C14.9795 7.38317 15.0144 7.41335 14.9893 7.42514C14.8828 7.47486 14.7573 7.49569 14.6498 7.54101C14.628 7.55031 14.6419 7.58343 14.6368 7.59111C14.5927 7.65409 14.4834 7.58834 14.4631 7.58557C14.3044 7.5672 14.1977 7.59973 14.0565 7.61291C14.0239 7.6158 14.0671 7.65941 14.0357 7.66385C13.8719 7.68616 13.7005 7.69001 13.54 7.67032C13.5042 7.6658 13.5367 7.62504 13.5197 7.62079C13.4462 7.6023 13.428 7.67866 13.357 7.66103C13.3418 7.65736 13.3511 7.62285 13.3484 7.61899C13.3063 7.55841 13.2684 7.64197 13.2565 7.64347C13.1152 7.6643 13.0312 7.5708 12.8975 7.5739C12.8816 7.57433 12.914 7.6207 12.8695 7.61922C12.8424 7.61834 12.8131 7.617 12.7866 7.61561C12.5497 7.6022 12.305 7.64316 12.0595 7.71051C12.0176 7.722 12.0334 7.67982 12.0294 7.67707C11.9629 7.63597 11.9695 7.72624 11.9581 7.73486C11.8653 7.80172 11.7374 7.78657 11.7119 7.91262C11.5327 7.98622 11.3544 8.08148 11.1429 8.14029C10.8437 8.22189 10.5329 8.27516 10.2227 8.24305C10.2163 8.24248 10.2245 8.19986 10.2117 8.19889C10.0585 8.18544 10.0923 8.24807 9.99162 8.33121C9.96579 8.35208 9.88575 8.25681 9.8793 8.24963C9.85426 8.2237 9.88008 8.16134 9.87174 8.15632C9.80411 8.11655 9.81335 8.32315 9.71773 8.32068C9.71478 8.32025 9.72838 8.28271 9.72056 8.2787C9.69633 8.2661 9.67148 8.28022 9.64802 8.26606C9.59412 8.23311 9.58197 8.1324 9.49559 8.18422C9.4845 8.19079 9.49132 8.30919 9.4072 8.29583C9.37367 8.2909 9.22467 8.27519 9.18444 8.26107C9.14413 8.24752 9.17811 8.21442 9.17535 8.21237C9.07289 8.14626 9.11785 8.13212 9.0765 8.05038C9.03627 7.96863 9.01973 8.1436 8.99371 8.15869C8.96772 8.17385 8.89568 8.11736 8.87959 8.0991C8.86323 8.08095 8.8924 8.06276 8.87698 8.05114C8.77573 7.97435 8.80792 8.12478 8.76362 8.1431C8.75715 8.14574 8.75091 8.14765 8.74488 8.14892C8.6555 8.16885 8.61838 8.04155 8.54588 8.012C8.52507 8.00352 8.53583 8.03651 8.51599 8.03463C8.43726 8.02679 8.40074 7.97646 8.3054 7.99211C8.28977 7.99464 8.20162 8.05409 8.16939 7.98753C8.16487 7.97796 8.1906 7.95077 8.15977 7.93601C8.1136 7.91389 8.02775 7.88625 7.97299 7.88432C7.93256 7.88292 7.9644 7.94538 7.91968 7.91766C7.89981 7.90531 7.94706 7.8845 7.90915 7.86382C7.87148 7.84321 7.76806 7.81975 7.72866 7.81129C7.68927 7.80287 7.70113 7.8474 7.69733 7.84929C7.67442 7.85982 7.59473 7.86046 7.58802 7.85875C7.2514 7.78136 6.96023 7.63543 6.63091 7.56749C6.60489 7.56205 6.61048 7.6079 6.6064 7.6075C6.51464 7.60049 6.61375 7.51032 6.56338 7.45676C6.54882 7.54264 6.51683 7.51742 6.45344 7.5093C6.42263 7.50538 6.42953 7.54221 6.4259 7.54475C6.36754 7.58111 6.35605 7.50933 6.35176 7.49409C6.3365 7.43818 6.28857 7.48523 6.27838 7.4478C6.26797 7.41057 6.32661 7.3769 6.2681 7.36053C6.24297 7.38551 6.26392 7.47603 6.21559 7.47562C6.11639 7.47501 5.98274 7.42839 5.86074 7.37805C5.85469 7.37645 5.83857 7.3687 5.83313 7.36562C5.74453 7.2988 5.66665 7.2293 5.61517 7.18986C5.5022 7.10277 5.46253 7.07842 5.40407 7.01841C5.30029 6.90851 5.30505 6.98955 5.21526 6.94912C5.12559 6.90699 5.259 6.82709 5.27002 6.79445C5.28167 6.76223 5.24934 6.77714 5.24916 6.75333C5.24918 6.72968 5.28904 6.73685 5.26612 6.70696C5.24339 6.67761 5.13033 6.64761 5.09765 6.66184C5.02815 6.69219 5.00952 6.77824 4.95563 6.68771C4.95262 6.68249 4.9935 6.66846 4.98062 6.6499C4.87717 6.50295 4.75631 6.36733 4.66071 6.21837C4.64749 6.19769 4.69434 6.18547 4.68701 6.17311C4.61282 6.04594 4.59166 6.13257 4.4781 6.12498C4.57159 6.0682 4.59306 5.99228 4.52197 5.90751C4.48001 5.8573 4.45133 5.89631 4.39802 5.88459C4.38154 5.88056 4.37701 5.82487 4.35441 5.83239C4.28099 5.85749 4.24681 5.9431 4.19867 5.8351C4.19667 5.8303 4.23724 5.81705 4.22809 5.80234C4.1681 5.70575 4.10193 5.74462 4.01789 5.65742C3.95337 5.59029 3.88681 5.44235 3.82485 5.3514C3.82129 5.34632 3.81911 5.34304 3.81695 5.33985C3.91399 5.26707 3.8287 5.20373 3.7378 5.22339C3.69768 5.16685 3.64714 5.11012 3.61454 5.04979C3.60314 5.02886 3.64031 5.01935 3.64146 5.01468C3.65994 4.94176 3.57823 4.96935 3.56623 4.9592C3.44081 4.84922 3.40793 4.70685 3.26453 4.6208C3.25942 4.61777 3.18754 4.66259 3.21033 4.59174C3.212 4.58698 3.27412 4.60437 3.23105 4.54423C3.18857 4.48482 3.13912 4.34765 3.04603 4.29141C3.02326 4.2774 2.93119 4.27034 2.94286 4.19821C2.94451 4.18851 2.96807 4.17945 2.9728 4.16361C2.98757 4.11276 2.90983 4.15147 2.94433 4.07792C2.97946 4.00519 2.97563 3.91184 2.87324 3.86116C2.87011 3.85949 2.80201 3.88178 2.7831 3.85562C2.7529 3.81375 2.719 3.74699 2.68599 3.70505C2.67005 3.68484 2.64699 3.72351 2.64365 3.72045C2.51857 3.59716 2.47347 3.47775 2.37238 3.32037C2.35397 3.29155 2.24945 3.24971 2.24457 3.16945C2.2394 3.08182 2.44799 3.01537 2.30759 2.91368C2.25057 2.87187 1.99308 2.96543 2.02593 2.78659C1.85697 2.62239 1.77993 2.40904 1.5989 2.25243C1.59083 2.24542 1.51285 2.26356 1.49852 2.24333C1.47736 2.21322 1.49199 2.17642 1.47769 2.15417C1.41875 2.06083 1.33408 1.9986 1.2731 1.91196C1.24989 1.87911 1.28637 1.86879 1.25863 1.82952C1.23091 1.79035 1.17433 1.79283 1.15263 1.72794C1.13626 1.67868 1.18141 1.58198 1.15026 1.5234C1.0746 1.57833 1.04896 1.54185 0.980881 1.49384C0.967758 1.48463 0.95198 1.51747 0.944442 1.51414C0.913191 1.50102 0.91791 1.46294 0.886345 1.45184C0.87871 1.44911 0.853216 1.46832 0.845546 1.46718C0.779415 1.45831 0.78895 1.35296 0.790662 1.33468C0.797009 1.26507 0.749435 1.27131 0.740219 1.22867C0.731148 1.18621 0.785391 1.2184 0.766473 1.1752C0.727242 1.08572 0.648399 0.991671 0.590812 0.914391C0.567622 0.883602 0.549881 0.930422 0.545777 0.926618C0.488567 0.869959 0.475382 0.778474 0.381193 0.795214C0.521466 0.617654 0.334999 0.770064 0.300355 0.652954C0.297708 0.643682 0.373018 0.571388 0.406068 0.589373C0.439131 0.6074 0.445336 0.668676 0.493286 0.692073C0.504609 0.697655 0.621185 0.689727 0.631231 0.693129C0.70993 0.719945 0.593078 0.822375 0.588548 0.830455C0.541076 0.919501 0.672391 0.918403 0.690818 0.930489C0.775261 0.985874 0.807592 1.06368 0.874874 1.11231C0.918835 1.14436 1.00253 1.08657 1.02508 1.12098C1.09997 1.23519 1.01678 1.35944 1.19243 1.38624C1.23 1.39209 1.30117 1.30254 1.29224 1.43408C1.29168 1.44238 1.27316 1.54926 1.33895 1.55192C1.34723 1.55224 1.37277 1.53238 1.37919 1.53626C1.42169 1.56264 1.42039 1.60323 1.46148 1.63637C1.50257 1.66951 1.55454 1.70685 1.58145 1.7598C1.59783 1.79183 1.57767 1.86446 1.57626 1.88682C1.57165 1.95052 1.65777 1.94811 1.63505 2.00298C1.61227 2.05821 1.51441 2.05993 1.53567 2.14232C1.60403 2.09332 1.67645 2.04595 1.74626 1.99805C1.84797 2.13496 1.92905 2.28474 2.03688 2.41855C2.05025 2.435 2.07281 2.39025 2.08806 2.40717C2.1522 2.47862 2.1784 2.56536 2.24915 2.63608C2.30474 2.69161 2.39351 2.72836 2.45278 2.78542C2.407 2.88356 2.50542 2.95761 2.55202 3.03234C2.56823 3.0583 2.54664 3.07238 2.55321 3.09459C2.57838 3.17789 2.62225 3.09563 2.64661 3.10529C2.75102 3.14705 2.60342 3.2707 2.67652 3.3575C2.68041 3.36223 2.80658 3.35774 2.81775 3.36176C2.88984 3.3869 2.79602 3.392 2.81447 3.42825C2.84822 3.49451 2.86076 3.55075 2.93663 3.5997C2.95896 3.61401 3.04687 3.62314 3.03744 3.69171C3.03624 3.70073 3.00728 3.71869 3.00885 3.72397C3.03918 3.81715 3.12588 3.75514 3.18691 3.775C3.24797 3.79491 3.24038 3.9051 3.23408 3.93154C3.21777 3.99996 3.19487 3.91922 3.18909 3.92055C3.1212 3.93747 3.16723 3.97885 3.19103 4.01834C3.11264 4.08768 3.15668 4.1342 3.21598 4.05895C3.2224 4.05067 3.19293 4.02857 3.19103 4.01834C3.29644 3.98704 3.35045 4.03522 3.3226 4.15546C3.30967 4.21195 3.2463 4.21571 3.33028 4.29255C3.3681 4.32712 3.41293 4.26761 3.45552 4.29044C3.55311 4.34305 3.58155 4.48872 3.65385 4.56419C3.67992 4.59136 3.68839 4.53823 3.70747 4.5562C3.75933 4.60529 3.77151 4.66886 3.8272 4.71549C3.8322 4.71957 3.85519 4.68208 3.86889 4.69875C3.97305 4.82408 4.03918 4.95114 4.14409 5.08531C4.14587 5.08759 4.14772 5.08991 4.14964 5.09227C4.20092 5.15271 4.30491 5.24611 4.35376 5.31217C4.44131 5.43037 4.51103 5.60805 4.60262 5.69423C4.66301 5.75148 4.68257 5.71066 4.72631 5.7189C4.81161 5.73554 4.81442 5.88851 4.81328 5.91018C4.81335 5.91105 4.76056 5.8646 4.76878 5.90659C4.74948 5.95175 4.81264 5.90972 4.81328 5.91018C4.81279 5.92475 4.8973 6.03597 4.92135 6.05098C4.93436 6.05918 4.95812 6.02711 4.96432 6.03184C5.11356 6.1474 5.24255 6.27219 5.35859 6.41076C5.36029 6.41352 5.32643 6.44151 5.33083 6.44762C5.39278 6.53461 5.47878 6.54052 5.56251 6.57113C5.64652 6.60171 5.68965 6.64955 5.6834 6.73953C5.73926 6.77109 5.79374 6.85145 5.82684 6.89849C5.85991 6.94562 5.91369 6.87897 5.91838 6.88015C5.99068 6.89748 6.03814 6.92473 6.08353 6.95909L5.99925 6.92113C6.06016 6.94577 6.11735 6.97882 6.19672 7.0065C6.2696 7.03212 6.41777 7.06253 6.50044 7.07645C6.56536 7.08725 6.59746 7.11705 6.65934 7.12121C6.66767 7.12178 6.66995 7.0831 6.67275 7.08237C6.74954 7.05684 6.69353 7.13725 6.70242 7.1569C6.73506 7.22838 6.756 7.26747 6.84731 7.26311C6.86807 7.26208 6.95916 7.14873 6.99579 7.1505C7.04341 7.15304 7.01436 7.19472 7.06482 7.19619C7.06911 7.19635 7.0759 7.16768 7.10469 7.17665C7.23953 7.21822 7.38424 7.27314 7.52725 7.30586C7.54679 7.31044 7.53315 7.25886 7.5616 7.26474C7.69477 7.29228 7.83908 7.32918 7.96343 7.3815C7.994 7.39453 7.96639 7.42156 7.97105 7.43267C7.99985 7.50003 8.08005 7.43133 8.09037 7.43212C8.33742 7.44873 8.50242 7.56675 8.75505 7.58928C8.76552 7.59013 8.83623 7.55445 8.88368 7.57241C8.89821 7.57815 8.91001 7.59012 8.9161 7.61213C8.91747 7.61782 8.94169 7.70583 8.99009 7.65985C8.99301 7.65693 8.97605 7.61116 9.01977 7.62457C9.06407 7.63807 9.14034 7.62438 9.19512 7.67918C9.21207 7.69642 9.2481 7.78332 9.31637 7.72784C9.32174 7.72424 9.42813 7.59166 9.44977 7.69371C9.4533 7.71045 9.43768 7.81537 9.51422 7.76773C9.52871 7.75839 9.50606 7.73298 9.54287 7.72117C9.59876 7.70286 9.66992 7.7353 9.73827 7.69034C9.75046 7.68244 9.80048 7.61214 9.83908 7.66667C9.84522 7.67522 9.83314 7.71038 9.85419 7.71441C9.95466 7.73365 10.0588 7.70664 10.162 7.72376C10.1986 7.72967 10.1844 7.78787 10.2239 7.79998C10.2634 7.81216 10.3429 7.81884 10.3798 7.78803C10.4165 7.75728 10.3623 7.67272 10.4196 7.65797C10.6057 7.60926 10.7953 7.59534 10.9854 7.56111C11.0308 7.55458 11.0821 7.54136 11.136 7.52101C11.1683 7.5086 11.1291 7.49031 11.176 7.46895C11.344 7.39243 11.7075 7.15919 11.9585 7.14755C12.1516 7.13927 11.9465 7.25367 12.085 7.23081C12.15 7.22075 12.1945 7.10025 12.2115 7.09279C12.3682 7.02047 12.4972 7.05078 12.6512 7.03281C12.6837 7.02941 12.6513 6.98699 12.6792 6.98474C12.7308 6.98062 12.7837 6.98625 12.8358 6.99408C12.8681 6.99986 12.9031 7.00578 12.9339 7.00638C12.9644 7.00691 12.9622 6.97402 12.9892 6.97839C13.0555 6.98853 13.1137 7.00563 13.1762 7.03912C13.1821 7.04217 13.14 7.08094 13.1897 7.08468C13.2687 7.09049 13.3678 7.12341 13.4591 7.09245C13.4864 7.08309 13.4864 7.00864 13.5447 7.05965C13.5568 7.07021 13.5431 7.16027 13.6087 7.08154C13.6205 7.06862 13.7277 6.96085 13.7848 7.02477C13.7998 7.04171 13.842 7.11268 13.8731 7.09887C13.8773 7.09673 13.8573 7.05799 13.8832 7.05218C13.9755 7.03223 14.0714 7.02667 14.1636 7.00142C14.1879 6.99461 14.1455 6.95862 14.1816 6.94975C14.2811 6.92526 14.4061 6.91309 14.5049 6.9036C14.5413 6.9002 14.5247 6.93929 14.528 6.94236C14.5842 6.99174 14.5894 6.90562 14.6015 6.89759C14.6788 6.84804 14.7527 6.86636 14.8255 6.83159C14.8455 6.82204 14.8183 6.78988 14.8213 6.78518C14.8527 6.73848 14.8438 6.81582 14.8735 6.81373C14.9565 6.80802 15.0396 6.77173 15.1109 6.73419C15.137 6.72032 15.0882 6.69258 15.1116 6.68068C15.2489 6.60935 15.3876 6.53572 15.5242 6.47105C15.5501 6.45881 15.5557 6.49757 15.5651 6.5007C15.6315 6.52249 15.6349 6.42434 15.6408 6.41042C15.6689 6.34636 15.7068 6.35494 15.7446 6.31465C15.7656 6.29188 15.7874 6.26856 15.8097 6.24463C16.003 6.04083 16.2388 5.82283 16.4165 5.64176C16.6773 5.37549 16.8871 5.17031 17.093 4.87868C17.106 4.8601 17.055 4.85092 17.0658 4.83459C17.2054 4.62586 17.3597 4.43171 17.4823 4.21156C17.4924 4.19353 17.4394 4.19519 17.4542 4.16567C17.4657 4.14237 17.4798 4.11742 17.4953 4.09253C17.5216 4.05059 17.5518 4.00935 17.5822 3.97644C17.6061 3.95035 17.614 4.00985 17.6374 3.98319C17.6917 3.92173 17.7409 3.84725 17.7781 3.77264C17.7939 3.74074 17.7276 3.76297 17.7511 3.72332C17.9119 3.45094 18.066 3.18123 18.2805 2.93731C18.2952 2.9206 18.3837 2.95124 18.3924 2.90254C18.3724 2.88648 18.3466 2.87126 18.3241 2.85598C18.5485 2.45312 18.808 2.07774 19.0461 1.68187C19.0561 1.66514 18.9972 1.66962 19.0164 1.63715C19.1274 1.44939 19.2226 1.25971 19.3765 1.0911C19.3917 1.07427 19.4594 1.12771 19.4813 1.06432C19.4854 1.05264 19.5244 0.962778 19.5213 0.931193C19.5206 0.926771 19.477 0.922464 19.4921 0.894149C19.5792 0.731879 19.6838 0.569051 19.7968 0.421952C19.815 0.398459 19.8361 0.446792 19.8493 0.430289C19.9439 0.311351 19.9969 0.154682 20.1028 0.0485172C20.1732 -0.0215443 20.2191 0.0457319 20.3073 0.0374732C20.3196 0.0366036 20.351 -0.0143453 20.389 0.00397251C20.4844 0.0501379 20.5699 0.133349 20.6733 0.17955C20.6959 0.188891 20.7119 0.109416 20.7398 0.178124C20.742 0.182142 20.7289 0.243383 20.7396 0.264617C20.7467 0.279858 20.7924 0.286204 20.7977 0.312116C20.8032 0.337683 20.76 0.340858 20.7619 0.378852C20.7636 0.417749 20.8127 0.430069 20.7844 0.490506ZM5.98352 7.10783C5.9846 7.1108 5.98583 7.11335 5.98719 7.1155L5.94595 7.09693C5.98304 7.13089 6.02483 7.01081 5.96908 7.02065L6.02899 7.04764C6.02764 7.04754 6.02621 7.04751 6.02471 7.04754C6.02145 7.04777 5.9823 7.10472 5.98352 7.10783ZM1.83924 2.35298C1.82908 2.44786 1.93508 2.4265 1.94551 2.35659C1.95579 2.28657 1.84233 2.32423 1.83924 2.35298ZM1.36381 1.81457C1.37176 1.91016 1.54752 1.79082 1.46092 1.74861C1.45593 1.74611 1.36332 1.80899 1.36381 1.81457ZM20.2064 0.253383C20.2081 0.254343 20.2318 0.217061 20.2305 0.215387C20.2009 0.171647 20.1543 0.244871 20.2064 0.253383ZM0.888439 1.2828C0.881089 1.32029 0.951511 1.35752 0.960718 1.31099C0.968128 1.27356 0.897576 1.23615 0.888439 1.2828ZM8.56062 7.94048C8.5609 7.94283 8.59031 7.9519 8.59264 7.9395C8.59998 7.89954 8.55579 7.9008 8.56062 7.94048ZM0.149395 0.325887C0.251886 0.472261 0.17913 0.66501 0.0761886 0.498722C0.0575688 0.468642 0.166707 0.524795 0.151922 0.479661C0.124769 0.397151 0.00436745 0.421007 5.78413e-06 0.318652C-0.000685091 0.300057 0.14386 0.317303 0.149782 0.325989C0.149652 0.325955 0.149525 0.325921 0.149395 0.325887ZM5.91756 7.2712C5.91806 7.27342 5.95826 7.28751 5.95975 7.28591C5.99546 7.24709 5.91464 7.21873 5.91756 7.2712ZM10.3345 8.19219C10.3372 8.1964 10.4372 8.18924 10.44 8.18473C10.4815 8.10196 10.283 8.116 10.3345 8.19219ZM3.81846 5.33654C3.75313 5.33085 3.71284 5.28878 3.73788 5.22359C3.76326 5.26102 3.7929 5.2994 3.81846 5.33654Z" fill="#963076"/>
</svg>
