<svg width="8" height="7" viewBox="0 0 8 7" fill="none" xmlns="http://www.w3.org/2000/svg">
<path d="M0.756564 0.0277373C0.791447 0.0774075 0.812062 0.157007 0.821741 0.222261C0.824829 0.242703 0.796572 0.244935 0.797774 0.259808C0.799845 0.288181 0.822864 0.305994 0.823381 0.335043C0.82353 0.344915 0.78091 0.353317 0.78196 0.363301C0.787994 0.417849 0.819576 0.457077 0.835573 0.508165C0.914809 0.760407 1.02702 0.996881 1.14351 1.2405C1.18165 1.32027 1.20344 1.43443 1.26368 1.50473C1.27084 1.51309 1.29943 1.48897 1.30309 1.48922C1.35958 1.49379 1.28989 1.52196 1.2918 1.54484C1.29981 1.63594 1.34456 1.71854 1.39716 1.77927C1.41991 1.80553 1.46529 1.73861 1.44763 1.7893C1.44647 1.79279 1.40837 1.80528 1.40962 1.81553C1.4127 1.83908 1.43876 1.86912 1.44465 1.88503C1.45559 1.91536 1.45893 1.92017 1.47382 1.94588C1.4901 1.97455 1.49877 2.01434 1.51815 2.04649C1.5225 2.0537 1.52738 2.06048 1.533 2.0666C1.53959 2.07359 1.56746 2.04219 1.58104 2.05141C1.59461 2.06066 1.61217 2.09591 1.61103 2.11207C1.60988 2.12826 1.5801 2.14002 1.57517 2.1458C1.5334 2.19434 1.62907 2.18817 1.63384 2.19183C1.71879 2.26055 1.72955 2.36607 1.7835 2.4472C1.82547 2.51014 1.88467 2.56894 1.92311 2.62797C1.96941 2.69931 1.99485 2.77232 2.04606 2.83594C2.05144 2.84269 2.08351 2.80667 2.09013 2.81482C2.16278 2.90447 2.22473 2.99426 2.27081 3.10375C2.27531 3.11462 2.23378 3.12891 2.23636 3.14134C2.25185 3.21591 2.2608 3.35579 2.42541 3.27134C2.4497 3.31144 2.48082 3.35921 2.48123 3.41519C2.48141 3.4511 2.42999 3.46071 2.46653 3.47337C2.47472 3.47623 2.49805 3.44288 2.50805 3.44909C2.55002 3.47513 2.57435 3.52177 2.62151 3.54339C2.63109 3.54763 2.65553 3.52189 2.66207 3.5196C2.71541 3.50157 2.6777 3.58663 2.67877 3.5969C2.68638 3.67321 2.73285 3.69587 2.77214 3.73826C2.7813 3.74815 2.80445 3.70368 2.81446 3.71196C2.86497 3.75441 2.91282 3.80837 2.94433 3.86876C2.95134 3.88235 2.91346 3.90195 2.91538 3.90994C2.9241 3.9447 2.9828 3.89504 2.99281 3.9276C2.99502 3.93442 2.96845 3.95698 2.96664 3.96052C2.93841 4.01628 3.00826 3.96581 3.01284 3.96757C3.07242 3.98883 3.03898 4.07848 3.08997 4.10807C3.09605 4.11146 3.11432 4.06876 3.12955 4.08021C3.22975 4.15495 3.3238 4.25186 3.39809 4.35763C3.40957 4.37395 3.37815 4.39086 3.37651 4.39477C3.35168 4.45642 3.41605 4.39904 3.4229 4.40044C3.47681 4.41424 3.46923 4.49897 3.55826 4.4398C3.70485 4.59799 3.90928 4.6727 4.03605 4.86373C4.03771 4.86607 4.01081 4.89853 4.01424 4.90306C4.05566 4.95802 4.08151 4.89711 4.16006 4.85285C4.17978 4.84173 4.15556 4.94019 4.15425 4.94769C4.1495 4.9754 4.10676 5.02213 4.10715 5.02831C4.11169 5.07784 4.21728 4.90079 4.25071 4.92158C4.25158 4.92252 4.22712 4.95199 4.22794 4.95694C4.23043 4.97244 4.24701 4.965 4.24861 4.98135C4.25177 5.01884 4.20721 5.10904 4.26813 5.07802C4.27589 5.07389 4.33124 4.97073 4.35832 4.99372C4.36851 5.00266 4.42407 5.03397 4.43497 5.04935C4.446 5.06483 4.41631 5.09093 4.41654 5.09297C4.43097 5.15979 4.40506 5.1683 4.38784 5.24399C4.37078 5.31944 4.45511 5.16566 4.47354 5.1539C4.49199 5.14221 4.5005 5.19522 4.5003 5.21175C4.5003 5.22841 4.47874 5.24341 4.48125 5.25434C4.49821 5.3261 4.5453 5.1913 4.57406 5.1761C4.64161 5.13981 4.60106 5.26708 4.62546 5.29675C4.63199 5.30474 4.64056 5.27531 4.6494 5.27744C4.68364 5.28588 4.68134 5.33199 4.73402 5.32093C4.7424 5.319 4.81138 5.26995 4.79869 5.32987C4.79674 5.33844 4.77232 5.36127 4.78095 5.37538C4.79356 5.39631 4.82316 5.42404 4.84911 5.42847C4.86817 5.43165 4.88127 5.37609 4.89044 5.40232C4.89438 5.41397 4.86189 5.42959 4.87056 5.4492C4.87916 5.468 4.91559 5.49287 4.93137 5.50338C4.93219 5.50393 4.93297 5.50443 4.93369 5.5049C4.94849 5.51441 4.96468 5.47606 4.96744 5.47471C4.98361 5.46724 5.02148 5.47057 5.02395 5.47237C5.14542 5.55357 5.22271 5.68513 5.35898 5.74148C5.36955 5.74588 5.38522 5.70546 5.38706 5.70576C5.42952 5.71051 5.34463 5.79186 5.34856 5.83855C5.38975 5.76223 5.39546 5.78399 5.42401 5.7899C5.43774 5.79264 5.44865 5.76011 5.45144 5.75777C5.49423 5.7239 5.47256 5.78749 5.46877 5.80088C5.45484 5.85013 5.49689 5.80695 5.48778 5.83996C5.47889 5.87281 5.43663 5.90454 5.4599 5.91739C5.48198 5.89436 5.50568 5.81439 5.52974 5.8132C5.61971 5.80811 5.71219 5.93444 5.76207 5.97213C5.81207 6.00972 5.83219 6.0156 5.8572 6.04464C5.9018 6.09743 5.91405 6.03379 5.9648 6.03473C6.016 6.03659 5.91389 6.14596 5.9006 6.17541C5.88691 6.20464 5.9108 6.18147 5.90627 6.19973C5.90159 6.21789 5.87711 6.22689 5.88609 6.24147C5.88938 6.24681 5.90044 6.24751 5.91443 6.2453C5.94102 6.24317 5.97515 6.22888 5.98927 6.21274C6.03587 6.15856 6.06156 6.08852 6.07338 6.12467C6.07429 6.12687 6.0511 6.15871 6.05574 6.16548C6.09416 6.21925 6.16085 6.22875 6.2359 6.23763C6.24651 6.23896 6.24764 6.28315 6.25424 6.28429C6.32568 6.29353 6.28327 6.22881 6.28432 6.14274C6.31468 6.24629 6.35689 6.3023 6.4051 6.28133C6.4101 6.27913 6.41349 6.27599 6.41565 6.27215C6.42504 6.25455 6.40867 6.22164 6.4106 6.19034C6.41122 6.17893 6.44382 6.19888 6.43726 6.17736C6.4154 6.10719 6.36239 6.0435 6.41856 6.05065C6.42111 6.05104 6.43374 6.0892 6.44122 6.08797C6.49025 6.07953 6.45849 6.01056 6.49582 5.97808C6.52497 5.95272 6.6073 5.95494 6.64852 5.93499C6.71675 6.03537 6.73821 5.98608 6.70161 5.90891C6.72717 5.89418 6.74887 5.87125 6.77786 5.86249C6.7878 5.85944 6.80519 5.89058 6.80853 5.89275C6.86153 5.92624 6.81936 5.85529 6.82189 5.84894C6.85291 5.78155 6.93664 5.78701 6.93835 5.69791C6.93844 5.69464 6.8795 5.63447 6.93588 5.6641C6.93982 5.66607 6.95349 5.70783 6.97621 5.68749C6.99876 5.66745 7.07193 5.65138 7.06693 5.59331C7.06608 5.57901 7.02559 5.51898 7.08055 5.53355C7.08804 5.5355 7.10613 5.5518 7.11943 5.55622C7.16234 5.56953 7.09574 5.51607 7.16443 5.54326C7.23319 5.57024 7.29996 5.56692 7.27921 5.50053C7.27871 5.49837 7.22435 5.45712 7.2315 5.44536C7.24296 5.42686 7.26924 5.40316 7.27722 5.3811C7.28112 5.37031 7.2393 5.3623 7.23929 5.36019C7.24064 5.3268 7.24937 5.30255 7.2605 5.27801L7.26006 5.29069C7.26406 5.25339 7.27536 5.21561 7.2791 5.16998C7.28044 5.15483 7.21872 5.11915 7.26012 5.08527C7.30536 5.04776 7.51368 5.05556 7.45587 4.98823C7.43264 4.96081 7.16916 4.95803 7.29606 4.88785C7.249 4.7913 7.30316 4.68638 7.23807 4.59266C7.23517 4.5884 7.16093 4.58702 7.15997 4.57623C7.15869 4.5602 7.19058 4.54555 7.19063 4.5337C7.19174 4.48444 7.15443 4.44721 7.14894 4.40128C7.14673 4.38376 7.18244 4.38202 7.17967 4.36106C7.17677 4.33989 7.12855 4.33724 7.14346 4.30433C7.1549 4.27962 7.2412 4.23467 7.24399 4.20289C7.15351 4.22644 7.15025 4.20662 7.11672 4.18005C7.11024 4.175 7.08107 4.19108 7.0764 4.18918C7.05677 4.18192 7.07912 4.16276 7.05811 4.1567C7.05306 4.15522 7.02256 4.16464 7.01673 4.16403C6.96607 4.15939 7.02398 4.10633 7.03379 4.09655C7.06124 4.07022 7.04597 4.06478 7.0403 4.05566C7.03893 4.05499 7.03777 4.05104 7.04041 4.04472C7.0499 4.02128 7.08212 4.03437 7.08351 4.01114C7.08605 3.96248 7.05537 3.9169 7.03746 3.87943C7.03011 3.86449 6.99755 3.8942 6.99562 3.89252C6.96966 3.86612 6.99554 3.81566 6.91036 3.83346C7.10014 3.72046 6.88177 3.82324 6.90234 3.75774C6.90409 3.75253 6.99889 3.7102 7.0182 3.71734C7.03748 3.72441 7.01605 3.75688 7.04587 3.76496C7.05294 3.76718 7.15182 3.74885 7.15845 3.74888C7.21124 3.75205 7.07494 3.82573 7.06806 3.83108C6.99422 3.88873 7.10321 3.87082 7.11377 3.87526C7.16253 3.89641 7.16073 3.93948 7.19869 3.96388C7.207 3.96933 7.22297 3.96843 7.24086 3.96577C7.24196 3.96877 7.24609 3.97738 7.24693 3.98045C7.28243 3.97758 7.32593 3.96806 7.32845 3.98149C7.34092 4.04934 7.21148 4.11071 7.34631 4.13414C7.37499 4.13932 7.47864 4.09705 7.40706 4.16617C7.40264 4.17078 7.33422 4.2242 7.38799 4.23104C7.39478 4.2319 7.42613 4.22393 7.42958 4.22649C7.45205 4.24392 7.43052 4.26452 7.44804 4.28522C7.46556 4.30593 7.4899 4.33042 7.48492 4.35968C7.48199 4.37734 7.42717 4.41004 7.41425 4.42062C7.37689 4.45018 7.44979 4.45988 7.40175 4.48277C7.35342 4.50563 7.27142 4.49488 7.24498 4.5351C7.32785 4.52089 7.41321 4.508 7.49672 4.49467C7.50823 4.57293 7.49384 4.65296 7.50906 4.72902C7.51104 4.7385 7.55426 4.72199 7.55753 4.73203C7.57107 4.77409 7.54455 4.81647 7.5633 4.85907C7.57799 4.89209 7.63039 4.92364 7.64693 4.95834C7.55429 4.99229 7.59328 5.04151 7.58909 5.08099C7.58768 5.09487 7.56206 5.09698 7.55487 5.10759C7.52827 5.1471 7.61074 5.12048 7.62518 5.12884C7.68681 5.16507 7.49607 5.1905 7.50631 5.23954C7.50659 5.24108 7.5434 5.24902 7.57496 5.25617C7.57539 5.27244 7.57644 5.31854 7.57225 5.33426C7.59108 5.34985 7.60703 5.36506 7.60889 5.36875C7.63818 5.42571 7.57245 5.36871 7.55813 5.39391C7.53125 5.4383 7.49826 5.45712 7.50594 5.51523C7.50872 5.53136 7.5507 5.59256 7.49352 5.59498C7.48607 5.59526 7.45699 5.57772 7.45389 5.57935C7.40107 5.60774 7.49292 5.66057 7.50773 5.7062C7.52249 5.75167 7.43495 5.75041 7.41267 5.74522C7.35419 5.73353 7.40346 5.71723 7.39958 5.71315C7.3543 5.66559 7.3463 5.69779 7.32856 5.71342C7.24131 5.65606 7.22866 5.68417 7.31035 5.72993C7.31939 5.73481 7.32205 5.71443 7.32856 5.71342C7.40085 5.78881 7.38683 5.83028 7.28732 5.80148C7.24083 5.78758 7.21086 5.74216 7.19183 5.7948C7.18264 5.81888 7.24337 5.85857 7.24343 5.88826C7.24264 5.95701 7.14751 5.95919 7.11835 6.00159C7.10732 6.01744 7.14785 6.03318 7.14114 6.04505C7.12325 6.07669 7.08085 6.07525 7.06466 6.10932C7.06317 6.11247 7.09607 6.13851 7.08807 6.14611C7.02786 6.20405 6.95477 6.22741 6.88484 6.27551C6.85121 6.2989 6.80167 6.35833 6.7624 6.37653C6.69441 6.40907 6.58734 6.39864 6.53871 6.43839C6.51338 6.4589 6.52369 6.48392 6.52729 6.50982C6.52796 6.51689 6.52804 6.52406 6.52656 6.53128C6.51274 6.59837 6.40369 6.53547 6.39047 6.5233C6.39032 6.52303 6.42741 6.49932 6.39887 6.48715C6.37191 6.44999 6.39107 6.52288 6.39047 6.5233C6.38188 6.51704 6.29159 6.53274 6.27172 6.54279C6.26182 6.54893 6.27446 6.58634 6.26886 6.58883C6.1379 6.65615 5.89527 6.61703 5.78776 6.51347C5.78606 6.51142 5.81302 6.47686 5.80896 6.47264C5.79502 6.45767 5.78164 6.44762 5.7676 6.44049C5.74266 6.43207 5.7049 6.4496 5.67101 6.4554C5.62584 6.46312 5.60922 6.44003 5.63058 6.36492C5.60253 6.35845 5.58518 6.30922 5.57467 6.27958C5.56444 6.2501 5.51812 6.32154 5.51549 6.32193C5.43167 6.33505 5.42226 6.27358 5.36398 6.23113C5.33652 6.21095 5.27108 6.1872 5.23373 6.17593C5.20397 6.16708 5.19874 6.14079 5.16838 6.13744C5.16429 6.13697 5.14806 6.17138 5.14633 6.17204C5.09619 6.19475 5.1568 6.1232 5.15984 6.10573C5.1711 6.04229 5.1756 6.00763 5.12723 6.01101C5.11607 6.01174 5.02295 6.11075 5.0041 6.10809C4.97985 6.10449 5.01267 6.06874 4.98684 6.06603C4.98465 6.06575 4.96919 6.09086 4.95766 6.08194C4.90419 6.041 4.85269 5.98624 4.7935 5.94876C4.78551 5.94356 4.76893 5.98896 4.75685 5.982C4.7164 5.9586 4.67627 5.93024 4.64233 5.89542C4.63334 5.88472 4.62456 5.87266 4.61646 5.85914C4.60968 5.84766 4.6346 5.82515 4.63796 5.81565C4.65734 5.75749 4.5901 5.81521 4.58593 5.81439C4.48566 5.79696 4.45921 5.69037 4.34835 5.66644C4.34206 5.66516 4.25721 5.72102 4.27976 5.64298C4.28139 5.63787 4.30465 5.55814 4.26146 5.59631C4.25875 5.5987 4.24815 5.64057 4.23174 5.62583C4.2154 5.61114 4.17021 5.61628 4.16712 5.5614C4.16632 5.54421 4.18845 5.46399 4.13043 5.5036C4.12675 5.50659 4.01225 5.60616 4.05084 5.51294C4.05711 5.49754 4.11448 5.40901 4.05663 5.43703C4.04545 5.44248 4.04356 5.46892 4.0208 5.47221C3.98558 5.47718 3.96992 5.43434 3.91693 5.45669C3.90764 5.46071 3.8484 5.50813 3.86 5.45123C3.86183 5.44232 3.88571 5.41574 3.87872 5.40669C3.84677 5.36422 3.78928 5.35543 3.75953 5.30698C3.7492 5.29003 3.78797 5.24736 3.78074 5.2244C3.7735 5.20145 3.75002 5.16835 3.71892 5.17885C3.68785 5.18939 3.65539 5.27686 3.62688 5.26648C3.50117 5.22004 3.42546 5.10166 3.3258 5.01806C3.31084 5.0055 3.30424 5.04108 3.28102 5.02451C3.19644 4.96497 3.03165 4.87373 3.00662 4.76293C2.98589 4.67396 3.08302 4.69992 3.05492 4.64732C3.04148 4.62217 2.95107 4.68385 2.94387 4.6821C2.87445 4.66743 2.87163 4.60311 2.81894 4.57569C2.80804 4.57001 2.78837 4.60971 2.77952 4.60462C2.74928 4.58772 2.73533 4.54952 2.70866 4.52995C2.69662 4.52123 2.67661 4.54718 2.6682 4.53606C2.64772 4.50961 2.63588 4.47991 2.63418 4.43635C2.63403 4.43239 2.67574 4.41582 2.65958 4.39858C2.63328 4.37069 2.61966 4.31599 2.5657 4.30704C2.54987 4.30472 2.49739 4.35783 2.5134 4.30136C2.51671 4.28951 2.58496 4.231 2.50736 4.2632C2.49457 4.26871 2.38118 4.30324 2.40944 4.23601C2.41696 4.21842 2.45586 4.15345 2.43696 4.15061C2.43417 4.15039 2.41146 4.1845 2.39963 4.17801C2.35843 4.15461 2.328 4.11682 2.2859 4.09057C2.27458 4.08358 2.2576 4.12603 2.24163 4.11463C2.19753 4.08318 2.16214 4.02931 2.13708 3.98228C2.12797 3.96498 2.16224 3.95163 2.16409 3.9481C2.19445 3.89099 2.12473 3.9362 2.11618 3.93385C2.06437 3.91896 2.07109 3.86829 2.03592 3.8435C2.02631 3.8366 2.00216 3.86846 1.99801 3.86902C1.95656 3.87333 2.02132 3.84067 2.01728 3.82419C2.00615 3.77785 1.9728 3.74362 1.94219 3.715C1.93077 3.70436 1.90724 3.74691 1.89736 3.73698C1.83822 3.67871 1.78546 3.60712 1.75549 3.52913C1.74978 3.51423 1.78312 3.50001 1.7874 3.49257C1.81771 3.44092 1.73811 3.4629 1.72775 3.46143C1.6809 3.4553 1.69675 3.42529 1.67439 3.40573C1.56397 3.30977 1.47478 3.15336 1.40638 3.03338C1.31924 2.88034 1.2709 2.74778 1.17288 2.61057C1.16664 2.60173 1.1333 2.63593 1.12741 2.6286C1.06611 2.54977 1.02471 2.46185 0.969242 2.37738C0.958587 2.36119 0.947489 2.34539 0.935703 2.33009C0.929925 2.32246 0.899211 2.35692 0.88867 2.34543C0.866865 2.32217 0.848545 2.28694 0.844196 2.25222C0.842067 2.23544 0.885192 2.23387 0.882399 2.21739C0.876064 2.17913 0.858993 2.14434 0.833756 2.11567C0.822998 2.10362 0.796432 2.14719 0.785474 2.12975C0.709992 2.01127 0.633289 1.8958 0.612712 1.74336C0.611306 1.7329 0.686409 1.67973 0.66099 1.67078C0.638182 1.68213 0.612296 1.69712 0.588402 1.71009C0.473097 1.53895 0.4015 1.34682 0.307075 1.16168C0.303151 1.15399 0.267507 1.19017 0.259695 1.17541C0.21364 1.08844 0.156909 1.00993 0.153341 0.897336C0.152898 0.886119 0.231176 0.851654 0.206295 0.83131C0.201929 0.827979 0.171516 0.793166 0.149799 0.791184C0.146599 0.791041 0.114627 0.816209 0.107145 0.803897C0.0640009 0.731414 0.0333779 0.647788 0.0192537 0.559548C0.0170478 0.545271 0.061763 0.540787 0.0605606 0.530527C0.0519553 0.458355 -0.00831766 0.402106 0.000972308 0.323822C0.00761519 0.271768 0.082021 0.259683 0.140269 0.210937C0.148526 0.204208 0.140068 0.178237 0.178784 0.161751C0.276129 0.120487 0.388464 0.0901 0.491639 0.0446078C0.513753 0.0346397 0.478382 0.0152393 0.539634 0.0113064C0.543648 0.0108835 0.570184 0.0254973 0.59061 0.0229866C0.604786 0.0214356 0.642044 -0.000561911 0.661213 2.41081e-05C0.680298 0.000426601 0.650483 0.0223554 0.674366 0.0261286C0.6986 0.0300101 0.741485 0.00660296 0.756564 0.0277373ZM5.5254 6.14651C5.52599 6.09967 5.44816 6.22741 5.48752 6.20886C5.4895 6.2078 5.52541 6.14883 5.5254 6.14651ZM7.38201 4.67032C7.32173 4.71095 7.42077 4.71706 7.46772 4.68745C7.51457 4.65768 7.40023 4.65774 7.38201 4.67032ZM7.27499 4.36331C7.23196 4.4096 7.44056 4.37096 7.39007 4.34093C7.38719 4.33914 7.27747 4.36057 7.27499 4.36331ZM0.200415 0.302172C0.202147 0.301196 0.196331 0.282682 0.194323 0.282963C0.146531 0.291994 0.158336 0.329374 0.200415 0.302172ZM7.13967 4.06891C7.11619 4.08875 7.15762 4.10915 7.18722 4.08481C7.21101 4.06496 7.16882 4.04378 7.13967 4.06891ZM4.58844 5.35968C4.5893 5.35759 4.57887 5.34893 4.57257 5.35984C4.55237 5.39504 4.57417 5.39486 4.58844 5.35968ZM6.92853 3.58781C6.9413 3.66009 6.79414 3.76765 6.78384 3.67413C6.78237 3.65771 6.84769 3.69042 6.85645 3.66601C6.87293 3.62316 6.76027 3.62948 6.80738 3.57696C6.81616 3.56824 6.92823 3.58424 6.92881 3.58787C6.92872 3.58785 6.92863 3.58783 6.92853 3.58781ZM5.60397 5.98444C5.60455 5.98249 5.58936 5.97153 5.58804 5.97303C5.55557 6.0091 5.58603 6.03112 5.60397 5.98444ZM3.97265 4.87102C3.97415 4.867 3.94036 4.83983 3.93698 4.84221C3.87491 4.89417 3.94384 4.94982 3.97265 4.87102ZM6.65095 5.93724C6.63934 5.88709 6.6535 5.86988 6.7015 5.90891C6.68437 5.91768 6.66834 5.92866 6.65095 5.93724Z" fill="#963076"/>
</svg>
