<svg width="6" height="7" viewBox="0 0 6 7" fill="none" xmlns="http://www.w3.org/2000/svg">
<path d="M5.09489 6.20878C5.09375 6.16496 5.06348 6.1167 5.03244 6.08128C5.02279 6.07022 4.9995 6.08459 4.99168 6.07722C4.9764 6.06268 4.98384 6.04255 4.9668 6.02858C4.96103 6.024 4.92302 6.04335 4.91789 6.03824C4.88998 6.00993 4.89078 5.97483 4.87214 5.9427C4.78024 5.7839 4.71732 5.6139 4.64803 5.44048C4.62524 5.38322 4.56807 5.32207 4.56641 5.2566C4.56625 5.24894 4.60287 5.24291 4.6054 5.2407C4.64386 5.20644 4.5744 5.234 4.56094 5.22313C4.52881 5.19678 4.50839 5.1647 4.49661 5.13042C4.48876 5.10755 4.48473 5.08406 4.48371 5.0611C4.4827 5.03656 4.55967 5.03812 4.51338 5.02711C4.51024 5.02633 4.47457 5.0435 4.46867 5.0385C4.45541 5.02716 4.45383 4.99829 4.44744 4.98824C4.43497 4.96897 4.43426 4.96538 4.42756 4.94563C4.41808 4.91876 4.38922 4.89247 4.38816 4.86064C4.38805 4.8538 4.42887 4.8496 4.43212 4.83755C4.43535 4.82547 4.42347 4.80026 4.41156 4.79443C4.39965 4.78859 4.37098 4.8023 4.3636 4.80302C4.30153 4.80963 4.37146 4.7525 4.3721 4.7479C4.38182 4.66552 4.31503 4.62031 4.29155 4.55458C4.27365 4.50419 4.26898 4.44559 4.24897 4.39866C4.22515 4.34325 4.18634 4.30301 4.16848 4.24746C4.16654 4.24161 4.21307 4.23103 4.21079 4.22382C4.18622 4.14663 4.15123 4.07435 4.091 4.01303C4.0849 4.00686 4.05072 4.03243 4.04236 4.02725C3.99198 3.99501 3.88689 3.95757 4.0405 3.85887C4.02085 3.83136 3.99781 3.79718 3.95255 3.78495C3.92342 3.77709 3.88978 3.81237 3.89783 3.78324C3.89959 3.77669 3.93844 3.76676 3.93834 3.75814C3.93794 3.72194 3.91097 3.69361 3.9158 3.65526C3.91686 3.64739 3.94978 3.63426 3.95478 3.62987C3.99502 3.5938 3.90615 3.60501 3.89811 3.60244C3.83746 3.58173 3.84037 3.54524 3.82152 3.5083C3.81714 3.49979 3.86493 3.48952 3.86225 3.48058C3.84791 3.43473 3.8223 3.39131 3.78287 3.35897C3.77399 3.35183 3.74185 3.37824 3.73575 3.37576C3.70924 3.36445 3.7756 3.32607 3.75143 3.31457C3.74642 3.31211 3.71649 3.32979 3.71272 3.33077C3.6536 3.34616 3.72452 3.2986 3.72473 3.29484C3.72932 3.24694 3.63822 3.26277 3.63158 3.22225C3.63085 3.21733 3.67476 3.20683 3.6703 3.19421C3.64037 3.10914 3.58616 3.03194 3.51337 2.97093C3.50217 2.96155 3.47777 2.98573 3.47379 2.9869C3.41136 3.0049 3.48193 2.95661 3.48257 2.95106C3.48589 2.90883 3.40786 2.91492 3.48503 2.84508C3.38226 2.73162 3.35781 2.57494 3.20397 2.49439C3.2021 2.49332 3.16786 2.51769 3.1643 2.51547C3.12106 2.48903 3.1817 2.4636 3.2342 2.39646C3.24734 2.37955 3.15328 2.40985 3.14624 2.41185C3.12026 2.41911 3.07094 2.45796 3.06538 2.45849C3.02118 2.46184 3.19914 2.35777 3.18454 2.33378C3.18379 2.33322 3.15335 2.35615 3.14892 2.35614C3.13505 2.35617 3.14416 2.34221 3.12937 2.34308C3.09517 2.34516 3.00728 2.39342 3.04388 2.34183C3.04867 2.33521 3.15054 2.2776 3.13279 2.25952C3.12864 2.25537 3.11973 2.24086 3.11058 2.22843C3.10826 2.22349 3.09758 2.2113 3.09452 2.20678C3.08644 2.19878 3.07836 2.1918 3.07263 2.19006C3.05896 2.18591 3.03606 2.21697 3.03427 2.21739C2.97536 2.22571 2.96795 2.2486 2.90184 2.28507C2.83601 2.32145 2.97069 2.20923 2.98106 2.19138C2.99141 2.17361 2.9446 2.18262 2.93005 2.18773C2.91546 2.19279 2.90231 2.21408 2.89281 2.21554C2.83047 2.22475 2.94807 2.14668 2.96142 2.11977C2.9932 2.05626 2.88176 2.12648 2.85605 2.11674C2.84909 2.11408 2.87479 2.09844 2.87294 2.0922C2.86532 2.06775 2.82585 2.08443 2.83565 2.03964C2.83727 2.03235 2.88098 1.96406 2.82907 1.99211C2.82161 1.99619 2.80125 2.02198 2.78925 2.01949C2.77137 2.0159 2.74783 2.00041 2.7452 1.98139C2.74322 1.96728 2.79182 1.94142 2.76957 1.94158C2.75967 1.94169 2.74474 1.97169 2.72808 1.97016C2.71164 1.96886 2.69108 1.94427 2.68383 1.93476C2.67656 1.92519 2.71083 1.90268 2.71219 1.90013C2.71975 1.88524 2.71861 1.85514 2.71722 1.85369C2.65092 1.77433 2.53629 1.75186 2.48324 1.66416C2.47907 1.65735 2.51342 1.63148 2.5131 1.63013C2.50729 1.59834 2.44033 1.69241 2.39995 1.7053C2.46411 1.64703 2.44505 1.64987 2.43867 1.62968C2.43565 1.61991 2.46314 1.60007 2.46503 1.59707C2.49204 1.55179 2.43839 1.59106 2.42708 1.59875C2.38535 1.6269 2.42024 1.57892 2.39233 1.59774C2.36464 1.61644 2.33971 1.66054 2.32749 1.64724C2.346 1.62185 2.41321 1.57459 2.41285 1.55551C2.41151 1.48322 2.29687 1.45913 2.26208 1.4348C2.22745 1.41045 2.22142 1.39685 2.19599 1.38814C2.1503 1.37282 2.203 1.3399 2.20159 1.30088C2.2 1.26179 2.10923 1.37942 2.08469 1.40003C2.06029 1.42075 2.07949 1.39393 2.06417 1.40357C2.04884 1.41319 2.04171 1.43604 2.02905 1.43328C2.0164 1.4305 2.03222 1.36834 2.05161 1.34106C2.09268 1.2832 2.15299 1.23803 2.11282 1.23676C2.11049 1.23674 2.08866 1.26943 2.08107 1.26789C2.02226 1.25523 1.97954 1.22034 1.92285 1.20716C1.91492 1.20532 1.89197 1.24257 1.88707 1.2419C1.83621 1.23538 1.89509 1.18955 1.92802 1.1116C1.86369 1.19839 1.81142 1.2407 1.78628 1.22124C1.77109 1.20958 1.80292 1.17474 1.81358 1.14079C1.81675 1.13052 1.78581 1.14734 1.79752 1.12837C1.83548 1.06614 1.89636 1.0107 1.84851 1.01449C1.84636 1.01477 1.82603 1.04915 1.82038 1.04783C1.78407 1.03983 1.82637 0.976808 1.8016 0.947117C1.78189 0.923604 1.71229 0.930907 1.68073 0.918795C1.61317 1.01948 1.6042 0.980042 1.63903 0.903008C1.61887 0.893965 1.60188 0.877649 1.57782 0.876488C1.56964 0.876111 1.5554 0.908553 1.55265 0.911318C1.5103 0.955207 1.54449 0.880914 1.54192 0.875679C1.53533 0.863209 1.52647 0.855604 1.51676 0.85033C1.48748 0.834243 1.44735 0.839815 1.44013 0.782583C1.43985 0.779911 1.47944 0.705494 1.43815 0.752666C1.43534 0.755936 1.42921 0.796673 1.40911 0.788466C1.38877 0.780133 1.33035 0.798488 1.32411 0.749755C1.32244 0.737926 1.34073 0.669483 1.30117 0.708312C1.29582 0.713597 1.28558 0.735585 1.27636 0.745783C1.24692 0.778231 1.28502 0.701899 1.2395 0.75912C1.19407 0.816393 1.14689 0.851653 1.14589 0.793373C1.14578 0.791629 1.17341 0.729641 1.16451 0.725706C1.15035 0.719527 1.12474 0.720917 1.11092 0.712387C1.10445 0.708359 1.12971 0.674567 1.12895 0.67324C1.09641 0.627196 1.04589 0.641052 0.990133 0.62741C0.979771 0.624923 0.983681 0.561101 0.943849 0.590206C0.900512 0.622221 0.8163 0.811237 0.798125 0.743978C0.790846 0.717069 0.900086 0.478663 0.801341 0.577674C0.758237 0.513846 0.667867 0.541345 0.631871 0.465045C0.630186 0.461612 0.658343 0.393715 0.651501 0.390881C0.64128 0.3868 0.618973 0.413211 0.611096 0.411222C0.577623 0.40361 0.566497 0.363432 0.537023 0.351521C0.52588 0.34694 0.511786 0.37947 0.498464 0.373993C0.485155 0.368485 0.500218 0.323614 0.472324 0.333284C0.451171 0.340718 0.390802 0.415215 0.368551 0.415042C0.414931 0.333895 0.402525 0.328901 0.394478 0.295668C0.392952 0.289241 0.413537 0.263583 0.413659 0.259092C0.414514 0.24019 0.393945 0.259412 0.395979 0.239478C0.396443 0.234676 0.412418 0.207043 0.413703 0.20156C0.425247 0.15389 0.369098 0.204279 0.35936 0.213075C0.322298 0.246434 0.337084 0.207006 0.317579 0.217284C0.298096 0.227571 0.301409 0.25654 0.283926 0.259488C0.247633 0.265509 0.218997 0.242871 0.193414 0.229673C0.183348 0.224262 0.21152 0.191363 0.210577 0.189733C0.195613 0.168516 0.152053 0.195597 0.183451 0.115672C0.0588721 0.29706 0.181861 0.090117 0.130502 0.111045C0.126408 0.112772 0.0712605 0.200742 0.072445 0.21906C0.0736358 0.237366 0.103365 0.217141 0.103663 0.244794C0.10375 0.251294 0.0714626 0.345017 0.0707774 0.351434C0.0654132 0.40158 0.145947 0.269029 0.151176 0.262218C0.20808 0.188989 0.175684 0.291348 0.177417 0.300732C0.185243 0.343669 0.21697 0.336906 0.225582 0.369314C0.231277 0.390335 0.181476 0.478879 0.193534 0.482301C0.233788 0.493845 0.317101 0.378382 0.288363 0.503818C0.282239 0.530574 0.219398 0.622455 0.288571 0.561709C0.292888 0.557854 0.351973 0.499839 0.337403 0.549808C0.335563 0.556106 0.319243 0.584044 0.319673 0.58744C0.322887 0.609653 0.343806 0.592004 0.35081 0.610365C0.357783 0.628708 0.364251 0.653766 0.384764 0.653007C0.397148 0.652622 0.439077 0.607275 0.450822 0.597034C0.48442 0.567395 0.462367 0.635214 0.495903 0.595162C0.529579 0.554892 0.554154 0.478276 0.591014 0.461044C0.549478 0.534132 0.507787 0.609698 0.466461 0.68346C0.511715 0.706368 0.568738 0.708096 0.610766 0.736838C0.615977 0.740499 0.587648 0.776302 0.592644 0.781231C0.613753 0.801815 0.651501 0.7865 0.670637 0.812469C0.68519 0.832619 0.6832 0.886811 0.697667 0.909165C0.758892 0.833494 0.772871 0.87939 0.799872 0.884915C0.809227 0.886839 0.821609 0.86432 0.831365 0.860296C0.867783 0.845607 0.815341 0.913446 0.814385 0.928362C0.810645 0.992218 0.908968 0.826829 0.935977 0.848015C0.937452 0.849088 0.904763 0.948703 0.904109 0.955708C0.89966 1.00128 0.924737 0.926409 0.938932 0.92589C0.964933 0.924975 0.989966 0.911188 0.997268 0.95016C0.999331 0.961645 0.982397 1.02573 1.01999 0.990378C1.0249 0.985741 1.041 0.955889 1.04333 0.954946C1.08403 0.940302 1.03093 1.03264 1.02678 1.07193C1.02254 1.11117 1.08038 1.05971 1.0955 1.04398C1.13436 1.00314 1.09853 1.01866 1.10058 1.01363C1.12539 0.954006 1.13562 0.97268 1.15011 0.974828C1.20423 0.885481 1.21744 0.900384 1.16489 0.977397C1.15913 0.985798 1.15489 0.97208 1.15011 0.974828C1.10894 1.0694 1.12086 1.09148 1.18874 1.02014C1.22046 0.98665 1.23804 0.936362 1.25699 0.969459C1.26557 0.984408 1.22433 1.04363 1.22616 1.06734C1.22994 1.12122 1.2974 1.08274 1.31919 1.10754C1.32691 1.11643 1.29783 1.14509 1.30243 1.15234C1.31008 1.1641 1.32386 1.16294 1.33575 1.16491C1.34426 1.16645 1.35073 1.16881 1.35381 1.17771C1.35446 1.17974 1.33031 1.21334 1.33469 1.21652C1.36702 1.24115 1.412 1.2384 1.44943 1.26274C1.46751 1.27447 1.48611 1.31527 1.50706 1.32493C1.54278 1.34129 1.61906 1.32417 1.63725 1.35719C1.64927 1.37861 1.6198 1.40787 1.60955 1.43565C1.58935 1.48918 1.67658 1.43468 1.68969 1.42598C1.69012 1.42567 1.68132 1.40582 1.70278 1.39609C1.73554 1.36598 1.68966 1.42571 1.68969 1.42598C1.69802 1.42015 1.73467 1.43865 1.73529 1.44958C1.73572 1.4556 1.70862 1.48382 1.70931 1.48638C1.72669 1.54708 1.75855 1.58845 1.81066 1.61116C1.81188 1.6112 1.84023 1.57794 1.84275 1.57847C1.87896 1.58518 1.8577 1.63832 1.85468 1.67891C1.85199 1.7198 1.87353 1.7256 1.93649 1.68202C1.94436 1.70254 1.98734 1.69791 2.0132 1.69499C2.03904 1.69204 1.98136 1.75457 1.98121 1.75677C1.97513 1.82604 2.02762 1.80953 2.06588 1.83716C2.08432 1.85034 2.10616 1.89004 2.11637 1.91383C2.12413 1.9325 2.14639 1.92681 2.14949 1.94834C2.14992 1.95123 2.12104 1.97583 2.1205 1.97736C2.10156 2.02293 2.1616 1.95189 2.1763 1.94332C2.22963 1.91203 2.25905 1.89642 2.25615 1.93429C2.25552 1.943 2.17097 2.04742 2.17235 2.06019C2.17452 2.07682 2.20563 2.04022 2.20707 2.05856C2.20723 2.06011 2.18565 2.08017 2.19267 2.0857C2.22518 2.11186 2.2682 2.13275 2.29507 2.16609C2.29881 2.17056 2.25945 2.19685 2.26429 2.20383C2.28728 2.2368 2.31749 2.26717 2.36005 2.28142C2.37056 2.28475 2.39074 2.25829 2.39931 2.25328C2.4513 2.22305 2.4002 2.29386 2.40097 2.29714C2.41841 2.37755 2.512 2.36617 2.53296 2.44525C2.53413 2.44981 2.48549 2.53302 2.55333 2.49121C2.55785 2.48843 2.62704 2.44539 2.59373 2.4907C2.59164 2.49353 2.55503 2.51454 2.56791 2.5228C2.58092 2.53121 2.57545 2.56685 2.62291 2.55206C2.63786 2.54741 2.70819 2.50606 2.6727 2.56258C2.67186 2.56387 2.66143 2.57768 2.65089 2.59345L2.61186 2.54083C2.58575 2.56844 2.55778 2.60352 2.61792 2.57418C2.63273 2.56693 2.72132 2.50962 2.68734 2.55742C2.68072 2.56663 2.65658 2.57235 2.6501 2.58979C2.64 2.61647 2.67582 2.62072 2.64696 2.66357C2.64182 2.67111 2.58901 2.72197 2.64181 2.70418C2.65009 2.70143 2.67823 2.67992 2.68504 2.68352C2.71762 2.70068 2.71472 2.74147 2.75207 2.75645C2.7653 2.76189 2.81116 2.72764 2.83044 2.73018C2.84985 2.73294 2.87456 2.74584 2.85858 2.76992C2.84253 2.79394 2.75747 2.82832 2.76069 2.84808C2.77437 2.93342 2.86065 2.97656 2.90698 3.04297C2.91391 3.0529 2.88071 3.0601 2.88888 3.0759C2.91853 3.13343 2.9459 3.2468 3.03301 3.26352C3.10324 3.27766 3.1132 3.20708 3.14956 3.2274C3.16715 3.23756 3.08229 3.30271 3.08125 3.30786C3.06979 3.35832 3.12406 3.36122 3.1276 3.39915C3.12833 3.40702 3.08707 3.42033 3.0881 3.4268C3.09123 3.44896 3.11865 3.46052 3.12464 3.47991C3.12728 3.48873 3.09744 3.5021 3.10347 3.50837C3.11756 3.52357 3.13781 3.53316 3.17401 3.537C3.17732 3.53736 3.20812 3.50822 3.21623 3.52096C3.22905 3.54126 3.26948 3.55461 3.25392 3.59351C3.24918 3.60507 3.18246 3.6385 3.23641 3.63141C3.24769 3.62995 3.32606 3.58622 3.26559 3.63878C3.2556 3.64761 3.17677 3.72421 3.24474 3.71014C3.26264 3.70647 3.33367 3.68489 3.32756 3.69878C3.32648 3.70078 3.28805 3.71335 3.28805 3.72239C3.28868 3.75389 3.30564 3.77955 3.30689 3.81165C3.30713 3.82021 3.26463 3.82733 3.26617 3.8395C3.2703 3.87288 3.29704 3.90533 3.32188 3.92831C3.33114 3.93682 3.35903 3.9152 3.36277 3.91441C3.42375 3.90145 3.35247 3.943 3.34998 3.94907C3.33555 3.98651 3.37958 3.99031 3.38081 4.01799C3.38125 4.02561 3.34346 4.03699 3.34085 4.03972C3.31571 4.06703 3.37542 4.02835 3.3863 4.0337C3.41698 4.04858 3.42611 4.07703 3.43204 4.10305C3.43419 4.11269 3.38824 4.12091 3.39064 4.12933C3.40409 4.17964 3.42904 4.22686 3.47163 4.26362C3.47973 4.27053 3.50964 4.25149 3.51777 4.25023C3.57463 4.24138 3.512 4.28916 3.50704 4.29613C3.48441 4.32805 3.51605 4.32371 3.51774 4.34299C3.52539 4.43711 3.58497 4.53244 3.62687 4.60748C3.6813 4.70537 3.74177 4.77478 3.76836 4.8779C3.77007 4.88439 3.72392 4.8932 3.72482 4.89897C3.73844 4.97281 3.7788 5.03659 3.78876 5.1118C3.78965 5.11791 3.74499 5.12299 3.74499 5.13321C3.74467 5.15426 3.75455 5.17764 3.77402 5.19282C3.78344 5.20026 3.8156 5.17632 3.82435 5.18407C3.84484 5.2022 3.85513 5.22506 3.85529 5.24999C3.85526 5.26062 3.80768 5.25901 3.81099 5.27176C3.81568 5.29068 3.82015 5.30961 3.82509 5.32839C3.84355 5.3983 3.86853 5.46563 3.93278 5.52367C3.93843 5.52882 4.02808 5.50905 4.01498 5.52711C3.99083 5.53512 3.96206 5.54331 3.93606 5.55123C3.95933 5.68546 4.02601 5.80593 4.06814 5.93776C4.06991 5.94329 4.02046 5.94678 4.02362 5.95756C4.04194 6.02 4.04654 6.0858 4.11179 6.1378C4.11818 6.14292 4.19928 6.11595 4.19242 6.13865C4.19112 6.14263 4.18861 6.17468 4.17303 6.1874C4.17065 6.18921 4.13085 6.19516 4.13248 6.20483C4.14266 6.26085 4.1689 6.31622 4.20952 6.36398C4.21615 6.37165 4.25365 6.34942 4.25871 6.35474C4.29426 6.39243 4.27963 6.45137 4.33076 6.48176C4.36509 6.50185 4.43086 6.46738 4.50421 6.45844C4.51455 6.45717 4.52208 6.47373 4.56202 6.4606C4.66243 6.42759 4.76877 6.38118 4.87615 6.34698C4.89926 6.33959 4.88214 6.36947 4.93295 6.33734C4.93633 6.33515 4.94932 6.31346 4.9668 6.30319C4.97888 6.29608 5.02084 6.28659 5.03564 6.27557C5.05044 6.26459 5.01459 6.27058 5.03115 6.25515C5.04798 6.23969 5.09526 6.22772 5.09489 6.20878ZM2.12915 1.68272C2.16893 1.66465 2.06519 1.77239 2.07858 1.73529C2.07935 1.73338 2.12717 1.68359 2.12915 1.68272ZM0.625112 0.610388C0.676079 0.563727 0.639379 0.654584 0.601282 0.691356C0.563194 0.728071 0.609628 0.624513 0.625112 0.610388ZM0.465379 0.461726C0.512222 0.428815 0.408799 0.613988 0.40822 0.564049C0.40815 0.561205 0.46265 0.463632 0.465379 0.461726ZM4.50042 6.38365C4.50237 6.38323 4.50833 6.39491 4.50657 6.39583C4.46377 6.41759 4.45181 6.39402 4.50042 6.38365ZM0.309214 0.310158C0.330138 0.289147 0.332108 0.328611 0.306121 0.354758C0.285217 0.375794 0.283182 0.336294 0.309214 0.310158ZM2.80107 2.16476C2.8029 2.16347 2.81045 2.16893 2.80091 2.17717C2.77017 2.20365 2.77034 2.18661 2.80107 2.16476ZM0.000266654 0.127452C0.050063 0.14721 0.166067 0.0120487 0.106179 5.17706e-05C0.0953446 -0.00211868 0.0975487 0.059668 0.0780945 0.0666156C0.042584 0.0792334 0.0839605 -0.0239498 0.0328042 0.014465C0.0234862 0.0215225 -0.00276929 0.126662 0.000224656 0.12771C0.000238819 0.127624 0.00025249 0.127538 0.000266654 0.127452ZM2.26194 1.56143C2.26361 1.56029 2.27379 1.56776 2.27262 1.56936C2.24393 1.60778 2.22344 1.5928 2.26194 1.56143ZM3.18628 2.5446C3.19024 2.54301 3.20854 2.56617 3.2057 2.56901C3.14658 2.62154 3.10957 2.57514 3.18628 2.5446ZM1.67848 0.92118C1.69322 0.87349 1.68143 0.858959 1.63912 0.902993C1.65279 0.908093 1.66485 0.915525 1.67848 0.92118Z" fill="#397C57"/>
</svg>
