<svg width="10" height="7" viewBox="0 0 10 7" fill="none" xmlns="http://www.w3.org/2000/svg">
<path d="M0.00517514 5.73685C0.0470135 5.68295 0.12406 5.63496 0.187234 5.60634C0.207184 5.59715 0.216188 5.62429 0.230749 5.61886C0.25954 5.60794 0.270579 5.58159 0.299954 5.57292C0.309733 5.57018 0.327954 5.60971 0.33758 5.60611C0.390386 5.58595 0.421827 5.54581 0.468906 5.51841C0.701349 5.38324 0.912257 5.23515 1.1352 5.08719C1.20833 5.03864 1.31628 5.00423 1.37861 4.93649C1.38588 4.92853 1.35868 4.90288 1.35847 4.89924C1.35584 4.84305 1.3921 4.90886 1.4145 4.90441C1.5033 4.88661 1.57821 4.83533 1.63326 4.77741C1.65663 4.75268 1.58632 4.71341 1.63782 4.72666C1.64135 4.72752 1.65756 4.76414 1.66744 4.7621C1.68979 4.75739 1.71762 4.72852 1.7325 4.72158C1.76129 4.70837 1.76521 4.70505 1.78929 4.68826C1.82255 4.66549 1.87274 4.65351 1.90266 4.62139C1.90899 4.61444 1.87584 4.58877 1.88386 4.57471C1.89186 4.56067 1.92582 4.54084 1.94199 4.54103C1.95819 4.5412 1.97175 4.57022 1.97781 4.57479C2.02847 4.61372 2.01668 4.51885 2.02027 4.51382C2.08681 4.424 2.18906 4.41227 2.27098 4.35693C2.33368 4.31446 2.39143 4.25715 2.45345 4.21934C2.52634 4.17516 2.59985 4.15397 2.66809 4.10684C2.67543 4.10184 2.6416 4.06736 2.65053 4.06116C2.74482 3.99582 2.8451 3.94116 2.96069 3.91103C2.97216 3.90813 2.98022 3.95131 2.99287 3.95058C3.07104 3.94452 3.2049 3.96374 3.15673 3.7851C3.20144 3.76894 3.2583 3.7474 3.31235 3.76078C3.34735 3.7693 3.34346 3.82176 3.36535 3.78924C3.37038 3.78194 3.34369 3.7511 3.35264 3.7428C3.39048 3.70783 3.44287 3.69698 3.47943 3.6579C3.48667 3.64994 3.4696 3.61882 3.46954 3.61184C3.46986 3.55496 3.54141 3.61683 3.55184 3.61916C3.62804 3.63555 3.66685 3.60284 3.722 3.5831C3.72346 3.58258 3.72494 3.58207 3.72643 3.58157C3.73954 3.57717 3.70811 3.53792 3.7202 3.53207C3.78276 3.50248 3.8515 3.48317 3.92172 3.48218C3.93748 3.48203 3.93708 3.52482 3.94524 3.52673C3.98086 3.53478 3.96376 3.45989 3.99732 3.46645C4.00433 3.46776 4.01156 3.50186 4.01382 3.50513C4.04937 3.55651 4.03861 3.47107 4.04256 3.46787C4.09095 3.42584 4.15345 3.49921 4.2034 3.4713C4.20952 3.46784 4.18223 3.43015 4.20022 3.42298C4.31903 3.37523 4.45297 3.35148 4.583 3.35516C4.60318 3.35568 4.59768 3.39103 4.59986 3.39467C4.63446 3.45147 4.62622 3.3659 4.63178 3.36124C4.67529 3.3268 4.73674 3.38554 4.74682 3.27916C4.96121 3.26515 5.15477 3.16749 5.37596 3.21409C5.37875 3.21458 5.38269 3.25655 5.38823 3.25736C5.45497 3.26744 5.42982 3.20618 5.45419 3.11967C5.4603 3.09795 5.51147 3.18537 5.51574 3.19166C5.53124 3.21491 5.53375 3.2781 5.53818 3.2823C5.5745 3.31493 5.52688 3.11436 5.56428 3.10622C5.56552 3.10631 5.56861 3.14445 5.57255 3.14746C5.58485 3.15692 5.59137 3.14008 5.60373 3.15075C5.63209 3.17549 5.66148 3.2716 5.68252 3.20723C5.68512 3.19889 5.65332 3.08622 5.68785 3.08415C5.70155 3.08347 5.75988 3.0681 5.77789 3.07165C5.79597 3.07521 5.7933 3.11451 5.79483 3.11583C5.85054 3.15395 5.83847 3.17797 5.87799 3.2444C5.91758 3.3105 5.87047 3.14156 5.87491 3.12037C5.87934 3.09925 5.92151 3.13127 5.93302 3.14313C5.94448 3.15503 5.9402 3.18075 5.9493 3.18683C6.0093 3.22637 5.94891 3.09728 5.95754 3.06645C5.97761 2.99346 6.03776 3.11215 6.07472 3.11555C6.08466 3.11648 6.06969 3.08983 6.07702 3.08501C6.10591 3.06636 6.13559 3.10034 6.16183 3.05446C6.16614 3.04698 6.17353 2.96374 6.20796 3.01351C6.21291 3.02069 6.21425 3.05401 6.22976 3.0571C6.25307 3.06173 6.29094 3.05798 6.30958 3.04105C6.3226 3.02917 6.29267 2.98728 6.31121 2.99177L6.28692 3.00259C6.28789 3.00257 6.289 3.00264 6.29028 3.0028C6.30214 3.00427 6.30341 3.04 6.32437 3.04052C6.34527 3.04109 6.38285 3.01661 6.39677 3.00682C6.41067 2.99702 6.3816 2.96735 6.38135 2.9643C6.38028 2.94665 6.39764 2.91308 6.40008 2.91163C6.52034 2.8318 6.67018 2.81789 6.776 2.72262C6.78429 2.71521 6.75496 2.68334 6.75599 2.68184C6.77823 2.64613 6.81472 2.75773 6.85782 2.77506C6.8074 2.7045 6.82916 2.70909 6.84638 2.68651C6.85464 2.67558 6.83042 2.65133 6.82953 2.64781C6.81761 2.59475 6.86467 2.64258 6.87492 2.65195C6.91263 2.68644 6.89196 2.63001 6.91729 2.65297C6.94251 2.67569 6.95281 2.72723 6.97382 2.71264C6.96271 2.68282 6.90235 2.62556 6.91122 2.60398C6.94549 2.52199 7.09324 2.49939 7.14633 2.47113C7.19875 2.44341 7.2107 2.42821 7.24544 2.41792C7.3083 2.39915 7.2553 2.36267 7.27115 2.31817C7.28693 2.27367 7.35619 2.4057 7.37891 2.42863C7.40157 2.45159 7.38773 2.42135 7.40328 2.4318C7.41883 2.44225 7.41921 2.46836 7.43601 2.46463C7.45272 2.46096 7.45615 2.38945 7.44165 2.35897C7.41088 2.29447 7.35227 2.24534 7.4016 2.24231C7.40447 2.24217 7.42051 2.27847 7.43035 2.27633C7.50744 2.25849 7.57107 2.2152 7.64596 2.1936C7.65628 2.19069 7.67441 2.231 7.68071 2.2297C7.74625 2.21627 7.68599 2.16986 7.6653 2.08459C7.72282 2.17615 7.77707 2.21829 7.81515 2.19105C7.83799 2.17474 7.80612 2.1397 7.80085 2.1023C7.79923 2.09105 7.83426 2.10535 7.82391 2.08543C7.79031 2.02016 7.72696 1.96627 7.78482 1.96343C7.78742 1.9634 7.80574 1.99919 7.81303 1.99675C7.86016 1.98115 7.81924 1.91716 7.85363 1.87973C7.88089 1.85017 7.96543 1.84385 8.00527 1.82266C8.07816 1.9196 8.09581 1.87096 8.05832 1.79421C8.08374 1.77886 8.10573 1.75575 8.13491 1.74759C8.14492 1.74475 8.16158 1.7763 8.16488 1.77854C8.21635 1.81383 8.17658 1.74161 8.17955 1.73521C8.21474 1.66807 8.29619 1.68203 8.31003 1.59354C8.31049 1.59038 8.26055 1.52245 8.31268 1.55941C8.31622 1.562 8.32358 1.60533 8.34925 1.5884C8.37424 1.57203 8.44936 1.56912 8.45717 1.51211C8.45929 1.4982 8.43515 1.42948 8.48591 1.4568C8.49272 1.46057 8.50575 1.48115 8.51749 1.48889C8.55507 1.51337 8.50616 1.44331 8.56431 1.48901C8.62262 1.53457 8.68156 1.55596 8.68306 1.4894C8.6832 1.48737 8.64765 1.42908 8.65879 1.42104C8.67666 1.40822 8.70918 1.39899 8.72585 1.38414C8.73381 1.37701 8.70135 1.34964 8.70226 1.34785C8.74339 1.28161 8.80586 1.27684 8.87581 1.23668C8.88838 1.22965 8.8812 1.15958 8.93223 1.17446C8.98798 1.19082 9.10239 1.3648 9.12192 1.28097C9.1311 1.24611 8.98018 1.03049 9.10943 1.09498C9.15838 1.00364 9.27391 0.988861 9.31037 0.88452C9.31211 0.87977 9.27035 0.818446 9.27815 0.811939C9.28989 0.802314 9.31978 0.820444 9.32957 0.813591C9.3697 0.787021 9.37794 0.735893 9.4105 0.706778C9.42344 0.694925 9.44564 0.722909 9.46063 0.709041C9.47484 0.695881 9.44997 0.653964 9.48397 0.648244C9.5096 0.644108 9.59722 0.686849 9.62553 0.667342C9.57544 0.629185 9.56573 0.609403 9.56293 0.589313C9.56182 0.57918 9.56283 0.568464 9.56239 0.554848C9.5621 0.546805 9.53134 0.534146 9.52982 0.52939C9.52304 0.509622 9.5518 0.515362 9.54349 0.495242C9.54152 0.490372 9.5153 0.47217 9.5122 0.467166C9.48493 0.423861 9.56303 0.437289 9.57648 0.439889C9.62787 0.449233 9.59974 0.417092 9.6247 0.414214C9.64957 0.411475 9.65423 0.445257 9.67471 0.436038C9.71695 0.417108 9.74294 0.372791 9.76845 0.341351C9.7785 0.328633 9.73783 0.311824 9.73848 0.309407C9.7502 0.275888 9.80669 0.276905 9.75136 0.209869C9.93855 0.326756 9.74703 0.180686 9.81184 0.169829C9.81702 0.169044 9.901 0.230172 9.90389 0.250965C9.9069 0.271591 9.868 0.268461 9.87441 0.298833C9.87586 0.305996 9.93637 0.386628 9.93889 0.393041C9.9584 0.443168 9.83265 0.352458 9.82492 0.348522C9.7411 0.306848 9.80489 0.396459 9.80575 0.407494C9.80896 0.458846 9.77188 0.472956 9.77203 0.513612C9.77204 0.540045 9.85391 0.600221 9.84182 0.612039C9.80173 0.651462 9.67361 0.587882 9.74445 0.701859C9.752 0.714077 9.78041 0.733525 9.79485 0.748012C9.80842 0.763527 9.80666 0.776763 9.75413 0.774216C9.74602 0.775973 9.6626 0.753288 9.68732 0.802515C9.69068 0.808448 9.71567 0.829004 9.71565 0.833293C9.71508 0.86147 9.68424 0.857869 9.67796 0.88376C9.67233 0.908928 9.6643 0.945301 9.63925 0.95621C9.62357 0.963531 9.56516 0.937664 9.54904 0.93323C9.50389 0.919113 9.53895 0.983228 9.49254 0.957139C9.44613 0.930653 9.4077 0.857476 9.35969 0.858858C9.41887 0.918578 9.47868 0.980823 9.53767 1.04141C9.48318 1.09284 9.40908 1.12745 9.35909 1.18037C9.35269 1.18724 9.39086 1.21328 9.38475 1.22153C9.35764 1.25728 9.31116 1.25678 9.28684 1.29689C9.26903 1.32722 9.27495 1.38677 9.25617 1.42016C9.17511 1.36389 9.15979 1.42175 9.12487 1.44109C9.1128 1.44778 9.09625 1.42811 9.08387 1.42791C9.03735 1.42776 9.10587 1.48059 9.10755 1.49697C9.11422 1.56725 8.98392 1.42565 8.95043 1.4612C8.94873 1.46295 8.99241 1.56087 8.99321 1.56862C8.99947 1.61828 8.96639 1.54463 8.94828 1.55027C8.91515 1.56057 8.88206 1.55672 8.8739 1.60316C8.87156 1.61685 8.89313 1.68242 8.84491 1.65843C8.8386 1.6553 8.81789 1.62841 8.8149 1.62834C8.76224 1.62949 8.8306 1.71113 8.83611 1.7536C8.8417 1.79598 8.767 1.76249 8.74785 1.75084C8.69814 1.72086 8.74414 1.72347 8.74146 1.71869C8.70976 1.66177 8.69692 1.68682 8.67805 1.69542C8.60909 1.61693 8.59202 1.63918 8.65886 1.70456C8.66607 1.71178 8.67193 1.6943 8.67805 1.69542C8.72952 1.78585 8.71511 1.81478 8.62836 1.76207C8.58776 1.73731 8.56624 1.68735 8.54133 1.73239C8.52996 1.75279 8.58161 1.80347 8.57928 1.83061C8.57416 1.8924 8.4875 1.87602 8.45879 1.9124C8.4486 1.92542 8.48539 1.94644 8.47925 1.95642C8.46295 1.98304 8.42418 1.97607 8.41005 2.00647C8.4088 2.00926 8.43952 2.03752 8.43251 2.04371C8.37954 2.09148 8.31611 2.10741 8.25696 2.15198C8.22911 2.173 8.19254 2.22949 8.16008 2.24831C8.10517 2.28028 8.00625 2.27942 7.97158 2.32318C7.94894 2.35152 7.97957 2.38011 7.98406 2.4117C7.99279 2.47291 7.8929 2.42519 7.87834 2.4171C7.8779 2.41682 7.89691 2.39088 7.87122 2.38345C7.83755 2.35346 7.87852 2.41674 7.87834 2.4171C7.86851 2.41223 7.81466 2.43982 7.80939 2.45333C7.80661 2.46065 7.83246 2.49015 7.83058 2.49337C7.78473 2.56965 7.72443 2.62486 7.64585 2.65784C7.6442 2.65804 7.62086 2.62106 7.6173 2.62196C7.5667 2.6338 7.57302 2.69455 7.55851 2.74326C7.54418 2.79182 7.51177 2.80126 7.45018 2.75261C7.43124 2.77709 7.3774 2.77373 7.34581 2.77088C7.31424 2.76802 7.35909 2.84032 7.35823 2.84293C7.33177 2.92581 7.27323 2.90651 7.21048 2.93916C7.18043 2.95467 7.1325 3.00107 7.10746 3.02855C7.08774 3.0504 7.06245 3.0431 7.04729 3.06814C7.04522 3.07151 7.06887 3.1013 7.06874 3.10312C7.06861 3.15719 7.03017 3.07181 7.01608 3.06125C6.96483 3.02283 6.93658 3.00298 6.92052 3.04692C6.91684 3.05699 6.96758 3.18274 6.95838 3.19787C6.94632 3.21729 6.9272 3.17284 6.91522 3.19419C6.91417 3.19598 6.93032 3.22063 6.91834 3.2267C6.86288 3.25525 6.79759 3.27604 6.74434 3.3126C6.73702 3.31749 6.77127 3.35123 6.76108 3.35896C6.71332 3.39513 6.65726 3.42752 6.5961 3.43907C6.581 3.44177 6.57169 3.40914 6.56399 3.40244C6.54107 3.38265 6.53449 3.39344 6.53334 3.41006C6.51632 3.41847 6.46781 3.44358 6.44924 3.44752C6.4435 3.46407 6.44194 3.48815 6.43992 3.48962C6.34629 3.56041 6.24474 3.50839 6.14723 3.57178C6.14221 3.57534 6.11931 3.67574 6.08011 3.60455C6.07737 3.59985 6.03848 3.52675 6.03408 3.58441C6.0338 3.58801 6.05609 3.62514 6.03344 3.62636C6.01083 3.62757 5.98266 3.66278 5.94252 3.62554C5.92978 3.61383 5.88976 3.54091 5.87643 3.60954C5.87574 3.6143 5.86466 3.76503 5.82738 3.67123C5.82128 3.65578 5.80078 3.5523 5.7796 3.61244C5.77558 3.62408 5.79215 3.6445 5.7787 3.66253C5.75809 3.6903 5.71837 3.67009 5.6971 3.72275C5.69343 3.73206 5.68525 3.80706 5.65529 3.75789C5.6506 3.75019 5.64876 3.71458 5.63815 3.71281C5.58775 3.70423 5.54416 3.73746 5.49246 3.72337C5.47418 3.71844 5.471 3.66094 5.45069 3.64959C5.43035 3.63826 5.39281 3.63108 5.3802 3.66027C5.36758 3.68948 5.40563 3.77425 5.38027 3.78694C5.27016 3.84205 5.14584 3.8137 5.03088 3.83119C5.01385 3.83378 5.03479 3.86237 5.01023 3.86848C4.91946 3.89098 4.77286 3.95715 4.6788 3.91025C4.60335 3.87256 4.67079 3.81179 4.61766 3.80225C4.59186 3.79784 4.59356 3.9065 4.58913 3.91112C4.5445 3.95788 4.49501 3.92303 4.45072 3.95044C4.44157 3.95613 4.463 3.99449 4.45511 3.99887C4.42854 4.01413 4.39349 4.00444 4.36687 4.01597C4.35505 4.02121 4.36673 4.05181 4.35486 4.05272C4.32666 4.05526 4.29865 4.04944 4.26351 4.02829C4.2603 4.02636 4.26433 3.98258 4.24405 3.98729C4.21138 3.99499 4.16134 3.97921 4.13425 4.02087C4.12612 4.0334 4.14911 4.10438 4.10929 4.06326C4.10105 4.05466 4.07864 3.96764 4.076 4.05017C4.07537 4.06392 4.06356 4.17817 4.01899 4.12239C4.00733 4.10767 3.96824 4.04361 3.95886 4.05912C3.95769 4.06147 3.97806 4.09681 3.96853 4.1043C3.95332 4.11588 3.9365 4.12437 3.9193 4.13264C3.90238 4.14128 3.88429 4.15003 3.86767 4.164C3.85966 4.17086 3.88864 4.204 3.87636 4.21295C3.84461 4.23681 3.7923 4.24787 3.7504 4.25278C3.73457 4.25466 3.72978 4.21906 3.72724 4.21611C3.68533 4.16841 3.7098 4.24763 3.70643 4.2545C3.68519 4.29619 3.64339 4.27366 3.61576 4.29887C3.60814 4.30572 3.63195 4.33757 3.63176 4.34157C3.62959 4.38084 3.61103 4.31147 3.59642 4.31017C3.55562 4.30621 3.51994 4.32833 3.49082 4.34955C3.48002 4.35747 3.51453 4.39049 3.50464 4.39712C3.44581 4.43748 3.37939 4.46964 3.30542 4.48343C3.29163 4.48586 3.28131 4.45146 3.27493 4.44592C3.23042 4.40713 3.24425 4.48729 3.24237 4.49682C3.23366 4.54037 3.2078 4.51977 3.18869 4.53789C3.09344 4.62804 2.94979 4.694 2.8401 4.75015C2.69767 4.8232 2.57619 4.86483 2.45484 4.95883C2.44713 4.96476 2.48159 4.99748 2.47529 5.00307C2.39253 5.07381 2.2952 5.12009 2.21476 5.1942C2.20811 5.20021 2.2442 5.22858 2.23441 5.23943C2.21448 5.26196 2.18309 5.28162 2.15086 5.28758C2.13518 5.29055 2.1287 5.24855 2.11336 5.25219C2.07758 5.2606 2.04619 5.27958 2.02225 5.30587C2.01211 5.31714 2.0568 5.34029 2.04157 5.35209C1.93839 5.43329 1.83995 5.51652 1.69885 5.55048C1.68919 5.55279 1.62732 5.48474 1.62244 5.51056C1.63669 5.53167 1.6549 5.5554 1.67089 5.57739C1.52755 5.70521 1.3587 5.79704 1.20565 5.91367C1.19917 5.91862 1.24055 5.94765 1.22819 5.95742C1.15697 6.01377 1.0973 6.07967 0.995393 6.10118C0.985249 6.10343 0.934506 6.03456 0.921681 6.06193C0.919438 6.06683 0.895219 6.10172 0.899061 6.12266C0.899759 6.12572 0.930934 6.15164 0.921655 6.16087C0.866552 6.21464 0.800136 6.25872 0.726077 6.28996C0.714174 6.29486 0.696497 6.25413 0.687771 6.25735C0.626258 6.28028 0.59581 6.34929 0.525767 6.35941C0.478525 6.36632 0.441278 6.30138 0.377539 6.26126C0.368519 6.25562 0.348972 6.27073 0.320179 6.2401C0.247651 6.16316 0.18003 6.06848 0.101674 5.9874C0.0847726 5.96995 0.0768966 6.01186 0.0529264 5.95475C0.0513444 5.9509 0.0568747 5.92002 0.0483302 5.90104C0.0424301 5.88791 0.00837429 5.86096 0.00327739 5.84198C-0.00178663 5.823 0.0291025 5.84353 0.0264385 5.81835C0.0236524 5.79294 -0.0133296 5.76068 0.00517514 5.73685ZM7.20422 2.75807C7.16285 2.73666 7.24333 2.86275 7.24366 2.81944C7.24357 2.8172 7.2063 2.75909 7.20422 2.75807ZM9.33195 1.04464C9.26366 1.01907 9.31778 1.10154 9.36779 1.12409C9.41815 1.14617 9.35275 1.05227 9.33195 1.04464ZM9.51439 0.787632C9.4517 0.779332 9.60398 0.927014 9.59924 0.868533C9.59905 0.865119 9.51807 0.788065 9.51439 0.787632ZM0.438769 6.18031C0.437228 6.17902 0.422606 6.18919 0.423592 6.19094C0.447719 6.23291 0.47684 6.21264 0.438769 6.18031ZM9.66152 0.508725C9.63189 0.501048 9.64175 0.545021 9.67857 0.554484C9.70816 0.562123 9.69828 0.518391 9.66152 0.508725ZM6.09432 3.18588C6.0934 3.18382 6.08031 3.1852 6.08376 3.19731C6.09494 3.23633 6.10964 3.2206 6.09432 3.18588ZM9.96737 0.105668C9.91365 0.157598 9.74829 0.0834686 9.81672 0.0312673C9.82906 0.0219555 9.8391 0.0919115 9.86349 0.0871609C9.90771 0.0787869 9.83831 -0.00969503 9.90651 0.000907915C9.91875 0.0031023 9.97073 0.102927 9.96748 0.105927C9.96744 0.105841 9.96741 0.105755 9.96737 0.105668ZM7.09342 2.6161C7.09195 2.61471 7.07605 2.6231 7.07678 2.62497C7.09513 2.66983 7.12725 2.65289 7.09342 2.6161ZM5.33734 3.26391C5.33552 3.25998 5.294 3.26459 5.29345 3.26867C5.28801 3.3491 5.37203 3.34 5.33734 3.26391ZM8.0078 1.8248C7.99389 1.77524 8.00924 1.75629 8.05821 1.79422C8.04097 1.80355 8.02477 1.81545 8.0078 1.8248Z" fill="#3C8634"/>
</svg>
