<svg width="11" height="13" viewBox="0 0 11 13" fill="none" xmlns="http://www.w3.org/2000/svg">
<path d="M0.784261 3.62066C0.867777 3.42933 0.948656 3.18287 1.01218 2.99633C1.03201 2.93793 0.995003 2.95542 1.00803 2.91434C1.03362 2.83441 1.07901 2.77069 1.10525 2.69242C1.11394 2.66629 1.06106 2.67734 1.07116 2.6502C1.12683 2.50225 1.20966 2.37826 1.28642 2.24002C1.2945 2.22549 1.30269 2.21096 1.311 2.19642C1.54373 1.78653 1.8401 1.44293 2.20189 1.08228C2.30525 0.961468 2.61289 0.87318 2.9014 0.82796C3.15911 0.785255 3.48875 0.72808 3.77189 0.737492C3.80484 0.738612 3.78618 0.775966 3.79251 0.778839C3.89321 0.822966 3.857 0.749421 3.92175 0.738344C4.01666 0.722312 4.11426 0.711967 4.21524 0.706336C4.37277 0.696132 4.52934 0.714668 4.597 0.765713C4.59948 0.767317 4.60191 0.769058 4.60409 0.770795C4.65204 0.811713 4.56157 0.832481 4.64075 0.837411C4.64669 0.838227 4.6534 0.794998 4.67304 0.803861C4.7185 0.822906 4.78223 0.896836 4.81086 0.929006C4.86698 0.989707 4.87501 1.00302 4.921 1.07352C4.98366 1.17087 5.06953 1.29141 5.1214 1.41565C5.13222 1.44197 5.07956 1.42602 5.09359 1.46978C5.09832 1.48435 5.10685 1.50432 5.11791 1.52758C5.13656 1.56634 5.1592 1.6147 5.17281 1.6347C5.19298 1.66418 5.2181 1.64061 5.22697 1.64422C5.30354 1.67658 5.24944 1.82316 5.24861 1.83758C5.26249 2.1312 5.28746 2.4011 5.25056 2.70858C5.24962 2.71625 5.24865 2.72391 5.24766 2.73155C5.22779 2.90013 5.10166 3.06599 4.96691 3.2075C4.80035 3.38272 4.63317 3.53146 4.41945 3.67687C4.3968 3.69222 4.39613 3.63523 4.36848 3.65382C4.13627 3.81413 3.89193 3.95691 3.66294 4.21105C3.5939 4.29176 3.54394 4.37734 3.50924 4.48232C3.49338 4.53564 3.55588 4.48239 3.5439 4.53576C3.54152 4.54757 3.53931 4.55974 3.53731 4.57676C3.53638 4.58545 3.53529 4.59465 3.53506 4.61126C3.53518 4.62035 3.53462 4.62887 3.53826 4.65088C3.54799 4.65875 3.52646 4.75526 3.69192 4.7881C4.00387 4.78838 4.2275 4.46449 4.42659 4.45705C4.51975 4.31594 4.59857 4.16533 4.64236 4.0683C4.67167 4.00644 4.59475 4.01449 4.66915 3.97738C4.68539 3.97088 4.6917 4.01475 4.71212 4.00486C4.71634 4.00293 4.72049 4.00111 4.72457 3.9994C4.84727 3.94002 4.97601 3.8629 5.10793 3.82416C5.13636 3.8159 5.14354 3.85155 5.15362 3.854C5.23683 3.87285 5.30895 3.75051 5.33082 3.73523C5.49284 3.62058 5.63426 3.59039 5.80619 3.53485C5.84616 3.52209 5.81301 3.5822 5.85184 3.57166C6.05292 3.51671 6.26031 3.45859 6.45581 3.39527C6.49933 3.38111 6.44997 3.35017 6.47044 3.34138C6.56135 3.30339 6.59695 3.37445 6.68413 3.34183C6.7026 3.33511 6.68584 3.30287 6.68866 3.2985C6.73347 3.22988 6.79539 3.3058 6.80949 3.30547C6.84713 3.3049 6.88147 3.30021 6.91351 3.29308C7.03866 3.26569 7.13178 3.20063 7.27237 3.19796C7.29329 3.19774 7.25045 3.24544 7.30866 3.24227C7.69693 3.22201 8.10542 3.21327 8.4828 3.25237C8.54096 3.25862 8.50693 3.2181 8.51127 3.21482C8.58514 3.16519 8.60423 3.2576 8.62232 3.26537C8.76126 3.32321 8.92122 3.30549 8.97438 3.43906C9.12238 3.49246 9.25131 3.56691 9.40283 3.65743C9.37339 3.61364 9.41868 3.70891 9.40497 3.8C9.39942 3.89409 9.38227 3.99721 9.36603 4.10387C9.33018 4.32952 9.18443 4.57225 9.0474 4.8141C9.04316 4.82129 9.08542 4.83515 9.07674 4.84948C8.97019 5.022 8.94245 4.95054 8.79669 5.00047C8.76002 5.01288 8.7659 5.1535 8.76528 5.165C8.76316 5.20729 8.83311 5.22154 8.82958 5.23336C8.79917 5.3297 8.65316 5.18177 8.56993 5.28229C8.56768 5.28558 8.60768 5.29658 8.60385 5.30724C8.5991 5.3201 8.59151 5.33055 8.58363 5.34013C8.57268 5.35334 8.55937 5.36476 8.55365 5.38345C8.53374 5.4498 8.58263 5.54439 8.46214 5.57017C8.44647 5.57268 8.38895 5.47141 8.31197 5.53671C8.28252 5.56394 8.12792 5.66189 8.08519 5.69315C8.04378 5.72545 8.09328 5.74062 8.0909 5.74386C7.98986 5.8566 8.04672 5.84841 8.01465 5.94819C7.98093 6.04729 7.92119 5.88099 7.88651 5.87614C7.85225 5.87138 7.772 5.95329 7.75392 5.97647C7.73543 6.00015 7.77531 6.00887 7.75684 6.02574C7.63325 6.13582 7.65948 5.97254 7.60254 5.96613C7.46833 5.9496 7.42787 6.10334 7.32655 6.15251C7.29958 6.16557 7.31281 6.12962 7.2868 6.13571C7.18388 6.15988 7.13555 6.2184 7.00986 6.21833C7.00294 6.21833 6.98528 6.21313 6.96304 6.20896C6.92139 6.20013 6.86757 6.19144 6.83755 6.23617C6.83086 6.24585 6.86093 6.27324 6.81997 6.28826C6.79946 6.29564 6.7722 6.30324 6.74359 6.30831C6.7365 6.30956 6.72934 6.31066 6.72291 6.3114C6.72155 6.31158 6.71938 6.31171 6.7206 6.31181C6.72096 6.31183 6.72153 6.31185 6.72291 6.31196C6.72361 6.31203 6.72452 6.31211 6.72601 6.31232C6.72726 6.31255 6.72378 6.3118 6.73083 6.31321C6.72151 6.31234 6.80008 6.3192 6.76262 6.40178C6.71416 6.43923 6.74054 6.41598 6.73328 6.42166C6.72615 6.42342 6.7267 6.4229 6.72637 6.42301C6.72595 6.423 6.72676 6.42287 6.72722 6.42279C6.72981 6.4224 6.73391 6.42202 6.73716 6.42174C6.75231 6.42055 6.76785 6.42013 6.78346 6.42024C6.81438 6.42046 6.84317 6.42219 6.86652 6.42584C6.91964 6.43423 6.85769 6.48709 6.92574 6.47112C6.95585 6.46404 6.90054 6.4322 6.95705 6.42154C7.01251 6.41072 7.15718 6.41531 7.21082 6.41837C7.26571 6.42132 7.23417 6.46077 7.23854 6.46365C7.26441 6.48005 7.36764 6.50397 7.37638 6.50446C7.8371 6.53017 8.26786 6.5166 8.71467 6.60997C8.7498 6.61709 8.71976 6.65567 8.72505 6.65719C8.84339 6.6934 8.76518 6.56664 8.85531 6.54191C8.83015 6.62569 8.88236 6.6179 8.96663 6.63977C9.00723 6.65033 8.98 6.68028 8.98327 6.68423C9.03761 6.74351 9.08984 6.6841 9.10249 6.67222C9.147 6.63114 9.18205 6.68521 9.21288 6.66704C9.21465 6.6659 9.2164 6.6645 9.21815 6.66278C9.24925 6.6341 9.19259 6.57601 9.27524 6.58973C9.29113 6.62425 9.22184 6.6936 9.27405 6.71703C9.46871 6.77941 9.77954 7.01473 9.88226 7.18358C9.92921 7.25094 9.95957 7.30129 9.98567 7.34299C10.0148 7.39019 10.0336 7.42748 10.0598 7.47828C10.1377 7.64991 10.0573 7.60231 10.054 7.71811C10.0452 7.83564 10.1824 7.76051 10.2166 7.77289C10.2505 7.78594 10.2204 7.80927 10.2403 7.82937C10.26 7.84917 10.2764 7.7994 10.2885 7.85039C10.3012 7.90269 10.2536 8.04807 10.2208 8.0672C10.152 8.1091 10.0761 8.04924 10.1067 8.18129C10.1084 8.18891 10.1466 8.16281 10.1514 8.19213C10.1878 8.42682 10.1877 8.67329 10.2156 8.91039C10.2195 8.94281 10.2626 8.91355 10.2654 8.93245C10.2944 9.12968 10.221 9.05933 10.1412 9.16929C10.2488 9.14355 10.3151 9.20251 10.3188 9.35167C10.3212 9.44217 10.2738 9.42661 10.2421 9.4864C10.2326 9.50487 10.2668 9.56644 10.2451 9.57905C10.1963 9.60694 10.142 9.58849 10.1247 9.62421C10.1166 9.63948 10.1165 9.6645 10.1261 9.70959C10.1275 9.71605 10.1675 9.69609 10.1695 9.7185C10.1791 9.8637 10.1025 9.8744 10.0643 10.0152C10.0354 10.1247 10.0016 10.3355 9.93665 10.462C10.0453 10.5177 9.95065 10.6252 9.8503 10.6251C9.83573 10.6498 9.8198 10.6746 9.80344 10.6996C9.76735 10.7547 9.7295 10.8078 9.69842 10.8612C9.68283 10.8878 9.7228 10.8935 9.72344 10.8989C9.73329 10.983 9.64312 10.9633 9.6284 10.9756C9.46653 11.1158 9.37398 11.2807 9.17055 11.3468C9.16298 11.3491 9.10806 11.2852 9.09636 11.3653C9.09535 11.3709 9.17313 11.3677 9.09322 11.4207C9.01476 11.4736 8.86919 11.5983 8.72763 11.6105C8.6933 11.6142 8.59461 11.578 8.54918 11.6488C8.54305 11.6584 8.55977 11.6784 8.55169 11.6952C8.52473 11.7488 8.47833 11.674 8.45175 11.7571C8.42498 11.8402 8.33528 11.9215 8.18661 11.9035C8.18191 11.9031 8.13477 11.8445 8.09252 11.8545C8.03841 11.8673 7.96805 11.8905 7.90479 11.9058C7.88822 11.9098 7.87227 11.9131 7.85739 11.9156C7.82302 11.9213 7.83803 11.8762 7.83195 11.8764C7.59877 11.8906 7.43874 11.9427 7.18706 11.9657C7.14073 11.9702 7.00878 11.9138 6.91926 11.9569C6.82015 12.004 6.9157 12.2132 6.68908 12.1564C6.59864 12.1338 6.49186 11.8665 6.32592 12.0003C6.2703 11.9941 6.21535 11.9923 6.16131 11.9948C5.90557 12.0065 5.6594 12.0526 5.39654 12.008C5.38223 12.0056 5.33854 11.9317 5.30562 11.9315C5.25571 11.9315 5.22708 11.9643 5.19147 11.9648C5.0414 11.9674 4.90748 11.928 4.76593 11.9117C4.71237 11.9048 4.72503 11.9432 4.65987 11.9323C4.63391 11.9275 4.61337 11.9154 4.59331 11.9017C4.56248 11.8803 4.53298 11.858 4.47932 11.8487C4.41401 11.8376 4.30277 11.8845 4.2161 11.8326C4.26984 11.7556 4.21733 11.7203 4.15708 11.6268C4.14559 11.6087 4.18431 11.6012 4.18012 11.5915C4.16432 11.5523 4.11971 11.5446 4.10767 11.5046C4.10477 11.4949 4.12803 11.4731 4.12704 11.464C4.12003 11.3869 3.99834 11.3547 3.97704 11.3487C3.89577 11.3259 3.9074 11.2748 3.85858 11.245C3.81063 11.2163 3.84291 11.2922 3.79472 11.2515C3.69426 11.1664 3.59319 11.0349 3.50809 10.9357C3.474 10.8956 3.52969 10.8958 3.52558 10.8894C3.48792 10.8342 3.4337 10.7928 3.40264 10.7448C3.38325 10.7155 3.37338 10.6837 3.38306 10.6451C3.1678 10.731 3.35623 10.5822 3.22445 10.4921C3.21405 10.485 3.12379 10.5387 3.14214 10.5849C3.16058 10.6311 3.23144 10.6651 3.25618 10.7302C3.26111 10.7434 3.25086 10.8427 3.25058 10.8784C3.24857 10.882 3.24866 10.8861 3.24913 10.8879C3.27465 10.9888 3.40129 10.8987 3.41114 10.8971C3.51718 10.8801 3.50658 11.0309 3.51864 11.0569C3.57503 11.1767 3.66216 11.2489 3.71287 11.3476C3.74651 11.4124 3.67303 11.4829 3.71163 11.5242C3.84556 11.6653 3.98645 11.6174 4.0429 11.8399C4.05849 11.8873 3.94826 11.946 4.13623 11.9814C4.14908 11.9851 4.29261 11.9869 4.33377 12.0617C4.33911 12.0715 4.32459 12.1004 4.33461 12.1083C4.3918 12.1516 4.44508 12.155 4.50607 12.1766C4.52092 12.1816 4.53673 12.1871 4.55097 12.1928C4.64082 12.2282 4.72862 12.259 4.81682 12.2586C4.86969 12.2583 4.94089 12.2043 4.96534 12.1915C5.03608 12.155 5.10303 12.2289 5.14763 12.1797C5.19147 12.1302 5.11585 12.0478 5.22415 12.0195C5.22439 12.1037 5.22996 12.1903 5.23317 12.275C5.47558 12.2818 5.7099 12.2534 5.94937 12.2481C5.97892 12.2475 5.95042 12.2939 5.98227 12.2944C6.05087 12.2952 6.11364 12.2856 6.17796 12.2762C6.22857 12.2677 6.28396 12.2621 6.34611 12.2691C6.44356 12.2801 6.55428 12.3327 6.6643 12.3489C6.73531 12.2554 6.9005 12.2939 7.02497 12.2853C7.06805 12.2824 7.06563 12.2567 7.09604 12.2482C7.21173 12.2159 7.15863 12.3014 7.1912 12.3142C7.33252 12.3673 7.33674 12.1752 7.4962 12.168C7.50436 12.1678 7.61904 12.2599 7.63489 12.2643C7.73307 12.2949 7.64631 12.2272 7.70312 12.2126C7.79195 12.1893 7.85477 12.1597 7.95111 12.1558C7.96675 12.1552 7.9833 12.1554 8.00102 12.1564C8.0367 12.1587 8.13342 12.2048 8.19086 12.1418C8.19843 12.1335 8.18631 12.1014 8.19304 12.0979C8.31453 12.037 8.34228 12.1392 8.42694 12.155C8.5123 12.1707 8.60999 12.0651 8.62648 12.0373C8.67119 11.9657 8.57268 12.0296 8.56763 12.0252C8.51068 11.9752 8.59688 11.9617 8.6582 11.9354C8.63462 11.8335 8.72156 11.8097 8.72164 11.9082C8.72142 11.9192 8.66927 11.9268 8.6582 11.9354C8.74496 12.0147 8.8544 11.9903 8.92296 11.8565C8.9541 11.7932 8.88764 11.7687 9.03948 11.7163C9.10813 11.6908 9.11637 11.7677 9.18441 11.7529C9.34207 11.7175 9.47163 11.5461 9.5947 11.4517C9.64031 11.4168 9.62424 11.4834 9.65662 11.46C9.74269 11.3971 9.78682 11.3105 9.86741 11.2427C9.8748 11.2365 9.89011 11.2815 9.91237 11.257C10.008 11.1517 10.0806 11.0423 10.1478 10.929C10.1967 10.846 10.2468 10.7582 10.3011 10.6595C10.3632 10.5523 10.4797 10.3436 10.5099 10.2052C10.5577 10.0168 10.5408 9.7871 10.5246 9.61054C10.521 9.56986 10.5196 9.53188 10.5217 9.49741C10.5279 9.38561 10.5699 9.41059 10.5969 9.3619C10.6492 9.27071 10.5496 9.10945 10.5344 9.08825C10.5339 9.08731 10.5253 9.18293 10.5035 9.13218C10.4591 9.10305 10.5342 9.08931 10.5344 9.08825C10.5244 9.07368 10.5137 8.88358 10.5216 8.84491C10.5258 8.82422 10.5649 8.83564 10.5664 8.82489C10.5999 8.56886 10.613 8.31009 10.5814 8.03264C10.5804 8.02779 10.5372 8.03736 10.5353 8.02602C10.5067 7.86708 10.5505 7.75762 10.5546 7.6037C10.5585 7.4498 10.5019 7.31589 10.3922 7.25795C10.3779 7.21934 10.3546 7.17727 10.3256 7.13728C10.2805 7.07868 10.2201 7.01731 10.1775 6.97717C10.1143 6.91774 10.1753 6.85864 10.1722 6.85106C10.0665 6.61886 9.91276 6.50882 9.63672 6.37446C9.55045 6.33332 9.40038 6.27789 9.26328 6.25698C9.21146 6.24741 9.1628 6.23726 9.12492 6.22876C9.0396 6.20939 8.98424 6.22129 8.90524 6.1965C8.89453 6.19316 8.91127 6.1574 8.90815 6.15546C8.82462 6.09695 8.85398 6.19501 8.8328 6.2085C8.75557 6.25751 8.70868 6.28253 8.5949 6.23677C8.56859 6.22624 8.5086 6.08263 8.45861 6.06769C8.39452 6.04868 8.41229 6.09934 8.34512 6.07854C8.3394 6.07683 8.34423 6.04768 8.30148 6.04338C8.10168 6.02278 7.88066 6.01693 7.67198 5.9991C7.64361 5.99679 7.6835 5.95274 7.64223 5.94866C7.44806 5.92956 7.23504 5.9227 7.04681 5.94119C7.0001 5.94589 7.02876 5.97914 7.01848 5.98868C6.95696 6.04638 6.87017 5.96033 6.85618 5.95868C6.83181 5.95563 6.80758 5.95324 6.78346 5.95143C6.76428 5.95025 6.74599 5.9494 6.7222 5.94949C6.71586 5.94954 6.70929 5.94964 6.70092 5.94999C6.69519 5.95029 6.69286 5.95027 6.68027 5.95137C6.66558 5.95444 6.69664 5.94409 6.60278 5.96591C6.5988 5.96705 6.59437 5.96838 6.58929 5.97003C6.59381 5.96889 6.56846 5.97528 6.53051 5.99415C6.49855 6.02282 6.39751 6.02072 6.31208 6.26816C6.27564 6.39416 6.32752 6.55445 6.38643 6.62226C6.4452 6.69621 6.49218 6.72009 6.5236 6.73783C6.58683 6.76941 6.6108 6.7714 6.6308 6.77663C6.67763 6.78534 6.65142 6.78028 6.66087 6.78193C6.67177 6.78343 6.679 6.78408 6.68495 6.78458C6.69661 6.7855 6.70312 6.78569 6.7086 6.78586C6.72051 6.78612 6.71951 6.78603 6.72389 6.78604C6.76245 6.78548 6.76482 6.78467 6.77944 6.78381C6.8275 6.78022 6.86425 6.77467 6.90256 6.76752C6.97734 6.75332 7.04666 6.73317 7.1142 6.70915C7.27421 6.65006 7.42822 6.58506 7.62094 6.53486C7.63893 6.53084 7.81612 6.56067 7.84924 6.46123C7.85206 6.45443 7.88208 6.35485 7.95856 6.38092C7.96355 6.38242 7.94115 6.43781 8.00753 6.40346C8.07294 6.3695 8.19545 6.34169 8.26685 6.25183C8.28967 6.22335 8.31787 6.11748 8.43573 6.12032C8.44142 6.12307 8.65793 6.156 8.64866 6.03802C8.64686 6.01833 8.57656 5.94233 8.70804 5.90729C8.73349 5.89997 8.71349 5.94718 8.77377 5.91614C8.85549 5.87316 8.92915 5.77809 9.03046 5.69415C9.03905 5.68919 9.04879 5.68424 9.05962 5.67973C9.07495 5.67387 9.17243 5.66884 9.16944 5.58902C9.16893 5.57654 9.13103 5.56662 9.148 5.54081C9.23038 5.41608 9.35663 5.30605 9.43923 5.16108C9.46846 5.1096 9.40516 5.09852 9.4297 5.04109C9.45443 4.98377 9.51369 4.87553 9.57113 4.83424C9.62899 4.79231 9.66578 4.90445 9.72695 4.81973C9.83963 4.65739 9.93962 4.46447 9.97754 4.20487C9.98994 4.0973 10.0042 3.97924 10.0066 3.83461C10.0069 3.76106 10.0067 3.68181 9.98548 3.5726C9.96364 3.47389 9.91516 3.27835 9.6991 3.14901C9.69874 3.14882 9.69838 3.14862 9.69801 3.14842C9.65587 3.12476 9.71089 3.11995 9.64081 3.07675C9.36886 2.87913 8.73974 2.63271 8.43533 2.67411C8.19166 2.69622 8.48215 2.77775 8.30098 2.77671C8.21591 2.77703 8.13293 2.66481 8.11091 2.65998C7.90848 2.61238 7.76641 2.65853 7.58654 2.64916C7.54992 2.64739 7.58444 2.60344 7.55298 2.60248C7.44376 2.599 7.33016 2.62556 7.22935 2.63089C7.18324 2.63331 7.18871 2.60002 7.14588 2.6067C7.04712 2.62215 6.95869 2.64649 6.86594 2.68997C6.85746 2.69395 6.92282 2.72602 6.84901 2.73765C6.8446 2.73835 6.84016 2.73909 6.83567 2.73988C6.71897 2.76033 6.58308 2.81039 6.44722 2.8068C6.4054 2.80564 6.38842 2.7326 6.31266 2.8015C6.29677 2.81607 6.33918 2.89807 6.22248 2.8451C6.20346 2.83586 6.00934 2.775 5.94409 2.86269C5.92689 2.88559 5.89153 2.97118 5.84145 2.9735C5.83452 2.97357 5.84928 2.92764 5.80895 2.93512C5.66701 2.96231 5.524 3.01222 5.37968 3.04985C5.34089 3.05997 5.38319 3.00088 5.32563 3.01739C5.16754 3.06259 4.97904 3.1497 4.83611 3.22967C4.78338 3.25925 4.83566 3.27304 4.83319 3.27828C4.79561 3.36265 4.72341 3.30675 4.6997 3.31305C4.58097 3.34543 4.50417 3.4117 4.41202 3.46911C4.37637 3.49083 4.34266 3.51387 4.31011 3.53725C4.26067 3.57397 4.26937 3.51641 4.2576 3.52154C4.13984 3.58093 4.25611 3.57004 4.20861 3.62705C4.08713 3.78558 4.00987 3.91782 3.9405 4.00869C3.91598 4.04136 3.90397 3.97846 3.88296 4.00701C3.74201 4.18104 3.77927 4.14374 3.72065 4.17531C4.00975 4.1907 4.11885 4.44415 4.1253 4.47706C4.14914 4.55217 4.14607 4.56968 4.14877 4.59609C4.15047 4.63691 4.14764 4.65284 4.14611 4.66627C4.14247 4.69126 4.13968 4.69862 4.13747 4.70591C4.1242 4.7352 4.09679 4.7037 4.08783 4.70608C4.03585 4.68192 4.12872 4.67397 4.13552 4.67983C4.14532 4.67912 4.15174 4.67819 4.15619 4.67662C4.18534 4.65724 4.19374 4.62489 4.23756 4.59378C4.52488 4.39208 5.00878 4.09299 5.34356 3.75693C5.5851 3.51573 5.80943 3.20958 5.85198 2.80647C5.8701 2.59796 5.89001 2.3772 5.88929 2.12333C5.88895 2.08651 5.93636 2.12269 5.93651 2.09046C5.93531 1.81332 5.88365 1.51309 5.74306 1.2241C5.68914 1.11386 5.63434 1.00209 5.57414 0.884262C5.55911 0.855265 5.6209 0.87526 5.59738 0.827153C5.54952 0.728802 5.46889 0.602583 5.3741 0.506325C5.32772 0.459634 5.35326 0.551048 5.30755 0.504763C5.20377 0.399919 5.0651 0.280065 4.92036 0.195077C4.91748 0.193345 4.91448 0.191547 4.91134 0.189694C4.84053 0.149733 4.97515 0.16692 4.87348 0.11632C4.58808 -0.0063777 4.39748 0.00487894 4.215 9.98378e-06C3.93521 0.00172973 3.65629 0.0170901 3.36935 0.0709189C3.3375 0.0768463 3.31754 0.16974 3.24975 0.156946C3.24291 0.131944 3.24101 0.102093 3.23684 0.075145C2.76016 0.128998 2.27792 0.0793233 1.69123 0.569627C1.58109 0.683368 1.44435 0.817742 1.31898 0.952746C1.29964 0.973497 1.29813 0.904343 1.26034 0.944648C1.04287 1.17743 0.831542 1.41717 0.68856 1.71984C0.677705 1.74289 0.723209 1.76776 0.715594 1.81153C0.713402 1.8244 0.706642 1.83889 0.692629 1.85548C0.681516 1.8678 0.596987 1.98355 0.562792 2.00611C0.557814 2.00909 0.536763 1.9661 0.512282 2.00565C0.371015 2.23557 0.254409 2.49265 0.172805 2.74449C0.159792 2.785 0.216615 2.76016 0.207675 2.78926C0.144608 2.99376 0.0338564 3.19758 0.00308704 3.39429C-0.0174723 3.52559 0.0681992 3.50528 0.11198 3.59476C0.118151 3.60766 0.0916157 3.68168 0.12904 3.70096C0.223416 3.74982 0.345833 3.75439 0.444812 3.81065C0.466614 3.8225 0.398603 3.92082 0.478895 3.87884C0.484883 3.875 0.533132 3.80485 0.558792 3.79275C0.57657 3.78459 0.607663 3.82328 0.634225 3.80271C0.660973 3.78152 0.638154 3.74005 0.673449 3.70399C0.708885 3.66826 0.747821 3.70321 0.784261 3.62066ZM9.86166 6.72322C9.77442 6.69636 9.86244 6.57458 9.90879 6.66727C9.91083 6.67193 9.86614 6.72484 9.86166 6.72322ZM5.70686 12.1379C5.80087 12.0706 5.86847 12.1654 5.80234 12.2181C5.73521 12.2706 5.67786 12.1583 5.70686 12.1379ZM4.71558 12.0367C4.83492 12.0022 4.82922 12.2151 4.70693 12.154C4.70005 12.1505 4.7081 12.0385 4.71558 12.0367ZM0.242557 3.30035C0.244132 3.30174 0.225438 3.35765 0.223217 3.35804C0.167812 3.37081 0.204984 3.25964 0.242557 3.30035ZM3.90993 11.4383C3.95402 11.4463 3.99433 11.5424 3.93938 11.5339C3.89441 11.5264 3.85464 11.4283 3.90993 11.4383ZM7.34787 6.22239C7.34806 6.21999 7.38688 6.20414 7.39038 6.21624C7.4011 6.25555 7.34244 6.26402 7.34787 6.22239ZM2.85991 10.1967C2.88978 10.2153 2.91806 10.2321 2.94544 10.2478C3.08379 10.3514 3.22101 10.3295 3.06962 10.1662C3.03696 10.1309 3.09031 10.2817 3.03995 10.2439C3.02248 10.2307 3.00976 10.2155 2.99978 10.1991C2.94774 10.1301 2.90745 10.0324 2.80222 10.0343C2.77974 10.0344 2.85499 10.1905 2.8601 10.1972C2.86003 10.197 2.85997 10.1969 2.85991 10.1967ZM9.70542 6.82245C9.70325 6.82261 9.65849 6.78643 9.65842 6.78436C9.66357 6.72627 9.75836 6.80257 9.70542 6.82245ZM9.17025 4.71757C9.16927 4.71281 9.23942 4.60292 9.2443 4.60114C9.3488 4.58541 9.20352 4.81428 9.17025 4.71757ZM9.93841 10.4655C9.86758 10.4948 9.82641 10.5511 9.8504 10.6248C9.88056 10.5717 9.91174 10.5195 9.93841 10.4655Z" fill="black"/>
</svg>
