<svg width="14" height="4" viewBox="0 0 14 4" fill="none" xmlns="http://www.w3.org/2000/svg">
<path d="M0.235816 3.81428C0.315976 3.81129 0.425172 3.77492 0.498924 3.74046C0.523601 3.72941 0.505203 3.7061 0.522281 3.69724C0.555522 3.67999 0.587168 3.68684 0.619562 3.66775C0.630139 3.66132 0.60758 3.62306 0.61889 3.61725C0.681817 3.58557 0.741353 3.58442 0.80695 3.56204C1.11702 3.45434 1.43319 3.37438 1.75329 3.29031C1.86046 3.2623 1.98076 3.19919 2.0974 3.19269C2.11101 3.19197 2.11041 3.22968 2.11352 3.23215C2.16106 3.27001 2.13341 3.19969 2.15635 3.18499C2.24705 3.12691 2.3606 3.1006 2.45793 3.09553C2.50014 3.09332 2.4734 3.17335 2.50671 3.12475C2.50904 3.12145 2.49087 3.08519 2.50135 3.07882C2.525 3.06449 2.57584 3.0614 2.59494 3.0544C2.63109 3.04083 2.6374 3.03996 2.67302 3.03235C2.72169 3.0216 2.77669 2.9907 2.83224 2.98858C2.84408 2.98825 2.83692 3.03061 2.85638 3.03366C2.87533 3.03681 2.92165 3.02403 2.93576 3.01155C2.94984 2.99908 2.93685 2.96953 2.93825 2.96187C2.94941 2.89741 3.02126 2.96916 3.02885 2.96976C3.16804 2.97813 3.26425 2.90974 3.3886 2.88493C3.4794 2.86693 3.58064 2.86284 3.66921 2.84287C3.77233 2.81941 3.8556 2.78056 3.95923 2.76362C3.97015 2.76179 3.96669 2.81058 3.98005 2.80844C4.11736 2.78655 4.2586 2.75305 4.38796 2.69472C4.40111 2.68879 4.37522 2.65173 4.38788 2.64338C4.46501 2.59325 4.58636 2.48563 4.67023 2.65274C4.72575 2.63447 4.79402 2.61342 4.83864 2.56745C4.86743 2.53785 4.82616 2.50009 4.87099 2.51077C4.8811 2.51312 4.87677 2.55427 4.89136 2.55487C4.95332 2.55725 5.01212 2.53242 5.07368 2.54095C5.08615 2.5428 5.0899 2.57815 5.09445 2.58374C5.13227 2.62884 5.16197 2.53589 5.17091 2.52778C5.2394 2.46697 5.29878 2.47368 5.36951 2.45843C5.38597 2.45486 5.37574 2.50539 5.39192 2.50363C5.47554 2.49391 5.56181 2.47255 5.63871 2.43572C5.65563 2.42745 5.63129 2.391 5.63897 2.38501C5.67297 2.3591 5.69628 2.43246 5.72933 2.40902C5.73633 2.40418 5.72524 2.37103 5.7259 2.36702C5.73608 2.30404 5.77167 2.38332 5.77767 2.38403C5.85403 2.39488 5.88269 2.29901 5.95483 2.29742C5.9633 2.29736 5.95346 2.34405 5.97675 2.34123C6.13116 2.32285 6.29635 2.27772 6.43998 2.2134C6.46263 2.2034 6.43928 2.17443 6.43998 2.17015C6.45192 2.10305 6.48428 2.18335 6.49265 2.18495C6.55828 2.19542 6.60186 2.11404 6.66353 2.20509C6.91458 2.11939 7.18338 2.12408 7.42403 1.98387C7.42713 1.98218 7.41308 1.94226 7.41928 1.93908C7.49304 1.90049 7.49039 1.96738 7.55759 2.03525C7.57449 2.05229 7.59549 1.95012 7.59765 1.94251C7.60541 1.9145 7.58002 1.856 7.58333 1.85021C7.61117 1.80444 7.64539 2.00778 7.69342 1.99834C7.69485 1.9977 7.68118 1.96174 7.68448 1.95724C7.6947 1.94314 7.71006 1.95547 7.71981 1.94023C7.74206 1.90502 7.73262 1.80479 7.78701 1.85345C7.79373 1.8596 7.80744 1.9693 7.84671 1.96307L7.83488 1.965C7.83609 1.96489 7.83734 1.96467 7.83862 1.96434C7.85581 1.95984 7.93282 1.95208 7.95321 1.94187C7.97363 1.93165 7.95422 1.89613 7.95554 1.89432C8.0068 1.83761 7.98239 1.81989 8.00188 1.74308C8.02136 1.66656 8.03536 1.84144 8.04949 1.85937C8.06338 1.87727 8.10093 1.83111 8.10957 1.81562C8.11822 1.80012 8.1022 1.77801 8.11048 1.76881C8.16535 1.70862 8.14832 1.85172 8.17202 1.87677C8.22784 1.93613 8.24848 1.80254 8.29004 1.78449C8.30128 1.77961 8.29544 1.81018 8.30617 1.81162C8.34928 1.81687 8.36947 1.77347 8.42137 1.80445C8.42986 1.80949 8.47771 1.88225 8.49516 1.82228C8.49761 1.81364 8.48371 1.78274 8.5004 1.77334C8.5251 1.75928 8.57214 1.74627 8.6021 1.75344C8.62417 1.75876 8.60663 1.81473 8.63108 1.79497C8.64193 1.78616 8.61626 1.7579 8.63697 1.74393C8.65758 1.72997 8.71369 1.72436 8.73498 1.72279C8.75626 1.72125 8.74969 1.76286 8.75174 1.76536C8.76385 1.77959 8.80733 1.79385 8.81102 1.79334C8.99457 1.77547 9.15285 1.68704 9.33409 1.6872C9.34822 1.68717 9.34423 1.73068 9.34644 1.73112C9.39625 1.74293 9.3447 1.63498 9.37317 1.59314C9.3791 1.6797 9.39677 1.66169 9.43121 1.66696C9.44781 1.66958 9.44324 1.70395 9.44513 1.70718C9.47568 1.7547 9.48435 1.6873 9.48701 1.6734C9.49686 1.62226 9.52148 1.67815 9.52821 1.64395C9.53495 1.61 9.50401 1.56479 9.53631 1.56137C9.54919 1.59101 9.53535 1.67442 9.56143 1.68439C9.6589 1.72227 9.82427 1.63737 9.89736 1.62144C9.97102 1.60545 9.99544 1.60811 10.0369 1.59153C10.1119 1.56152 10.0915 1.62474 10.1435 1.64583C10.1956 1.66688 10.1531 1.52319 10.156 1.49075C10.1588 1.45834 10.1705 1.48984 10.1767 1.47141C10.183 1.453 10.1619 1.4339 10.1809 1.42484C10.2 1.41578 10.2611 1.46491 10.2729 1.49691C10.297 1.56482 10.2818 1.64136 10.3316 1.6087C10.3345 1.60677 10.3196 1.56948 10.3308 1.56407C10.4192 1.52238 10.5155 1.50788 10.6038 1.46941C10.6159 1.46406 10.599 1.42266 10.6059 1.41907C10.6788 1.38144 10.6615 1.45735 10.7145 1.53202C10.6906 1.42639 10.7054 1.35784 10.7633 1.34936C10.7981 1.34423 10.7984 1.39173 10.8253 1.42157C10.8336 1.43055 10.8543 1.39508 10.8618 1.41641C10.8865 1.48613 10.8741 1.56967 10.9301 1.5294C10.9325 1.52751 10.9187 1.4894 10.9275 1.48576C10.9845 1.46203 11.0007 1.53627 11.0668 1.5363C11.1185 1.53635 11.1995 1.47821 11.2563 1.46241C11.2379 1.34255 11.2955 1.36228 11.3292 1.44186C11.365 1.43317 11.4063 1.43187 11.4403 1.41513C11.452 1.4094 11.4388 1.37587 11.4398 1.37189C11.4547 1.30949 11.4827 1.38756 11.4911 1.38952C11.5817 1.40725 11.643 1.33546 11.7346 1.38204C11.7379 1.38372 11.7558 1.46618 11.7683 1.40192C11.7691 1.39751 11.7358 1.36398 11.7742 1.35489C11.8125 1.3458 11.8778 1.28954 11.9382 1.3191C11.9527 1.32623 11.9969 1.38823 12.0141 1.33114C12.0164 1.3234 12.0086 1.30021 12.0114 1.28611C12.0207 1.2411 12.0441 1.32351 12.0513 1.2489C12.0585 1.17429 12.0891 1.11412 12.1509 1.15394C12.1529 1.15507 12.1775 1.21927 12.1944 1.21519C12.2214 1.20863 12.2574 1.1879 12.2854 1.18324C12.2988 1.18103 12.2978 1.22382 12.3002 1.22415C12.3963 1.23046 12.4535 1.18167 12.548 1.14655C12.565 1.14009 12.6274 1.18589 12.6532 1.13448C12.681 1.07825 12.6012 0.884783 12.6962 0.914973C12.7348 0.926843 12.8345 1.17247 12.8679 1.0265C12.9973 1.03194 13.0922 0.938164 13.2245 0.953339C13.2303 0.954018 13.2659 1.02004 13.2787 1.01562C13.2975 1.00899 13.2992 0.97329 13.3121 0.967487C13.3655 0.942488 13.4262 0.955759 13.4788 0.935671C13.4843 0.933599 13.487 0.92971 13.4885 0.924974C13.493 0.911015 13.486 0.893426 13.5019 0.884103C13.5231 0.871389 13.5602 0.90463 13.5803 0.867495C13.5949 0.839375 13.5666 0.745604 13.583 0.720388C13.6379 0.795779 13.6556 0.78212 13.7034 0.773297C13.7129 0.771377 13.7277 0.801713 13.7333 0.801972C13.7574 0.802962 13.7499 0.772758 13.7741 0.773843C13.78 0.774018 13.8034 0.795725 13.8097 0.796844C13.8665 0.805652 13.8412 0.718911 13.8335 0.706833C13.8098 0.656288 13.8515 0.665864 13.8451 0.636595C13.8372 0.609097 13.803 0.627683 13.8024 0.601524C13.8003 0.549164 13.818 0.494237 13.8216 0.444992C13.8232 0.425776 13.8643 0.443007 13.8655 0.440373C13.8805 0.398077 13.8356 0.35565 13.9203 0.331225C13.7004 0.304707 13.9417 0.304971 13.8947 0.243765C13.8909 0.239014 13.787 0.23958 13.7727 0.257689C13.7585 0.276041 13.792 0.301485 13.7685 0.325544C13.7631 0.332184 13.6657 0.36171 13.6596 0.364797C13.6128 0.391756 13.7669 0.404813 13.7753 0.407602C13.8659 0.435329 13.7567 0.464602 13.7481 0.470045C13.7087 0.504502 13.72 0.539668 13.6862 0.556871C13.664 0.5677 13.5746 0.518845 13.5732 0.527174C13.571 0.551086 13.654 0.670738 13.5386 0.607178C13.514 0.593115 13.4562 0.498375 13.482 0.587255C13.4847 0.592285 13.5044 0.675151 13.4625 0.641001C13.4575 0.63658 13.4412 0.608638 13.4375 0.607615C13.4133 0.601311 13.4149 0.629779 13.3898 0.628716C13.378 0.627953 13.3645 0.626295 13.3513 0.627205L13.3961 0.610225C13.3802 0.609594 13.3646 0.611904 13.3513 0.621573C13.3359 0.632826 13.3298 0.697182 13.3252 0.713777C13.3123 0.761547 13.269 0.701115 13.2676 0.754817C13.2661 0.808825 13.3163 0.876701 13.285 0.91972C13.2618 0.838911 13.2362 0.756452 13.2121 0.675382C13.1276 0.700956 13.0499 0.748412 12.962 0.765407C12.9511 0.76744 12.9517 0.720844 12.9398 0.721877C12.8896 0.726308 12.8549 0.767293 12.8007 0.766202C12.7597 0.764961 12.7067 0.727496 12.6628 0.724455C12.6576 0.823899 12.5902 0.804575 12.5469 0.822258C12.5316 0.828423 12.5378 0.853377 12.5284 0.863807C12.4928 0.902521 12.4957 0.815245 12.4817 0.804388C12.4218 0.757997 12.4537 0.947813 12.3942 0.954347C12.391 0.954765 12.3342 0.861127 12.3279 0.855811C12.2871 0.821072 12.329 0.891926 12.3095 0.903257C12.2738 0.923972 12.2518 0.952918 12.2021 0.93136C12.1875 0.924949 12.1451 0.867592 12.1282 0.920776C12.1259 0.927744 12.1337 0.960801 12.1313 0.963233C12.0883 1.00439 12.0691 0.899582 12.0353 0.868816C12.0017 0.838031 11.971 0.917823 11.9656 0.940215C11.9516 0.998173 11.9872 0.960327 11.9893 0.965417C12.0148 1.02603 11.981 1.02061 11.9582 1.02992C11.9721 1.13349 11.9375 1.1329 11.9343 1.03917C11.934 1.02892 11.9542 1.03542 11.9582 1.02992C11.9203 0.932369 11.8819 0.925476 11.8564 1.02668C11.8446 1.07409 11.8708 1.12286 11.8096 1.11339C11.7821 1.10908 11.7808 1.03645 11.7546 1.0208C11.6947 0.985094 11.6355 1.0623 11.5795 1.06022C11.559 1.05949 11.5724 1.01761 11.5582 1.01576C11.5207 1.01072 11.4922 1.04493 11.4544 1.03532C11.451 1.03441 11.4528 0.992462 11.4415 0.993625C11.3559 1.00166 11.2848 1.03879 11.1957 1.05238C11.1518 1.05905 11.0723 1.0474 11.0279 1.05824C10.9502 1.07693 10.8647 1.14922 10.795 1.14401C10.7505 1.14067 10.7546 1.09851 10.7323 1.0732C10.6895 1.02407 10.6388 1.12926 10.6321 1.14538C10.6319 1.14591 10.6708 1.1505 10.6535 1.17416C10.6477 1.21941 10.6326 1.14551 10.6321 1.14538C10.6275 1.15585 10.5545 1.17502 10.5387 1.16916C10.5301 1.16596 10.5295 1.12665 10.5251 1.12571C10.4202 1.10436 10.3201 1.10744 10.2201 1.13878C10.2184 1.1398 10.2268 1.18276 10.2227 1.18461C10.1668 1.21142 10.1227 1.16322 10.07 1.13799C10.0172 1.11279 9.98032 1.1282 9.96136 1.2062C9.92385 1.20146 9.87548 1.24101 9.84756 1.26482C9.81961 1.28864 9.80475 1.20481 9.80194 1.20348C9.71322 1.16046 9.67091 1.21484 9.58562 1.23318C9.54566 1.24197 9.46311 1.23988 9.41726 1.23624C9.38078 1.23325 9.36283 1.25557 9.32907 1.24694C9.32452 1.24579 9.32422 1.20768 9.32271 1.2064C9.28126 1.16593 9.30993 1.25561 9.30457 1.27294C9.2851 1.33594 9.27245 1.36978 9.22257 1.3475C9.21114 1.34239 9.16309 1.2141 9.14317 1.20872C9.11695 1.20202 9.1323 1.24825 9.10462 1.24003C9.10225 1.23937 9.09909 1.21007 9.08301 1.21338C9.00833 1.22837 8.92709 1.25575 8.8488 1.26252C8.83804 1.26356 8.84602 1.21547 8.83037 1.21622C8.75673 1.2198 8.67688 1.23149 8.60901 1.26199C8.59224 1.26966 8.60724 1.30077 8.60465 1.31088C8.58866 1.37212 8.54494 1.29149 8.53925 1.29056C8.40419 1.26605 8.31377 1.35527 8.17739 1.33531C8.16998 1.33406 8.10312 1.25017 8.08804 1.33123C8.087 1.33663 8.07246 1.41945 8.04375 1.36769C8.04197 1.36446 8.05218 1.32147 8.02585 1.32904C7.99915 1.33665 7.95378 1.31454 7.92281 1.36427C7.91304 1.37994 7.89579 1.46291 7.85306 1.40393C7.85027 1.39978 7.7784 1.26327 7.77169 1.36461C7.77098 1.37572 7.77812 1.42576 7.76857 1.44355C7.76381 1.44448 7.74936 1.44616 7.74468 1.44742C7.74054 1.45662 7.7317 1.45806 7.7145 1.44309C7.70461 1.43436 7.71429 1.40846 7.69076 1.39814C7.65469 1.3822 7.6183 1.4182 7.57044 1.37977C7.56207 1.37295 7.51942 1.3084 7.50698 1.36627C7.50503 1.37533 7.51872 1.40852 7.50734 1.41479C7.45323 1.44477 7.38861 1.43356 7.33498 1.46902C7.31567 1.48158 7.33745 1.5353 7.31857 1.55459C7.29968 1.57388 7.25863 1.59697 7.23083 1.57596C7.20302 1.55494 7.21022 1.46101 7.17475 1.46064C7.02105 1.45896 6.88523 1.54016 6.73889 1.57714C6.71728 1.58261 6.72905 1.54718 6.69678 1.55295C6.57931 1.5738 6.36516 1.5853 6.27689 1.67319C6.20567 1.74368 6.31702 1.76444 6.25879 1.79894C6.23102 1.81539 6.17667 1.71864 6.16872 1.71684C6.0897 1.69815 6.04878 1.75393 5.98148 1.7527C5.96759 1.75243 5.9723 1.7079 5.96058 1.70813C5.92045 1.70856 5.88368 1.73533 5.84631 1.73921C5.82932 1.74089 5.82593 1.70827 5.81097 1.71382C5.77507 1.72673 5.74513 1.74668 5.71527 1.78383C5.71255 1.78722 5.7425 1.82267 5.7156 1.82957C5.67206 1.84061 5.62359 1.88105 5.56741 1.86045C5.55072 1.85421 5.53554 1.78113 5.51374 1.83803C5.50903 1.84994 5.53564 1.93602 5.48257 1.86763C5.47365 1.85629 5.38967 1.76653 5.37182 1.83873C5.3671 1.85774 5.36055 1.93382 5.34028 1.92611C5.33747 1.92479 5.33943 1.88353 5.32373 1.88267C5.26857 1.88032 5.2146 1.89544 5.15874 1.89378C5.14378 1.89326 5.15705 1.84831 5.13484 1.84888C5.07287 1.85054 5.00071 1.87571 4.94556 1.89995C4.92524 1.90896 4.94667 1.93973 4.94585 1.94371C4.93288 2.00832 4.90216 1.93073 4.89299 1.92768C4.83621 1.90978 4.80528 1.95528 4.75497 1.95492C4.74122 1.95489 4.74293 1.91464 4.73961 1.91174C4.70567 1.88374 4.73974 1.94862 4.72401 1.95966C4.68002 1.99082 4.62592 1.99842 4.57674 2.00314C4.55866 2.00482 4.56966 1.95633 4.55355 1.95835C4.45952 1.96916 4.3587 1.99374 4.27223 2.03654C4.25586 2.04471 4.2736 2.0768 4.27156 2.08535C4.25765 2.14509 4.20648 2.07763 4.19674 2.07218C4.15273 2.04719 4.14309 2.08064 4.10791 2.08179C3.93644 2.0868 3.73581 2.14784 3.58394 2.19117C3.38243 2.24814 3.23178 2.31226 3.03712 2.34253C3.02486 2.34447 3.02796 2.29642 3.01729 2.29751C2.87609 2.31442 2.74896 2.35849 2.60592 2.37354C2.59441 2.37481 2.60201 2.32832 2.58327 2.32891C2.54479 2.3298 2.49865 2.34152 2.46462 2.36272C2.448 2.37298 2.47953 2.40522 2.46266 2.41479C2.42184 2.43746 2.37585 2.44991 2.3305 2.45183C2.31118 2.45255 2.33051 2.40267 2.30611 2.40705C2.14102 2.4357 1.97552 2.4611 1.81868 2.55226C1.8081 2.55849 1.8162 2.65032 1.78875 2.63793C1.78192 2.61337 1.77611 2.58403 1.76995 2.55754C1.52438 2.5921 1.29168 2.67147 1.05036 2.72526C1.04021 2.72751 1.04819 2.67637 1.02851 2.68048C0.916313 2.70389 0.802008 2.71329 0.692953 2.7846C0.682472 2.79153 0.705076 2.87409 0.669258 2.86817C0.664165 2.86679 0.607749 2.86659 0.591 2.85107C0.588624 2.8487 0.590176 2.80771 0.57322 2.80996C0.478321 2.823 0.377129 2.85279 0.284895 2.89635C0.270599 2.90334 0.295086 2.94169 0.285013 2.94702C0.209775 2.98528 0.118447 2.97088 0.0511632 3.02388C0.00541738 3.05965 0.0404728 3.12741 0.0279078 3.20367C0.0253589 3.21459 -0.00614051 3.22263 0.00108646 3.26405C0.0180979 3.36843 0.055835 3.47885 0.0722085 3.59047C0.0751142 3.61464 0.0321379 3.5967 0.0661435 3.64963C0.068134 3.65322 0.101295 3.66635 0.113568 3.68415C0.121802 3.69651 0.120359 3.74042 0.135154 3.75537C0.151298 3.77004 0.152904 3.73316 0.174567 3.74986C0.196296 3.76681 0.197371 3.81621 0.235816 3.81428ZM9.72312 1.37116C9.70022 1.41519 9.67741 1.26734 9.71216 1.29902C9.71387 1.30073 9.72432 1.36899 9.72312 1.37116ZM13.0768 0.857561C13.0575 0.930242 13.0104 0.841762 13.0232 0.786272C13.0357 0.730884 13.0826 0.835542 13.0768 0.857561ZM13.453 0.806443C13.4269 0.868225 13.3621 0.666204 13.4166 0.695003C13.4186 0.696061 13.4345 0.742687 13.4446 0.775308L13.4244 0.782957C13.4288 0.792016 13.4326 0.799944 13.4349 0.805309L13.4516 0.798999C13.4527 0.803228 13.4532 0.805921 13.453 0.806443ZM0.154647 3.19893C0.154563 3.20097 0.133131 3.20729 0.132329 3.20545C0.111287 3.16126 0.154056 3.14866 0.154647 3.19893ZM13.7378 0.653523C13.7544 0.680522 13.7061 0.686879 13.688 0.652772C13.6725 0.627156 13.7159 0.622494 13.7378 0.653523ZM8.28211 1.71191C8.28196 1.71418 8.26611 1.71819 8.26486 1.70565C8.26091 1.66526 8.28473 1.67381 8.28211 1.71191ZM13.7994 0.0640128C13.817 0.156344 13.9962 0.201249 13.967 0.0969426C13.9616 0.0783244 13.9152 0.143065 13.8972 0.120495C13.8644 0.0791958 13.9708 0.0393114 13.9073 0.000471623C13.8957 -0.00619786 13.7981 0.0587575 13.7992 0.0642073C13.7993 0.0641424 13.7993 0.0640777 13.7994 0.0640128ZM9.72943 1.55141C9.72913 1.55344 9.70682 1.55813 9.70603 1.55626C9.6879 1.51069 9.73283 1.5012 9.72943 1.55141ZM7.35622 1.95562C7.35579 1.96 7.30478 1.97412 7.30235 1.97065C7.26025 1.89984 7.36333 1.87106 7.35622 1.95562ZM11.2567 1.45908C11.2882 1.50281 11.3183 1.50412 11.3291 1.44194C11.3053 1.44862 11.2809 1.45263 11.2567 1.45908Z" fill="#3C8634"/>
</svg>
