<svg width="10" height="5" viewBox="0 0 10 5" fill="none" xmlns="http://www.w3.org/2000/svg">
<path d="M9.83209 3.76521C9.77256 3.75274 9.69428 3.76661 9.6348 3.78507C9.61606 3.7908 9.62521 3.81741 9.61222 3.82254C9.58677 3.83253 9.56344 3.81915 9.53827 3.83093C9.52991 3.83497 9.53939 3.87715 9.53062 3.88041C9.48257 3.89799 9.43738 3.88606 9.38874 3.89333C9.14864 3.9291 8.91186 3.92852 8.6686 3.92116C8.58868 3.91877 8.48687 3.94457 8.40699 3.91656C8.39768 3.91325 8.4085 3.87756 8.4071 3.87429C8.38517 3.82425 8.38422 3.89924 8.36416 3.90635C8.28487 3.93436 8.20118 3.92452 8.13274 3.89826C8.10355 3.88694 8.14639 3.82011 8.10902 3.85527C8.10643 3.85764 8.1073 3.89752 8.09829 3.90017C8.07783 3.90611 8.04348 3.89277 8.02844 3.89311C7.9994 3.89398 7.99466 3.89268 7.96809 3.88802C7.93164 3.88195 7.88503 3.89245 7.84789 3.87561C7.84002 3.87191 7.85918 3.83494 7.84744 3.8255C7.83569 3.81609 7.80037 3.81198 7.78668 3.81864C7.77299 3.82533 7.77118 3.85721 7.76756 3.86381C7.73727 3.91964 7.71531 3.82807 7.71073 3.82485C7.62489 3.76864 7.53355 3.79549 7.44591 3.77192C7.37932 3.75388 7.31326 3.71857 7.25021 3.70188C7.1753 3.68221 7.10573 3.68286 7.03517 3.65518C7.02772 3.65229 7.05164 3.61059 7.04263 3.60699C6.94722 3.56888 6.85043 3.53895 6.74338 3.53082C6.73263 3.53004 6.72971 3.57343 6.71801 3.57493C6.64712 3.58365 6.52019 3.61871 6.55828 3.43832C6.51647 3.4277 6.4671 3.41327 6.4169 3.42987C6.38461 3.44055 6.38712 3.49161 6.36774 3.46115C6.36337 3.45432 6.38838 3.42247 6.38062 3.41496C6.34816 3.38347 6.3001 3.37411 6.27153 3.33666C6.26578 3.32897 6.28397 3.29851 6.28471 3.29173C6.2903 3.23665 6.22114 3.29682 6.21147 3.29871C6.13953 3.31303 6.11158 3.27698 6.06485 3.25185C6.05403 3.24603 6.0901 3.21184 6.08061 3.20479C6.03133 3.1689 5.97533 3.1403 5.91384 3.12682C5.90004 3.12388 5.88895 3.16471 5.88121 3.16502C5.84715 3.16582 5.8829 3.09788 5.85151 3.09736C5.84493 3.09714 5.82879 3.128 5.82585 3.13063C5.77961 3.17194 5.81395 3.09315 5.8116 3.08937C5.78206 3.03931 5.70436 3.09341 5.66931 3.05354C5.66584 3.04944 5.69176 3.02856 5.69156 3.01547C5.69158 3.01323 5.69083 3.01123 5.68901 3.00962C5.60638 2.9363 5.50596 2.87043 5.39607 2.82221C5.37891 2.81456 5.36712 2.8479 5.36362 2.85025C5.30781 2.88595 5.3549 2.81416 5.3526 2.80791C5.33326 2.76045 5.2534 2.78474 5.29788 2.68841C5.12926 2.5835 5.0276 2.40628 4.82363 2.33342C4.82112 2.33243 4.79497 2.36546 4.79007 2.36335C4.73078 2.33809 4.78459 2.29966 4.81209 2.21498C4.81902 2.19373 4.72987 2.24083 4.72298 2.24392C4.69773 2.25549 4.6612 2.307 4.65532 2.30826C4.60813 2.31716 4.75617 2.17369 4.73005 2.14775C4.72899 2.14718 4.70573 2.17754 4.70089 2.17806C4.68576 2.17975 4.68962 2.16236 4.67377 2.16504C4.63726 2.17141 4.56133 2.23717 4.57897 2.17259C4.58134 2.16429 4.66812 2.08569 4.64094 2.06651C4.63005 2.05896 4.59017 2.0166 4.57328 2.01052C4.55641 2.00446 4.53781 2.03907 4.53584 2.03942C4.46968 2.04399 4.46693 2.07034 4.39944 2.1073C4.33215 2.14407 4.45979 2.02382 4.46718 2.00362C4.47451 1.98342 4.42278 1.99006 4.40712 1.99467C4.39146 1.99929 4.38162 2.02323 4.37095 2.02406C4.30073 2.02897 4.41757 1.94783 4.42619 1.91725C4.44667 1.84491 4.33532 1.91765 4.30281 1.90355C4.29402 1.89972 4.31998 1.88374 4.31623 1.87617C4.30109 1.84647 4.25911 1.8621 4.25939 1.81037C4.25944 1.80194 4.29318 1.72566 4.2396 1.75353C4.23191 1.75759 4.21475 1.78609 4.20002 1.78188C4.17798 1.77561 4.14707 1.75548 4.13903 1.73266C4.13308 1.71577 4.18337 1.69015 4.15733 1.68805C4.14573 1.68715 4.13601 1.72115 4.11605 1.7176C4.09616 1.7141 4.06639 1.68361 4.05537 1.67159C4.04437 1.65955 4.07878 1.63644 4.07971 1.63356C4.08475 1.61675 4.07555 1.58103 4.07351 1.57916C3.97557 1.47926 3.83504 1.44192 3.74868 1.33489C3.74185 1.32654 3.7755 1.29933 3.77475 1.29772C3.75922 1.26007 3.70556 1.36414 3.66147 1.3759C3.72153 1.31336 3.69978 1.31506 3.68662 1.29095C3.68032 1.27928 3.70745 1.25844 3.70885 1.25511C3.72833 1.2045 3.67545 1.24579 3.6642 1.25386C3.62274 1.28348 3.65074 1.23039 3.62285 1.25008C3.59519 1.26966 3.57794 1.31899 3.55971 1.30259C3.57456 1.2745 3.64116 1.22479 3.63532 1.20255C3.61657 1.12921 3.50257 1.09144 3.44229 1.06465C3.43355 1.06066 3.42583 1.05685 3.41957 1.05307C3.36907 1.02283 3.35737 1.00776 3.3232 0.997239C3.26168 0.979109 3.31442 0.942581 3.29767 0.898108C3.28029 0.853595 3.21501 0.987833 3.19298 1.01139C3.17129 1.03518 3.18448 1.00472 3.16959 1.0159C3.15478 1.02713 3.15451 1.05269 3.13851 1.05017C3.1228 1.04776 3.11793 0.977948 3.13082 0.946893C3.15804 0.880943 3.21322 0.827944 3.16413 0.828459C3.1613 0.828547 3.14773 0.865806 3.13793 0.864472C3.06094 0.852919 2.99592 0.818315 2.92088 0.808217C2.91061 0.806929 2.89784 0.849167 2.89166 0.848871C2.82738 0.846165 2.87977 0.791376 2.88798 0.704335C2.84498 0.803557 2.79927 0.854055 2.75994 0.835047C2.73612 0.823638 2.76115 0.78349 2.76034 0.746082C2.76009 0.734796 2.72896 0.755615 2.73555 0.734197C2.75683 0.664071 2.80847 0.598844 2.75205 0.607669C2.74954 0.608173 2.73841 0.64678 2.73099 0.64591C2.68332 0.640775 2.71032 0.569765 2.66872 0.540711C2.63611 0.517927 2.55409 0.532327 2.51075 0.522186C2.46407 0.634096 2.43758 0.592779 2.45394 0.509092C2.4263 0.50135 2.39951 0.485369 2.36968 0.485914C2.35943 0.486071 2.35222 0.520996 2.3497 0.524078C2.31089 0.572684 2.32942 0.49257 2.32481 0.487339C2.27397 0.434154 2.2018 0.472897 2.16295 0.394706C2.16161 0.391916 2.18669 0.311388 2.14977 0.363488C2.14733 0.36712 2.15411 0.41026 2.12499 0.402983C2.09579 0.395669 2.02822 0.419907 2.00168 0.369809C1.99536 0.35775 1.99266 0.284724 1.95648 0.329084C1.95163 0.335129 1.9469 0.359006 1.939 0.370563C1.91375 0.407367 1.93354 0.324258 1.89723 0.388541C1.86103 0.452865 1.81583 0.495215 1.79179 0.435523C1.79098 0.433754 1.80172 0.366425 1.78882 0.363593C1.76832 0.359154 1.7361 0.364148 1.71564 0.357667C1.70573 0.354503 1.72393 0.31618 1.72242 0.314934C1.66139 0.272601 1.60317 0.295072 1.5267 0.291655C1.51272 0.291116 1.48884 0.22592 1.4517 0.263258C1.41151 0.304302 1.39115 0.510967 1.33973 0.448204C1.31942 0.423247 1.34392 0.160927 1.26722 0.282669C1.18233 0.230104 1.08535 0.282108 1.00103 0.221016C0.997742 0.218655 0.995444 0.16228 0.988236 0.147434C0.988524 0.145397 0.987418 0.144076 0.986153 0.143984C0.971716 0.143076 0.95762 0.175066 0.946813 0.175287C0.90137 0.176993 0.86807 0.139777 0.825652 0.134824C0.809527 0.132855 0.807227 0.168432 0.78795 0.166061C0.768721 0.163671 0.766402 0.115572 0.73591 0.131715C0.712785 0.144067 0.673627 0.232489 0.647085 0.238361C0.664766 0.146617 0.647123 0.14481 0.620106 0.114887C0.614869 0.109095 0.627085 0.078224 0.624869 0.0738271C0.615753 0.0551894 0.600234 0.0799333 0.591692 0.0601309C0.58958 0.0553672 0.594299 0.0237997 0.592761 0.0181174C0.579386 -0.0315831 0.536019 0.0354534 0.529667 0.0474299C0.517249 0.0684416 0.50977 0.0704639 0.503115 0.0683912C0.495615 0.0660492 0.489231 0.0584399 0.479923 0.0677709C0.462752 0.0853968 0.48481 0.110205 0.465946 0.120402C0.427466 0.141539 0.38077 0.136208 0.342856 0.139149C0.327804 0.140118 0.336346 0.0971509 0.334158 0.0963005C0.301256 0.0868038 0.272893 0.134376 0.247972 0.051315C0.244798 0.27189 0.226707 0.0315944 0.184393 0.0802205C0.181082 0.0841583 0.188123 0.187765 0.203071 0.201476C0.217919 0.215189 0.235013 0.180874 0.255501 0.202955C0.260632 0.208069 0.292316 0.30313 0.295567 0.308847C0.322942 0.353122 0.31775 0.198262 0.318899 0.18964C0.330538 0.0969037 0.365773 0.200622 0.372835 0.207826C0.408283 0.240408 0.437588 0.219402 0.464402 0.244806C0.47596 0.2558 0.476736 0.304739 0.479509 0.33539C0.480933 0.350661 0.482873 0.361416 0.487166 0.360805C0.528791 0.354899 0.570764 0.218139 0.594359 0.347325C0.599382 0.374992 0.567967 0.481818 0.619421 0.403149C0.622424 0.398119 0.665733 0.325605 0.670909 0.378504C0.671518 0.385161 0.664485 0.416742 0.66649 0.419969C0.680091 0.44099 0.697574 0.418521 0.714666 0.435068C0.731739 0.451612 0.752208 0.47518 0.778754 0.469856C0.794755 0.46671 0.826571 0.411937 0.836656 0.398995C0.865195 0.361641 0.87301 0.434363 0.895792 0.386352C0.918124 0.337968 0.909416 0.256303 0.947239 0.229474C0.932932 0.312318 0.919967 0.397668 0.906758 0.481196C0.914834 0.482372 0.922953 0.48325 0.931198 0.4839C0.995384 0.4865 1.05585 0.475005 1.11183 0.489127C1.11968 0.491191 1.10303 0.534005 1.11116 0.537357C1.14468 0.551176 1.18302 0.526185 1.21668 0.546631C1.24324 0.562749 1.26369 0.61646 1.29039 0.635164C1.33104 0.545896 1.36735 0.588308 1.40211 0.588132C1.41405 0.588046 1.41968 0.562972 1.42981 0.556926C1.46802 0.534816 1.43232 0.613381 1.4372 0.628479C1.45808 0.693052 1.51063 0.507913 1.55229 0.524311C1.55456 0.525117 1.5546 0.631622 1.55632 0.638762C1.56852 0.685513 1.56995 0.605517 1.5869 0.602468C1.61781 0.596922 1.64424 0.579108 1.66739 0.617375C1.67422 0.628699 1.67778 0.696539 1.71033 0.654835C1.71462 0.64938 1.72327 0.616574 1.72577 0.615266C1.77018 0.594362 1.73939 0.696393 1.74795 0.736928C1.75655 0.777476 1.80888 0.717155 1.82176 0.699083C1.85496 0.652263 1.81665 0.672762 1.81745 0.667381C1.82688 0.603137 1.84574 0.620817 1.86452 0.621319C1.89964 0.522916 1.92199 0.53694 1.88388 0.622259C1.87969 0.631566 1.86945 0.617914 1.86452 0.621319C1.84756 0.723617 1.86855 0.744414 1.92816 0.66358C1.95617 0.625744 1.96036 0.571776 1.99551 0.604226C2.01136 0.61891 1.98039 0.684259 1.99014 0.708479C2.01227 0.763698 2.08302 0.718039 2.11767 0.742339C2.13015 0.751123 2.10286 0.782922 2.11085 0.790177C2.1319 0.80952 2.16439 0.790339 2.18384 0.814156C2.18557 0.816356 2.16513 0.852609 2.17262 0.856098C2.229 0.883298 2.28936 0.87932 2.34982 0.904158C2.3791 0.916165 2.42145 0.959442 2.45284 0.968603C2.50701 0.98445 2.59559 0.959908 2.63267 0.994341C2.65666 1.01651 2.63223 1.05046 2.6316 1.08151C2.63003 1.14149 2.71388 1.07498 2.72671 1.06468C2.72712 1.06432 2.70766 1.04333 2.73013 1.03112C2.7579 0.995853 2.72655 1.06439 2.72671 1.06468C2.73487 1.05785 2.78661 1.07461 2.79208 1.08664C2.79514 1.09318 2.77369 1.12598 2.77561 1.12873C2.82113 1.19317 2.87552 1.23595 2.94412 1.25699C2.94557 1.25696 2.96702 1.21887 2.97017 1.21928C3.01557 1.22468 3.00815 1.28358 3.01775 1.32812C3.02702 1.37249 3.05272 1.37757 3.11211 1.32784C3.12638 1.34957 3.17421 1.34386 3.20255 1.34038C3.21545 1.33875 3.21206 1.3522 3.20447 1.36743C3.19569 1.38584 3.18089 1.40678 3.18112 1.40813C3.19353 1.48652 3.25025 1.46991 3.30307 1.50407C3.32796 1.5199 3.36508 1.5677 3.383 1.59562C3.39719 1.61784 3.4219 1.61298 3.43125 1.6382C3.43253 1.64159 3.40507 1.66785 3.40484 1.66959C3.39432 1.72071 3.44626 1.64313 3.46126 1.63433C3.5158 1.60236 3.54641 1.5867 3.55301 1.63063C3.55472 1.64086 3.48215 1.75485 3.48732 1.77007C3.49428 1.78974 3.52127 1.74973 3.5278 1.77133C3.52839 1.77315 3.50826 1.79468 3.51796 1.80178C3.56247 1.83485 3.61871 1.8637 3.65892 1.90563C3.6645 1.91128 3.62505 1.93833 3.63257 1.94705C3.66779 1.98786 3.71172 2.02737 3.76476 2.04804C3.77795 2.05305 3.79478 2.02383 3.80355 2.01879C3.85684 1.98848 3.81529 2.06711 3.81706 2.07109C3.85791 2.16774 3.9652 2.16461 4.01037 2.26074C4.01273 2.2661 3.97811 2.36057 4.04657 2.31781C4.05114 2.31498 4.12077 2.27082 4.09377 2.32138C4.09207 2.32454 4.0548 2.34586 4.07204 2.35698C4.08927 2.3681 4.09289 2.41056 4.14455 2.39776C4.16086 2.39378 4.23197 2.35139 4.20564 2.41527C4.20372 2.41964 4.13078 2.55078 4.21123 2.49017C4.22445 2.48017 4.29697 2.40353 4.28113 2.46398C4.27802 2.47566 4.2537 2.48469 4.25461 2.50627C4.25592 2.53945 4.29862 2.54198 4.28672 2.59632C4.28455 2.60587 4.25007 2.67247 4.30096 2.64636C4.30893 2.64227 4.32991 2.61349 4.33937 2.6173C4.38437 2.63518 4.4015 2.68514 4.45103 2.69961C4.46853 2.70479 4.50247 2.65833 4.52523 2.65928C4.54799 2.66024 4.5825 2.67346 4.57691 2.70434C4.57136 2.73528 4.49418 2.78676 4.50815 2.8105C4.56912 2.91383 4.68964 2.95572 4.78092 3.03008C4.79444 3.04107 4.76177 3.05505 4.78014 3.07293C4.84784 3.13943 4.95297 3.27416 5.06375 3.27697C5.15113 3.27834 5.11311 3.19137 5.16706 3.20733C5.19301 3.21508 5.14681 3.31362 5.14954 3.32013C5.1752 3.38458 5.23728 3.37403 5.27298 3.41911C5.28032 3.42838 5.24558 3.45573 5.25219 3.46329C5.27399 3.48877 5.31424 3.4958 5.33881 3.51606C5.33936 3.51652 5.33991 3.51698 5.34044 3.51746C5.35093 3.52687 5.33009 3.55214 5.34218 3.5575C5.37089 3.5706 5.4014 3.57481 5.4434 3.56612C5.4472 3.5653 5.45462 3.52138 5.47424 3.5327C5.50604 3.55117 5.55983 3.5502 5.57852 3.59891C5.58397 3.61344 5.54485 3.67705 5.59497 3.64756C5.60547 3.64139 5.64646 3.56143 5.63219 3.64358C5.62958 3.65714 5.62098 3.77414 5.67793 3.72952C5.69292 3.71781 5.74492 3.66334 5.75181 3.68067C5.75263 3.68328 5.72546 3.71385 5.73418 3.72345C5.7653 3.75664 5.80758 3.77558 5.84081 3.80809C5.84969 3.81685 5.81406 3.84466 5.82803 3.8566C5.86645 3.88953 5.92667 3.90926 5.97533 3.91939C5.99338 3.92309 5.99796 3.88688 6.00081 3.88414C6.04661 3.83916 6.02057 3.9179 6.02468 3.92531C6.0505 3.97018 6.09662 3.94968 6.1277 3.97574C6.13636 3.98284 6.11266 4.01493 6.11312 4.01901C6.11903 4.05951 6.13378 3.98875 6.14995 3.98778C6.1954 3.98488 6.23389 4.0059 6.2685 4.02674C6.28119 4.03444 6.24763 4.06922 6.25931 4.07568C6.32839 4.11478 6.40558 4.14239 6.4857 4.14734C6.50079 4.14817 6.5053 4.11236 6.51102 4.10604C6.55046 4.06162 6.55048 4.14337 6.55446 4.15268C6.57202 4.19496 6.59468 4.17049 6.61852 4.18559C6.73601 4.26052 6.90191 4.29472 7.02748 4.3196C7.19128 4.35236 7.32273 4.35341 7.47288 4.39894C7.48241 4.40176 7.46173 4.4446 7.46985 4.44762C7.57561 4.48466 7.68666 4.49044 7.79299 4.52534C7.80175 4.52812 7.7802 4.56878 7.79404 4.57471C7.82236 4.58717 7.86068 4.59209 7.89325 4.58383C7.90906 4.57987 7.89645 4.53906 7.91218 4.53582C7.94877 4.52818 7.98575 4.53161 8.01966 4.54463C8.0341 4.55026 8.00383 4.5908 8.02326 4.59467C8.15484 4.62173 8.28562 4.64898 8.42687 4.60807C8.43658 4.60526 8.45599 4.51536 8.47317 4.53519C8.47153 4.5606 8.4678 4.59028 8.46513 4.61734C8.6566 4.65558 8.8512 4.64162 9.04472 4.64916C9.0529 4.64949 9.03566 4.69703 9.05152 4.69791C9.14342 4.703 9.23216 4.72094 9.32779 4.67625C9.33724 4.67187 9.33563 4.58637 9.3623 4.60023C9.36699 4.60277 9.40755 4.61548 9.41765 4.6343C9.41902 4.63714 9.41032 4.67677 9.42359 4.67831C9.50065 4.68659 9.58182 4.67893 9.65878 4.65513C9.67118 4.65121 9.65832 4.60866 9.66712 4.6055C9.7294 4.5834 9.79748 4.61551 9.85646 4.57635C9.8959 4.54996 9.88031 4.47674 9.90017 4.40423C9.90297 4.39401 9.9272 4.39201 9.92773 4.34996C9.9291 4.24425 9.91566 4.12873 9.91852 4.01603C9.91911 3.99176 9.95089 4.01733 9.9313 3.95904C9.92993 3.95514 9.90698 3.93606 9.90115 3.91625C9.89709 3.90256 9.90338 3.85972 9.89528 3.84223C9.88722 3.82476 9.87909 3.86071 9.86586 3.84018C9.85267 3.81939 9.85781 3.77073 9.83209 3.76521ZM3.33474 1.33059C3.37659 1.31198 3.28425 1.42965 3.28985 1.38809C3.29023 1.38594 3.33265 1.33147 3.33474 1.33059ZM1.06805 0.362638C1.10675 0.302461 1.10646 0.401108 1.07928 0.447904C1.05243 0.494741 1.05657 0.380939 1.06805 0.362638ZM0.788001 0.260905C0.831334 0.217395 0.790128 0.425484 0.764818 0.375811C0.763346 0.372993 0.785465 0.263426 0.788001 0.260905ZM9.80363 4.38463C9.80392 4.38264 9.82127 4.38059 9.8217 4.38256C9.83133 4.42999 9.79648 4.43406 9.80363 4.38463ZM0.524867 0.156707C0.538017 0.129259 0.561648 0.165944 0.544804 0.19964C0.531804 0.226735 0.509263 0.190832 0.524867 0.156707ZM4.251 1.95498C4.2528 1.95362 4.26299 1.96083 4.25398 1.96964C4.22493 1.99797 4.22075 1.9778 4.251 1.95498ZM0.0542168 0.176825C0.123386 0.159415 0.146078 -0.0198061 0.069491 0.0099298C0.055775 0.0153345 0.107348 0.0613192 0.0913236 0.0793364C0.0623066 0.112142 0.0257054 0.00615071 0.000270507 0.0691152C-0.00429469 0.0806271 0.0503275 0.178196 0.0543755 0.17705C0.0543223 0.176975 0.0542691 0.1769 0.0542168 0.176825ZM3.45739 1.1988C3.45896 1.19752 3.47328 1.2068 3.47235 1.20858C3.44931 1.25106 3.42068 1.23258 3.45739 1.1988ZM4.82763 2.39458C4.83126 2.39225 4.86222 2.41697 4.86042 2.42062C4.82099 2.49063 4.75805 2.44065 4.82763 2.39458ZM2.50885 0.524892C2.51002 0.473501 2.49093 0.45942 2.45404 0.509068C2.47264 0.513324 2.49022 0.520184 2.50885 0.524892Z" fill="#963076"/>
</svg>
