<svg width="30" height="15" viewBox="0 0 30 15" fill="none" xmlns="http://www.w3.org/2000/svg">
<path d="M29.3765 6.53136C29.0678 6.21169 28.629 5.84884 28.289 5.58907C28.1809 5.5063 28.2172 5.57123 28.1428 5.51617C27.9956 5.40722 27.8754 5.29207 27.7282 5.18865C27.6791 5.15433 27.7102 5.23347 27.6599 5.19724C27.3846 4.99884 27.1397 4.7917 26.8635 4.58822C26.2086 4.10624 25.554 3.63518 24.8953 3.16956C24.1768 2.66348 23.4269 2.18457 22.5955 1.81163C22.0687 1.56886 21.3772 1.392 20.8192 1.23865C20.7541 1.21986 20.8024 1.19423 20.7907 1.18808C20.714 1.14829 20.6778 1.14065 20.652 1.14357C20.6158 1.14752 20.5999 1.17185 20.5244 1.15814C20.0093 1.0643 19.4471 0.91864 18.9646 0.775583C18.759 0.71452 18.9855 0.699036 18.7666 0.683324C18.7514 0.682148 18.794 0.733967 18.736 0.722869C18.6058 0.697949 18.362 0.625913 18.2622 0.602659C18.0681 0.557561 18.037 0.548917 17.8543 0.501152C17.6058 0.436616 17.3034 0.377497 17.0386 0.300723C16.9812 0.284023 17.0673 0.264547 16.9775 0.234646C16.8879 0.204681 16.6437 0.14724 16.5603 0.13698C16.4743 0.125941 16.5029 0.16532 16.4865 0.168792C16.3538 0.198837 16.0876 0.0529245 16.0488 0.0441577C16.0115 0.0345853 15.9707 0.0249983 15.9339 0.017067C15.8809 0.00670899 15.8346 -0.00130375 15.7671 0.000190784C15.709 0.00750561 15.5576 -0.00257281 15.4653 0.195695C15.4141 0.516202 15.5266 0.521461 15.5632 0.61458C15.6627 0.757775 15.7684 0.867824 15.8726 0.975232C16.0823 1.18833 16.2966 1.38092 16.5061 1.59146C16.6603 1.7481 16.8398 1.92973 16.9345 2.07605C16.9388 2.08772 16.892 2.00823 16.9503 1.92526C17.0006 1.86834 16.9988 1.88886 16.9862 1.88773C16.9587 1.89438 16.9003 1.89878 16.8468 1.89905C16.7342 1.8999 16.6145 1.89142 16.4984 1.88232C15.9706 1.83672 15.5089 1.78258 14.9835 1.7074C14.9279 1.69942 14.9995 1.66161 14.9317 1.65182C14.7729 1.62903 14.6136 1.60756 14.453 1.58948C14.3993 1.58477 14.3457 1.57644 14.2507 1.59488C14.2046 1.60557 14.1294 1.62717 14.0621 1.70355C13.9943 1.78193 13.9839 1.87288 13.9835 1.91968C13.9983 2.09369 14.0088 2.13859 14.012 2.09307C13.9713 2.3219 13.6209 2.42344 13.2442 2.43671C13.177 2.43965 13.2641 2.48165 13.1958 2.48674C12.7731 2.52025 12.0638 2.47551 11.8402 2.2512C11.5459 2.20472 11.1849 2.14231 10.9114 2.13338C10.734 2.12785 10.896 2.19944 10.686 2.147C10.6388 2.13556 10.7068 2.10576 10.6356 2.09172C10.5416 2.07346 10.444 2.05866 10.346 2.04699C10.2234 2.03595 10.0949 2.01928 9.92549 2.08699C9.72557 2.15187 9.66071 2.44474 9.69083 2.56076C9.69822 2.62116 9.67926 2.6258 9.66814 2.63595C9.66465 2.63891 9.66209 2.64216 9.66172 2.64716C9.66415 2.8441 9.72767 2.83599 9.70525 2.90202C9.69679 2.92393 9.68338 2.94759 9.66719 2.97071C9.47333 3.23183 9.2577 3.3849 8.98613 3.55502C8.91588 3.59791 8.9744 3.5072 8.90622 3.54626C8.55165 3.74803 8.15268 3.90676 7.76327 4.03806C7.67635 4.06723 7.76827 4.08377 7.72719 4.09963C7.54442 4.16785 7.48432 4.10323 7.30699 4.15877C7.26934 4.17017 7.29804 4.19955 7.2918 4.20475C7.19347 4.28641 7.0807 4.22072 7.05233 4.22392C6.68934 4.26158 6.4674 4.37771 6.11049 4.39846C6.06802 4.40061 6.15959 4.34859 6.04045 4.35715C5.24543 4.41533 4.39924 4.4149 3.59534 4.46457C3.46656 4.47395 3.55965 4.50403 3.55149 4.50833C3.42807 4.57578 3.33964 4.49657 3.29489 4.49695C3.26534 4.49731 3.23717 4.49865 3.21038 4.50083C2.92656 4.52416 2.6674 4.59085 2.46865 4.50406C1.77644 4.55267 1.19051 4.44408 0.404918 4.36943C0.300773 4.39091 0.22757 4.38512 0.0866676 4.48358C0.00297368 4.52168 -0.0291072 4.74537 0.0309049 4.8024C0.0748111 4.87432 0.1128 4.90332 0.156955 4.94011C0.313061 5.05896 0.469205 5.12959 0.622813 5.19971C0.933024 5.33671 1.2484 5.44541 1.56752 5.54226C1.58406 5.54736 1.5701 5.49735 1.60258 5.50752C1.99545 5.6285 1.89942 5.66153 2.12846 5.82845C2.18671 5.87055 2.41493 5.849 2.43459 5.84835C2.50663 5.84607 2.46143 5.7642 2.48433 5.76689C2.6727 5.79087 2.5765 5.97569 2.81316 6.05765C2.82064 6.05987 2.8021 6.01332 2.82309 6.01659C2.88826 6.02657 2.94583 6.06237 3.00995 6.07065C3.15832 6.08981 3.2384 6.01134 3.43223 6.13989C3.45643 6.1563 3.37672 6.25225 3.59015 6.32052C3.67551 6.34735 4.04574 6.48034 4.14862 6.51197C4.25412 6.54376 4.19699 6.48189 4.20502 6.48316C4.45367 6.53362 4.42181 6.50103 4.50625 6.48134C4.52119 6.47866 4.53956 6.47657 4.56344 6.4756C4.72831 6.46761 4.62169 6.61168 4.67143 6.65384C4.72101 6.69623 4.94103 6.73772 4.99637 6.74272C5.05164 6.74818 4.99736 6.70228 5.04488 6.71142C5.3594 6.77119 5.14529 6.8411 5.23369 6.90303C5.4428 7.04877 5.66608 6.98983 5.88072 7.0562C5.93869 7.07419 5.88203 7.08458 5.93149 7.10612C6.12676 7.1916 6.26206 7.20026 6.46895 7.33062C6.50366 7.35202 6.64603 7.50197 6.78185 7.50776C6.8014 7.50855 6.77126 7.45637 6.85449 7.49138C6.87937 7.50195 6.90824 7.51506 6.93873 7.52983C7.05954 7.5865 7.20421 7.68894 7.28057 7.77317C7.35018 7.85091 7.22912 7.80597 7.33048 7.88551C7.37469 7.92263 7.32545 7.82199 7.40712 7.8958C7.49322 7.96673 7.64117 8.20901 7.67025 8.31185C7.70441 8.41215 7.64612 8.36961 7.64667 8.3787C7.64685 8.3985 7.65207 8.43809 7.6552 8.48023C7.65889 8.53917 7.64989 8.61799 7.64998 8.62878C7.65092 8.78045 7.61593 8.95698 7.69221 9.15608C8.09677 10.0143 9.07544 9.90159 9.7867 9.85735C9.85801 9.85119 9.81539 9.89885 9.82632 9.89835C10.076 9.88696 9.86798 9.79718 10.0342 9.73895C10.0245 9.79635 10.0642 9.80411 10.1329 9.80319C10.1737 9.80312 10.2255 9.798 10.2713 9.80831C10.3274 9.82597 10.2832 9.8507 10.2883 9.85507C10.2962 9.90321 10.3616 9.92065 10.3843 9.94117C10.453 9.99612 10.4023 10.0917 10.4372 10.1414C10.44 10.1455 10.4428 10.1486 10.4456 10.1509C10.4565 10.159 10.4679 10.1545 10.4785 10.1497C10.4894 10.1446 10.4993 10.1392 10.507 10.1487C10.5145 10.1573 10.52 10.1811 10.5195 10.2324C10.4881 10.278 10.4084 10.1573 10.3936 10.2792C10.3357 10.7221 10.272 11.5794 10.369 12.0026C10.372 12.0172 10.3752 12.031 10.3783 12.044C10.4854 12.4494 10.6944 12.5502 10.9211 12.5944C11.0416 12.6122 11.1137 12.6107 11.1627 12.6162C11.2907 12.6254 11.2645 12.6666 11.4571 12.666C11.7231 12.6544 11.569 12.5262 11.6003 12.4895C11.6291 12.4518 11.6726 12.4764 11.7119 12.4497C11.7502 12.423 11.6547 12.4228 11.7516 12.3936C11.848 12.3664 12.1316 12.3393 12.177 12.3582C12.2727 12.4003 12.1751 12.5128 12.4278 12.398C12.4422 12.3913 12.3809 12.3716 12.4366 12.3478C12.8792 12.1611 13.3324 11.9653 13.7923 11.8575C13.8558 11.8433 13.7914 11.8099 13.8289 11.8013C14.0417 11.7563 14.1041 11.7788 14.1439 11.8069C14.1762 11.8339 14.1928 11.8705 14.2022 11.936C14.2414 11.825 14.4255 11.88 14.4784 12.2003C14.5089 12.3839 14.4551 12.3586 14.4351 12.4784C14.429 12.5144 14.4717 12.6387 14.4512 12.6642C14.3841 12.7454 14.2962 12.6306 14.3475 12.9371C14.3498 12.9506 14.3868 12.9049 14.392 12.9518C14.4225 13.226 14.3642 13.2855 14.3651 13.5407C14.3657 13.5726 14.368 13.6062 14.373 13.6417C14.3898 13.7849 14.4802 14.0224 14.688 14.1455C14.8917 14.2689 15.1125 14.2643 15.2678 14.2573C15.2612 14.1404 15.5334 14.1435 15.6658 14.1956C15.8577 14.1514 16.0606 14.0932 16.2329 14.0196C16.2921 13.9943 16.2404 13.9755 16.2468 13.9692C16.3422 13.8714 16.4479 13.9168 16.4882 13.9043C16.86 13.7854 17.1374 13.6046 17.4701 13.4871C17.5209 13.4696 17.5769 13.4522 17.6325 13.4378C17.6471 13.4342 17.701 13.5026 17.7828 13.4027C17.7883 13.396 17.645 13.4128 17.8271 13.3357C18.0105 13.2579 18.3471 13.0801 18.6209 13.0202C18.6874 13.0054 18.8704 13.0106 18.98 12.9137C18.9945 12.9006 18.9675 12.8848 18.9876 12.8631C19.0528 12.7936 19.1253 12.8578 19.1944 12.7557C19.2637 12.6535 19.4403 12.5319 19.7212 12.4834C19.73 12.4817 19.8155 12.5226 19.898 12.4916C20.0298 12.4421 20.2131 12.3607 20.3512 12.3107C20.4172 12.2869 20.3894 12.3416 20.4011 12.3382C20.8543 12.1971 21.1572 12.0461 21.6233 11.8446C21.7094 11.8074 21.9787 11.7602 22.1264 11.6468C22.2871 11.5211 22.0244 11.419 22.4449 11.2745C22.5034 11.2534 22.5816 11.2545 22.6645 11.2533C22.8271 11.2465 23.016 11.235 23.1644 11.0573C23.7123 10.8039 24.1889 10.503 24.7471 10.2795C24.7803 10.2662 24.8133 10.2533 24.8468 10.2406C24.8739 10.2303 24.9872 10.2577 25.048 10.2281C25.1383 10.1839 25.1735 10.1297 25.2376 10.0969C25.5047 9.95901 25.7655 9.86554 26.0215 9.72882C26.1187 9.6766 26.0683 9.6634 26.1832 9.60029C26.2974 9.53685 26.3973 9.5356 26.5399 9.42682C26.6477 9.34374 26.7118 9.19403 26.8494 9.08758C26.8782 9.12429 26.9176 9.12549 26.973 9.10391C27.0241 9.07905 27.092 9.02735 27.1797 8.96168C27.2135 8.93638 27.2032 8.99091 27.2203 8.9801C27.2908 8.93633 27.3252 8.86435 27.3919 8.82204C27.4081 8.81169 27.4316 8.83325 27.4462 8.82589C27.5724 8.76409 27.6626 8.55352 27.6761 8.51765C27.7316 8.37983 27.8047 8.3554 27.8574 8.25905C27.9091 8.163 27.7918 8.27479 27.8599 8.16927C28.0007 7.95084 28.1945 7.68167 28.3313 7.45731C28.3861 7.36794 28.3848 7.45106 28.3935 7.43879C28.5176 7.25808 28.5819 7.04508 28.7124 6.97505C28.6379 6.83825 28.6762 6.82554 28.7404 6.77688C28.7812 6.73893 28.834 6.67817 28.8507 6.54775C28.8537 6.52276 28.7616 6.46717 28.7224 6.55193C28.6982 6.60374 28.6854 6.67741 28.6627 6.75194L28.6665 6.74246C28.6473 6.78754 28.624 6.83371 28.5934 6.87413C28.5752 6.8995 28.4087 7.0068 28.3918 7.02403C28.2632 7.1611 28.3819 7.2612 28.3844 7.27448C28.4066 7.41927 28.2023 7.54615 28.1652 7.58821C27.9964 7.78448 27.8858 7.97316 27.7348 8.12749C27.6358 8.228 27.5485 8.17372 27.4817 8.2585C27.2575 8.53485 27.2675 8.73016 26.9357 8.86934C26.881 8.89095 26.8564 8.81913 26.787 8.8905L26.8099 8.87276C26.7874 8.89183 26.7594 8.9231 26.7217 8.97226C26.7126 8.98572 26.5937 9.15797 26.4702 9.17182C26.4549 9.17352 26.4387 9.14547 26.4215 9.15252C26.3061 9.20006 26.2464 9.26333 26.1208 9.31755C25.9951 9.37173 25.8408 9.43111 25.7054 9.51122C25.6239 9.5595 25.5405 9.6675 25.5061 9.70064C25.4086 9.79545 25.2532 9.79238 25.203 9.87319C25.1519 9.9547 25.3289 9.95786 25.1509 10.079C25.1079 10.0064 25.0548 9.93602 25.0073 9.86493C24.8835 9.92423 24.7607 9.98494 24.6382 10.0462C24.3437 10.1933 24.0535 10.3464 23.7544 10.4925C23.7017 10.5181 23.7352 10.4509 23.6782 10.4774C23.4377 10.5898 23.2464 10.7245 22.9976 10.8415C22.8559 10.9081 22.6955 10.9627 22.5404 11.0256C22.4923 11.0441 22.4378 11.0658 22.3893 11.0864C22.3207 11.2297 22.013 11.3329 21.8018 11.4288C21.728 11.4627 21.7423 11.4845 21.6908 11.5146C21.499 11.6255 21.5616 11.5083 21.501 11.5182C21.2387 11.5604 21.2883 11.7475 20.9977 11.8527C20.9825 11.8583 20.7592 11.8325 20.7314 11.8359C20.5526 11.8579 20.7164 11.8796 20.6167 11.9246C20.4335 12.007 20.3119 12.0776 20.0804 12.1297C20.0131 12.1447 19.8366 12.1407 19.7281 12.2325C19.7139 12.2446 19.7345 12.2731 19.7219 12.2798C19.493 12.3978 19.4502 12.3 19.3006 12.3157C19.1506 12.3317 18.9635 12.478 18.9274 12.5138C18.8328 12.6068 19.0224 12.5041 19.03 12.5071C19.1238 12.5411 18.9652 12.587 18.8488 12.6355C18.8683 12.7395 18.6999 12.7948 18.7279 12.6854C18.7311 12.6734 18.8272 12.6485 18.8488 12.6355C18.7097 12.5773 18.5227 12.6321 18.3554 12.7973C18.2777 12.8748 18.3843 12.8896 18.0933 12.9806C17.9602 13.0229 17.9864 12.9355 17.8633 12.9627C17.6952 12.9998 17.5138 13.0882 17.3364 13.1794C17.221 13.2388 17.1107 13.2984 17.0075 13.3405C16.9122 13.3794 16.9872 13.3023 16.9217 13.3276C16.7471 13.3946 16.6093 13.4875 16.4334 13.543C16.4175 13.5479 16.4394 13.4946 16.3867 13.5154C15.9894 13.6668 15.6325 13.824 15.2492 13.8432C15.1602 13.8467 15.0398 13.8282 14.9766 13.7897C14.9134 13.7525 14.8915 13.7101 14.8661 13.6481C14.8517 13.6111 14.8383 13.5633 14.8294 13.5036C14.7835 13.1639 14.7322 12.7834 14.7166 12.4899C14.7019 12.2538 14.7464 12.2988 14.7582 12.1875C14.7657 12.0784 14.7324 11.9263 14.6244 11.7621C14.5356 11.5791 14.201 11.4794 14.1616 11.5108C14.1578 11.5091 14.2884 11.5215 14.3666 11.5775C14.4404 11.6298 14.4717 11.6682 14.368 11.6055C14.224 11.5723 14.1695 11.5155 14.1616 11.5108C14.1586 11.511 14.1543 11.5112 14.1486 11.5115C14.0791 11.5093 13.6777 11.5658 13.6019 11.5826C13.5566 11.5882 13.5729 11.5446 13.5491 11.5484C12.9896 11.6458 12.5062 11.8548 12.0355 12.0236C12.0274 12.027 12.0533 12.0645 12.034 12.0721C11.7632 12.1776 11.5714 12.1682 11.3577 12.1611C11.2863 12.1581 11.2226 12.1552 11.1659 12.1545C11.0505 12.153 10.9925 12.1612 10.9307 12.1896C10.8605 12.1583 10.771 12.0775 10.726 11.948C10.7245 11.9441 10.7231 11.9402 10.722 11.9364C10.6906 11.8261 10.7719 11.7956 10.7719 11.786C10.8054 11.412 10.7874 11.1635 10.813 10.7194C10.82 10.5838 10.8454 10.3724 10.845 10.137C10.8414 9.99542 10.8349 9.84355 10.7507 9.6754C10.6877 9.5325 10.4941 9.40357 10.3663 9.38972C10.2372 9.36775 10.1603 9.38317 10.101 9.38559C10.0617 9.38829 10.0247 9.39136 9.98864 9.3929C9.96529 9.39397 9.98423 9.35359 9.97698 9.35298C9.78375 9.33088 9.88707 9.41152 9.85009 9.43265C9.72348 9.50752 9.64181 9.55141 9.41521 9.53546C9.36214 9.53205 9.21188 9.40237 9.1267 9.39092C9.01418 9.37595 9.05315 9.42672 8.93748 9.40442C8.92785 9.40223 8.93232 9.37401 8.86347 9.36582C8.53742 9.3272 8.27225 9.20914 8.18389 8.98687C8.17242 8.95965 8.2164 8.9723 8.21657 8.94678C8.21821 8.94697 8.21939 8.94756 8.2197 8.94801C8.20162 8.94462 8.25571 8.74697 8.19655 8.36308C8.14006 8.11808 8.02829 7.91093 7.89842 7.7428C7.82648 7.6528 7.84253 7.73097 7.82015 7.71683C7.68739 7.6337 7.60124 7.43333 7.57339 7.40816C7.44769 7.28421 7.3107 7.18631 7.17054 7.10881C6.70286 6.85426 6.26735 6.73817 5.76769 6.52518C5.7328 6.5101 5.49418 6.32735 5.34979 6.35816C5.34002 6.36014 5.1949 6.39284 5.11274 6.30283C5.10784 6.29723 5.19332 6.28568 5.06802 6.24227C4.96623 6.20673 4.82528 6.1318 4.68645 6.08755C4.64866 6.07472 4.60445 6.06234 4.56489 6.05529C4.50263 6.04482 4.32924 6.06322 4.18405 5.94289C4.17353 5.93395 3.96169 5.70515 3.83206 5.76584C3.8112 5.77599 3.79524 5.8819 3.60876 5.7601C3.57416 5.73705 3.65123 5.73877 3.55527 5.69009C3.40506 5.61428 3.1928 5.57128 3.01668 5.46071C2.98681 5.44159 2.86817 5.32481 2.73815 5.337C2.71767 5.33887 2.73967 5.38385 2.67874 5.36675C2.38903 5.28554 2.10174 5.15838 1.81062 5.07558C1.70888 5.04655 1.7383 5.11853 1.62866 5.0932C1.52112 5.06883 1.30422 4.99933 1.20833 4.93112C1.11439 4.86372 1.26187 4.82761 1.10822 4.75434C0.929153 4.66763 0.743872 4.57916 0.610606 4.49793C0.579121 4.47878 0.550752 4.45869 0.541557 4.45131C0.520698 4.46342 0.593691 4.39059 0.612891 4.71232C0.596214 4.87265 0.486049 4.96139 0.461674 4.97573C0.422881 5.00047 0.420595 4.99642 0.420455 4.99662C0.428332 4.99249 0.45342 4.98451 0.495463 4.97676C0.407224 4.97722 0.558039 4.98063 0.623912 4.99134C0.707279 5.00116 0.796552 5.01246 0.885832 5.02279C1.06517 5.04374 1.2473 5.06154 1.43103 5.07575C1.54929 5.08429 1.44957 5.10961 1.62533 5.12254C2.0669 5.15643 2.72647 5.16142 3.27456 5.08542C3.47703 5.05873 3.71718 5.04591 3.88433 5.02113C4.31198 4.96222 3.77099 4.9245 4.10084 4.89951C4.2574 4.8878 4.432 4.99205 4.47161 4.99494C4.8503 5.02498 5.11426 4.97291 5.45888 4.97192C5.53002 4.97157 5.46228 5.01758 5.52307 5.01672C5.73148 5.01397 5.94806 4.98034 6.14796 4.96604C6.23716 4.95964 6.2238 4.99368 6.30614 4.98304C6.50289 4.95751 6.67621 4.92245 6.86388 4.86364C6.88085 4.85827 6.75735 4.8357 6.90225 4.8124C7.13711 4.77427 7.42136 4.69028 7.6969 4.65358C7.77871 4.64241 7.80127 4.71512 7.95955 4.61705C7.99266 4.59579 7.92153 4.52542 8.14179 4.53799C8.17778 4.54204 8.54989 4.52462 8.68605 4.38979C8.7225 4.35512 8.79859 4.24136 8.89447 4.20682C8.90773 4.20229 8.87547 4.26309 8.95337 4.22875C9.22709 4.10619 9.4972 3.93297 9.74996 3.7391C9.81753 3.68671 9.74677 3.8013 9.84692 3.72059C9.95277 3.63389 10.0618 3.52943 10.1638 3.4132C10.2578 3.30674 10.3794 3.1319 10.4018 2.89979C10.4206 2.66887 10.3541 2.52871 10.3424 2.47554C10.3395 2.46631 10.3374 2.45971 10.336 2.45585C10.3302 2.45074 10.2965 2.45558 10.2927 2.45536C10.2557 2.44431 10.236 2.6386 10.2 2.64773C10.1141 2.69608 10.208 2.66261 10.2781 2.67316C10.3891 2.68043 10.5033 2.68794 10.6246 2.71203C10.6896 2.7249 10.6371 2.75634 10.6496 2.76182C10.7782 2.81694 10.6893 2.73139 10.7761 2.7378C11.0205 2.75619 11.2914 2.81094 11.5408 2.86239C11.6325 2.88132 11.5207 2.90677 11.6032 2.92324C12.0922 3.01985 12.6146 3.11391 13.1548 3.10383C13.2573 3.10068 13.1931 3.06466 13.2144 3.05697C13.3579 3.00462 13.5842 3.06173 13.6434 3.0583C13.8974 3.04744 14.0023 2.99598 14.2487 2.85465C14.437 2.74317 14.6155 2.52115 14.6804 2.29098C14.7485 1.98845 14.6624 1.84622 14.6853 1.92706C14.6851 1.95391 14.6829 2.05212 14.6007 2.15453C14.5176 2.25365 14.4327 2.2735 14.4028 2.28131C14.3389 2.29279 14.3588 2.28509 14.3745 2.28883C14.9864 2.36075 15.6426 2.45887 16.2054 2.51232C16.3849 2.5291 16.5621 2.54298 16.7488 2.544C16.8435 2.54351 16.9385 2.54337 17.068 2.52149C17.141 2.50228 17.2029 2.51249 17.3696 2.39486C17.4543 2.33759 17.5645 2.15969 17.5522 2.00765C17.5441 1.86111 17.5007 1.79795 17.4675 1.74083C16.967 1.11348 16.51 0.809491 16.1257 0.32321C16.096 0.283481 16.1631 0.295196 16.1389 0.260937C16.1222 0.237071 16.1081 0.213854 16.1037 0.204357C16.0951 0.203246 16.1205 0.174409 16.1201 0.338013C16.1247 0.422771 16.0175 0.594124 15.9369 0.627913C15.8494 0.675747 15.8247 0.669132 15.8048 0.673151C15.7784 0.674459 15.7957 0.672861 15.8186 0.677531C16.3074 0.772173 16.8467 0.909836 17.3694 1.05526C17.4259 1.07108 17.3327 1.09227 17.4234 1.11922C17.6083 1.17459 17.8457 1.23487 18.0383 1.27139C18.1328 1.28943 18.018 1.21985 18.113 1.2388C18.3328 1.28245 18.5654 1.34112 18.7859 1.40705C18.8797 1.43521 18.7257 1.4409 18.8481 1.474C19.3851 1.61972 19.9165 1.765 20.4574 1.89235C20.7631 1.96406 21.0572 2.02437 21.3483 2.09322C21.4036 2.10634 21.48 2.03394 21.5905 2.08999C21.591 2.11701 21.5808 2.14515 21.5757 2.17214C22.597 2.53439 23.5492 3.10068 24.4676 3.75664C24.5597 3.82275 24.6498 3.88781 24.7408 3.95411C24.784 3.98555 24.681 3.97012 24.7642 4.0311C25.243 4.3824 25.6966 4.73942 26.2069 5.0721C26.2566 5.10462 26.2857 5.01895 26.4181 5.13797C26.4406 5.15831 26.6454 5.33265 26.6879 5.38996C26.6936 5.39799 26.6305 5.39899 26.6978 5.45349C27.0853 5.76668 27.4998 6.09063 27.8933 6.39336C27.9566 6.44207 27.9196 6.35469 27.9648 6.38904C28.2882 6.63564 28.5956 6.95165 28.8892 7.19029C29.0835 7.3506 29.071 7.23363 29.2163 7.28395C29.2371 7.2904 29.3396 7.4072 29.377 7.38839C29.4738 7.33993 29.5111 7.20256 29.6199 7.1577C29.6446 7.14502 29.7715 7.36167 29.7314 7.20772C29.7265 7.1921 29.6332 7.04663 29.6176 7.0007C29.6088 6.97002 29.6754 6.98073 29.6492 6.92476C29.6213 6.86735 29.5509 6.84382 29.498 6.75949C29.4452 6.67583 29.5104 6.67103 29.3765 6.53136ZM10.6162 11.31C10.5832 11.166 10.7338 11.155 10.6895 11.3044C10.6872 11.3116 10.6178 11.3173 10.6162 11.31ZM24.2313 10.3887C24.0894 10.5303 23.9303 10.5007 24.0283 10.396C24.1267 10.2914 24.2749 10.3456 24.2313 10.3887ZM26.0142 9.58478C25.8425 9.73171 25.7167 9.55749 25.9435 9.48944C25.9566 9.48538 26.0241 9.57622 26.0142 9.58478ZM28.7816 6.81961C28.7851 6.82 28.8694 6.89704 28.8701 6.9006C28.8817 6.9769 28.7126 6.82224 28.7816 6.81961ZM27.5606 8.48438C27.5376 8.55554 27.3795 8.67808 27.4108 8.59143C27.436 8.52283 27.5893 8.39714 27.5606 8.48438ZM5.91191 6.98992C5.90901 6.99117 5.8297 6.96391 5.83564 6.95271C5.85503 6.91654 5.96064 6.96807 5.91191 6.98992ZM28.9685 5.5924C28.8929 6.07164 29.0007 6.39995 29.0849 5.87008C29.0992 5.7744 28.9914 6.06458 28.9987 5.94071C29.0121 5.71499 29.1452 5.58679 29.1256 5.35123C29.122 5.30864 28.9726 5.56503 28.9682 5.59322C28.9683 5.59294 28.9684 5.59267 28.9685 5.5924ZM10.4414 11.2179C10.4394 11.2149 10.4451 11.099 10.4473 11.0964C10.4988 11.0373 10.4874 11.2698 10.4414 11.2179ZM1.29046 5.39192C1.28364 5.39436 1.02939 5.29603 1.02468 5.28915C0.924671 5.16495 1.43057 5.36089 1.29046 5.39192ZM15.2727 14.2539C15.4103 14.298 15.5762 14.2765 15.6652 14.1957C15.5385 14.2258 15.4077 14.2464 15.2727 14.2539Z" fill="#3C8634"/>
</svg>
