<svg width="17" height="11" viewBox="0 0 17 11" fill="none" xmlns="http://www.w3.org/2000/svg">
<path d="M12.5568 0.760995C12.6739 0.825588 12.8405 0.886236 12.971 0.926859C13.012 0.939696 13.0038 0.906513 13.0328 0.914458C13.0883 0.929462 13.1322 0.965053 13.1879 0.978543C13.2067 0.983018 13.204 0.935004 13.2233 0.94059C13.3295 0.971854 13.4162 1.02703 13.519 1.0693C14.0227 1.27696 14.5012 1.52279 14.9751 1.79727C15.1312 1.88782 15.3346 1.97649 15.4741 2.09823C15.4903 2.11239 15.4583 2.13472 15.4598 2.13956C15.4829 2.21399 15.5101 2.14176 15.5496 2.15878C15.6237 2.1905 15.6985 2.23557 15.7626 2.28419C15.8211 2.32729 15.8614 2.37972 15.876 2.42421C15.8864 2.4603 15.8053 2.45778 15.8547 2.47058C15.8581 2.47196 15.8921 2.45052 15.8992 2.45846C15.9164 2.47692 15.9152 2.52185 15.917 2.54275C15.9215 2.58375 15.9198 2.59169 15.9109 2.64038C15.9075 2.65824 15.9043 2.67849 15.9008 2.70153C15.8926 2.75939 15.8819 2.82449 15.8548 2.87891C15.8469 2.89441 15.8173 2.8592 15.8013 2.88212C15.7856 2.9053 15.7608 2.97249 15.7585 2.99922C15.7568 3.02549 15.7897 3.02942 15.7944 3.03647C15.834 3.09673 15.7177 3.13745 15.7106 3.14541C15.5822 3.30621 15.5198 3.47885 15.3958 3.63597C15.3016 3.75448 15.1821 3.86585 15.0837 3.9724C14.9664 4.09942 14.8756 4.21773 14.7475 4.32946C14.7339 4.34128 14.7178 4.29226 14.7013 4.30651C14.5264 4.4572 14.3529 4.60721 14.188 4.77162C14.1716 4.78809 14.2205 4.80306 14.2051 4.8218C14.163 4.87258 14.1121 4.94076 14.0528 4.99019C13.978 5.05239 13.892 5.08708 13.7979 5.03082C13.7213 5.09126 13.6267 5.16232 13.5737 5.23971C13.5386 5.29013 13.6091 5.29849 13.5405 5.31955C13.5251 5.32424 13.5208 5.28017 13.4995 5.28965C13.4084 5.33053 13.3239 5.39825 13.23 5.43188C13.2108 5.43866 13.197 5.40561 13.1888 5.4031C13.122 5.38353 13.0989 5.49736 13.087 5.5118C12.9985 5.61958 12.9067 5.6533 12.801 5.72007C12.7764 5.73565 12.7805 5.6771 12.756 5.69067C12.6293 5.76145 12.501 5.84967 12.3946 5.95712C12.3711 5.98109 12.4199 5.99474 12.4101 6.00777C12.3675 6.06473 12.3071 6.01517 12.2658 6.07227C12.2571 6.08425 12.286 6.10508 12.2866 6.10966C12.296 6.18071 12.2139 6.14155 12.2045 6.14778C12.1146 6.2053 12.0987 6.29556 12.0559 6.37258C12.0447 6.39339 12.0308 6.41348 12.0118 6.43221C12.0014 6.44238 11.9882 6.38923 11.961 6.41966C11.7805 6.62082 11.6181 6.85436 11.4897 7.08792C11.4697 7.12416 11.5136 7.1201 11.5153 7.12459C11.5416 7.19602 11.4568 7.16793 11.4464 7.17668C11.3655 7.24827 11.3654 7.37026 11.2417 7.36894C11.0096 7.75267 10.7103 8.08405 10.5322 8.49755C10.5298 8.50275 10.5699 8.51849 10.5651 8.52877C10.5071 8.65297 10.4688 8.59402 10.3522 8.62177C10.3231 8.62856 10.3627 8.73958 10.365 8.74862C10.3736 8.78159 10.4378 8.79859 10.4377 8.80753C10.4348 8.88047 10.272 8.75367 10.2247 8.82102C10.2235 8.82333 10.2607 8.83627 10.2599 8.84409C10.2572 8.86845 10.2325 8.87739 10.2312 8.90197C10.2284 8.95849 10.3005 9.03014 10.2104 9.05678C10.1989 9.06 10.1116 8.98104 10.0738 9.04411C10.0588 9.06947 9.98251 9.1738 9.96757 9.20791C9.9527 9.24194 9.99787 9.24339 9.9977 9.24644C9.98182 9.35485 10.0201 9.3366 10.0518 9.41934C10.0831 9.502 9.94825 9.38922 9.92072 9.39414C9.89332 9.39898 9.88516 9.4811 9.88647 9.50381C9.88782 9.52648 9.9201 9.52252 9.91754 9.53999C9.89994 9.65527 9.8203 9.52632 9.77779 9.53785C9.67733 9.56482 9.74619 9.69153 9.71313 9.75892C9.70417 9.77715 9.68978 9.74656 9.67708 9.75937C9.67314 9.76338 9.66956 9.76745 9.66627 9.77154C9.62986 9.81598 9.62889 9.86854 9.55647 9.89621C9.54281 9.90223 9.44894 9.88623 9.45899 9.95276C9.46022 9.96257 9.49348 9.97687 9.4767 10.0006C9.45192 10.0364 9.3925 10.0875 9.3473 10.1008C9.31432 10.1106 9.32079 10.0456 9.29337 10.0798C9.28076 10.095 9.32602 10.1063 9.3 10.1328C9.27429 10.16 9.18871 10.1951 9.155 10.2051C9.12154 10.2157 9.12653 10.171 9.12293 10.1694C9.1021 10.1604 9.03424 10.1609 9.02859 10.1623C9.01351 10.1663 8.99841 10.1705 8.98328 10.1747C8.74727 10.2289 8.45519 10.2673 8.17824 10.2292C8.1555 10.2258 8.17376 10.1843 8.17032 10.1834C8.09271 10.1598 8.14703 10.2776 8.08766 10.3112C8.1028 10.2255 8.06701 10.2385 8.01254 10.2244C7.98579 10.2175 8.00341 10.1853 8.00123 10.1817C7.96546 10.1275 7.93051 10.1904 7.92265 10.2032C7.89193 10.2501 7.86826 10.1892 7.84682 10.2204C7.82529 10.2513 7.86322 10.3039 7.80811 10.298C7.79561 10.2656 7.84439 10.1889 7.80379 10.1718C7.65393 10.1077 7.35843 10.1382 7.23263 10.1294C7.10851 10.1211 7.06669 10.11 6.99421 10.1122C6.8607 10.1157 6.91525 10.062 6.83847 10.0243C6.76073 9.98647 6.78104 10.1383 6.76523 10.1683C6.74954 10.1983 6.74111 10.1642 6.72435 10.1796C6.70762 10.1951 6.73614 10.2206 6.70123 10.2226C6.66687 10.2248 6.58282 10.1565 6.57501 10.1219C6.55912 10.0487 6.61001 9.98097 6.51788 9.99481C6.51261 9.99565 6.52385 10.0364 6.50394 10.0377C6.34469 10.0465 6.18226 10.026 6.02401 10.0306C6.00203 10.0313 6.01525 10.0768 6.00238 10.0777C5.86874 10.087 5.9258 10.0213 5.86605 9.93102C5.86715 10.0401 5.81791 10.0998 5.71998 10.0866C5.66116 10.0787 5.67784 10.0335 5.64429 9.99522C5.63424 9.98368 5.58765 10.0097 5.5831 9.98671C5.56815 9.91143 5.61897 9.83678 5.51372 9.85439C5.50908 9.85528 5.51758 9.89654 5.50194 9.89673C5.40065 9.89816 5.39875 9.82136 5.29353 9.79702C5.20996 9.77778 5.05512 9.80221 4.95733 9.79573C4.94212 9.91607 4.85624 9.87566 4.83133 9.7876C4.76842 9.78201 4.70219 9.7677 4.64068 9.77053C4.61947 9.77146 4.62804 9.80817 4.62489 9.81155C4.57647 9.86471 4.56089 9.78028 4.54786 9.77519C4.45967 9.74292 4.37759 9.74815 4.29538 9.73698C4.2467 9.72978 4.19901 9.71676 4.15142 9.68626C4.14717 9.68337 4.15216 9.59888 4.10562 9.65361C4.10259 9.65741 4.14155 9.70262 4.07685 9.69504C4.0114 9.68734 3.88215 9.7111 3.80025 9.65525C3.77992 9.64175 3.74048 9.56414 3.68655 9.60696C3.67923 9.61278 3.68037 9.63777 3.66911 9.64905C3.63278 9.68486 3.63716 9.59855 3.5891 9.66139C3.54093 9.72407 3.45713 9.75962 3.38121 9.68349C3.37875 9.68118 3.37809 9.61028 3.35086 9.60212C3.30676 9.58914 3.24045 9.57896 3.19605 9.55943C3.17484 9.5501 3.20507 9.51745 3.20169 9.51517C3.07199 9.43265 2.96026 9.41311 2.80873 9.34103C2.78056 9.32767 2.73716 9.23355 2.66299 9.23972C2.612 9.24415 2.57114 9.32863 2.52263 9.35979C2.49481 9.37848 2.46318 9.37806 2.4266 9.33257C2.38529 9.2822 2.4665 9.02324 2.30138 9.0755C2.14557 8.93088 1.94556 8.87779 1.79969 8.71882C1.79318 8.71173 1.80953 8.63447 1.79101 8.62284C1.76308 8.60545 1.72869 8.62302 1.70786 8.61129C1.62114 8.56354 1.56309 8.48754 1.48261 8.43677C1.45178 8.4172 1.4422 8.45347 1.40573 8.43033C1.36923 8.40711 1.3723 8.35265 1.31161 8.33739C1.26532 8.32573 1.17526 8.37824 1.12056 8.35324C1.17255 8.27553 1.13874 8.25409 1.09425 8.19253C1.08582 8.18073 1.11657 8.16261 1.11355 8.15565C1.10167 8.12676 1.06611 8.13466 1.05604 8.1052C1.05355 8.09808 1.07172 8.07184 1.07073 8.06455C1.06322 8.00171 0.964566 8.01989 0.947458 8.0231C0.882552 8.03535 0.888902 7.98899 0.849138 7.98375C0.809537 7.97862 0.839028 8.02812 0.798914 8.01362C0.715674 7.98344 0.628739 7.91549 0.557258 7.86657C0.528739 7.8468 0.572701 7.82576 0.569192 7.82212C0.517039 7.77186 0.431583 7.76676 0.448469 7.67465C0.280935 7.82481 0.425467 7.63221 0.31666 7.60877C0.308024 7.60699 0.239541 7.68563 0.255967 7.71599C0.272369 7.74632 0.329464 7.7471 0.350762 7.79136C0.355835 7.8018 0.346981 7.91479 0.350125 7.92424C0.374358 7.99791 0.471245 7.87651 0.47887 7.87148C0.562533 7.81815 0.56011 7.94488 0.571129 7.96157C0.622089 8.03837 0.694254 8.06278 0.739018 8.12348C0.768628 8.16318 0.71372 8.24876 0.745594 8.2675C0.851806 8.33002 0.96842 8.2389 0.992093 8.40593C0.997287 8.44164 0.913236 8.51825 1.03607 8.49798C1.04392 8.49678 1.14374 8.46936 1.14588 8.5326C1.14615 8.54058 1.12743 8.56696 1.13106 8.57283C1.15582 8.61171 1.19321 8.60647 1.22426 8.64331C1.25492 8.67988 1.28998 8.72689 1.33935 8.74799C1.36892 8.76065 1.43728 8.73484 1.45804 8.73131C1.5171 8.72066 1.51575 8.80464 1.56668 8.77734C1.61816 8.7501 1.61988 8.65562 1.69681 8.66833C1.65103 8.73888 1.60677 8.81319 1.56203 8.88505C1.69072 8.97071 1.83062 9.03409 1.95731 9.12481C1.97296 9.13612 1.93124 9.1624 1.94733 9.17546C2.01542 9.23041 2.09644 9.24626 2.16487 9.30742C2.21752 9.35475 2.25552 9.43732 2.31118 9.48807C2.35747 9.45916 2.40039 9.46876 2.43969 9.48874C2.47799 9.50838 2.51381 9.53768 2.54906 9.55473C2.57489 9.56732 2.58701 9.54458 2.60848 9.54804C2.68963 9.56159 2.61505 9.61543 2.62608 9.63785C2.67592 9.73431 2.77988 9.57285 2.87126 9.62892C2.87557 9.6317 2.89078 9.75589 2.89742 9.76622C2.93657 9.83265 2.92313 9.73936 2.96223 9.7503C3.03439 9.76993 3.08967 9.76829 3.1591 9.82803C3.17873 9.84542 3.21591 9.92742 3.27874 9.89587C3.28693 9.89175 3.29408 9.85842 3.2996 9.85813C3.39724 9.85447 3.36946 9.95636 3.41203 10.0056C3.45538 10.0549 3.55239 10.0021 3.57219 9.98468C3.62507 9.94039 3.54613 9.95479 3.54475 9.94879C3.53346 9.88032 3.58669 9.90441 3.63034 9.90823C3.65871 9.80761 3.71481 9.82573 3.67498 9.9124C3.67032 9.92183 3.63998 9.90547 3.63034 9.90823C3.645 10.0163 3.71129 10.0434 3.79932 9.9623C3.84124 9.92433 3.81853 9.86732 3.91517 9.90384C3.95875 9.92016 3.93002 9.98818 3.96614 10.0142C4.04368 10.0689 4.15857 10.0335 4.24821 10.0465C4.2591 10.0479 4.26705 10.0494 4.27475 10.0514C4.3082 10.0601 4.2695 10.0943 4.29216 10.1016C4.35222 10.121 4.41038 10.0995 4.4694 10.1233C4.47482 10.1255 4.45522 10.1643 4.47444 10.1676C4.61953 10.1933 4.74995 10.1854 4.90085 10.2064C4.97539 10.2167 5.10122 10.2578 5.17906 10.2643C5.31157 10.2756 5.48192 10.2394 5.59277 10.2698C5.66505 10.2895 5.64303 10.328 5.67047 10.3602C5.72247 10.4226 5.8454 10.3414 5.8614 10.3284C5.86196 10.328 5.80013 10.3095 5.8368 10.2933C5.86252 10.2524 5.86072 10.3281 5.8614 10.3284C5.87191 10.3201 5.99994 10.3285 6.02396 10.3398C6.03699 10.346 6.02399 10.3836 6.03088 10.3861C6.19474 10.4441 6.36354 10.4773 6.53777 10.4821C6.54091 10.4817 6.54211 10.4378 6.54942 10.4375C6.65108 10.4314 6.70857 10.4929 6.78633 10.5349C6.86379 10.5769 6.93217 10.5748 6.98917 10.5064C7.05097 10.5237 7.14314 10.5016 7.19741 10.4878C7.25163 10.4741 7.24855 10.5593 7.25293 10.5615C7.38726 10.6315 7.47656 10.5926 7.62333 10.6005C7.69508 10.6043 7.83314 10.6303 7.90837 10.6461C7.97 10.6591 8.00522 10.642 8.06221 10.6593C8.06977 10.6616 8.05908 10.6987 8.06131 10.7003C8.12124 10.7503 8.09761 10.6557 8.11179 10.6402C8.16155 10.5835 8.1953 10.5539 8.27202 10.5868C8.29043 10.5944 8.33906 10.7304 8.37274 10.7396C8.41806 10.7514 8.40324 10.7031 8.45029 10.7163C8.45428 10.7174 8.45263 10.7469 8.48168 10.7464C8.62021 10.744 8.7733 10.7287 8.94239 10.712C8.96568 10.7094 8.93983 10.7599 8.97677 10.7562C9.02329 10.7512 9.07486 10.7433 9.13174 10.7283C9.2351 10.7013 9.3536 10.6577 9.45555 10.5928C9.48979 10.5707 9.45278 10.5518 9.45644 10.5394C9.47692 10.465 9.58185 10.5033 9.59485 10.497C9.82275 10.3964 9.93604 10.2164 10.0549 10.0533C10.08 10.0186 10.108 9.98449 10.1413 9.95134C10.1501 9.94288 10.2802 9.91889 10.2409 9.83889C10.2383 9.83353 10.1974 9.75273 10.2636 9.75458C10.2677 9.75471 10.2862 9.8 10.3093 9.76051C10.3322 9.72117 10.3974 9.67744 10.3965 9.60023C10.3962 9.57589 10.3579 9.49137 10.4441 9.48019C10.45 9.47966 10.6205 9.48888 10.5579 9.40468C10.5475 9.39093 10.4582 9.33452 10.5428 9.30841C10.5591 9.3035 10.5643 9.33696 10.5967 9.31654C10.6466 9.28489 10.6644 9.21052 10.7414 9.1826C10.7549 9.17784 10.8419 9.17852 10.8201 9.11492C10.8167 9.10493 10.7811 9.09442 10.7899 9.07495C10.8316 8.98245 10.9105 8.91073 10.9483 8.81399C10.9618 8.77975 10.9046 8.76213 10.9134 8.72291C10.922 8.68393 10.9532 8.61357 10.9967 8.59674C11.0403 8.57977 11.0903 8.6667 11.1297 8.62285C11.3007 8.43294 11.4005 8.19709 11.5393 7.98744C11.5598 7.95642 11.5685 8.00029 11.6008 7.95575C11.7198 7.79152 11.9473 7.52826 11.9959 7.34793C12.0346 7.20356 11.8963 7.31861 11.9419 7.21987C11.9646 7.17161 12.0818 7.19154 12.0922 7.18341C12.1917 7.10799 12.2062 7.01292 12.2841 6.93742C12.3003 6.92172 12.3202 6.96544 12.3336 6.95186C12.3793 6.90612 12.4068 6.84163 12.4483 6.79667C12.4671 6.7765 12.489 6.8012 12.5031 6.78035C12.5081 6.77291 12.513 6.7655 12.5175 6.75808C12.5381 6.72253 12.5522 6.68619 12.5624 6.6383C12.5636 6.63304 12.513 6.62679 12.5384 6.59859C12.5793 6.55348 12.6175 6.47796 12.6953 6.45568C12.7186 6.44916 12.7645 6.50765 12.7707 6.43818C12.7722 6.42369 12.7082 6.35916 12.8 6.388C12.8157 6.39215 12.9524 6.42384 12.9559 6.34137C12.9568 6.3195 12.9444 6.23995 12.9757 6.23364C12.98 6.23305 12.9882 6.27539 13.0108 6.2656C13.0896 6.23086 13.1656 6.17929 13.2506 6.14239C13.2732 6.13273 13.2637 6.18699 13.2967 6.1714C13.388 6.12834 13.4925 6.053 13.5719 5.98898C13.6014 5.96517 13.5613 5.94948 13.5617 5.94487C13.5673 5.87004 13.6317 5.92672 13.6469 5.92295C13.7388 5.89971 13.7772 5.83002 13.8532 5.79356C13.8741 5.78343 13.8814 5.8252 13.8872 5.82567C13.946 5.82843 13.8779 5.78863 13.8994 5.76559C13.9583 5.70157 14.0395 5.65195 14.1133 5.60849C14.1405 5.59253 14.1364 5.64998 14.1606 5.63512C14.2405 5.58653 14.318 5.53403 14.3934 5.47562C14.4552 5.42778 14.5149 5.37556 14.568 5.32183C14.5907 5.29874 14.5536 5.28292 14.5541 5.27253C14.5558 5.20149 14.655 5.22116 14.6712 5.2177C14.7468 5.20085 14.7481 5.16033 14.7999 5.12602C15.051 4.96152 15.3141 4.69628 15.5035 4.48191C15.7508 4.20145 15.9138 3.95787 16.1228 3.6524C16.136 3.63261 16.1623 3.6779 16.1743 3.66096C16.3259 3.44067 16.4354 3.18812 16.5259 2.90289C16.5331 2.87921 16.5668 2.92522 16.5798 2.88688C16.5821 2.88005 16.5844 2.87301 16.5866 2.86582C16.6058 2.80689 16.629 2.69154 16.6199 2.58096C16.6148 2.52258 16.5752 2.59888 16.5702 2.54149C16.5583 2.40796 16.519 2.25045 16.4599 2.12465C16.4343 2.07047 16.5177 2.12901 16.4797 2.05952C16.4011 1.92271 16.307 1.82524 16.2154 1.74722C16.042 1.60109 15.8623 1.48242 15.6616 1.3964C15.6419 1.38798 15.5759 1.45391 15.5497 1.41545C15.5611 1.39245 15.5778 1.36762 15.5916 1.34418C15.2376 1.09259 14.8589 0.907877 14.4846 0.707077C14.4688 0.698616 14.5193 0.671005 14.4888 0.65439C14.3123 0.558373 14.1459 0.454797 13.9412 0.403932C13.9209 0.398859 13.8912 0.479522 13.844 0.440997C13.8358 0.434086 13.7602 0.383087 13.7479 0.356231C13.7463 0.352319 13.7788 0.324026 13.7535 0.310023C13.6048 0.228751 13.4409 0.159296 13.2768 0.109512C13.2499 0.101427 13.2587 0.152359 13.2395 0.146969C13.1054 0.109311 12.9813 0.0181014 12.8434 0.00106404C12.7505 -0.0102669 12.7525 0.0703607 12.6821 0.119239C12.6724 0.126175 12.6204 0.106581 12.6023 0.144649C12.5561 0.239924 12.5361 0.356729 12.4839 0.457094C12.4724 0.478535 12.4197 0.429201 12.4348 0.498438C12.4357 0.50301 12.4744 0.539735 12.4786 0.563029C12.4814 0.579068 12.4506 0.612578 12.4602 0.635624C12.4691 0.658364 12.5001 0.632442 12.5189 0.662836C12.5375 0.693492 12.5071 0.733315 12.5568 0.760995ZM7.43927 10.4255C7.49087 10.3902 7.48128 10.5396 7.43422 10.4983C7.43196 10.4961 7.43661 10.4272 7.43927 10.4255ZM1.8944 8.94071C1.98261 8.92122 1.96383 9.02581 1.89846 9.04284C1.83294 9.05969 1.86756 8.94655 1.8944 8.94071ZM1.39112 8.53298C1.48075 8.53222 1.36864 8.71259 1.32911 8.63262C1.32676 8.62802 1.38588 8.533 1.39112 8.53298ZM12.8721 0.22297C12.871 0.224614 12.8343 0.210673 12.8342 0.208481C12.834 0.15657 12.9074 0.184497 12.8721 0.22297ZM0.898072 8.12184C0.933263 8.11159 0.967384 8.17624 0.923824 8.18914C0.888802 8.19954 0.854313 8.1346 0.898072 8.12184ZM9.77108 9.80336C9.76972 9.80144 9.78428 9.7779 9.79416 9.78573C9.82594 9.81102 9.7941 9.83547 9.77108 9.80336ZM0.0130353 7.4907C0.148565 7.57729 0.329352 7.49088 0.175438 7.4057C0.147563 7.39026 0.198664 7.49076 0.15668 7.48028C0.0798836 7.46098 0.103767 7.34299 0.00822424 7.34737C-0.00913235 7.34826 0.00510186 7.48609 0.0131262 7.49106C0.013096 7.49094 0.013066 7.49082 0.0130353 7.4907ZM7.48633 10.25C7.48738 10.2482 7.5253 10.2505 7.52624 10.2525C7.5416 10.302 7.46468 10.2973 7.48633 10.25ZM10.6241 8.43733C10.6219 8.43312 10.6693 8.35828 10.6741 8.35821C10.7642 8.36478 10.6685 8.51617 10.6241 8.43733ZM4.95538 9.79872C4.92134 9.74557 4.87298 9.73294 4.83153 9.78757C4.87299 9.79031 4.91414 9.79576 4.95538 9.79872Z" fill="#963076"/>
</svg>
