<svg width="14" height="29" viewBox="0 0 14 29" fill="none" xmlns="http://www.w3.org/2000/svg">
<path d="M4.14354 0.180372C4.52852 0.402279 4.98694 0.740006 5.32141 1.00687C5.42793 1.09169 5.35613 1.0722 5.42758 1.131C5.569 1.24745 5.70983 1.33607 5.84588 1.45385C5.89108 1.49317 5.80677 1.48218 5.85411 1.52219C6.11335 1.74116 6.37368 1.92851 6.63808 2.14716C7.26446 2.66556 7.88021 3.18642 8.49168 3.71261C9.15687 4.28687 9.80333 4.89825 10.3667 5.61439C10.73 6.06665 11.0693 6.69458 11.3534 7.19875C11.3874 7.25737 11.4006 7.20429 11.4094 7.21417C11.4665 7.27888 11.4828 7.31223 11.4862 7.33793C11.4911 7.37396 11.4714 7.39536 11.503 7.46524C11.7189 7.9422 11.9966 8.45227 12.2524 8.88571C12.3615 9.07041 12.3215 8.84686 12.3899 9.05543C12.3947 9.06991 12.3341 9.04116 12.3589 9.0947C12.4147 9.21496 12.5437 9.434 12.5904 9.52518C12.6813 9.70261 12.6972 9.73065 12.7878 9.89635C12.9107 10.1217 13.0414 10.4008 13.1801 10.6391C13.2102 10.6907 13.2082 10.6025 13.259 10.6823C13.3098 10.762 13.4248 10.985 13.4549 11.0634C13.4865 11.1441 13.4413 11.1259 13.442 11.1427C13.445 11.2788 13.6511 11.5016 13.669 11.5371C13.6874 11.571 13.7066 11.6083 13.7232 11.6421C13.7461 11.6909 13.7651 11.7339 13.78 11.7998C13.787 11.8579 13.8335 12.0023 13.6635 12.1399C13.365 12.2673 13.3326 12.1595 13.2334 12.1465C13.0703 12.0848 12.9379 12.0089 12.8085 11.9339C12.5509 11.7821 12.3121 11.6209 12.057 11.4687C11.8677 11.3571 11.6479 11.227 11.483 11.1706C11.4706 11.1692 11.5591 11.1953 11.6255 11.1187C11.6685 11.0561 11.649 11.0628 11.6532 11.0748C11.6534 11.1031 11.6633 11.1608 11.676 11.2127C11.7024 11.3221 11.7397 11.4362 11.7767 11.5466C11.9489 12.0477 12.1134 12.4825 12.3138 12.9739C12.335 13.026 12.3543 12.9474 12.3802 13.0108C12.4408 13.1592 12.5003 13.3086 12.5568 13.4601C12.5744 13.511 12.5955 13.561 12.6006 13.6576C12.6014 13.7049 12.5987 13.7831 12.5409 13.8669C12.4813 13.9517 12.3956 13.9839 12.3503 13.9956C12.1779 14.0234 12.1318 14.0241 12.1752 14.0099C11.963 14.1049 11.9495 14.4696 12.028 14.8382C12.0414 14.9041 11.9796 14.8298 11.9912 14.8973C12.0612 15.3155 12.2766 15.9927 12.5484 16.1553C12.6649 16.4295 12.813 16.7647 12.888 17.0278C12.9363 17.1985 12.8276 17.0588 12.9294 17.2498C12.952 17.2928 12.9644 17.2196 12.9953 17.2853C13.0358 17.3721 13.0738 17.4631 13.1089 17.5554C13.1493 17.6716 13.1967 17.7923 13.172 17.973C13.1576 18.1827 12.8892 18.3167 12.7693 18.3156C12.7089 18.3231 12.709 18.3426 12.7019 18.3558C12.6998 18.3599 12.6973 18.3632 12.6926 18.3648C12.5009 18.4102 12.4934 18.3466 12.4347 18.3844C12.4155 18.3979 12.3958 18.4166 12.3773 18.4379C12.171 18.6893 12.0748 18.9356 11.9756 19.2404C11.951 19.3189 12.0249 19.2401 12.0035 19.3158C11.8937 19.7087 11.8365 20.1342 11.8035 20.5439C11.7963 20.6352 11.758 20.5501 11.7525 20.5938C11.7307 20.7876 11.808 20.8303 11.7971 21.0158C11.7951 21.0551 11.7597 21.0344 11.7561 21.0417C11.7008 21.1569 11.7918 21.2503 11.7956 21.2786C11.8471 21.6399 11.7883 21.8834 11.8547 22.2347C11.8629 22.2764 11.8912 22.175 11.9117 22.2926C12.0481 23.078 12.2537 23.8989 12.4005 24.6908C12.4226 24.818 12.3708 24.735 12.3686 24.744C12.3331 24.8801 12.4314 24.9466 12.4419 24.9901C12.4487 25.0189 12.4543 25.0466 12.4586 25.0731C12.5048 25.3541 12.503 25.6217 12.6354 25.7935C12.7561 26.4768 13.0035 27.0189 13.2664 27.7629C13.2708 27.8692 13.2942 27.9388 13.2329 28.0994C13.2162 28.1898 13.007 28.2752 12.9371 28.2308C12.8567 28.2056 12.8193 28.1758 12.7729 28.1419C12.6198 28.0193 12.5134 27.8849 12.4081 27.7529C12.1999 27.4852 12.018 27.2056 11.8467 26.9194C11.8377 26.9046 11.8896 26.906 11.8719 26.877C11.6592 26.5252 11.6505 26.6264 11.433 26.4446C11.378 26.3983 11.3436 26.1717 11.3395 26.1525C11.3242 26.082 11.4146 26.106 11.4064 26.0845C11.3375 25.9075 11.1815 26.0457 11.0446 25.836C11.0406 25.8292 11.0903 25.8359 11.082 25.8164C11.0565 25.7556 11.0079 25.7084 10.9843 25.6482C10.9297 25.5089 10.9864 25.4122 10.8147 25.2553C10.7929 25.2358 10.7192 25.3364 10.6012 25.1459C10.5544 25.0696 10.3356 24.7427 10.28 24.6505C10.2236 24.5559 10.2975 24.5963 10.2943 24.5888C10.185 24.3598 10.2244 24.3828 10.223 24.2961C10.222 24.281 10.2195 24.2627 10.2147 24.2393C10.1825 24.0774 10.0685 24.2158 10.0156 24.1777C9.96244 24.1399 9.86884 23.9365 9.85056 23.884C9.83187 23.8317 9.88956 23.8733 9.86916 23.8294C9.73491 23.5388 9.719 23.7634 9.63748 23.6927C9.44539 23.5251 9.44843 23.2942 9.33199 23.1021C9.30048 23.0502 9.30414 23.1077 9.27125 23.0649C9.14096 22.8962 9.09975 22.7671 8.92312 22.598C8.89393 22.5695 8.71394 22.4677 8.67539 22.3374C8.66988 22.3186 8.72781 22.3352 8.67366 22.2629C8.65737 22.2413 8.63765 22.2165 8.61593 22.1905C8.53166 22.0871 8.3972 21.9716 8.29696 21.9179C8.20466 21.8692 8.27761 21.9758 8.17587 21.8967C8.12914 21.8628 8.23871 21.8862 8.1473 21.8249C8.05761 21.7585 7.78668 21.6738 7.67986 21.6705C7.57428 21.6616 7.62968 21.7079 7.62073 21.7096C7.60147 21.7142 7.5618 21.7187 7.52016 21.7259C7.46208 21.7366 7.3878 21.7645 7.37731 21.767C7.22993 21.8029 7.06716 21.8796 6.85551 21.8539C5.92483 21.6695 5.79682 20.6927 5.66726 19.992C5.65594 19.9213 5.62004 19.9742 5.61788 19.9635C5.56838 19.7185 5.70593 19.8985 5.72212 19.7232C5.66877 19.7464 5.65163 19.7099 5.63584 19.6429C5.62603 19.6034 5.61843 19.5519 5.59733 19.5099C5.5666 19.4598 5.55332 19.5087 5.54783 19.5047C5.49921 19.5088 5.46644 19.4496 5.44103 19.4325C5.37106 19.3792 5.29062 19.4515 5.23399 19.4297C5.22927 19.4281 5.22556 19.4261 5.22271 19.4239C5.21221 19.4153 5.2138 19.4031 5.21584 19.3917C5.21817 19.3799 5.22098 19.369 5.20989 19.3638C5.19974 19.3587 5.17533 19.3591 5.12565 19.372C5.08907 19.4136 5.22554 19.4615 5.1108 19.5055C4.69522 19.6691 3.87891 19.9388 3.44483 19.9473C3.42989 19.9479 3.41577 19.9482 3.40244 19.9483C2.98314 19.9427 2.83469 19.7643 2.73684 19.5552C2.69028 19.4425 2.67433 19.3722 2.65707 19.3261C2.61713 19.2041 2.58349 19.2395 2.53738 19.0525C2.4841 18.7917 2.64584 18.91 2.67386 18.8708C2.70347 18.8337 2.66908 18.7975 2.68545 18.7528C2.70202 18.7093 2.72536 18.8018 2.7302 18.7008C2.73327 18.6006 2.69071 18.3189 2.66145 18.2794C2.59734 18.1969 2.51192 18.3188 2.56203 18.0458C2.56504 18.0302 2.59896 18.0849 2.60856 18.025C2.68235 17.5504 2.7624 17.0633 2.75551 16.591C2.75382 16.526 2.8019 16.5803 2.8011 16.5418C2.79322 16.3245 2.75625 16.2694 2.71926 16.2376C2.68529 16.2127 2.64578 16.2056 2.57992 16.2124C2.67813 16.1474 2.58013 15.9821 2.25653 16.0085C2.07104 16.0234 2.10865 16.0695 1.99725 16.1179C1.96383 16.1326 1.83279 16.1213 1.81312 16.1474C1.75053 16.2322 1.88327 16.2895 1.57346 16.3142C1.55978 16.3152 1.59514 16.2682 1.54837 16.2745C1.27502 16.3114 1.23142 16.3824 0.983563 16.4434C0.95253 16.4505 0.91931 16.4565 0.883724 16.4603C0.740687 16.4787 0.488415 16.4485 0.318574 16.2768C0.149468 16.1091 0.10036 15.8938 0.0695104 15.7415C0.184482 15.7195 0.115531 15.4562 0.0328746 15.3403C0.0291733 15.1435 0.0364528 14.9325 0.0660351 14.7475C0.076289 14.6839 0.107064 14.7295 0.111634 14.7218C0.183322 14.6056 0.113663 14.5139 0.115981 14.4719C0.141171 14.0823 0.2493 13.7694 0.282644 13.4181C0.287283 13.3646 0.290589 13.306 0.29107 13.2486C0.2911 13.2336 0.211648 13.1978 0.288679 13.0942C0.293917 13.0873 0.312311 13.2304 0.343013 13.035C0.373994 12.8382 0.464836 12.4686 0.456532 12.1885C0.454749 12.1203 0.405328 11.944 0.472844 11.8142C0.481982 11.797 0.503902 11.8193 0.520048 11.7946C0.571641 11.7144 0.491787 11.6597 0.574098 11.5679C0.656448 11.4759 0.731622 11.2751 0.710511 10.9908C0.709977 10.9818 0.649605 10.9088 0.659666 10.8212C0.675769 10.6814 0.710298 10.4839 0.725265 10.3377C0.732392 10.2679 0.686005 10.3082 0.686522 10.296C0.713484 9.82206 0.786493 9.49161 0.868957 8.99054C0.884188 8.89802 0.864675 8.62528 0.938926 8.45446C1.0219 8.26817 1.18462 8.49827 1.22282 8.05529C1.22913 7.99333 1.20907 7.91777 1.19015 7.83703C1.1573 7.6777 1.12269 7.49162 1.25915 7.30456C1.37204 6.71158 1.54841 6.17623 1.62989 5.58051C1.63475 5.54508 1.63923 5.50992 1.64344 5.4743C1.64688 5.44552 1.59279 5.34224 1.60679 5.2761C1.62775 5.17773 1.67184 5.13042 1.68812 5.0603C1.7571 4.7678 1.78453 4.49212 1.8551 4.21061C1.88218 4.10361 1.9072 4.1493 1.94057 4.02253C1.97443 3.89639 1.95141 3.79913 2.02237 3.63445C2.07684 3.50972 2.20652 3.41119 2.27642 3.25186C2.23382 3.23281 2.22311 3.19491 2.2306 3.13591C2.24233 3.08032 2.27603 3.00194 2.31847 2.90087C2.33483 2.86202 2.28442 2.88524 2.29075 2.86598C2.31612 2.78696 2.37762 2.73618 2.40248 2.66118C2.4086 2.64297 2.38198 2.62536 2.38558 2.60942C2.41494 2.47205 2.59736 2.33349 2.62886 2.31162C2.74912 2.22437 2.75511 2.14759 2.83579 2.07307C2.91644 1.99963 2.83643 2.14054 2.92229 2.04889C3.10004 1.85925 3.3142 1.60604 3.49867 1.41886C3.5721 1.34407 3.49177 1.36545 3.50157 1.35405C3.64679 1.18984 3.83782 1.07576 3.87412 0.932183C4.02491 0.971299 4.02797 0.931109 4.0596 0.857003C4.08652 0.808226 4.13265 0.742217 4.25513 0.694401C4.27866 0.685447 4.35493 0.761355 4.28219 0.819875C4.23779 0.855919 4.16944 0.886244 4.10264 0.926339L4.11091 0.920345C4.07184 0.949916 4.03269 0.98369 4.00089 1.02314C3.98069 1.04697 3.91699 1.23458 3.90435 1.25513C3.80257 1.41316 3.67668 1.32228 3.66318 1.32303C3.51732 1.33657 3.44379 1.56561 3.41196 1.61174C3.26248 1.82309 3.10626 1.97618 2.99314 2.16005C2.91965 2.28051 2.99349 2.35208 2.92744 2.43745C2.71369 2.72189 2.52178 2.75956 2.46723 3.11523C2.45952 3.17351 2.53517 3.18001 2.48275 3.26458L2.49442 3.23812C2.48138 3.2646 2.45783 3.29936 2.41927 3.3478C2.40842 3.35991 2.27015 3.51706 2.28666 3.64023C2.28872 3.65546 2.31984 3.66432 2.31719 3.68275C2.29906 3.80627 2.25215 3.87955 2.22999 4.01446C2.20791 4.14956 2.18773 4.31371 2.14285 4.46451C2.11577 4.55524 2.03121 4.66232 2.00741 4.70375C1.93907 4.8213 1.97973 4.97132 1.9135 5.03961C1.84683 5.10902 1.80082 4.938 1.72643 5.14013C1.80736 5.16419 1.88849 5.19866 1.96897 5.22747C1.94147 5.36198 1.91236 5.49586 1.88264 5.62959C1.81133 5.95088 1.73315 6.26961 1.664 6.59521C1.65189 6.65249 1.70897 6.60375 1.69706 6.66551C1.64635 6.92602 1.56208 7.14433 1.50891 7.41401C1.4787 7.56767 1.46461 7.73651 1.44115 7.90228C1.43492 7.95336 1.42703 8.01152 1.41883 8.06361C1.29648 8.16488 1.27095 8.48838 1.22905 8.71652C1.21412 8.79643 1.18948 8.78785 1.17281 8.84506C1.11175 9.05802 1.21018 8.96886 1.21528 9.03012C1.238 9.29481 1.04443 9.29205 1.01288 9.59944C1.01109 9.61553 1.09031 9.82592 1.09373 9.85371C1.11576 10.0325 1.05497 9.87889 1.03548 9.98655C0.99994 10.1843 0.960995 10.3193 0.966518 10.5565C0.968284 10.6255 1.01499 10.7958 0.952239 10.9232C0.944012 10.94 0.911277 10.9269 0.907864 10.9407C0.848927 11.1915 0.954192 11.2093 0.975148 11.3581C0.996075 11.5076 0.899467 11.7245 0.873489 11.7682C0.806264 11.8826 0.859921 11.6737 0.855168 11.6671C0.799442 11.5843 0.793331 11.7493 0.774543 11.874C0.668873 11.8804 0.656046 12.0571 0.755383 12.0035C0.766265 11.9974 0.767178 11.8982 0.774543 11.874C0.864661 11.9949 0.856906 12.1896 0.737168 12.3919C0.68088 12.4861 0.640652 12.3863 0.6229 12.6907C0.614179 12.8301 0.692596 12.7834 0.696009 12.9095C0.700779 13.0816 0.659021 13.279 0.613609 13.4732C0.583935 13.5996 0.552887 13.721 0.53704 13.8314C0.522378 13.9332 0.579033 13.8417 0.570413 13.9115C0.547744 14.0971 0.490992 14.2533 0.479843 14.4374C0.478928 14.454 0.525358 14.4198 0.51797 14.4761C0.467346 14.8982 0.401401 15.2826 0.475797 15.6591C0.493935 15.7463 0.541055 15.8586 0.593753 15.9105C0.645206 15.9628 0.691634 15.9738 0.757919 15.9834C0.79731 15.9884 0.846946 15.9898 0.907001 15.9839C1.24769 15.9462 1.62928 15.9036 1.91782 15.8476C2.15043 15.8047 2.09599 15.7724 2.20106 15.7339C2.30509 15.7002 2.46073 15.6956 2.64622 15.7606C2.84536 15.8023 3.02321 16.1028 3.00231 16.1486C3.00484 16.1519 2.96111 16.0282 2.88788 15.9659C2.81924 15.907 2.77439 15.8859 2.86034 15.9713C2.92748 16.103 2.99583 16.1421 3.00231 16.1486C3.00277 16.1515 3.00361 16.1558 3.0047 16.1614C3.0237 16.2283 3.06629 16.6314 3.06834 16.709C3.0739 16.7543 3.11224 16.728 3.11427 16.7519C3.15556 17.3184 3.06999 17.838 3.0204 18.3356C3.01904 18.3443 2.9763 18.3282 2.97367 18.3488C2.937 18.6371 2.99256 18.8209 3.05134 19.0265C3.07157 19.095 3.08982 19.1561 3.10424 19.211C3.13367 19.3226 3.13973 19.3808 3.12721 19.4477C3.17461 19.5081 3.27466 19.5754 3.41124 19.5877C3.41537 19.5882 3.41945 19.5886 3.42345 19.5888C3.53806 19.5924 3.54795 19.5062 3.5573 19.5039C3.91198 19.3807 4.15743 19.3379 4.58208 19.2054C4.71197 19.1657 4.91082 19.0898 5.13932 19.033C5.27755 19.0022 5.42648 18.9717 5.61002 19.0126C5.76393 19.0391 5.93595 19.1956 5.98038 19.3163C6.033 19.4362 6.03668 19.5145 6.04871 19.5726C6.05562 19.6114 6.06162 19.648 6.06888 19.6834C6.07351 19.7063 6.10809 19.6782 6.11043 19.6851C6.17874 19.8672 6.07544 19.7865 6.06392 19.8275C6.02198 19.9685 5.9992 20.0583 6.06963 20.2743C6.0858 20.325 6.24806 20.4393 6.27982 20.5192C6.32163 20.6247 6.26293 20.5992 6.3126 20.706C6.31706 20.7148 6.34336 20.7036 6.368 20.7685C6.48453 21.0754 6.66337 21.304 6.90043 21.3359C6.92962 21.3404 6.90669 21.3008 6.9314 21.2944C6.93082 21.2929 6.92996 21.2919 6.92945 21.2917C6.93713 21.3084 7.11576 21.208 7.50254 21.1723C7.75392 21.1677 7.98199 21.2259 8.1766 21.3111C8.28136 21.3591 8.20163 21.3625 8.22077 21.3808C8.33361 21.4894 8.5489 21.5244 8.58007 21.5453C8.7308 21.6372 8.859 21.7464 8.96818 21.8635C9.32853 22.2555 9.54677 22.6499 9.87456 23.083C9.89766 23.1132 10.1328 23.3004 10.1379 23.4479C10.1384 23.4579 10.1419 23.6066 10.2491 23.6645C10.2557 23.6679 10.2462 23.5821 10.3187 23.6932C10.3779 23.7833 10.4847 23.9019 10.5613 24.0258C10.5829 24.0594 10.6057 24.0993 10.6221 24.1359C10.6474 24.1938 10.6716 24.3665 10.8235 24.4782C10.8347 24.4862 11.1081 24.6362 11.0806 24.7767C11.0758 24.7994 10.977 24.8406 11.1403 24.992C11.1711 25.0199 11.1507 24.9456 11.2212 25.0269C11.3312 25.1542 11.4244 25.3497 11.5744 25.4938C11.6002 25.5181 11.7422 25.6049 11.7619 25.734C11.7651 25.7543 11.7161 25.7439 11.7475 25.7988C11.8965 26.0602 12.0895 26.3081 12.2405 26.5704C12.2933 26.6621 12.2163 26.651 12.2675 26.7512C12.3172 26.8496 12.4372 27.0432 12.5267 27.1197C12.6148 27.1945 12.6141 27.0427 12.7225 27.174C12.85 27.3267 12.9808 27.485 13.0919 27.5945C13.1181 27.6204 13.1445 27.6431 13.1539 27.6502C13.1472 27.6734 13.2001 27.5849 12.8833 27.6443C12.7318 27.6994 12.6725 27.8278 12.6645 27.8549C12.6499 27.8985 12.6543 27.8998 12.6542 27.9C12.6563 27.8913 12.6579 27.865 12.6553 27.8224C12.6762 27.9081 12.6363 27.7626 12.61 27.7013C12.5802 27.6228 12.5476 27.5389 12.5159 27.4548C12.4521 27.2859 12.3907 27.1135 12.3324 26.9387C12.2954 26.8261 12.295 26.929 12.2398 26.7616C12.0999 26.3414 11.9351 25.7027 11.8759 25.1526C11.8527 24.9497 11.8069 24.7136 11.7904 24.5454C11.7439 24.1162 11.9117 24.6319 11.8559 24.3059C11.8293 24.1511 11.6858 24.007 11.6734 23.9693C11.5524 23.6092 11.539 23.3405 11.4564 23.0059C11.4394 22.9368 11.4112 23.0137 11.3973 22.9545C11.3495 22.7516 11.3296 22.5334 11.295 22.336C11.2795 22.2479 11.2498 22.2691 11.2401 22.1866C11.2172 21.9896 11.2091 21.8129 11.2207 21.6166C11.2218 21.5988 11.2736 21.7132 11.2611 21.5669C11.2411 21.3299 11.2537 21.0337 11.2225 20.7575C11.2135 20.6754 11.1375 20.6712 11.1942 20.4938C11.2068 20.4566 11.2923 20.5085 11.2267 20.2979C11.2141 20.2639 11.1407 19.8987 11.2385 19.7339C11.2633 19.6901 11.3552 19.5887 11.3655 19.4873C11.3667 19.4734 11.3155 19.5194 11.3299 19.4355C11.3825 19.1402 11.485 18.8362 11.6118 18.544C11.6462 18.4657 11.5522 18.5621 11.6062 18.4454C11.6647 18.3217 11.7396 18.1906 11.8276 18.0635C11.9081 17.9464 12.0482 17.7861 12.268 17.7081C12.4875 17.6338 12.6396 17.6643 12.694 17.6628C12.7036 17.6634 12.7105 17.6638 12.7146 17.6642C12.721 17.6686 12.7245 17.7025 12.7256 17.7062C12.7453 17.7393 12.5616 17.8056 12.5615 17.8427C12.5354 17.9378 12.5451 17.8386 12.5179 17.7731C12.4839 17.6672 12.4489 17.5582 12.3961 17.4464C12.3679 17.3864 12.3501 17.445 12.3418 17.4342C12.2571 17.3228 12.3617 17.3883 12.3344 17.3056C12.2573 17.073 12.1385 16.8235 12.0281 16.594C11.9875 16.5096 11.9899 16.6242 11.9539 16.5482C11.7416 16.0972 11.5237 15.6133 11.4025 15.0867C11.3807 14.9865 11.4312 15.04 11.4335 15.0175C11.4494 14.8656 11.3392 14.6599 11.3281 14.6017C11.2771 14.3526 11.3016 14.2383 11.3789 13.965C11.4414 13.7553 11.6135 13.5283 11.8211 13.4095C12.0981 13.2701 12.257 13.3192 12.173 13.3165C12.147 13.3233 12.0522 13.3491 11.9728 13.4538C11.8968 13.5584 11.8981 13.6456 11.8978 13.6765C11.9021 13.7413 11.9048 13.7201 11.8974 13.7058C11.6792 13.1296 11.4249 12.5167 11.2366 11.9837C11.1768 11.8137 11.1203 11.6451 11.0741 11.4642C11.0516 11.3722 11.0287 11.28 11.0185 11.1491C11.0194 11.0736 10.9945 11.0161 11.0682 10.8258C11.1032 10.7297 11.2491 10.5796 11.3996 10.5547C11.5437 10.5271 11.6155 10.5538 11.679 10.5722C12.409 10.9056 12.8147 11.2753 13.3797 11.5302C13.4254 11.5494 13.3978 11.4871 13.4369 11.5023C13.4641 11.5127 13.49 11.5207 13.5003 11.5227C13.5034 11.5307 13.5253 11.4992 13.3666 11.5392C13.2833 11.5553 13.1431 11.7009 13.1298 11.7872C13.1046 11.8838 13.1171 11.9061 13.118 11.9263C13.1231 11.9523 13.1205 11.9351 13.1104 11.914C12.9 11.4628 12.6357 10.9729 12.3679 10.5011C12.3388 10.4502 12.3409 10.5457 12.2927 10.4643C12.1942 10.2983 12.0781 10.0826 11.996 9.90459C11.9556 9.81734 12.0509 9.91181 12.0095 9.8242C11.9138 9.62157 11.8005 9.4101 11.6831 9.21224C11.633 9.12802 11.6648 9.27884 11.603 9.16809C11.3315 8.68251 11.0616 8.20211 10.8069 7.70824C10.6632 7.42912 10.5334 7.15841 10.396 6.89269C10.3699 6.84223 10.4216 6.75051 10.3404 6.65691C10.3141 6.66303 10.2893 6.67973 10.2643 6.69119C9.66521 5.78824 8.88492 5.00181 8.02583 4.26988C7.93936 4.19654 7.85439 4.12493 7.76799 4.05267C7.72703 4.01845 7.76697 4.11462 7.68764 4.04869C7.23071 3.66934 6.77436 3.31587 6.32786 2.9015C6.28425 2.86109 6.3603 2.81209 6.21275 2.71259C6.18754 2.69561 5.96875 2.53926 5.90283 2.51187C5.89367 2.50832 5.90801 2.56981 5.83881 2.51774C5.44101 2.21775 5.0262 1.89412 4.6371 1.58584C4.57447 1.53618 4.66824 1.55096 4.62395 1.5154C4.30627 1.26143 3.92516 1.03988 3.62244 0.81288C3.41981 0.663295 3.5363 0.646974 3.45224 0.518216C3.44096 0.499624 3.30279 0.428552 3.31197 0.387714C3.33551 0.282029 3.45973 0.212524 3.47686 0.0960586C3.48319 0.0690687 3.24222 -0.00157276 3.4013 3.89215e-05C3.41765 0.00102976 3.58138 0.0562174 3.62975 0.0602956C3.66165 0.0613923 3.63509 -0.000716785 3.69575 0.011189C3.75822 0.0243513 3.79811 0.0869246 3.89274 0.117766C3.98671 0.148706 3.97556 0.0842968 4.14354 0.180372ZM4.05686 19.5395C4.20454 19.5366 4.17867 19.3878 4.04446 19.467C4.03804 19.471 4.04933 19.5397 4.05686 19.5395ZM1.64898 6.10732C1.54604 6.27939 1.61334 6.42649 1.69116 6.30603C1.76877 6.18522 1.68022 6.05463 1.64898 6.10732ZM1.99661 4.18276C1.89569 4.38497 2.0952 4.46469 2.10624 4.22823C2.107 4.21454 2.00251 4.17107 1.99661 4.18276ZM4.00814 0.82737C4.00692 0.824064 3.91173 0.76093 3.90811 0.761123C3.83129 0.768433 4.02232 0.894934 4.00814 0.82737ZM2.68917 2.41568C2.62569 2.45518 2.54516 2.63835 2.62163 2.58693C2.68206 2.5458 2.76684 2.36667 2.68917 2.41568ZM9.38873 23.0558C9.38821 23.0589 9.43389 23.1292 9.44332 23.1207C9.47371 23.0932 9.39811 23.0032 9.38873 23.0558ZM5.15339 0.348422C4.70682 0.53806 4.36215 0.513021 4.8558 0.302895C4.94515 0.265826 4.68977 0.440781 4.80816 0.403597C5.02391 0.335912 5.11601 0.175716 5.34928 0.137554C5.39148 0.130776 5.17896 0.337825 5.1527 0.348996C5.15293 0.348805 5.15316 0.348614 5.15339 0.348422ZM4.18854 19.6868C4.19193 19.688 4.30298 19.6544 4.30498 19.6515C4.34987 19.5873 4.1271 19.6547 4.18854 19.6868ZM12.0597 27.1518C12.059 27.159 12.216 27.3818 12.2239 27.3847C12.3686 27.4516 12.0558 27.0083 12.0597 27.1518ZM0.0716037 15.7359C-0.00456601 15.613 -0.0239521 15.4469 0.0328346 15.3409C0.0344159 15.4712 0.0461722 15.6031 0.0716037 15.7359Z" fill="#3C8634"/>
</svg>
