<svg width="7" height="14" viewBox="0 0 7 14" fill="none" xmlns="http://www.w3.org/2000/svg">
<path d="M5.36633 13.3761C5.32258 13.3089 5.28938 13.1987 5.27505 13.1186C5.26986 13.092 5.29951 13.0936 5.29691 13.0746C5.29186 13.0374 5.26802 13.0155 5.26496 12.9781C5.26412 12.9657 5.30839 12.9621 5.30661 12.9495C5.29625 12.8798 5.26288 12.8305 5.24337 12.764C5.15271 12.4485 5.03587 12.144 4.92012 11.834C4.88126 11.7303 4.86352 11.5956 4.80162 11.4965C4.79436 11.485 4.76389 11.5072 4.76007 11.5061C4.70174 11.489 4.77514 11.4711 4.77394 11.4439C4.76914 11.3363 4.72521 11.2283 4.67327 11.1459C4.65076 11.1101 4.60075 11.1781 4.62128 11.1228C4.62264 11.119 4.66274 11.113 4.66191 11.1007C4.65999 11.0732 4.63322 11.0298 4.62793 11.0102C4.61819 10.9728 4.61526 10.9672 4.60096 10.9337C4.5817 10.8877 4.57526 10.8249 4.54498 10.7783C4.53842 10.7684 4.50793 10.7987 4.49423 10.7846C4.48074 10.7709 4.46449 10.7257 4.46655 10.7069C4.46864 10.6882 4.50028 10.6818 4.50572 10.6763C4.55197 10.63 4.45194 10.6126 4.44707 10.6068C4.36002 10.4979 4.36048 10.3798 4.30909 10.2639C4.27148 10.1793 4.21648 10.0942 4.18176 10.0103C4.14152 9.91252 4.12529 9.82207 4.07941 9.72762C4.07462 9.71764 4.03673 9.74858 4.03078 9.73643C3.96955 9.6116 3.91554 9.47686 3.88868 9.33753C3.88594 9.32336 3.93115 9.32317 3.93068 9.30801C3.9272 9.21609 3.94522 9.05489 3.76032 9.08264C3.74326 9.02674 3.72112 8.95881 3.73298 8.89585C3.74058 8.85527 3.79523 8.86724 3.76067 8.83676C3.75292 8.82985 3.72178 8.8571 3.71289 8.84552C3.67523 8.79625 3.66164 8.73389 3.6192 8.68849C3.61051 8.67936 3.57945 8.69667 3.57226 8.69617C3.51361 8.69125 3.57246 8.61342 3.57394 8.60144C3.58417 8.51042 3.54447 8.46576 3.51617 8.39917C3.5096 8.38366 3.4742 8.42114 3.46632 8.4069C3.42608 8.33296 3.39382 8.25014 3.37961 8.16607C3.37662 8.14748 3.42043 8.14636 3.4209 8.13663C3.42249 8.09392 3.3491 8.11714 3.34921 8.07662C3.34914 8.06811 3.38261 8.05807 3.38552 8.05522C3.43113 8.01061 3.34582 8.02721 3.34178 8.02271C3.28891 7.96656 3.35074 7.88789 3.31047 7.82802C3.30565 7.82106 3.27316 7.85601 3.26204 7.83535C3.18808 7.69856 3.12978 7.53755 3.09958 7.3831C3.0947 7.35883 3.13183 7.36121 3.13492 7.35817C3.18288 7.30975 3.09861 7.32958 3.09248 7.32366C3.0461 7.27605 3.0875 7.19354 2.97755 7.1956C2.90292 6.94104 2.7442 6.72406 2.72011 6.44659C2.71971 6.44309 2.76043 6.43156 2.75946 6.42466C2.74849 6.34214 2.69535 6.38285 2.60116 6.36704C2.5775 6.36305 2.64889 6.28701 2.65387 6.28087C2.67229 6.25838 2.73474 6.24542 2.73755 6.23938C2.75892 6.19025 2.57302 6.27946 2.55306 6.23476C2.55275 6.23322 2.59002 6.22368 2.5918 6.21839C2.59743 6.20191 2.5785 6.19646 2.58534 6.17971C2.6013 6.14124 2.68865 6.0912 2.61754 6.07478C2.60864 6.07283 2.51108 6.12485 2.49354 6.08916L2.49879 6.09994C2.49818 6.09888 2.49764 6.09774 2.49717 6.09651C2.49095 6.07986 2.45291 6.01245 2.44951 5.9899C2.44609 5.96733 2.4863 5.96272 2.48702 5.9606C2.50383 5.88603 2.53238 5.89577 2.58392 5.83558C2.63524 5.77556 2.48425 5.86489 2.46145 5.86368C2.43881 5.86264 2.45491 5.80535 2.46259 5.78936C2.47027 5.77336 2.49757 5.77371 2.50032 5.76165C2.51789 5.68212 2.41075 5.77849 2.37662 5.77356C2.29594 5.76215 2.39323 5.6683 2.38403 5.62393C2.38154 5.61194 2.35992 5.63431 2.35256 5.62638C2.32343 5.59417 2.34726 5.55266 2.29204 5.5281C2.28303 5.52406 2.19599 5.52689 2.23495 5.47807C2.24059 5.47108 2.27386 5.46464 2.27192 5.44558C2.26918 5.41729 2.25271 5.37135 2.22958 5.351C2.21252 5.33603 2.17688 5.38262 2.17894 5.35125C2.17989 5.3373 2.21778 5.34199 2.21727 5.31702C2.2168 5.29213 2.18905 5.24304 2.17806 5.22474C2.16706 5.20646 2.13683 5.23581 2.13362 5.23557C2.115 5.23387 2.0783 5.20655 2.07659 5.20325C1.98542 5.04293 1.96649 4.86262 1.86191 4.71459C1.8538 4.70302 1.82053 4.73136 1.81891 4.7298C1.78055 4.6959 1.89848 4.67582 1.91627 4.62844C1.84211 4.67348 1.84664 4.64866 1.82249 4.62355C1.81079 4.61149 1.78533 4.63504 1.7816 4.63535C1.72515 4.63777 1.77524 4.59184 1.78507 4.58166C1.82119 4.54414 1.76133 4.55623 1.7854 4.53102C1.80927 4.50595 1.86404 4.50518 1.84822 4.47681C1.81657 4.48336 1.75639 4.54274 1.73321 4.52717C1.64608 4.46933 1.62018 4.28526 1.59108 4.21635C1.5617 4.14693 1.54546 4.12851 1.53512 4.08508C1.51641 4.00647 1.47652 4.0596 1.42933 4.02927C1.38207 3.99877 1.52401 3.95071 1.54882 3.92962C1.5737 3.90866 1.54126 3.91731 1.55271 3.90157C1.56417 3.88587 1.59191 3.89208 1.58835 3.8713C1.58474 3.85045 1.50938 3.82883 1.47644 3.83766C1.40704 3.85708 1.35327 3.91364 1.35124 3.85407C1.35117 3.85063 1.39024 3.84133 1.38822 3.82907C1.37132 3.73277 1.3277 3.64574 1.30823 3.55136C1.30562 3.53838 1.34923 3.52839 1.34815 3.52062C1.33695 3.43943 1.28487 3.4973 1.19329 3.497C1.29339 3.45566 1.34089 3.40406 1.31444 3.35184C1.2986 3.32047 1.25962 3.34761 1.21968 3.34275C1.20759 3.34118 1.22467 3.30386 1.20291 3.31002C1.13169 3.32999 1.07056 3.38827 1.07121 3.3193C1.07135 3.31622 1.11046 3.30555 1.10836 3.29626C1.0949 3.236 1.02489 3.26553 0.986788 3.21155C0.95695 3.16931 0.957781 3.06959 0.93796 3.01407C1.04655 2.96007 0.997219 2.92435 0.912768 2.94267C0.899212 2.90837 0.876466 2.87384 0.870567 2.83643C0.868496 2.82355 0.903532 2.81506 0.906216 2.81196C0.948595 2.76378 0.868689 2.78592 0.862238 2.78018C0.795539 2.71635 0.818894 2.62488 0.728041 2.57687C0.724785 2.57517 0.647046 2.60801 0.692349 2.56075C0.695522 2.55759 0.742092 2.56545 0.72741 2.52886C0.712749 2.4923 0.721108 2.4065 0.66214 2.37418C0.647947 2.36643 0.571851 2.3661 0.608549 2.31906C0.613563 2.31274 0.637013 2.30577 0.646935 2.29537C0.678362 2.26183 0.597547 2.29021 0.654358 2.24132C0.711156 2.19239 0.742702 2.13271 0.674539 2.10515C0.67248 2.10418 0.605832 2.12107 0.599417 2.1049C0.589223 2.07905 0.585466 2.03775 0.573112 2.01214C0.567172 1.99988 0.532814 2.02541 0.531123 2.02358C0.470639 1.94875 0.47754 1.87387 0.451802 1.77642C0.447278 1.7588 0.373846 1.73414 0.401013 1.68344C0.430956 1.62832 0.635042 1.58204 0.555663 1.52185C0.523694 1.49711 0.265497 1.55716 0.365569 1.44579C0.286548 1.34316 0.308466 1.2115 0.21986 1.11217C0.215943 1.10779 0.141507 1.11679 0.137721 1.10376C0.132296 1.08455 0.160504 1.06261 0.157787 1.04868C0.14745 0.990641 0.101673 0.948745 0.0877286 0.894109C0.0862589 0.888428 0.0878843 0.883984 0.0908846 0.880022C0.0997424 0.868361 0.118111 0.863888 0.116616 0.845589C0.114759 0.820891 0.0662259 0.809743 0.0849962 0.771923C0.099525 0.743729 0.192524 0.7129 0.203661 0.684937C0.110408 0.683508 0.111344 0.661134 0.0910089 0.616982C0.0871565 0.608186 0.0538362 0.613573 0.0503648 0.609099C0.035658 0.589957 0.0646584 0.578674 0.0498371 0.559536C0.0463058 0.554831 0.0150826 0.548217 0.0105283 0.5437C-0.0294018 0.502353 0.0560954 0.473084 0.0703891 0.472396C0.125335 0.462611 0.0934975 0.434075 0.121131 0.422475C0.14813 0.413046 0.152668 0.451737 0.174387 0.437145C0.218378 0.408672 0.253092 0.362588 0.291229 0.331218C0.306007 0.318829 0.268274 0.295216 0.269726 0.292705C0.295637 0.256053 0.356191 0.26831 0.327356 0.185029C0.475742 0.349462 0.336448 0.152363 0.413565 0.155522C0.419658 0.155918 0.479055 0.241142 0.472477 0.263238C0.465692 0.285463 0.425597 0.272751 0.419469 0.305811C0.417151 0.314047 0.449152 0.410673 0.450132 0.41742C0.455066 0.471201 0.355595 0.352782 0.34845 0.347488C0.273608 0.289458 0.312614 0.395578 0.313129 0.405754C0.307654 0.457785 0.272411 0.468827 0.277823 0.506356C0.281743 0.530708 0.373235 0.575689 0.367186 0.581563C0.348945 0.597188 0.203304 0.598269 0.321738 0.655942C0.347447 0.668001 0.458194 0.660661 0.370661 0.690754C0.365023 0.691486 0.285947 0.723138 0.337967 0.737654C0.344487 0.739229 0.376722 0.736458 0.379657 0.738846C0.398772 0.755017 0.374568 0.770092 0.389917 0.790015C0.397316 0.799184 0.406439 0.809246 0.413317 0.820581L0.40137 0.77417C0.411063 0.786823 0.418191 0.80094 0.417905 0.817314C0.417586 0.836389 0.368527 0.878492 0.357596 0.891787C0.32601 0.929889 0.400347 0.930448 0.357241 0.962503C0.313988 0.994883 0.229592 0.992976 0.212449 1.04332C0.291867 1.01572 0.37403 0.989152 0.454168 0.962124C0.481951 1.04591 0.487952 1.13677 0.524694 1.21838C0.529351 1.22851 0.56704 1.2011 0.573107 1.2115C0.598396 1.25506 0.584889 1.30702 0.617018 1.3507C0.641659 1.38349 0.702821 1.40522 0.730589 1.43933C0.652301 1.50086 0.706929 1.54481 0.717473 1.59045C0.721206 1.60644 0.697235 1.61575 0.69413 1.62945C0.683049 1.68091 0.752656 1.62818 0.769606 1.63338C0.842076 1.65565 0.668547 1.73894 0.697498 1.79134C0.698965 1.79415 0.808222 1.78661 0.816234 1.78875C0.868127 1.80206 0.786084 1.80866 0.788023 1.83107C0.791667 1.87219 0.780715 1.90689 0.826997 1.93512C0.840644 1.94335 0.911938 1.94493 0.878215 1.98939C0.873808 1.99523 0.84233 2.00795 0.841704 2.01129C0.832867 2.07018 0.929574 2.02545 0.974183 2.03533C1.01873 2.04509 0.97121 2.11616 0.956006 2.13346C0.9167 2.17829 0.927114 2.12738 0.921737 2.12859C0.857517 2.14269 0.881451 2.16722 0.886988 2.19123C0.794336 2.23957 0.81472 2.26746 0.893161 2.21604C0.901702 2.21037 0.884777 2.19766 0.886988 2.19123C0.988521 2.16596 1.01628 2.19337 0.948253 2.27251C0.916347 2.30954 0.86135 2.31617 0.904356 2.36072C0.923754 2.38075 0.983865 2.33997 1.01176 2.35238C1.07543 2.38071 1.04646 2.4736 1.08042 2.51817C1.09281 2.53448 1.11934 2.49941 1.12902 2.50995C1.15474 2.53767 1.14323 2.58071 1.17284 2.60603C1.17559 2.60834 1.20882 2.58268 1.21435 2.59255C1.25714 2.66718 1.26774 2.74664 1.30801 2.82734C1.32782 2.86701 1.38315 2.92527 1.39988 2.96781C1.4294 3.04211 1.41961 3.15368 1.46401 3.20761C1.49241 3.24209 1.5245 3.21444 1.55802 3.21805C1.62284 3.22474 1.56608 3.32677 1.55676 3.34153C1.55643 3.34198 1.5303 3.31289 1.52089 3.3406C1.48724 3.37141 1.55639 3.34124 1.55676 3.34153C1.55088 3.35136 1.57726 3.42205 1.59115 3.43158C1.59872 3.43676 1.63122 3.41463 1.63451 3.41767C1.71237 3.49104 1.76755 3.57465 1.79954 3.67441C1.79969 3.67638 1.75978 3.69434 1.76061 3.69873C1.77093 3.7599 1.83573 3.76814 1.88669 3.79663C1.93772 3.82528 1.94639 3.86432 1.89356 3.92476C1.91905 3.95268 1.9146 4.01501 1.91123 4.05155C1.90787 4.08811 1.98494 4.05196 1.98766 4.05349C2.07393 4.1012 2.05387 4.16712 2.08803 4.24739C2.10387 4.28511 2.15315 4.35137 2.18255 4.38675C2.20602 4.41484 2.19812 4.44237 2.22462 4.46499C2.22818 4.46805 2.2595 4.44633 2.26142 4.44683C2.31838 4.45738 2.22856 4.48563 2.21749 4.49999C2.17722 4.55221 2.15686 4.58205 2.20381 4.60998C2.21456 4.61638 2.34711 4.58172 2.36298 4.5949C2.38357 4.61248 2.33694 4.62656 2.35961 4.64445C2.36151 4.64601 2.38728 4.63171 2.39384 4.64675C2.42463 4.71642 2.44906 4.7986 2.48865 4.86648C2.49399 4.87588 2.5287 4.84165 2.5371 4.85487C2.57661 4.91712 2.61307 4.98911 2.62725 5.06215C2.63065 5.08028 2.59658 5.08595 2.58981 5.09389C2.54897 5.14225 2.64006 5.13152 2.6441 5.13563C2.74196 5.23189 2.72115 5.3572 2.81605 5.45715C2.82134 5.4625 2.92843 5.46879 2.87087 5.52783C2.86706 5.5318 2.80775 5.5914 2.86659 5.58504C2.87027 5.58463 2.89951 5.55151 2.90849 5.57739C2.91766 5.60361 2.96188 5.62794 2.93908 5.68191C2.93191 5.69892 2.87403 5.76084 2.94686 5.76176C2.95186 5.76165 3.10484 5.74173 3.02589 5.80561C3.01721 5.81259 2.9722 5.83559 2.96317 5.85365C2.96515 5.85808 2.9721 5.87085 2.97377 5.87541C2.96864 5.88409 2.97255 5.89215 2.9947 5.89758C3.00753 5.90062 3.02312 5.87779 3.04512 5.89107C3.07893 5.91137 3.07048 5.96186 3.12946 5.97882C3.13986 5.98173 3.21719 5.9794 3.17707 6.02291C3.17079 6.02972 3.13578 6.03766 3.13721 6.05058C3.14388 6.11208 3.19028 6.15843 3.1922 6.22269C3.19307 6.24571 3.13661 6.25887 3.13172 6.28541C3.12684 6.31197 3.13163 6.35882 3.16482 6.36944C3.19803 6.38005 3.27064 6.32004 3.29139 6.34881C3.38133 6.47345 3.39323 6.63126 3.44733 6.77216C3.45531 6.79298 3.47749 6.76294 3.49137 6.79264C3.54202 6.90066 3.65602 7.08231 3.63507 7.2051C3.61849 7.30392 3.53736 7.22488 3.54272 7.29235C3.54527 7.32453 3.65566 7.31319 3.66172 7.31865C3.72252 7.37246 3.70052 7.43805 3.7403 7.49234C3.74853 7.50354 3.78221 7.47403 3.78878 7.48375C3.81155 7.51679 3.81086 7.56227 3.82922 7.59504C3.83764 7.6099 3.86625 7.59387 3.87034 7.60929C3.88048 7.64607 3.88142 7.68204 3.86827 7.72785C3.86707 7.73203 3.82083 7.72798 3.83069 7.75393C3.84676 7.79589 3.84164 7.8588 3.89085 7.89284C3.90557 7.90289 3.97404 7.87319 3.9401 7.92379C3.93308 7.9345 3.8474 7.96235 3.93387 7.96632C3.94828 7.96707 4.07004 7.98399 4.02131 8.04018C4.0085 8.05499 3.95009 8.10419 3.96807 8.11631C3.97076 8.11784 4.00336 8.09247 4.01311 8.1048C4.04681 8.14853 4.06556 8.20135 4.09911 8.24604C4.10815 8.25797 4.13724 8.22123 4.14957 8.2397C4.18393 8.29131 4.20494 8.36479 4.21691 8.42383C4.22125 8.44563 4.18376 8.44585 4.18098 8.4488C4.13565 8.49664 4.21676 8.47704 4.22454 8.48277C4.27189 8.51887 4.25252 8.57036 4.28181 8.61127C4.28975 8.62249 4.32167 8.5979 4.32595 8.59894C4.36839 8.61054 4.29573 8.62009 4.29577 8.6393C4.29565 8.69321 4.32062 8.74181 4.3451 8.78472C4.35415 8.80046 4.38743 8.76353 4.39507 8.77786C4.44042 8.86095 4.47843 8.9575 4.49327 9.05284C4.49604 9.07092 4.45958 9.07491 4.45377 9.08151C4.41296 9.1273 4.49758 9.13025 4.50765 9.13507C4.55344 9.15664 4.53165 9.18379 4.55098 9.2132C4.6457 9.35623 4.71143 9.55538 4.76353 9.70446C4.83308 9.90199 4.86749 10.0621 4.95493 10.2386C4.9604 10.2497 4.99788 10.2195 5.00314 10.2289C5.07069 10.354 5.10793 10.4833 5.17806 10.6089C5.18365 10.619 5.21727 10.586 5.22758 10.6017C5.24903 10.6336 5.26604 10.6781 5.26832 10.7181C5.26952 10.7376 5.225 10.7304 5.2269 10.7497C5.23189 10.7961 5.24821 10.8409 5.27278 10.8791C5.28333 10.8953 5.31295 10.8507 5.32343 10.8732C5.39515 11.0246 5.46975 11.1745 5.48563 11.3552C5.48664 11.3675 5.40692 11.4138 5.43287 11.4291C5.45688 11.4205 5.4842 11.4083 5.5094 11.3981C5.62266 11.6187 5.69189 11.8546 5.78699 12.0829C5.791 12.0925 5.8282 12.0565 5.83617 12.0749C5.8817 12.1801 5.93988 12.2789 5.94445 12.4092C5.94482 12.4217 5.86432 12.4508 5.8898 12.4767C5.89386 12.4801 5.92653 12.526 5.94887 12.5308C5.95218 12.5314 5.98478 12.5065 5.99271 12.5216C6.03674 12.6067 6.0707 12.7066 6.08825 12.8071C6.09078 12.8228 6.04532 12.8249 6.04677 12.8362C6.05886 12.9197 6.12325 12.986 6.11872 13.0716C6.11584 13.1296 6.04026 13.14 5.98517 13.1942C5.97772 13.2026 5.9893 13.2329 5.95128 13.2509C5.85617 13.2971 5.74418 13.3299 5.64352 13.3809C5.6221 13.3924 5.66152 13.4172 5.59867 13.4199C5.59459 13.4204 5.56475 13.4008 5.54313 13.401C5.52828 13.4014 5.49323 13.4279 5.47248 13.4244C5.45119 13.4197 5.48041 13.3971 5.45428 13.3891C5.4279 13.3811 5.38691 13.4087 5.36633 13.3761ZM1.89603 4.21452C1.87324 4.25861 2.00722 4.19206 1.9613 4.18191C1.95892 4.1815 1.89712 4.2123 1.89603 4.21452ZM0.383227 1.17766C0.334975 1.23535 0.434407 1.22283 0.472378 1.18039C0.510442 1.13825 0.397899 1.16026 0.383227 1.17766ZM0.208239 0.840769C0.172762 0.897666 0.375228 0.834237 0.320307 0.806321C0.318246 0.805234 0.271016 0.819163 0.238523 0.829688L0.243904 0.850594C0.233957 0.852206 0.225321 0.853717 0.219592 0.854901L0.215153 0.837656C0.211058 0.839186 0.20854 0.840289 0.208239 0.840769ZM5.91602 13.0879C5.9144 13.0891 5.92158 13.1103 5.92355 13.1099C5.97179 13.1016 5.95744 13.0594 5.91602 13.0879ZM0.169118 0.519911C0.137474 0.521883 0.160078 0.564974 0.198394 0.560128C0.228303 0.558095 0.207097 0.519928 0.169118 0.519911ZM2.44791 5.58859C2.44615 5.59002 2.452 5.60528 2.46297 5.59908C2.49826 5.57903 2.47755 5.56449 2.44791 5.58859ZM0.615386 0.129823C0.529801 0.168667 0.389814 0.0480547 0.491925 0.0118654C0.510237 0.0055273 0.484041 0.0807231 0.512858 0.0824266C0.565522 0.08545 0.536825 -0.0244657 0.60516 0.00505202C0.617273 0.0106577 0.620465 0.127906 0.615357 0.130119C0.615367 0.13002 0.615376 0.129921 0.615386 0.129823ZM1.74508 4.31323C1.7436 4.31465 1.75261 4.33559 1.7546 4.33515C1.80229 4.32371 1.78416 4.28153 1.74508 4.31323ZM2.78228 6.48573C2.77895 6.48861 2.7968 6.53844 2.80104 6.53841C2.88316 6.53202 2.84729 6.4312 2.78228 6.48573ZM0.94043 3.01179C0.886585 3.01131 0.868139 2.98742 0.912764 2.9428C0.920987 2.96606 0.931779 2.98833 0.94043 3.01179Z" fill="#3C8634"/>
</svg>
