<svg width="12" height="7" viewBox="0 0 12 7" fill="none" xmlns="http://www.w3.org/2000/svg">
<path d="M8.42603 5.21143C8.31018 5.23518 8.16456 5.29401 8.05531 5.34582C8.02125 5.36195 8.04681 5.3821 8.02349 5.39438C7.97736 5.4185 7.92887 5.41886 7.88347 5.44445C7.86847 5.45305 7.89989 5.48781 7.88404 5.49585C7.79707 5.53965 7.70616 5.5536 7.61464 5.58751C7.1625 5.75458 6.70514 5.88263 6.23403 6.0024C6.0788 6.04177 5.89501 6.11724 5.73085 6.12911C5.71196 6.13041 5.71667 6.09217 5.71262 6.0898C5.64817 6.05379 5.67959 6.12384 5.64494 6.13971C5.64214 6.14099 5.63933 6.14226 5.63652 6.14351C5.54922 6.19728 5.43022 6.17879 5.34204 6.11575C5.3043 6.08849 5.38025 6.04695 5.32053 6.06002C5.31621 6.06067 5.30666 6.10057 5.29307 6.09728C5.26241 6.09029 5.21717 6.04951 5.19608 6.03631C5.15382 6.01029 5.14883 6.00529 5.11302 5.97315C5.06553 5.93058 4.99539 5.88447 4.955 5.82274C4.94645 5.80946 4.99038 5.79943 4.97976 5.77609C4.96861 5.75236 4.92618 5.70423 4.90471 5.6913C4.88358 5.67908 4.86422 5.70571 4.85603 5.70686C4.78712 5.71718 4.80882 5.60206 4.8055 5.59329C4.73033 5.42234 4.60677 5.30907 4.51932 5.15286C4.45318 5.03412 4.39961 4.89779 4.33871 4.78243C4.26607 4.64509 4.18847 4.53541 4.12585 4.39641C4.11922 4.38176 4.16988 4.37834 4.16187 4.36043C4.07857 4.17419 3.98766 3.99148 3.87217 3.81899C3.86887 3.81361 3.86551 3.8083 3.86209 3.80306C3.84616 3.77928 3.82603 3.83022 3.80832 3.80886C3.69725 3.66283 3.46918 3.60686 3.48587 3.41148C3.39573 3.3674 3.29748 3.32851 3.218 3.32618C3.16656 3.32437 3.18299 3.38562 3.14357 3.34064C3.13501 3.33055 3.16892 3.30482 3.15516 3.29252C3.13845 3.27744 3.12123 3.264 3.10468 3.25091C3.03845 3.20038 2.96154 3.16459 2.89275 3.12557C2.87293 3.11431 2.88963 3.0827 2.88533 3.07457C2.84544 3.0065 2.73554 3.07173 2.71888 3.07613C2.57371 3.10133 2.4832 3.0862 2.36353 3.09609C2.33617 3.09874 2.36452 3.0485 2.33775 3.04947C2.19795 3.05572 2.06194 3.08573 1.94288 3.1328C1.91641 3.14342 1.95021 3.17757 1.93806 3.18466C1.88486 3.2155 1.85542 3.14379 1.80462 3.17238C1.79393 3.17831 1.80816 3.21062 1.80693 3.21481C1.78781 3.28056 1.7406 3.20459 1.73185 3.2047C1.62111 3.20415 1.57478 3.30595 1.47227 3.31436C1.46013 3.3152 1.47788 3.26684 1.44452 3.27177C1.35007 3.28543 1.25556 3.3005 1.16551 3.31131C0.982814 3.33452 0.863038 3.40575 0.770496 3.43023C0.746206 3.43691 0.76476 3.46896 0.76375 3.4731C0.757117 3.48983 0.749963 3.49638 0.743786 3.49679C0.724167 3.49789 0.715922 3.44935 0.710272 3.44634C0.655738 3.42383 0.551848 3.43361 0.631844 3.36679C0.632174 3.37022 0.633953 3.37735 0.633692 3.38392C0.60084 3.38162 0.695741 3.25599 0.8214 3.18629C0.945668 3.10833 1.08719 3.03849 1.22336 2.95054C1.25881 2.92741 1.29986 2.89974 1.33269 2.87374C1.33681 2.87073 1.31144 2.83621 1.31977 2.83036C1.41837 2.76015 1.42371 2.82913 1.5291 2.86901C1.55576 2.87893 1.56949 2.76734 1.57236 2.75833C1.58 2.72643 1.53548 2.67811 1.53955 2.67077C1.57296 2.61247 1.64693 2.80518 1.71532 2.7746C1.71734 2.77332 1.69278 2.74275 1.69702 2.73672C1.70918 2.7183 1.73165 2.72476 1.74321 2.70528C1.76946 2.66044 1.74359 2.5623 1.82517 2.58975C1.8359 2.59325 1.87124 2.70549 1.92961 2.67347C1.95032 2.66171 2.05856 2.61588 2.08268 2.59695C2.10842 2.57729 2.07341 2.55158 2.0748 2.54918C2.13318 2.4689 2.09527 2.46309 2.10576 2.37784C2.11462 2.29363 2.1747 2.45868 2.19842 2.46961C2.22202 2.48052 2.26374 2.41728 2.27277 2.39771C2.28156 2.37825 2.254 2.36419 2.26333 2.35127C2.3243 2.26682 2.33438 2.4151 2.37283 2.42862C2.46491 2.4602 2.46272 2.31935 2.51738 2.28166C2.53225 2.27143 2.53079 2.30435 2.5464 2.30058C2.60948 2.28467 2.62448 2.23395 2.70501 2.2396C2.71812 2.24052 2.80222 2.28929 2.8125 2.2224C2.81399 2.21276 2.78761 2.18886 2.80883 2.17181C2.83996 2.14652 2.90537 2.11067 2.94693 2.10462C2.97857 2.09976 2.96691 2.16284 2.99632 2.13218C3.00944 2.1185 2.96739 2.10256 2.99311 2.07924C3.01837 2.05611 3.09787 2.02361 3.12638 2.01263C3.1558 2.00128 3.15582 2.04528 3.15923 2.04679C3.17946 2.05514 3.24334 2.04916 3.2484 2.04696C3.50053 1.9451 3.70516 1.78509 3.95877 1.70414C3.97854 1.69778 3.98219 1.74249 3.98537 1.74193C4.05784 1.73121 3.96251 1.64789 3.99403 1.59368C4.02056 1.67646 4.04167 1.65072 4.09228 1.64006C4.11647 1.63508 4.11703 1.67116 4.12041 1.67347C4.17251 1.70706 4.17031 1.63678 4.17108 1.62189C4.174 1.56712 4.22017 1.61137 4.22253 1.5746C4.225 1.53806 4.17194 1.50723 4.21687 1.48941C4.24122 1.51292 4.23885 1.60153 4.27782 1.59969C4.4241 1.59313 4.63735 1.43745 4.73813 1.38956C4.83898 1.34158 4.87267 1.33419 4.92867 1.29954C5.02949 1.23712 5.01291 1.30861 5.08944 1.30754C5.16646 1.30632 5.07902 1.18199 5.0768 1.14862C5.07445 1.11532 5.09696 1.14155 5.10229 1.1206C5.10758 1.09966 5.07403 1.0898 5.09932 1.07261C5.12458 1.05544 5.222 1.07747 5.24428 1.10439C5.29094 1.16164 5.28438 1.24382 5.34752 1.19074C5.35114 1.18764 5.32316 1.15691 5.33776 1.14687C5.45488 1.06808 5.58737 1.01374 5.70653 0.938505C5.72295 0.928081 5.69125 0.894038 5.70063 0.887514C5.79821 0.819523 5.78582 0.902763 5.87393 0.955333C5.82158 0.859987 5.82966 0.785935 5.91113 0.75351C5.96016 0.733968 5.9688 0.781164 6.01273 0.79971C6.02594 0.805313 6.04843 0.761884 6.06272 0.780106C6.1095 0.839649 6.10626 0.927836 6.17819 0.865363C6.18131 0.86251 6.1553 0.830067 6.16713 0.822914C6.24349 0.776537 6.28154 0.843046 6.37324 0.81758C6.43587 0.800221 6.52582 0.728776 6.59955 0.685886C6.6103 0.679658 6.62056 0.67409 6.63025 0.669413C6.58594 0.55647 6.66999 0.554507 6.73006 0.621584C6.77926 0.599814 6.83677 0.584164 6.88327 0.555742C6.89921 0.546026 6.87637 0.516794 6.8773 0.512454C6.89097 0.444713 6.94004 0.51401 6.95238 0.513219C7.08256 0.502296 7.16502 0.412094 7.29618 0.440999C7.30059 0.442168 7.32762 0.522081 7.3434 0.455207C7.34459 0.450603 7.29789 0.422024 7.35113 0.406744C7.40353 0.391522 7.5045 0.326885 7.57906 0.365759C7.59969 0.374911 7.62842 0.443892 7.66361 0.397832C7.66899 0.391655 7.67025 0.367088 7.67946 0.355521C7.71348 0.320506 7.6926 0.402934 7.74504 0.347904C7.77509 0.318592 7.81772 0.304183 7.85151 0.307163C7.88214 0.310638 7.91075 0.329232 7.93043 0.36894C7.93197 0.371658 7.91165 0.438743 7.93325 0.451845C7.96789 0.472675 8.02336 0.494448 8.05739 0.520135C8.07363 0.53241 8.03821 0.558356 8.04059 0.561068C8.13473 0.660554 8.23205 0.69287 8.35444 0.775996C8.3769 0.791135 8.39803 0.884889 8.467 0.884789C8.54254 0.884544 8.63278 0.691162 8.69918 0.812343C8.7252 0.860046 8.61085 1.10538 8.77042 1.05887C8.89598 1.19931 9.07144 1.23495 9.21463 1.35097C9.2209 1.35612 9.21668 1.43366 9.23614 1.44036C9.25044 1.44522 9.26461 1.44099 9.27761 1.43619C9.29175 1.43114 9.30311 1.42516 9.31333 1.42701C9.39968 1.44182 9.46832 1.49172 9.55068 1.50952C9.58189 1.5163 9.58056 1.4795 9.61747 1.48734C9.65472 1.49523 9.66758 1.54657 9.72298 1.5375C9.76521 1.53054 9.82478 1.44765 9.8767 1.44844C9.85725 1.53983 9.89184 1.54617 9.94818 1.58361C9.95891 1.59081 9.93948 1.61991 9.94422 1.62496C9.964 1.64635 9.99032 1.62429 10.0089 1.64663C10.0133 1.652 10.0073 1.68335 10.0107 1.6895C10.0392 1.74324 10.1147 1.68385 10.1271 1.6732C10.1754 1.63327 10.1874 1.67711 10.2216 1.66323C10.255 1.6491 10.2126 1.6195 10.2496 1.61325C10.3268 1.60039 10.4201 1.6145 10.4944 1.61409C10.524 1.61408 10.5035 1.65643 10.5077 1.65742C10.5531 1.66558 10.597 1.64248 10.6334 1.65726C10.6481 1.66298 10.6619 1.67507 10.6744 1.69794C10.6934 1.47533 10.7149 1.71352 10.798 1.66388C10.8043 1.66001 10.8095 1.5557 10.7793 1.54221C10.7489 1.5288 10.7086 1.56519 10.6679 1.54597C10.6617 1.54305 10.6334 1.50454 10.6126 1.476C10.6053 1.45961 10.5978 1.44644 10.5956 1.44451C10.5508 1.40162 10.548 1.55589 10.5452 1.56466C10.5152 1.6576 10.4548 1.55092 10.4414 1.54267C10.3734 1.50569 10.311 1.52029 10.2546 1.48846C10.2174 1.46762 10.2298 1.36665 10.1998 1.3649C10.1001 1.35829 10.0347 1.48944 9.96491 1.34847C9.95007 1.31824 9.99522 1.21491 9.90306 1.2831C9.89742 1.28748 9.82394 1.35204 9.8047 1.2951C9.80229 1.28793 9.81027 1.25658 9.80574 1.25264C9.77531 1.22685 9.74563 1.24584 9.71099 1.22395C9.6761 1.20198 9.63576 1.17199 9.58937 1.17046C9.5618 1.16961 9.51153 1.21801 9.49499 1.22862C9.44742 1.25926 9.42897 1.18127 9.39246 1.22419C9.35555 1.26725 9.37727 1.35562 9.30874 1.37021C9.3266 1.30348 9.343 1.23475 9.35973 1.16685L9.37621 1.17238C9.38096 1.15795 9.38574 1.14356 9.39055 1.12924C9.28939 1.09452 9.17783 1.06548 9.07962 0.995593C9.06759 0.986891 9.10527 0.957757 9.09327 0.947562C9.04301 0.90477 8.97591 0.895068 8.92644 0.839756C8.88831 0.7968 8.87045 0.719932 8.8317 0.671277C8.74101 0.720644 8.69166 0.634997 8.6335 0.596301C8.61311 0.582707 8.59758 0.603243 8.57898 0.598275C8.50903 0.578979 8.5877 0.53455 8.58266 0.512597C8.55997 0.418222 8.43054 0.560399 8.36242 0.498041C8.35903 0.494917 8.37618 0.37684 8.37312 0.366355C8.35625 0.299859 8.34392 0.388689 8.31263 0.37373C8.25506 0.346461 8.20674 0.340447 8.16412 0.273176C8.15211 0.253665 8.14456 0.170581 8.08116 0.188274C8.0729 0.190609 8.05695 0.220681 8.05214 0.219911C7.96716 0.204336 8.02018 0.114354 7.99748 0.058122C7.99745 0.0578487 7.99742 0.0575761 7.99739 0.0573038C8.00018 0.0133483 7.82509 0.00751164 7.79919 0.0272039C7.7217 0.061006 7.83892 0.064023 7.84005 0.0728374C7.8497 0.147129 7.77977 0.101815 7.72025 0.096656C7.68976 0.195886 7.62939 0.182678 7.66256 0.0928889C7.6666 0.0827698 7.70802 0.098507 7.72025 0.096656C7.6912 -0.0157246 7.58001 -0.0359804 7.51128 0.066915C7.48027 0.115167 7.51567 0.162005 7.41677 0.156944C7.3712 0.155814 7.37675 0.0818381 7.33297 0.0702487C7.23303 0.0442423 7.14023 0.138438 7.05446 0.153077C7.0223 0.158688 7.04078 0.112054 7.01917 0.114398C6.96122 0.120783 6.92145 0.164538 6.86309 0.167995C6.85777 0.168271 6.8567 0.125187 6.83973 0.130298C6.70997 0.168794 6.60997 0.233196 6.48131 0.282601C6.47202 0.286173 6.4614 0.289724 6.44976 0.293314C6.3851 0.313066 6.29202 0.331657 6.23983 0.355888C6.13417 0.404679 6.01903 0.513431 5.92181 0.535599C5.85716 0.550726 5.8556 0.507121 5.81917 0.491166C5.74866 0.460196 5.69527 0.585745 5.68895 0.604441C5.68875 0.605054 5.74441 0.59372 5.7243 0.6243C5.72419 0.671675 5.68961 0.604389 5.68895 0.604441C5.68506 0.616419 5.58327 0.666374 5.55956 0.667246C5.54667 0.667687 5.53872 0.628857 5.53226 0.629774C5.38031 0.651967 5.23498 0.698819 5.1015 0.771674C5.09927 0.773411 5.11923 0.812473 5.11379 0.81605C5.03824 0.867082 4.96605 0.838421 4.88718 0.835876C4.80841 0.833315 4.75744 0.865291 4.74582 0.950824C4.69128 0.962632 4.63185 1.02243 4.59654 1.05846C4.56185 1.09423 4.52408 1.01781 4.51973 1.01776C4.38487 1.01448 4.33549 1.08718 4.2195 1.1429C4.16572 1.16898 4.04579 1.20498 3.98194 1.22132C3.93138 1.2341 3.90885 1.26499 3.85912 1.27181C3.85239 1.27276 3.84403 1.23525 3.84161 1.23467C3.7742 1.2136 3.83375 1.28909 3.82977 1.30864C3.81534 1.37971 3.80564 1.4184 3.7306 1.41903C3.71319 1.41927 3.61864 1.31433 3.58881 1.31835C3.55015 1.3238 3.58169 1.36238 3.54097 1.36688C3.53752 1.3673 3.52675 1.33986 3.50499 1.35039C3.40114 1.40002 3.29581 1.46298 3.18473 1.50681C3.16983 1.51281 3.17055 1.46174 3.14874 1.46969C3.04734 1.50663 2.93691 1.55553 2.84717 1.61774C2.82509 1.63321 2.85318 1.65678 2.85174 1.66796C2.84258 1.73584 2.76393 1.67663 2.75591 1.6783C2.55913 1.71815 2.45559 1.84719 2.25772 1.89335C2.24837 1.89506 2.13258 1.84572 2.13099 1.93218C2.13041 1.93814 2.1309 2.02566 2.07799 1.98889C2.07474 1.98657 2.07943 1.93932 2.04388 1.95954C2.00769 1.98004 1.94115 1.97915 1.90695 2.04394C1.89638 2.06426 1.89203 2.15381 1.81897 2.1163C1.8137 2.11374 1.68108 2.01452 1.69666 2.11669C1.69924 2.13351 1.7466 2.22788 1.66713 2.20406C1.65204 2.19931 1.66204 2.16909 1.62766 2.16833C1.57682 2.16619 1.52709 2.21935 1.4568 2.19935C1.44354 2.19617 1.3733 2.14919 1.36495 2.21251C1.36364 2.22243 1.38714 2.25048 1.37264 2.26131C1.29843 2.31536 1.20627 2.33108 1.1357 2.38959C1.10989 2.41061 1.14766 2.45604 1.12556 2.48271C1.10708 2.50353 1.07155 2.53164 1.0413 2.5384C1.02962 2.54134 1.01798 2.54216 1.00715 2.53981C0.964011 2.53058 0.962853 2.43163 0.91036 2.44729C0.678735 2.52718 0.480499 2.64222 0.213871 2.93145C0.173721 2.98298 0.182812 2.91438 0.12031 3.0027C0.0583659 3.09205 -0.030325 3.28626 0.0102762 3.50076C0.0606777 3.77155 0.265338 3.91033 0.388613 3.9629C0.521982 4.02008 0.634923 4.02991 0.733643 4.0246C0.83171 4.01904 0.897999 3.99583 0.943163 3.97196C1.09195 3.8816 0.886927 3.88609 0.995444 3.83709C1.04428 3.81351 1.11547 3.90324 1.12461 3.90449C1.17715 3.90981 1.20023 3.90067 1.21252 3.89318C1.2618 3.88372 1.30849 3.87211 1.36068 3.87123C1.38421 3.87081 1.36769 3.91646 1.38787 3.91553C1.45725 3.91258 1.52193 3.88104 1.58229 3.87229C1.60938 3.86843 1.6113 3.90137 1.63517 3.89375C1.6924 3.87579 1.73948 3.85103 1.78633 3.80883C1.79059 3.80499 1.74849 3.77301 1.78888 3.76215C1.85398 3.74472 1.92676 3.69653 2.00511 3.711C2.02835 3.71546 2.04521 3.78806 2.07892 3.72811C2.08588 3.71566 2.05588 3.63023 2.12329 3.69542C2.13538 3.70594 2.23809 3.79234 2.26542 3.72005C2.27292 3.70086 2.28896 3.62412 2.31405 3.63238C2.31739 3.63379 2.31044 3.67516 2.32978 3.67653C2.39721 3.68083 2.4622 3.6716 2.51851 3.68471C2.53311 3.68833 2.51132 3.72946 2.53202 3.73364C2.58928 3.74521 2.64307 3.74407 2.67818 3.74303C2.69129 3.74258 2.6954 3.70754 2.69737 3.70426C2.73551 3.65356 2.71257 3.73364 2.71323 3.7393C2.71902 3.75815 2.72827 3.761 2.74006 3.76345C2.78353 3.78846 2.82552 3.8065 2.86272 3.83419C2.88322 3.84923 2.84816 3.87414 2.85078 3.8797C2.87932 3.93515 2.8804 3.855 2.91179 3.86362C2.99875 3.88638 3.0703 3.92472 3.121 3.95816C3.13929 3.97034 3.09622 3.99846 3.11224 4.00864C3.20933 4.07198 3.22966 4.09192 3.26359 4.1002C3.27048 4.10286 3.29973 4.08348 3.30742 4.08093C3.31716 4.0781 3.32341 4.07771 3.32698 4.0789C3.35297 4.10435 3.32226 4.16215 3.32134 4.17412C3.31618 4.24053 3.35354 4.24723 3.37021 4.29592C3.45071 4.5334 3.60299 4.80741 3.72318 5.01818C3.88043 5.29361 4.02529 5.49637 4.18516 5.76733C4.19541 5.78442 4.14527 5.79221 4.15384 5.80759C4.26691 6.0045 4.41366 6.18067 4.5793 6.37249C4.59348 6.38853 4.54017 6.39705 4.56231 6.42409C4.60706 6.47928 4.67749 6.54099 4.74692 6.57832C4.78064 6.59646 4.76482 6.5357 4.79785 6.55403C4.87382 6.59543 4.95559 6.64678 5.03841 6.69748C5.0747 6.71938 4.99634 6.73045 5.04688 6.75621C5.245 6.85892 5.51366 6.91426 5.75577 6.86182C5.86254 6.83762 5.9666 6.80553 6.0688 6.76098C6.08552 6.75366 6.08408 6.66062 6.12389 6.67066C6.1316 6.69505 6.13727 6.72442 6.14377 6.75084C6.51486 6.69192 6.86522 6.57893 7.22479 6.48526C7.23996 6.48131 7.22529 6.53495 7.25476 6.52752C7.42512 6.48457 7.59421 6.45505 7.75557 6.36205C7.7716 6.35287 7.74055 6.27281 7.79462 6.27164C7.80436 6.27149 7.88317 6.26192 7.90803 6.2743C7.91147 6.27626 7.908 6.31855 7.93303 6.31289C8.0778 6.27946 8.22553 6.2281 8.36131 6.16244C8.38307 6.1518 8.34663 6.11833 8.36197 6.11042C8.47156 6.05435 8.60751 6.04619 8.7069 5.97331C8.77332 5.92428 8.72313 5.86346 8.73879 5.78213C8.74047 5.77086 8.78644 5.75359 8.77482 5.71312C8.74646 5.61113 8.68777 5.50889 8.66016 5.39929C8.65446 5.37565 8.71929 5.38091 8.66685 5.33699C8.66339 5.33406 8.61558 5.32983 8.59858 5.31453C8.58695 5.30393 8.58624 5.25908 8.56608 5.24728C8.54634 5.23535 8.54193 5.2746 8.511 5.263C8.47977 5.25119 8.47593 5.20136 8.42603 5.21143ZM4.44194 1.21837C4.41812 1.27219 4.35581 1.1361 4.4118 1.15189C4.41458 1.15282 4.44322 1.21569 4.44194 1.21837ZM9.12215 1.15917C9.04446 1.19042 9.06626 1.08896 9.12263 1.06411C9.17734 1.03798 9.14491 1.1491 9.12215 1.15917ZM9.60179 1.38737C9.52692 1.42085 9.57428 1.2139 9.62721 1.27284C9.63034 1.27621 9.60616 1.38543 9.60179 1.38737ZM8.55228 5.82109C8.55236 5.819 8.58359 5.80705 8.58534 5.80855C8.61705 5.84831 8.55334 5.87258 8.55228 5.82109ZM10.1313 1.56317C10.1069 1.58813 10.0571 1.54496 10.0878 1.51446C10.112 1.48996 10.1612 1.53219 10.1313 1.56317ZM2.48986 2.21402C2.49012 2.21634 2.46862 2.22789 2.46405 2.21614C2.44932 2.1783 2.48502 2.17525 2.48986 2.21402ZM11.0855 1.60937C10.928 1.58326 10.8504 1.76262 10.9836 1.75519C11.0094 1.75528 10.9375 1.69243 10.9716 1.68107C11.0406 1.66175 11.052 1.77744 11.1261 1.7403C11.1424 1.73384 11.0967 1.61032 11.0853 1.60907C11.0854 1.60917 11.0854 1.60927 11.0855 1.60937ZM4.48722 1.3939C4.48717 1.39606 4.45654 1.41059 4.45506 1.40907C4.42013 1.37206 4.48184 1.34275 4.48722 1.3939ZM1.2348 2.87287C1.23467 2.87526 1.21448 2.88655 1.19866 2.89464C1.18117 2.90344 1.16334 2.91138 1.16146 2.91013C1.12654 2.88242 1.14569 2.85022 1.17327 2.83715C1.19678 2.82591 1.23469 2.82908 1.2348 2.87287ZM6.63036 0.665914C6.68143 0.697642 6.72296 0.688163 6.72992 0.621698C6.6965 0.637395 6.66351 0.650227 6.63036 0.665914Z" fill="#963076"/>
</svg>
