<svg width="9" height="7" viewBox="0 0 9 7" fill="none" xmlns="http://www.w3.org/2000/svg">
<path d="M8.91664 5.28684C8.85962 5.26804 8.78189 5.27318 8.72121 5.28468C8.70225 5.28823 8.70809 5.3157 8.69479 5.31931C8.66872 5.3263 8.64742 5.31031 8.62128 5.31905C8.61261 5.32207 8.61687 5.36507 8.60787 5.36727C8.55848 5.37905 8.51559 5.3618 8.4669 5.36307C8.22632 5.3692 7.99312 5.33711 7.75473 5.29534C7.67621 5.2816 7.57228 5.2924 7.49769 5.25285C7.48903 5.24822 7.50502 5.21452 7.50414 5.21109C7.4901 5.15839 7.4779 5.23238 7.45707 5.23642C7.37445 5.25222 7.29369 5.2299 7.23021 5.19342C7.20323 5.17777 7.25578 5.11833 7.21353 5.14732C7.21061 5.14926 7.20527 5.18879 7.19598 5.19002C7.17493 5.19275 7.1431 5.17424 7.12817 5.17222C7.09929 5.16852 7.09495 5.16654 7.06951 5.1578C7.03466 5.14616 6.98668 5.14905 6.95291 5.12663C6.94576 5.12174 6.97049 5.08826 6.96045 5.0771C6.95041 5.06596 6.91622 5.05629 6.90165 5.06069C6.88708 5.0651 6.8802 5.09628 6.87557 5.10222C6.8367 5.15248 6.8297 5.05857 6.82574 5.05468C6.75018 4.98548 6.6558 4.99722 6.57302 4.95964C6.51036 4.93107 6.45075 4.88534 6.39126 4.85857C6.32032 4.82679 6.25156 4.81603 6.18636 4.77715C6.17948 4.77309 6.20989 4.73585 6.20158 4.73083C6.11325 4.67746 6.02228 4.63201 5.91759 4.60664C5.90706 4.60412 5.89729 4.64652 5.88545 4.6461C5.86466 4.6451 5.83912 4.6458 5.81473 4.64299C5.75236 4.63469 5.69904 4.60758 5.7418 4.48359C5.69908 4.46607 5.64882 4.44452 5.59664 4.45583C5.5622 4.46261 5.56101 4.51433 5.54332 4.4815C5.53932 4.47416 5.56746 4.44489 5.55993 4.43645C5.52803 4.40081 5.48042 4.38781 5.45121 4.34724C5.44546 4.33899 5.46538 4.30962 5.46635 4.30281C5.47337 4.24719 5.39975 4.30325 5.39006 4.30483C5.3144 4.31466 5.28686 4.27805 5.23723 4.25134C5.22573 4.24519 5.2625 4.21133 5.25227 4.20391C5.19961 4.16644 5.1381 4.13696 5.07353 4.12567C5.05874 4.12305 5.05079 4.16488 5.04271 4.16544C5.00742 4.16755 5.03822 4.09721 5.00542 4.09823C4.99857 4.09837 4.98501 4.13046 4.98224 4.13329C4.93891 4.17781 4.96645 4.09643 4.96343 4.09268C4.92527 4.04314 4.85426 4.10553 4.81169 4.06894C4.80674 4.06454 4.84002 4.03247 4.82483 4.02247C4.72397 3.95576 4.60468 3.9085 4.4826 3.88731C4.46361 3.88394 4.46087 3.91935 4.45802 3.92248C4.41298 3.97104 4.43978 3.88944 4.43583 3.88393C4.40279 3.84202 4.33294 3.88744 4.34716 3.78185C4.15077 3.72615 3.99304 3.59185 3.77705 3.591C3.77435 3.5909 3.7606 3.63072 3.75529 3.63035C3.69075 3.626 3.72903 3.57203 3.72763 3.4832C3.72728 3.46089 3.65864 3.53458 3.65315 3.53975C3.63311 3.55891 3.61512 3.61943 3.61 3.62254C3.56805 3.64612 3.66189 3.4626 3.62981 3.44681C3.62865 3.44662 3.61616 3.48275 3.61179 3.48481C3.59806 3.49126 3.59629 3.47357 3.58222 3.48117C3.54993 3.49886 3.49807 3.58495 3.49515 3.51812C3.49495 3.50951 3.55333 3.40811 3.52256 3.39852C3.51007 3.39476 3.46138 3.36695 3.444 3.36611C3.4266 3.36533 3.41819 3.4036 3.41645 3.40451C3.35508 3.42791 3.35946 3.45376 3.30462 3.50777C3.24953 3.56124 3.34021 3.41111 3.34216 3.38979C3.34248 3.3862 3.3414 3.3838 3.33932 3.38232C3.32865 3.37482 3.29329 3.38985 3.28174 3.397C3.26784 3.4056 3.26474 3.43131 3.25466 3.43493C3.18826 3.45833 3.27932 3.34904 3.27949 3.31727C3.27989 3.24204 3.1917 3.34171 3.15673 3.33688C3.14725 3.33555 3.16798 3.3132 3.16237 3.30692C3.13966 3.28225 3.10336 3.30853 3.08991 3.25864C3.08781 3.25056 3.09975 3.16792 3.05562 3.20911C3.04929 3.21507 3.04033 3.2471 3.02502 3.24696C3.00217 3.24682 2.96699 3.2356 2.95316 3.21567C2.94299 3.20097 2.9847 3.16296 2.9591 3.16784C2.94771 3.17005 2.94722 3.20538 2.92709 3.20724C2.90713 3.20919 2.8702 3.18742 2.85649 3.1787C2.8428 3.16996 2.87 3.13869 2.87016 3.13567C2.87068 3.11815 2.8529 3.08619 2.85039 3.08487C2.73108 3.01402 2.58624 3.01266 2.47947 2.92752C2.47108 2.9209 2.49797 2.887 2.4969 2.8856C2.4741 2.85245 2.44376 2.96546 2.40321 2.98636C2.44859 2.91248 2.42786 2.91889 2.41026 2.89816C2.40183 2.88811 2.42405 2.86211 2.42475 2.85857C2.43382 2.80525 2.39066 2.85648 2.38121 2.86662C2.34649 2.90391 2.36369 2.84644 2.3403 2.87125C2.317 2.89582 2.30956 2.94755 2.2885 2.93494C2.29779 2.90457 2.35343 2.84294 2.34379 2.8224C2.30759 2.745 2.16363 2.73537 2.11188 2.71239C2.06042 2.6897 2.04782 2.67543 2.01415 2.6683C1.95331 2.65525 2.00284 2.6149 1.9862 2.57254C1.96962 2.53011 1.90723 2.66537 1.8861 2.68972C1.865 2.71406 1.8773 2.68321 1.8626 2.69467C1.8479 2.70612 1.84851 2.73192 1.83205 2.72946C1.8155 2.72696 1.80997 2.65684 1.82319 2.62585C1.85109 2.56016 1.9061 2.50747 1.85876 2.50829C1.856 2.50837 1.84147 2.54521 1.83196 2.54384C1.75706 2.53184 1.69526 2.4938 1.62249 2.47678C1.61244 2.47448 1.59542 2.51519 1.58927 2.51424C1.52513 2.50426 1.58336 2.45553 1.60311 2.37081C1.54792 2.46374 1.49582 2.50817 1.45858 2.48292C1.43624 2.46776 1.46715 2.43188 1.47223 2.39481C1.4738 2.38366 1.43967 2.39907 1.44976 2.37904C1.4828 2.31359 1.54425 2.258 1.48902 2.25795C1.48652 2.25804 1.46837 2.29384 1.46142 2.29177C1.41624 2.27833 1.45688 2.21421 1.42451 2.17859C1.39927 2.15079 1.31876 2.14727 1.28072 2.12672C1.20644 2.22262 1.1912 2.1751 1.2311 2.09982C1.2075 2.08522 1.18725 2.06256 1.15943 2.05448C1.14985 2.05165 1.13204 2.0825 1.12873 2.08468C1.07682 2.11892 1.11967 2.04865 1.1172 2.04241C1.08789 1.97713 1.00732 1.98867 1.00151 1.90242C1.0013 1.89931 1.05518 1.83449 1.00173 1.86906C0.998511 1.87117 0.989938 1.90406 0.97185 1.90008L0.985147 1.91542C0.982854 1.91427 0.980547 1.91241 0.978262 1.90966C0.959298 1.88693 0.890853 1.86589 0.901107 1.81049C0.903413 1.79692 0.94698 1.73871 0.891521 1.75146C0.883973 1.75317 0.865342 1.76883 0.851951 1.77291C0.809155 1.78569 0.876877 1.73364 0.808219 1.76068C0.739718 1.78794 0.676933 1.79057 0.696965 1.72887C0.697467 1.72695 0.749222 1.68253 0.741448 1.67215C0.729091 1.65581 0.70135 1.63783 0.690523 1.61935C0.685351 1.61048 0.724508 1.59416 0.72423 1.59224C0.708096 1.52088 0.650882 1.49797 0.599778 1.44118C0.590368 1.43088 0.621148 1.36905 0.568893 1.36756C0.511567 1.36553 0.345115 1.49086 0.355335 1.40559C0.358949 1.37025 0.576264 1.22246 0.43387 1.23885C0.423204 1.13995 0.323715 1.08449 0.337244 0.976424C0.337853 0.971664 0.40263 0.935708 0.398836 0.927081C0.39302 0.914199 0.358052 0.916225 0.352917 0.90683C0.330489 0.86709 0.349122 0.820932 0.337087 0.781184C0.332624 0.76577 0.29886 0.777385 0.293791 0.758352C0.291373 0.748952 0.300596 0.739517 0.307869 0.730016C0.317054 0.721456 0.324059 0.712085 0.313313 0.698041C0.297368 0.677933 0.204488 0.649515 0.196577 0.619593C0.289664 0.628423 0.289551 0.609736 0.318451 0.581291C0.32405 0.575906 0.355338 0.586953 0.359643 0.584673C0.377868 0.575631 0.352819 0.561089 0.372623 0.552942C0.377374 0.551028 0.408895 0.55605 0.414553 0.554832C0.463769 0.544827 0.398484 0.503191 0.387326 0.4952C0.34457 0.466242 0.387238 0.464925 0.37216 0.445825C0.35716 0.426567 0.329374 0.444707 0.322165 0.424256C0.307378 0.38139 0.324189 0.333655 0.332728 0.295295C0.336343 0.279952 0.374827 0.301186 0.376301 0.299239C0.39483 0.271172 0.36005 0.227335 0.446535 0.233598C0.241796 0.151634 0.472203 0.220904 0.443045 0.165121C0.440659 0.160737 0.342705 0.126117 0.324038 0.135285C0.305342 0.144612 0.330375 0.174359 0.302175 0.186555C0.295512 0.189486 0.19463 0.18891 0.187887 0.191257C0.135614 0.20753 0.284283 0.252161 0.292127 0.25572C0.37651 0.295717 0.267083 0.300538 0.257896 0.307534C0.215993 0.33824 0.229489 0.376612 0.199262 0.404698C0.179676 0.423301 0.0797315 0.405155 0.0791658 0.423926C0.077462 0.487537 0.21429 0.527974 0.084753 0.568699C0.0572698 0.577736 -0.0517926 0.551909 0.0297507 0.609242C0.0348149 0.613242 0.111072 0.654415 0.0594801 0.671092C0.0529572 0.673258 0.0206703 0.671124 0.0177412 0.674461C0.00347026 0.691468 0.0141549 0.705787 0.0148652 0.722546C0.0154397 0.731664 0.0151966 0.758705 0.0171731 0.767625C0.0182752 0.77315 0.0183667 0.77916 0.0162863 0.786186C0.00787257 0.814566 -0.00459973 0.849796 0.0124812 0.877308C0.0226357 0.893745 0.086608 0.90217 0.102785 0.906001C0.149368 0.917434 0.0884283 0.958545 0.141889 0.958043C0.195264 0.956167 0.263691 0.910597 0.305036 0.932225C0.224954 0.957813 0.143316 0.985895 0.0632091 1.013C0.0905838 1.09147 0.143958 1.15404 0.171019 1.22587C0.174362 1.23492 0.128963 1.24387 0.131563 1.25419C0.142571 1.29711 0.187859 1.31806 0.195477 1.36298C0.201326 1.39802 0.175499 1.45291 0.181639 1.49058C0.276738 1.46496 0.272306 1.52582 0.298291 1.55432C0.307287 1.56424 0.329297 1.55095 0.341138 1.55492C0.385314 1.57016 0.303231 1.59762 0.29635 1.61262C0.267451 1.67711 0.435659 1.58371 0.455587 1.62697C0.456576 1.62905 0.384102 1.70784 0.380948 1.71497C0.359348 1.75991 0.413964 1.70063 0.42913 1.71113C0.456787 1.73014 0.488857 1.73568 0.482155 1.7819C0.480174 1.7956 0.439228 1.85076 0.492 1.84176C0.498911 1.84058 0.526798 1.82125 0.529627 1.82201C0.578458 1.83735 0.488833 1.89481 0.470647 1.93335C0.45261 1.97209 0.532825 1.96067 0.554484 1.95509C0.610449 1.94059 0.566473 1.93055 0.57048 1.92682C0.617937 1.88231 0.622195 1.9092 0.637142 1.92219C0.72607 1.86737 0.735076 1.89257 0.652127 1.93563C0.643029 1.94028 0.643177 1.92271 0.637142 1.92219C0.560163 1.99174 0.565864 2.02438 0.663245 1.99797C0.708951 1.98566 0.744533 1.94475 0.753968 1.99337C0.7581 2.01507 0.693974 2.04856 0.687863 2.07462C0.684286 2.09003 0.687446 2.10203 0.694386 2.11209C0.702616 2.12219 0.725473 2.15208 0.735857 2.15994C0.762594 2.18381 0.814705 2.18354 0.83409 2.21089C0.843636 2.22432 0.805972 2.2437 0.811654 2.25393C0.826792 2.28128 0.865356 2.27546 0.877976 2.30597C0.879096 2.30877 0.847487 2.33601 0.854171 2.34235C0.904356 2.39094 0.96785 2.40873 1.02494 2.45288C1.0524 2.4742 1.08805 2.5304 1.1197 2.54848C1.17457 2.58036 1.27159 2.57689 1.30614 2.61919C1.32894 2.64677 1.29904 2.67606 1.29513 2.70763C1.28766 2.76894 1.38524 2.71771 1.39921 2.70893C1.39965 2.70864 1.38067 2.68383 1.40569 2.67534C1.43817 2.64416 1.39903 2.70857 1.39921 2.70893C1.40841 2.70347 1.46262 2.72887 1.46804 2.74189C1.47095 2.74902 1.44629 2.77951 1.44824 2.78262C1.49501 2.85585 1.55713 2.90776 1.63492 2.935C1.63653 2.93508 1.65794 2.89695 1.66144 2.8976C1.71089 2.90565 1.70789 2.96656 1.72406 3.01362C1.74024 3.06065 1.77197 3.06734 1.82977 3.01456C1.84954 3.03743 1.90179 3.02987 1.93221 3.02442C1.96264 3.01898 1.92251 3.09399 1.92346 3.09649C1.95226 3.17565 2.00926 3.15235 2.07097 3.17887C2.10043 3.19139 2.14909 3.23307 2.17439 3.25791C2.19432 3.27768 2.21828 3.26824 2.23387 3.29153C2.23598 3.29465 2.21458 3.32606 2.21477 3.32784C2.21698 3.38091 2.25035 3.29356 2.26338 3.2819C2.31072 3.23945 2.33737 3.21764 2.35471 3.25956C2.35866 3.26915 2.31501 3.39727 2.32434 3.41132C2.33656 3.42935 2.3532 3.38398 2.36541 3.40391C2.36647 3.40557 2.35199 3.43124 2.36355 3.43612C2.41706 3.45911 2.4806 3.47436 2.53187 3.50576C2.53889 3.50993 2.50729 3.54592 2.51706 3.55262C2.56307 3.58408 2.61701 3.61158 2.6748 3.61827C2.68901 3.61974 2.69748 3.58707 2.70465 3.57992C2.74829 3.53678 2.72917 3.62371 2.732 3.62712C2.79828 3.71027 2.90132 3.67873 2.97027 3.75918C2.97395 3.76369 2.96581 3.86399 3.02012 3.80439C3.02375 3.80043 3.07901 3.73928 3.06632 3.79515C3.06551 3.79864 3.0353 3.82912 3.05476 3.83521C3.06183 3.83743 3.06825 3.8441 3.07577 3.85045C3.09072 3.86258 3.10944 3.87375 3.14031 3.85763C3.15577 3.84976 3.21334 3.78985 3.20823 3.85947C3.2075 3.86418 3.1797 4.0128 3.23964 3.93151C3.24944 3.91809 3.29544 3.82321 3.30033 3.88644C3.30126 3.89868 3.28022 3.91438 3.28861 3.93512C3.30164 3.96713 3.34443 3.95693 3.35207 4.01303C3.35324 4.02288 3.34289 4.09753 3.38352 4.05683C3.38986 4.05044 3.40022 4.01633 3.4108 4.01707C3.46078 4.02024 3.49415 4.06214 3.54655 4.05983C3.56489 4.05898 3.58154 4.00391 3.60333 3.99726C3.62521 3.99067 3.66216 3.99171 3.66709 4.02268C3.67213 4.05373 3.61636 4.12786 3.63741 4.14565C3.72811 4.22249 3.85112 4.2206 3.95526 4.26114C3.97075 4.26717 3.94468 4.29075 3.96624 4.30163C4.04641 4.34207 4.17 4.43587 4.26997 4.40879C4.34955 4.38675 4.29903 4.3145 4.35134 4.3155C4.37663 4.31616 4.35199 4.42189 4.35506 4.42716C4.38706 4.48115 4.44236 4.45697 4.47844 4.49178C4.48599 4.49903 4.45758 4.53247 4.46421 4.53823C4.48711 4.55845 4.5221 4.5552 4.54519 4.57129C4.55547 4.57859 4.5382 4.6064 4.54958 4.60955C4.57712 4.6177 4.60369 4.61629 4.64198 4.60205C4.64547 4.60075 4.65004 4.55713 4.66876 4.56544C4.69958 4.57929 4.74894 4.57162 4.76777 4.6174C4.77322 4.63106 4.73802 4.69685 4.78395 4.66324C4.7935 4.6562 4.83098 4.57453 4.81815 4.65584C4.81609 4.66938 4.80672 4.7835 4.8601 4.73618C4.87413 4.72371 4.92315 4.66707 4.92933 4.68373C4.93002 4.68623 4.90408 4.71765 4.91189 4.7265C4.93965 4.75703 4.97881 4.77423 5.00718 4.80482C5.01486 4.81315 4.98037 4.84124 4.99245 4.85249C5.0261 4.88373 5.07885 4.90191 5.12304 4.91257C5.13942 4.91647 5.14706 4.88116 5.14995 4.87852C5.19692 4.83546 5.16539 4.91213 5.16843 4.91945C5.1869 4.96343 5.23163 4.94499 5.25757 4.97218C5.26478 4.9796 5.23876 5.00969 5.23869 5.0137C5.23904 5.05354 5.26164 4.98522 5.27686 4.98524C5.31881 4.98459 5.35143 5.00772 5.38064 5.0311C5.39132 5.03973 5.35485 5.07076 5.3647 5.07805C5.40617 5.10961 5.45107 5.13598 5.50186 5.15483C5.52222 5.16267 5.54313 5.16912 5.56449 5.17392C5.57922 5.17715 5.58943 5.14253 5.59608 5.1372C5.64211 5.09966 5.62886 5.18028 5.63128 5.19009C5.64168 5.23458 5.66785 5.21401 5.68897 5.23279C5.79231 5.32542 5.95064 5.38644 6.07044 5.43151C6.22688 5.4907 6.35704 5.51352 6.49836 5.5829C6.50739 5.58726 6.47999 5.62617 6.48758 5.63049C6.5866 5.68436 6.69585 5.70805 6.7962 5.75959C6.8045 5.76375 6.77669 5.80046 6.78955 5.80854C6.81585 5.82541 6.85303 5.83633 6.88679 5.83336C6.9032 5.83198 6.89689 5.78962 6.91309 5.78893C6.9508 5.78722 6.98701 5.79642 7.01876 5.8146C7.03225 5.82243 6.99594 5.85776 7.01468 5.86462C7.14188 5.91209 7.26824 5.95912 7.41549 5.93981C7.42562 5.93849 7.45806 5.85243 7.47231 5.87458C7.46698 5.89949 7.45897 5.92831 7.45238 5.95469C7.63829 6.02102 7.83525 6.03495 8.02833 6.06847C8.03649 6.0699 8.01293 6.11471 8.02875 6.11772C8.12019 6.1351 8.20748 6.16458 8.30909 6.13235C8.31915 6.12921 8.32815 6.04417 8.35321 6.06128C8.35762 6.06439 8.39674 6.08207 8.40458 6.10199C8.40561 6.10498 8.39204 6.14323 8.40519 6.14641C8.4817 6.16418 8.56442 6.16636 8.64467 6.15169C8.65762 6.14925 8.64953 6.10548 8.65877 6.10337C8.72392 6.08865 8.78872 6.12825 8.85243 6.09581C8.895 6.07389 8.88723 5.99939 8.9149 5.92945C8.91879 5.91959 8.9432 5.9202 8.94819 5.87845C8.96077 5.77347 8.95975 5.65719 8.97456 5.54543C8.97773 5.52136 9.00626 5.55012 8.99317 5.4901C8.99224 5.48609 8.97172 5.4647 8.96811 5.44438C8.96558 5.43034 8.97632 5.38841 8.97026 5.37017C8.96423 5.35194 8.9524 5.38682 8.94163 5.365C8.93093 5.34292 8.94123 5.29509 8.91664 5.28684ZM2.06851 2.99982C2.10759 2.97524 2.03571 3.10643 2.03325 3.06369C2.03321 3.06147 2.06654 3.001 2.06851 2.99982ZM0.249374 1.11084C0.321441 1.11356 0.239895 1.16956 0.18454 1.16916C0.129038 1.16803 0.227316 1.1094 0.249374 1.11084ZM0.206268 0.795591C0.263702 0.820025 0.0574084 0.869697 0.0914915 0.819464C0.0934155 0.816487 0.202922 0.79401 0.206268 0.795591ZM8.82045 5.8994C8.82096 5.89746 8.83854 5.89735 8.83875 5.89934C8.84318 5.94756 8.80783 5.94773 8.82045 5.8994ZM0.27872 0.482143C0.304969 0.497417 0.267196 0.521159 0.234298 0.502244C0.207848 0.486614 0.246112 0.462525 0.27872 0.482143ZM3.12055 3.40028C3.12192 3.39849 3.13365 3.40271 3.12732 3.4136C3.10689 3.44867 3.09751 3.43037 3.12055 3.40028ZM0.409818 0.00587365C0.394544 0.0779949 0.549233 0.170852 0.553621 0.0918399C0.554502 0.0774359 0.491246 0.103333 0.481635 0.0816155C0.464395 0.0412386 0.575561 0.0553053 0.530313 0.00495581C0.522024 -0.00430066 0.410368 0.00139676 0.409545 0.00591987C0.409635 0.00590438 0.409726 0.0058887 0.409818 0.00587365ZM2.16903 2.85045C2.1704 2.84896 2.18615 2.85587 2.18552 2.85776C2.16989 2.90355 2.13805 2.88961 2.16903 2.85045ZM3.80107 3.64738C3.80374 3.64398 3.84101 3.65698 3.84063 3.66108C3.82658 3.74017 3.75077 3.71393 3.80107 3.64738ZM1.27819 2.12884C1.29339 2.08 1.28014 2.06223 1.23121 2.09983C1.24732 2.10871 1.26201 2.11982 1.27819 2.12884Z" fill="#963076"/>
</svg>
