<svg width="24" height="12" viewBox="0 0 24 12" fill="none" xmlns="http://www.w3.org/2000/svg">
<path d="M14.2508 5.60646C14.426 5.74499 14.6743 5.89939 14.8683 6.00887C14.9288 6.04302 14.9148 6.00131 14.9572 6.02393C15.041 6.06862 15.1052 6.12804 15.189 6.17001C15.2166 6.18368 15.2087 6.12759 15.2371 6.14273C15.3936 6.22642 15.5255 6.32822 15.6786 6.42023C16.4329 6.87309 17.1626 7.33316 17.9218 7.79632C18.0782 7.8917 18.2623 7.98937 18.4388 8.09166C18.5477 8.15487 18.6524 8.21741 18.748 8.28175C18.7782 8.30205 18.7408 8.32263 18.7452 8.32878C18.8146 8.42391 18.8201 8.34072 18.8866 8.36798C19.1474 8.47433 19.4208 8.61609 19.6611 8.74262C19.7633 8.79613 19.6269 8.81471 19.7511 8.8254C19.7596 8.82615 19.7485 8.77846 19.7793 8.78751C19.8474 8.80775 19.9718 8.86699 20.025 8.88408C20.1277 8.91727 20.1442 8.92374 20.2406 8.95703C20.3727 9.00193 20.5383 9.03123 20.6822 9.07466C20.713 9.08403 20.6621 9.11329 20.7108 9.13168C20.7601 9.15064 20.8953 9.17444 20.9426 9.1726C20.9894 9.17113 20.9755 9.13668 20.9847 9.13093C21.0593 9.08242 21.2015 9.1864 21.2219 9.19037C21.3797 9.22444 21.529 9.23419 21.6725 9.23662C21.8193 9.23767 21.9663 9.26342 22.1023 9.33913C22.2114 9.39977 22.311 9.48896 22.395 9.58912C22.4388 9.64209 22.4703 9.70515 22.4946 9.77429C22.5574 9.95667 22.5655 10.1459 22.5657 10.3972C22.5664 10.4245 22.5648 10.4486 22.5613 10.4692C22.558 10.4872 22.5149 10.4599 22.5109 10.4785C22.5335 10.6063 22.1712 10.648 21.8214 10.6049C21.7862 10.6016 21.8234 10.6508 21.7873 10.6497C21.565 10.6441 21.1896 10.6189 21.1159 10.4054C20.9679 10.3662 20.7877 10.3127 20.6448 10.3011C20.5522 10.2935 20.6195 10.365 20.5218 10.3101C20.4998 10.2978 20.5434 10.2713 20.5095 10.2557C20.3659 10.1894 20.2002 10.143 20.0592 10.071C20.0312 10.0565 20.0506 10.0259 20.0443 10.0168C19.9889 9.94221 19.8406 9.98077 19.8123 9.97772C19.5955 9.9531 19.4586 9.88644 19.2504 9.83941C19.2008 9.82914 19.2693 9.79489 19.2216 9.78362C19.1842 9.77499 19.1329 9.76564 19.089 9.76129C18.8916 9.74074 18.6874 9.73956 18.4946 9.76342C18.4434 9.76997 18.492 9.80881 18.4678 9.81406C18.362 9.83736 18.3332 9.76265 18.231 9.7878C18.2096 9.79313 18.225 9.82656 18.2214 9.83071C18.1658 9.89581 18.1041 9.8178 18.0877 9.81786C17.8835 9.81725 17.7721 9.92688 17.5835 9.95173C17.5609 9.95472 17.6026 9.90139 17.5393 9.91256C17.409 9.93569 17.2784 9.964 17.1482 9.99571C16.8313 10.0738 16.5535 10.2219 16.3034 10.3696C16.2472 10.403 16.3035 10.4122 16.3016 10.4176C16.2696 10.504 16.1935 10.4467 16.1732 10.4532C16.0135 10.5065 15.9058 10.6391 15.7611 10.5956C15.5336 10.7184 15.2995 10.821 15.0604 10.907C14.7176 11.0161 14.2632 10.9306 13.8347 10.9012C13.8258 10.9004 13.8325 10.9447 13.8148 10.9428C13.603 10.92 13.6563 10.8645 13.5404 10.7544C13.5101 10.7264 13.3846 10.7934 13.3728 10.7975C13.3324 10.8138 13.3517 10.8833 13.3391 10.8852C13.2344 10.8984 13.3049 10.704 13.179 10.6695C13.1749 10.6687 13.1814 10.7099 13.1698 10.7106C13.1344 10.7131 13.1065 10.6896 13.071 10.6932C12.9894 10.7015 12.9364 10.7907 12.8406 10.702C12.8289 10.6906 12.882 10.5846 12.7705 10.5573C12.7254 10.5465 12.5309 10.4855 12.473 10.4755C12.4165 10.466 12.4427 10.5135 12.4383 10.5138C12.2764 10.5159 12.3258 10.5527 12.2294 10.5999C12.1338 10.647 12.2066 10.4861 12.1824 10.458C12.1581 10.4299 12.0371 10.4347 12.0065 10.4399C11.9756 10.4451 12.0015 10.4785 11.9754 10.4787C11.8022 10.4788 11.9326 10.3737 11.8896 10.3307C11.7889 10.2292 11.6538 10.3222 11.5385 10.2982C11.5072 10.2917 11.5411 10.2715 11.5149 10.2602C11.4125 10.2158 11.3351 10.2332 11.2264 10.1587C11.2087 10.1466 11.1343 10.0402 11.0539 10.0743C11.0424 10.0793 11.0577 10.1183 11.0103 10.1105C10.9393 10.0988 10.8152 10.0659 10.7457 10.032C10.6944 10.0069 10.7726 9.97615 10.6996 9.9699C10.6672 9.96717 10.7133 10.0149 10.6534 10.0074C10.5942 10.0001 10.4502 9.95209 10.3963 9.93364C10.3421 9.91505 10.3843 9.88611 10.3808 9.8821C10.359 9.85866 10.2596 9.8063 10.2505 9.80345C10.1849 9.78175 10.1194 9.76166 10.0539 9.74274C9.66425 9.63064 9.28775 9.52408 8.93156 9.32493C8.89906 9.30681 8.9403 9.27967 8.93554 9.27651C8.83031 9.20351 8.86868 9.35007 8.7716 9.34328C8.82255 9.27199 8.76855 9.26223 8.69337 9.21208C8.65719 9.18781 8.69372 9.1691 8.69181 9.16423C8.65896 9.08932 8.58891 9.12638 8.57221 9.13271C8.51152 9.15636 8.49806 9.08253 8.45709 9.09792C8.4159 9.11289 8.45141 9.18773 8.37553 9.14563C8.36906 9.10675 8.46433 9.06649 8.41303 9.02345C8.22062 8.86176 7.78625 8.68941 7.60782 8.59823C7.45736 8.52106 7.39644 8.48402 7.31525 8.44606C7.30043 8.43914 7.28501 8.43224 7.26835 8.42514C7.07341 8.34261 7.17103 8.32712 7.0676 8.24065C6.96454 8.15485 6.95189 8.31564 6.92041 8.33494C6.88934 8.35449 6.88721 8.31638 6.85869 8.32114C6.83017 8.32591 6.86424 8.36819 6.81329 8.34889C6.76198 8.32929 6.65962 8.21267 6.65674 8.1739C6.65288 8.09279 6.74562 8.05703 6.60667 8.01535C6.5987 8.01302 6.60468 8.0597 6.57505 8.04905C6.3389 7.96268 6.10566 7.85029 5.86956 7.76751C5.83712 7.75621 5.84615 7.80839 5.82709 7.80228C5.6287 7.73925 5.72568 7.70442 5.65754 7.58321C5.63549 7.69198 5.54963 7.72449 5.40792 7.66039C5.32137 7.62139 5.35571 7.5853 5.3139 7.52993C5.30159 7.51336 5.22718 7.51536 5.22504 7.49014C5.21814 7.40774 5.30852 7.35914 5.14748 7.32281C5.14028 7.32129 5.14515 7.36683 5.12144 7.35893C4.96928 7.3088 4.98221 7.23175 4.82821 7.15479C4.70767 7.09453 4.46834 7.04237 4.32439 6.98945C4.28016 7.10241 4.15726 7.02008 4.13648 6.92044C4.04325 6.88461 3.9461 6.83823 3.8541 6.81149C3.82185 6.80199 3.82822 6.8429 3.82285 6.84473C3.74003 6.87405 3.73335 6.7826 3.71474 6.77112C3.51362 6.65057 3.31584 6.631 3.14176 6.48233C3.13558 6.47697 3.16005 6.3955 3.08122 6.42583C3.0758 6.4279 3.12461 6.49407 3.03018 6.4517C2.94382 6.41298 2.77059 6.36863 2.66195 6.27874C2.65257 6.27106 2.6437 6.26308 2.63543 6.2548C2.60912 6.229 2.5711 6.12723 2.48399 6.13524C2.47219 6.13637 2.46798 6.1623 2.44928 6.16637C2.38881 6.17863 2.41553 6.09449 2.3329 6.12619C2.25036 6.15776 2.12604 6.1389 2.03878 6.00772C2.03586 6.00359 2.05 5.92915 2.01422 5.90148C1.95589 5.85667 1.8685 5.80003 1.81187 5.74723C1.78494 5.72212 1.83074 5.70732 1.82657 5.70243C1.66503 5.51873 1.52035 5.41819 1.34444 5.22008C1.31167 5.18343 1.27622 5.03932 1.18777 4.98759C1.0903 4.92839 0.973852 5.13311 0.886096 4.89628C0.850634 4.79786 1.02117 4.57051 0.825558 4.47733C0.710937 4.16287 0.540016 3.89266 0.497964 3.5543C0.496049 3.53914 0.554393 3.47473 0.544996 3.44117C0.530822 3.39114 0.491223 3.37152 0.480547 3.33535C0.43547 3.18498 0.437124 3.03819 0.408996 2.89072C0.398513 2.83434 0.366655 2.85946 0.354785 2.792C0.34321 2.72431 0.383031 2.6732 0.350043 2.58406C0.325103 2.51665 0.223466 2.45622 0.204296 2.36308C0.29721 2.3517 0.289243 2.28725 0.306475 2.17298C0.309842 2.15078 0.343814 2.17215 0.347085 2.16157C0.36114 2.11861 0.332038 2.08157 0.348271 2.04128C0.352168 2.03151 0.384024 2.02944 0.389018 2.02128C0.413394 1.9825 0.400487 1.93254 0.382273 1.89266L0.381977 1.90362C0.371649 1.86958 0.356959 1.84233 0.352229 1.83335C0.311541 1.75622 0.356016 1.72616 0.342603 1.66855C0.329204 1.61109 0.298102 1.69259 0.292945 1.62603C0.282233 1.48881 0.304337 1.31614 0.316641 1.17888C0.321725 1.12426 0.360388 1.16575 0.362099 1.15802C0.384194 1.04612 0.350609 0.927398 0.441171 0.873078C0.23021 0.773416 0.469591 0.807098 0.439705 0.640668C0.437183 0.627559 0.335072 0.603542 0.315916 0.650549C0.296765 0.697234 0.322243 0.774014 0.29201 0.839324C0.28493 0.854864 0.179067 0.937105 0.17197 0.94871C0.116328 1.04238 0.269221 1.07159 0.277175 1.07768C0.362683 1.14591 0.247234 1.24759 0.237081 1.27679C0.190623 1.40918 0.201272 1.526 0.167037 1.63771C0.144902 1.71027 0.0430769 1.70843 0.0408402 1.76711C0.0393043 1.80707 0.0437802 1.84166 0.0505888 1.87409C0.0502022 1.88016 0.0494079 1.89818 0.0497738 1.90425C0.0921109 2.02722 0.165243 2.09634 0.0780546 2.25176C0.0550338 2.29362 -0.0594011 2.26291 0.0399426 2.4005C0.0461369 2.40933 0.135632 2.50861 0.092433 2.57545C0.0869666 2.58392 0.054782 2.58727 0.0532456 2.5979C0.0437449 2.66957 0.0749063 2.71157 0.0730082 2.78874C0.07106 2.86521 0.0668337 2.95931 0.0925357 3.04302C0.107943 3.09391 0.179639 3.14875 0.198898 3.17013C0.253925 3.2306 0.201535 3.31857 0.261417 3.35C0.321548 3.38091 0.379244 3.2817 0.437212 3.38355C0.356357 3.40691 0.274662 3.43631 0.194088 3.46282C0.256819 3.71088 0.356181 3.94418 0.445005 4.18545C0.456052 4.21551 0.402015 4.20122 0.41296 4.23408C0.459741 4.37243 0.540304 4.47651 0.595091 4.61769C0.637539 4.72728 0.656753 4.86448 0.709923 4.97816C0.830935 4.99527 0.899486 5.16585 0.984784 5.26925C1.01438 5.30546 1.03358 5.288 1.05962 5.30936C1.1583 5.38969 1.05617 5.39463 1.06636 5.43019C1.11377 5.58282 1.27073 5.47178 1.37814 5.60051C1.38321 5.60696 1.3839 5.7587 1.39044 5.77423C1.42891 5.87391 1.42726 5.76123 1.47548 5.79955C1.5648 5.86946 1.63595 5.9035 1.7139 6.01207C1.73574 6.04319 1.76661 6.15332 1.85514 6.16039C1.86677 6.16137 1.88367 6.1315 1.89098 6.13477C2.02196 6.19528 1.96121 6.28135 2.0067 6.35904C2.05341 6.4374 2.2 6.44624 2.23271 6.44175C2.31836 6.43164 2.2026 6.3945 2.20281 6.38783C2.20348 6.31137 2.27164 6.37035 2.33333 6.40237C2.39764 6.31969 2.47312 6.37297 2.39619 6.43501C2.38739 6.44163 2.34795 6.40599 2.33333 6.40237C2.33034 6.50163 2.39014 6.5654 2.49858 6.56834C2.51929 6.56862 2.54181 6.56657 2.566 6.56199C2.63533 6.54846 2.61475 6.47916 2.74944 6.5714C2.81016 6.61233 2.75231 6.66354 2.80236 6.71065C2.91641 6.81789 3.11923 6.83828 3.25264 6.90948C3.30076 6.93521 3.23621 6.94947 3.26871 6.96834C3.35609 7.01896 3.44808 7.02691 3.53276 7.08001C3.5405 7.0849 3.50384 7.11395 3.53218 7.12676C3.74647 7.22438 3.94258 7.27834 4.16603 7.37252C4.27448 7.41818 4.45702 7.52086 4.5697 7.56464C4.76489 7.64046 5.02425 7.68934 5.18141 7.77635C5.28314 7.83256 5.24317 7.85979 5.27711 7.90608C5.34094 7.99488 5.53656 7.9782 5.56347 7.97421C5.56422 7.97398 5.47813 7.92319 5.53517 7.9264C5.58182 7.89949 5.56255 7.97357 5.56347 7.97421C5.58163 7.97176 5.76573 8.04824 5.79864 8.07291C5.81641 8.08618 5.78859 8.11615 5.79816 8.12241C6.02379 8.26915 6.25786 8.39626 6.50631 8.50353C6.51094 8.50503 6.52448 8.46288 6.53514 8.46689C6.68237 8.52094 6.74729 8.61546 6.84594 8.70388C6.93732 8.78551 7.02269 8.82445 7.11709 8.80876C7.12566 8.80732 7.13427 8.80541 7.14293 8.80301C7.22393 8.85802 7.36343 8.89727 7.44348 8.91881C7.52459 8.94091 7.49253 9.02043 7.49797 9.02538C7.66636 9.18095 7.80167 9.20155 8.00935 9.3085C8.10785 9.35916 8.29561 9.47644 8.39897 9.5418C8.48027 9.59358 8.54125 9.60301 8.61467 9.65501C8.62468 9.66205 8.59654 9.69017 8.59917 9.69315C8.66798 9.77903 8.66688 9.67456 8.69269 9.66913C8.7866 9.64898 8.841 9.6407 8.94396 9.72113C8.96741 9.73952 8.98961 9.89697 9.03674 9.92669C9.09779 9.96492 9.09251 9.91035 9.1561 9.95082C9.16156 9.95421 9.14863 9.98083 9.19155 9.99781C9.39122 10.0772 9.61643 10.1444 9.82736 10.2163C9.8562 10.2261 9.80448 10.2584 9.84622 10.2732C9.85796 10.2773 9.86982 10.2814 9.8818 10.2855C10.0573 10.3457 10.2474 10.4039 10.4243 10.4395C10.4705 10.4487 10.4527 10.4085 10.4654 10.4024C10.5426 10.3656 10.6009 10.4743 10.6142 10.4804C10.9332 10.6271 11.2114 10.637 11.5396 10.7817C11.5577 10.7899 11.6722 10.923 11.76 10.8685C11.766 10.865 11.8538 10.8087 11.8927 10.8787C11.8951 10.8831 11.8434 10.9101 11.913 10.9277C11.9838 10.9458 12.0847 11.0066 12.1944 10.9931C12.2291 10.9889 12.3223 10.9339 12.3944 11.0227C12.3989 11.0288 12.4959 11.2092 12.575 11.1287C12.5878 11.1153 12.6093 11.0119 12.7014 11.0954C12.7193 11.1115 12.6749 11.1231 12.7256 11.1532C12.8027 11.1993 12.9224 11.2042 13.0125 11.2778C13.0286 11.2909 13.0882 11.3814 13.1638 11.3452C13.1758 11.3396 13.1659 11.3006 13.2002 11.3056C13.3615 11.3286 13.5223 11.3926 13.6903 11.4044C13.7506 11.4087 13.7329 11.3467 13.7959 11.3444C13.8585 11.3421 13.9821 11.3509 14.0433 11.3875C14.1035 11.424 14.0178 11.502 14.1143 11.5248C14.4529 11.5932 14.8061 11.632 15.2632 11.4695C15.3484 11.4339 15.4326 11.3974 15.5166 11.3616C15.5747 11.3365 15.5386 11.3867 15.6247 11.3514C15.9453 11.223 16.4686 10.9871 16.677 10.8131C16.8479 10.6727 16.5853 10.748 16.7252 10.6587C16.7935 10.6157 16.9116 10.6805 16.929 10.6771C17.0797 10.6469 17.1687 10.5855 17.2814 10.558C17.3044 10.5525 17.3277 10.5478 17.3522 10.5442C17.3876 10.539 17.3633 10.5886 17.3931 10.5838C17.4949 10.5678 17.5955 10.526 17.6902 10.5103C17.7327 10.5034 17.7313 10.537 17.7693 10.527C17.8604 10.5037 17.9382 10.4762 18.0226 10.4327C18.0304 10.4287 17.9693 10.3967 18.0372 10.3852C18.1464 10.3669 18.2804 10.3218 18.4082 10.3459C18.4463 10.3533 18.4506 10.4273 18.528 10.3733C18.5442 10.3623 18.5213 10.2724 18.6159 10.3489C18.6329 10.3611 18.7841 10.4672 18.8632 10.405C18.884 10.3883 18.9411 10.3183 18.9861 10.3336C18.9921 10.3359 18.9644 10.3738 19.0014 10.3808C19.0117 10.3827 19.022 10.3845 19.0325 10.3863C19.0952 10.4012 19.2264 10.4322 19.3408 10.4798C19.3738 10.4935 19.3108 10.5174 19.3605 10.5369C19.4997 10.5914 19.6883 10.6465 19.8401 10.6869C19.8953 10.7014 19.8698 10.6558 19.875 10.6537C19.9583 10.6189 19.9698 10.7103 19.9888 10.7222C20.1102 10.7963 20.2252 10.7967 20.3449 10.8498C20.3781 10.8644 20.3409 10.8928 20.3465 10.8985C20.4059 10.9555 20.3765 10.8707 20.4239 10.8791C20.5563 10.9023 20.6961 10.9534 20.8245 11.0002C20.8717 11.0174 20.804 11.0433 20.8466 11.0583C21.099 11.1473 21.3732 11.223 21.6539 11.2531C21.7065 11.2584 21.6805 11.2178 21.6927 11.212C21.7748 11.1712 21.8752 11.263 21.9014 11.2732C22.0208 11.3208 22.0744 11.294 22.1896 11.3014C22.3604 11.3054 22.5717 11.3128 22.8392 11.152C23.1243 10.9878 23.2363 10.5953 23.216 10.3862C23.2126 10.2243 23.2171 9.95827 23.1604 9.7279C23.1153 9.53194 23.0216 9.32485 22.8687 9.16438C22.5715 8.85345 22.171 8.64355 21.7064 8.61558C21.6778 8.61378 21.6491 8.61177 21.6204 8.60948C21.5884 8.60695 21.6236 8.56261 21.5962 8.5598C21.244 8.52682 20.9236 8.49476 20.6034 8.3821C20.5773 8.373 20.6282 8.34263 20.587 8.32654C20.503 8.29334 20.394 8.25747 20.3016 8.23656C20.2572 8.22652 20.3 8.28384 20.2552 8.27278C20.1495 8.24641 20.0405 8.20293 19.9415 8.14932C19.8991 8.12621 19.984 8.116 19.9274 8.08906C19.5568 7.90998 19.1995 7.69534 18.8052 7.51074C18.7952 7.50606 18.7853 7.5014 18.7753 7.49676C18.7469 7.48358 18.6749 7.54651 18.628 7.49601C18.6374 7.47184 18.6536 7.44672 18.6663 7.42258C18.1214 7.06006 17.5595 6.73396 17.0075 6.37657C16.9843 6.36149 17.051 6.34729 17.0061 6.31789C16.7465 6.14772 16.5026 5.96968 16.212 5.83322C16.1833 5.81968 16.1491 5.8996 16.079 5.83702C16.0667 5.82599 15.9569 5.73843 15.9373 5.70284C15.9348 5.69779 15.9781 5.67893 15.9415 5.65287C15.7282 5.50187 15.4953 5.35472 15.2666 5.22736C15.2298 5.207 15.2425 5.26719 15.2162 5.25301C15.0278 5.15105 14.8553 4.99234 14.6668 4.90732C14.5415 4.85107 14.5392 4.93907 14.4388 4.95674C14.4251 4.95955 14.3544 4.91148 14.3267 4.94334C14.2563 5.02302 14.223 5.14125 14.1441 5.22338C14.1268 5.24088 14.0502 5.15441 14.0705 5.24078C14.0718 5.24652 14.1284 5.31047 14.1339 5.33872C14.1374 5.35803 14.0921 5.37835 14.1054 5.40925C14.1187 5.44019 14.1653 5.42922 14.1934 5.47425C14.2203 5.51873 14.1747 5.54615 14.2508 5.60646ZM7.80662 9.01873C7.89209 9.01981 7.8286 9.15565 7.77531 9.08479C7.7728 9.0812 7.80225 9.01857 7.80662 9.01873ZM0.468485 3.90534C0.56272 3.97965 0.49571 4.07755 0.423274 4.0265C0.35086 3.97406 0.43981 3.88203 0.468485 3.90534ZM0.274423 2.87998C0.344048 2.98673 0.138213 3.04103 0.160188 2.90804C0.161428 2.90028 0.270392 2.87367 0.274423 2.87998ZM14.7026 5.16667C14.7005 5.16765 14.6495 5.13442 14.6495 5.13203C14.6501 5.07457 14.752 5.14094 14.7026 5.16667ZM0.241184 1.84968C0.248238 1.86032 0.250061 1.87579 0.248333 1.89171C0.248785 1.93809 0.226358 1.98446 0.199275 1.95304C0.188653 1.94069 0.185398 1.91958 0.187347 1.89945C0.187188 1.89681 0.187534 1.88895 0.187703 1.88631C0.195858 1.84957 0.220749 1.81895 0.241184 1.84968ZM11.513 10.3667C11.5148 10.3649 11.5571 10.3765 11.5524 10.3882C11.5371 10.4259 11.4826 10.3962 11.513 10.3667ZM0.39926 0.138344C0.398127 0.385758 0.550803 0.565104 0.55639 0.278331C0.556385 0.226899 0.492723 0.38469 0.481764 0.318424C0.461568 0.199973 0.573754 0.124067 0.515165 0.00207294C0.50472 -0.0189506 0.39942 0.124885 0.399002 0.138779C0.399088 0.138634 0.399173 0.138489 0.39926 0.138344ZM7.93212 8.88314C7.93416 8.88202 7.9883 8.91019 7.98849 8.91254C7.99396 8.97001 7.88547 8.91363 7.93212 8.88314ZM13.9832 10.9733C13.9872 10.9701 14.1241 10.9909 14.1281 10.9951C14.1873 11.0847 13.9065 11.0425 13.9832 10.9733ZM4.32091 6.99149C4.27963 6.92205 4.20784 6.8855 4.13677 6.9205C4.1976 6.94284 4.25982 6.96872 4.32091 6.99149Z" fill="#963076"/>
</svg>
