<svg width="11" height="17" viewBox="0 0 11 17" fill="none" xmlns="http://www.w3.org/2000/svg">
<path d="M9.85464 3.99292C9.78572 3.87832 9.7189 3.71412 9.67343 3.58527C9.65907 3.54478 9.69254 3.55169 9.68351 3.52296C9.66645 3.46807 9.62924 3.42553 9.61368 3.37038C9.60851 3.35181 9.65659 3.35268 9.65029 3.33362C9.61508 3.22863 9.55671 3.14411 9.51063 3.04297C9.28431 2.54731 9.02079 2.07834 8.72881 1.615C8.6325 1.46245 8.5363 1.26248 8.40943 1.12757C8.39469 1.11195 8.37356 1.14474 8.36866 1.14342C8.29342 1.12312 8.36459 1.09322 8.34611 1.05444C8.31165 0.981562 8.26382 0.908508 8.21284 0.846255C8.16759 0.789418 8.11368 0.751065 8.06868 0.738117C8.03222 0.729061 8.03777 0.810082 8.02314 0.761194C8.02163 0.757828 8.04179 0.723072 8.03359 0.716215C8.0145 0.699779 7.96965 0.70267 7.9487 0.701589C7.90756 0.698613 7.89968 0.700609 7.85136 0.711314C7.83363 0.715397 7.81352 0.719337 7.79063 0.723751C7.73311 0.734037 7.66846 0.74716 7.61508 0.776304C7.5999 0.784788 7.63618 0.81307 7.61387 0.829879C7.59131 0.846489 7.52509 0.873766 7.49846 0.877C7.47227 0.879699 7.46711 0.846981 7.45989 0.842552C7.3982 0.805202 7.36184 0.922979 7.35416 0.930362C7.19827 1.06469 7.02807 1.13345 6.87569 1.26328C6.76077 1.36177 6.65395 1.4854 6.55115 1.58771C6.42859 1.7096 6.31376 1.80485 6.20688 1.93702C6.19558 1.95097 6.24517 1.9653 6.23154 1.98232C6.08748 2.16267 5.94406 2.34163 5.78592 2.51256C5.77007 2.52965 5.75328 2.48127 5.73513 2.49738C5.68596 2.54136 5.61974 2.5948 5.57254 2.65588C5.51318 2.73295 5.48173 2.82021 5.54146 2.91212C5.48393 2.99094 5.41644 3.08812 5.34109 3.14398C5.29201 3.18096 5.28103 3.1108 5.26254 3.18013C5.25842 3.19562 5.30263 3.19835 5.29395 3.21996C5.2565 3.31249 5.19198 3.39945 5.16188 3.49461C5.15582 3.51404 5.18936 3.52662 5.19217 3.53463C5.21423 3.60072 5.10134 3.62803 5.08736 3.64044C4.98296 3.73298 4.95268 3.82588 4.88991 3.93409C4.87526 3.95923 4.93361 3.9529 4.92097 3.97795C4.85496 4.10712 4.7716 4.23868 4.66819 4.34905C4.64511 4.37339 4.62965 4.32511 4.617 4.33539C4.56167 4.38014 4.61345 4.43859 4.55794 4.48204C4.54629 4.49111 4.52439 4.46301 4.51979 4.46265C4.44844 4.45588 4.49064 4.53649 4.48476 4.54608C4.43063 4.63805 4.34103 4.65735 4.26566 4.703C4.24529 4.71499 4.22573 4.72962 4.20772 4.74928C4.19795 4.76007 4.25155 4.77121 4.22217 4.7996C4.02788 4.98747 3.80056 5.15844 3.57196 5.29554C3.5365 5.31685 3.53891 5.27282 3.53436 5.27125C3.46199 5.24768 3.49324 5.33139 3.48488 5.34208C3.41636 5.42561 3.29446 5.4302 3.30039 5.55384C2.9256 5.80011 2.60562 6.11152 2.19906 6.30496C2.19394 6.3075 2.17672 6.26801 2.16663 6.27323C2.04468 6.33587 2.10502 6.37189 2.08164 6.48941C2.07594 6.51879 1.96352 6.48331 1.9544 6.48138C1.92113 6.474 1.90175 6.4105 1.89282 6.41096C1.82004 6.41655 1.95282 6.57452 1.88729 6.62433C1.88502 6.62562 1.87071 6.58886 1.86292 6.59003C1.83868 6.59356 1.83066 6.61858 1.80616 6.6208C1.74978 6.6257 1.67549 6.55636 1.65222 6.64736C1.64944 6.659 1.73161 6.74335 1.66999 6.78341C1.6452 6.7994 1.54379 6.87949 1.51027 6.8957C1.47682 6.91183 1.47369 6.86674 1.47064 6.86702C1.3629 6.88694 1.3797 6.84801 1.29584 6.81946C1.21207 6.79123 1.3298 6.92178 1.32592 6.94947C1.3221 6.97703 1.24034 6.98825 1.2176 6.98779C1.1949 6.98729 1.19765 6.95488 1.18029 6.95809C1.06574 6.97998 1.19758 7.05475 1.18764 7.09766C1.16444 7.19906 1.03525 7.13497 0.969137 7.17053C0.951252 7.18016 0.982363 7.1934 0.970035 7.20657C0.966171 7.21066 0.962246 7.21439 0.958277 7.21783C0.915225 7.25587 0.862745 7.2588 0.83779 7.33221C0.832293 7.34608 0.851782 7.43929 0.784926 7.43173C0.775073 7.43087 0.759537 7.39817 0.736461 7.41582C0.701615 7.44191 0.652798 7.5032 0.641187 7.54887C0.632641 7.58219 0.697308 7.5733 0.664131 7.60198C0.649465 7.61515 0.636478 7.57034 0.610929 7.59733C0.584713 7.62403 0.552864 7.71087 0.544132 7.74492C0.534779 7.77876 0.579267 7.77211 0.581005 7.77564C0.590739 7.79612 0.59283 7.86395 0.591626 7.86965C0.588112 7.88487 0.584553 7.90011 0.580929 7.91539C0.535496 8.15326 0.508113 8.44657 0.556526 8.7219C0.560695 8.7445 0.601492 8.72471 0.602566 8.72811C0.629052 8.80479 0.50927 8.7549 0.477922 8.81548C0.563028 8.79715 0.55132 8.83341 0.567456 8.88732C0.575377 8.91378 0.606871 8.89497 0.61058 8.89702C0.666061 8.93074 0.604514 8.96802 0.592007 8.97635C0.54624 9.0088 0.608061 9.03018 0.577673 9.05276C0.547556 9.07544 0.493608 9.03949 0.501583 9.09434C0.534396 9.10563 0.609204 9.05402 0.627851 9.09395C0.697509 9.24131 0.678038 9.53775 0.691505 9.66313C0.70448 9.78686 0.717117 9.82823 0.717636 9.90074C0.719137 10.0343 0.770759 9.97777 0.81124 10.0531C0.851961 10.1294 0.699499 10.1147 0.670094 10.1317C0.64069 10.1485 0.675085 10.1556 0.660294 10.1729C0.645505 10.1902 0.618907 10.1627 0.618176 10.1976C0.617348 10.2321 0.688652 10.3135 0.723524 10.32C0.797271 10.3332 0.863087 10.2798 0.852695 10.3724C0.852044 10.3777 0.810891 10.3679 0.810348 10.3879C0.807522 10.5474 0.83407 10.7089 0.835324 10.8672C0.835475 10.8892 0.789474 10.8777 0.789082 10.8906C0.784826 11.0245 0.848349 10.965 0.940766 11.0214C0.831719 11.0243 0.773858 11.0758 0.790713 11.1731C0.800803 11.2316 0.845371 11.2133 0.884894 11.2454C0.896796 11.255 0.8725 11.3025 0.895678 11.3062C0.971468 11.3183 1.04417 11.2647 1.03049 11.3706C1.02978 11.3753 0.988236 11.3683 0.988624 11.3839C0.990984 11.4852 1.0678 11.4842 1.09604 11.5885C1.11839 11.6713 1.09976 11.8269 1.10988 11.9244C0.990199 11.9441 1.03378 12.0284 1.12272 12.05C1.13065 12.1127 1.14742 12.1783 1.14689 12.2399C1.14675 12.2611 1.10975 12.2539 1.10649 12.2572C1.05517 12.3076 1.14012 12.32 1.1457 12.3328C1.18124 12.4197 1.17907 12.5019 1.19331 12.5837C1.20232 12.6321 1.21711 12.6792 1.24937 12.7257C1.25241 12.7298 1.33666 12.7217 1.2837 12.7702C1.28002 12.7734 1.23338 12.7361 1.24338 12.8005C1.25351 12.8656 1.23459 12.9957 1.29347 13.0754C1.30771 13.0952 1.38675 13.1317 1.34597 13.1872C1.34042 13.1948 1.31541 13.1946 1.30455 13.2062C1.27013 13.2439 1.35621 13.2363 1.29521 13.2866C1.23437 13.3371 1.20197 13.4222 1.28089 13.4952C1.28329 13.4976 1.35416 13.4956 1.36333 13.5225C1.37795 13.5661 1.39059 13.632 1.41177 13.6756C1.42189 13.6965 1.45339 13.665 1.45579 13.6683C1.5431 13.7949 1.56679 13.9058 1.64447 14.0545C1.65887 14.0822 1.75455 14.122 1.75116 14.1964C1.74864 14.2475 1.66574 14.2915 1.63641 14.3411C1.61877 14.3696 1.62037 14.4012 1.66719 14.4361C1.71907 14.4755 1.97482 14.3846 1.92876 14.5516C2.0791 14.7019 2.13962 14.8998 2.30392 15.0396C2.31124 15.0459 2.38784 15.0266 2.40016 15.0447C2.41858 15.072 2.4023 15.107 2.4148 15.1274C2.46575 15.2123 2.54387 15.2674 2.59761 15.346C2.61831 15.376 2.58243 15.387 2.60692 15.4225C2.63148 15.4582 2.68579 15.4531 2.70331 15.5131C2.71669 15.559 2.66757 15.6509 2.6946 15.7046C2.77031 15.6498 2.793 15.6828 2.85618 15.7249C2.86829 15.7329 2.88525 15.7015 2.89231 15.7043C2.92163 15.7151 2.91506 15.7509 2.94487 15.7599C2.95208 15.7621 2.97762 15.7429 2.98495 15.7437C3.04802 15.7488 3.03353 15.8481 3.03097 15.8653C3.02115 15.9306 3.06724 15.9225 3.07397 15.9621C3.08057 16.0015 3.03 15.9738 3.04598 16.0134C3.07925 16.0954 3.1504 16.1798 3.20196 16.2494C3.22277 16.2771 3.24217 16.2324 3.24593 16.2358C3.2981 16.286 3.30639 16.3712 3.3978 16.3509C3.254 16.524 3.44108 16.3723 3.46856 16.4802C3.47066 16.4887 3.39463 16.5601 3.36367 16.5448C3.33275 16.5296 3.32984 16.4726 3.28482 16.4529C3.2742 16.4482 3.16162 16.4613 3.15206 16.4585C3.07754 16.4371 3.19523 16.3357 3.19997 16.3279C3.25014 16.2423 3.1236 16.2495 3.10651 16.2391C3.02785 16.191 3.00077 16.1198 2.93844 16.0773C2.89766 16.0492 2.81419 16.1073 2.79427 16.0761C2.72783 15.9723 2.81453 15.8524 2.64674 15.835C2.61086 15.8311 2.53744 15.918 2.55311 15.7945C2.55402 15.7866 2.57769 15.6858 2.51442 15.686C2.50644 15.6861 2.48077 15.7058 2.47476 15.7023C2.43499 15.6791 2.43883 15.6415 2.40086 15.6118C2.36317 15.5826 2.31488 15.5493 2.29195 15.5007C2.2782 15.4717 2.30145 15.4024 2.30419 15.3815C2.31263 15.3221 2.22876 15.3266 2.25414 15.2747C2.27944 15.2222 2.37379 15.217 2.35821 15.1406C2.28942 15.1889 2.21682 15.2359 2.14668 15.2833C2.05628 15.1579 1.98772 15.0205 1.89233 14.8973C1.88044 14.8821 1.85574 14.9247 1.84209 14.9091C1.78463 14.8431 1.76578 14.7628 1.7021 14.6967C1.65283 14.6458 1.5689 14.6109 1.51612 14.5572C1.54328 14.5099 1.53208 14.4673 1.51065 14.4288C1.48959 14.3913 1.45898 14.3566 1.44062 14.322C1.42707 14.2966 1.44934 14.2837 1.44509 14.2624C1.42852 14.1818 1.3775 14.2583 1.35468 14.2481C1.25643 14.2019 1.41389 14.092 1.35446 14.0028C1.35152 13.9986 1.22684 13.988 1.21627 13.9818C1.14842 13.9451 1.24216 13.9551 1.22976 13.9164C1.20745 13.845 1.20703 13.7897 1.14473 13.7226C1.12663 13.7036 1.0433 13.6695 1.07247 13.6055C1.07629 13.5972 1.10933 13.5888 1.10941 13.5833C1.10943 13.4856 1.00864 13.5171 0.957842 13.4764C0.907003 13.435 0.956142 13.3361 0.972772 13.3156C1.01506 13.2611 1.00362 13.3405 1.00966 13.3417C1.07851 13.3504 1.05245 13.2981 1.047 13.2547C1.14649 13.2225 1.1263 13.1672 1.04117 13.2102C1.03192 13.2152 1.0494 13.2449 1.047 13.2547C0.938434 13.244 0.908929 13.1788 0.986661 13.0878C1.02304 13.0445 1.08086 13.0651 1.04076 12.9699C1.02282 12.9269 0.955922 12.9582 0.92858 12.923C0.871043 12.8476 0.902053 12.7315 0.885813 12.6424C0.88392 12.6315 0.882139 12.6237 0.879857 12.616C0.869939 12.5829 0.837192 12.6229 0.829082 12.6005C0.807441 12.5412 0.826739 12.4823 0.800784 12.4242C0.798369 12.4189 0.760315 12.4399 0.756306 12.4208C0.725217 12.2768 0.728229 12.1462 0.701647 11.9962C0.688489 11.9221 0.642782 11.7979 0.633339 11.7203C0.617149 11.5883 0.64696 11.4167 0.61241 11.3071C0.590058 11.2356 0.552408 11.259 0.519159 11.2328C0.454915 11.1832 0.531428 11.0573 0.543828 11.0408C0.544231 11.0403 0.565032 11.1014 0.579861 11.0641C0.619771 11.0369 0.544143 11.0415 0.543828 11.0408C0.551791 11.03 0.538545 10.9024 0.526376 10.8788C0.519733 10.866 0.48263 10.8804 0.479894 10.8736C0.415745 10.712 0.376313 10.5446 0.36499 10.3707C0.365249 10.3675 0.409078 10.3647 0.40915 10.3574C0.411404 10.2555 0.347878 10.2004 0.302952 10.1243C0.258103 10.0484 0.257609 9.98001 0.323864 9.92049C0.304295 9.85938 0.322941 9.76646 0.334665 9.7117C0.34639 9.65701 0.261345 9.66327 0.258966 9.65897C0.184037 9.52735 0.219505 9.43666 0.206184 9.29029C0.199662 9.21873 0.16859 9.08174 0.149912 9.00715C0.134663 8.94605 0.150394 8.91021 0.131042 8.85391C0.12847 8.84644 0.091752 8.85851 0.0900351 8.85634C0.0378469 8.79832 0.133297 8.8184 0.148263 8.80365C0.203039 8.75181 0.231341 8.71698 0.195656 8.64154C0.187386 8.62343 0.0496254 8.57991 0.0391388 8.5466C0.0256484 8.50175 0.0745257 8.51475 0.0595619 8.46822C0.0583489 8.46428 0.0289472 8.46703 0.0283403 8.43798C0.025528 8.29946 0.0351449 8.14591 0.045496 7.97632C0.047264 7.95294 -0.00223992 7.98066 8.08839e-05 7.94361C0.00332176 7.89693 0.00932012 7.8451 0.0221873 7.7877C0.0452695 7.68341 0.0844338 7.56336 0.145464 7.45906C0.166295 7.42401 0.186494 7.4603 0.198812 7.45617C0.272349 7.43293 0.230226 7.32951 0.235993 7.31628C0.328008 7.08478 0.503641 6.96485 0.662177 6.84003C0.695919 6.81365 0.728985 6.78431 0.760871 6.74987C0.769002 6.74077 0.788117 6.60984 0.86952 6.64612C0.874981 6.6485 0.957247 6.68639 0.952931 6.62027C0.952647 6.61615 0.906701 6.59938 0.945294 6.57487C0.983749 6.55046 1.02502 6.48374 1.10221 6.48175C1.12655 6.4811 1.21243 6.51619 1.22038 6.42962C1.2207 6.42375 1.20512 6.25375 1.2916 6.31316C1.30573 6.32302 1.36543 6.41012 1.38837 6.32462C1.39266 6.30817 1.35903 6.30421 1.37823 6.27111C1.40799 6.21997 1.48165 6.19944 1.50667 6.12146C1.51093 6.10778 1.507 6.02089 1.57137 6.0403C1.58148 6.04332 1.59331 6.07853 1.61244 6.06898C1.70332 6.02385 1.77204 5.94236 1.86731 5.90094C1.90102 5.88621 1.92075 5.94265 1.95962 5.93241C1.99825 5.92236 2.0674 5.88854 2.08259 5.84447C2.09793 5.80028 2.00919 5.75359 2.05153 5.71252C2.23493 5.53454 2.46689 5.42601 2.67121 5.27953C2.70145 5.25785 2.65729 5.25078 2.70059 5.21682C2.86026 5.0918 3.11484 4.85468 3.29323 4.79933C3.43606 4.75531 3.32625 4.89777 3.42322 4.84849C3.4706 4.82402 3.44631 4.70766 3.45405 4.69702C3.5257 4.59471 3.62016 4.57672 3.6927 4.49607C3.70779 4.47927 3.66335 4.461 3.67642 4.44711C3.72042 4.3997 3.78385 4.36979 3.82722 4.32666C3.84668 4.30716 3.82118 4.28614 3.84148 4.27136C3.84873 4.26602 3.85595 4.26092 3.8632 4.25606C3.89796 4.23418 3.93375 4.21877 3.98123 4.20678C3.98644 4.20535 3.99457 4.25568 4.02181 4.22927C4.06535 4.18674 4.1394 4.14566 4.15875 4.06709C4.1644 4.04358 4.10423 3.99992 4.17342 3.99111C4.18785 3.98907 4.25473 4.05061 4.22248 3.95993C4.21774 3.9444 4.18098 3.80899 4.26326 3.80249C4.28508 3.80074 4.36503 3.81013 4.37017 3.77866C4.3706 3.7743 4.32799 3.76768 4.33693 3.74475C4.3687 3.66472 4.41739 3.58681 4.4511 3.5005C4.45991 3.47762 4.40604 3.4891 4.42038 3.45553C4.46001 3.36268 4.5314 3.25549 4.5924 3.17368C4.61509 3.14331 4.63227 3.18283 4.63687 3.18229C4.71144 3.17387 4.65239 3.11163 4.65559 3.09631C4.67539 3.0036 4.74359 2.96266 4.77719 2.88533C4.78654 2.8641 4.74452 2.85832 4.74384 2.85259C4.73888 2.79387 4.78119 2.86048 4.80342 2.83814C4.86519 2.7769 4.91175 2.69382 4.95242 2.61849C4.96736 2.59072 4.9101 2.59699 4.92405 2.57223C4.96962 2.49052 5.01918 2.41113 5.07474 2.33366C5.12024 2.27012 5.17019 2.20847 5.2219 2.15345C5.24413 2.12982 5.26133 2.16636 5.27169 2.16542C5.34262 2.16114 5.31925 2.06268 5.32211 2.04635C5.33613 1.97023 5.37657 1.96745 5.40893 1.91436C5.56393 1.65725 5.81917 1.38444 6.02632 1.18724C6.29736 0.929649 6.53467 0.757591 6.83213 0.537349C6.85141 0.523398 6.80518 0.498811 6.82165 0.486218C7.03613 0.326477 7.28442 0.207707 7.56608 0.106568C7.58946 0.0984502 7.54223 0.0665264 7.58006 0.0520798C7.5868 0.0495138 7.59374 0.0469997 7.60086 0.0445526C7.65903 0.0231821 7.77343 -0.00432251 7.88427 0.000574342C7.9428 0.00351885 7.86803 0.0459288 7.92557 0.0488312C8.05945 0.0557131 8.21832 0.0891525 8.34624 0.143515C8.40133 0.167046 8.33972 0.0858716 8.41058 0.12128C8.55023 0.194699 8.65115 0.285086 8.73253 0.373733C8.88503 0.541569 9.01033 0.716712 9.10378 0.914069C9.11292 0.933375 9.04951 1.00185 9.08892 1.02653C9.11147 1.01434 9.13566 0.996741 9.15857 0.982048C9.42321 1.32636 9.62192 1.69794 9.83656 2.06451C9.8456 2.07998 9.87131 2.02843 9.88905 2.0583C9.99159 2.23111 10.1013 2.39354 10.1598 2.59623C10.1656 2.61629 10.0861 2.64902 10.1264 2.69468C10.1336 2.70269 10.1874 2.77629 10.2147 2.78759C10.2186 2.789 10.2457 2.75545 10.2606 2.78026C10.3474 2.92586 10.4229 3.08697 10.4788 3.24918C10.4879 3.27567 10.4367 3.26881 10.4428 3.28779C10.4854 3.42042 10.5812 3.54097 10.6033 3.67816C10.6181 3.77061 10.5375 3.77165 10.4913 3.84375C10.4847 3.85374 10.5062 3.90495 10.4689 3.92444C10.3754 3.97421 10.2594 3.99854 10.1611 4.05446C10.1401 4.06675 10.1913 4.11753 10.1216 4.10509C10.117 4.1043 10.0788 4.06706 10.0554 4.06375C10.0393 4.06155 10.0069 4.09359 9.98353 4.0848C9.96047 4.07673 9.98522 4.04483 9.95415 4.02721C9.92282 4.00977 9.88416 4.04159 9.85464 3.99292ZM0.387915 9.46769C0.421259 9.41481 0.27232 9.42996 0.315324 9.47545C0.317582 9.47763 0.3863 9.47041 0.387915 9.46769ZM2.07865 14.9533C2.09483 14.8644 1.99102 14.8871 1.97644 14.953C1.96205 15.0191 2.07382 14.9803 2.07865 14.9533ZM2.50488 15.441C2.5023 15.3514 2.32624 15.4701 2.40763 15.5067C2.41232 15.5088 2.50506 15.4462 2.50488 15.441ZM10.3805 3.65778C10.3789 3.65899 10.3942 3.69511 10.3964 3.69517C10.4483 3.69338 10.4176 3.6211 10.3805 3.65778ZM2.93414 15.9183C2.94307 15.8828 2.87719 15.8511 2.86592 15.8951C2.85684 15.9305 2.92302 15.9625 2.93414 15.9183ZM0.922572 7.11428C0.924541 7.11557 0.94752 7.10014 0.939322 7.09056C0.912863 7.05974 0.889619 7.09247 0.922572 7.11428ZM3.59788 16.7792C3.50629 16.647 3.58589 16.4631 3.67676 16.6137C3.69322 16.641 3.59089 16.5937 3.60293 16.6353C3.62509 16.7113 3.74209 16.683 3.74129 16.7786C3.74105 16.796 3.60278 16.7869 3.59751 16.7791C3.59764 16.7791 3.59776 16.7792 3.59788 16.7792ZM0.561509 9.41411C0.563334 9.41299 0.559598 9.37518 0.557497 9.37433C0.507486 9.36082 0.515053 9.43751 0.561509 9.41411ZM2.25581 6.21087C2.26009 6.21291 2.33311 6.16273 2.333 6.15794C2.32307 6.06817 2.17536 6.16941 2.25581 6.21087ZM1.10697 11.9265C1.16135 11.9585 1.17579 12.0063 1.12274 12.0498C1.11845 12.0085 1.11147 11.9676 1.10697 11.9265Z" fill="#963076"/>
</svg>
