<svg width="6" height="14" viewBox="0 0 6 14" fill="none" xmlns="http://www.w3.org/2000/svg">
<path d="M3.92399 1.23762C4.00059 1.37693 4.07133 1.57619 4.11407 1.72928C4.12766 1.77752 4.09357 1.7645 4.10184 1.79838C4.11814 1.86499 4.15297 1.91619 4.1667 1.98347C4.171 2.00551 4.12183 1.99563 4.1272 2.01833C4.15645 2.14164 4.20946 2.24858 4.24633 2.37172C4.42604 2.97425 4.59982 3.56793 4.73687 4.18782C4.78259 4.39349 4.80201 4.64881 4.86153 4.85702C4.86853 4.88129 4.90161 4.85919 4.90555 4.86328C4.96589 4.92673 4.88832 4.91861 4.8881 4.96806C4.88788 5.07782 4.89837 5.19182 4.91535 5.30115C4.92851 5.38643 4.94862 5.46871 4.97262 5.5439C4.99601 5.61601 5.04964 5.52581 5.02739 5.60814C5.02594 5.61386 4.9834 5.60489 4.98429 5.62579C4.98645 5.67411 5.01615 5.75774 5.02332 5.79379C5.03662 5.86274 5.04045 5.87406 5.05964 5.93795C5.08565 6.02523 5.10198 6.13503 5.14345 6.22593C5.15236 6.24516 5.18083 6.2053 5.19862 6.23514C5.21621 6.26458 5.24363 6.35089 5.2452 6.38311C5.24667 6.41513 5.21263 6.41366 5.20767 6.42121C5.16541 6.48363 5.28092 6.55669 5.28734 6.56933C5.39581 6.78394 5.42777 7.01719 5.42066 7.27539C5.42024 7.2825 5.42034 7.29095 5.42105 7.30043C5.43263 7.42262 5.51275 7.65747 5.48585 7.86465C5.48461 7.87639 5.48319 7.88781 5.48153 7.89942C5.45052 8.10655 5.38418 8.27529 5.31329 8.4631C5.30521 8.48399 5.35888 8.47726 5.34885 8.50314C5.24136 8.77799 5.07912 9.02187 4.88097 9.2214C4.86106 9.24132 4.85094 9.18745 4.82922 9.2056C4.69694 9.31951 4.46193 9.4514 4.51962 9.64819C4.43468 9.72455 4.33069 9.81422 4.23263 9.85591C4.1696 9.88261 4.18466 9.80712 4.14006 9.8746C4.12982 9.88988 4.1737 9.90318 4.15629 9.92388C4.084 10.0101 3.98373 10.0829 3.91691 10.1711C3.90324 10.1892 3.93158 10.2113 3.93122 10.2203C3.92757 10.2932 3.80539 10.2897 3.78784 10.2977C3.65156 10.3619 3.5887 10.4477 3.50658 10.5405C3.48792 10.562 3.54559 10.5675 3.52968 10.5886C3.48001 10.6539 3.43739 10.7206 3.42066 10.7589C3.39977 10.8137 3.3786 10.8679 3.35657 10.9214C3.34408 10.9517 3.31195 10.913 3.30396 10.9271C3.26945 10.9904 3.34094 11.0219 3.31181 11.0829C3.30582 11.0959 3.27328 11.0816 3.26905 11.0834C3.20262 11.1118 3.28 11.1619 3.28019 11.172C3.2843 11.3036 3.18661 11.376 3.18719 11.5062C3.18743 11.5216 3.23412 11.491 3.23219 11.5341C3.21966 11.8198 3.20752 12.128 3.16341 12.4241C3.1565 12.47 3.12464 12.436 3.12049 12.4388C3.05547 12.4836 3.13913 12.5172 3.14165 12.5327C3.15941 12.6542 3.07966 12.7588 3.17033 12.8533C3.15764 12.9214 3.1442 12.9899 3.12799 13.0587C3.10695 13.1337 3.12071 13.2475 3.10423 13.3919C3.09743 13.4402 3.09181 13.4824 3.07002 13.5453C3.06267 13.5629 3.05987 13.5783 3.03148 13.6173C3.01582 13.631 2.99007 13.69 2.87222 13.689C2.7603 13.6695 2.74928 13.6187 2.73411 13.6033C2.69522 13.5328 2.70089 13.5181 2.69299 13.4888C2.64884 13.2576 2.61514 13.0253 2.61673 12.7879C2.61666 12.7815 2.65989 12.7854 2.65957 12.7726C2.65662 12.6203 2.59756 12.6599 2.50213 12.5754C2.47813 12.5538 2.56003 12.4624 2.56587 12.4547C2.58737 12.4264 2.65306 12.4408 2.65664 12.4319C2.68409 12.358 2.4828 12.4036 2.46732 12.3134C2.46717 12.3105 2.50661 12.316 2.50902 12.3077C2.51663 12.2819 2.49786 12.2617 2.50671 12.2361C2.52742 12.1784 2.6229 12.1425 2.55127 12.072C2.54201 12.0632 2.4297 12.0988 2.42078 12.0181C2.41744 11.9857 2.38918 11.8458 2.38868 11.8053C2.38835 11.7647 2.43062 11.7842 2.43167 11.7811C2.45922 11.6654 2.48749 11.7015 2.54856 11.6329C2.60908 11.564 2.44077 11.6153 2.41704 11.5981C2.39341 11.5808 2.4162 11.4946 2.42562 11.4723C2.43516 11.4501 2.46397 11.4684 2.46792 11.4497C2.49281 11.3248 2.37166 11.4205 2.33582 11.3903C2.31007 11.3687 2.30224 11.3454 2.30334 11.3199C2.30621 11.2627 2.35682 11.1967 2.34998 11.1393C2.34732 11.1171 2.32371 11.1424 2.31571 11.1243C2.28427 11.0529 2.3096 10.996 2.24737 10.923C2.23718 10.9108 2.14112 10.868 2.18057 10.8063C2.18627 10.7974 2.22298 10.8046 2.21909 10.7709C2.21338 10.7204 2.18984 10.6337 2.16092 10.5874C2.13961 10.5533 2.10549 10.6142 2.1036 10.5622C2.10273 10.5391 2.14642 10.5661 2.14225 10.5234C2.13826 10.4808 2.0981 10.383 2.08177 10.3463C2.06556 10.3096 2.03643 10.3454 2.03268 10.3434C2.01088 10.3312 1.96337 10.2683 1.96072 10.2622C1.82335 9.9519 1.74532 9.63824 1.56877 9.35309C1.55497 9.33077 1.52546 9.36621 1.52296 9.36301C1.4651 9.29254 1.5985 9.30135 1.6022 9.22788C1.53021 9.27695 1.52652 9.23678 1.48793 9.18584C1.46926 9.16134 1.44777 9.19199 1.44343 9.1912C1.37709 9.17607 1.41958 9.11694 1.42742 9.10329C1.45625 9.05308 1.3893 9.0531 1.40824 9.01914C1.42694 8.98526 1.49247 9.00264 1.4621 8.94966C1.42671 8.94996 1.3781 9.02892 1.34409 8.99517C1.21637 8.86817 1.10814 8.55639 1.04191 8.43235C0.976239 8.30869 0.948228 8.27318 0.915816 8.19714C0.857684 8.06066 0.833576 8.13744 0.762984 8.07326C0.692343 8.00903 0.841968 7.97086 0.862482 7.94324C0.883041 7.91573 0.847678 7.92039 0.854362 7.89757C0.861075 7.8748 0.897512 7.8935 0.883699 7.85772C0.869976 7.82213 0.768237 7.76234 0.732867 7.76795C0.657862 7.77977 0.618367 7.85788 0.589264 7.75843C0.587626 7.75267 0.630651 7.74887 0.622685 7.72783C0.558726 7.56205 0.467761 7.40411 0.404109 7.23884C0.395353 7.21596 0.443664 7.21337 0.439017 7.19985C0.3916 7.05974 0.353699 7.14087 0.243696 7.10986C0.315965 7.08437 0.355191 7.04181 0.354742 6.98604C0.354812 6.96262 0.348509 6.93738 0.335768 6.90907C0.310951 6.8517 0.272204 6.87976 0.225815 6.85062C0.211627 6.84148 0.227906 6.78671 0.204519 6.78494C0.127675 6.77721 0.0592633 6.8453 0.0616642 6.71487C0.0620357 6.70928 0.104364 6.71765 0.102858 6.69907C0.0963845 6.58049 0.0192829 6.5763 0.00203936 6.44396C-0.011359 6.33932 0.0445578 6.16171 0.0678746 6.05288C0.187599 6.07008 0.174321 5.96722 0.100103 5.91032C0.11618 5.83983 0.127727 5.76321 0.155009 5.69859C0.164358 5.67643 0.194872 5.69981 0.199258 5.69777C0.267644 5.66797 0.19644 5.61863 0.197232 5.60285C0.209486 5.43375 0.308239 5.32308 0.298809 5.15537C0.298454 5.14943 0.221053 5.11484 0.292585 5.09383C0.297452 5.0926 0.317815 5.15374 0.343545 5.08446C0.369235 5.01526 0.456028 4.89798 0.450648 4.78917C0.449427 4.76277 0.403643 4.68268 0.469422 4.65202C0.478354 4.64787 0.499173 4.66214 0.514905 4.65701C0.565211 4.64001 0.488845 4.59901 0.568711 4.58534C0.600372 4.57984 0.631137 4.56742 0.655438 4.54743C0.692636 4.51644 0.714733 4.47098 0.705604 4.40298C0.705242 4.39949 0.648723 4.35546 0.660586 4.32458C0.67913 4.27631 0.717563 4.21277 0.737166 4.162C0.746399 4.13797 0.701396 4.13785 0.702327 4.1334C0.745852 3.96183 0.832737 3.86231 0.932277 3.70483C0.950341 3.67632 0.946772 3.56185 1.01856 3.52594C1.09695 3.48691 1.23996 3.65236 1.27875 3.48346C1.29514 3.41367 1.10837 3.21599 1.28251 3.17021C1.32953 3.0279 1.40043 2.90054 1.42207 2.75078C1.43422 2.6678 1.44191 2.58378 1.43457 2.49532C1.43369 2.48471 1.36538 2.44269 1.36943 2.41814C1.37559 2.38153 1.41192 2.36589 1.41752 2.34001C1.44187 2.23212 1.4272 2.12817 1.44804 2.0234C1.45588 1.98393 1.48848 2.00304 1.49802 1.9561C1.50766 1.90888 1.46713 1.86972 1.50039 1.80913C1.52567 1.76366 1.62762 1.73199 1.65039 1.67079C1.55904 1.65101 1.56907 1.60736 1.56042 1.52447C1.55874 1.50843 1.5236 1.51826 1.52117 1.51033C1.51057 1.47783 1.5424 1.45661 1.53025 1.42524C1.52734 1.4177 1.49615 1.4109 1.49202 1.40433C1.45569 1.34781 1.54257 1.28568 1.55761 1.2756C1.61507 1.23521 1.57972 1.20325 1.60678 1.16843C1.63371 1.13445 1.64347 1.19666 1.66471 1.15465C1.70158 1.08147 1.72397 0.985789 1.74501 0.901682C1.74928 0.885514 1.75344 0.869307 1.75748 0.853706C1.767 0.815644 1.71929 0.831884 1.7197 0.826196C1.72763 0.746996 1.78634 0.673103 1.7081 0.61789C1.93244 0.5912 1.695 0.567881 1.7455 0.461762C1.74943 0.453401 1.85382 0.445521 1.86711 0.482645C1.8803 0.52018 1.84341 0.571975 1.86029 0.624704C1.8647 0.636513 1.94997 0.720904 1.95366 0.732228C1.98502 0.816897 1.83011 0.794887 1.82123 0.796668C1.74675 0.813696 1.77592 0.874633 1.79439 0.915188C1.80101 0.926674 1.80639 0.936896 1.80689 0.942289C1.81647 1.04236 1.77687 1.11531 1.78225 1.19809C1.78565 1.25217 1.88378 1.27895 1.87199 1.31775C1.83342 1.44593 1.6849 1.46425 1.78087 1.6122C1.80141 1.64404 1.91535 1.6384 1.81164 1.71691C1.80512 1.7216 1.71346 1.778 1.75598 1.82802C1.76135 1.83425 1.79324 1.83971 1.79474 1.84689C1.80412 1.8952 1.77356 1.92104 1.77762 1.97231C1.78167 2.02369 1.79051 2.08579 1.77125 2.14046C1.75966 2.17341 1.6937 2.20867 1.67678 2.22294C1.62807 2.26366 1.69049 2.32259 1.63566 2.34476C1.58055 2.36728 1.51006 2.29963 1.46694 2.37254C1.54996 2.38606 1.63472 2.40347 1.71801 2.41861C1.70073 2.53801 1.67266 2.65534 1.65311 2.77547C1.64381 2.83817 1.63045 2.89934 1.61547 2.95865C1.60877 2.98488 1.6599 2.97012 1.65336 2.99923C1.62402 3.12247 1.55266 3.20199 1.51467 3.30666C1.48497 3.38809 1.48336 3.48927 1.45361 3.56686C1.34505 3.56379 1.31519 3.68264 1.26776 3.75178C1.2511 3.77615 1.22956 3.762 1.21228 3.77652C1.14805 3.83148 1.24067 3.83839 1.2426 3.86346C1.25228 3.96949 1.07651 3.88997 1.03394 3.99093C1.03124 3.99683 1.09593 4.1021 1.09813 4.11326C1.11238 4.18435 1.06149 4.10772 1.03948 4.13941C0.999708 4.1972 0.958419 4.23347 0.957813 4.32017C0.957617 4.34588 0.998797 4.41947 0.937239 4.44704C0.929145 4.45072 0.898113 4.43669 0.894678 4.44063C0.835238 4.51399 0.936213 4.54961 0.956194 4.60716C0.95969 4.6173 0.959775 4.62729 0.957399 4.63699C0.944567 4.68839 0.875462 4.73126 0.854529 4.73946C0.788604 4.7663 0.842606 4.69929 0.838105 4.69539C0.78539 4.64912 0.777807 4.71126 0.758279 4.75451C0.656776 4.7292 0.642791 4.79298 0.738514 4.79911C0.749026 4.79965 0.750911 4.76196 0.758279 4.75451C0.843485 4.8247 0.833327 4.89852 0.717761 4.94296C0.663601 4.96379 0.624791 4.91458 0.607963 5.02616C0.600319 5.07673 0.674715 5.08079 0.679428 5.12904C0.690218 5.23893 0.586408 5.34172 0.567 5.4427C0.56 5.47922 0.608061 5.45612 0.604641 5.48135C0.595855 5.5481 0.551413 5.59612 0.548998 5.66386C0.548848 5.66996 0.592371 5.66658 0.587686 5.68632C0.553586 5.83565 0.499411 5.95819 0.478517 6.10928C0.467782 6.18266 0.481696 6.31086 0.479183 6.38035C0.47152 6.50052 0.436862 6.6562 0.48497 6.74626C0.515589 6.80328 0.549567 6.77399 0.585012 6.78593C0.611723 6.7943 0.619893 6.81495 0.621397 6.84018C0.63045 6.89254 0.618903 6.95457 0.615629 6.96771C0.615363 6.96833 0.57305 6.91212 0.572592 6.9549C0.544592 6.99528 0.615094 6.96714 0.615629 6.96771C0.612046 6.98163 0.6726 7.10779 0.693274 7.12769C0.70448 7.13857 0.73417 7.11185 0.739371 7.11789C0.862512 7.26215 0.966861 7.4185 1.04955 7.59232C1.05061 7.59561 1.01052 7.61368 1.01347 7.62116C1.05398 7.72666 1.13651 7.76026 1.21086 7.82251C1.2855 7.88526 1.31377 7.95311 1.27758 8.03872C1.32128 8.09338 1.34419 8.19667 1.35606 8.25623C1.36807 8.31599 1.4454 8.27981 1.44943 8.28333C1.57613 8.39242 1.58074 8.4968 1.65606 8.64368C1.69194 8.7138 1.77913 8.84369 1.82841 8.91421C1.86763 8.96995 1.86951 9.01509 1.91033 9.064C1.91584 9.07064 1.94513 9.04519 1.94763 9.04677C2.02063 9.087 1.92312 9.10106 1.91533 9.12152C1.88678 9.19577 1.87345 9.23872 1.93956 9.30452C1.9547 9.31957 2.10069 9.31192 2.12486 9.34233C2.15596 9.38179 2.10495 9.38671 2.13838 9.42748C2.14119 9.431 2.16715 9.41696 2.1802 9.44607C2.24111 9.58106 2.29508 9.73427 2.36095 9.87409C2.36985 9.89327 2.40143 9.84939 2.41502 9.87689C2.4787 10.006 2.5386 10.1532 2.56949 10.2927C2.57694 10.3271 2.53853 10.3186 2.5322 10.3291C2.494 10.3931 2.59672 10.4237 2.60207 10.4336C2.73028 10.6632 2.71839 10.8764 2.82205 11.1237C2.82463 11.1297 2.84952 11.1501 2.8703 11.1774C2.89579 11.2103 2.91485 11.2526 2.87898 11.289C2.87469 11.2935 2.8077 11.359 2.87067 11.3879C2.8746 11.3898 2.90821 11.351 2.91583 11.4035C2.92337 11.4556 2.96847 11.5329 2.93834 11.6126C2.92892 11.638 2.86093 11.7059 2.93633 11.7597C2.94157 11.7629 3.10294 11.8391 3.01138 11.8933C2.99629 11.9022 2.89151 11.9149 2.95869 11.9835C2.97167 11.9966 2.99004 11.9654 3.01145 12.002C3.04443 12.0585 3.03032 12.1428 3.08913 12.208C3.09952 12.2194 3.17941 12.2619 3.13318 12.3141C3.12595 12.3223 3.08902 12.3153 3.08906 12.3389C3.08903 12.4512 3.13158 12.5598 3.12694 12.6735C3.12542 12.7141 3.06582 12.7041 3.05796 12.747C3.05019 12.7904 3.05052 12.8746 3.08381 12.9117C3.1172 12.9493 3.19799 12.8871 3.21673 12.9485C3.25861 13.0855 3.2796 13.2261 3.29696 13.3676C3.28941 13.362 3.31661 13.3954 3.24893 13.273C3.21815 13.2473 3.20081 13.1292 2.92419 13.0807C2.63241 13.0804 2.58063 13.2208 2.55049 13.2433C2.49862 13.3171 2.50595 13.3241 2.50019 13.3365C2.49453 13.3658 2.50758 13.333 2.5118 13.3163C2.51887 13.297 2.52342 13.2551 2.52553 13.1927C2.52769 13.1443 2.49349 13.1885 2.49609 13.1064C2.49817 13.061 2.50164 13.0031 2.51493 12.9324C2.54546 12.7642 2.54207 12.4715 2.60485 12.306C2.6637 12.1515 2.70127 12.3491 2.72645 12.2298C2.73842 12.1723 2.63429 12.1065 2.63131 12.0921C2.60073 11.9522 2.65016 11.8545 2.64215 11.7245C2.64054 11.6975 2.59649 11.7217 2.59562 11.6986C2.59232 11.6198 2.61704 11.5375 2.6203 11.461C2.62172 11.4265 2.58861 11.4299 2.5942 11.3983C2.60738 11.3226 2.62908 11.2563 2.66998 11.1861C2.6737 11.1798 2.70744 11.2307 2.71695 11.1751C2.73249 11.0844 2.78193 10.9783 2.77516 10.8674C2.77317 10.8343 2.70047 10.8156 2.76746 10.7605C2.78171 10.7488 2.86302 10.7899 2.80936 10.6924C2.80389 10.6821 2.77704 10.6167 2.78004 10.5561C2.78994 10.4929 2.81781 10.4358 2.85715 10.4156C2.88588 10.3981 2.97896 10.3837 2.99575 10.3394C2.99807 10.3328 2.94952 10.3324 2.96985 10.2963C3.04033 10.1746 3.12839 10.0877 3.20021 9.99713C3.21986 9.97259 3.15772 9.97602 3.1878 9.94069C3.27054 9.84376 3.38651 9.75213 3.47805 9.68663C3.51225 9.6622 3.51394 9.70705 3.5187 9.70778C3.59542 9.72035 3.56082 9.64097 3.56953 9.62664C3.62334 9.53931 3.70339 9.51883 3.76173 9.45109C3.77764 9.43271 3.73848 9.41559 3.73963 9.40977C3.75278 9.35108 3.77351 9.42775 3.80186 9.41196C3.88195 9.36736 3.95005 9.29797 4.00849 9.23274C4.02992 9.20871 3.97238 9.202 3.99178 9.18095C4.1055 9.05608 4.22319 8.93414 4.34047 8.82769C4.36259 8.80767 4.37839 8.84389 4.38849 8.84404C4.4594 8.84479 4.43668 8.74821 4.43877 8.73292C4.44975 8.66172 4.48871 8.65968 4.51493 8.60993C4.64374 8.36896 4.78105 8.09131 4.82533 7.86123C4.82833 7.8469 4.83114 7.83263 4.83378 7.81842C4.86362 7.69677 4.82903 7.62258 4.81413 7.2682C4.82082 7.18778 4.80928 7.09411 4.77443 6.98029C4.76864 6.96133 4.72921 6.99303 4.72364 6.97701C4.65253 6.76984 4.56789 6.51443 4.46921 6.25531C4.4611 6.23389 4.42948 6.27897 4.41512 6.24508C4.38509 6.17483 4.3588 6.08135 4.35102 6.00267C4.34715 5.96429 4.39743 6.00289 4.39286 5.96455C4.38258 5.87592 4.36193 5.7836 4.33438 5.69637C4.32268 5.65955 4.29182 5.72642 4.28007 5.67754C4.25979 5.59334 4.24168 5.51129 4.2258 5.42661C4.18289 5.19744 4.14534 4.97264 4.13675 4.73427C4.13606 4.71293 4.22105 4.67316 4.1938 4.63314C4.16826 4.63554 4.13916 4.64245 4.11234 4.64713C3.99708 4.21339 3.90728 3.77727 3.77084 3.34464C3.76504 3.32632 3.72919 3.37279 3.71783 3.33776C3.65185 3.13509 3.57084 2.94455 3.53992 2.72268C3.53681 2.70083 3.62086 2.68157 3.58618 2.62595C3.58006 2.61619 3.53479 2.52911 3.50863 2.51296C3.5048 2.51082 3.47391 2.54151 3.46168 2.51302C3.39089 2.34632 3.32864 2.16775 3.28105 1.99177C3.27342 1.9633 3.32462 1.97552 3.3195 1.95505C3.28255 1.80927 3.18918 1.67583 3.16607 1.53025C3.15091 1.43331 3.23224 1.43526 3.27707 1.35924C3.28341 1.34852 3.26018 1.29385 3.29704 1.27345C3.38974 1.22208 3.50708 1.20033 3.60448 1.14248C3.62553 1.13011 3.5676 1.06688 3.6411 1.08625C3.64611 1.0877 3.68845 1.13329 3.71253 1.13821C3.72924 1.1417 3.76056 1.10737 3.78514 1.11886C3.80971 1.13038 3.78646 1.16579 3.81927 1.18822C3.85227 1.21051 3.89057 1.17697 3.92399 1.23762ZM1.40994 8.52537C1.40139 8.59185 1.53471 8.52364 1.47474 8.4917C1.47169 8.49024 1.41029 8.52199 1.40994 8.52537ZM1.53739 2.7342C1.52666 2.74324 1.51948 2.75218 1.51524 2.76073C1.48955 2.81692 1.55771 2.8652 1.60944 2.82072C1.62669 2.8052 1.62992 2.7878 1.62506 2.77247C1.61223 2.74322 1.55313 2.7209 1.53739 2.7342ZM1.58111 2.02217C1.51736 2.09372 1.72523 2.13756 1.69582 2.04714C1.69418 2.04192 1.58482 2.01802 1.58111 2.02217ZM3.39217 1.56574C3.39371 1.5643 3.37829 1.52467 3.37606 1.52452C3.32351 1.52315 3.35431 1.6022 3.39217 1.56574ZM1.66031 1.31686C1.62681 1.33566 1.64427 1.41304 1.68561 1.39005C1.71877 1.37175 1.70181 1.29394 1.66031 1.31686ZM2.41967 11.1174C2.41777 11.1188 2.42408 11.149 2.43604 11.1451C2.47464 11.1323 2.45198 11.0938 2.41967 11.1174ZM1.8598 0.128454C1.81305 0.279644 1.63938 0.403941 1.67987 0.186653C1.68895 0.149352 1.72371 0.276604 1.74589 0.230418C1.78503 0.153826 1.69485 0.0660523 1.78238 0.000472517C1.79662 -0.00870351 1.86097 0.121789 1.85996 0.128805C1.85991 0.128688 1.85986 0.128571 1.8598 0.128454ZM1.27004 8.6421C1.26887 8.644 1.28857 8.68171 1.29078 8.68162C1.34344 8.67779 1.30369 8.60165 1.27004 8.6421ZM2.67704 12.8928C2.67328 12.8959 2.68713 12.9938 2.69159 12.9963C2.77719 13.0329 2.74942 12.8352 2.67704 12.8928ZM0.0713119 6.05155C0.0301727 5.9974 0.0342053 5.93721 0.100004 5.91052C0.0884981 5.95665 0.0805324 6.00405 0.0713119 6.05155Z" fill="#963076"/>
</svg>
