<svg width="10" height="5" viewBox="0 0 10 5" fill="none" xmlns="http://www.w3.org/2000/svg">
<path d="M8.05973 2.373C7.9567 2.35623 7.8295 2.30334 7.73648 2.2546C7.70709 2.23932 7.73068 2.21887 7.71081 2.20718C7.67194 2.18434 7.62944 2.18467 7.5916 2.15987C7.57916 2.15154 7.60883 2.11688 7.59553 2.10908C7.5229 2.06667 7.4455 2.05305 7.36878 2.01857C6.99249 1.84887 6.61631 1.69908 6.23558 1.52169C6.10976 1.46312 5.97067 1.36108 5.83359 1.31484C5.81767 1.30953 5.81094 1.34709 5.80677 1.34849C5.74086 1.3687 5.78796 1.3087 5.7627 1.28559C5.66204 1.19372 5.53578 1.1244 5.41747 1.07233C5.36723 1.05018 5.37737 1.14099 5.35082 1.0776C5.34889 1.07322 5.38106 1.04684 5.37009 1.03543C5.34528 1.00985 5.28686 0.981663 5.26615 0.964378C5.23145 0.935264 5.22086 0.927636 5.19201 0.907346C5.189 0.905207 5.18571 0.902898 5.18207 0.90036C5.13979 0.870291 5.09432 0.821258 5.03812 0.803681C5.02622 0.800119 5.02304 0.843134 5.00293 0.84103C4.983 0.838789 4.93835 0.815629 4.92566 0.800617C4.91311 0.785447 4.93138 0.758799 4.93113 0.750928C4.92831 0.68396 4.84041 0.743126 4.8332 0.743297C4.688 0.734537 4.57622 0.665111 4.4355 0.650698C4.32955 0.640234 4.21458 0.652921 4.11276 0.653638C3.99139 0.654425 3.88535 0.642071 3.76724 0.662744C3.75483 0.664915 3.77619 0.709439 3.76127 0.71218C3.67388 0.72835 3.5866 0.74524 3.50057 0.760303C3.4344 0.771633 3.36399 0.784254 3.29209 0.794859C3.27575 0.797288 3.28151 0.751206 3.26414 0.7514C3.15911 0.752138 2.97131 0.745042 2.99231 0.934814C2.92708 0.957313 2.84817 0.988166 2.77537 0.984682C2.72863 0.982406 2.74305 0.924177 2.7073 0.96439C2.69922 0.973438 2.73054 1.00166 2.71711 1.01256C2.66064 1.05838 2.58587 1.08421 2.53365 1.13642C2.52307 1.14713 2.54368 1.17619 2.5432 1.18374C2.53838 1.24541 2.44703 1.19885 2.43296 1.19969C2.32719 1.20634 2.27537 1.25721 2.19749 1.30101C2.17934 1.3112 2.22447 1.34001 2.20788 1.35129C2.12192 1.40902 2.02628 1.46022 1.92719 1.49324C1.90494 1.50056 1.90288 1.45495 1.89122 1.45665C1.84005 1.46455 1.86959 1.53584 1.82085 1.54475C1.81066 1.54668 1.79822 1.51385 1.79477 1.51143C1.74089 1.47341 1.762 1.55885 1.75668 1.56402C1.68988 1.63128 1.59588 1.58252 1.52482 1.63519C1.51618 1.64165 1.55823 1.66885 1.53258 1.68466C1.36349 1.78842 1.16356 1.87681 0.949155 1.90565C0.915479 1.90993 0.929322 1.87151 0.926054 1.86825C0.877468 1.81626 0.879457 1.90316 0.868283 1.90911C0.806072 1.94237 0.732647 1.91208 0.675612 1.94206C0.661747 1.95043 0.648963 1.96405 0.637522 1.98577C0.590266 1.97758 0.52833 1.98192 0.548926 1.97588C0.56561 1.98706 0.635808 1.86652 0.614843 1.85221C0.609893 1.83373 0.613619 1.85008 0.622419 1.86258C0.735653 2.04309 0.862507 2.2032 0.960203 2.39758C0.962184 2.40123 0.926657 2.42459 0.930794 2.4318C0.980274 2.51771 1.01542 2.45973 1.11422 2.44502C1.1382 2.44053 1.10779 2.54353 1.10638 2.55164C1.10036 2.58128 1.0465 2.61654 1.04699 2.62378C1.05333 2.6826 1.18565 2.52474 1.22759 2.56048C1.22871 2.56188 1.19857 2.58607 1.19974 2.59201C1.20325 2.61048 1.2246 2.60863 1.22765 2.62798C1.23433 2.67228 1.18246 2.75928 1.26021 2.7452C1.27014 2.74312 1.33223 2.64396 1.3697 2.67831C1.38442 2.69235 1.45871 2.7413 1.47596 2.76118C1.49301 2.78132 1.45797 2.80346 1.45856 2.80579C1.48955 2.8849 1.45685 2.88835 1.44839 2.96997C1.44103 3.05162 1.52316 2.89636 1.54556 2.88703C1.56797 2.87783 1.59073 2.93875 1.59522 2.9577C1.59923 2.97646 1.57346 2.98931 1.57938 3.002C1.61915 3.0852 1.65088 2.94246 1.68585 2.93016C1.7675 2.90012 1.74591 3.03596 1.78765 3.07268C1.79884 3.08255 1.80222 3.0508 1.8151 3.05454C1.86587 3.06966 1.87381 3.11971 1.944 3.11579C1.95507 3.11492 2.03667 3.07084 2.03566 3.1367C2.0354 3.14612 2.00813 3.16767 2.024 3.18539C2.04761 3.21173 2.09504 3.24951 2.13141 3.26141C2.15831 3.27018 2.16272 3.20826 2.18207 3.24202C2.19043 3.25708 2.14918 3.26595 2.16587 3.29183C2.18236 3.31707 2.23958 3.36116 2.26055 3.37946C2.28169 3.39728 2.29811 3.35749 2.30158 3.35694C2.31449 3.35573 2.34008 3.36477 2.3586 3.37368C2.36881 3.37782 2.37651 3.38147 2.37764 3.38264C2.52746 3.52687 2.65448 3.69607 2.86042 3.76082C2.8763 3.7658 2.88297 3.72219 2.88557 3.72254C2.94341 3.72738 2.85896 3.81527 2.88289 3.86593C2.90956 3.78325 2.92536 3.80675 2.9667 3.81173C2.98669 3.81401 2.98795 3.77879 2.99081 3.77618C3.03388 3.73749 3.03104 3.80581 3.03198 3.82032C3.0349 3.87347 3.07232 3.82392 3.07502 3.85936C3.07818 3.89467 3.03411 3.93222 3.0731 3.94334C3.09248 3.91674 3.08806 3.83091 3.1197 3.82658C3.23683 3.8109 3.42433 3.91555 3.5142 3.93706C3.60214 3.95903 3.63207 3.95753 3.68311 3.97659C3.77462 4.01038 3.74918 3.94589 3.81118 3.92662C3.87334 3.90712 3.82579 4.05001 3.83014 4.08267C3.83453 4.1153 3.84804 4.08405 3.85648 4.10275C3.86486 4.12143 3.83934 4.13998 3.86316 4.14962C3.88644 4.15923 3.96219 4.11144 3.97414 4.07933C4.00072 4.01151 3.97906 3.93458 4.04077 3.96789C4.04434 3.96985 4.02772 4.0071 4.04166 4.01265C4.15167 4.05539 4.2699 4.06953 4.38179 4.10725C4.3969 4.11247 4.37879 4.15416 4.38755 4.15769C4.47939 4.19454 4.45368 4.11868 4.51303 4.043C4.49124 4.14926 4.51271 4.21767 4.58587 4.22526C4.58918 4.22561 4.59223 4.22566 4.59505 4.22545C4.62974 4.22279 4.62916 4.17994 4.65794 4.15173C4.66727 4.14253 4.69492 4.17745 4.70232 4.15585C4.7268 4.08523 4.70523 4.00215 4.77634 4.04043C4.77944 4.04222 4.76593 4.0809 4.77692 4.0842C4.84777 4.10559 4.86271 4.03078 4.94107 4.02692C5.00225 4.0239 5.10866 4.07613 5.17816 4.08648C5.171 4.2076 5.24005 4.18259 5.2691 4.09982C5.3147 4.10476 5.36333 4.10127 5.40732 4.11362C5.42236 4.11783 5.41182 4.15276 5.41366 4.15659C5.44198 4.2166 5.46315 4.13549 5.47298 4.13241C5.5794 4.10253 5.6667 4.16368 5.76742 4.1015C5.77101 4.09925 5.77497 4.01495 5.8034 4.07582C5.80529 4.08002 5.77255 4.11913 5.82047 4.12096C5.86811 4.12283 5.96032 4.16502 6.02527 4.1231C6.04102 4.11304 6.07837 4.04291 6.11352 4.09466C6.11823 4.10169 6.11466 4.12606 6.12161 4.13917C6.14413 4.18094 6.15081 4.09534 6.17859 4.1663C6.20626 4.23725 6.25994 4.28858 6.32434 4.23461C6.32639 4.23303 6.33831 4.16469 6.35949 4.16442C6.39318 4.16405 6.44241 4.1749 6.4775 4.17207C6.4944 4.17068 6.48072 4.12961 6.48361 4.12864C6.59542 4.09745 6.67889 4.12878 6.80183 4.13601C6.82418 4.13743 6.88434 4.07569 6.93074 4.11758C6.98209 4.16341 6.94812 4.37216 7.05344 4.31534C7.09573 4.29263 7.13334 4.02821 7.2214 4.15763C7.30384 4.1336 7.38391 4.14046 7.46558 4.14244C7.53541 4.1411 7.60381 4.13518 7.67063 4.10372C7.6773 4.10064 7.68855 4.02544 7.70459 4.02403C7.72853 4.02208 7.74676 4.05369 7.76421 4.05319C7.83731 4.05192 7.89742 4.01162 7.96621 4.00258C7.99246 3.99899 7.99027 4.03539 8.02181 4.03085C8.05332 4.02619 8.06384 3.97653 8.11036 3.98878C8.14545 3.99814 8.19973 4.08255 8.24573 4.08196C8.22375 3.99104 8.25312 3.98566 8.29679 3.94736C8.3051 3.93996 8.28568 3.91173 8.28911 3.90663C8.30257 3.88523 8.32732 3.9059 8.33919 3.88304C8.34204 3.87754 8.33259 3.84706 8.33429 3.84086C8.34097 3.81598 8.35873 3.81394 8.37746 3.81955C8.39949 3.82607 8.42303 3.84293 8.42971 3.84765C8.47729 3.88065 8.47696 3.83605 8.5073 3.84375C8.53821 3.85106 8.51159 3.88761 8.54405 3.88622C8.61193 3.88305 8.68373 3.84179 8.74094 3.81362C8.76364 3.80226 8.7286 3.77245 8.73139 3.76995C8.77301 3.73608 8.84072 3.75143 8.82695 3.6628C8.96124 3.84015 8.84498 3.62913 8.93215 3.63341C8.93899 3.63388 8.99315 3.72269 8.98029 3.74649C8.96729 3.77036 8.92206 3.75737 8.90549 3.79293C8.90134 3.8014 8.90923 3.90717 8.90686 3.91508C8.88783 3.97717 8.80973 3.843 8.80363 3.83659C8.73677 3.76794 8.73836 3.88503 8.7287 3.89795C8.68573 3.95687 8.62488 3.96143 8.58216 4.00503C8.55403 4.03328 8.58752 4.12917 8.55746 4.13736C8.53212 4.14416 8.5082 4.14091 8.48574 4.13483C8.42011 4.11653 8.37186 4.07332 8.33193 4.17991C8.32024 4.21025 8.36791 4.31273 8.27713 4.24634C8.27127 4.24224 8.20227 4.17733 8.18555 4.23308C8.18339 4.24013 8.19091 4.2716 8.1867 4.27538C8.15848 4.30002 8.13123 4.27971 8.09891 4.29927C8.06654 4.31883 8.02776 4.34546 7.9856 4.34228C7.96008 4.34046 7.91855 4.2867 7.90469 4.27416C7.86532 4.23798 7.8425 4.31245 7.81421 4.26486C7.78619 4.21694 7.812 4.13329 7.75559 4.10837C7.76667 4.19172 7.77548 4.27766 7.78519 4.3617C7.6876 4.37426 7.58931 4.3677 7.49184 4.37374C7.48956 4.37385 7.48273 4.37469 7.48043 4.37471C7.46133 4.37506 7.44236 4.37603 7.42354 4.37789C7.40975 4.37934 7.42683 4.42351 7.41216 4.42622C7.35021 4.4375 7.29381 4.40904 7.22895 4.42643C7.17978 4.44 7.12726 4.49171 7.07585 4.50753C7.0364 4.41393 6.96043 4.45223 6.90304 4.44765C6.88297 4.44608 6.88219 4.42038 6.86734 4.41307C6.81131 4.38612 6.84278 4.46903 6.82906 4.48346C6.77011 4.54503 6.7507 4.35356 6.67632 4.36372C6.67232 4.3642 6.63152 4.46995 6.62526 4.4768C6.58554 4.52137 6.61564 4.4417 6.58848 4.43602C6.5392 4.42561 6.50352 4.40353 6.44871 4.43729C6.43256 4.44728 6.39669 4.51368 6.36111 4.46636C6.35642 4.46017 6.35667 4.42619 6.35311 4.42442C6.2889 4.39523 6.29387 4.50159 6.26 4.53968C6.2262 4.57777 6.16671 4.50727 6.15446 4.48665C6.1223 4.43339 6.17578 4.46211 6.17711 4.45664C6.19241 4.39172 6.15282 4.40487 6.12195 4.40095C6.11241 4.29687 6.07012 4.30513 6.08989 4.39729C6.09213 4.40735 6.11559 4.39649 6.12195 4.40095C6.1001 4.50461 6.05259 4.51998 5.99646 4.42636C5.97026 4.38243 5.99136 4.3294 5.91816 4.35108C5.88487 4.3608 5.90012 4.43227 5.87076 4.45275C5.80362 4.49946 5.71284 4.43405 5.64278 4.44502C5.6171 4.44902 5.64239 4.48824 5.62478 4.49231C5.57829 4.50321 5.53677 4.47359 5.4901 4.48831C5.48583 4.48969 5.49588 4.531 5.48122 4.53138C5.37003 4.53501 5.27399 4.50612 5.15859 4.50051C5.10321 4.49792 5.00171 4.51528 4.94463 4.50698C4.84458 4.49305 4.72755 4.42368 4.64197 4.43053C4.58698 4.43474 4.59389 4.47547 4.56888 4.50128C4.56845 4.50173 4.56801 4.50217 4.56757 4.50261C4.51638 4.55244 4.44814 4.44791 4.438 4.43174C4.43792 4.43124 4.48532 4.42606 4.4627 4.40262C4.45241 4.35733 4.43854 4.4316 4.438 4.43174C4.43127 4.42131 4.34044 4.40298 4.32014 4.40884C4.30955 4.4121 4.31134 4.45153 4.30589 4.45249C4.17745 4.4747 4.05043 4.47127 3.92374 4.43782C3.92161 4.43677 3.93012 4.3938 3.92506 4.39188C3.85248 4.36362 3.79853 4.41059 3.73256 4.43372C3.66567 4.45666 3.61773 4.43885 3.59183 4.35903C3.54406 4.36135 3.48129 4.31739 3.4459 4.29062C3.4106 4.26389 3.38998 4.34642 3.38617 4.34745C3.26751 4.3797 3.21288 4.31865 3.10102 4.28255C3.04818 4.26556 2.93579 4.24576 2.87271 4.23356C2.82306 4.22447 2.80099 4.19509 2.75304 4.18988C2.74646 4.18909 2.73849 4.22666 2.73612 4.22729C2.66913 4.24907 2.72833 4.17309 2.72462 4.15373C2.71192 4.08308 2.70452 4.04546 2.63316 4.04237C2.61735 4.04197 2.51584 4.13994 2.48498 4.13187C2.44606 4.1217 2.4822 4.08728 2.44151 4.07713C2.43806 4.07617 2.42373 4.10208 2.40265 4.0879C2.30434 4.02223 2.21108 3.93266 2.11971 3.8562C2.10719 3.84556 2.09222 3.89471 2.07336 3.87958C2.0319 3.84615 1.99126 3.80862 1.95447 3.76804C1.93808 3.74805 1.92101 3.72511 1.90417 3.69754C1.89624 3.6845 1.92307 3.66384 1.92643 3.65418C1.94521 3.59452 1.86961 3.64618 1.86512 3.64521C1.74341 3.61325 1.67588 3.49305 1.5088 3.44482C1.50002 3.44261 1.39186 3.48808 1.4004 3.40274C1.40077 3.39696 1.4124 3.31139 1.35947 3.34427C1.35616 3.34632 1.35361 3.39265 1.32413 3.37072C1.29509 3.34904 1.22926 3.34191 1.20961 3.27567C1.20357 3.25492 1.21525 3.16746 1.14019 3.19393C1.13597 3.1967 0.989508 3.27132 1.02528 3.17388C1.03132 3.15789 1.09665 3.07548 1.01837 3.08463C1.00323 3.08636 1.00528 3.1174 0.972898 3.11133C0.922343 3.1014 0.893358 3.04233 0.819897 3.04167C0.807403 3.04205 0.727634 3.06806 0.738036 3.00438C0.739818 2.99455 0.770637 2.9749 0.760267 2.96028C0.71074 2.89029 0.631132 2.84534 0.591123 2.76756C0.576844 2.73989 0.628391 2.71169 0.619272 2.67937C0.610453 2.64749 0.580286 2.59138 0.541007 2.58526C0.500819 2.57815 0.454188 2.66364 0.417272 2.63095C0.2776 2.50615 0.201549 2.33568 0.120522 2.17841C0.0978026 2.13508 0.0681247 2.09133 0.0409793 1.98211C0.0270463 1.91488 0.0216263 1.89649 0.0124089 1.8795C0.0128331 1.85713 -0.0370618 1.83121 0.0602898 1.62008C0.305833 1.2933 0.454994 1.37902 0.521922 1.35043C0.597082 1.34418 0.645591 1.34526 0.679647 1.34454C0.686379 1.34554 0.77087 1.33462 0.834388 1.3525C0.930099 1.37643 0.846755 1.45195 0.915367 1.45043C0.950489 1.44855 0.943336 1.33704 0.94877 1.33108C1.0062 1.26967 1.07608 1.28779 1.13733 1.24095C1.14962 1.23139 1.11692 1.20003 1.12754 1.19233C1.16389 1.16551 1.21486 1.16022 1.25223 1.13611C1.26903 1.12515 1.25022 1.0982 1.26723 1.09182C1.30781 1.07615 1.34905 1.06896 1.4015 1.07461C1.40634 1.07509 1.40289 1.12362 1.43245 1.10874C1.48066 1.0843 1.55367 1.07736 1.59217 1.01914C1.60358 1.00172 1.56673 0.936831 1.62736 0.961275C1.64008 0.966342 1.67572 1.04929 1.67717 0.958903C1.67744 0.943885 1.69316 0.813898 1.76056 0.852547C1.77833 0.862707 1.83796 0.912841 1.85182 0.891444C1.85356 0.888309 1.82275 0.859853 1.83702 0.847025C1.88779 0.802359 1.95057 0.770888 2.00432 0.725554C2.01864 0.713382 1.9741 0.691103 1.99614 0.674098C2.05673 0.62725 2.14526 0.589323 2.21765 0.564195C2.24438 0.554998 2.24412 0.594393 2.24771 0.596683C2.30543 0.634312 2.28276 0.553173 2.29003 0.54376C2.33588 0.486187 2.39951 0.495979 2.45076 0.457805C2.46494 0.447386 2.43598 0.418313 2.43745 0.413618C2.45387 0.366738 2.46225 0.44153 2.486 0.438022C2.55302 0.428267 2.61527 0.393794 2.6727 0.360957C2.69367 0.348912 2.64969 0.319522 2.66885 0.309155C2.78266 0.246762 2.91213 0.195555 3.04631 0.173301C3.07169 0.169193 3.0686 0.207498 3.07624 0.213224C3.12812 0.253776 3.15304 0.165143 3.16333 0.15427C3.20724 0.105427 3.2378 0.128617 3.2858 0.109403C3.30144 0.103172 3.31746 0.097237 3.33381 0.0916193C3.55386 0.0142963 3.8232 -0.00295274 4.03231 0.000381375C4.32517 0.00569254 4.5498 0.0535703 4.83339 0.1078C4.85152 0.111515 4.84388 0.0619589 4.85987 0.0646774C5.0671 0.102783 5.26344 0.194322 5.46428 0.298875C5.48085 0.307689 5.48029 0.255768 5.50809 0.269067C5.53698 0.282849 5.56809 0.301751 5.59727 0.323961C5.61306 0.336833 5.62897 0.352442 5.64132 0.368829C5.65352 0.384855 5.6114 0.402606 5.62441 0.41825C5.65557 0.455264 5.69775 0.484577 5.74378 0.50302C5.76366 0.510902 5.75857 0.455957 5.78256 0.469143C5.94566 0.557103 6.1195 0.632816 6.27917 0.767634C6.28997 0.776801 6.26402 0.865531 6.29834 0.861337C6.31055 0.838922 6.32239 0.811449 6.33413 0.786918C6.60585 0.889119 6.86619 1.02274 7.14521 1.12712C7.15694 1.13148 7.1528 1.07851 7.17556 1.08672C7.30759 1.1342 7.44088 1.16542 7.56281 1.25646C7.57489 1.2654 7.54114 1.34424 7.58545 1.34516C7.59326 1.34526 7.65768 1.35425 7.67891 1.3416C7.68189 1.33962 7.68311 1.29813 7.70295 1.30331C7.81842 1.33419 7.93466 1.3802 8.04174 1.43845C8.05898 1.44792 8.02694 1.48251 8.03913 1.48961C8.12612 1.53978 8.23675 1.53921 8.31555 1.60255C8.36827 1.64507 8.32535 1.70895 8.33717 1.78765C8.33884 1.79876 8.37583 1.81119 8.36609 1.85211C8.34169 1.95507 8.29118 2.06091 8.26732 2.17128C8.26213 2.19505 8.32034 2.18467 8.27389 2.23228C8.27069 2.23544 8.22834 2.24343 8.2137 2.25987C8.20352 2.27124 8.203 2.3156 8.18515 2.32874C8.16728 2.34185 8.16312 2.30332 8.13593 2.3169C8.10869 2.33073 8.10431 2.38014 8.05973 2.373ZM3.28922 4.16853C3.26268 4.121 3.22483 4.26578 3.27155 4.23933C3.27386 4.23788 3.29064 4.17088 3.28922 4.16853ZM7.53709 4.25099C7.50364 4.2136 7.48313 4.23783 7.48116 4.27294C7.473 4.28391 7.47362 4.29528 7.47606 4.30636C7.48774 4.31723 7.49294 4.32841 7.50047 4.33757C7.53946 4.38454 7.55367 4.26917 7.53709 4.25099ZM8.00627 4.12845C7.94332 4.08795 7.97439 4.29791 8.02475 4.24427C8.02771 4.2412 8.00999 4.13078 8.00627 4.12845ZM8.18269 1.76363C8.18257 1.76567 8.20884 1.77548 8.21005 1.77379C8.23779 1.73247 8.18534 1.71292 8.18269 1.76363ZM8.4556 3.95436C8.44492 3.94573 8.43319 3.94842 8.42452 3.95658C8.41249 3.96819 8.4071 3.9912 8.4259 4.00715C8.43156 4.01194 8.4378 4.01334 8.44366 4.01232C8.46487 4.00857 8.4808 3.97476 8.4556 3.95436ZM1.75457 3.13777C1.75515 3.13555 1.73838 3.12433 1.73278 3.13562C1.71491 3.17207 1.74493 3.17511 1.75457 3.13777ZM9.17402 3.60124C9.06623 3.645 8.92242 3.52175 9.04752 3.48129C9.07006 3.47411 9.02707 3.5538 9.06073 3.55472C9.12175 3.55655 9.10631 3.44172 9.18201 3.47081C9.19537 3.47634 9.18037 3.59902 9.17394 3.60155C9.17397 3.60145 9.17399 3.60134 9.17402 3.60124ZM3.30732 3.98865C3.30702 3.98659 3.28056 3.97876 3.27928 3.98045C3.25389 4.02342 3.30839 4.03952 3.30732 3.98865ZM0.881355 2.37184C0.883277 2.36791 0.844781 2.31766 0.840738 2.31865C0.759417 2.34343 0.839216 2.4478 0.881355 2.37184ZM5.17911 4.08976C5.21124 4.04333 5.24721 4.03903 5.26896 4.09975C5.23945 4.09559 5.20903 4.09397 5.17911 4.08976Z" fill="#963076"/>
</svg>
