<svg width="10" height="5" viewBox="0 0 10 5" fill="none" xmlns="http://www.w3.org/2000/svg">
<path d="M1.12765 2.373C1.23067 2.35623 1.35788 2.30334 1.45089 2.2546C1.48029 2.23932 1.4567 2.21887 1.47657 2.20718C1.51544 2.18434 1.55794 2.18467 1.59578 2.15987C1.60821 2.15154 1.57854 2.11688 1.59184 2.10908C1.66448 2.06667 1.74188 2.05305 1.8186 2.01857C2.19489 1.84887 2.57107 1.69908 2.95179 1.52169C3.07762 1.46312 3.21671 1.36108 3.35379 1.31484C3.36971 1.30953 3.37644 1.34709 3.38061 1.34849C3.44652 1.3687 3.39942 1.3087 3.42467 1.28559C3.52534 1.19372 3.6516 1.1244 3.76991 1.07233C3.82015 1.05018 3.81 1.14099 3.83656 1.0776C3.83849 1.07322 3.80632 1.04684 3.81729 1.03543C3.8421 1.00985 3.90052 0.981663 3.92122 0.964378C3.95592 0.935264 3.96652 0.927636 3.99537 0.907346C3.99838 0.905207 4.00166 0.902898 4.00531 0.90036C4.04759 0.870291 4.09305 0.821258 4.14926 0.803681C4.16116 0.800119 4.16434 0.843134 4.18445 0.84103C4.20438 0.838789 4.24903 0.815629 4.26172 0.800617C4.27426 0.785447 4.256 0.758799 4.25625 0.750928C4.25907 0.68396 4.34697 0.743126 4.35418 0.743297C4.49938 0.734537 4.61116 0.665111 4.75188 0.650698C4.85783 0.640234 4.9728 0.652921 5.07462 0.653638C5.19598 0.654425 5.30203 0.642071 5.42014 0.662744C5.43255 0.664915 5.41119 0.709439 5.42611 0.71218C5.5135 0.72835 5.60077 0.74524 5.68681 0.760303C5.75298 0.771633 5.82339 0.784254 5.89529 0.794859C5.91163 0.797288 5.90587 0.751206 5.92323 0.7514C6.02827 0.752138 6.21607 0.745042 6.19507 0.934814C6.2603 0.957313 6.33921 0.988166 6.41201 0.984682C6.45874 0.982406 6.44433 0.924177 6.48007 0.96439C6.48815 0.973438 6.45684 1.00166 6.47027 1.01256C6.52674 1.05838 6.60151 1.08421 6.65372 1.13642C6.6643 1.14713 6.6437 1.17619 6.64417 1.18374C6.649 1.24541 6.74035 1.19885 6.75442 1.19969C6.86018 1.20634 6.91201 1.25721 6.98989 1.30101C7.00804 1.3112 6.96291 1.34001 6.9795 1.35129C7.06546 1.40902 7.1611 1.46022 7.26019 1.49324C7.28244 1.50056 7.2845 1.45495 7.29615 1.45665C7.34733 1.46455 7.31779 1.53584 7.36653 1.54475C7.37672 1.54668 7.38916 1.51385 7.39261 1.51143C7.44649 1.47341 7.42538 1.55885 7.43069 1.56402C7.4975 1.63128 7.59149 1.58252 7.66255 1.63519C7.6712 1.64165 7.62915 1.66885 7.65479 1.68466C7.82389 1.78842 8.02382 1.87681 8.23822 1.90565C8.2719 1.90993 8.25806 1.87151 8.26132 1.86825C8.30991 1.81626 8.30792 1.90316 8.31909 1.90911C8.38131 1.94237 8.45473 1.91208 8.51177 1.94206C8.52563 1.95043 8.53841 1.96405 8.54986 1.98577C8.59711 1.97758 8.65905 1.98192 8.63845 1.97588C8.62177 1.98706 8.55157 1.86652 8.57254 1.85221C8.57748 1.83373 8.57376 1.85008 8.56496 1.86258C8.45173 2.04309 8.32487 2.2032 8.22717 2.39758C8.22519 2.40123 8.26072 2.42459 8.25658 2.4318C8.2071 2.51771 8.17196 2.45973 8.07316 2.44502C8.04917 2.44053 8.07959 2.54353 8.081 2.55164C8.08702 2.58128 8.14087 2.61654 8.14038 2.62378C8.13404 2.6826 8.00173 2.52474 7.95979 2.56048C7.95866 2.56188 7.98881 2.58607 7.98764 2.59201C7.98413 2.61048 7.96278 2.60863 7.95972 2.62798C7.95304 2.67228 8.00491 2.75928 7.92717 2.7452C7.91724 2.74312 7.85515 2.64396 7.81768 2.67831C7.80296 2.69235 7.72867 2.7413 7.71142 2.76118C7.69437 2.78132 7.7294 2.80346 7.72882 2.80579C7.69783 2.8849 7.73053 2.88835 7.73899 2.96997C7.74635 3.05162 7.66421 2.89636 7.64181 2.88703C7.61941 2.87783 7.59665 2.93875 7.59216 2.9577C7.58815 2.97646 7.61391 2.98931 7.60799 3.002C7.56823 3.0852 7.5365 2.94246 7.50153 2.93016C7.41988 2.90012 7.44147 3.03596 7.39973 3.07268C7.38854 3.08255 7.38516 3.0508 7.37227 3.05454C7.32151 3.06966 7.31357 3.11971 7.24338 3.11579C7.23231 3.11492 7.15071 3.07084 7.15171 3.1367C7.15198 3.14612 7.17925 3.16767 7.16338 3.18539C7.13977 3.21173 7.09234 3.24951 7.05597 3.26141C7.02906 3.27018 7.02466 3.20826 7.00531 3.24202C6.99695 3.25708 7.0382 3.26595 7.02151 3.29183C7.00501 3.31707 6.9478 3.36116 6.92683 3.37946C6.90568 3.39728 6.88927 3.35749 6.8858 3.35694C6.87289 3.35573 6.8473 3.36477 6.82878 3.37368C6.81857 3.37782 6.81087 3.38147 6.80974 3.38264C6.65992 3.52687 6.5329 3.69607 6.32696 3.76082C6.31108 3.7658 6.30441 3.72219 6.30181 3.72254C6.24397 3.72738 6.32842 3.81527 6.30449 3.86593C6.27781 3.78325 6.26202 3.80675 6.22067 3.81173C6.20069 3.81401 6.19943 3.77879 6.19657 3.77618C6.15349 3.73749 6.15634 3.80581 6.1554 3.82032C6.15247 3.87347 6.11506 3.82392 6.11236 3.85936C6.10919 3.89467 6.15327 3.93222 6.11428 3.94334C6.0949 3.91674 6.09931 3.83091 6.06768 3.82658C5.95055 3.8109 5.76305 3.91555 5.67318 3.93706C5.58523 3.95903 5.55531 3.95753 5.50427 3.97659C5.41276 4.01038 5.43819 3.94589 5.3762 3.92662C5.31403 3.90712 5.36159 4.05001 5.35724 4.08267C5.35285 4.1153 5.33934 4.08405 5.33089 4.10275C5.32252 4.12143 5.34804 4.13998 5.32422 4.14962C5.30094 4.15923 5.22519 4.11144 5.21324 4.07933C5.18666 4.01151 5.20832 3.93458 5.14661 3.96789C5.14303 3.96985 5.15966 4.0071 5.14572 4.01265C5.03571 4.05539 4.91748 4.06953 4.80559 4.10725C4.79048 4.11247 4.80859 4.15416 4.79983 4.15769C4.70799 4.19454 4.7337 4.11868 4.67435 4.043C4.69614 4.14926 4.67467 4.21767 4.60151 4.22526C4.5982 4.22561 4.59515 4.22566 4.59232 4.22545C4.55764 4.22279 4.55822 4.17994 4.52944 4.15173C4.52011 4.14253 4.49246 4.17745 4.48506 4.15585C4.46058 4.08523 4.48215 4.00215 4.41104 4.04043C4.40793 4.04222 4.42145 4.0809 4.41046 4.0842C4.33961 4.10559 4.32467 4.03078 4.24631 4.02692C4.18513 4.0239 4.07871 4.07613 4.00922 4.08648C4.01638 4.2076 3.94732 4.18259 3.91828 4.09982C3.87267 4.10476 3.82405 4.10127 3.78005 4.11362C3.76502 4.11783 3.77555 4.15276 3.77372 4.15659C3.7454 4.2166 3.72423 4.13549 3.7144 4.13241C3.60798 4.10253 3.52068 4.16368 3.41996 4.1015C3.41637 4.09925 3.41241 4.01495 3.38398 4.07582C3.38209 4.08002 3.41483 4.11913 3.36691 4.12096C3.31927 4.12283 3.22706 4.16502 3.16211 4.1231C3.14636 4.11304 3.10901 4.04291 3.07385 4.09466C3.06915 4.10169 3.07272 4.12606 3.06577 4.13917C3.04324 4.18094 3.03657 4.09534 3.00878 4.1663C2.98112 4.23725 2.92744 4.28858 2.86304 4.23461C2.86098 4.23303 2.84907 4.16469 2.82789 4.16442C2.79419 4.16405 2.74496 4.1749 2.70987 4.17207C2.69298 4.17068 2.70665 4.12961 2.70377 4.12864C2.59196 4.09745 2.50849 4.12878 2.38555 4.13601C2.3632 4.13743 2.30304 4.07569 2.25664 4.11758C2.20529 4.16341 2.23926 4.37216 2.13394 4.31534C2.09165 4.29263 2.05404 4.02821 1.96598 4.15763C1.88354 4.1336 1.80347 4.14046 1.72179 4.14244C1.65196 4.1411 1.58357 4.13518 1.51675 4.10372C1.51007 4.10064 1.49883 4.02544 1.48279 4.02403C1.45885 4.02208 1.44061 4.05369 1.42317 4.05319C1.35006 4.05192 1.28996 4.01162 1.22117 4.00258C1.19492 3.99899 1.19711 4.03539 1.16557 4.03085C1.13405 4.02619 1.12354 3.97653 1.07702 3.98878C1.04193 3.99814 0.98765 4.08255 0.941648 4.08196C0.96363 3.99104 0.934255 3.98566 0.89059 3.94736C0.882277 3.93996 0.9017 3.91173 0.89827 3.90663C0.88481 3.88523 0.860057 3.9059 0.848189 3.88304C0.845333 3.87754 0.85479 3.84706 0.853091 3.84086C0.846411 3.81598 0.828645 3.81394 0.809921 3.81955C0.787887 3.82607 0.764344 3.84293 0.757665 3.84765C0.710091 3.88065 0.710423 3.83605 0.68008 3.84375C0.649171 3.85106 0.675784 3.88761 0.643332 3.88622C0.575446 3.88305 0.503649 3.84179 0.446436 3.81362C0.423742 3.80226 0.458779 3.77245 0.455987 3.76995C0.41437 3.73608 0.346662 3.75143 0.360424 3.6628C0.22614 3.84015 0.342397 3.62913 0.255232 3.63341C0.248387 3.63388 0.194225 3.72269 0.207091 3.74649C0.220088 3.77036 0.265318 3.75737 0.28189 3.79293C0.286034 3.8014 0.278152 3.90717 0.28052 3.91508C0.299551 3.97717 0.377643 3.843 0.383745 3.83659C0.450613 3.76794 0.449017 3.88503 0.458678 3.89795C0.501647 3.95687 0.562501 3.96143 0.605218 4.00503C0.633347 4.03328 0.599857 4.12917 0.629914 4.13736C0.655255 4.14416 0.67918 4.14091 0.70164 4.13483C0.767271 4.11653 0.815517 4.07332 0.855449 4.17991C0.86714 4.21025 0.819471 4.31273 0.910245 4.24634C0.916113 4.24224 0.98511 4.17733 1.00183 4.23308C1.00399 4.24013 0.996464 4.2716 1.00067 4.27538C1.0289 4.30002 1.05615 4.27971 1.08846 4.29927C1.12084 4.31883 1.15962 4.34546 1.20178 4.34228C1.2273 4.34046 1.26882 4.2867 1.28269 4.27416C1.32205 4.23798 1.34488 4.31245 1.37316 4.26486C1.40119 4.21694 1.37538 4.13329 1.43179 4.10837C1.42071 4.19172 1.4119 4.27766 1.40219 4.3617C1.49978 4.37426 1.59807 4.3677 1.69553 4.37374C1.69782 4.37385 1.70465 4.37469 1.70694 4.37471C1.72605 4.37506 1.74501 4.37603 1.76384 4.37789C1.77762 4.37934 1.76055 4.42351 1.77521 4.42622C1.83716 4.4375 1.89356 4.40904 1.95843 4.42643C2.0076 4.44 2.06012 4.49171 2.11153 4.50753C2.15098 4.41393 2.22695 4.45223 2.28434 4.44765C2.30441 4.44608 2.30518 4.42038 2.32004 4.41307C2.37607 4.38612 2.3446 4.46903 2.35831 4.48346C2.41727 4.54503 2.43668 4.35356 2.51105 4.36372C2.51505 4.3642 2.55586 4.46995 2.56212 4.4768C2.60184 4.52137 2.57174 4.4417 2.5989 4.43602C2.64818 4.42561 2.68386 4.40353 2.73867 4.43729C2.75482 4.44728 2.79069 4.51368 2.82627 4.46636C2.83096 4.46017 2.8307 4.42619 2.83427 4.42442C2.89848 4.39523 2.89351 4.50159 2.92738 4.53968C2.96118 4.57777 3.02067 4.50727 3.03292 4.48665C3.06508 4.43339 3.0116 4.46211 3.01027 4.45664C2.99497 4.39172 3.03456 4.40487 3.06543 4.40095C3.07497 4.29687 3.11726 4.30513 3.09748 4.39729C3.09525 4.40735 3.07179 4.39649 3.06543 4.40095C3.08728 4.50461 3.13478 4.51998 3.19092 4.42636C3.21712 4.38243 3.19602 4.3294 3.26922 4.35108C3.30251 4.3608 3.28726 4.43227 3.31662 4.45275C3.38376 4.49946 3.47453 4.43405 3.5446 4.44502C3.57028 4.44902 3.54498 4.48824 3.5626 4.49231C3.60909 4.50321 3.65061 4.47359 3.69728 4.48831C3.70155 4.48969 3.6915 4.531 3.70616 4.53138C3.81735 4.53501 3.91339 4.50612 4.02879 4.50051C4.08417 4.49792 4.18567 4.51528 4.24274 4.50698C4.3428 4.49305 4.45983 4.42368 4.54541 4.43053C4.60039 4.43474 4.59348 4.47547 4.6185 4.50128C4.61893 4.50173 4.61936 4.50217 4.61981 4.50261C4.671 4.55244 4.73923 4.44791 4.74937 4.43174C4.74946 4.43124 4.70205 4.42606 4.72468 4.40262C4.73497 4.35733 4.74884 4.4316 4.74937 4.43174C4.75611 4.42131 4.84694 4.40298 4.86723 4.40884C4.87783 4.4121 4.87604 4.45153 4.88149 4.45249C5.00993 4.4747 5.13695 4.47127 5.26363 4.43782C5.26577 4.43677 5.25725 4.3938 5.26232 4.39188C5.3349 4.36362 5.38885 4.41059 5.45482 4.43372C5.52171 4.45666 5.56965 4.43885 5.59555 4.35903C5.64332 4.36135 5.70609 4.31739 5.74148 4.29062C5.77677 4.26389 5.7974 4.34642 5.80121 4.34745C5.91986 4.3797 5.9745 4.31865 6.08635 4.28255C6.1392 4.26556 6.25159 4.24576 6.31467 4.23356C6.36432 4.22447 6.38639 4.19509 6.43433 4.18988C6.44092 4.18909 6.44889 4.22666 6.45126 4.22729C6.51825 4.24907 6.45905 4.17309 6.46276 4.15373C6.47545 4.08308 6.48286 4.04546 6.55422 4.04237C6.57003 4.04197 6.67154 4.13994 6.7024 4.13187C6.74132 4.1217 6.70518 4.08728 6.74587 4.07713C6.74932 4.07617 6.76365 4.10208 6.78473 4.0879C6.88304 4.02223 6.97629 3.93266 7.06767 3.8562C7.08019 3.84556 7.09516 3.89471 7.11402 3.87958C7.15548 3.84615 7.19611 3.80862 7.23291 3.76804C7.2493 3.74805 7.26637 3.72511 7.28321 3.69754C7.29114 3.6845 7.26431 3.66384 7.26095 3.65418C7.24217 3.59452 7.31777 3.64618 7.32226 3.64521C7.44396 3.61325 7.5115 3.49305 7.67858 3.44482C7.68736 3.44261 7.79552 3.48808 7.78698 3.40274C7.78661 3.39696 7.77498 3.31139 7.82791 3.34427C7.83122 3.34632 7.83377 3.39265 7.86325 3.37072C7.89229 3.34904 7.95811 3.34191 7.97777 3.27567C7.9838 3.25492 7.97212 3.16746 8.04719 3.19393C8.0514 3.1967 8.19787 3.27132 8.1621 3.17388C8.15606 3.15789 8.09073 3.07548 8.16901 3.08463C8.18414 3.08636 8.1821 3.1174 8.21448 3.11133C8.26504 3.1014 8.29402 3.04233 8.36748 3.04167C8.37998 3.04205 8.45974 3.06806 8.44934 3.00438C8.44756 2.99455 8.41674 2.9749 8.42711 2.96028C8.47664 2.89029 8.55625 2.84534 8.59625 2.76756C8.61053 2.73989 8.55899 2.71169 8.56811 2.67937C8.57693 2.64749 8.60709 2.59138 8.64637 2.58526C8.68656 2.57815 8.73319 2.66364 8.77011 2.63095C8.90978 2.50615 8.98583 2.33568 9.06686 2.17841C9.08958 2.13508 9.11925 2.09133 9.1464 1.98211C9.16033 1.91488 9.16575 1.89649 9.17497 1.8795C9.17454 1.85713 9.22444 1.83121 9.12709 1.62008C8.88155 1.2933 8.73238 1.37902 8.66546 1.35043C8.5903 1.34418 8.54179 1.34526 8.50773 1.34454C8.501 1.34554 8.41651 1.33462 8.35299 1.3525C8.25728 1.37643 8.34062 1.45195 8.27201 1.45043C8.23689 1.44855 8.24404 1.33704 8.23861 1.33108C8.18117 1.26967 8.1113 1.28779 8.05005 1.24095C8.03776 1.23139 8.07045 1.20003 8.05984 1.19233C8.02348 1.16551 7.97252 1.16022 7.93515 1.13611C7.91834 1.12515 7.93715 1.0982 7.92015 1.09182C7.87957 1.07615 7.83833 1.06896 7.78588 1.07461C7.78104 1.07509 7.78449 1.12362 7.75493 1.10874C7.70672 1.0843 7.63371 1.07736 7.59521 1.01914C7.5838 1.00172 7.62065 0.936831 7.56002 0.961275C7.5473 0.966342 7.51166 1.04929 7.5102 0.958903C7.50994 0.943885 7.49422 0.813898 7.42682 0.852547C7.40905 0.862707 7.34941 0.912841 7.33555 0.891444C7.33382 0.888309 7.36463 0.859853 7.35035 0.847025C7.29959 0.802359 7.2368 0.770888 7.18306 0.725554C7.16874 0.713382 7.21327 0.691103 7.19124 0.674098C7.13064 0.62725 7.04211 0.589323 6.96973 0.564195C6.943 0.554998 6.94326 0.594393 6.93967 0.596683C6.88195 0.634312 6.90461 0.553173 6.89735 0.54376C6.85149 0.486187 6.78787 0.495979 6.73662 0.457805C6.72243 0.447386 6.7514 0.418313 6.74993 0.413618C6.7335 0.366738 6.72513 0.44153 6.70138 0.438022C6.63436 0.428267 6.57211 0.393794 6.51468 0.360957C6.49371 0.348912 6.53769 0.319522 6.51852 0.309155C6.40472 0.246762 6.27525 0.195555 6.14106 0.173301C6.11569 0.169193 6.11877 0.207498 6.11114 0.213224C6.05926 0.253776 6.03434 0.165143 6.02404 0.15427C5.98014 0.105427 5.94957 0.128617 5.90158 0.109403C5.88594 0.103172 5.86992 0.097237 5.85356 0.0916193C5.63351 0.0142963 5.36418 -0.00295274 5.15507 0.000381375C4.86221 0.00569254 4.63758 0.0535703 4.35398 0.1078C4.33586 0.111515 4.3435 0.0619589 4.32751 0.0646774C4.12027 0.102783 3.92394 0.194322 3.7231 0.298875C3.70653 0.307689 3.70709 0.255768 3.67929 0.269067C3.6504 0.282849 3.61929 0.301751 3.59011 0.323961C3.57432 0.336833 3.55841 0.352442 3.54606 0.368829C3.53385 0.384855 3.57597 0.402606 3.56297 0.41825C3.53181 0.455264 3.48963 0.484577 3.4436 0.50302C3.42372 0.510902 3.42881 0.455957 3.40482 0.469143C3.24171 0.557103 3.06788 0.632816 2.90821 0.767634C2.89741 0.776801 2.92336 0.865531 2.88904 0.861337C2.87682 0.838922 2.86499 0.811449 2.85325 0.786918C2.58153 0.889119 2.32118 1.02274 2.04217 1.12712C2.03044 1.13148 2.03458 1.07851 2.01182 1.08672C1.87978 1.1342 1.7465 1.16542 1.62457 1.25646C1.61248 1.2654 1.64623 1.34424 1.60193 1.34516C1.59412 1.34526 1.5297 1.35425 1.50847 1.3416C1.50549 1.33962 1.50427 1.29813 1.48443 1.30331C1.36896 1.33419 1.25272 1.3802 1.14564 1.43845C1.1284 1.44792 1.16044 1.48251 1.14825 1.48961C1.06126 1.53978 0.950628 1.53921 0.871829 1.60255C0.819106 1.64507 0.862026 1.70895 0.850209 1.78765C0.848537 1.79876 0.811552 1.81119 0.821288 1.85211C0.845684 1.95507 0.896195 2.06091 0.92006 2.17128C0.925243 2.19505 0.867038 2.18467 0.913487 2.23228C0.916691 2.23544 0.959038 2.24343 0.97368 2.25987C0.983855 2.27124 0.984376 2.3156 1.00223 2.32874C1.02009 2.34185 1.02426 2.30332 1.05145 2.3169C1.07869 2.33073 1.08306 2.38014 1.12765 2.373ZM5.89816 4.16853C5.9247 4.121 5.96255 4.26578 5.91582 4.23933C5.91352 4.23788 5.89674 4.17088 5.89816 4.16853ZM1.65029 4.25099C1.68374 4.2136 1.70424 4.23783 1.70622 4.27294C1.71438 4.28391 1.71375 4.29528 1.71131 4.30636C1.69964 4.31723 1.69443 4.32841 1.6869 4.33757C1.64791 4.38454 1.63371 4.26917 1.65029 4.25099ZM1.18111 4.12845C1.24406 4.08795 1.21299 4.29791 1.16262 4.24427C1.15966 4.2412 1.17738 4.13078 1.18111 4.12845ZM1.00469 1.76363C1.00481 1.76567 0.978539 1.77548 0.977332 1.77379C0.94959 1.73247 1.00204 1.71292 1.00469 1.76363ZM0.731776 3.95436C0.742461 3.94573 0.754189 3.94842 0.762859 3.95658C0.774888 3.96819 0.780276 3.9912 0.761483 4.00715C0.755816 4.01194 0.74958 4.01334 0.743716 4.01232C0.722511 4.00857 0.706574 3.97476 0.731776 3.95436ZM7.43281 3.13777C7.43223 3.13555 7.449 3.12433 7.45459 3.13562C7.47247 3.17207 7.44245 3.17511 7.43281 3.13777ZM0.0133596 3.60124C0.121151 3.645 0.264954 3.52175 0.139855 3.48129C0.117315 3.47411 0.160303 3.5538 0.126652 3.55472C0.0656252 3.55655 0.0810662 3.44172 0.00536692 3.47081C-0.00799324 3.47634 0.00700831 3.59902 0.0134392 3.60155C0.0134127 3.60145 0.0133861 3.60134 0.0133596 3.60124ZM5.88006 3.98865C5.88036 3.98659 5.90682 3.97876 5.9081 3.98045C5.93349 4.02342 5.87899 4.03952 5.88006 3.98865ZM8.30602 2.37184C8.3041 2.36791 8.3426 2.31766 8.34664 2.31865C8.42796 2.34343 8.34816 2.4478 8.30602 2.37184ZM4.00827 4.08976C3.97614 4.04333 3.94017 4.03903 3.91842 4.09975C3.94793 4.09559 3.97835 4.09397 4.00827 4.08976Z" fill="#963076"/>
</svg>
