<svg width="17" height="9" viewBox="0 0 17 9" fill="none" xmlns="http://www.w3.org/2000/svg">
<path d="M14.1211 1.91944C14.179 2.04 14.2794 2.18607 14.3621 2.29486C14.388 2.3291 14.4007 2.29735 14.4197 2.32068C14.4562 2.3651 14.4713 2.41956 14.5088 2.46287C14.5215 2.47739 14.5472 2.43674 14.5596 2.45249C14.628 2.5396 14.6665 2.63481 14.7257 2.72889C15.0154 3.19036 15.2624 3.66825 15.4891 4.16681C15.5636 4.33111 15.6778 4.52137 15.7208 4.7015C15.7257 4.72241 15.6867 4.72204 15.6851 4.72686C15.6608 4.80087 15.7249 4.75784 15.7471 4.7946C15.789 4.86344 15.8238 4.94355 15.8478 5.02035C15.8704 5.08939 15.8728 5.1555 15.8589 5.20022C15.8464 5.23565 15.7818 5.18649 15.8146 5.22558C15.8166 5.22869 15.8567 5.23095 15.8579 5.24157C15.8612 5.26655 15.8341 5.30243 15.8235 5.32053C15.8034 5.35654 15.7974 5.36202 15.7619 5.39651C15.7487 5.40907 15.7344 5.42371 15.7181 5.44041C15.6779 5.48281 15.6314 5.52962 15.5777 5.55819C15.5623 5.56622 15.5586 5.52036 15.5323 5.52976C15.506 5.53949 15.4468 5.57982 15.4295 5.60029C15.4129 5.62068 15.4374 5.64297 15.4371 5.65144C15.4344 5.72351 15.316 5.68916 15.3056 5.69152C15.1077 5.74794 14.9568 5.85235 14.7646 5.90831C14.6191 5.95019 14.4571 5.9715 14.3151 6.00116C14.146 6.03657 14.0033 6.08016 13.8341 6.09682C13.8163 6.09859 13.8315 6.04929 13.8098 6.05132C13.58 6.07257 13.3517 6.09405 13.1219 6.13224C13.099 6.13608 13.1301 6.17669 13.1067 6.18301C13.043 6.19992 12.9619 6.22588 12.8849 6.23174C12.7879 6.23898 12.6977 6.2173 12.6538 6.11689C12.5563 6.12165 12.438 6.12462 12.35 6.15688C12.2921 6.17756 12.3447 6.22529 12.2766 6.20263C12.2614 6.19756 12.2834 6.15913 12.2606 6.1545C12.1627 6.13495 12.0546 6.14106 11.9585 6.11391C11.939 6.1083 11.9469 6.07336 11.9417 6.06661C11.8987 6.01186 11.8138 6.09117 11.7958 6.09603C11.6611 6.1324 11.5668 6.10664 11.4419 6.09962C11.4129 6.09804 11.4502 6.05277 11.4223 6.04957C11.2781 6.03372 11.1224 6.03108 10.9734 6.05681C10.9404 6.06272 10.9722 6.10217 10.9567 6.10709C10.8889 6.12873 10.8685 6.05334 10.8017 6.07584C10.7877 6.08059 10.7991 6.11433 10.7969 6.11837C10.7634 6.1817 10.7192 6.10214 10.708 6.10179C10.6014 6.09646 10.536 6.16071 10.4565 6.19859C10.4352 6.20903 10.4123 6.21733 10.386 6.22157C10.3716 6.22381 10.3917 6.17291 10.3519 6.18185C10.0881 6.24093 9.82036 6.33689 9.5802 6.45253C9.5429 6.47045 9.58101 6.49263 9.57982 6.49729C9.55975 6.57071 9.50698 6.4986 9.49345 6.49971C9.38602 6.51105 9.31519 6.61037 9.21515 6.53746C8.80343 6.71525 8.36742 6.81145 7.98238 7.04482C7.97745 7.04769 8.00098 7.08378 7.99107 7.08934C7.87172 7.1568 7.87479 7.0866 7.76375 7.04155C7.73608 7.03017 7.70394 7.14358 7.70054 7.15226C7.68842 7.18411 7.73082 7.23521 7.72553 7.24241C7.68087 7.30014 7.62186 7.1024 7.54423 7.12978C7.54191 7.13096 7.56475 7.16312 7.55949 7.16898C7.54322 7.18729 7.51791 7.18024 7.50259 7.1995C7.46751 7.24391 7.48463 7.34408 7.39581 7.31351C7.38455 7.30944 7.35924 7.19444 7.2919 7.2239C7.26493 7.23582 7.14228 7.27653 7.11033 7.29563C7.07846 7.31472 7.11441 7.34211 7.1125 7.3445C7.03665 7.42357 7.07841 7.43092 7.05618 7.51667C7.03373 7.60217 6.98936 7.43208 6.96409 7.4201C6.93896 7.40815 6.88466 7.47028 6.87255 7.48953C6.86049 7.50878 6.88908 7.52429 6.87685 7.53703C6.79562 7.6207 6.8056 7.46947 6.76429 7.45419C6.66683 7.41785 6.64937 7.561 6.58333 7.59669C6.56546 7.60634 6.57149 7.57308 6.55371 7.57614C6.54818 7.57712 6.54291 7.57835 6.53785 7.57977C6.48241 7.59484 6.45112 7.63707 6.37607 7.61758C6.36146 7.61455 6.2943 7.54704 6.26388 7.60705C6.25918 7.61576 6.27797 7.64671 6.25054 7.65629C6.20959 7.67106 6.13156 7.67817 6.08702 7.66277C6.05449 7.6516 6.09745 7.60245 6.05526 7.61441C6.0362 7.61943 6.0665 7.65491 6.02991 7.66142C5.99319 7.66864 5.90314 7.64753 5.86989 7.63611C5.83648 7.62533 5.86649 7.59182 5.86449 7.58843C5.85273 7.56904 5.79721 7.53002 5.79179 7.52789C5.77714 7.52246 5.76245 7.51706 5.74769 7.51169C5.52399 7.41893 5.26389 7.28062 5.06047 7.08886C5.04388 7.07296 5.08284 7.04975 5.08058 7.04699C5.03108 6.98272 5.00693 7.11021 4.93909 7.1031C5.00118 7.04208 4.96445 7.03193 4.92828 6.98883C4.91052 6.96767 4.94355 6.95169 4.94387 6.94747C4.94619 6.88258 4.88122 6.91352 4.86739 6.91939C4.81513 6.93979 4.83124 6.87639 4.79567 6.88937C4.76017 6.90207 4.76056 6.9669 4.71912 6.93009C4.72772 6.89647 4.81195 6.86234 4.78883 6.82481C4.704 6.68564 4.44564 6.539 4.34829 6.45884C4.25205 6.38001 4.22442 6.34671 4.16413 6.30643C4.05339 6.23179 4.12897 6.21972 4.08829 6.1445C4.04694 6.06857 3.97538 6.20398 3.94509 6.21925C3.91489 6.23459 3.92782 6.20192 3.90522 6.20476C3.88264 6.20761 3.89103 6.24497 3.86143 6.22637C3.83222 6.20814 3.80336 6.10381 3.81708 6.0711C3.84663 6.00227 3.9274 5.97661 3.84433 5.93442C3.83955 5.93205 3.82505 5.97177 3.80809 5.96126C3.67331 5.87599 3.55292 5.76503 3.42135 5.67698C3.40306 5.66477 3.3874 5.70953 3.37641 5.70277C3.26221 5.63274 3.34681 5.61236 3.35052 5.50418C3.28812 5.59366 3.21335 5.61373 3.14126 5.54614C3.09794 5.50557 3.13778 5.47843 3.13267 5.42776C3.13118 5.41254 3.07812 5.40672 3.08778 5.38533C3.1193 5.31534 3.204 5.28404 3.10807 5.2373C3.10377 5.23533 3.08675 5.27386 3.0739 5.26495C2.99059 5.20732 3.03362 5.14368 2.96205 5.0628C2.90516 4.99862 2.76489 4.92866 2.68901 4.86663C2.60679 4.9558 2.5603 4.87306 2.59112 4.78689C2.54313 4.74582 2.4975 4.69573 2.44577 4.66234C2.42795 4.65078 2.41363 4.68565 2.40911 4.68658C2.33882 4.70177 2.37513 4.62398 2.36748 4.61227C2.31438 4.5348 2.2445 4.49143 2.18404 4.43462C2.14858 4.40051 2.11729 4.36223 2.09624 4.30976C2.09445 4.30495 2.14755 4.23903 2.07789 4.2566C2.07322 4.25794 2.07871 4.31737 2.03042 4.27364C1.98158 4.22939 1.86254 4.17373 1.82826 4.08071C1.81953 4.05792 1.83246 3.97182 1.76369 3.9754C1.75435 3.97589 1.74078 3.9969 1.72506 3.99956C1.67469 4.00763 1.72835 3.93989 1.65274 3.96318C1.57714 3.98626 1.48826 3.96658 1.47062 3.86052C1.46995 3.85721 1.51056 3.79909 1.49312 3.77664C1.46474 3.74047 1.41665 3.69371 1.39182 3.65203C1.37997 3.63212 1.42354 3.62308 1.42211 3.61926C1.36437 3.47678 1.28472 3.39603 1.20316 3.2494C1.18796 3.22216 1.20725 3.12033 1.14326 3.0823C1.09917 3.05632 1.01686 3.10141 0.959276 3.09863C0.925775 3.0977 0.900261 3.07901 0.896868 3.02073C0.892455 2.95574 1.10889 2.79198 0.94409 2.73871C0.901132 2.53051 0.769065 2.3712 0.742533 2.15708C0.741336 2.14754 0.799497 2.09411 0.791159 2.07388C0.778509 2.04351 0.740303 2.03787 0.73015 2.01623C0.687234 1.92701 0.684073 1.83143 0.647999 1.74337C0.634247 1.70955 0.605395 1.73352 0.589128 1.69352C0.572873 1.65342 0.606983 1.61085 0.566416 1.5632C0.535485 1.52684 0.431669 1.51734 0.401636 1.46523C0.489069 1.43212 0.473977 1.39505 0.473478 1.31909C0.473462 1.30459 0.509019 1.30768 0.510595 1.30026C0.517692 1.26984 0.484147 1.25563 0.493034 1.2258C0.495143 1.21856 0.525172 1.20773 0.528595 1.20122C0.558951 1.14569 0.468055 1.10324 0.45226 1.09592C0.392294 1.06823 0.424374 1.03416 0.395032 1.00681C0.36576 0.979651 0.361044 1.03709 0.336792 1.002C0.286521 0.929107 0.255159 0.823319 0.225342 0.741991C0.213585 0.709346 0.261602 0.717719 0.260854 0.712722C0.247551 0.641525 0.18092 0.587775 0.248126 0.522565C0.0245482 0.54762 0.254026 0.474652 0.179018 0.392421C0.173018 0.38596 0.0716103 0.410255 0.0673652 0.444516C0.0631206 0.478734 0.109164 0.512504 0.100822 0.560908C0.0988941 0.572355 0.0261139 0.659225 0.0231869 0.66875C0.000167724 0.742807 0.149523 0.700173 0.158652 0.700502C0.257734 0.705627 0.182215 0.807422 0.181504 0.827406C0.178428 0.919531 0.223032 0.981288 0.224261 1.0567C0.22533 1.10622 0.130948 1.14404 0.146031 1.1778C0.196243 1.29036 0.344091 1.28383 0.266435 1.43359C0.249938 1.46569 0.137029 1.4793 0.248828 1.53407C0.255918 1.53765 0.353115 1.57325 0.318158 1.62599C0.313753 1.63265 0.28319 1.64327 0.282738 1.65016C0.280339 1.69619 0.313834 1.71362 0.317737 1.76164C0.321482 1.80921 0.322754 1.86785 0.35071 1.91368C0.367446 1.94115 0.438097 1.9598 0.457046 1.96898C0.511326 1.99459 0.461488 2.06219 0.518813 2.06952C0.576545 2.0772 0.632775 2.00127 0.688044 2.05627C0.609816 2.08715 0.53065 2.12198 0.452518 2.15453C0.507605 2.29898 0.584747 2.43178 0.635266 2.57919C0.64145 2.59748 0.592223 2.59466 0.597752 2.61464C0.621309 2.69891 0.678093 2.75883 0.698324 2.84836C0.713731 2.91746 0.696758 3.00675 0.712633 3.08038C0.767111 3.0837 0.796484 3.11643 0.816899 3.15551C0.836685 3.19373 0.848853 3.23838 0.867661 3.27272C0.881394 3.29796 0.904461 3.28648 0.919942 3.30175C0.978162 3.35989 0.886176 3.36045 0.882149 3.38511C0.866758 3.49259 1.04512 3.42144 1.087 3.52013C1.0889 3.52489 1.02921 3.63486 1.02862 3.64713C1.02194 3.72394 1.06515 3.64017 1.09063 3.67177C1.13801 3.72964 1.18398 3.76038 1.20585 3.84933C1.21174 3.87487 1.19443 3.96323 1.26391 3.97401C1.27297 3.97541 1.29814 3.95241 1.3028 3.95538C1.38444 4.00906 1.30268 4.07592 1.30877 4.14073C1.31549 4.206 1.42513 4.2193 1.45134 4.21664C1.52011 4.21125 1.44747 4.17717 1.44983 4.17148C1.48037 4.10917 1.50974 4.15968 1.54306 4.18812C1.62457 4.12265 1.65974 4.16996 1.577 4.21742C1.56773 4.2224 1.55252 4.19148 1.54306 4.18812C1.49228 4.28466 1.53056 4.34516 1.6493 4.33022C1.70547 4.32363 1.72007 4.26402 1.77757 4.34985C1.80359 4.38843 1.74072 4.42715 1.75504 4.4693C1.78645 4.55883 1.90051 4.59674 1.96602 4.65927C1.97403 4.6668 1.97964 4.67262 1.98475 4.67872C2.00696 4.7052 1.95559 4.7106 1.96982 4.72967C2.00747 4.78034 2.0673 4.79659 2.10157 4.8502C2.1047 4.85515 2.06621 4.87538 2.07995 4.88922C2.18319 4.99434 2.29398 5.06361 2.40471 5.16826C2.45938 5.21997 2.53803 5.32642 2.59763 5.37692C2.69901 5.46298 2.85874 5.53237 2.93136 5.62149C2.9788 5.67945 2.93853 5.69803 2.94216 5.74021C2.94832 5.82116 3.09553 5.82641 3.11612 5.82511C3.11681 5.82508 3.07721 5.77413 3.11647 5.78221C3.16116 5.76384 3.11572 5.82447 3.11612 5.82511C3.12952 5.82439 3.22887 5.9056 3.24189 5.92873C3.24892 5.94131 3.2165 5.96439 3.22068 5.97041C3.32042 6.1128 3.43864 6.23776 3.57772 6.3428C3.5805 6.34432 3.60696 6.30926 3.61312 6.31323C3.69942 6.36729 3.71058 6.45068 3.7495 6.53005C3.78822 6.6092 3.8451 6.64721 3.93123 6.62456C3.97154 6.67449 4.05942 6.70998 4.11161 6.73028C4.16375 6.75054 4.11178 6.81815 4.11406 6.8225C4.18285 6.95743 4.2781 6.97763 4.39308 7.0692C4.44928 7.11398 4.54665 7.21522 4.5987 7.27181C4.64137 7.31813 4.67996 7.32468 4.71636 7.37179C4.72119 7.37805 4.69092 7.40209 4.6918 7.40472C4.71158 7.4802 4.74726 7.38942 4.76781 7.38503C4.84123 7.36775 4.88588 7.36325 4.9293 7.43452C4.93988 7.45138 4.90053 7.59039 4.9226 7.61746C4.95266 7.65338 4.96865 7.60539 4.9993 7.64346C5.00193 7.64664 4.98348 7.6697 5.00741 7.68617C5.1216 7.76464 5.25517 7.84099 5.40254 7.92554C5.42304 7.93691 5.37268 7.96304 5.40491 7.98146C5.44569 8.0044 5.49229 8.02788 5.54732 8.04867C5.64713 8.0867 5.76895 8.11995 5.88963 8.12628C5.93036 8.12814 5.91114 8.09132 5.92136 8.0833C5.98119 8.03463 6.04444 8.12666 6.05866 8.12911C6.30264 8.17946 6.49936 8.09863 6.69076 8.03477C6.73134 8.02108 6.77403 8.00958 6.82033 8.00187C6.8324 8.00008 6.95229 8.05606 6.96671 7.96811C6.96773 7.96224 6.98128 7.87269 7.03415 7.91263C7.03743 7.91513 7.02619 7.96273 7.06788 7.94396C7.10941 7.92525 7.18783 7.92743 7.23191 7.86404C7.24583 7.84406 7.26371 7.75302 7.34041 7.79395C7.34548 7.79692 7.47895 7.90335 7.47684 7.79846C7.47637 7.78123 7.43641 7.68348 7.52044 7.71131C7.53655 7.71677 7.52138 7.74704 7.55958 7.74919C7.61866 7.75243 7.67629 7.70217 7.75519 7.72412C7.76896 7.72808 7.83939 7.77911 7.85855 7.71467C7.86159 7.70457 7.83867 7.67533 7.85716 7.66459C7.94481 7.61347 8.05066 7.60084 8.13761 7.54401C8.16845 7.52394 8.13214 7.47643 8.16205 7.44959C8.19168 7.42284 8.25794 7.38365 8.3031 7.39518C8.34845 7.40665 8.33869 7.50645 8.39627 7.49364C8.64576 7.43823 8.8639 7.30407 9.09857 7.21387C9.1333 7.20052 9.11493 7.2413 9.16709 7.22379C9.35929 7.1591 9.69731 7.07671 9.84159 6.95809C9.95685 6.86295 9.77748 6.87641 9.87194 6.82248C9.91843 6.79634 10.0023 6.88058 10.0154 6.87996C10.1403 6.87632 10.2072 6.80729 10.3145 6.79101C10.3368 6.78763 10.3276 6.8348 10.3464 6.83151C10.4102 6.82081 10.4701 6.78425 10.5299 6.77172C10.5569 6.76618 10.5605 6.79904 10.584 6.79019C10.5924 6.78707 10.6006 6.78384 10.6087 6.78045C10.6461 6.76344 10.6786 6.74201 10.7147 6.70893C10.7188 6.70536 10.6812 6.67091 10.7182 6.66267C10.7777 6.64966 10.8527 6.61038 10.929 6.63738C10.9517 6.64559 10.9551 6.71984 11.0005 6.66688C11.0102 6.65595 10.9955 6.56626 11.0535 6.64303C11.0639 6.65552 11.1568 6.76065 11.2075 6.69548C11.2209 6.67821 11.257 6.60625 11.2861 6.61926C11.29 6.6213 11.2721 6.66053 11.2962 6.66566C11.3805 6.6831 11.4724 6.68523 11.563 6.70451C11.587 6.70972 11.5478 6.74841 11.5837 6.75488C11.6831 6.7728 11.8118 6.77206 11.9137 6.76606C11.9516 6.76379 11.928 6.72772 11.931 6.72418C11.979 6.6665 11.9985 6.75004 12.0131 6.75578C12.1014 6.79019 12.1731 6.7557 12.2562 6.77013C12.279 6.77399 12.2608 6.81228 12.2652 6.81599C12.3115 6.8524 12.2791 6.78045 12.31 6.77416C12.3951 6.7562 12.4901 6.76296 12.5754 6.77038C12.6068 6.77316 12.5701 6.81755 12.5984 6.8195C12.6918 6.82633 12.7853 6.82855 12.8806 6.82471C12.9587 6.82161 13.0376 6.81376 13.112 6.80079C13.144 6.79521 13.1229 6.76077 13.1294 6.75262C13.1719 6.69572 13.2413 6.76935 13.2566 6.77593C13.3279 6.80605 13.3524 6.77379 13.4145 6.77594C13.7145 6.78773 14.0827 6.72441 14.3613 6.65972C14.7255 6.57483 14.9996 6.47112 15.3471 6.34364C15.3694 6.33519 15.3645 6.38733 15.3841 6.38049C15.6354 6.28909 15.8711 6.14692 16.1103 5.96719C16.13 5.95211 16.1307 6.00911 16.1635 5.98545C16.1694 5.98123 16.1753 5.97681 16.1813 5.97221C16.2311 5.93535 16.3169 5.85489 16.3738 5.7596C16.4035 5.70908 16.3269 5.74824 16.3561 5.69858C16.424 5.58294 16.4833 5.43183 16.5082 5.29509C16.5188 5.23613 16.5528 5.33221 16.5621 5.25355C16.5776 5.09653 16.5575 4.96255 16.5282 4.84584C16.4717 4.6262 16.3943 4.42527 16.2807 4.23873C16.2696 4.22048 16.1776 4.23583 16.1786 4.18935C16.2012 4.1772 16.2292 4.16667 16.2541 4.1556C16.1118 3.74529 15.9106 3.37507 15.7223 2.9943C15.7143 2.97824 15.7715 2.9851 15.7563 2.95386C15.6683 2.77323 15.5929 2.5923 15.4557 2.43206C15.4421 2.41617 15.3711 2.4646 15.3551 2.40587C15.3523 2.39544 15.3204 2.31006 15.326 2.28105C15.327 2.27695 15.3699 2.27279 15.3574 2.24667C15.2834 2.09417 15.1903 1.94253 15.0855 1.8067C15.0683 1.78456 15.0459 1.83113 15.0334 1.8156C14.946 1.70709 14.898 1.56082 14.7955 1.4669C14.7264 1.40374 14.6812 1.47055 14.5956 1.46954C14.5836 1.46953 14.5527 1.42341 14.5159 1.44392C14.4229 1.49467 14.3389 1.57819 14.2381 1.62963C14.2163 1.64041 14.202 1.56968 14.1741 1.63479C14.1722 1.63907 14.1824 1.6914 14.1723 1.7128C14.1652 1.72749 14.1207 1.7369 14.1152 1.76127C14.1093 1.78496 14.1495 1.78182 14.1472 1.81746C14.1445 1.85322 14.0967 1.86804 14.1211 1.91944ZM4.34473 6.81988C4.40724 6.82109 4.31273 6.93719 4.29836 6.87627C4.29777 6.87318 4.34157 6.81974 4.34473 6.81988ZM0.690882 2.39276C0.774027 2.42808 0.698033 2.50234 0.634913 2.47828C0.571784 2.45397 0.66564 2.38193 0.690882 2.39276ZM0.517651 1.76863C0.591089 1.82003 0.395115 1.90185 0.409328 1.81378C0.410084 1.80867 0.513373 1.7656 0.517651 1.76863ZM14.6901 1.66427C14.6882 1.66493 14.6665 1.63231 14.6676 1.63044C14.6976 1.58808 14.7412 1.6534 14.6901 1.66427ZM0.35474 1.14767C0.389346 1.15975 0.379611 1.2322 0.336651 1.21742C0.302097 1.20557 0.311697 1.13267 0.35474 1.14767ZM6.60474 7.66651C6.60475 7.66416 6.63026 7.65344 6.63376 7.66555C6.64497 7.70459 6.60485 7.70603 6.60474 7.66651ZM0.000281131 0.120056C0.0603995 0.269226 0.25777 0.303782 0.181867 0.145084C0.168123 0.116339 0.151416 0.227835 0.123305 0.194938C0.0719679 0.134649 0.15989 0.0524287 0.0795447 0.000541854C0.0648912 -0.00880303 -0.00350682 0.111702 0.000143762 0.120406C0.000190049 0.120289 0.000235746 0.120173 0.000281131 0.120056ZM4.48489 6.70429C4.48683 6.70339 4.51637 6.72729 4.51593 6.72951C4.49973 6.77872 4.43982 6.73025 4.48489 6.70429ZM8.09218 7.04911C8.09283 7.04441 8.17488 7.01098 8.17882 7.0137C8.24837 7.07134 8.08261 7.13911 8.09218 7.04911ZM2.68569 4.86793C2.68881 4.80489 2.65677 4.76654 2.5913 4.78697C2.62347 4.81327 2.65382 4.84159 2.68569 4.86793Z" fill="#963076"/>
</svg>
