<svg width="15" height="30" viewBox="0 0 15 30" fill="none" xmlns="http://www.w3.org/2000/svg">
<path d="M9.96349 29.287C10.2285 28.9303 10.5148 28.4381 10.7156 28.0603C10.7796 27.9401 10.7215 27.9865 10.7637 27.9042C10.8471 27.7411 10.9411 27.6038 11.0191 27.4416C11.0449 27.3876 10.9719 27.4312 10.9995 27.3756C11.1503 27.0716 11.3147 26.7962 11.4703 26.4905C11.8389 25.7657 12.1968 25.043 12.5486 24.3171C12.9306 23.5256 13.2807 22.7076 13.5129 21.8265C13.6664 21.2671 13.728 20.556 13.7882 19.9805C13.7961 19.9132 13.8293 19.9566 13.8334 19.9441C13.8602 19.862 13.8618 19.8249 13.8547 19.8C13.8449 19.7649 13.8183 19.7532 13.8195 19.6765C13.828 19.153 13.8799 18.5746 13.9423 18.0751C13.9689 17.8623 14.0212 18.0833 14.001 17.8647C13.9996 17.8495 13.9555 17.9 13.957 17.841C13.9603 17.7085 13.9916 17.4562 13.9982 17.354C14.011 17.1551 14.0145 17.123 14.0318 16.9349C14.0549 16.6793 14.0638 16.3713 14.0963 16.0974C14.1034 16.0381 14.1367 16.1199 14.1515 16.0264C14.1665 15.9331 14.1833 15.6828 14.1798 15.5988C14.1767 15.5122 14.1425 15.5469 14.1364 15.5313C14.085 15.4052 14.1855 15.1188 14.1879 15.079C14.1912 15.0406 14.194 14.9988 14.1958 14.9612C14.1974 14.9073 14.1978 14.8603 14.1852 14.7939C14.1686 14.7378 14.1538 14.5868 13.9431 14.5282C13.6185 14.53 13.6317 14.6417 13.5458 14.6931C13.4208 14.8146 13.3295 14.9369 13.2405 15.0572C13.0645 15.2989 12.9095 15.5418 12.736 15.7828C12.6066 15.9605 12.4567 16.1672 12.3278 16.2846C12.317 16.2908 12.3878 16.2316 12.4792 16.2756C12.5435 16.3159 12.523 16.3175 12.5221 16.3048C12.511 16.2788 12.4971 16.2219 12.4881 16.1692C12.4689 16.0583 12.4577 15.9388 12.4478 15.8228C12.4066 15.2945 12.3846 14.8302 12.373 14.2996C12.3718 14.2434 12.4208 14.3078 12.4194 14.2393C12.416 14.0791 12.4111 13.9184 12.4027 13.7569C12.3986 13.7032 12.3981 13.6489 12.3644 13.5582C12.3463 13.5145 12.3127 13.4438 12.2264 13.3899C12.138 13.3358 12.0466 13.3404 12.0003 13.3477C11.8311 13.3906 11.7885 13.4084 11.8339 13.4041C11.6015 13.4013 11.4441 13.0721 11.3696 12.7027C11.3557 12.6369 11.3285 12.7296 11.3123 12.6631C11.2102 12.2515 11.1386 11.5445 11.3234 11.2872C11.3212 10.9893 11.3238 10.6229 11.288 10.3516C11.2645 10.1758 11.2203 10.3472 11.2377 10.1315C11.2413 10.083 11.2818 10.1453 11.284 10.0727C11.2867 9.97699 11.2854 9.87832 11.2809 9.77968C11.2718 9.657 11.2672 9.52746 11.1728 9.37139C11.0761 9.18474 10.7766 9.16856 10.6671 9.21722C10.6087 9.23437 10.601 9.21643 10.5892 9.20711C10.5857 9.20415 10.5821 9.20216 10.5771 9.20261C10.3832 9.23716 10.4015 9.2985 10.3327 9.28716C10.3097 9.2824 10.2842 9.27303 10.2587 9.26082C9.96948 9.1122 9.78327 8.92445 9.57109 8.68429C9.51731 8.62199 9.61636 8.66492 9.56669 8.60403C9.30974 8.28716 9.08801 7.91945 8.89489 7.5567C8.85193 7.47571 8.85061 7.56909 8.82826 7.53115C8.73112 7.36198 8.78506 7.29213 8.70132 7.12625C8.68393 7.09096 8.65962 7.12407 8.65347 7.11877C8.55686 7.03509 8.60325 6.91311 8.59547 6.88565C8.49905 6.53367 8.34825 6.33366 8.26951 5.98493C8.26045 5.94339 8.32673 6.02523 8.29883 5.90909C8.11164 5.13424 7.97392 4.29933 7.79367 3.51432C7.7634 3.38879 7.74892 3.48554 7.74335 3.47819C7.65665 3.36745 7.72036 3.26727 7.71268 3.22318C7.7075 3.19409 7.70158 3.16651 7.69506 3.14044C7.6257 2.86424 7.5176 2.61944 7.57077 2.40919C7.40981 1.7342 7.42129 1.13841 7.36669 0.351166C7.32849 0.251925 7.32225 0.178758 7.20211 0.0558206C7.15086 -0.0205299 6.92494 -0.0156629 6.87847 0.0528544C6.81468 0.107913 6.79227 0.150127 6.76319 0.199695C6.67142 0.373109 6.62722 0.538689 6.58312 0.701684C6.4986 1.0301 6.44284 1.35899 6.39939 1.68964C6.39706 1.70679 6.44412 1.68486 6.43939 1.71856C6.38417 2.12591 6.3359 2.03656 6.20862 2.28977C6.17659 2.35412 6.23511 2.57576 6.23896 2.59505C6.25297 2.66575 6.32636 2.60779 6.32745 2.63082C6.33455 2.82058 6.1365 2.75584 6.09427 3.00271C6.0933 3.01045 6.1362 2.98456 6.13641 3.00581C6.13719 3.07173 6.11127 3.13437 6.11358 3.19898C6.1189 3.34849 6.20938 3.41469 6.1142 3.6269C6.10196 3.65345 5.99429 3.59047 5.96178 3.81219C5.94924 3.90079 5.87848 4.28776 5.86407 4.39442C5.84993 4.5037 5.90165 4.43724 5.9017 4.44536C5.89251 4.69891 5.91946 4.66216 5.95267 4.74225C5.95776 4.75655 5.96282 4.77434 5.96767 4.79774C6.00247 4.95909 5.84293 4.87742 5.80945 4.93338C5.77573 4.98921 5.77072 5.21305 5.77481 5.26847C5.77845 5.32389 5.81488 5.26284 5.81361 5.31122C5.80599 5.63127 5.70206 5.43146 5.65539 5.52878C5.54575 5.75888 5.64035 5.96953 5.60992 6.19213C5.60162 6.25226 5.58213 6.19806 5.56895 6.25037C5.51649 6.45697 5.53004 6.59187 5.43521 6.81727C5.41975 6.85501 5.29506 7.01995 5.31152 7.15489C5.31393 7.1743 5.3605 7.13605 5.33955 7.22389C5.33317 7.25016 5.32495 7.28078 5.31536 7.31327C5.27918 7.44171 5.20173 7.60116 5.13109 7.69025C5.06576 7.77161 5.09033 7.64485 5.02841 7.75783C4.999 7.80751 5.09025 7.7425 5.03077 7.83512C4.97485 7.93165 4.75997 8.11716 4.66326 8.16265C4.56988 8.21272 4.60233 8.14827 4.59345 8.15029C4.57395 8.1537 4.53574 8.16531 4.49468 8.17528C4.43713 8.18855 4.3579 8.19254 4.34727 8.19439C4.19779 8.22008 4.01791 8.21437 3.83394 8.32213C3.05331 8.86136 3.32425 9.80852 3.48401 10.503C3.50173 10.5724 3.44775 10.5381 3.45003 10.5488C3.50203 10.7933 3.55664 10.5734 3.64123 10.7278C3.58302 10.7277 3.58184 10.7681 3.59396 10.8357C3.60069 10.876 3.61419 10.9262 3.61151 10.9731C3.60324 11.0313 3.57162 10.9917 3.56816 10.9975C3.52195 11.0132 3.51541 11.0805 3.49888 11.1063C3.45588 11.183 3.35331 11.1486 3.31002 11.1912C3.30636 11.1946 3.30373 11.1979 3.30199 11.201C3.29578 11.2131 3.30207 11.2236 3.30849 11.2333C3.31532 11.2432 3.32225 11.2521 3.31412 11.2612C3.30685 11.27 3.28429 11.2793 3.23359 11.2872C3.18348 11.2636 3.28963 11.1654 3.16688 11.1707C2.7205 11.1858 1.86425 11.2629 1.46258 11.4277C1.44865 11.4331 1.43558 11.4385 1.42331 11.4437C1.0408 11.6155 0.975495 11.8382 0.968882 12.069C0.970954 12.1909 0.984277 12.2617 0.986797 12.3109C0.998638 12.4387 0.953694 12.4196 0.985742 12.6095C1.04058 12.87 1.14192 12.6971 1.18322 12.722C1.22516 12.7443 1.20799 12.7912 1.24077 12.8256C1.27329 12.859 1.2579 12.7648 1.30251 12.8556C1.34515 12.9462 1.41813 13.2217 1.40698 13.2695C1.38099 13.3708 1.25411 13.2928 1.40865 13.5234C1.41762 13.5365 1.427 13.4729 1.4596 13.524C1.71602 13.9301 1.98316 14.3452 2.16466 14.7814C2.18896 14.8417 2.21147 14.7727 2.22603 14.8084C2.30522 15.0109 2.29321 15.0762 2.27192 15.12C2.25062 15.1563 2.21722 15.1786 2.15408 15.1986C2.27005 15.2192 2.24583 15.4098 1.93843 15.5142C1.7623 15.5743 1.77849 15.5171 1.65703 15.517C1.62053 15.5168 1.50479 15.5793 1.47635 15.5631C1.3852 15.5102 1.48419 15.4048 1.19014 15.5054C1.17719 15.5099 1.22831 15.5389 1.18287 15.5517C0.9174 15.6266 0.849148 15.5787 0.597495 15.6214C0.566173 15.6271 0.533337 15.6349 0.499164 15.6455C0.360621 15.6856 0.141124 15.8135 0.053583 16.0387C-0.0348983 16.2598 0.00562791 16.4768 0.0379023 16.6288C0.152126 16.6033 0.193567 16.8723 0.163793 17.0115C0.238666 17.1936 0.329252 17.3843 0.429943 17.5423C0.464626 17.5965 0.474742 17.5424 0.481995 17.5477C0.593991 17.6258 0.566508 17.7376 0.58537 17.7753C0.763378 18.1227 0.987021 18.3669 1.1573 18.6759C1.18283 18.7232 1.20915 18.7756 1.23243 18.8281C1.23843 18.8419 1.17975 18.9063 1.2916 18.9707C1.29917 18.975 1.25915 18.8363 1.365 19.0034C1.47169 19.1717 1.70199 19.4747 1.80578 19.735C1.83123 19.7982 1.85599 19.9797 1.96954 20.0719C1.9848 20.0841 1.99603 20.0549 2.02066 20.0711C2.09988 20.1242 2.04837 20.2062 2.16039 20.2577C2.27256 20.3094 2.42138 20.4637 2.51502 20.7329C2.51811 20.7414 2.49175 20.8324 2.53581 20.9088C2.60618 21.0306 2.71641 21.1982 2.78826 21.3263C2.82257 21.3876 2.76398 21.369 2.76931 21.38C2.98248 21.8041 3.18087 22.0783 3.45577 22.5053C3.50653 22.5841 3.59708 22.8421 3.73313 22.9693C3.88333 23.1073 3.94114 22.8314 4.15233 23.2227C4.18275 23.2771 4.1944 23.3544 4.20914 23.436C4.24236 23.5952 4.28458 23.7797 4.48417 23.8971C4.82353 24.3963 5.19824 24.8174 5.50987 25.3316C5.52842 25.3622 5.54651 25.3926 5.56454 25.4236C5.57914 25.4487 5.57057 25.565 5.60972 25.6201C5.66806 25.702 5.72733 25.7279 5.77015 25.7857C5.94974 26.0267 6.08453 26.2687 6.26122 26.499C6.32861 26.5864 6.3334 26.5345 6.41442 26.6376C6.49565 26.7398 6.51319 26.8382 6.64379 26.9611C6.74336 27.0539 6.90153 27.0928 7.02902 27.2112C6.99751 27.2456 7.00275 27.2846 7.03308 27.3358C7.06595 27.3821 7.12804 27.4406 7.20716 27.5165C7.23762 27.5456 7.18214 27.5444 7.1956 27.5595C7.2503 27.6219 7.32692 27.6441 7.37956 27.703C7.39241 27.7173 7.37498 27.744 7.38463 27.7572C7.46619 27.8716 7.68866 27.9262 7.72627 27.9337C7.8713 27.966 7.90732 28.034 8.01098 28.0703C8.11419 28.1056 7.98475 28.0082 8.09996 28.0581C8.33846 28.1614 8.63565 28.3086 8.87934 28.407C8.97645 28.4465 8.89425 28.4588 8.90777 28.4653C9.10631 28.5583 9.32695 28.587 9.41735 28.7043C9.54015 28.6084 9.55893 28.6441 9.61742 28.6995C9.66153 28.7336 9.7301 28.7758 9.86149 28.771C9.88664 28.7698 9.92644 28.6698 9.83642 28.6451C9.78136 28.6297 9.70658 28.629 9.62935 28.6188L9.63932 28.621C9.59171 28.6094 9.54236 28.594 9.49749 28.5704C9.46949 28.5566 9.33644 28.4098 9.31668 28.3959C9.16045 28.2914 9.08107 28.4249 9.06838 28.4295C8.92917 28.4751 8.77063 28.2942 8.72308 28.2645C8.50189 28.13 8.29768 28.0517 8.12078 27.928C8.00544 27.8467 8.04474 27.7516 7.95019 27.6995C7.64096 27.5236 7.4499 27.5653 7.25842 27.2606C7.22818 27.2102 7.29501 27.1742 7.21328 27.1174L7.23451 27.1371C7.21201 27.118 7.17658 27.0954 7.12194 27.0663C7.10718 27.0595 6.91782 26.9703 6.88399 26.8507C6.87982 26.8359 6.90486 26.8154 6.89509 26.7996C6.82934 26.6935 6.75717 26.6449 6.68319 26.5299C6.60921 26.4147 6.52543 26.2721 6.42429 26.1516C6.36336 26.0791 6.24319 26.0145 6.20488 25.9859C6.09543 25.9053 6.07309 25.7514 5.98517 25.7151C5.8964 25.6779 5.92219 25.8531 5.77356 25.6973C5.83825 25.643 5.89898 25.5791 5.96137 25.5207C5.88265 25.4082 5.80271 25.2969 5.72227 25.186C5.52908 24.9196 5.33061 24.6582 5.1377 24.387C5.10381 24.3392 5.17557 24.3613 5.14008 24.3093C4.98997 24.0905 4.82584 23.9237 4.66982 23.6974C4.581 23.5684 4.50094 23.4191 4.4135 23.2763C4.38748 23.2319 4.35711 23.1817 4.32887 23.1371C4.17634 23.0929 4.02428 22.8062 3.89513 22.6135C3.84965 22.5461 3.83045 22.5638 3.79241 22.5179C3.65171 22.3468 3.77747 22.3895 3.7578 22.3313C3.67339 22.0794 3.49688 22.1589 3.34571 21.8893C3.33768 21.8753 3.3267 21.6508 3.31878 21.6239C3.2679 21.4511 3.27322 21.6162 3.21252 21.5252C3.1013 21.3579 3.01185 21.2494 2.92261 21.0296C2.89681 20.9656 2.87196 20.7908 2.7637 20.6988C2.74949 20.6867 2.72465 20.7117 2.71602 20.7004C2.56225 20.4938 2.65175 20.4356 2.61179 20.2907C2.57157 20.1452 2.39666 19.9846 2.35544 19.9548C2.2483 19.8766 2.38058 20.0469 2.37886 20.0549C2.36063 20.153 2.28941 20.004 2.22261 19.8971C2.1231 19.9333 2.04108 19.7762 2.15355 19.7859C2.16593 19.7871 2.20624 19.8779 2.22261 19.8971C2.25723 19.7504 2.17268 19.5748 1.98236 19.4367C1.89328 19.3727 1.89606 19.4803 1.75872 19.208C1.6953 19.0836 1.78581 19.0953 1.73882 18.9782C1.67477 18.8184 1.55794 18.6539 1.43904 18.4937C1.36159 18.3896 1.28482 18.2905 1.22639 18.1956C1.17244 18.1079 1.2608 18.1694 1.22515 18.1088C1.13055 17.9475 1.01638 17.8268 0.932929 17.6622C0.925493 17.6474 0.981689 17.6603 0.952547 17.6116C0.738244 17.2444 0.524894 16.9179 0.443445 16.5429C0.425417 16.4557 0.42399 16.3339 0.451696 16.2653C0.478109 16.1968 0.516343 16.1683 0.573367 16.1332C0.607508 16.1129 0.652508 16.0919 0.709932 16.0734C1.03756 15.9726 1.40459 15.8599 1.69163 15.7966C1.92212 15.7435 1.885 15.7947 1.99669 15.7882C2.10555 15.7778 2.25021 15.7201 2.39457 15.5868C2.56068 15.4692 2.60441 15.1229 2.567 15.0891C2.56802 15.0851 2.57709 15.216 2.53467 15.3023C2.49508 15.3836 2.46232 15.4208 2.50723 15.3082C2.51647 15.1607 2.56366 15.0977 2.567 15.0891C2.56626 15.0863 2.56532 15.082 2.56411 15.0765C2.55494 15.0075 2.43375 14.6207 2.40477 14.5487C2.39184 14.5049 2.43751 14.5138 2.42984 14.4911C2.24248 13.9549 1.95734 13.5121 1.714 13.0753C1.70928 13.0678 1.67647 13.0996 1.66585 13.0817C1.51759 12.8318 1.49549 12.6411 1.46767 12.429C1.45898 12.3581 1.45142 12.2948 1.44284 12.2387C1.42546 12.1246 1.40788 12.0688 1.36981 12.0124C1.38926 11.9381 1.45431 11.8366 1.57474 11.771C1.57834 11.7689 1.58193 11.7669 1.58552 11.7651C1.68923 11.7162 1.73259 11.7914 1.74211 11.7899C2.11653 11.7619 2.35874 11.7035 2.80107 11.6562C2.93602 11.641 3.14866 11.6316 3.38089 11.5928C3.51998 11.5661 3.66874 11.5349 3.8209 11.4244C3.95159 11.3389 4.04719 11.1269 4.03998 10.9985C4.04059 10.8676 4.01282 10.7942 4.00076 10.7361C3.99167 10.6978 3.98261 10.6618 3.9752 10.6264C3.97033 10.6036 4.01327 10.6157 4.01268 10.6084C4.00294 10.4142 3.94024 10.5293 3.91337 10.4962C3.81882 10.3835 3.76219 10.3101 3.74093 10.084C3.73563 10.031 3.83905 9.86162 3.83644 9.77572C3.83284 9.66226 3.78911 9.709 3.79222 9.59124C3.79281 9.58138 3.82138 9.58119 3.81822 9.51192C3.8031 9.18394 3.87628 8.90306 4.08115 8.77959C4.10613 8.76384 4.10083 8.80928 4.12603 8.80529C4.12612 8.80694 4.12573 8.8082 4.12533 8.80858C4.12573 8.79019 4.32956 8.81129 4.69864 8.69024C4.93113 8.59452 5.11725 8.45043 5.26193 8.29485C5.33897 8.20918 5.26447 8.23779 5.27476 8.21339C5.3351 8.06884 5.51872 7.95113 5.53901 7.91955C5.64078 7.7753 5.715 7.62416 5.76858 7.47323C5.94336 6.97027 5.98679 6.52165 6.11535 5.99393C6.12454 5.95704 6.26588 5.69179 6.21191 5.55436C6.20836 5.54505 6.15241 5.40722 6.2278 5.31147C6.23252 5.30572 6.25788 5.38816 6.28024 5.25746C6.29869 5.15123 6.34961 4.99993 6.37059 4.85575C6.37709 4.81637 6.38209 4.77073 6.38258 4.73055C6.38274 4.66742 6.33629 4.49935 6.4313 4.33647C6.4384 4.32464 6.62954 4.07829 6.54851 3.9603C6.53509 3.94138 6.428 3.94292 6.51772 3.73906C6.53481 3.70116 6.54569 3.77747 6.57805 3.67486C6.62833 3.51428 6.6361 3.29785 6.71643 3.10605C6.73041 3.07345 6.82626 2.93734 6.79301 2.81105C6.78783 2.79116 6.74704 2.8202 6.75396 2.7573C6.78678 2.45822 6.86533 2.15402 6.8995 1.8533C6.91153 1.74818 6.84532 1.78895 6.85241 1.67665C6.8589 1.56658 6.89205 1.34123 6.94369 1.2355C6.99485 1.13181 7.05455 1.27142 7.10176 1.10787C7.15807 0.91705 7.21511 0.719811 7.27349 0.575072C7.28725 0.540883 7.30243 0.509616 7.30821 0.499339C7.29286 0.480738 7.37663 0.540861 7.06235 0.612327C6.90145 0.622048 6.79592 0.527847 6.77778 0.506142C6.74704 0.471909 6.75067 0.468991 6.75045 0.468886C6.7558 0.475983 6.76777 0.499432 6.78229 0.539646C6.76743 0.452666 6.78869 0.602013 6.78887 0.668752C6.7928 0.752603 6.79622 0.842522 6.8006 0.932292C6.80921 1.11265 6.82138 1.29524 6.83736 1.47882C6.84824 1.59689 6.80698 1.50264 6.82292 1.67815C6.86157 2.11934 6.96433 2.77087 7.12879 3.2992C7.18817 3.4946 7.24002 3.72943 7.29176 3.89029C7.41969 4.30259 7.36859 3.7627 7.4471 4.08404C7.4842 4.23659 7.40986 4.42586 7.41347 4.46542C7.44566 4.84393 7.54013 5.09585 7.59736 5.43568C7.60932 5.50581 7.55287 5.44649 7.56365 5.50633C7.60038 5.71149 7.66892 5.91968 7.71566 6.11456C7.73653 6.20151 7.70077 6.1939 7.72471 6.27339C7.78202 6.46333 7.8449 6.6286 7.93356 6.80416C7.94163 6.82002 7.94374 6.6945 7.99038 6.83365C8.06634 7.05913 8.19561 7.32585 8.2768 7.59171C8.30118 7.6706 8.23312 7.70473 8.35572 7.84487C8.3821 7.87407 8.43991 7.7924 8.46347 8.01176C8.46535 8.04792 8.54328 8.4122 8.69854 8.52452C8.73869 8.55483 8.86335 8.61132 8.91307 8.70027C8.91971 8.71262 8.85445 8.69072 8.90105 8.76196C9.06666 9.01201 9.28164 9.25021 9.51418 9.46793C9.5769 9.52604 9.4523 9.47493 9.54827 9.56057C9.65109 9.65085 9.77195 9.74138 9.90326 9.82297C10.0237 9.89842 10.216 9.98977 10.4486 9.97398C10.6795 9.95483 10.807 9.86636 10.8575 9.84618C10.8661 9.84175 10.8723 9.83866 10.8759 9.83665C10.88 9.83008 10.8697 9.79762 10.8693 9.79378C10.8742 9.7555 10.6793 9.76776 10.6644 9.73377C10.6027 9.6569 10.651 9.74404 10.652 9.81496C10.663 9.92562 10.6742 10.0396 10.6703 10.1631C10.6682 10.2294 10.6286 10.1828 10.6252 10.196C10.5918 10.3318 10.6617 10.2301 10.6696 10.3169C10.6913 10.5609 10.6815 10.8372 10.6715 11.0916C10.6678 11.1852 10.6244 11.0791 10.6216 11.1631C10.6062 11.6614 10.5986 12.192 10.6968 12.7233C10.7166 12.8239 10.7417 12.7548 10.7527 12.7745C10.8278 12.9076 10.8084 13.1401 10.8215 13.198C10.8736 13.4468 10.9415 13.5419 11.1212 13.762C11.2619 13.9295 11.5101 14.0694 11.7478 14.0958C12.0574 14.1137 12.1836 14.0054 12.1076 14.0412C12.0811 14.0454 11.9839 14.0593 11.8694 13.9949C11.758 13.9291 11.7246 13.8486 11.712 13.8204C11.6903 13.7592 11.7011 13.7776 11.7 13.7936C11.7289 14.4091 11.7392 15.0725 11.7784 15.6365C11.7911 15.8163 11.8064 15.9934 11.8358 16.1777C11.8518 16.2711 11.8674 16.3648 11.9102 16.489C11.941 16.5579 11.9411 16.6206 12.0843 16.7659C12.1547 16.8401 12.3482 16.9198 12.4962 16.8828C12.6394 16.8509 12.6946 16.7978 12.7456 16.7557C13.2828 16.1595 13.5081 15.659 13.9251 15.2004C13.9595 15.1647 13.9588 15.2328 13.9887 15.2033C14.0095 15.183 14.0301 15.1653 14.0388 15.1593C14.0385 15.1507 14.0711 15.171 13.9096 15.1974C13.8267 15.2157 13.6402 15.1379 13.5937 15.064C13.5322 14.9854 13.5347 14.96 13.5275 14.941C13.5219 14.9151 13.5263 14.932 13.5254 14.9553C13.5118 15.453 13.4641 16.0076 13.4059 16.547C13.3995 16.6053 13.3634 16.5169 13.3516 16.6107C13.3272 16.8022 13.3065 17.0463 13.3019 17.2422C13.2995 17.3383 13.3494 17.2138 13.3462 17.3106C13.3391 17.5346 13.3192 17.7737 13.2901 18.0019C13.2776 18.0991 13.2469 17.948 13.2342 18.0742C13.1781 18.6278 13.1215 19.1758 13.0842 19.7303C13.0634 20.0435 13.0519 20.3435 13.0315 20.642C13.0275 20.6987 13.1115 20.7623 13.0742 20.8804C13.0476 20.8853 13.0182 20.8798 12.9907 20.8792C12.8001 21.9459 12.3968 22.9778 11.8996 23.991C11.8494 24.0926 11.7999 24.1921 11.7494 24.2928C11.7254 24.3405 11.7238 24.2363 11.6772 24.3284C11.4088 24.8582 11.1306 25.3639 10.8857 25.9217C10.8618 25.9761 10.951 25.9908 10.8552 26.1408C10.8388 26.1664 10.7003 26.3968 10.6507 26.4482C10.6437 26.4551 10.6324 26.393 10.5896 26.4683C10.3439 26.9017 10.0919 27.3636 9.8575 27.8011C9.81979 27.8716 9.89995 27.8208 9.87345 27.871C9.68295 28.2304 9.42135 28.5852 9.23386 28.9138C9.10741 29.1316 9.22079 29.1003 9.19486 29.2519C9.19189 29.2734 9.09338 29.3936 9.11804 29.4274C9.18167 29.515 9.32328 29.5294 9.38531 29.6294C9.40184 29.6517 9.20883 29.8123 9.35416 29.7476C9.36876 29.7402 9.49705 29.6244 9.53981 29.6014C9.56864 29.5878 9.56897 29.6553 9.6199 29.6203C9.67198 29.5833 9.6837 29.5101 9.75827 29.4441C9.83219 29.3784 9.84757 29.4419 9.96349 29.287ZM2.1863 11.5585C2.32295 11.5024 2.35837 11.6492 2.20374 11.6299C2.19628 11.6289 2.17932 11.5613 2.1863 11.5585ZM5.31791 24.8406C5.15504 24.7237 5.1583 24.5619 5.2776 24.6415C5.39686 24.7215 5.36752 24.8765 5.31791 24.8406ZM6.40213 26.4683C6.22914 26.3229 6.38049 26.1704 6.48465 26.383C6.49079 26.3952 6.4122 26.4766 6.40213 26.4683ZM9.582 28.7472C9.58218 28.7507 9.51995 28.8465 9.51655 28.8477C9.44316 28.8716 9.56814 28.6795 9.582 28.7472ZM7.74022 27.8143C7.66627 27.8033 7.51955 27.6672 7.61016 27.684C7.68196 27.6977 7.83098 27.8284 7.74022 27.8143ZM5.6804 6.21208C5.67868 6.20943 5.69263 6.12673 5.70465 6.13076C5.74351 6.14398 5.70991 6.2566 5.6804 6.21208ZM10.8233 28.7312C10.3381 28.7348 10.0318 28.8948 10.5683 28.8913C10.665 28.8898 10.3611 28.8308 10.4846 28.8179C10.7094 28.7942 10.8576 28.9046 11.0868 28.8468C11.1283 28.8363 10.8509 28.7308 10.8224 28.731C10.8227 28.7311 10.823 28.7312 10.8233 28.7312ZM2.24856 11.371C2.2512 11.3686 2.36646 11.3553 2.36942 11.3571C2.43616 11.3982 2.20494 11.4249 2.24856 11.371ZM6.50248 1.39175C6.49897 1.38542 6.55447 1.11853 6.56049 1.11276C6.66669 0.993818 6.55597 1.52492 6.50248 1.39175ZM0.0420521 16.6332C0.0210065 16.7762 0.0692897 16.9363 0.163519 17.011C0.113162 16.8908 0.0715066 16.7651 0.0420521 16.6332Z" fill="#3C8634"/>
</svg>
