<svg width="4" height="10" viewBox="0 0 4 10" fill="none" xmlns="http://www.w3.org/2000/svg">
<path d="M2.84546 8.77128C2.82313 8.71484 2.76796 8.65387 2.71876 8.60992C2.70338 8.59611 2.68599 8.61849 2.67422 8.60931C2.65165 8.59199 2.64942 8.56297 2.62544 8.54657C2.61727 8.54103 2.58683 8.57202 2.57907 8.56565C2.53681 8.53063 2.52139 8.48269 2.4875 8.44125C2.32031 8.23643 2.18441 8.01273 2.04489 7.78153C1.9992 7.70583 1.9158 7.62488 1.89017 7.53592C1.88712 7.52535 1.92299 7.51472 1.9248 7.51152C1.95201 7.46181 1.89018 7.50456 1.87212 7.49039C1.80041 7.43363 1.75599 7.35085 1.73416 7.27354C1.72473 7.24009 1.80557 7.23896 1.75352 7.22586C1.74997 7.2249 1.71859 7.24987 1.71071 7.2432C1.69273 7.22768 1.68195 7.1894 1.6719 7.17573C1.65257 7.14993 1.65039 7.1445 1.63709 7.11793C1.62209 7.08857 1.59361 7.05946 1.5774 7.0256C1.57376 7.018 1.57078 7.0102 1.56876 7.00214C1.56653 6.99279 1.60808 6.98676 1.60785 6.97036C1.60757 6.95393 1.58777 6.91989 1.57365 6.91196C1.55949 6.90402 1.5333 6.92244 1.52576 6.92338C1.46226 6.93161 1.51998 6.85507 1.51955 6.84908C1.50882 6.74034 1.42657 6.67336 1.38844 6.5837C1.35892 6.51405 1.34233 6.43228 1.31413 6.36772C1.27998 6.28983 1.23296 6.22845 1.20795 6.15071C1.20527 6.14251 1.25299 6.1355 1.24982 6.12549C1.21484 6.01553 1.17387 5.91443 1.10772 5.81577C1.10111 5.80603 1.06635 5.83287 1.05738 5.82389C1.00359 5.76997 0.891652 5.68562 1.05266 5.5945C1.03251 5.55217 1.0097 5.49992 0.96316 5.46882C0.933258 5.44894 0.896968 5.48661 0.906476 5.44912C0.908588 5.44071 0.949269 5.43955 0.949578 5.42778C0.95089 5.3784 0.925288 5.33245 0.933143 5.28117C0.934863 5.27083 0.969805 5.26456 0.975307 5.26036C1.01968 5.2257 0.927895 5.21045 0.919906 5.20392C0.860336 5.15562 0.866941 5.10435 0.853116 5.04823C0.849883 5.03514 0.899763 5.04024 0.89834 5.02733C0.890637 4.9618 0.871852 4.89217 0.838716 4.83265C0.831214 4.81933 0.794019 4.8402 0.788398 4.83421C0.764158 4.80782 0.837897 4.78607 0.816194 4.75982C0.811715 4.75423 0.778265 4.76403 0.77431 4.76359C0.712212 4.75654 0.792769 4.72591 0.793809 4.72112C0.808792 4.65966 0.715514 4.63832 0.718818 4.57946C0.719329 4.57252 0.765037 4.58072 0.763844 4.5617C0.756465 4.43693 0.72719 4.30509 0.67964 4.1849C0.67232 4.16634 0.640921 4.1833 0.636757 4.18252C0.571609 4.16938 0.654921 4.14714 0.657513 4.14065C0.675606 4.08802 0.600656 4.04779 0.699016 4.00593C0.647409 3.79652 0.697333 3.58467 0.607412 3.37378C0.60637 3.37111 0.56446 3.37574 0.562564 3.37039C0.53941 3.30558 0.604499 3.31746 0.684646 3.27616C0.704774 3.26579 0.6092 3.23191 0.60222 3.22889C0.576458 3.21763 0.513933 3.22766 0.508974 3.22393C0.47009 3.19292 0.676033 3.202 0.677043 3.16265C0.67673 3.1614 0.638676 3.16565 0.634987 3.16224C0.623403 3.15164 0.638738 3.14188 0.625956 3.13156C0.596373 3.10831 0.496518 3.09597 0.555917 3.06213C0.563629 3.05791 0.680237 3.06836 0.675913 3.0331C0.674043 3.01967 0.678416 2.95605 0.671555 2.93849C0.664685 2.92077 0.626564 2.93123 0.624983 2.92992C0.577085 2.88114 0.555742 2.89811 0.483041 2.8709C0.41063 2.84369 0.585454 2.85774 0.605407 2.84881C0.625306 2.83982 0.5857 2.80358 0.571776 2.79466C0.557856 2.7855 0.53348 2.79528 0.525726 2.78717C0.475089 2.73357 0.613591 2.76831 0.642091 2.75263C0.709535 2.71614 0.580925 2.68008 0.569539 2.64339C0.566459 2.63354 0.595751 2.64255 0.598832 2.634C0.610593 2.60075 0.570811 2.57734 0.608998 2.5394C0.615223 2.53346 0.694108 2.50278 0.637072 2.48045C0.628846 2.47738 0.596346 2.48523 0.589299 2.47027C0.578743 2.44823 0.571846 2.40826 0.582404 2.38415C0.590224 2.36647 0.643839 2.38606 0.626961 2.36399C0.619399 2.3543 0.588488 2.37285 0.57687 2.35483C0.565888 2.33732 0.56513 2.29322 0.565022 2.27426C0.565022 2.27327 0.565025 2.27234 0.565033 2.27148C0.56522 2.25389 0.606153 2.26144 0.608801 2.25988C0.623932 2.25047 0.641958 2.21701 0.641809 2.21395C0.640724 2.06784 0.573289 1.93097 0.601094 1.78616C0.603221 1.77491 0.645606 1.78403 0.64637 1.78233C0.665729 1.74424 0.551118 1.77046 0.514266 1.74151C0.600664 1.74905 0.585622 1.73232 0.59638 1.70522C0.601636 1.69224 0.634809 1.70101 0.638295 1.69996C0.690104 1.68282 0.62507 1.66598 0.611801 1.66178C0.562995 1.64636 0.622186 1.63496 0.589601 1.62443C0.557272 1.6138 0.507534 1.63168 0.509589 1.60517C0.540961 1.59938 0.620803 1.62353 0.635018 1.60408C0.688709 1.53171 0.633991 1.38502 0.62991 1.32263C0.625984 1.2602 0.63213 1.24016 0.621606 1.20331C0.602016 1.13704 0.661915 1.16178 0.689022 1.11886C0.7156 1.07507 0.568119 1.10027 0.536203 1.09519C0.504259 1.09056 0.536751 1.08334 0.519003 1.07708C0.501258 1.07102 0.480288 1.08652 0.47304 1.07101C0.47039 1.06533 0.475889 1.0557 0.485418 1.04523C0.501807 1.02418 0.532498 1.00352 0.553748 1.00059C0.624626 0.991433 0.69726 1.00847 0.673549 0.978717C0.672213 0.976758 0.63287 0.978628 0.629761 0.971028C0.605955 0.909387 0.634669 0.848444 0.668493 0.780864C0.67321 0.771275 0.636911 0.746048 0.639585 0.739905C0.671125 0.675136 0.701891 0.746135 0.774377 0.792559C0.704548 0.710295 0.680949 0.644239 0.724967 0.61549C0.72955 0.612518 0.73403 0.611413 0.738425 0.611721C0.758298 0.613549 0.776796 0.645315 0.804009 0.660898C0.813876 0.666646 0.815123 0.628449 0.8295 0.64576C0.876112 0.702588 0.900192 0.781871 0.92508 0.731014C0.926154 0.728671 0.901214 0.697148 0.906361 0.691573C0.940356 0.655247 0.980527 0.719684 1.02817 0.706346C1.06538 0.695926 1.10877 0.625923 1.14809 0.602448C1.10172 0.490279 1.15469 0.499445 1.19905 0.572434C1.2254 0.559171 1.25648 0.553638 1.27974 0.534238C1.28774 0.527607 1.27128 0.495966 1.27131 0.491983C1.27246 0.429297 1.30856 0.503524 1.31526 0.5049C1.38861 0.516017 1.43005 0.443058 1.50543 0.490597C1.50822 0.492318 1.52609 0.574629 1.53232 0.511242C1.53284 0.506869 1.50547 0.472499 1.53494 0.464697C1.56408 0.456862 1.61771 0.404569 1.66348 0.440653C1.67496 0.449224 1.70287 0.516043 1.7209 0.462117C1.72338 0.454787 1.71971 0.430719 1.72332 0.417171C1.73578 0.374016 1.74385 0.459034 1.75888 0.386705C1.77413 0.314431 1.81359 0.260471 1.85766 0.314296C1.85918 0.315891 1.86378 0.383984 1.87753 0.384475C1.89929 0.385064 1.93353 0.376134 1.95634 0.381582C1.9675 0.384253 1.95121 0.423595 1.95296 0.424763C1.98161 0.441991 2.00666 0.448016 2.03328 0.452203L2.02245 0.445606C2.05581 0.46276 2.09358 0.474086 2.13376 0.496034C2.14715 0.503244 2.14305 0.574412 2.1941 0.558449C2.2503 0.541265 2.35826 0.362934 2.38275 0.448227C2.39289 0.482705 2.25042 0.704363 2.37879 0.636909C2.43359 0.729284 2.55101 0.741694 2.59354 0.847576C2.5955 0.852342 2.55586 0.915123 2.56435 0.921859C2.57703 0.931742 2.6068 0.913147 2.61673 0.919618C2.65849 0.94576 2.66909 0.997387 2.70445 1.02722C2.71787 1.03869 2.73895 1.00982 2.75494 1.02364C2.77103 1.0377 2.74674 1.07945 2.78244 1.08507C2.80936 1.0891 2.89435 1.0417 2.92243 1.05683C2.85303 1.11948 2.8678 1.1331 2.87157 1.17571C2.87223 1.1839 2.84277 1.19944 2.84178 1.20438C2.83706 1.22477 2.86535 1.21663 2.85887 1.23751C2.85733 1.24254 2.8327 1.26285 2.83 1.26806C2.80604 1.31293 2.8822 1.2937 2.89576 1.29088C2.93284 1.28242 2.92899 1.29817 2.9335 1.30792C2.93331 1.30943 2.93597 1.31257 2.9427 1.31384C2.96749 1.31879 2.97427 1.28468 2.99444 1.29628C3.03649 1.3209 3.05771 1.37158 3.07917 1.40713C3.08762 1.42149 3.0449 1.43236 3.04524 1.43489C3.05303 1.47109 3.10941 1.4772 3.04773 1.53859C3.24643 1.44214 3.04055 1.56808 3.10658 1.5869C3.1119 1.5883 3.19936 1.53236 3.20401 1.51231C3.2087 1.49231 3.16979 1.49237 3.17943 1.46302C3.18146 1.45589 3.25112 1.38335 3.25473 1.37779C3.2811 1.33195 3.14463 1.40533 3.13639 1.40814C3.04764 1.43816 3.1225 1.35693 3.12459 1.34567C3.13372 1.29331 3.09674 1.27115 3.09722 1.22602C3.09723 1.21608 3.10676 1.20324 3.11881 1.18975C3.11692 1.18719 3.11199 1.17901 3.10988 1.17662C3.13179 1.14854 3.16366 1.11742 3.15382 1.10794C3.10398 1.06023 2.98158 1.13465 3.0361 1.00913C3.04753 0.98232 3.13981 0.918957 3.04272 0.940767C3.03644 0.941929 2.95421 0.969733 2.97804 0.921053C2.98106 0.914912 3.00495 0.893096 3.0047 0.888811C3.00249 0.860453 2.97345 0.867119 2.96579 0.84111C2.95811 0.815088 2.95102 0.781295 2.92384 0.769385C2.90748 0.762127 2.85003 0.789948 2.8341 0.79493C2.78886 0.809906 2.82083 0.743663 2.7753 0.771221C2.72964 0.799034 2.69356 0.873448 2.64543 0.873436C2.70284 0.812016 2.76052 0.747782 2.81754 0.685337C2.75849 0.632715 2.68372 0.600761 2.62854 0.546237C2.6217 0.539379 2.65925 0.512346 2.65266 0.504089C2.62496 0.469668 2.57498 0.468533 2.5497 0.429457C2.53018 0.399035 2.53262 0.337924 2.51272 0.305036C2.43344 0.363768 2.41375 0.304145 2.37846 0.285952C2.36609 0.279508 2.35025 0.299753 2.33743 0.299931C2.2898 0.300433 2.35737 0.246169 2.35831 0.229506C2.36191 0.158102 2.23585 0.303489 2.2005 0.267982C2.19937 0.266901 2.21297 0.23179 2.22433 0.201491C2.21099 0.192189 2.17304 0.165975 2.1576 0.160841C2.15493 0.136541 2.15099 0.114859 2.14893 0.111274C2.11744 0.0555037 2.12894 0.141738 2.10001 0.139852C2.04816 0.137915 2.0143 0.155138 1.96997 0.116787C1.95803 0.105606 1.92997 0.0368989 1.89652 0.0833376C1.89219 0.0894096 1.89087 0.123344 1.8878 0.125037C1.83505 0.153564 1.8414 0.0477921 1.8114 0.0103472C1.78153 -0.0269741 1.73448 0.0468521 1.72657 0.0683191C1.7042 0.123607 1.74489 0.0913942 1.74617 0.096881C1.76102 0.160849 1.72972 0.149831 1.70691 0.156068C1.70689 0.260482 1.67645 0.255602 1.68312 0.162214C1.68401 0.15198 1.70249 0.160956 1.70691 0.156068C1.68365 0.0542416 1.64131 0.0431686 1.61067 0.14213C1.59674 0.18861 1.61822 0.238604 1.56379 0.225577C1.53861 0.220024 1.53883 0.147479 1.51406 0.131107C1.45619 0.0939856 1.40209 0.17227 1.35064 0.173331C1.33134 0.173834 1.34046 0.131326 1.32686 0.130403C1.29059 0.12796 1.26849 0.164178 1.23113 0.158986C1.22768 0.158488 1.224 0.116696 1.21325 0.119206C1.13176 0.137662 1.07208 0.185897 0.993464 0.217879C0.955446 0.233124 0.878565 0.241851 0.841779 0.264665C0.777228 0.303584 0.727107 0.398766 0.667167 0.41755C0.636113 0.427446 0.620877 0.40508 0.601217 0.387838C0.595674 0.383395 0.589732 0.379387 0.582886 0.376655C0.519234 0.351333 0.511858 0.477007 0.514763 0.494736C0.514906 0.49501 0.555102 0.477052 0.549578 0.507589C0.565811 0.55053 0.515444 0.494464 0.514763 0.494736C0.51527 0.505354 0.452541 0.572165 0.43322 0.58324C0.422658 0.588134 0.398343 0.557014 0.39319 0.560328C0.26498 0.632745 0.164325 0.856947 0.19176 1.00368C0.19254 1.00622 0.236223 1.0027 0.237525 1.00841C0.242374 1.02828 0.24341 1.04498 0.241657 1.06063C0.234979 1.08609 0.19959 1.10801 0.176121 1.13313C0.144845 1.16663 0.155007 1.1932 0.229493 1.21664C0.219481 1.24363 0.251081 1.28518 0.270059 1.31024C0.289064 1.33499 0.20393 1.33444 0.202157 1.33641C0.145133 1.39923 0.191316 1.44087 0.194759 1.51289C0.196527 1.54692 0.180405 1.61465 0.169294 1.65204C0.160338 1.68178 0.179427 1.7006 0.165537 1.72779C0.163682 1.73147 0.126014 1.72612 0.124511 1.7272C0.0779903 1.75661 0.171077 1.7453 0.187337 1.75236C0.246527 1.77781 0.27796 1.79311 0.248553 1.83165C0.241813 1.84057 0.107914 1.86396 0.0997824 1.88118C0.089463 1.90341 0.137368 1.89564 0.125435 1.91871C0.124462 1.92069 0.0949924 1.91981 0.0961101 1.93435C0.100923 2.00152 0.11838 2.07464 0.117166 2.14468C0.117115 2.15422 0.0700774 2.14312 0.0692486 2.15704C0.0665664 2.20369 0.0682138 2.2528 0.0786502 2.30029C0.0826479 2.31368 0.0879006 2.32765 0.0947412 2.34184C0.100607 2.35382 0.133109 2.34537 0.142895 2.34778C0.202136 2.36355 0.116964 2.38801 0.115352 2.39195C0.0748138 2.48529 0.149326 2.56597 0.108395 2.67173C0.106006 2.6777 0.0127099 2.71788 0.0902979 2.74194C0.0954675 2.74338 0.174864 2.76777 0.119234 2.78287C0.115753 2.78383 0.074949 2.76967 0.0782446 2.79148C0.0815351 2.8132 0.0524072 2.84813 0.0965631 2.88087C0.110482 2.89098 0.189658 2.91658 0.12469 2.94329C0.120161 2.94472 -0.0259486 2.98566 0.0731455 3.00466C0.0894579 3.00787 0.194952 3.0086 0.139742 3.04153C0.129045 3.04788 0.105923 3.03493 0.0906671 3.05213C0.067153 3.07883 0.0943435 3.11545 0.0465517 3.14744C0.0380893 3.15299 -0.0340911 3.17642 0.019828 3.19801C0.0282729 3.20137 0.0636023 3.19603 0.0673285 3.20684C0.0852454 3.25687 0.0609993 3.30974 0.0851234 3.36122C0.0936094 3.37916 0.15057 3.37022 0.16578 3.38888C0.180977 3.40754 0.195725 3.44535 0.169858 3.46556C0.143977 3.48573 0.0530655 3.46477 0.0460618 3.49429C0.015775 3.62484 0.0730751 3.75315 0.0881519 3.88235C0.0904264 3.90175 0.0570757 3.88772 0.0581509 3.91622C0.0614192 4.0196 0.0470847 4.20742 0.125901 4.28923C0.188844 4.35544 0.220533 4.26002 0.249031 4.31241C0.262661 4.33746 0.161436 4.3791 0.158946 4.38607C0.133059 4.45213 0.185244 4.48983 0.17919 4.54892C0.177943 4.56115 0.133971 4.55577 0.13336 4.56595C0.130864 4.60051 0.155114 4.63316 0.156803 4.66619C0.157472 4.68104 0.124798 4.6835 0.129462 4.69663C0.140301 4.72829 0.158616 4.7545 0.194068 4.77985C0.197299 4.78216 0.234063 4.75642 0.239583 4.77939C0.248435 4.81669 0.286645 4.85813 0.264472 4.90813C0.257708 4.92263 0.184495 4.93729 0.240475 4.95495C0.252193 4.95869 0.338588 4.93383 0.269036 4.98096C0.257409 4.98862 0.166244 5.06438 0.237943 5.07771C0.256768 5.0811 0.332435 5.0843 0.324412 5.10165C0.323064 5.1041 0.282089 5.10434 0.281012 5.11778C0.277921 5.16506 0.292765 5.21126 0.291561 5.26086C0.291175 5.27415 0.246386 5.26501 0.247131 5.28461C0.249174 5.33874 0.274733 5.39791 0.300245 5.4447C0.309698 5.46181 0.339683 5.44052 0.34365 5.44092C0.408042 5.44694 0.331954 5.48034 0.329228 5.48877C0.313197 5.54024 0.359224 5.56247 0.360603 5.60547C0.361089 5.6173 0.321191 5.61997 0.318447 5.62312C0.292072 5.65539 0.354941 5.61923 0.366493 5.63167C0.399087 5.66643 0.409357 5.7131 0.416453 5.7544C0.419067 5.76979 0.370582 5.76606 0.373455 5.77978C0.389639 5.86121 0.420451 5.94463 0.469136 6.01253C0.478446 6.02548 0.508649 6.00545 0.517221 6.00596C0.577028 6.00903 0.514916 6.06345 0.510454 6.0729C0.48983 6.11542 0.523613 6.11867 0.527665 6.1481C0.547153 6.29308 0.628812 6.45356 0.691467 6.57663C0.771438 6.73354 0.855621 6.84678 0.916389 7.00407C0.920346 7.01414 0.873453 7.0232 0.876336 7.03215C0.908507 7.12668 0.959209 7.20959 0.9993 7.30235C1.00697 7.32015 1.01407 7.33811 1.02038 7.35636C1.02358 7.36538 0.977906 7.3721 0.981711 7.38722C0.989168 7.41823 1.00853 7.45289 1.03515 7.4756C1.048 7.48661 1.07301 7.45144 1.08524 7.46283C1.11372 7.48914 1.13341 7.52253 1.14349 7.55937C1.14765 7.57498 1.09664 7.57323 1.1052 7.59197C1.1627 7.72014 1.21702 7.84768 1.33307 7.94865C1.34104 7.95557 1.42673 7.92204 1.42023 7.94819C1.39822 7.96101 1.37147 7.9744 1.34751 7.98724C1.42712 8.17762 1.54829 8.34302 1.65108 8.52365C1.65534 8.53115 1.60553 8.54105 1.61357 8.55569C1.66092 8.64196 1.69534 8.7325 1.78744 8.79736C1.79657 8.8039 1.86838 8.75744 1.87171 8.7894C1.87209 8.79488 1.88446 8.83942 1.87418 8.85866C1.87254 8.86141 1.83395 8.87429 1.84012 8.88731C1.87697 8.96318 1.93001 9.03472 1.99597 9.09502C2.00668 9.10471 2.035 9.06981 2.04291 9.07645C2.09848 9.12331 2.11235 9.20457 2.18286 9.23983C2.23 9.26289 2.28098 9.20737 2.35372 9.18549C2.36388 9.18229 2.38093 9.20363 2.41598 9.18034C2.50395 9.12169 2.59107 9.04454 2.68578 8.98334C2.70626 8.97034 2.70303 9.01056 2.73997 8.96154C2.74253 8.95842 2.74491 8.92822 2.75823 8.91254C2.76732 8.90154 2.80617 8.88251 2.81621 8.86617C2.82637 8.85 2.79166 8.86286 2.80163 8.84083C2.81171 8.81845 2.85483 8.79549 2.84546 8.77128ZM0.35416 1.42454C0.393623 1.44978 0.244126 1.44461 0.281254 1.42192C0.283226 1.42084 0.352226 1.42325 0.35416 1.42454ZM2.60776 0.684647C2.54069 0.712682 2.59001 0.626574 2.64055 0.603619C2.69117 0.580846 2.62828 0.676338 2.60776 0.684647ZM2.80544 0.942769C2.74312 0.953281 2.89004 0.800244 2.88738 0.858931C2.88729 0.86232 2.8091 0.942208 2.80544 0.942769ZM2.31055 9.0851C2.31232 9.08419 2.32459 9.09923 2.32325 9.10075C2.28944 9.13571 2.2647 9.10531 2.31055 9.0851ZM2.97704 1.21762C2.94755 1.22633 2.95328 1.18051 2.98988 1.16916C3.01954 1.16019 3.01405 1.20707 2.97704 1.21762ZM0.496627 2.63973C0.498843 2.64016 0.500347 2.65364 0.487768 2.6529C0.447263 2.65043 0.459392 2.63232 0.496627 2.63973ZM3.26295 1.6584C3.20957 1.60802 3.03885 1.67185 3.11131 1.73185C3.12422 1.7421 3.1328 1.66955 3.158 1.67565C3.20285 1.68543 3.13566 1.77607 3.20544 1.76558C3.21754 1.76303 3.26577 1.66062 3.26304 1.65814C3.26301 1.65822 3.26298 1.65831 3.26295 1.6584ZM0.532745 1.44797C0.534694 1.44854 0.535498 1.46726 0.533516 1.46754C0.485542 1.47484 0.483886 1.4373 0.532745 1.44797ZM0.566472 3.42274C0.570662 3.4237 0.574793 3.46686 0.570947 3.46838C0.493415 3.49168 0.484809 3.40351 0.566472 3.42274ZM1.14754 0.599185C1.18306 0.636441 1.20522 0.634075 1.19899 0.572522C1.18226 0.582012 1.16427 0.589368 1.14754 0.599185Z" fill="#963076"/>
</svg>
