<svg width="8" height="10" viewBox="0 0 8 10" fill="none" xmlns="http://www.w3.org/2000/svg">
<path d="M7.71494 8.59514C7.69248 8.5307 7.63477 8.46064 7.58403 8.41336C7.56805 8.39829 7.55086 8.42113 7.5388 8.41134C7.51499 8.39181 7.51294 8.36332 7.48786 8.34572C7.47947 8.34001 7.44959 8.37166 7.44161 8.36518C7.398 8.32923 7.38101 8.28115 7.34513 8.24017C7.16796 8.0379 7.01532 7.83026 6.85123 7.6189C6.79742 7.54956 6.70608 7.48251 6.66862 7.39842C6.66427 7.38857 6.69823 7.37293 6.69959 7.36955C6.72001 7.31713 6.66465 7.36794 6.64484 7.35658C6.56636 7.31137 6.51172 7.23888 6.47803 7.16641C6.46377 7.13552 6.54293 7.12074 6.48989 7.11686C6.48627 7.11655 6.45923 7.14609 6.45052 7.141C6.43084 7.12941 6.41367 7.09317 6.40178 7.08185C6.37872 7.06014 6.37606 7.05574 6.3586 7.03214C6.33434 6.99995 6.2906 6.97259 6.27248 6.9326C6.2687 6.92399 6.30831 6.91024 6.30519 6.89436C6.30209 6.8785 6.27623 6.84887 6.26084 6.84389C6.24544 6.83889 6.22333 6.86206 6.21613 6.86446C6.1557 6.88519 6.19713 6.79904 6.19534 6.79313C6.16093 6.68678 6.06777 6.64303 6.00778 6.56445C5.9619 6.5042 5.92546 6.43146 5.87874 6.37584C5.82376 6.31071 5.76085 6.26718 5.71121 6.20074C5.70585 6.19366 5.74891 6.17178 5.74242 6.16305C5.67391 6.07105 5.59631 5.98724 5.49638 5.92181C5.48643 5.91541 5.46502 5.95375 5.45325 5.94903C5.3811 5.91834 5.24811 5.89386 5.35076 5.73992C5.31354 5.71035 5.26652 5.67178 5.21102 5.66723C5.17514 5.66414 5.16209 5.71509 5.15171 5.67729C5.14927 5.66876 5.18441 5.64805 5.17858 5.63733C5.15387 5.59211 5.10768 5.56512 5.0855 5.51641C5.08117 5.50656 5.10729 5.48251 5.10956 5.47592C5.12741 5.42191 5.03985 5.45772 5.02923 5.4566C4.95179 5.44782 4.92543 5.40444 4.87946 5.36814C4.87824 5.36718 4.87701 5.36622 4.87576 5.36527C4.86473 5.35692 4.90705 5.32974 4.89746 5.32035C4.8476 5.27235 4.78861 5.23212 4.72238 5.20877C4.70749 5.2036 4.69422 5.24428 4.68588 5.24349C4.64955 5.23975 4.68965 5.17424 4.65575 5.16975C4.64869 5.16875 4.63096 5.19876 4.62777 5.20114C4.57769 5.23849 4.61514 5.16095 4.61242 5.15665C4.57997 5.10139 4.49733 5.15098 4.45889 5.1086C4.4542 5.10336 4.49208 5.07635 4.47732 5.06382C4.37995 4.98066 4.26059 4.91541 4.13618 4.87742C4.11689 4.87147 4.11082 4.90672 4.10759 4.90948C4.05669 4.95227 4.09179 4.87381 4.08801 4.86761C4.05776 4.8211 3.98078 4.85717 4.00517 4.75312C3.80645 4.67145 3.65417 4.51714 3.42967 4.49074C3.42686 4.49031 3.40974 4.52884 3.40424 4.52783C3.33777 4.51609 3.38115 4.46606 3.38565 4.37629C3.38678 4.35375 3.3104 4.42029 3.30435 4.42489C3.28224 4.44198 3.2597 4.50106 3.25416 4.50363C3.20933 4.52296 3.31845 4.34807 3.2856 4.32843C3.28439 4.32811 3.2693 4.36328 3.2646 4.36487C3.24993 4.36991 3.24913 4.35187 3.234 4.35804C3.19924 4.37244 3.14072 4.45415 3.14132 4.38643C3.14151 4.3777 3.2076 4.28107 3.17553 4.26808C3.16276 4.26306 3.11238 4.22989 3.09418 4.22751C3.07592 4.22511 3.0659 4.26322 3.06403 4.26398C2.99908 4.28233 3.00285 4.30895 2.9442 4.3593C2.8856 4.40931 2.98414 4.26423 2.98669 4.24273C2.98923 4.22131 2.93904 4.2382 2.92435 4.24577C2.90969 4.25338 2.90555 4.27912 2.89499 4.28199C2.8255 4.30032 2.92392 4.19724 2.92558 4.16526C2.92984 4.08969 2.83497 4.18299 2.79886 4.17442C2.78914 4.17212 2.81184 4.15164 2.80642 4.14474C2.78499 4.11785 2.74603 4.14059 2.73579 4.08872C2.73409 4.08026 2.75365 3.99902 2.70513 4.0352C2.69815 4.04043 2.68626 4.07158 2.67057 4.06955C2.647 4.06651 2.6123 4.05087 2.60004 4.02889C2.59149 4.01347 2.63322 3.98332 2.61422 3.98166L2.63378 3.99966C2.63288 3.99934 2.6318 3.99904 2.63054 3.99878C2.61883 3.9964 2.60623 4.02985 2.5862 4.02366C2.56621 4.01753 2.5384 3.98235 2.52833 3.96863C2.51828 3.95491 2.5553 3.93605 2.5565 3.93325C2.56315 3.91686 2.55741 3.87951 2.55556 3.87735C2.46705 3.76332 2.32948 3.70234 2.25959 3.57829C2.25409 3.56862 2.29206 3.54777 2.29156 3.54603C2.28188 3.50508 2.21169 3.59921 2.16531 3.60188C2.23561 3.5511 2.21352 3.5485 2.2044 3.52161C2.20007 3.50862 2.23076 3.49336 2.23272 3.49031C2.26095 3.44382 2.20109 3.47414 2.18838 3.47975C2.14163 3.50041 2.17923 3.45352 2.1479 3.46719C2.11674 3.48069 2.09054 3.52625 2.07529 3.50572C2.09533 3.481 2.17081 3.44599 2.16929 3.4227C2.16296 3.33406 2.03014 3.26551 1.98885 3.22179C1.948 3.17879 1.94153 3.16058 1.91189 3.13974C1.8583 3.1019 1.92017 3.08423 1.91934 3.037C1.91858 2.98979 1.81082 3.09283 1.78197 3.10731C1.75317 3.12184 1.77594 3.09759 1.75786 3.10254C1.7398 3.10749 1.7311 3.13211 1.71638 3.12321C1.70171 3.11441 1.72128 3.04553 1.74473 3.02127C1.79448 2.96996 1.8657 2.9421 1.81991 2.92349C1.81724 2.92244 1.79046 2.95173 1.78181 2.94656C1.71444 2.90505 1.66794 2.84373 1.60386 2.79936C1.59501 2.79331 1.56497 2.82573 1.55941 2.82249C1.50158 2.78886 1.5735 2.76409 1.62031 2.68989C1.53658 2.7583 1.47172 2.78094 1.44433 2.74297C1.42788 2.72022 1.46927 2.69718 1.4862 2.66342C1.49132 2.65327 1.45356 2.65565 1.46972 2.64008C1.52239 2.58893 1.59962 2.55807 1.5457 2.53692C1.54323 2.53606 1.51445 2.56414 1.50833 2.5595C1.46863 2.52967 1.52784 2.48208 1.50718 2.43564C1.49078 2.39893 1.41267 2.36597 1.38167 2.33318C1.28166 2.4018 1.28045 2.35006 1.34047 2.28929C1.32128 2.26663 1.30781 2.23771 1.28276 2.22067C1.27417 2.21479 1.24832 2.23937 1.24448 2.24044C1.18444 2.25746 1.24517 2.20171 1.2444 2.1947C1.23247 2.11983 1.15082 2.10708 1.16593 2.0188C1.16651 2.01566 1.23551 1.96721 1.17431 1.98561C1.17013 1.98693 1.14933 2.02565 1.13041 2.00141C1.11194 1.97793 1.04168 1.9512 1.05247 1.89469C1.05489 1.88083 1.0997 1.8234 1.04288 1.83309C1.03521 1.83449 1.0163 1.84985 1.00271 1.85343C0.959281 1.86465 1.02799 1.81385 0.958292 1.83861C0.888496 1.86319 0.825811 1.86465 0.845627 1.80109C0.846134 1.79912 0.898431 1.75522 0.890436 1.74404C0.877592 1.7262 0.849709 1.70707 0.838656 1.68768C0.833384 1.67838 0.872883 1.6628 0.872591 1.66081C0.854742 1.58491 0.797058 1.56046 0.743578 1.50008C0.7339 1.48941 0.763058 1.42529 0.709947 1.42312C0.651895 1.42083 0.487959 1.54923 0.496195 1.46354C0.498611 1.42757 0.710438 1.27137 0.567368 1.29125C0.550112 1.18907 0.44534 1.13821 0.444074 1.02769C0.443937 1.02263 0.503083 0.977833 0.497768 0.969179C0.489708 0.956309 0.455601 0.963958 0.448501 0.954337C0.418952 0.916355 0.427449 0.865268 0.405879 0.827287C0.397403 0.811927 0.367428 0.831364 0.357653 0.813441C0.348379 0.796433 0.385328 0.764643 0.354926 0.748373C0.331955 0.736276 0.235276 0.74883 0.214671 0.721311C0.27432 0.701129 0.289831 0.685478 0.298897 0.667332C0.303173 0.65808 0.305639 0.647603 0.310398 0.634839C0.313241 0.627309 0.346432 0.625125 0.349391 0.621103C0.362123 0.604531 0.333037 0.600796 0.347332 0.584378C0.350753 0.580392 0.381409 0.571506 0.385937 0.56775C0.425601 0.535409 0.347297 0.523219 0.33372 0.521391C0.282034 0.513851 0.318946 0.492364 0.296215 0.481675C0.273513 0.471143 0.25832 0.501673 0.241855 0.486405C0.207857 0.454985 0.197366 0.404693 0.183224 0.366759C0.177749 0.351497 0.22166 0.348543 0.221815 0.346045C0.221406 0.31054 0.167536 0.293479 0.241364 0.247599C0.0266637 0.298658 0.254783 0.221324 0.196819 0.190356C0.19216 0.18796 0.0930671 0.219101 0.0836956 0.237886C0.074264 0.256474 0.112131 0.265919 0.0963675 0.292659C0.0927062 0.298984 0.00963241 0.356097 0.0052014 0.361372C-0.0292841 0.402654 0.118837 0.356804 0.127413 0.355538C0.220147 0.342783 0.131107 0.407362 0.126771 0.417545C0.107342 0.465189 0.137983 0.490391 0.124874 0.528876C0.116431 0.553924 0.019635 0.584835 0.0273251 0.599893C0.0527401 0.650045 0.194458 0.630666 0.0909495 0.716083C0.0798966 0.725255 0.0467693 0.734623 0.0284599 0.743746C0.0106465 0.75412 0.00809458 0.767226 0.0586919 0.781571C0.0658153 0.785823 0.152117 0.790938 0.112983 0.829706C0.107904 0.834257 0.077664 0.845767 0.0763193 0.849839C0.0678633 0.876724 0.0982434 0.883151 0.095935 0.909692C0.0932423 0.935342 0.0892486 0.972376 0.109509 0.990706C0.122034 1.00265 0.185641 0.996766 0.20234 0.997708C0.249629 0.998732 0.195949 1.04831 0.248257 1.03839C0.300686 1.0281 0.36046 0.971005 0.405517 0.98763C0.330381 1.02535 0.253838 1.06526 0.1786 1.10387C0.213835 1.16999 0.273022 1.22643 0.30351 1.29254C0.307383 1.30109 0.262901 1.31358 0.26606 1.32335C0.280345 1.36589 0.324565 1.38024 0.334813 1.42601C0.342014 1.46044 0.317404 1.51499 0.324556 1.55262C0.419333 1.52516 0.415392 1.58488 0.442313 1.61435C0.451618 1.62455 0.473577 1.61119 0.485373 1.61494C0.529514 1.62964 0.447723 1.65785 0.4409 1.67284C0.412154 1.73732 0.58082 1.64469 0.601216 1.68907C0.602274 1.69126 0.529636 1.77013 0.526408 1.77722C0.50463 1.82229 0.559481 1.76304 0.574842 1.77416C0.602951 1.7945 0.63555 1.80141 0.628461 1.84802C0.626312 1.86174 0.584953 1.91701 0.638299 1.90966C0.645285 1.90869 0.673487 1.88982 0.676347 1.89071C0.725884 1.9086 0.63505 1.96417 0.616284 2.00266C0.597463 2.04104 0.678943 2.03313 0.700807 2.02819C0.75749 2.01565 0.71306 2.00344 0.717122 1.99976C0.765323 1.95593 0.769503 1.98377 0.784645 1.99794C0.875037 1.94556 0.884122 1.97209 0.799913 2.01273C0.790779 2.01728 0.790804 1.99883 0.784645 1.99794C0.707015 2.06722 0.711438 2.09924 0.810469 2.07696C0.856851 2.06645 0.893181 2.02597 0.902425 2.0766C0.906693 2.09956 0.841572 2.13111 0.835116 2.15758C0.820265 2.21778 0.90762 2.22989 0.923221 2.27353C0.928725 2.28913 0.887148 2.29731 0.889789 2.30873C0.896743 2.33916 0.935707 2.34492 0.939401 2.37824C0.939698 2.38129 0.901567 2.39826 0.906238 2.40637C0.941197 2.46854 0.996234 2.50388 1.03807 2.56499C1.05776 2.5938 1.07439 2.659 1.09916 2.68719C1.141 2.73501 1.23502 2.76576 1.25392 2.81829C1.26633 2.85237 1.22818 2.8697 1.21385 2.8982C1.18605 2.95343 1.29594 2.94007 1.31232 2.93705C1.31283 2.93692 1.30309 2.90627 1.3298 2.90743C1.37128 2.88975 1.31227 2.93665 1.31232 2.93705C1.32319 2.93557 1.36542 2.9789 1.36611 2.99338C1.3664 3.00121 1.3325 3.02091 1.33326 3.02457C1.35237 3.11149 1.3919 3.18305 1.45586 3.23938C1.45736 3.2401 1.49127 3.21249 1.49437 3.21449C1.53854 3.24185 1.51317 3.2974 1.51138 3.3482C1.50947 3.39879 1.53718 3.41808 1.61107 3.39162C1.6212 3.42087 1.6733 3.43486 1.70415 3.44223C1.73499 3.4496 1.66942 3.50381 1.66939 3.50656C1.66803 3.59355 1.72967 3.59393 1.77872 3.6449C1.80225 3.66918 1.83288 3.72845 1.84785 3.76248C1.85956 3.78949 1.88586 3.79063 1.89224 3.8192C1.89312 3.82306 1.86121 3.84374 1.86075 3.8455C1.84362 3.89679 1.90729 3.82814 1.92401 3.82262C1.98485 3.80256 2.01795 3.79277 2.01915 3.83954C2.01943 3.85025 1.93122 3.95325 1.93512 3.97052C1.94034 3.99277 1.97265 3.95674 1.97719 3.98079C1.97762 3.98283 1.95445 4.00104 1.96386 4.01061C2.00732 4.05537 2.06256 4.0959 2.10137 4.14754C2.10674 4.15451 2.06351 4.17556 2.07071 4.18614C2.10444 4.23565 2.14723 4.28423 2.20151 4.31469C2.21496 4.32207 2.2342 4.29411 2.24363 4.29022C2.27167 4.27878 2.27445 4.2911 2.27024 4.30722C2.28369 4.32062 2.32165 4.35989 2.338 4.36955C2.33816 4.38707 2.33196 4.41039 2.3334 4.41242C2.39956 4.50939 2.51239 4.49249 2.58459 4.58367C2.5882 4.58865 2.57788 4.69111 2.63774 4.63614C2.64183 4.63257 2.70202 4.57569 2.68779 4.63174C2.68691 4.63524 2.65394 4.66332 2.67501 4.6717C2.69606 4.68006 2.71152 4.72242 2.76145 4.69993C2.77725 4.6929 2.83845 4.63655 2.82918 4.70586C2.82832 4.71058 2.79074 4.85698 2.85599 4.77997C2.8667 4.76727 2.91915 4.67574 2.92003 4.73949C2.92013 4.75181 2.89791 4.76587 2.9049 4.78726C2.91557 4.82015 2.95967 4.81367 2.96303 4.87037C2.96353 4.88035 2.94736 4.95405 2.99144 4.91701C2.99834 4.9112 3.01145 4.87804 3.02206 4.87975C3.07257 4.8877 3.10328 4.9331 3.15677 4.93623C3.17567 4.93739 3.19703 4.88392 3.2199 4.87964C3.2428 4.87538 3.28066 4.88056 3.2833 4.91225C3.28594 4.94396 3.22284 5.01216 3.24282 5.03227C3.32959 5.11964 3.45646 5.13243 3.55984 5.18568C3.57515 5.19357 3.54618 5.21399 3.56751 5.22761C3.64636 5.27789 3.76419 5.38738 3.8683 5.37294C3.95182 5.36129 3.90729 5.28217 3.96069 5.29008C3.98655 5.29413 3.95028 5.39658 3.95301 5.40237C3.98038 5.46092 4.0384 5.44368 4.07163 5.48379C4.07849 5.4921 4.04594 5.52162 4.05202 5.52829C4.07233 5.55123 4.10865 5.55323 4.1302 5.57265C4.13973 5.58139 4.1189 5.60666 4.12986 5.61131C4.15577 5.62271 4.18418 5.62614 4.22422 5.6173C4.22788 5.6165 4.23803 5.57372 4.25574 5.58465C4.28425 5.60238 4.33671 5.60338 4.3491 5.65151C4.3528 5.66597 4.30837 5.72591 4.35923 5.69965C4.36978 5.69412 4.41878 5.6188 4.39495 5.69786C4.39116 5.71109 4.36591 5.82313 4.42595 5.78449C4.44169 5.77426 4.49918 5.72602 4.50312 5.74371C4.50347 5.74632 4.4729 5.77331 4.47954 5.78345C4.49026 5.79928 4.50349 5.81269 4.51715 5.82601C4.53043 5.8396 4.54478 5.85366 4.55608 5.87221C4.56149 5.88126 4.52345 5.90342 4.53222 5.91582C4.5547 5.94857 4.60076 5.97574 4.6389 5.99376C4.65331 6.00059 4.66919 5.96838 4.67255 5.9664C4.72748 5.93456 4.67902 6.00183 4.68002 6.00942C4.68686 6.0557 4.73366 6.04769 4.7518 6.0804C4.75683 6.08931 4.72411 6.11191 4.72301 6.11576C4.71254 6.15367 4.75226 6.09385 4.76652 6.09728C4.80645 6.10654 4.83321 6.13889 4.85404 6.16829C4.86175 6.17924 4.81851 6.19953 4.82577 6.20896C4.86865 6.26598 4.92134 6.31765 4.98704 6.35432C4.99933 6.36102 5.02009 6.33171 5.0279 6.3285C5.08246 6.30593 5.04378 6.37749 5.04252 6.38712C5.03689 6.43118 5.06796 6.41991 5.08029 6.44317C5.14181 6.559 5.25691 6.66734 5.34296 6.75555C5.45463 6.87023 5.55648 6.94844 5.6415 7.07624C5.64692 7.08432 5.60382 7.10434 5.60801 7.11165C5.66387 7.2051 5.74135 7.28001 5.79395 7.3759C5.79833 7.38373 5.75507 7.3991 5.76089 7.4125C5.77259 7.44021 5.79607 7.46886 5.82471 7.48479C5.83862 7.49261 5.85817 7.45487 5.87155 7.46322C5.90278 7.48261 5.92647 7.5106 5.94077 7.54316C5.94678 7.55708 5.89705 7.56476 5.90771 7.5808C5.97959 7.69067 6.04634 7.80096 6.16923 7.87816C6.17765 7.88344 6.258 7.83868 6.25439 7.86471C6.23414 7.88016 6.20931 7.89684 6.18715 7.91259C6.28221 8.07946 6.41294 8.22036 6.52078 8.37972C6.52534 8.38648 6.47687 8.40079 6.48547 8.41399C6.53499 8.49012 6.57051 8.57161 6.66023 8.62451C6.66913 8.62988 6.73919 8.5808 6.74261 8.61083C6.74318 8.61619 6.755 8.65698 6.74468 8.6756C6.74304 8.67828 6.70523 8.6929 6.71107 8.70461C6.74614 8.77315 6.79502 8.83611 6.85525 8.88935C6.86496 8.89779 6.89471 8.86482 6.90196 8.87066C6.95294 8.91202 6.95978 8.98714 7.02293 9.01907C7.0655 9.04069 7.12152 8.99104 7.19473 8.97334C7.20508 8.97087 7.21878 8.99143 7.25584 8.97159C7.34913 8.92181 7.44342 8.85365 7.54355 8.80181C7.56513 8.79066 7.55923 8.83289 7.60017 8.78641C7.60289 8.78327 7.6075 8.75224 7.62166 8.73698C7.63144 8.72641 7.67231 8.71174 7.6832 8.69538C7.69405 8.679 7.65823 8.68861 7.66879 8.66559C7.67953 8.6424 7.72487 8.62362 7.71494 8.59514ZM1.84243 3.47527C1.88847 3.46818 1.77197 3.562 1.78548 3.52085C1.78627 3.51875 1.84014 3.47557 1.84243 3.47527ZM0.37254 1.17255C0.445414 1.17011 0.36781 1.231 0.313224 1.23641C0.258444 1.24128 0.350386 1.17315 0.37254 1.17255ZM0.281622 0.870771C0.343684 0.882905 0.152251 0.974289 0.175404 0.920377C0.176664 0.917199 0.278001 0.870009 0.281622 0.870771ZM7.16252 8.87709C7.1644 8.87636 7.17501 8.89066 7.17352 8.89201C7.13726 8.92409 7.11613 8.89558 7.16252 8.87709ZM0.231161 0.559499C0.261694 0.561677 0.238326 0.600208 0.200404 0.597428C0.169924 0.595228 0.193241 0.556934 0.231161 0.559499ZM2.75785 4.23482C2.75938 4.23316 2.77134 4.23865 2.7642 4.24902C2.74117 4.28244 2.73225 4.26283 2.75785 4.23482ZM0.0698838 0.0799281C0.104235 0.146285 0.2846 0.128783 0.236397 0.0574774C0.227682 0.0447184 0.195842 0.107814 0.174239 0.0955288C0.135004 0.0734856 0.229004 0.0117677 0.160991 6.04165e-05C0.148685 -0.00176677 0.0675808 0.0762606 0.0697048 0.0801411C0.0697646 0.0800701 0.0698242 0.0799991 0.0698838 0.0799281ZM1.99274 3.37607C1.99457 3.37522 2.00696 3.38824 2.00567 3.38978C1.97398 3.42644 1.94894 3.40014 1.99274 3.37607ZM3.45037 4.55027C3.45335 4.54713 3.49123 4.56475 3.49045 4.56879C3.46994 4.64675 3.39322 4.61132 3.45037 4.55027ZM1.3786 2.33439C1.40759 2.29187 1.39908 2.269 1.34057 2.28933C1.35394 2.30367 1.36549 2.32012 1.3786 2.33439Z" fill="#3C8634"/>
</svg>
