<svg width="13" height="23" viewBox="0 0 13 23" fill="none" xmlns="http://www.w3.org/2000/svg">
<path d="M5.99342 8.78463C5.84845 8.6147 5.68489 8.37236 5.56825 8.18254C5.53186 8.12339 5.57406 8.13588 5.54988 8.09426C5.50209 8.01224 5.44031 7.95027 5.39525 7.86817C5.38056 7.84107 5.4369 7.84688 5.42071 7.81901C5.33124 7.66574 5.22459 7.5378 5.12692 7.38821C4.64623 6.65137 4.15923 5.93934 3.66805 5.19791C3.5669 5.04518 3.46243 4.86492 3.35362 4.69231C3.28639 4.58589 3.21999 4.4836 3.15212 4.39041C3.13071 4.361 3.11154 4.39919 3.10523 4.39503C3.00757 4.32915 3.0905 4.32056 3.06078 4.25519C2.94476 3.99853 2.7929 3.73059 2.65748 3.49515C2.6002 3.39509 2.58673 3.53201 2.5714 3.40838C2.57033 3.39986 2.61841 3.40913 2.60821 3.37873C2.58544 3.31142 2.52161 3.18929 2.50254 3.13686C2.46554 3.03544 2.45846 3.01917 2.4216 2.92413C2.37179 2.79372 2.33633 2.62937 2.28756 2.48715C2.27705 2.4568 2.24971 2.50867 2.22952 2.46075C2.20872 2.41218 2.17989 2.278 2.17996 2.23067C2.17969 2.18383 2.21464 2.1964 2.22004 2.18702C2.26572 2.1106 2.15651 1.97242 2.15178 1.95219C2.11185 1.79576 2.09653 1.64692 2.08874 1.50359C2.08222 1.35694 2.05099 1.21101 1.97026 1.0779C1.90559 0.971199 1.81275 0.87495 1.70952 0.794814C1.65496 0.752998 1.59076 0.723843 1.52076 0.702208C1.33617 0.646171 1.14672 0.64519 0.895672 0.654384C0.868336 0.654675 0.844326 0.657198 0.823801 0.661473C0.806003 0.665401 0.834892 0.707441 0.816443 0.712167C0.6879 0.694311 0.65972 1.05795 0.715818 1.40589C0.720467 1.44096 0.669923 1.40564 0.672335 1.44165C0.68626 1.6636 0.725469 2.03778 0.941552 2.10345C0.986222 2.24993 1.04645 2.42799 1.06333 2.57039C1.07445 2.66262 1.00047 2.598 1.05895 2.69357C1.07209 2.71508 1.09691 2.67052 1.11384 2.70381C1.18544 2.84489 1.23798 3.00877 1.31516 3.1469C1.33071 3.17439 1.36061 3.15382 1.36987 3.15983C1.44649 3.21234 1.4135 3.36206 1.41761 3.3902C1.4503 3.6059 1.52202 3.74022 1.57679 3.94653C1.58891 3.99567 1.62057 3.92594 1.63362 3.97325C1.64364 4.01024 1.65489 4.06117 1.66088 4.10494C1.68879 4.30135 1.69759 4.5054 1.68094 4.69894C1.67631 4.75034 1.63568 4.70325 1.63134 4.72763C1.612 4.83421 1.68774 4.86021 1.66642 4.96331C1.66189 4.98492 1.62791 4.97077 1.6239 4.97453C1.56092 5.03244 1.64118 5.09118 1.64172 5.10759C1.64996 5.31167 1.54457 5.42706 1.52678 5.61644C1.52463 5.63918 1.57636 5.59548 1.56756 5.6592C1.54932 5.79028 1.5259 5.92176 1.49908 6.05311C1.43285 6.37268 1.29525 6.65585 1.15701 6.91129C1.12572 6.96863 1.11442 6.91276 1.10904 6.91487C1.02396 6.95011 1.08399 7.02402 1.07832 7.04453C1.03102 7.20605 0.90249 7.3187 0.951401 7.46158C0.837125 7.69354 0.743397 7.93133 0.666372 8.17345C0.570139 8.52013 0.672537 8.97101 0.71787 9.39811C0.719033 9.40695 0.674509 9.40187 0.67703 9.41952C0.707806 9.63029 0.761206 9.57497 0.875598 9.68676C0.904706 9.71597 0.842412 9.84384 0.838748 9.85579C0.823987 9.89675 0.753838 9.88005 0.752414 9.89273C0.743164 9.99792 0.934721 9.92021 0.973964 10.0447C0.974876 10.0487 0.933506 10.0438 0.933232 10.0554C0.932053 10.0909 0.956503 10.1179 0.954247 10.1535C0.949008 10.2354 0.861885 10.2916 0.954061 10.384C0.965863 10.3954 1.06988 10.3383 1.10126 10.4487C1.11377 10.4934 1.18194 10.6855 1.19417 10.7429C1.20578 10.7991 1.15734 10.7747 1.15713 10.779C1.16113 10.9409 1.12246 10.893 1.07889 10.991C1.03546 11.0884 1.19347 11.0095 1.22247 11.0327C1.25143 11.0559 1.25118 11.177 1.2471 11.2078C1.24308 11.2389 1.20878 11.2143 1.20957 11.2403C1.21585 11.4134 1.31608 11.2792 1.36061 11.3205C1.46577 11.4174 1.37792 11.5558 1.40619 11.6701C1.41389 11.7012 1.43276 11.6666 1.44511 11.6923C1.49327 11.7931 1.4787 11.871 1.55722 11.9769C1.56997 11.994 1.67911 12.0645 1.64803 12.1461C1.64351 12.1578 1.60389 12.1439 1.61348 12.191C1.62781 12.2616 1.66537 12.3844 1.70184 12.4524C1.72884 12.5028 1.75662 12.4235 1.76559 12.4962C1.76953 12.5285 1.72006 12.4842 1.72984 12.5438C1.73936 12.6027 1.7927 12.7448 1.81315 12.798C1.83375 12.8514 1.86109 12.8081 1.86524 12.8116C1.88947 12.8325 1.94551 12.9298 1.94869 12.9388C1.97282 13.0035 1.99534 13.0683 2.0167 13.133C2.14326 13.5182 2.26381 13.8905 2.47611 14.239C2.49544 14.2708 2.52102 14.2286 2.52435 14.2332C2.60122 14.3356 2.45333 14.3028 2.46375 14.3995C2.53308 14.3459 2.54485 14.3995 2.59778 14.4728C2.62338 14.508 2.64071 14.4708 2.64565 14.4726C2.72173 14.5026 2.68732 14.574 2.68162 14.5909C2.66024 14.6524 2.73453 14.6631 2.72068 14.7046C2.70725 14.7464 2.63114 14.7137 2.67605 14.7879C2.71514 14.7929 2.75181 14.6962 2.79674 14.7459C2.9655 14.9321 3.15394 15.3598 3.25172 15.5347C3.33446 15.6821 3.37374 15.7416 3.41471 15.8214C3.42218 15.8359 3.42965 15.8511 3.43736 15.8674C3.52711 16.0592 3.53894 15.961 3.62921 16.0612C3.71881 16.1609 3.5586 16.1796 3.54049 16.2118C3.52211 16.2435 3.56027 16.2442 3.55658 16.2729C3.55288 16.3016 3.50935 16.2691 3.53055 16.3193C3.55205 16.3699 3.6724 16.4678 3.71125 16.4692C3.79245 16.4701 3.82473 16.3761 3.87157 16.5134C3.87419 16.5212 3.82732 16.517 3.83907 16.5462C3.9342 16.779 4.05521 17.0079 4.14675 17.2407C4.15925 17.2727 4.10677 17.2656 4.11358 17.2844C4.18398 17.4803 4.21517 17.3821 4.33883 17.4457C4.23097 17.4718 4.20168 17.5588 4.27103 17.698C4.31323 17.7831 4.34801 17.7474 4.40491 17.7871C4.42192 17.7988 4.4227 17.8732 4.44799 17.8744C4.53059 17.8782 4.57577 17.7861 4.61809 17.9457C4.61988 17.9528 4.57419 17.9497 4.58297 17.973C4.63874 18.1232 4.71526 18.1074 4.79791 18.2585C4.86263 18.3767 4.92369 18.6139 4.98194 18.7557C4.87071 18.8042 4.95758 18.9239 5.05793 18.941C5.09721 19.0328 5.14718 19.1281 5.17734 19.2191C5.18804 19.2509 5.14692 19.2461 5.14529 19.2515C5.11909 19.3354 5.21071 19.3387 5.22289 19.3568C5.35086 19.5533 5.37779 19.7502 5.53287 19.9186C5.53845 19.9246 5.61894 19.8971 5.59158 19.977C5.58971 19.9825 5.52177 19.9362 5.56764 20.029C5.60956 20.1138 5.66034 20.2853 5.75422 20.3905C5.76225 20.3996 5.77055 20.4082 5.77914 20.4161C5.8059 20.4414 5.90902 20.4756 5.90426 20.563C5.90358 20.5748 5.87782 20.58 5.87445 20.5988C5.86446 20.6597 5.94754 20.6299 5.91895 20.7136C5.89048 20.7973 5.91397 20.9208 6.04832 21.0031C6.05256 21.0059 6.12641 20.989 6.1554 21.0237C6.20235 21.0803 6.26221 21.1655 6.3171 21.2202C6.34319 21.2461 6.35628 21.1998 6.36131 21.2038C6.55092 21.3584 6.65679 21.4992 6.86132 21.6676C6.89917 21.699 7.04451 21.729 7.0995 21.8155C7.1623 21.9107 6.96207 22.0347 7.202 22.1135C7.30168 22.1453 7.52251 21.9664 7.62293 22.1584C7.94145 22.2612 8.21784 22.4219 8.55755 22.4513C8.57277 22.4526 8.63495 22.3919 8.66883 22.4001C8.71936 22.4124 8.74044 22.4512 8.77699 22.4605C8.92894 22.4999 9.07556 22.4928 9.22398 22.5154C9.28071 22.5238 9.2568 22.5566 9.32466 22.5659C9.39273 22.5749 9.44232 22.5332 9.53263 22.5629C9.60093 22.5853 9.6651 22.6846 9.75889 22.7003C9.7668 22.607 9.8315 22.6126 9.94505 22.5911C9.96711 22.5869 9.94448 22.5537 9.95494 22.5501C9.99734 22.5344 10.0354 22.5621 10.0751 22.5444C10.0847 22.5401 10.0856 22.5082 10.0936 22.5029C10.1314 22.4771 10.1818 22.4881 10.2223 22.5049L10.2114 22.5056C10.2458 22.5146 10.2736 22.5283 10.2827 22.5327C10.3613 22.5704 10.3897 22.5249 10.4478 22.5361C10.5057 22.5474 10.4254 22.5815 10.4921 22.5842C10.6296 22.5898 10.8014 22.5612 10.9381 22.5438C10.9925 22.5367 10.9496 22.4996 10.9572 22.4976C11.0682 22.4713 11.1881 22.5005 11.239 22.4079C11.3465 22.615 11.3039 22.3771 11.4713 22.4007C11.4845 22.4028 11.5123 22.5039 11.4661 22.5248C11.4201 22.5457 11.3425 22.5231 11.2783 22.5557C11.263 22.5634 11.1848 22.6723 11.1735 22.6798C11.082 22.7389 11.0471 22.5872 11.0407 22.5795C10.9693 22.4966 10.872 22.6157 10.8432 22.627C10.7126 22.6783 10.5955 22.672 10.4852 22.7104C10.4135 22.7353 10.4191 22.8369 10.3606 22.8414C10.3207 22.8444 10.2859 22.8412 10.2533 22.8356C10.2472 22.8362 10.2293 22.8377 10.2232 22.8376C10.0987 22.7998 10.0269 22.7293 9.87485 22.8223C9.83388 22.8468 9.86884 22.96 9.72764 22.8659C9.71858 22.86 9.61603 22.7743 9.55085 22.82C9.54258 22.8258 9.54044 22.8581 9.52988 22.86C9.45861 22.8722 9.41548 22.8426 9.33844 22.8474C9.26209 22.8522 9.16821 22.8599 9.0836 22.8373C9.03217 22.8238 8.97469 22.7542 8.95261 22.7358C8.89013 22.6831 8.80417 22.7387 8.77053 22.68C8.7374 22.6211 8.83438 22.5597 8.73044 22.5056C8.71011 22.5873 8.68379 22.67 8.6603 22.7515C8.41007 22.6981 8.17323 22.6075 7.92881 22.5278C7.89836 22.5178 7.91466 22.5713 7.88141 22.5616C7.74141 22.52 7.6344 22.4434 7.49126 22.3939C7.38017 22.3556 7.24235 22.3415 7.12676 22.2926C7.10515 22.1723 6.93213 22.1102 6.82562 22.0288C6.78833 22.0006 6.80506 21.9808 6.78274 21.9555C6.69878 21.8599 6.69765 21.9622 6.66174 21.9533C6.50745 21.9116 6.61255 21.7506 6.4799 21.6481C6.47327 21.6433 6.32161 21.6483 6.30584 21.6423C6.2048 21.6076 6.31747 21.605 6.27736 21.5583C6.20418 21.4716 6.1675 21.4018 6.0561 21.3279C6.02418 21.3073 5.91297 21.2805 5.90261 21.1923C5.90119 21.1807 5.93041 21.1627 5.92687 21.1556C5.86152 21.0269 5.77777 21.0908 5.69844 21.0483C5.61839 21.0045 5.60409 20.8584 5.60734 20.8255C5.61425 20.7396 5.65569 20.8539 5.66235 20.8534C5.73873 20.8499 5.67724 20.784 5.64295 20.7235C5.72316 20.6562 5.6671 20.5827 5.60798 20.6619C5.6017 20.671 5.63878 20.709 5.64295 20.7235C5.54386 20.7302 5.4779 20.6728 5.47092 20.5646C5.46987 20.5439 5.47108 20.5213 5.47475 20.497C5.48568 20.4272 5.5557 20.4451 5.4585 20.314C5.41533 20.2549 5.36631 20.3146 5.31737 20.2663C5.20595 20.1564 5.17801 19.9544 5.10187 19.8238C5.07436 19.7766 5.06252 19.8417 5.04245 19.8099C4.9886 19.7245 4.97723 19.6329 4.921 19.5502C4.91583 19.5427 4.88816 19.5804 4.87431 19.5525C4.76875 19.342 4.70751 19.1481 4.60506 18.9283C4.55538 18.8216 4.44596 18.6431 4.398 18.5321C4.31494 18.3399 4.25642 18.0825 4.1636 17.9287C4.10364 17.8291 4.07791 17.8701 4.03039 17.8379C3.93927 17.7774 3.94864 17.5813 3.95162 17.5543C3.95183 17.5535 4.00579 17.6377 4.00045 17.5808C4.0256 17.5332 3.95229 17.5552 3.95162 17.5543C3.95339 17.5361 3.87009 17.3549 3.84421 17.323C3.83029 17.3057 3.80137 17.3346 3.79477 17.3253C3.6397 17.1053 3.50394 16.8761 3.38747 16.6319C3.3858 16.6273 3.42742 16.6122 3.42301 16.6017C3.3635 16.4566 3.26662 16.3952 3.17458 16.3C3.0896 16.2117 3.0475 16.1278 3.05966 16.0329C3.06078 16.0243 3.06236 16.0156 3.06444 16.0069C3.00644 15.928 2.96201 15.79 2.9375 15.7109C2.91239 15.6306 2.83412 15.6656 2.82897 15.6604C2.66722 15.4979 2.64158 15.3635 2.52696 15.1599C2.47265 15.0634 2.34844 14.8801 2.27928 14.7793C2.2245 14.7 2.21279 14.6394 2.15809 14.568C2.15068 14.5582 2.12363 14.5874 2.12055 14.5849C2.03216 14.5193 2.13661 14.5165 2.14107 14.4905C2.1577 14.3959 2.16394 14.3413 2.07973 14.2414C2.06047 14.2186 1.9023 14.2023 1.87085 14.1563C1.83037 14.0968 1.88509 14.1 1.84227 14.038C1.83869 14.0326 1.81257 14.0465 1.794 14.0043C1.70717 13.8077 1.63167 13.5852 1.55188 13.3771C1.5411 13.3486 1.51071 13.4015 1.49439 13.3604C1.48982 13.3488 1.48527 13.3371 1.48074 13.3253C1.41403 13.1521 1.34878 12.9644 1.30656 12.7889C1.2957 12.743 1.3365 12.7593 1.34214 12.7465C1.37605 12.6679 1.2652 12.6137 1.25866 12.6006C1.1001 12.2873 1.07983 12.0097 0.922974 11.6872C0.914153 11.6694 0.776871 11.5599 0.827988 11.4702C0.831318 11.464 0.884269 11.3742 0.812877 11.3379C0.808424 11.3357 0.783371 11.3883 0.763117 11.3195C0.742416 11.2494 0.677909 11.1508 0.687313 11.0407C0.690218 11.0058 0.741672 10.9106 0.65023 10.8419C0.643968 10.8377 0.460077 10.7475 0.537626 10.6655C0.550483 10.6521 0.653076 10.6268 0.566174 10.5378C0.549351 10.5205 0.5395 10.5654 0.507477 10.5158C0.458526 10.4405 0.449179 10.3211 0.372284 10.2338C0.35859 10.2181 0.265865 10.162 0.299219 10.0851C0.304403 10.0729 0.343785 10.0814 0.337494 10.0472C0.30849 9.88693 0.238507 9.72864 0.220443 9.56119C0.213883 9.50107 0.276484 9.51644 0.27648 9.4534C0.276475 9.39077 0.262999 9.26761 0.224127 9.20776C0.185448 9.14898 0.110661 9.2375 0.08431 9.14198C0.0032789 8.80619 -0.0486489 8.45464 0.0967079 7.99181C0.129093 7.90532 0.162355 7.81979 0.195061 7.73456C0.217911 7.67558 0.169116 7.71353 0.201197 7.62613C0.317511 7.30103 0.533699 6.76926 0.699811 6.55444C0.83376 6.37843 0.768347 6.64371 0.852317 6.50058C0.892797 6.43065 0.823554 6.31508 0.826334 6.29754C0.850904 6.14584 0.908955 6.05466 0.932241 5.94099C0.936865 5.91779 0.940643 5.89438 0.943337 5.86975C0.947198 5.83417 0.898596 5.86031 0.90229 5.83029C0.914443 5.72801 0.952444 5.62594 0.964576 5.5307C0.969878 5.48794 0.936375 5.49058 0.944932 5.45226C0.964862 5.36038 0.989427 5.28157 1.02975 5.19561C1.03342 5.18767 1.06773 5.24754 1.0767 5.17931C1.09088 5.06944 1.13093 4.93385 1.10209 4.807C1.09327 4.76925 1.01916 4.76777 1.07025 4.68836C1.08067 4.67176 1.17128 4.69131 1.09136 4.59965C1.07855 4.58312 0.9668 4.43593 1.02605 4.35459C1.04193 4.33321 1.10975 4.27354 1.09286 4.2291C1.09031 4.22323 1.05341 4.25227 1.04508 4.21558C1.04281 4.20538 1.04059 4.19508 1.03842 4.18469C1.02116 4.12262 0.985291 3.99264 0.933506 3.88007C0.918528 3.84768 0.896995 3.9115 0.875704 3.86252C0.81605 3.72543 0.753965 3.53904 0.707916 3.38889C0.691302 3.33424 0.737813 3.358 0.739755 3.35278C0.771406 3.26818 0.679691 3.26019 0.667066 3.2416C0.588501 3.12301 0.583802 3.00815 0.526218 2.8905C0.510401 2.85789 0.483424 2.89611 0.47753 2.8907C0.418303 2.83352 0.504184 2.85968 0.494012 2.81266C0.46593 2.68119 0.409652 2.5434 0.358044 2.41688C0.339056 2.37039 0.315744 2.43898 0.299202 2.39695C0.200812 2.14807 0.114941 1.87684 0.0743829 1.59749C0.0670908 1.5451 0.108694 1.56957 0.114004 1.55714C0.151651 1.47359 0.0562003 1.37672 0.0449976 1.35086C-0.00695997 1.23333 0.0178137 1.17881 0.00610145 1.06399C-0.00424507 0.893404 -0.0195224 0.682519 0.131168 0.409254C0.284624 0.118175 0.672638 -0.00837976 0.882395 0.00410424C1.04424 0.00145137 1.30994 -0.0130148 1.54227 0.0351184C1.73978 0.0728892 1.95022 0.158791 2.11628 0.305517C2.43809 0.590959 2.66279 0.98329 2.70809 1.44655C2.71095 1.47506 2.71403 1.50364 2.71739 1.5323C2.72112 1.5642 2.76412 1.52737 2.76794 1.55464C2.81405 1.90536 2.85805 2.22434 2.98259 2.54012C2.99265 2.56583 3.02109 2.51383 3.03871 2.55442C3.07503 2.63712 3.11494 2.74466 3.13928 2.83621C3.15097 2.8802 3.09209 2.83964 3.10482 2.884C3.13512 2.98862 3.18264 3.09587 3.23991 3.19284C3.26459 3.23436 3.27162 3.14912 3.30065 3.20462C3.49343 3.56827 3.72127 3.9174 3.92046 4.30454C3.9255 4.31428 3.93053 4.32406 3.93555 4.33388C3.94977 4.36175 3.88957 4.43601 3.94179 4.48102C3.9656 4.47077 3.9901 4.45361 4.01374 4.44003C4.39635 4.97103 4.74319 5.5203 5.12094 6.05856C5.13688 6.08125 5.14858 6.01406 5.17964 6.05782C5.35937 6.31091 5.5464 6.54801 5.69362 6.83327C5.70821 6.86142 5.62963 6.89858 5.69478 6.96631C5.70626 6.97815 5.79786 7.08468 5.83415 7.10294C5.8393 7.10525 5.85652 7.06121 5.88394 7.09683C6.04279 7.30433 6.19853 7.53159 6.33434 7.7554C6.35606 7.79137 6.29543 7.78094 6.31059 7.80675C6.41952 7.99122 6.58455 8.15768 6.67655 8.34279C6.73744 8.46593 6.64959 8.47154 6.63567 8.57246C6.63338 8.58629 6.68405 8.65519 6.65325 8.68405C6.57625 8.75731 6.45934 8.795 6.38022 8.87695C6.36338 8.89491 6.45264 8.96819 6.36558 8.95111C6.3598 8.95006 6.29377 8.89592 6.26535 8.89144C6.24592 8.88866 6.2273 8.93469 6.19592 8.92262C6.16451 8.91045 6.17374 8.86347 6.12769 8.83706C6.08223 8.81181 6.05653 8.85847 5.99342 8.78463ZM2.8241 15.3517C2.81983 15.2663 2.68645 15.3348 2.75925 15.3855C2.76293 15.3878 2.82441 15.3561 2.8241 15.3517ZM8.20785 22.4938C8.13007 22.4024 8.03475 22.4731 8.08846 22.5435C8.14356 22.6139 8.23221 22.5216 8.20785 22.4938ZM9.23973 22.6495C9.13046 22.5839 9.08389 22.7916 9.21596 22.7647C9.22366 22.7632 9.2462 22.6533 9.23973 22.6495ZM6.41604 8.31673C6.41514 8.31884 6.45025 8.36863 6.45264 8.36851C6.51004 8.36575 6.43991 8.26637 6.41604 8.31673ZM10.2706 22.6442C10.2597 22.6376 10.2441 22.6363 10.2283 22.6387C10.1819 22.64 10.1364 22.6641 10.1688 22.69C10.1816 22.7001 10.2028 22.7026 10.2228 22.6999C10.2255 22.7 10.2333 22.6993 10.236 22.6991C10.2724 22.6895 10.302 22.6635 10.2706 22.6442ZM1.33873 11.6982C1.3404 11.6963 1.32725 11.6545 1.31573 11.6597C1.27863 11.6764 1.31034 11.7297 1.33873 11.6982ZM11.9748 22.4224C11.7276 22.4328 11.5427 22.2869 11.829 22.2706C11.8804 22.2687 11.7251 22.3382 11.7918 22.3467C11.9109 22.3624 11.9826 22.2475 12.1067 22.3015C12.1281 22.3111 11.9882 22.4217 11.9744 22.4227C11.9745 22.4226 11.9747 22.4225 11.9748 22.4224ZM2.9549 15.2212C2.95595 15.2191 2.92578 15.1661 2.92342 15.166C2.86578 15.1627 2.92618 15.269 2.9549 15.2212ZM0.640347 9.25239C0.643351 9.24825 0.617455 9.11225 0.613093 9.10839C0.52139 9.05258 0.574053 9.33165 0.640347 9.25239ZM4.98004 18.7593C5.05097 18.798 5.09018 18.8683 5.05786 18.9407C5.03325 18.8807 5.00507 18.8195 4.98004 18.7593Z" fill="#963076"/>
</svg>
