<svg width="11" height="9" viewBox="0 0 11 9" fill="none" xmlns="http://www.w3.org/2000/svg">
<path d="M10.9625 7.72501C10.9433 7.64186 10.8879 7.54601 10.837 7.4778C10.8212 7.45644 10.8022 7.47913 10.7902 7.4649C10.7665 7.43689 10.7653 7.40232 10.7398 7.37595C10.7313 7.36729 10.6989 7.39757 10.6909 7.38813C10.647 7.33658 10.6307 7.27629 10.5944 7.22096C10.4151 6.94792 10.2538 6.67831 10.0768 6.4075C10.0183 6.31802 9.92023 6.22633 9.87797 6.12405C9.87307 6.11208 9.90855 6.09957 9.9099 6.09591C9.92988 6.03907 9.8728 6.08846 9.85139 6.07222C9.76687 6.00822 9.70609 5.91673 9.66747 5.82909C9.65105 5.79165 9.73459 5.78673 9.67802 5.77426C9.67416 5.77336 9.64665 5.80302 9.63717 5.79589C9.61568 5.77956 9.59611 5.73601 9.58292 5.72125C9.55742 5.69305 9.5543 5.68751 9.53473 5.65816C9.50762 5.61812 9.4597 5.58047 9.43853 5.53242C9.43408 5.52206 9.47565 5.51218 9.47155 5.49363C9.46743 5.47504 9.43854 5.43779 9.42193 5.42999C9.40529 5.42213 9.38283 5.44526 9.37527 5.44697C9.31191 5.46193 9.35169 5.36979 9.3495 5.36285C9.30778 5.23763 9.20603 5.17496 9.13777 5.0775C9.08602 5.00344 9.04283 4.9155 8.9905 4.84682C8.98942 4.84539 8.98833 4.84398 8.98723 4.84257C8.92576 4.76324 8.8591 4.7071 8.80435 4.62625C8.79842 4.61757 8.84373 4.59959 8.83655 4.58893C8.76047 4.47603 8.67535 4.37031 8.5673 4.2812C8.55649 4.27236 8.53419 4.3114 8.52143 4.3041C8.44357 4.258 8.29908 4.2058 8.40935 4.05487C8.36853 4.01467 8.31949 3.96534 8.25923 3.94902C8.22043 3.93853 8.20566 3.99168 8.19511 3.94848C8.19267 3.93877 8.23067 3.92276 8.22468 3.91007C8.19939 3.8566 8.14936 3.81685 8.12806 3.76037C8.12379 3.74882 8.15276 3.72824 8.15547 3.7216C8.17672 3.66693 8.08185 3.68766 8.07067 3.68427C7.98586 3.65719 7.96275 3.60375 7.91442 3.55198C7.90315 3.53998 7.95147 3.52248 7.94185 3.50973C7.89141 3.44402 7.82998 3.38417 7.75889 3.34048C7.74297 3.33082 7.72519 3.3708 7.7161 3.36763C7.67648 3.35353 7.7258 3.2945 7.68859 3.28002C7.68082 3.27692 7.65904 3.30424 7.65535 3.30591C7.5975 3.33226 7.64459 3.2594 7.64195 3.25406C7.61046 3.18593 7.51564 3.21646 7.47607 3.1604C7.47132 3.15357 7.51515 3.13498 7.49987 3.11766C7.39849 3.0023 7.27089 2.90089 7.13478 2.82736C7.11367 2.8159 7.10437 2.85167 7.10057 2.85373C7.04066 2.88551 7.08516 2.81141 7.08145 2.8039C7.05132 2.74683 6.96246 2.76451 6.99687 2.66072C6.78083 2.52274 6.61635 2.31861 6.36169 2.2382C6.35852 2.2371 6.33761 2.27385 6.33141 2.27152C6.25639 2.24391 6.30682 2.20053 6.31451 2.10652C6.3164 2.0829 6.2276 2.13643 6.22063 2.14003C6.19504 2.1533 6.16806 2.21096 6.16169 2.21248C6.11032 2.22337 6.23832 2.06168 6.2001 2.03317C6.1987 2.03255 6.18109 2.06674 6.17564 2.06738C6.17306 2.0677 6.17084 2.06752 6.16889 2.067C6.15755 2.06381 6.15413 2.04994 6.13894 2.05264C6.0974 2.06008 6.03334 2.13725 6.03075 2.06526C6.03033 2.05598 6.1026 1.96325 6.0615 1.94323C6.0456 1.93532 5.97808 1.89206 5.95493 1.88811C5.93195 1.88385 5.92677 1.92418 5.92456 1.9248C5.84934 1.94014 5.85883 1.96909 5.79992 2.02132C5.74223 2.0742 5.82864 1.92165 5.82681 1.8988C5.82482 1.87585 5.7683 1.89427 5.75321 1.90316C5.73794 1.91186 5.73942 1.9389 5.7279 1.9425C5.65266 1.96657 5.73942 1.85232 5.7319 1.81861C5.71224 1.73844 5.62779 1.84493 5.5842 1.8426C5.57212 1.84189 5.59111 1.81727 5.58221 1.81113C5.54635 1.78724 5.51071 1.81808 5.47673 1.7688C5.47158 1.76084 5.45585 1.67473 5.41624 1.72345C5.41069 1.73051 5.41169 1.76433 5.39286 1.76676C5.3649 1.77044 5.31822 1.76613 5.29326 1.74939C5.27506 1.73705 5.30987 1.69017 5.28073 1.70065C5.26783 1.70539 5.28196 1.74045 5.25848 1.74689C5.23515 1.75325 5.18177 1.74116 5.16167 1.73645C5.14148 1.73161 5.15988 1.69384 5.15874 1.69086C5.15157 1.6736 5.11443 1.64736 5.11111 1.64691C4.933 1.61237 4.76193 1.66411 4.59356 1.62791C4.58038 1.62515 4.5926 1.5833 4.59063 1.58243C4.5461 1.56103 4.57353 1.67699 4.5387 1.71244C4.54985 1.62641 4.52973 1.64059 4.49768 1.62876C4.48264 1.62303 4.49338 1.59017 4.49223 1.58664C4.47291 1.53419 4.45216 1.59874 4.44713 1.61188C4.42848 1.66024 4.41566 1.60074 4.40292 1.63307C4.39025 1.66516 4.41121 1.71535 4.37997 1.71267C4.37343 1.68117 4.40143 1.60179 4.37904 1.58717C4.29358 1.53175 4.12392 1.58555 4.05251 1.588C3.98071 1.59042 3.95914 1.58342 3.91649 1.59211C3.84046 1.60786 3.87193 1.54951 3.82726 1.51921C3.78238 1.48888 3.79583 1.63792 3.78716 1.66925C3.77855 1.70056 3.77333 1.66745 3.76394 1.68437C3.75459 1.70129 3.77107 1.72399 3.75131 1.72933C3.73211 1.7347 3.68348 1.6749 3.67879 1.64126C3.66895 1.57001 3.69759 1.49781 3.6449 1.52036C3.64185 1.5217 3.64882 1.56115 3.63728 1.56432C3.5477 1.58836 3.45525 1.58361 3.36478 1.60313C3.35221 1.60586 3.35983 1.64986 3.35246 1.65194C3.27603 1.67366 3.30884 1.60305 3.27526 1.51899C3.27537 1.62722 3.24803 1.69126 3.19114 1.68702C3.15669 1.68447 3.16724 1.63809 3.14853 1.60311C3.143 1.59258 3.1165 1.62268 3.11418 1.60022C3.10651 1.5268 3.13631 1.44814 3.07588 1.47499C3.07321 1.47628 3.07761 1.51651 3.06863 1.51808C3.00985 1.52835 3.01163 1.45242 2.95205 1.43729C2.90497 1.4254 2.81638 1.46256 2.76137 1.46399C2.74936 1.58469 2.70022 1.55126 2.68903 1.46579C2.65415 1.46523 2.61705 1.4561 2.5816 1.46345C2.56939 1.46594 2.57287 1.50173 2.57093 1.50531C2.54096 1.56163 2.53531 1.47895 2.52805 1.47484C2.52424 1.47287 2.52044 1.47112 2.51665 1.46955C2.44419 1.44053 2.37272 1.48265 2.31381 1.41119C2.31151 1.40845 2.32605 1.32548 2.29306 1.38095C2.29071 1.38475 2.30652 1.42785 2.27104 1.42252C2.23614 1.41743 2.15714 1.44261 2.12083 1.38968C2.11187 1.37696 2.10547 1.30281 2.06509 1.34512C2.05958 1.35087 2.05489 1.37484 2.04587 1.3859C2.01656 1.42091 2.03812 1.33814 1.99576 1.3995C1.95338 1.46083 1.89497 1.49654 1.86511 1.42964C1.86405 1.42762 1.87911 1.36071 1.86372 1.35515C1.83934 1.34646 1.79943 1.34374 1.77498 1.33165C1.76321 1.32581 1.7888 1.29156 1.78707 1.28989C1.71901 1.23125 1.64764 1.23627 1.55714 1.20453C1.54024 1.19864 1.52597 1.12477 1.47469 1.14696C1.41805 1.17083 1.34539 1.36739 1.29595 1.28021C1.27511 1.24451 1.37736 1.00089 1.25342 1.08201C1.1712 0.989289 1.04132 0.984593 0.970693 0.876283C0.967496 0.871436 0.99569 0.802158 0.984812 0.79564C0.968852 0.786274 0.940748 0.808035 0.928574 0.802077C0.876879 0.77765 0.852638 0.723979 0.806768 0.695844C0.790725 0.685898 0.776691 0.712469 0.758268 0.706874C0.756318 0.706106 0.754628 0.705291 0.752909 0.70416C0.73233 0.690581 0.748165 0.644126 0.708382 0.641239C0.678272 0.639189 0.599615 0.697706 0.56639 0.685161C0.624004 0.611544 0.604924 0.598739 0.589062 0.553979C0.586083 0.545371 0.613082 0.525415 0.61274 0.520047C0.611768 0.497614 0.584048 0.50975 0.584662 0.486616C0.58478 0.481035 0.604952 0.456299 0.606212 0.450358C0.61783 0.399044 0.541767 0.429126 0.52851 0.434321C0.478087 0.454041 0.495463 0.414398 0.468161 0.41582C0.44087 0.417232 0.44858 0.454349 0.423421 0.44793C0.371201 0.434498 0.327155 0.389954 0.288959 0.358887C0.273833 0.346333 0.311839 0.322863 0.31032 0.320317C0.28672 0.285641 0.226049 0.292967 0.264742 0.214156C0.0995588 0.361326 0.260261 0.182058 0.187683 0.177164C0.181919 0.176861 0.109415 0.251331 0.112688 0.274363C0.11593 0.29735 0.157226 0.290279 0.160057 0.324204C0.160718 0.332165 0.121954 0.427295 0.121501 0.434697C0.118149 0.492737 0.223488 0.378805 0.230471 0.373589C0.306614 0.317948 0.268724 0.423615 0.272155 0.436105C0.287599 0.493148 0.333466 0.50361 0.349538 0.548196C0.360184 0.577212 0.296845 0.656657 0.315239 0.668027C0.376583 0.705906 0.485157 0.611767 0.459348 0.749174C0.453959 0.778516 0.37303 0.855948 0.46814 0.820438C0.4742 0.818263 0.553827 0.779712 0.539662 0.832913C0.537875 0.839623 0.517715 0.864931 0.518909 0.869343C0.527457 0.898521 0.55625 0.888373 0.569689 0.914537C0.573061 0.921078 0.576501 0.928144 0.580275 0.93524C0.597782 0.960585 0.612036 0.981396 0.635211 0.98816C0.653651 0.993536 0.708566 0.958952 0.724212 0.95207C0.769106 0.932137 0.749579 1.00399 0.792248 0.971243C0.834898 0.938153 0.856475 0.856954 0.90837 0.852988C0.86069 0.922235 0.813323 0.994433 0.766188 1.06465C0.84078 1.11424 0.928576 1.14223 1.00134 1.19559C1.01039 1.20232 0.975633 1.23343 0.984722 1.24162C1.02303 1.27589 1.07796 1.27343 1.11586 1.31297C1.14482 1.34353 1.15809 1.40836 1.18934 1.44159C1.26233 1.37355 1.30031 1.43448 1.34586 1.45051C1.36176 1.45615 1.37356 1.43329 1.38783 1.43179C1.44116 1.42637 1.38176 1.49039 1.38587 1.50805C1.40466 1.58378 1.50114 1.41737 1.55191 1.44956C1.5545 1.45118 1.54297 1.56067 1.54527 1.56895C1.55816 1.62213 1.56657 1.53975 1.58977 1.54291C1.63216 1.54852 1.66751 1.53846 1.69782 1.58551C1.70665 1.59938 1.71135 1.67164 1.75651 1.63724C1.76238 1.63272 1.77397 1.6008 1.77738 1.60011C1.8375 1.58974 1.79815 1.68848 1.81344 1.73351C1.82904 1.77864 1.90027 1.72668 1.9162 1.70982C1.95831 1.66675 1.90621 1.68129 1.90693 1.67574C1.9147 1.61031 1.94202 1.63235 1.96791 1.63568C2.00616 1.53849 2.03618 1.55539 1.99444 1.63939C1.98976 1.64854 1.97429 1.63289 1.96791 1.63568C1.95445 1.73961 1.99153 1.76616 2.06179 1.68747C2.0945 1.65038 2.09076 1.59514 2.14367 1.63004C2.1679 1.64562 2.13873 1.71224 2.15842 1.73764C2.20421 1.79579 2.29372 1.74636 2.35022 1.76619C2.37114 1.77349 2.34378 1.80894 2.3581 1.81526C2.39668 1.83213 2.43577 1.80745 2.47437 1.82664C2.47763 1.82828 2.46674 1.86214 2.47476 1.86913C2.46752 1.86888 2.46828 1.8693 2.4692 1.86946C2.55467 1.8849 2.62759 1.86692 2.71727 1.87613C2.75999 1.88055 2.83198 1.91104 2.87744 1.91102C2.95428 1.91114 3.05392 1.86034 3.11694 1.88052C3.15795 1.8935 3.14504 1.93372 3.16111 1.9633C3.1923 2.02065 3.26241 1.92859 3.27172 1.91418C3.27204 1.91371 3.23661 1.90106 3.25767 1.88156C3.27246 1.83854 3.27132 1.91395 3.27172 1.91418C3.27758 1.9049 3.35153 1.90137 3.36546 1.91031C3.37301 1.9152 3.36562 1.9538 3.36962 1.95562C3.4636 1.99784 3.56074 2.01458 3.66132 2.00283C3.66311 2.00215 3.66333 1.9584 3.66749 1.95735C3.72538 1.94164 3.75851 1.99724 3.80376 2.0318C3.84856 2.0663 3.88617 2.0579 3.91865 1.98471C3.9538 1.99625 4.00484 1.96603 4.03591 1.94769C4.0663 1.92932 4.06528 2.01443 4.06775 2.01625C4.14296 2.07455 4.19281 2.0287 4.27479 2.02616C4.31417 2.02482 4.38978 2.04205 4.43075 2.05425C4.46266 2.06397 4.48407 2.04554 4.51335 2.06051C4.51729 2.06252 4.51033 2.09996 4.51147 2.1015C4.54138 2.1492 4.53241 2.05571 4.54059 2.03976C4.57007 1.98178 4.58847 1.95109 4.62927 1.98294C4.63878 1.99025 4.65537 2.12549 4.67185 2.13486C4.69404 2.14687 4.68989 2.09849 4.71283 2.11235C4.71478 2.11349 4.71151 2.14277 4.72627 2.14294C4.79427 2.14409 4.87009 2.13568 4.93756 2.14832C4.9467 2.14993 4.92835 2.1945 4.9413 2.19758C5.00325 2.21216 5.06883 2.2217 5.13073 2.2122C5.14606 2.20973 5.14387 2.17586 5.14896 2.16699C5.18068 2.11353 5.18922 2.20306 5.1929 2.2056C5.28553 2.26949 5.38336 2.21796 5.46755 2.28992C5.47275 2.29417 5.47537 2.3941 5.52349 2.32966C5.5265 2.32527 5.57722 2.25984 5.56944 2.31689C5.56886 2.32042 5.541 2.35301 5.56088 2.35773C5.58117 2.36268 5.5965 2.40121 5.64239 2.3744C5.65661 2.3658 5.71526 2.30648 5.70672 2.37555C5.7069 2.38071 5.66547 2.52439 5.73009 2.44753C5.74077 2.43494 5.79563 2.34452 5.79383 2.40805C5.79324 2.42025 5.77091 2.43363 5.77624 2.45486C5.78348 2.4857 5.82282 2.48312 5.82377 2.53169C5.82405 2.53423 5.82424 2.53689 5.82433 2.53967C5.82462 2.55025 5.80389 2.62406 5.8539 2.59361C5.86174 2.58885 5.87761 2.55674 5.88924 2.56052C5.94444 2.57821 5.97603 2.63159 6.03521 2.64611C6.05604 2.65125 6.08263 2.59991 6.10819 2.60027C6.13356 2.60047 6.17577 2.61445 6.17707 2.64837C6.17824 2.68221 6.10406 2.7395 6.125 2.76495C6.21547 2.87522 6.356 2.91935 6.46821 3.00198C6.48475 3.01415 6.45102 3.02836 6.47373 3.04801C6.55861 3.12119 6.68291 3.26859 6.79993 3.28119C6.89479 3.29204 6.8498 3.19512 6.90934 3.21839C6.9381 3.22985 6.8899 3.32865 6.89262 3.33564C6.91955 3.40596 6.98472 3.40282 7.0192 3.45517C7.0262 3.46591 6.98793 3.48853 6.99417 3.4973C7.01515 3.52743 7.05543 3.53969 7.07783 3.56635C7.08774 3.57831 7.0629 3.5997 7.07475 3.60776C7.10271 3.62722 7.13376 3.63863 7.17883 3.64041C7.18295 3.6406 7.19721 3.5974 7.21614 3.6142C7.24642 3.64122 7.30409 3.65678 7.31425 3.71217C7.31718 3.72872 7.26375 3.78078 7.32167 3.76674C7.33376 3.76381 7.39315 3.69618 7.36117 3.77491C7.35607 3.78817 7.31976 3.90186 7.38844 3.87696C7.40653 3.8704 7.47356 3.83483 7.47648 3.85504C7.47666 3.85795 7.44101 3.87841 7.4475 3.89124C7.47101 3.93618 7.50837 3.97116 7.53241 4.01717C7.53874 4.02948 7.49449 4.0421 7.50485 4.0595C7.53319 4.10729 7.58587 4.15191 7.63055 4.18439C7.64709 4.19632 7.6644 4.16364 7.66818 4.16231C7.72965 4.14071 7.67591 4.20435 7.67718 4.21328C7.68611 4.2684 7.739 4.27172 7.75937 4.31256C7.76504 4.32375 7.72927 4.34187 7.72812 4.34597C7.71769 4.38705 7.76019 4.32799 7.7763 4.33545C7.82161 4.3562 7.85083 4.39744 7.87522 4.43608C7.88416 4.45035 7.83695 4.46393 7.84536 4.47638C7.89446 4.55067 7.95432 4.62057 8.02742 4.67502C8.04117 4.68511 8.0627 4.65571 8.07111 4.65358C8.12985 4.63846 8.0903 4.71236 8.08933 4.72311C8.08498 4.77228 8.11795 4.76468 8.13267 4.79388C8.20396 4.93655 8.33574 5.08207 8.43412 5.1965C8.4423 5.20604 8.45046 5.21543 8.45858 5.2247C8.57553 5.35757 8.68131 5.45803 8.77248 5.60515C8.77867 5.61508 8.73364 5.63162 8.7385 5.64054C8.80283 5.75434 8.88928 5.85076 8.94936 5.96712C8.95436 5.97664 8.90904 5.98786 8.9158 6.00392C8.92943 6.03703 8.95543 6.07272 8.98657 6.09511C9.00166 6.10602 9.02088 6.06598 9.03542 6.07741C9.06934 6.10394 9.09544 6.13902 9.11184 6.17818C9.11871 6.19485 9.0663 6.19631 9.07816 6.21606C9.15822 6.35128 9.23159 6.48601 9.36243 6.59268C9.3714 6.59999 9.45511 6.56154 9.45182 6.59065C9.43078 6.60503 9.40493 6.62009 9.38187 6.6345C9.48468 6.83875 9.62171 7.0197 9.73138 7.21997C9.73597 7.22837 9.68528 7.2361 9.69391 7.25243C9.74396 7.34743 9.77817 7.44558 9.86906 7.52294C9.87799 7.53062 9.9526 7.48862 9.9549 7.52335C9.95529 7.52956 9.96569 7.57807 9.95416 7.59721C9.95234 7.59993 9.91252 7.60889 9.91808 7.6235C9.95077 7.7075 9.99774 7.78945 10.0555 7.86173C10.065 7.8735 10.0978 7.84244 10.1049 7.85071C10.1547 7.90943 10.1553 7.99513 10.217 8.04591C10.2583 8.07964 10.3203 8.03695 10.3968 8.03433C10.4076 8.03401 10.4198 8.06109 10.4596 8.04748C10.5597 8.01342 10.6624 7.95813 10.7698 7.9234C10.7929 7.91593 10.7834 7.96423 10.8293 7.92025C10.8324 7.91726 10.8397 7.88182 10.8554 7.86753C10.8663 7.85762 10.9097 7.8511 10.9221 7.8346C10.9346 7.81807 10.8969 7.81993 10.9095 7.79556C10.9224 7.77125 10.9706 7.76072 10.9625 7.72501ZM4.17164 1.86559C4.20097 1.82643 4.196 1.97595 4.16911 1.93851C4.16781 1.93652 4.17014 1.86751 4.17164 1.86559ZM0.992256 1.04854C1.05922 1.01452 1.02481 1.10832 0.975189 1.13619C0.925277 1.16376 0.971868 1.05878 0.992256 1.04854ZM0.719868 0.794889C0.784031 0.777546 0.663975 0.952476 0.653232 0.891354C0.652559 0.887849 0.716114 0.795873 0.719868 0.794889ZM10.3721 7.91661C10.374 7.91621 10.3839 7.93546 10.3823 7.93667C10.3425 7.96503 10.3229 7.92678 10.3721 7.91661ZM0.465782 0.524116C0.494085 0.510395 0.501445 0.559499 0.466349 0.576742C0.438026 0.590563 0.430531 0.541176 0.465782 0.524116ZM5.55822 1.91083C5.55937 1.90886 5.5746 1.91232 5.56991 1.92403C5.55481 1.96167 5.539 1.94372 5.55822 1.91083ZM0.00049126 0.120443C0.0742498 0.173541 0.230915 0.07764 0.142856 0.0274953C0.126937 0.0184517 0.135622 0.0951087 0.107986 0.0920777C0.0576299 0.086552 0.108347 -0.0149615 0.0374703 0.00186008C0.0246768 0.00508217 -0.00398823 0.117678 0.000454369 0.120733C0.000466948 0.120637 0.00047875 0.120539 0.00049126 0.120443ZM4.1978 1.6872C4.19847 1.68526 4.22011 1.68468 4.2205 1.68666C4.2293 1.73475 4.18575 1.73596 4.1978 1.6872ZM6.38248 2.30568C6.38607 2.30311 6.4287 2.33105 6.42757 2.3351C6.40089 2.4126 6.31501 2.35662 6.38248 2.30568ZM2.76016 1.46711C2.74211 1.41706 2.71448 1.40828 2.68914 1.46574C2.71265 1.46523 2.73655 1.46745 2.76016 1.46711Z" fill="#963076"/>
</svg>
