<svg width="7" height="5" viewBox="0 0 7 5" fill="none" xmlns="http://www.w3.org/2000/svg">
<path d="M6.06322 1.18063C6.00483 1.21229 5.94782 1.27749 5.90968 1.33354C5.8977 1.35106 5.92249 1.36499 5.91495 1.37802C5.90013 1.4035 5.87213 1.40962 5.85877 1.43638C5.85444 1.44533 5.88968 1.47076 5.88453 1.47941C5.85604 1.5266 5.81119 1.54925 5.7759 1.58924C5.60227 1.78582 5.4117 1.95749 5.21715 2.12455C5.15426 2.17844 5.08843 2.2721 5.02158 2.29185C5.01439 2.29371 4.99979 2.25959 4.99713 2.25761C4.98436 2.24785 4.98156 2.24642 4.98206 2.25037C4.98001 2.26044 4.99735 2.29283 4.99003 2.30415C4.94734 2.36996 4.86974 2.40593 4.79502 2.41936C4.7629 2.42508 4.76684 2.34523 4.75142 2.39505C4.75028 2.39844 4.77183 2.43213 4.76499 2.43918C4.74969 2.45503 4.71094 2.46196 4.6972 2.47033C4.67062 2.4867 4.66575 2.48805 4.63835 2.49857C4.60112 2.51321 4.56284 2.54792 4.51897 2.55471C4.5096 2.55604 4.50719 2.51415 4.4909 2.51291C4.47441 2.51175 4.43872 2.52871 4.42962 2.54226C4.42044 2.55584 4.4369 2.58333 4.43724 2.59092C4.44084 2.65473 4.36825 2.59204 4.36182 2.5923C4.28516 2.59598 4.22884 2.63379 4.17172 2.66988C4.14305 2.68767 4.11476 2.70518 4.08368 2.71902C4.01044 2.75143 3.92583 2.77565 3.85908 2.81484C3.77931 2.86192 3.72445 2.921 3.64859 2.96782C3.64064 2.9728 3.62329 2.92755 3.61328 2.93375C3.50764 2.99922 3.41279 3.08149 3.34472 3.1837C3.3379 3.19399 3.3767 3.21503 3.37161 3.22709C3.35754 3.2597 3.34452 3.30472 3.32134 3.33476C3.30313 3.36257 3.2559 3.3701 3.18905 3.29423C3.16214 3.31961 3.12233 3.34941 3.10414 3.399C3.09239 3.4309 3.13419 3.46069 3.09737 3.45715C3.0891 3.45636 3.08022 3.41682 3.06947 3.41813C3.02377 3.42389 2.98492 3.45507 2.93589 3.45343C2.92604 3.45295 2.91469 3.41932 2.90993 3.4144C2.87091 3.37475 2.8703 3.46693 2.86503 3.47566C2.82649 3.54056 2.77789 3.53922 2.72559 3.55916C2.71333 3.56383 2.71195 3.51384 2.69964 3.5167C2.6364 3.53192 2.57414 3.55708 2.51956 3.59659C2.50746 3.60548 2.5322 3.64012 2.52701 3.64635C2.50373 3.6734 2.47463 3.60233 2.45201 3.62657C2.44719 3.63159 2.4606 3.66375 2.46064 3.66772C2.46129 3.73003 2.42218 3.65333 2.41743 3.6528C2.35615 3.64443 2.34578 3.73942 2.28917 3.74213C2.28241 3.74234 2.285 3.69612 2.26676 3.6993C2.14537 3.7201 2.02358 3.76252 1.9125 3.82155C1.89522 3.83065 1.91502 3.8602 1.91473 3.86441C1.90821 3.9306 1.87889 3.8497 1.87239 3.84773C1.86812 3.84664 1.86401 3.84617 1.86003 3.84616C1.82901 3.84383 1.793 3.8982 1.76535 3.80568C1.67748 3.82484 1.5773 3.8068 1.48666 3.78817C1.41032 3.77224 1.3402 3.74889 1.24311 3.72996C1.24062 3.72935 1.21825 3.76503 1.21325 3.76355C1.15262 3.74459 1.20234 3.70028 1.23246 3.61944C1.24079 3.59986 1.15307 3.64754 1.14569 3.64984C1.12022 3.66064 1.08153 3.7105 1.07562 3.71155C1.02675 3.71675 1.18287 3.58233 1.1621 3.55776C1.16115 3.55716 1.13494 3.58495 1.13019 3.58516C1.11525 3.58575 1.12124 3.56924 1.1055 3.57044C1.06943 3.5735 0.983922 3.62687 1.01103 3.56504C1.01479 3.55723 1.1129 3.49384 1.0909 3.47189C1.08181 3.46324 1.05327 3.41574 1.03871 3.40601C1.02403 3.39652 0.997485 3.42533 0.995526 3.42525C0.930187 3.41333 0.920986 3.43798 0.845547 3.45506C0.769988 3.47101 0.92561 3.39002 0.93821 3.37257C0.950758 3.3552 0.899082 3.34641 0.88258 3.34574C0.866107 3.34525 0.849832 3.36559 0.839227 3.36291C0.7695 3.34403 0.906293 3.30357 0.923728 3.27686C0.965728 3.21461 0.836915 3.2473 0.810175 3.22118C0.803023 3.21424 0.833004 3.20829 0.831923 3.19963C0.827354 3.16551 0.782198 3.16469 0.800244 3.1149C0.803164 3.10675 0.861764 3.04692 0.801457 3.05263C0.792775 3.05349 0.766497 3.07402 0.754095 3.06414C0.73543 3.04921 0.713432 3.01728 0.713972 2.99189C0.714434 2.97325 0.771027 2.96912 0.747271 2.95656C0.736627 2.95087 0.715314 2.97973 0.697694 2.96798C0.680165 2.95639 0.662848 2.91444 0.656714 2.8984C0.650588 2.88228 0.691305 2.87403 0.693221 2.87165C0.703877 2.8573 0.707608 2.81879 0.706241 2.81603C0.688893 2.77539 0.665446 2.73789 0.639062 2.70245C0.584484 2.6346 0.526663 2.55356 0.520784 2.45623C0.52009 2.44543 0.563313 2.443 0.563636 2.44125C0.573513 2.40272 0.468583 2.4546 0.425972 2.43644C0.51163 2.42279 0.493041 2.41095 0.497719 2.38364C0.500092 2.37059 0.534323 2.3714 0.537499 2.36967C0.584561 2.34331 0.517729 2.34188 0.503872 2.3405C0.452987 2.33587 0.508904 2.31399 0.474973 2.31044C0.441254 2.30651 0.395773 2.33318 0.392825 2.30722C0.42261 2.29602 0.505391 2.30363 0.515911 2.28318C0.55521 2.20809 0.483041 2.08256 0.475399 2.0234C0.46729 1.96557 0.473189 1.94682 0.462052 1.91287C0.442389 1.85127 0.502313 1.87447 0.530674 1.83775C0.559289 1.80121 0.410921 1.81443 0.379299 1.8079C0.347719 1.80127 0.380639 1.79639 0.363445 1.78885C0.346262 1.78125 0.324055 1.79542 0.318157 1.77881C0.312216 1.76199 0.371017 1.72037 0.404592 1.71681C0.475648 1.70908 0.548187 1.73274 0.524899 1.69017C0.52352 1.6877 0.484189 1.69281 0.48088 1.68344C0.455939 1.60861 0.461384 1.53243 0.444201 1.45612C0.44178 1.44563 0.397717 1.44923 0.395832 1.44302C0.376428 1.37752 0.44596 1.40906 0.530817 1.38772C0.423015 1.37988 0.36016 1.35156 0.367065 1.30415C0.371293 1.27549 0.416997 1.28811 0.452761 1.27587C0.463493 1.27243 0.435188 1.24673 0.457642 1.24715C0.531061 1.24845 0.607316 1.2811 0.584259 1.22947C0.583147 1.22714 0.542964 1.22612 0.541976 1.21859C0.535538 1.1702 0.610857 1.17982 0.630424 1.13484C0.642159 1.10819 0.628283 1.05669 0.623892 1.01504C0.621691 1.00524 0.620833 0.995823 0.621991 0.987971C0.507265 0.946915 0.552464 0.912893 0.632148 0.943469C0.640487 0.921558 0.658958 0.903457 0.665403 0.877624C0.667744 0.868668 0.637366 0.850271 0.635125 0.847033C0.601676 0.794386 0.671233 0.839209 0.676936 0.837833C0.740253 0.816403 0.743538 0.73533 0.830119 0.747654C0.83336 0.748044 0.883993 0.81533 0.862511 0.755494C0.861127 0.751317 0.82216 0.73147 0.845089 0.712296C0.867569 0.693352 0.892598 0.62415 0.949453 0.635913C0.963277 0.638604 1.0198 0.684695 1.01108 0.628074C1.00988 0.620394 0.995159 0.60099 0.991968 0.587313C0.982133 0.543554 1.03045 0.614012 1.00818 0.543466C0.985858 0.472945 0.987996 0.409544 1.05053 0.431758C1.05247 0.432335 1.09443 0.48619 1.10592 0.478537C1.12409 0.466365 1.14418 0.439224 1.16417 0.42811C1.16467 0.427963 1.16486 0.427929 1.16505 0.427897C1.17591 0.426079 1.17675 0.468572 1.17877 0.46897C1.2545 0.478754 1.29913 0.433712 1.3753 0.406997C1.38941 0.401985 1.43721 0.453506 1.45963 0.405507C1.48467 0.352967 1.42997 0.151777 1.50818 0.192911C1.54024 0.209393 1.59957 0.465906 1.63905 0.326958C1.74116 0.352185 1.82848 0.277389 1.9312 0.318709C1.9358 0.320537 1.95468 0.392317 1.96515 0.390643C1.9807 0.388016 1.98706 0.353477 1.99807 0.350502C2.00127 0.349576 2.00447 0.348841 2.00766 0.34827C2.05012 0.342284 2.09098 0.366413 2.1327 0.361517C2.14985 0.359601 2.14332 0.324489 2.16373 0.322226C2.18427 0.320004 2.19834 0.366181 2.22587 0.343483C2.24645 0.32619 2.26661 0.231232 2.29442 0.219954C2.29626 0.313407 2.31532 0.311312 2.34948 0.335754C2.35599 0.340497 2.34926 0.373073 2.35235 0.376995C2.36489 0.393678 2.37653 0.366646 2.38842 0.384829C2.39133 0.389195 2.39165 0.421112 2.39404 0.426484C2.41449 0.473373 2.44722 0.401423 2.45283 0.3889C2.47454 0.34133 2.48478 0.382807 2.50155 0.364051C2.51822 0.345301 2.49318 0.322017 2.51262 0.310608C2.55309 0.287008 2.60519 0.292043 2.64637 0.290512C2.66276 0.290098 2.65164 0.332722 2.65399 0.333652C2.68802 0.344405 2.72222 0.299051 2.74116 0.383904C2.76451 0.164448 2.76169 0.405169 2.81013 0.361216C2.81396 0.357662 2.81879 0.253889 2.80408 0.238661C2.78942 0.223448 2.7671 0.255898 2.74678 0.232166C2.74191 0.226596 2.71419 0.129382 2.71042 0.123496C2.6807 0.0774938 2.67683 0.232573 2.67525 0.241092C2.65759 0.33303 2.62368 0.22833 2.61477 0.22111C2.57396 0.188022 2.53939 0.209923 2.50529 0.186365C2.4828 0.171142 2.48043 0.0695739 2.46278 0.0727548C2.40436 0.0832865 2.38499 0.225092 2.32909 0.102615C2.3171 0.076502 2.32803 -0.0346226 2.28628 0.053025C2.28362 0.0585488 2.25295 0.138689 2.23417 0.0883747C2.23182 0.08203 2.23155 0.0496756 2.22852 0.0469899C2.20796 0.0296313 2.19474 0.055565 2.17252 0.0435145C2.15001 0.0314698 2.12334 0.0134668 2.09779 0.0249096C2.0825 0.0317477 2.06407 0.092425 2.05696 0.107346C2.03741 0.150296 2.01293 0.0811988 2.00163 0.133032C2.00151 0.133573 2.0014 0.134117 2.00129 0.134664C1.98521 0.187448 2.01412 0.263006 1.98357 0.298181C1.97683 0.214381 1.96838 0.128468 1.9609 0.0442383C1.88917 0.0519058 1.819 0.0834654 1.74444 0.084942C1.73518 0.0850443 1.74146 0.0393001 1.73142 0.0382532C1.68895 0.0340595 1.65454 0.0689388 1.60946 0.0598137C1.57455 0.0525821 1.5324 0.00833651 1.49456 8.73208e-06C1.48189 0.0978996 1.42509 0.0711032 1.38665 0.0847185C1.37326 0.0894235 1.37732 0.114814 1.36869 0.124353C1.33604 0.159815 1.34214 0.073341 1.33021 0.0614147C1.2783 0.0108744 1.30151 0.201841 1.251 0.204825C1.24848 0.204998 1.19919 0.109079 1.19329 0.103629C1.15707 0.0675195 1.19441 0.139624 1.17752 0.15021C1.15596 0.163824 1.14056 0.181842 1.118 0.183746C1.10148 0.188362 1.05573 0.202117 1.04158 0.2118C1.03354 0.215217 1.02336 0.216249 1.00965 0.213695C0.996127 0.211103 0.942923 0.167654 0.948961 0.22093C0.949746 0.22791 0.967613 0.256757 0.966669 0.25956C0.948016 0.307919 0.894969 0.215546 0.856986 0.195513C0.818887 0.175536 0.822956 0.257817 0.827087 0.2799C0.837334 0.337222 0.851727 0.292781 0.855286 0.296967C0.897649 0.346525 0.869293 0.349948 0.854255 0.364892C0.903911 0.456794 0.876567 0.465465 0.838526 0.380017C0.834461 0.370623 0.853108 0.371055 0.854255 0.364892C0.787772 0.284956 0.751953 0.290585 0.77078 0.391152C0.779729 0.438315 0.820629 0.47431 0.767949 0.48468C0.743971 0.489678 0.712723 0.424292 0.684283 0.419373C0.618264 0.408913 0.602265 0.502101 0.554111 0.527792C0.536148 0.537499 0.52644 0.494571 0.513045 0.500441C0.476789 0.516703 0.471247 0.561304 0.431962 0.579494C0.428291 0.581206 0.405543 0.545535 0.395836 0.554711C0.321549 0.62537 0.279935 0.722278 0.234657 0.840408C0.228611 0.856426 0.220169 0.875559 0.211555 0.897028C0.195057 0.931888 0.173063 0.973814 0.169477 1.00325C0.160236 1.07441 0.20285 1.1681 0.178758 1.22237C0.163258 1.25759 0.124029 1.24285 0.0936413 1.25456C0.034658 1.27759 0.123023 1.34784 0.137115 1.35665C0.13756 1.3569 0.151709 1.32647 0.170234 1.34642C0.212494 1.36236 0.137361 1.35629 0.137115 1.35665C0.145988 1.36281 0.146925 1.42795 0.137729 1.43968C0.132631 1.44609 0.0943131 1.43763 0.0923867 1.4411C0.0475049 1.52349 0.0297885 1.61126 0.0429506 1.70127C0.0436492 1.70288 0.0873895 1.70301 0.0884905 1.70673C0.105083 1.75858 0.0504804 1.78873 0.0176139 1.831C-0.0151792 1.87319 -0.00477791 1.90859 0.0702209 1.93377C0.0607414 1.96606 0.0946646 2.01205 0.115619 2.03772C0.136539 2.06329 0.0518131 2.07034 0.050211 2.07281C-0.000335693 2.14958 0.0511341 2.19135 0.0664344 2.26811C0.0737848 2.30501 0.0711765 2.38062 0.0691662 2.42385C0.067265 2.45795 0.0905008 2.474 0.0841789 2.507C0.0833578 2.51147 0.0454154 2.51489 0.0442467 2.51645C0.007195 2.56058 0.0942473 2.52454 0.111879 2.52803C0.176308 2.54089 0.210329 2.54711 0.194076 2.59661C0.190247 2.60761 0.0700707 2.67288 0.0689454 2.69575C0.0674624 2.72441 0.109907 2.70033 0.107527 2.73019C0.107414 2.73279 0.0791531 2.74143 0.0861936 2.75788C0.111091 2.81642 0.148017 2.87722 0.184867 2.93995C0.191097 2.94955 0.196967 2.96024 0.201846 2.97159C0.204768 2.97814 0.158831 2.99068 0.162308 3.00041C0.178856 3.04651 0.20498 3.09975 0.247661 3.14155C0.258283 3.15174 0.284662 3.13058 0.294744 3.12932C0.355927 3.12211 0.28867 3.18106 0.28897 3.18572C0.294508 3.29877 0.39889 3.34371 0.417599 3.46492C0.418234 3.47123 0.3594 3.5581 0.439861 3.54232C0.445296 3.54144 0.526536 3.52343 0.487529 3.56682C0.485124 3.56958 0.441891 3.57663 0.457458 3.59652C0.472888 3.61617 0.469008 3.66581 0.526218 3.67315C0.544452 3.67582 0.625668 3.65566 0.589328 3.71772C0.586004 3.72108 0.494783 3.84604 0.588878 3.80673C0.604371 3.80018 0.6889 3.73753 0.668198 3.80189C0.664317 3.81446 0.636614 3.81628 0.637176 3.84216C0.638302 3.8823 0.687164 3.89979 0.678547 3.96264C0.676638 3.9734 0.64421 4.04584 0.703146 4.02977C0.712255 4.02712 0.733006 3.99765 0.745255 4.00517C0.802988 4.04005 0.838901 4.10694 0.910525 4.13288C0.935653 4.14178 0.960622 4.08913 0.989616 4.09196C1.01875 4.095 1.0672 4.11027 1.07648 4.14608C1.08647 4.18236 1.01301 4.24463 1.04822 4.27325C1.13269 4.34059 1.24258 4.37513 1.35004 4.38706C1.42436 4.39354 1.49427 4.39172 1.56482 4.39611C1.58775 4.3974 1.56518 4.4278 1.59948 4.43172C1.68621 4.44034 1.81393 4.46515 1.97328 4.42308C2.01409 4.40912 2.04975 4.38941 2.07366 4.36145C2.13186 4.29203 2.03498 4.27038 2.08308 4.23667C2.10621 4.2205 2.15735 4.31689 2.1645 4.31862C2.23313 4.33712 2.26383 4.28129 2.32127 4.28123C2.33314 4.28122 2.33299 4.32544 2.34302 4.32495C2.37757 4.32359 2.40665 4.29601 2.43854 4.29082C2.45282 4.2886 2.45901 4.32077 2.47114 4.31477C2.50025 4.30076 2.52355 4.27981 2.54453 4.24178C2.54641 4.23832 2.51694 4.20462 2.53883 4.19664C2.57434 4.18379 2.61004 4.14147 2.66055 4.15833C2.67559 4.16343 2.69866 4.23445 2.70955 4.17689C2.71188 4.16484 2.67731 4.08186 2.73178 4.14564C2.74071 4.15632 2.82564 4.23839 2.82989 4.16581C2.83102 4.14673 2.8242 4.07159 2.84268 4.07739C2.84529 4.07844 2.85033 4.11911 2.86388 4.11856C2.91124 4.11601 2.9552 4.0957 3.00424 4.09078C3.01733 4.08954 3.01414 4.13504 3.03326 4.13191C3.08653 4.12312 3.14455 4.08887 3.18834 4.0564C3.20431 4.04442 3.17863 4.01794 3.17847 4.01395C3.17582 3.94907 3.22016 4.01932 3.22915 4.02064C3.28447 4.02784 3.30236 3.97731 3.3475 3.96692C3.36023 3.96377 3.36913 4.00296 3.37296 4.00498C3.41207 4.02384 3.36326 3.96946 3.37478 3.95514C3.4073 3.91451 3.45511 3.89287 3.50392 3.86974C3.52154 3.86142 3.526 3.91166 3.54184 3.90351C3.59621 3.8751 3.65266 3.84028 3.72023 3.77359C3.74275 3.74812 3.76151 3.72171 3.77665 3.69353C3.78299 3.68156 3.75394 3.66057 3.75066 3.65282C3.7278 3.59852 3.79783 3.6388 3.80697 3.64058C3.84892 3.64844 3.83702 3.61816 3.8588 3.60785C3.9645 3.55814 4.06176 3.46731 4.14859 3.40421C4.23675 3.33972 4.31072 3.27891 4.40373 3.23511C4.43091 3.22252 4.45874 3.21124 4.48886 3.2012C4.49796 3.19813 4.50616 3.2449 4.51418 3.24283C4.6168 3.21415 4.70858 3.16045 4.81709 3.13503C4.826 3.13286 4.82885 3.17876 4.84362 3.17667C4.87406 3.17266 4.90943 3.15718 4.93403 3.13311C4.94617 3.12141 4.91368 3.09308 4.92612 3.08204C4.95493 3.05628 4.99055 3.03965 5.02934 3.03229C5.04592 3.02922 5.03876 3.08031 5.05915 3.07298C5.15 3.04077 5.24916 3.00457 5.34577 2.93851C5.41765 2.89145 5.45345 2.85134 5.48846 2.80329C5.49547 2.79365 5.4503 2.71357 5.47853 2.71533C5.49444 2.73524 5.51148 2.75982 5.52764 2.78169C5.71264 2.66951 5.84867 2.52312 6.0041 2.39483C6.01062 2.38945 6.02918 2.43663 6.04198 2.42637C6.11617 2.36693 6.19663 2.31988 6.24165 2.22161C6.24618 2.2119 6.18871 2.14853 6.21874 2.14088C6.22408 2.13961 6.26428 2.12173 6.28446 2.12922C6.28738 2.13045 6.30647 2.1663 6.31784 2.15857C6.38351 2.11309 6.44238 2.05321 6.48816 1.98398C6.49552 1.97273 6.45799 1.94864 6.46299 1.94034C6.49844 1.88196 6.57327 1.86188 6.59605 1.79273C6.61115 1.74636 6.55225 1.69992 6.52287 1.63035C6.51874 1.62053 6.53724 1.60296 6.51124 1.5699C6.44598 1.48672 6.36236 1.4058 6.29391 1.3162C6.27918 1.29689 6.32155 1.29549 6.26875 1.26323C6.26519 1.2611 6.23408 1.26176 6.21669 1.25037C6.20466 1.2425 6.18303 1.20488 6.1652 1.19684C6.14737 1.18882 6.1631 1.22236 6.13911 1.21544C6.1149 1.20836 6.08856 1.16702 6.06322 1.18063ZM0.211076 2.15115C0.253449 2.17201 0.104593 2.18684 0.138412 2.15765C0.140226 2.15623 0.208994 2.15005 0.211076 2.15115ZM1.82648 0.196184C1.80131 0.26394 1.7745 0.168558 1.79204 0.116318C1.80967 0.0641359 1.83419 0.175642 1.82648 0.196184ZM2.14 0.230099C2.10641 0.282654 2.09699 0.0707254 2.13514 0.112974C2.13737 0.115361 2.142 0.227048 2.14 0.230099ZM6.43192 1.67934C6.43089 1.67761 6.44368 1.66447 6.44526 1.66571C6.4831 1.69602 6.45748 1.7223 6.43192 1.67934ZM2.44449 0.279805C2.43385 0.308537 2.40275 0.275581 2.4159 0.239842C2.4265 0.211088 2.45772 0.244061 2.44449 0.279805ZM0.743988 3.25198C0.746147 3.25134 0.753655 3.26227 0.742212 3.26753C0.705307 3.28443 0.707608 3.26283 0.743988 3.25198ZM2.95981 0.281477C2.88367 0.289462 2.8376 0.464648 2.92044 0.44487C2.93545 0.441292 2.8881 0.389011 2.90719 0.373216C2.94217 0.34444 2.96534 0.454429 3.00102 0.39549C3.00747 0.384702 2.96415 0.280632 2.95967 0.281233C2.95971 0.281314 2.95976 0.281396 2.95981 0.281477ZM0.391197 2.15206C0.393188 2.15239 0.396409 2.17018 0.394504 2.17077C0.347923 2.18441 0.34134 2.14784 0.391197 2.15206ZM1.25352 3.78819C1.25661 3.7855 1.29026 3.80245 1.28942 3.80617C1.26796 3.88458 1.19164 3.84552 1.25352 3.78819ZM0.619164 0.986314C0.668962 0.990135 0.678451 0.983697 0.632167 0.943559C0.627552 0.958277 0.621651 0.971815 0.619164 0.986314Z" fill="black"/>
</svg>
