<svg width="7" height="8" viewBox="0 0 7 8" fill="none" xmlns="http://www.w3.org/2000/svg">
<path d="M4.79975 6.14572C4.71246 6.13263 4.59824 6.14637 4.51132 6.16527C4.48404 6.17113 4.49777 6.19766 4.47896 6.2029C4.44215 6.21311 4.40818 6.2 4.37162 6.21215C4.35955 6.21631 4.37441 6.25834 4.36176 6.26174C4.29267 6.28005 4.22687 6.26908 4.15712 6.27766C3.81187 6.31992 3.4723 6.33284 3.12335 6.34596C3.00839 6.35024 2.86801 6.38543 2.75018 6.36554C2.73632 6.36318 2.74562 6.32657 2.74306 6.32346C2.70326 6.27584 2.71486 6.35058 2.68817 6.3597C2.58009 6.39557 2.46204 6.39476 2.36089 6.37546C2.31763 6.36708 2.36452 6.29623 2.31977 6.33499C2.3167 6.3376 2.32515 6.37725 2.31348 6.38079C2.28568 6.3887 2.23689 6.37864 2.21575 6.38018C2.17822 6.38361 2.16959 6.38256 2.13459 6.37972C2.10706 6.38003 2.02052 6.37352 2.06312 6.38803C2.05853 6.38608 2.055 6.38346 2.0524 6.37973C2.05022 6.376 2.07489 6.34417 2.07554 6.33643C2.07668 6.32915 2.06861 6.32653 2.05717 6.32738C2.04625 6.32897 2.02277 6.35 2.01632 6.35352C1.9586 6.37971 2.00976 6.29946 2.01088 6.29565C2.0025 6.19833 1.92606 6.09275 1.88569 5.96515C1.85555 5.86764 1.83279 5.75406 1.79141 5.66078C1.74273 5.55131 1.67971 5.47025 1.62513 5.36934C1.62381 5.36692 1.62251 5.36449 1.62122 5.36205C1.61561 5.35157 1.66346 5.34019 1.65667 5.32731C1.58478 5.19119 1.49996 5.06255 1.38957 4.95191C1.37844 4.94081 1.35462 4.98003 1.34147 4.97038C1.26189 4.9105 1.11256 4.83795 1.22807 4.6892C1.18596 4.64156 1.13565 4.58398 1.07361 4.56023C1.03359 4.54484 1.01748 4.5995 1.0073 4.55265C1.00495 4.5421 1.0445 4.52935 1.03857 4.51529C1.01359 4.45622 0.963262 4.40884 0.944401 4.34751C0.940648 4.33499 0.971403 4.31712 0.974553 4.31058C0.999479 4.25676 0.901989 4.26672 0.890779 4.2615C0.87076 4.25214 0.854488 4.24166 0.840721 4.23026C0.801361 4.20039 0.789473 4.15953 0.767613 4.11615C0.760999 4.10286 0.811334 4.09812 0.806843 4.08514C0.783358 4.01847 0.756406 3.94842 0.718209 3.87837C0.709595 3.86264 0.673766 3.88736 0.667603 3.88013C0.641037 3.84758 0.71436 3.82399 0.69165 3.79249C0.686979 3.78573 0.65361 3.79604 0.649617 3.79536C0.586767 3.78371 0.667286 3.7507 0.668282 3.74502C0.682749 3.67148 0.589681 3.63619 0.595359 3.56311C0.596172 3.55448 0.641579 3.56958 0.641224 3.54567C0.639613 3.40709 0.626612 3.26092 0.599373 3.11806C0.595378 3.1024 0.591881 3.08612 0.588884 3.06931C0.585567 3.04906 0.551349 3.05937 0.54741 3.05788C0.486911 3.02746 0.573964 3.02432 0.578163 3.01924C0.609752 2.97356 0.560642 2.89758 0.669408 2.89846C0.711044 2.72644 0.845362 2.57496 0.945974 2.4041C0.975741 2.35141 1.00908 2.29656 1.04354 2.23458C1.04527 2.23167 1.01331 2.20395 1.017 2.19819C1.06319 2.12848 1.09428 2.18826 1.18093 2.22277C1.2021 2.2319 1.17903 2.13093 1.17856 2.12287C1.17492 2.09403 1.12885 2.0499 1.12973 2.04325C1.14015 1.98899 1.24723 2.165 1.2866 2.14069C1.2877 2.13961 1.26253 2.11054 1.264 2.10522C1.26871 2.08845 1.28706 2.09504 1.29112 2.07751C1.3002 2.03727 1.26103 1.94413 1.32861 1.97375C1.33716 1.97781 1.38535 2.08434 1.4206 2.05967C1.43468 2.04945 1.50423 2.01736 1.52072 2.00156C1.53711 1.98557 1.5078 1.95767 1.50847 1.95555C1.5417 1.88542 1.51254 1.87616 1.51078 1.79615C1.50948 1.71645 1.57182 1.88053 1.59073 1.89364C1.60983 1.90658 1.63381 1.8519 1.6388 1.83447C1.64337 1.81714 1.62177 1.80012 1.62766 1.78896C1.66807 1.71556 1.68663 1.85895 1.7162 1.87707C1.78559 1.92045 1.77483 1.78558 1.81381 1.75775C1.82435 1.75025 1.82491 1.78155 1.83627 1.78037C1.88044 1.77566 1.89196 1.72861 1.95114 1.74774C1.95843 1.75012 1.99612 1.78605 2.01687 1.77595C2.02335 1.77278 2.02811 1.76497 2.02974 1.74991C2.03068 1.74093 2.01078 1.71329 2.02627 1.70071C2.04947 1.6818 2.09478 1.66076 2.1263 1.66321C2.14972 1.66498 2.1398 1.72311 2.16179 1.69985C2.17162 1.68951 2.14148 1.66533 2.16083 1.64839C2.18036 1.63128 2.23655 1.61861 2.25933 1.61457C2.28148 1.61059 2.27848 1.65284 2.28087 1.65508C2.29502 1.66779 2.33984 1.67807 2.34333 1.67737C2.52372 1.645 2.69045 1.55814 2.87557 1.57858C2.88991 1.58016 2.88068 1.62294 2.88287 1.62362C2.93111 1.64137 2.8926 1.52788 2.92782 1.49005C2.92199 1.57667 2.9429 1.56098 2.97743 1.5714C2.99401 1.57653 2.98386 1.6098 2.98529 1.61328C3.00783 1.66494 3.02684 1.6 3.03222 1.58677C3.0513 1.53809 3.06608 1.59757 3.07922 1.56525C3.0927 1.53322 3.06951 1.48284 3.10373 1.48579C3.11088 1.5174 3.0806 1.59646 3.10457 1.61137C3.19382 1.66639 3.37403 1.62846 3.4516 1.63854C3.52766 1.64736 3.55074 1.65918 3.59652 1.65894C3.68007 1.65962 3.63625 1.71045 3.67582 1.75006C3.71554 1.79025 3.73454 1.64178 3.75054 1.61331C3.76667 1.58495 3.76494 1.61859 3.7787 1.60453C3.79254 1.5905 3.77992 1.564 3.80247 1.56407C3.825 1.56402 3.86425 1.63636 3.8602 1.67021C3.85248 1.74203 3.80453 1.80359 3.86413 1.79679C3.86762 1.79639 3.87082 1.75627 3.88359 1.7566C3.98403 1.76027 4.07859 1.79611 4.17836 1.8112C4.19203 1.81319 4.19863 1.76879 4.20683 1.76953C4.29362 1.77811 4.23655 1.83257 4.24232 1.92454C4.27871 1.82255 4.32987 1.77326 4.38655 1.80001C4.42102 1.81635 4.39429 1.85576 4.40094 1.8961C4.40253 1.90805 4.44137 1.89133 4.43555 1.91322C4.41697 1.98502 4.35831 2.04603 4.42904 2.04591C4.43224 2.04582 4.44236 2.00646 4.45211 2.00876C4.51447 2.02321 4.48614 2.09395 4.54178 2.13349C4.58244 2.16243 4.67867 2.16762 4.74039 2.18535C4.74401 2.18634 4.74751 2.18741 4.75085 2.18855C4.80309 2.07901 4.84245 2.12966 4.82436 2.21449C4.86027 2.22906 4.89512 2.25276 4.93376 2.26029C4.94705 2.26292 4.95609 2.22794 4.95932 2.22536C5.00964 2.18478 4.98618 2.26456 4.99205 2.27135C5.05779 2.34207 5.1527 2.324 5.20185 2.41888C5.20352 2.42224 5.16831 2.49897 5.21824 2.45591C5.2216 2.4529 5.21385 2.40533 5.25203 2.42232C5.29041 2.43941 5.38019 2.43548 5.41627 2.49582C5.42465 2.51028 5.43053 2.58855 5.48021 2.55144C5.48673 2.54631 5.4921 2.52237 5.50248 2.51213C5.50493 2.50971 5.50706 2.50792 5.50893 2.50665C5.53365 2.49124 5.52785 2.56108 5.56585 2.49942C5.61503 2.42415 5.56307 2.39328 5.62286 2.39686C5.62388 2.39802 5.69038 2.41832 5.69686 2.39915C5.70712 2.36897 5.70195 2.32644 5.70685 2.29623C5.70915 2.28221 5.74931 2.29711 5.75043 2.29475C5.78697 2.19434 5.74923 2.12189 5.73184 2.01747C5.72854 1.99871 5.78421 1.94147 5.73764 1.9057C5.68667 1.86682 5.48283 1.91664 5.52796 1.82191C5.54599 1.78339 5.80455 1.7248 5.66699 1.66216C5.69719 1.53048 5.6205 1.40436 5.69385 1.2706C5.69726 1.26448 5.77247 1.26341 5.77482 1.25382C5.77525 1.25194 5.77525 1.25007 5.77493 1.24818C5.77312 1.22646 5.74971 1.20963 5.75115 1.19651C5.7573 1.13392 5.80171 1.08823 5.81606 1.03083C5.82168 1.00892 5.78575 1.00517 5.79277 0.978788C5.79992 0.952429 5.84953 0.951221 5.84118 0.909315C5.83477 0.877621 5.75624 0.817575 5.75985 0.77835C5.84733 0.81136 5.85479 0.786952 5.89465 0.754833C5.90236 0.748678 5.92892 0.769604 5.93412 0.767343C5.95591 0.758462 5.93684 0.734141 5.95976 0.726727C5.96527 0.724939 5.99475 0.737175 6.0009 0.736432C6.05437 0.73055 6.00546 0.662736 5.99707 0.650739C5.96503 0.605397 6.00856 0.60961 6.00033 0.58203C5.99222 0.554244 5.95741 0.575023 5.95758 0.546713C5.95804 0.487976 5.99132 0.427371 6.01288 0.377262C6.02168 0.357299 6.0541 0.388699 6.05626 0.386256C6.08485 0.350193 6.06311 0.289696 6.15047 0.303305C6.01058 0.21155 6.09927 0.249668 6.14598 0.240654C6.16119 0.237346 6.17158 0.229893 6.16858 0.211449C6.16744 0.205733 6.07768 0.152919 6.05469 0.16545C6.0452 0.1706 6.04242 0.181069 6.04021 0.192471C6.03779 0.206438 6.03559 0.223584 6.01632 0.231994C6.00851 0.235493 5.90498 0.227314 5.89745 0.229533C5.8391 0.245689 5.97732 0.3163 5.98419 0.32171C6.05775 0.381509 5.94388 0.378271 5.93232 0.386132C5.87957 0.421569 5.88041 0.472664 5.84028 0.504669C5.81426 0.52558 5.72001 0.487612 5.71336 0.510542C5.69091 0.587954 5.8112 0.66718 5.66919 0.68989C5.63887 0.69508 5.54173 0.63857 5.60113 0.725659C5.6048 0.731282 5.66358 0.800375 5.60758 0.805952C5.6005 0.806694 5.57024 0.79524 5.56621 0.798258C5.53981 0.818725 5.55753 0.845327 5.53552 0.870561C5.51353 0.895776 5.48386 0.925885 5.48323 0.963853C5.48274 0.986792 5.5322 1.03116 5.54344 1.04511C5.57591 1.08468 5.50043 1.09551 5.54534 1.12662C5.59069 1.15721 5.6752 1.14521 5.69601 1.19712C5.61426 1.17745 5.52976 1.15957 5.44717 1.14129C5.44571 1.14764 5.44437 1.15402 5.44312 1.16041L5.45178 1.13196C5.40261 1.30888 5.43763 1.39573 5.43036 1.4996C5.42981 1.51289 5.38461 1.49921 5.38288 1.51366C5.37592 1.57359 5.40959 1.62334 5.39883 1.68158C5.39036 1.72678 5.34466 1.77728 5.33453 1.82292C5.43181 1.84649 5.40198 1.91413 5.41213 1.96027C5.41565 1.97636 5.4413 1.97472 5.44998 1.98611C5.48199 2.029 5.3965 2.0102 5.38336 2.02217C5.32693 2.07223 5.51962 2.07506 5.51382 2.13412C5.51363 2.13791 5.40987 2.16969 5.40318 2.17324C5.35998 2.19907 5.4386 2.18012 5.44499 2.19846C5.45643 2.23154 5.47792 2.25914 5.44303 2.27937C5.43245 2.28687 5.36809 2.27651 5.41758 2.28589C5.42392 2.28762 5.45424 2.3028 5.45624 2.30322C5.49184 2.31095 5.41255 2.21912 5.48306 2.14388C5.59108 2.06563 5.65474 2.17503 5.63587 2.19005C5.62317 2.24386 5.62319 2.21023 5.61692 2.21445C5.59763 2.26376 5.61085 2.26927 5.60642 2.27015C5.60271 2.2691 5.59882 2.26795 5.5948 2.2673C5.55114 2.36234 5.52245 2.34267 5.57167 2.26282C5.57703 2.25412 5.5889 2.27001 5.5948 2.2673C5.6176 2.16564 5.5966 2.14174 5.51749 2.20945C5.48042 2.24108 5.47339 2.29639 5.42844 2.25191C5.40787 2.23153 5.45063 2.17271 5.4384 2.14417C5.41084 2.07921 5.31504 2.10356 5.26828 2.06605C5.25137 2.05248 5.28847 2.02785 5.27754 2.01737C5.24859 1.98944 5.20421 1.99889 5.17662 1.96676C5.17414 1.9638 5.20147 1.93174 5.19086 1.9254C5.11049 1.87663 5.02505 1.86085 4.93236 1.81591C4.92942 1.81449 4.92637 1.81291 4.92323 1.8112C4.88736 1.79124 4.83222 1.74038 4.79014 1.72308C4.71342 1.69138 4.59219 1.69566 4.53225 1.64969C4.49371 1.62015 4.52102 1.58776 4.51441 1.55325C4.50156 1.48628 4.39339 1.54332 4.379 1.55343C4.3786 1.55376 4.41234 1.58016 4.38321 1.58995C4.35306 1.62455 4.37938 1.55382 4.379 1.55343C4.36936 1.55955 4.28831 1.53338 4.27602 1.5197C4.26931 1.5121 4.28952 1.4783 4.28568 1.475C4.1944 1.39756 4.08752 1.34538 3.96889 1.32491C3.96666 1.325 3.95576 1.3674 3.95074 1.36711C3.87975 1.36401 3.85496 1.30066 3.80789 1.25421C3.76163 1.20813 3.71254 1.20666 3.66256 1.2717C3.62277 1.25222 3.55561 1.2715 3.51727 1.2845C3.47887 1.29742 3.49 1.21317 3.48711 1.21089C3.39972 1.1404 3.33377 1.17981 3.23233 1.17639C3.18343 1.1747 3.08872 1.15523 3.03567 1.14404C2.99431 1.13487 2.9686 1.15419 2.92985 1.14106C2.92458 1.13931 2.93024 1.1015 2.92863 1.10003C2.88537 1.05452 2.90609 1.14721 2.89729 1.16371C2.86556 1.22397 2.8474 1.25599 2.79286 1.22951C2.78081 1.22342 2.73815 1.09189 2.71347 1.08558C2.68204 1.07761 2.69654 1.12451 2.66401 1.11524C2.66124 1.11451 2.65964 1.08503 2.64005 1.08791C2.5485 1.10095 2.4512 1.1304 2.3578 1.14338C2.34498 1.14528 2.35355 1.09637 2.33468 1.09844C2.24527 1.10834 2.14984 1.13096 2.07275 1.17349C2.05376 1.18411 2.07479 1.21248 2.07284 1.22302C2.06127 1.28674 2.0009 1.2149 1.99375 1.21527C1.93764 1.2162 1.88946 1.2313 1.84373 1.25136C1.76546 1.28643 1.69681 1.33575 1.59628 1.34816C1.58816 1.34883 1.49444 1.28676 1.49671 1.37058C1.49659 1.37625 1.50077 1.46115 1.45679 1.41992C1.454 1.41736 1.4548 1.37221 1.42742 1.38817C1.4005 1.40394 1.34263 1.39873 1.32147 1.45826C1.31478 1.47702 1.31959 1.56286 1.25523 1.52292C1.2516 1.51958 1.12839 1.41911 1.15268 1.51892C1.15676 1.53536 1.20866 1.62693 1.13985 1.60222C1.12639 1.59755 1.1308 1.56844 1.10127 1.56768C1.05586 1.56652 1.02427 1.61687 0.957112 1.60293C0.945666 1.60013 0.874357 1.56007 0.878038 1.62273C0.878645 1.63252 0.90561 1.65691 0.894256 1.66914C0.841332 1.72688 0.760673 1.75695 0.712887 1.82996C0.696408 1.85554 0.744887 1.88871 0.733069 1.91974C0.721108 1.95076 0.689433 2.00211 0.648742 2.00798C0.607622 2.01427 0.565551 1.92531 0.524951 1.95999C0.499329 1.98233 0.475196 2.00754 0.453123 2.03467C0.359803 2.14592 0.304894 2.29076 0.228829 2.43561C0.215712 2.461 0.199148 2.42404 0.177645 2.46152C0.0974617 2.58665 -0.0550847 2.90617 0.0251703 3.1142C0.0266657 3.1183 0.0281768 3.12215 0.0296946 3.12574C0.0839834 3.20491 0.12269 3.09555 0.145678 3.16384C0.156971 3.19688 0.0524778 3.23705 0.0493879 3.24521C0.0179582 3.32772 0.0670433 3.38326 0.0570741 3.45849C0.0550289 3.47401 0.0114374 3.46154 0.0101848 3.47477C0.00562096 3.5211 0.0282183 3.56719 0.0287952 3.61201C0.0289674 3.63201 -0.00392437 3.63104 0.0004282 3.64963C0.0104618 3.69327 0.0286951 3.73158 0.0649257 3.77126C0.0682154 3.77475 0.104908 3.74305 0.11082 3.7753C0.120504 3.82848 0.160922 3.88887 0.143753 3.95835C0.138657 3.97919 0.0656462 3.99595 0.125778 4.02633C0.138524 4.03283 0.222151 3.99927 0.15963 4.06667C0.148466 4.07631 0.0727668 4.192 0.152221 4.21366C0.172946 4.2194 0.251481 4.22114 0.249926 4.24844C0.249508 4.25235 0.207026 4.25406 0.211312 4.27535C0.227492 4.35076 0.26769 4.42333 0.29937 4.49952C0.307931 4.52005 0.255123 4.51348 0.269613 4.54403C0.27892 4.56341 0.290293 4.58308 0.303119 4.60232C0.334282 4.64976 0.3765 4.69445 0.413361 4.72869C0.431095 4.74505 0.449476 4.71173 0.45352 4.71095C0.51898 4.69782 0.461767 4.75881 0.463241 4.76903C0.473052 4.83154 0.529161 4.8431 0.550607 4.89009C0.55659 4.90296 0.519091 4.91793 0.517892 4.92222C0.507087 4.96545 0.551494 4.90691 0.568435 4.9171C0.616023 4.94543 0.646218 4.99281 0.671223 5.03674C0.680342 5.05289 0.63135 5.06225 0.639892 5.07636C0.689934 5.16062 0.749605 5.24 0.821835 5.30446C0.835514 5.31657 0.858669 5.28815 0.867368 5.28685C0.928173 5.27771 0.884615 5.35076 0.882934 5.36162C0.875982 5.41225 0.90999 5.40825 0.92333 5.44047C0.957357 5.52369 1.00702 5.60942 1.05916 5.69283C1.09953 5.75636 1.13895 5.81903 1.17057 5.87658C1.25943 6.03858 1.32346 6.16091 1.39019 6.39378C1.39493 6.4091 1.34566 6.4089 1.34931 6.42254C1.38585 6.55438 1.50069 6.83151 1.79284 6.96935C1.94843 7.03017 1.93696 7.01253 1.98451 7.02565C2.00063 7.02891 1.97083 7.06936 1.99714 7.07602C2.05294 7.08995 2.10947 7.09216 2.15558 7.08146C2.17744 7.07625 2.15151 7.03646 2.17343 7.03196C2.22558 7.02142 2.27621 7.02114 2.3259 7.03071C2.34733 7.03489 2.31274 7.07832 2.34038 7.08019C2.52547 7.09351 2.70428 7.10619 2.88751 7.05199C2.90005 7.04826 2.91291 6.9569 2.93933 6.97504C2.94081 7.00051 2.94007 7.03041 2.94038 7.0576C3.20228 7.07773 3.46239 7.0492 3.72365 7.04663C3.73474 7.04653 3.71514 7.09491 3.73662 7.09496C3.85996 7.09532 3.9809 7.10959 4.10703 7.06202C4.11962 7.05736 4.11367 6.97193 4.15062 6.98503C4.15705 6.98742 4.21247 6.99908 4.22683 7.01768C4.22878 7.02049 4.21843 7.06031 4.23639 7.06155C4.34063 7.06806 4.44967 7.0593 4.55389 7.03518C4.57063 7.03121 4.55291 6.98872 4.56483 6.98552C4.64953 6.96317 4.74165 6.99556 4.82272 6.95707C4.87685 6.93115 4.85686 6.85776 4.88564 6.78553C4.88971 6.77534 4.92325 6.77374 4.92499 6.73171C4.92945 6.62603 4.91324 6.51031 4.91991 6.39767C4.92132 6.3734 4.96616 6.39954 4.93961 6.3409C4.93775 6.33698 4.90526 6.31752 4.89727 6.29762C4.89171 6.28387 4.90175 6.24113 4.8904 6.22353C4.87905 6.20594 4.86657 6.24176 4.84777 6.22107C4.82898 6.20012 4.83733 6.1515 4.79975 6.14572ZM3.34843 1.34636C3.31168 1.38226 3.32747 1.23346 3.35706 1.2739C3.35846 1.27604 3.35033 1.34462 3.34843 1.34636ZM5.54947 1.39479C5.61322 1.44046 5.51614 1.46566 5.46586 1.43426C5.41585 1.40186 5.5303 1.37962 5.54947 1.39479ZM5.69557 0.977197C5.73023 1.03762 5.526 0.979985 5.58321 0.943678C5.58648 0.941535 5.6936 0.973609 5.69557 0.977197ZM4.75226 6.76487C4.75268 6.76289 4.77678 6.76098 4.77736 6.76294C4.79016 6.81045 4.74193 6.81424 4.75226 6.76487ZM5.89282 0.616831C5.91347 0.641235 5.86687 0.666047 5.84104 0.63571C5.82029 0.611143 5.8672 0.58622 5.89282 0.616831ZM1.78995 1.68875C1.79025 1.69101 1.77468 1.69886 1.77066 1.68692C1.75769 1.64845 1.78456 1.65082 1.78995 1.68875ZM6.21057 0.000933995C6.14863 0.0927595 6.27251 0.229863 6.309 0.140821C6.31694 0.123789 6.24079 0.139945 6.24149 0.111855C6.24498 0.057804 6.34968 0.103563 6.33338 0.0307958C6.33057 0.0171781 6.21386 -0.00481467 6.21027 0.000923345C6.21037 0.000926913 6.21047 0.000930462 6.21057 0.000933995ZM3.3051 1.52156C3.30424 1.52342 3.28034 1.522 3.28002 1.52C3.2733 1.47115 3.32229 1.47407 3.3051 1.52156ZM0.97238 2.24453C0.974099 2.24831 0.940994 2.28786 0.937317 2.2866C0.860001 2.25477 0.93268 2.16821 0.97238 2.24453ZM4.75311 2.18606C4.75478 2.24011 4.77865 2.2585 4.82423 2.21449C4.80013 2.2057 4.77719 2.19464 4.75311 2.18606Z" fill="black"/>
</svg>
