<svg width="15" height="18" viewBox="0 0 15 18" fill="none" xmlns="http://www.w3.org/2000/svg">
<path d="M13.9604 0.0173003C13.8074 -0.0046828 13.6012 -0.00296105 13.4461 0.00713877C13.398 0.0102712 13.4207 0.0381446 13.3871 0.0414781C13.3196 0.0478731 13.2617 0.031495 13.1948 0.0399429C13.1735 0.0429221 13.1973 0.0863445 13.175 0.0885076C13.0507 0.0999571 12.9346 0.0826715 12.8095 0.0846456C12.1922 0.0943986 11.5859 0.079607 10.963 0.0713883C10.7575 0.0686165 10.5053 0.0962388 10.2944 0.0713044C10.2695 0.0683451 10.2859 0.0321066 10.2812 0.0288856C10.2091 -0.0204616 10.231 0.0548435 10.1825 0.0628602C9.98849 0.0944373 9.7771 0.0901552 9.59237 0.0696074C9.51454 0.0607907 9.59538 -0.00969798 9.51519 0.0286935C9.50962 0.0312829 9.52819 0.0710632 9.50655 0.07451C9.45751 0.0822444 9.36466 0.0721908 9.32721 0.0740886C9.25433 0.077917 9.24225 0.0771414 9.17292 0.0754147C9.1705 0.075364 9.16806 0.0753239 9.16561 0.075295C9.07097 0.0741195 8.96004 0.0903995 8.86001 0.0815059C8.83804 0.0794465 8.86731 0.0393782 8.83208 0.0325082C8.79684 0.0255682 8.70364 0.0296444 8.6725 0.039648C8.64135 0.0495724 8.6552 0.0809086 8.64977 0.0882182C8.60535 0.149792 8.49665 0.0681789 8.48252 0.0666494C8.22897 0.0392865 8.01542 0.101663 7.78088 0.123826C7.60228 0.140655 7.40985 0.148113 7.24124 0.174933C7.03992 0.207178 6.87438 0.257811 6.68 0.292271C6.65957 0.29597 6.67427 0.244958 6.64925 0.249412C6.51772 0.272941 6.38752 0.30123 6.25943 0.335998C6.11823 0.373996 5.98182 0.42642 5.85358 0.493784C5.82821 0.507212 5.87741 0.532355 5.85327 0.548018C5.7024 0.641845 5.51456 0.834625 5.33474 0.735569C5.23775 0.8024 5.1242 0.889784 5.06416 0.981362C5.02567 1.04035 5.10401 1.03662 5.02863 1.07125C5.01171 1.07923 5.00569 1.03348 4.98203 1.04799C4.88195 1.10966 4.79557 1.20308 4.69867 1.26793C4.6789 1.28106 4.65889 1.25122 4.64966 1.25128C4.57277 1.25355 4.56768 1.38094 4.55881 1.39947C4.48697 1.54212 4.40116 1.61337 4.31255 1.72409C4.29218 1.7498 4.27951 1.68971 4.25852 1.71353C4.14986 1.83814 4.0525 1.97915 3.98071 2.12413C3.96483 2.15649 4.01674 2.15173 4.01095 2.16827C3.98601 2.23983 3.91219 2.21312 3.88793 2.28207C3.88262 2.29682 3.91656 2.30803 3.91829 2.31242C3.94579 2.38086 3.85518 2.36655 3.84735 2.37574C3.75229 2.48233 3.78426 2.60388 3.7082 2.71386C3.69907 2.72695 3.67817 2.67437 3.65496 2.71234C3.64081 2.73544 3.62583 2.76067 3.61243 2.78356C3.49341 2.9889 3.32474 3.1708 3.13357 3.33887C3.10092 3.3676 3.14482 3.37761 3.14492 3.38247C3.14273 3.46059 3.07097 3.40541 3.05747 3.41026C2.95063 3.45101 2.893 3.56621 2.77367 3.51825C2.61369 3.62753 2.43612 3.72415 2.27074 3.86855C2.03816 4.07364 1.82287 4.30401 1.67921 4.58083C1.67615 4.58653 1.71628 4.60308 1.71008 4.61427C1.63711 4.74967 1.60338 4.68698 1.47857 4.72543C1.44694 4.73555 1.48255 4.85477 1.48501 4.86411C1.49291 4.89928 1.55919 4.91198 1.5588 4.9217C1.55486 5.00006 1.38734 4.8788 1.33685 4.96005C1.33559 4.96275 1.37443 4.97202 1.37349 4.98075C1.3707 5.00792 1.34524 5.02093 1.34418 5.0483C1.34208 5.11145 1.41954 5.17694 1.32879 5.22064C1.3172 5.22628 1.22203 5.15552 1.18697 5.23315C1.17266 5.26387 1.1039 5.39699 1.09359 5.43835C1.08275 5.47947 1.12908 5.46928 1.12928 5.47271C1.12821 5.59464 1.16473 5.56485 1.21029 5.64432C1.25648 5.72285 1.10121 5.64052 1.07431 5.65397C1.04736 5.66734 1.05496 5.75857 1.06138 5.78205C1.06755 5.8057 1.09878 5.79132 1.10001 5.81059C1.10853 5.93738 1.00054 5.82782 0.960884 5.85476C0.955128 5.85872 0.9501 5.86288 0.945728 5.86722C0.879955 5.93094 0.965916 6.03191 0.950753 6.10872C0.946409 6.13077 0.924764 6.10365 0.915424 6.12125C0.878711 6.19135 0.900686 6.24951 0.83522 6.32056C0.824518 6.33224 0.726409 6.37321 0.764308 6.43671C0.769816 6.44575 0.806676 6.43919 0.80206 6.47306C0.795166 6.52379 0.771081 6.6107 0.742596 6.65751C0.72155 6.69207 0.686865 6.63114 0.685443 6.68373C0.684851 6.70712 0.7282 6.67909 0.724648 6.72212C0.721157 6.76491 0.683924 6.86421 0.669342 6.90178C0.65473 6.93931 0.624044 6.90493 0.62038 6.90707C0.598991 6.92042 0.554659 6.98665 0.5524 6.9932C0.432068 7.31696 0.393975 7.64042 0.269759 7.95289C0.260013 7.97761 0.224771 7.94774 0.222866 7.95138C0.178299 8.03189 0.308099 7.99864 0.325163 8.07016C0.245413 8.03512 0.2489 8.07572 0.220849 8.13313C0.207195 8.16103 0.180215 8.13503 0.176099 8.13666C0.113649 8.16543 0.167306 8.21448 0.177678 8.22645C0.216001 8.26992 0.150356 8.28411 0.176023 8.31319C0.201413 8.34234 0.261767 8.31186 0.243285 8.36974C0.208608 8.37701 0.144499 8.30976 0.118282 8.35036C0.0642701 8.43356 0.0297721 8.57085 0.00478461 8.70044C0.00279758 8.70637 0.000414177 8.7241 2.41431e-06 8.73034C0.00713563 8.84109 0.0223962 8.94434 0.027056 9.00902C0.0377377 9.15127 0.0362816 9.19779 0.0542939 9.27961C0.0890741 9.42671 0.0239908 9.3782 0.00842316 9.47543C-0.00565695 9.5735 0.134403 9.50595 0.16773 9.51468C0.201056 9.52266 0.170829 9.54147 0.190622 9.5547C0.210391 9.56769 0.22631 9.53045 0.238683 9.56602C0.250719 9.60114 0.213648 9.71209 0.183801 9.73156C0.120247 9.77295 0.0381223 9.74123 0.0841371 9.836C0.0868416 9.84138 0.12103 9.81493 0.129459 9.8359C0.19538 10.0031 0.242271 10.1786 0.314181 10.3403C0.324195 10.3627 0.360148 10.3303 0.366452 10.3432C0.431923 10.4751 0.347919 10.4452 0.291851 10.5442C0.390664 10.4973 0.465893 10.5211 0.49765 10.6271C0.516535 10.6897 0.468186 10.6922 0.448684 10.7432C0.442988 10.7592 0.487029 10.7936 0.468329 10.8083C0.407004 10.8559 0.3167 10.8374 0.380478 10.937C0.383383 10.9413 0.416751 10.9147 0.424018 10.9304C0.471742 11.0336 0.402908 11.0675 0.429574 11.1856C0.450201 11.2764 0.537219 11.4133 0.579158 11.5151C0.581443 11.5209 0.582988 11.5245 0.584463 11.528C0.698595 11.487 0.704643 11.593 0.638267 11.6582C0.663453 11.7228 0.683075 11.7962 0.715568 11.8565C0.726792 11.8776 0.755154 11.8517 0.759694 11.8533C0.830767 11.878 0.762814 11.9311 0.764703 11.9467C0.787659 12.1119 0.888537 12.2176 0.881621 12.3847C0.881345 12.3907 0.804402 12.4261 0.876122 12.446C0.881015 12.4472 0.900616 12.3857 0.927199 12.4548C0.953487 12.5229 1.04091 12.6396 1.03674 12.7483C1.03593 12.775 0.991237 12.8558 1.05791 12.8857C1.06692 12.8896 1.08743 12.8749 1.10326 12.8797C1.15386 12.8953 1.07881 12.939 1.15921 12.9506C1.23928 12.9612 1.31517 13.0157 1.30124 13.1291C1.30092 13.1326 1.24487 13.1773 1.25633 13.2074C1.27472 13.2557 1.31186 13.3207 1.32876 13.3713C1.33689 13.3957 1.2919 13.3937 1.29263 13.3982C1.32689 13.5705 1.40187 13.6738 1.4778 13.8447C1.49177 13.8759 1.46928 13.9863 1.53365 14.0344C1.60402 14.0869 1.77417 13.9492 1.78198 14.1223C1.78556 14.193 1.5659 14.3567 1.73336 14.4275C1.7777 14.6589 1.91361 14.8405 1.94496 15.0778C1.94638 15.0884 1.88838 15.1436 1.8974 15.1667C1.91093 15.2009 1.94972 15.2089 1.96044 15.2331C2.00604 15.3336 2.0115 15.4386 2.05037 15.5371C2.06506 15.5746 2.09373 15.5498 2.11129 15.5945C2.12879 15.6392 2.09562 15.6851 2.13791 15.7389C2.17006 15.7796 2.27566 15.7951 2.30749 15.8533C2.22002 15.8863 2.2364 15.9278 2.23911 16.011C2.23959 16.0271 2.20348 16.0222 2.20212 16.0303C2.19591 16.0636 2.23032 16.0806 2.22224 16.1131C2.22033 16.121 2.19027 16.1317 2.18701 16.1388C2.15807 16.1989 2.25133 16.2488 2.26754 16.2574C2.32919 16.2904 2.29783 16.3267 2.32839 16.3578C2.35888 16.3887 2.36179 16.3257 2.38749 16.3653C2.44069 16.4472 2.47593 16.5648 2.50885 16.6554C2.52183 16.6917 2.47296 16.6807 2.47389 16.6863C2.48978 16.7652 2.55897 16.8265 2.49322 16.896C2.71865 16.8764 2.48885 16.9484 2.56765 17.0417C2.57394 17.049 2.67573 17.0258 2.67887 16.9883C2.68197 16.9508 2.63419 16.9119 2.64099 16.859C2.64255 16.8465 2.71324 16.7534 2.71592 16.7432C2.73676 16.6627 2.58697 16.704 2.57773 16.7034C2.47725 16.6941 2.55033 16.585 2.55036 16.563C2.55049 16.462 2.50326 16.3922 2.4996 16.3093C2.49698 16.2549 2.59126 16.2168 2.5749 16.179C2.52064 16.0537 2.37112 16.0549 2.44526 15.8934C2.46101 15.8588 2.57494 15.8486 2.46014 15.7837C2.4529 15.7797 2.35342 15.7364 2.38736 15.68C2.39164 15.6729 2.42227 15.6624 2.42255 15.6549C2.42386 15.6049 2.38925 15.5837 2.38414 15.5312C2.37903 15.4786 2.37639 15.4147 2.34695 15.3631C2.32919 15.3318 2.25743 15.3088 2.23798 15.2977C2.18222 15.2665 2.23156 15.1959 2.17323 15.1847C2.11457 15.1734 2.05936 15.2542 2.0022 15.1912C2.08071 15.161 2.16009 15.1265 2.23847 15.0945C2.17998 14.9343 2.0994 14.7842 2.04687 14.6206C2.04047 14.6004 2.09026 14.6061 2.0845 14.5841C2.06006 14.4913 2.00199 14.4217 1.98178 14.3237C1.96593 14.2468 1.98402 14.1524 1.96892 14.0715C1.86177 14.0558 1.85398 13.9329 1.81716 13.8529C1.80438 13.8251 1.78075 13.8354 1.76581 13.8177C1.71005 13.7509 1.80288 13.7595 1.8082 13.7338C1.83069 13.6236 1.64627 13.679 1.61392 13.5702C1.61211 13.5644 1.68519 13.4614 1.68798 13.4499C1.70659 13.3758 1.65077 13.4514 1.63062 13.4161C1.59381 13.3515 1.55372 13.3101 1.55452 13.2198C1.55483 13.1933 1.59552 13.1148 1.53305 13.085C1.52485 13.0811 1.49393 13.0954 1.49038 13.0912C1.4292 13.0146 1.52865 12.9763 1.5456 12.9144C1.56253 12.8524 1.46629 12.7982 1.44074 12.7889C1.37462 12.765 1.42948 12.8285 1.4252 12.8326C1.37375 12.88 1.36448 12.8188 1.34456 12.7772C1.24355 12.8046 1.22889 12.7422 1.32435 12.734C1.3348 12.7332 1.33706 12.77 1.34456 12.7772C1.42864 12.7063 1.41807 12.6347 1.30231 12.5919C1.248 12.5717 1.21004 12.6226 1.192 12.5102C1.1839 12.4596 1.25825 12.4548 1.26258 12.4067C1.27227 12.2963 1.16619 12.1924 1.14287 12.0906C1.13449 12.0538 1.18354 12.076 1.17901 12.0502C1.1665 11.9799 1.12008 11.9347 1.11173 11.8626C1.11106 11.8562 1.15502 11.8576 1.14863 11.837C1.10116 11.6811 1.03135 11.556 0.976898 11.3946C0.975972 11.3919 0.975052 11.389 0.974137 11.3861C0.951826 11.3101 0.93094 11.1719 0.90259 11.0948C0.851959 10.9567 0.741828 10.8008 0.720162 10.6769C0.705519 10.595 0.750369 10.6011 0.767522 10.56C0.800498 10.4796 0.674238 10.3932 0.655513 10.3822C0.654814 10.3817 0.664615 10.4513 0.634047 10.4214C0.585717 10.4127 0.655541 10.383 0.655513 10.3822C0.643068 10.3746 0.596587 10.2429 0.597266 10.2146C0.59756 10.1992 0.637414 10.197 0.636872 10.1892C0.622342 10.001 0.588966 9.82463 0.536964 9.65154C0.535597 9.64861 0.493599 9.66151 0.490915 9.65448C0.452279 9.55491 0.494601 9.47982 0.515046 9.39304C0.535666 9.30605 0.519398 9.24373 0.440784 9.1995C0.445121 9.13549 0.407921 9.0458 0.386811 8.9923C0.36561 8.93878 0.450849 8.93048 0.452438 8.9259C0.477693 8.85597 0.481011 8.80135 0.477247 8.74455L0.462646 8.83582C0.475535 8.77139 0.479347 8.70545 0.499835 8.62392C0.518489 8.54896 0.574504 8.40846 0.608302 8.33174C0.634967 8.27156 0.627704 8.22837 0.658239 8.17439C0.662339 8.16711 0.695909 8.18646 0.698054 8.18453C0.761581 8.1344 0.663623 8.137 0.65209 8.11878C0.610311 8.05222 0.589165 8.01325 0.64298 7.93936C0.655252 7.92258 0.800004 7.90877 0.818661 7.8772C0.842708 7.83602 0.791928 7.83738 0.818423 7.79442C0.820647 7.79075 0.848334 7.80083 0.856657 7.77185C0.89603 7.63634 0.929675 7.48526 0.980931 7.34781C0.987836 7.32896 1.02344 7.3687 1.03416 7.3417C1.08433 7.21531 1.13281 7.07446 1.15743 6.94183C1.16335 6.90913 1.12559 6.91734 1.11887 6.90734C1.07842 6.84626 1.17989 6.81701 1.18491 6.80796C1.30679 6.59243 1.29886 6.38972 1.41887 6.16627C1.42392 6.15706 1.49259 6.11759 1.50366 6.06808C1.50684 6.05278 1.50333 6.03635 1.48829 6.01917C1.48429 6.01489 1.42406 5.94629 1.48908 5.93112C1.49312 5.93029 1.52204 5.96961 1.53486 5.92571C1.54794 5.88129 1.60129 5.82509 1.58561 5.7492C1.58052 5.72557 1.52771 5.64771 1.61159 5.62117C1.61754 5.61866 1.78678 5.60263 1.71341 5.52847C1.70137 5.51632 1.60512 5.47171 1.68699 5.43395C1.70275 5.42697 1.71153 5.45987 1.74163 5.43559C1.78764 5.39897 1.79964 5.32169 1.87477 5.28929C1.88807 5.28345 1.97429 5.28029 1.94994 5.21808C1.94618 5.20825 1.91016 5.19902 1.91836 5.17922C1.9575 5.08471 2.03727 5.01258 2.07968 4.91696C2.0949 4.88307 2.03846 4.86296 2.05007 4.82328C2.06155 4.78366 2.09969 4.71352 2.14569 4.69966C2.19154 4.6859 2.23243 4.77761 2.27624 4.73785C2.4192 4.60914 2.53503 4.45838 2.66809 4.31839C2.6985 4.28404 2.73775 4.24841 2.78438 4.21456C2.81247 4.19443 2.8062 4.23727 2.84984 4.20977C3.00608 4.1115 3.4007 3.93598 3.54839 3.73264C3.6614 3.5759 3.45314 3.68434 3.54831 3.58124C3.59247 3.53242 3.71757 3.56151 3.73314 3.55142C3.87971 3.46018 3.92524 3.3358 4.0249 3.21701C4.0456 3.19172 4.06323 3.24212 4.08045 3.22003C4.11223 3.1792 4.13663 3.13186 4.15869 3.08408C4.17166 3.05386 4.18593 3.02138 4.20232 2.99537C4.21866 2.96956 4.24495 2.98945 4.2561 2.96455C4.2841 2.90353 4.30179 2.84552 4.30817 2.77487C4.30885 2.76829 4.25332 2.78216 4.27749 2.73861C4.31606 2.6694 4.34304 2.56848 4.41908 2.50922C4.4419 2.49157 4.50407 2.53252 4.49349 2.45579C4.49134 2.43982 4.40854 2.40182 4.51037 2.39029C4.52769 2.38746 4.67659 2.3572 4.6546 2.27432C4.64868 2.25249 4.61257 2.17824 4.64123 2.1598C4.64531 2.1575 4.66665 2.19554 4.68576 2.17707C4.75314 2.11094 4.81053 2.03382 4.88227 1.97068C4.90129 1.95417 4.90808 2.00932 4.93531 1.98408C5.01047 1.91438 5.08932 1.81664 5.15152 1.73934C5.17438 1.71079 5.1326 1.70317 5.13189 1.69867C5.12148 1.62464 5.1963 1.6676 5.20969 1.66187C5.29353 1.62455 5.31885 1.55274 5.3879 1.51102C5.40688 1.49954 5.41877 1.54 5.42436 1.54004C5.48063 1.53948 5.41113 1.50441 5.42918 1.48076C5.47956 1.41458 5.55555 1.36508 5.6261 1.32614C5.65204 1.31193 5.64841 1.36793 5.67118 1.35497C5.80628 1.27939 5.94396 1.20405 6.0731 1.1254C6.09755 1.1105 6.06823 1.08456 6.0708 1.07495C6.08907 1.00752 6.17296 1.05859 6.18781 1.06133C6.25677 1.07307 6.27044 1.03667 6.32485 1.02727C6.35544 1.02221 6.38689 1.01684 6.41912 1.01137C6.69563 0.961861 7.00736 0.884628 7.25626 0.835714C7.62207 0.764116 7.90879 0.701589 8.26555 0.689869C8.28827 0.689149 8.26791 0.736805 8.28747 0.736798C8.5386 0.734824 8.78559 0.712637 9.03688 0.731188C9.0575 0.732645 9.02696 0.77607 9.05977 0.779914C9.08557 0.783077 9.11412 0.785068 9.14348 0.78573C9.19293 0.786861 9.24402 0.784243 9.28818 0.77699C9.32313 0.771333 9.27777 0.732024 9.31292 0.727104C9.39409 0.715543 9.48334 0.715373 9.56613 0.72528C9.60148 0.729598 9.54644 0.772817 9.59251 0.774921C9.90843 0.790283 10.2184 0.809785 10.5401 0.764602C10.5621 0.761499 10.5852 0.670743 10.6307 0.69023C10.6331 0.715781 10.6316 0.745659 10.632 0.772877C11.0919 0.806779 11.5481 0.79627 12.0097 0.814932C12.0292 0.815733 11.9931 0.862495 12.0307 0.86429C12.2486 0.87474 12.4594 0.899441 12.6848 0.863549C12.7073 0.860063 12.6998 0.774107 12.7648 0.790652C12.7768 0.793674 12.8733 0.810477 12.898 0.830443C12.9013 0.833431 12.881 0.872212 12.9129 0.875176C13.0964 0.89158 13.2899 0.893666 13.4749 0.880121C13.5045 0.877845 13.4757 0.833631 13.4968 0.831639C13.6481 0.817944 13.8082 0.859769 13.955 0.829704C14.0523 0.809346 14.0213 0.734041 14.0767 0.664866C14.0841 0.655091 14.1439 0.656858 14.1495 0.615068C14.1634 0.51 14.1408 0.392834 14.1591 0.281036C14.1637 0.257007 14.2389 0.287342 14.1968 0.226291C14.1946 0.22225 14.1363 0.199488 14.1244 0.178883C14.1156 0.164606 14.1354 0.122924 14.1167 0.104227C14.0984 0.0855662 14.072 0.119941 14.0413 0.09745C14.0097 0.0746472 14.0264 0.0269161 13.9604 0.0173003ZM0.298019 8.74637C0.29613 8.74383 0.294679 8.7414 0.293624 8.73908L0.28648 8.78373C0.278488 8.73409 0.401775 8.76516 0.362916 8.80634L0.373295 8.74145C0.372631 8.74263 0.371876 8.74384 0.371024 8.74508C0.36904 8.74768 0.299946 8.74909 0.298019 8.74637ZM1.99304 14.8218C1.90819 14.7781 1.98428 14.7013 2.04842 14.731C2.11257 14.7609 2.01876 14.835 1.99304 14.8218ZM2.18158 15.5149C2.10609 15.4557 2.30238 15.3744 2.29006 15.47C2.28941 15.4755 2.18598 15.5183 2.18158 15.5149ZM13.8408 0.630557C13.8409 0.628577 13.8851 0.629231 13.8858 0.631242C13.9061 0.680009 13.8193 0.67876 13.8408 0.630557ZM2.36462 16.2042C2.32926 16.1898 2.33686 16.1105 2.38079 16.1284C2.41613 16.1427 2.40861 16.2222 2.36462 16.2042ZM1.01861 6.13572C1.0168 6.13419 1.02539 6.10463 1.03702 6.1095C1.07444 6.12532 1.04911 6.16155 1.01861 6.13572ZM2.75794 17.3476C2.69198 17.1815 2.49096 17.1363 2.57332 17.3137C2.58821 17.3458 2.60128 17.2238 2.63086 17.2609C2.68487 17.329 2.59877 17.4164 2.68189 17.4763C2.69705 17.4871 2.76207 17.3569 2.75807 17.3472C2.75803 17.3473 2.75799 17.3474 2.75794 17.3476ZM0.125281 8.71168C0.123696 8.71005 0.134016 8.66872 0.136177 8.66836C0.188232 8.65985 0.167509 8.74296 0.125281 8.71168ZM1.78315 4.51538C1.78113 4.51078 1.84208 4.43116 1.84735 4.43135C1.93933 4.44213 1.8185 4.60028 1.78315 4.51538ZM0.588056 11.5286C0.556911 11.5863 0.569919 11.6431 0.638143 11.658C0.620824 11.6162 0.605043 11.5704 0.588056 11.5286Z" fill="#963076"/>
</svg>
