<svg width="4" height="12" viewBox="0 0 4 12" fill="none" xmlns="http://www.w3.org/2000/svg">
<path d="M2.42531 11.2104C2.38686 11.154 2.36483 11.066 2.35699 10.9971C2.35437 10.9752 2.38296 10.975 2.38226 10.9595C2.38071 10.9287 2.35902 10.9101 2.35978 10.8795C2.36018 10.8694 2.40339 10.8642 2.40292 10.8539C2.39995 10.7975 2.37139 10.7552 2.35977 10.702C2.30248 10.4393 2.22628 10.1931 2.1539 9.93549C2.13014 9.85099 2.13053 9.73769 2.08519 9.65757C2.07986 9.64821 2.0471 9.66622 2.04357 9.66531C1.98928 9.65056 2.06304 9.63626 2.06569 9.61357C2.076 9.52359 2.0502 9.43656 2.01197 9.36638C1.9956 9.33655 1.93665 9.39141 1.96507 9.34646C1.96697 9.34337 2.0068 9.33919 2.00789 9.32915C2.01027 9.30644 1.99134 9.27109 1.9893 9.2548C1.98556 9.22335 1.9836 9.21859 1.97502 9.19052C1.96355 9.15188 1.96756 9.10044 1.94618 9.0621C1.9415 9.05394 1.9069 9.07761 1.89598 9.06566C1.88507 9.05374 1.87663 9.01533 1.88178 9C1.88691 8.98464 1.91868 8.98064 1.9249 8.97628C1.9775 8.94001 1.88359 8.9221 1.8799 8.91715C1.81485 8.82625 1.83507 8.72533 1.80755 8.63038C1.78638 8.55767 1.74956 8.48512 1.73262 8.41448C1.71295 8.33155 1.71534 8.25509 1.69143 8.17567C1.68893 8.16716 1.64573 8.18877 1.64258 8.17836C1.60933 8.06857 1.58809 7.95635 1.5949 7.8371C1.59566 7.82529 1.63922 7.83087 1.64242 7.8186C1.66064 7.74235 1.72003 7.62085 1.53522 7.61186C1.53358 7.56435 1.53053 7.50362 1.55985 7.45629C1.57871 7.4256 1.62744 7.4454 1.60321 7.41459C1.59781 7.40755 1.56026 7.42349 1.55511 7.41243C1.53344 7.36568 1.5392 7.31249 1.51323 7.2657C1.50787 7.25636 1.47302 7.26306 1.46636 7.26097C1.41232 7.2432 1.49317 7.1941 1.49859 7.18489C1.53757 7.1174 1.51837 7.07042 1.51651 7.01188C1.51646 7.01032 1.51643 7.00876 1.51641 7.00719C1.51625 6.99336 1.46924 7.01122 1.46738 6.99793C1.45843 6.9293 1.46115 6.85795 1.48176 6.79082C1.48646 6.77577 1.52706 6.78928 1.53138 6.78211C1.54997 6.75068 1.47346 6.74396 1.49 6.71404C1.4934 6.70777 1.52807 6.71135 1.53188 6.71021C1.59169 6.69215 1.50708 6.67616 1.50524 6.67142C1.48009 6.61247 1.56911 6.57551 1.55788 6.51939C1.55646 6.51251 1.51222 6.52691 1.51091 6.50759C1.50194 6.37986 1.52045 6.24509 1.56387 6.12247C1.57056 6.10343 1.60251 6.11951 1.60665 6.11855C1.67132 6.10306 1.58736 6.08464 1.58463 6.07791C1.56521 6.02593 1.63998 5.98548 1.54182 5.94323C1.59431 5.73489 1.56077 5.5207 1.67302 5.32449C1.67435 5.32199 1.71551 5.33112 1.71797 5.3261C1.74805 5.26568 1.68203 5.27081 1.60718 5.22106C1.58838 5.20857 1.68729 5.18671 1.69459 5.18458C1.72147 5.17697 1.78238 5.19397 1.78774 5.19105C1.82994 5.1665 1.62443 5.15025 1.62817 5.11216C1.62864 5.111 1.66589 5.11977 1.66996 5.11694C1.68274 5.10814 1.66871 5.09677 1.68266 5.08828C1.71491 5.06888 1.8154 5.07041 1.7606 5.03063C1.75346 5.0256 1.63647 5.02128 1.6451 4.98778C1.64865 4.97452 1.65194 4.91429 1.66084 4.89824C1.66978 4.88213 1.70637 4.89673 1.70809 4.89568C1.76147 4.85437 1.78063 4.87323 1.85598 4.85601C1.93104 4.83862 1.75579 4.8316 1.73699 4.82087C1.71825 4.81017 1.76168 4.77986 1.7765 4.77254C1.79134 4.76529 1.8145 4.77726 1.82308 4.77047C1.87913 4.7255 1.73773 4.74335 1.71104 4.72567C1.64774 4.68416 1.77916 4.66335 1.79375 4.62922C1.79768 4.62004 1.76771 4.62612 1.76538 4.61766C1.7565 4.58444 1.79795 4.56663 1.76234 4.52756C1.75654 4.52116 1.6796 4.48859 1.73753 4.47109C1.74588 4.46858 1.778 4.47754 1.7857 4.46372C1.79727 4.44297 1.80533 4.40577 1.79494 4.38283C1.78762 4.36679 1.73857 4.38242 1.74853 4.36616L1.75137 4.39259C1.75165 4.39167 1.75206 4.39063 1.7526 4.38946C1.75764 4.37862 1.79204 4.38838 1.79897 4.3686C1.80593 4.34888 1.79417 4.3056 1.78912 4.28935C1.78406 4.27311 1.7469 4.29166 1.74392 4.29097C1.7268 4.28657 1.70018 4.25974 1.69954 4.25697C1.66048 4.11801 1.69324 3.97114 1.63505 3.84119C1.63055 3.83102 1.59121 3.84915 1.5901 3.84771C1.56294 3.81558 1.68036 3.81511 1.71007 3.77941C1.62745 3.80574 1.6385 3.78643 1.6223 3.76311C1.61442 3.7519 1.58391 3.76751 1.58029 3.76728C1.52613 3.76233 1.58609 3.73222 1.59817 3.72534C1.64257 3.70004 1.58251 3.70239 1.61214 3.68533C1.64151 3.6683 1.69372 3.67433 1.68628 3.64985C1.65449 3.65127 1.58146 3.69114 1.56365 3.67607C1.49614 3.61828 1.51999 3.47073 1.50938 3.41153C1.4991 3.35313 1.4883 3.3371 1.48916 3.30088C1.4906 3.23529 1.43961 3.27453 1.40213 3.24578C1.36462 3.2171 1.51154 3.19172 1.54034 3.17713C1.56914 3.16262 1.53611 3.1665 1.55083 3.15491C1.56555 3.14333 1.59052 3.15097 1.59212 3.13385C1.59376 3.11682 1.52675 3.0916 1.49329 3.09604C1.42246 3.10553 1.35772 3.14622 1.36998 3.09834C1.37073 3.09558 1.4102 3.09145 1.41118 3.08143C1.41786 3.00258 1.3962 2.92873 1.39863 2.85083C1.39903 2.84011 1.44296 2.83524 1.44365 2.82884C1.45099 2.76235 1.38832 2.80544 1.30082 2.79897C1.40561 2.77232 1.46238 2.73363 1.44814 2.68903C1.43962 2.66228 1.39649 2.68186 1.35928 2.6754C1.34808 2.67348 1.37244 2.64453 1.35031 2.64827C1.27787 2.66021 1.20714 2.70395 1.22219 2.64802C1.22296 2.64553 1.26265 2.63909 1.26257 2.63141C1.26219 2.58175 1.18872 2.60106 1.16366 2.55684C1.14389 2.52182 1.16383 2.43942 1.15589 2.395C1.27053 2.35539 1.22965 2.32366 1.14511 2.33578C1.1383 2.30688 1.12305 2.27885 1.12424 2.24858C1.12462 2.23818 1.15976 2.232 1.1629 2.22955C1.21228 2.1914 1.13134 2.20708 1.12617 2.20229C1.07307 2.14819 1.11136 2.07495 1.03139 2.03462C1.02853 2.03322 0.94854 2.05989 0.999723 2.02163C1.00327 2.01905 1.04677 2.02534 1.03854 1.99572C1.03063 1.96691 1.05092 1.89452 0.999061 1.8696C0.986473 1.86331 0.913656 1.86519 0.955237 1.82526C0.960922 1.81993 0.98451 1.81385 0.995472 1.80505C1.03031 1.77681 0.948616 1.80185 1.00996 1.76053C1.07123 1.71903 1.10967 1.6695 1.04678 1.64764C1.0449 1.64688 0.978504 1.66282 0.974274 1.64975C0.96756 1.62881 0.96876 1.59502 0.95974 1.5746C0.955399 1.56484 0.919383 1.58733 0.917961 1.58591C0.867547 1.52644 0.882181 1.46551 0.865432 1.38662C0.862601 1.37249 0.793716 1.35781 0.823544 1.31381C0.856221 1.26578 1.05693 1.21031 0.983133 1.16598C0.952778 1.14654 0.701241 1.22399 0.802289 1.12077C0.730393 1.04615 0.751787 0.931662 0.663676 0.864932C0.65969 0.861815 0.588506 0.882738 0.584708 0.873319C0.579153 0.859186 0.605581 0.83631 0.602067 0.824881C0.589096 0.77854 0.542968 0.754997 0.525253 0.715073C0.517943 0.699125 0.551393 0.68658 0.542794 0.668063C0.534632 0.650495 0.487104 0.661303 0.492098 0.627184C0.496029 0.601522 0.563603 0.531251 0.553728 0.498322C0.502036 0.534284 0.480229 0.53745 0.460249 0.53395C0.450267 0.531887 0.440378 0.527641 0.427285 0.523879C0.419539 0.521687 0.39805 0.547076 0.393057 0.547064C0.372162 0.547448 0.386452 0.52184 0.364752 0.523573C0.359513 0.523954 0.334141 0.54332 0.328429 0.544727C0.278843 0.55739 0.315598 0.487182 0.322201 0.475179C0.346869 0.429138 0.307645 0.446042 0.312566 0.421409C0.317596 0.396893 0.351177 0.40283 0.348689 0.380513C0.34364 0.334496 0.309441 0.296159 0.287348 0.262234C0.278331 0.248758 0.249848 0.282308 0.247748 0.280948C0.219443 0.259509 0.237754 0.20605 0.15697 0.238133C0.325675 0.0958613 0.127865 0.233301 0.137428 0.168283C0.138271 0.163112 0.222227 0.101952 0.242903 0.105585C0.263457 0.109054 0.248536 0.145116 0.279409 0.14834C0.286672 0.149157 0.381986 0.116319 0.388862 0.115892C0.442558 0.112709 0.317626 0.204545 0.311508 0.210688C0.246117 0.277667 0.350981 0.24447 0.361747 0.247039C0.411607 0.259744 0.413653 0.299365 0.452391 0.311706C0.47755 0.319811 0.559956 0.26036 0.567491 0.275496C0.592705 0.32575 0.492863 0.428175 0.623085 0.395735C0.637031 0.392301 0.664259 0.371235 0.682481 0.361938C0.701413 0.353783 0.713469 0.359524 0.69492 0.408735C0.694103 0.416991 0.646904 0.489423 0.701343 0.481008C0.708022 0.479629 0.735256 0.462158 0.73933 0.463498C0.765974 0.472684 0.753079 0.500932 0.775792 0.514856C0.798017 0.527942 0.830168 0.546749 0.832861 0.573939C0.835016 0.591109 0.792468 0.638755 0.783297 0.652742C0.756004 0.691374 0.827785 0.677691 0.788709 0.713852C0.749257 0.749884 0.667814 0.764002 0.654393 0.810115C0.729395 0.772129 0.806995 0.734314 0.882767 0.696771C0.914988 0.764419 0.925176 0.845564 0.960202 0.909381C0.964774 0.917579 1.00127 0.889244 1.00725 0.897594C1.03295 0.934367 1.0182 0.978456 1.04891 1.01391C1.07231 1.04017 1.1308 1.05281 1.15681 1.08094C1.07838 1.14082 1.12874 1.17316 1.13643 1.21232C1.1391 1.22587 1.1153 1.23558 1.1113 1.2473C1.09688 1.29153 1.16819 1.24254 1.1843 1.24596C1.25323 1.26119 1.07847 1.34173 1.10203 1.38451C1.10317 1.38667 1.20977 1.37516 1.21739 1.37678C1.26658 1.38607 1.18632 1.39494 1.18613 1.4139C1.18577 1.4486 1.17194 1.47891 1.21363 1.50093C1.22595 1.50736 1.29498 1.50696 1.25734 1.54548C1.25242 1.55053 1.22048 1.56198 1.21949 1.56481C1.20442 1.61528 1.3031 1.57528 1.34521 1.58308C1.38727 1.59077 1.33246 1.65158 1.31549 1.66622C1.2717 1.70434 1.2883 1.66136 1.28293 1.66244C1.21903 1.67513 1.23893 1.69504 1.24132 1.71565C1.14545 1.75718 1.16138 1.78026 1.24413 1.73671C1.25322 1.73207 1.23837 1.72113 1.24132 1.71565C1.34318 1.69442 1.36629 1.71701 1.2895 1.78339C1.25347 1.81443 1.19932 1.81958 1.23453 1.85711C1.25046 1.87419 1.31455 1.8406 1.33967 1.85114C1.3969 1.87499 1.35471 1.95243 1.38052 1.99092C1.38978 2.00462 1.42108 1.97605 1.42869 1.98497C1.44903 2.00865 1.43049 2.04341 1.45508 2.06618C1.45736 2.06824 1.49368 2.04767 1.49742 2.05625C1.52663 2.12132 1.52231 2.18658 1.54658 2.25656C1.55803 2.28952 1.60057 2.34166 1.60851 2.37833C1.62209 2.44041 1.59091 2.53428 1.62191 2.58071C1.64193 2.61095 1.67855 2.59058 1.70998 2.596C1.77092 2.60649 1.69484 2.68691 1.68267 2.69828C1.68226 2.69862 1.66342 2.67256 1.64846 2.69472C1.60958 2.71756 1.68238 2.698 1.68267 2.69828C1.67502 2.70614 1.68475 2.76586 1.69599 2.77502C1.7021 2.77991 1.73811 2.76436 1.7406 2.76715C1.79912 2.8342 1.83316 2.90853 1.84042 2.99345C1.84011 2.99508 1.79774 3.00593 1.79751 3.00961C1.79325 3.0614 1.853 3.07402 1.89491 3.10278C1.93672 3.13133 1.93576 3.16508 1.87055 3.20876C1.88804 3.2343 1.86831 3.2845 1.8559 3.31369C1.84349 3.34287 1.92606 3.32238 1.92829 3.32399C1.99904 3.37462 1.9627 3.42441 1.97451 3.49415C1.98005 3.52751 2.0095 3.58737 2.02796 3.61964C2.04271 3.64512 2.02799 3.66694 2.04717 3.68906C2.04975 3.69206 2.08535 3.6787 2.08704 3.67937C2.13847 3.6961 2.04541 3.70647 2.03103 3.71664C1.97873 3.75363 1.95118 3.77442 1.98806 3.80319C1.99651 3.80978 2.13177 3.80009 2.14334 3.8135C2.15813 3.83093 2.10995 3.83548 2.12659 3.85344C2.12797 3.85499 2.15639 3.84719 2.15849 3.86045C2.16864 3.922 2.16838 3.99052 2.18683 4.05242C2.18924 4.06089 2.23187 4.03865 2.23609 4.05072C2.25586 4.10728 2.26947 4.17057 2.26169 4.23232C2.25962 4.24753 2.22571 4.24637 2.21697 4.25164C2.1911 4.26738 2.19935 4.27695 2.21482 4.28315C2.21759 4.30193 2.2266 4.3558 2.22465 4.37469C2.23864 4.38523 2.26108 4.39411 2.26186 4.39648C2.30049 4.50733 2.21981 4.588 2.2502 4.70026C2.25205 4.70613 2.34057 4.75875 2.26079 4.7742C2.25548 4.77536 2.17397 4.78994 2.22749 4.81182C2.23083 4.8132 2.27301 4.80338 2.26721 4.82531C2.26143 4.8472 2.28629 4.88482 2.23853 4.91159C2.22347 4.92012 2.14178 4.93582 2.20301 4.96958C2.20733 4.97169 2.34738 5.02852 2.24667 5.03519C2.23009 5.03626 2.12531 5.02401 2.17605 5.06262C2.18589 5.07002 2.21041 5.06052 2.22345 5.07886C2.24355 5.107 2.21211 5.1386 2.25571 5.17501C2.26344 5.18135 2.33231 5.21216 2.27632 5.22559C2.26755 5.22768 2.23309 5.2185 2.22815 5.22805C2.20452 5.27339 2.22276 5.32508 2.19348 5.36995C2.18317 5.38583 2.12748 5.37121 2.11044 5.38706C2.09341 5.40294 2.07505 5.43646 2.09897 5.45742C2.12289 5.4784 2.21524 5.46821 2.21954 5.49624C2.23819 5.61795 2.17305 5.72757 2.1544 5.84235C2.15163 5.85935 2.18528 5.8482 2.18355 5.87344C2.1771 5.96673 2.19508 6.12658 2.12156 6.2017C2.06254 6.26193 2.0254 6.17909 2.00001 6.22673C1.98789 6.24993 2.09183 6.28167 2.09486 6.2873C2.12567 6.34413 2.07731 6.38053 2.0898 6.4311C2.09241 6.44156 2.1355 6.43294 2.13725 6.44179C2.14361 6.47176 2.12363 6.50215 2.12643 6.53102C2.12779 6.54388 2.16049 6.54215 2.15772 6.55373C2.15148 6.58134 2.13734 6.60622 2.10642 6.63317C2.10361 6.63564 2.06318 6.61835 2.06143 6.6391C2.05874 6.67256 2.02836 6.71534 2.05968 6.75391C2.06911 6.76549 2.14372 6.7654 2.09237 6.79068C2.08165 6.79588 1.99195 6.79049 2.06969 6.81834C2.08259 6.82316 2.18769 6.86947 2.12092 6.89477C2.10333 6.90135 2.03037 6.91889 2.04225 6.93258C2.04413 6.93441 2.08401 6.92587 2.08822 6.93724C2.09457 6.95527 2.09749 6.97388 2.10008 6.99279C2.1031 7.01154 2.10588 7.03145 2.11408 7.05156C2.11814 7.06129 2.15858 7.04388 2.16333 7.05831C2.17629 7.09585 2.17075 7.14903 2.16256 7.19042C2.1595 7.20606 2.12415 7.19969 2.12056 7.2012C2.0623 7.22645 2.1452 7.22748 2.15071 7.23279C2.18386 7.26581 2.14959 7.29867 2.1651 7.33271C2.16928 7.34206 2.20691 7.32918 2.21065 7.33058C2.24736 7.3447 2.17564 7.34107 2.16992 7.35458C2.15363 7.39219 2.16373 7.43294 2.17498 7.46718C2.1792 7.47988 2.22122 7.45718 2.22449 7.46862C2.24485 7.537 2.25507 7.61009 2.24549 7.68471C2.24356 7.69859 2.20766 7.69785 2.20043 7.70222C2.14984 7.73267 2.23038 7.74412 2.23887 7.74883C2.27765 7.77049 2.25011 7.78878 2.26148 7.81252C2.31804 7.93085 2.33672 8.08781 2.35648 8.20945C2.38229 8.36742 2.38461 8.49582 2.43683 8.64016C2.44011 8.64932 2.48182 8.62657 2.48522 8.63428C2.52713 8.73476 2.5413 8.8416 2.58713 8.94091C2.59082 8.94908 2.62889 8.92344 2.63621 8.93608C2.65154 8.96197 2.66061 8.99788 2.65639 9.03038C2.65441 9.04621 2.61244 9.03949 2.6112 9.05521C2.60822 9.09185 2.61665 9.12754 2.63432 9.1584C2.64194 9.17151 2.67769 9.13609 2.68424 9.1542C2.72985 9.27732 2.77884 9.39656 2.76785 9.54127C2.76708 9.55118 2.68332 9.58917 2.7064 9.60174C2.73086 9.59465 2.75904 9.5846 2.78487 9.57615C2.86253 9.7518 2.89809 9.94068 2.9621 10.1221C2.96483 10.1298 3.00516 10.0994 3.01066 10.1141C3.04243 10.1992 3.08683 10.2762 3.07602 10.3798C3.07505 10.3902 2.99392 10.4173 3.01604 10.4379C3.02001 10.4416 3.04578 10.4753 3.06689 10.4781C3.07002 10.4784 3.10425 10.4567 3.1102 10.4683C3.14445 10.5373 3.16602 10.614 3.17301 10.6941C3.17403 10.7069 3.12983 10.7112 3.13021 10.7205C3.13316 10.7861 3.18949 10.8363 3.17762 10.906C3.16969 10.9531 3.09646 10.9686 3.0387 11.017C3.03057 11.0238 3.03895 11.0471 3.00096 11.0651C2.90547 11.1105 2.7946 11.1458 2.69339 11.1955C2.67159 11.2062 2.70906 11.2265 2.64735 11.2318C2.6432 11.2322 2.61551 11.2174 2.59482 11.2197C2.58051 11.2213 2.54441 11.2454 2.52478 11.2445C2.50516 11.2435 2.53419 11.2204 2.5094 11.2152C2.48437 11.21 2.44231 11.2353 2.42531 11.2104ZM1.80024 3.44452C1.76717 3.47733 1.91188 3.43943 1.87076 3.42583C1.8686 3.42522 1.80185 3.44286 1.80024 3.44452ZM0.822686 0.893547C0.777392 0.950688 0.872495 0.924496 0.909301 0.883823C0.945784 0.842671 0.836336 0.876087 0.822686 0.893547ZM0.634095 0.641017C0.606952 0.698133 0.794248 0.598544 0.737134 0.585106C0.73383 0.58423 0.635635 0.637653 0.634095 0.641017ZM2.98047 10.9339C2.97876 10.9349 2.98395 10.952 2.98592 10.9516C3.03327 10.9415 3.02292 10.9075 2.98047 10.9339ZM0.413818 0.415374C0.397416 0.441219 0.442291 0.445338 0.462602 0.413195C0.478956 0.387379 0.434302 0.383359 0.413818 0.415374ZM1.86669 4.63216C1.86445 4.6324 1.86174 4.64529 1.87433 4.64571C1.9149 4.64706 1.90444 4.62823 1.86669 4.63216ZM0.124109 0.000564459C0.157039 0.0676381 0.0357292 0.202255 0.0070552 0.121101C0.00197806 0.106507 0.0716404 0.118421 0.0746072 0.0937467C0.080211 0.0490937 -0.0253019 0.0879792 0.00572247 0.026333C0.0115701 0.0153519 0.122529 -0.00346787 0.124387 0.000547154C0.124294 0.000552958 0.124201 0.00055871 0.124109 0.000564459ZM1.63112 3.50639C1.62934 3.50736 1.63245 3.52507 1.63445 3.52495C1.68278 3.52126 1.67651 3.48549 1.63112 3.50639ZM1.70858 5.37654C1.70429 5.37707 1.69593 5.418 1.69965 5.41978C1.77452 5.44964 1.79165 5.36689 1.70858 5.37654ZM1.1587 2.39325C1.10727 2.39128 1.09394 2.37085 1.14508 2.33589C1.14866 2.35516 1.15502 2.37423 1.1587 2.39325Z" fill="#3C8634"/>
</svg>
