<svg width="25" height="19" viewBox="0 0 25 19" fill="none" xmlns="http://www.w3.org/2000/svg">
<path d="M0.411907 17.222C0.504924 16.7875 0.685622 16.2475 0.836928 15.8473C0.884955 15.7199 0.888445 15.7942 0.922473 15.7081C0.989891 15.5378 1.031 15.3766 1.10133 15.2109C1.12488 15.1558 1.14031 15.2395 1.16385 15.1821C1.29267 14.8682 1.39105 14.5629 1.51799 14.2442C1.81908 13.4889 2.12578 12.743 2.43885 11.9995C2.7812 11.1901 3.16461 10.3872 3.67323 9.63117C3.99213 9.14659 4.4856 8.63096 4.87822 8.20582C4.92357 8.15545 4.86902 8.15923 4.87571 8.14781C4.91974 8.07352 4.94651 8.04786 4.96992 8.03672C5.0027 8.02096 5.02913 8.03317 5.08593 7.98164C5.47357 7.62971 5.87378 7.2089 6.20778 6.8324C6.35007 6.67186 6.14957 6.77847 6.32708 6.64942C6.33939 6.64038 6.33063 6.70688 6.37396 6.66682C6.4713 6.57684 6.64017 6.38683 6.71259 6.31434C6.85357 6.17343 6.87537 6.14967 7.00524 6.01253C7.18202 5.82642 7.40749 5.61638 7.59172 5.41121C7.63158 5.36672 7.54823 5.39568 7.60866 5.32283C7.66883 5.25006 7.8458 5.07219 7.91121 5.01937C7.9783 4.96459 7.97484 5.01314 7.99061 5.00741C8.1192 4.96273 8.26801 4.69817 8.2963 4.67023C8.32295 4.64236 8.35251 4.61266 8.37954 4.58648C8.41899 4.54971 8.45407 4.51843 8.51223 4.48397C8.56535 4.45951 8.68858 4.3709 8.87168 4.49045C9.08458 4.73545 8.99191 4.79935 9.01002 4.89777C9.00131 5.07188 8.96972 5.22119 8.93805 5.36744C8.8727 5.65917 8.79255 5.93596 8.726 6.22543C8.67791 6.43989 8.62157 6.68894 8.61849 6.86323C8.62099 6.87542 8.6187 6.7832 8.52538 6.74358C8.45261 6.72184 8.46494 6.73833 8.47508 6.73069C8.50197 6.72178 8.55386 6.69465 8.59935 6.66664C8.69539 6.60784 8.79253 6.53736 8.88626 6.46827C9.31026 6.15053 9.67353 5.86055 10.0798 5.519C10.1228 5.48283 10.042 5.48856 10.0944 5.44441C10.2171 5.34117 10.341 5.23874 10.4678 5.13846C10.5109 5.10607 10.552 5.07067 10.6424 5.03612C10.6871 5.02084 10.7624 4.99942 10.8599 5.02869C10.9589 5.05936 11.0158 5.13106 11.0408 5.17061C11.1203 5.32613 11.1351 5.36983 11.1083 5.33288C11.2638 5.50561 11.615 5.40654 11.9417 5.21871C12.0003 5.1857 11.9486 5.26734 12.0093 5.23557C12.3858 5.04061 12.9642 4.62771 13.0355 4.31909C13.2607 4.12408 13.5342 3.88024 13.7617 3.72809C13.9093 3.62966 13.8097 3.77603 13.9602 3.6205C13.9943 3.58584 13.9207 3.59652 13.9738 3.54695C14.0439 3.48175 14.1189 3.41761 14.196 3.35587C14.2942 3.28174 14.3945 3.19964 14.574 3.16758C14.7781 3.11697 14.9879 3.3313 15.0237 3.4457C15.0493 3.50088 15.0679 3.4948 15.0827 3.49754C15.0872 3.49821 15.0911 3.49962 15.0941 3.50366C15.1961 3.67213 15.1379 3.69882 15.1918 3.74302C15.2106 3.75715 15.2345 3.77014 15.2604 3.78121C15.563 3.90039 15.827 3.91635 16.1474 3.9172C16.2298 3.91648 16.1321 3.87041 16.2106 3.86753C16.6183 3.85139 17.0409 3.77523 17.4408 3.68085C17.53 3.65966 17.4608 3.7223 17.504 3.71404C17.6952 3.67534 17.7121 3.58872 17.892 3.54213C17.9299 3.5319 17.9211 3.57201 17.9292 3.57313C18.0558 3.59047 18.1168 3.4751 18.1426 3.46282C18.4706 3.30292 18.7204 3.28417 19.0343 3.11313C19.0715 3.09251 18.9663 3.09675 19.072 3.04104C19.7776 2.67018 20.4957 2.22252 21.2043 1.83975C21.3186 1.77964 21.2555 1.85438 21.2647 1.85371C21.4051 1.84574 21.4383 1.73175 21.4765 1.70842C21.5018 1.69311 21.5264 1.67935 21.5503 1.66704C21.8035 1.53682 22.0588 1.45644 22.1816 1.27771C22.7949 0.953073 23.2349 0.551178 23.8623 0.0725435C23.9621 0.0357292 24.0211 -0.00788039 24.1928 0.00121872C24.284 -0.0106766 24.4295 0.162245 24.4087 0.242378C24.4094 0.326639 24.3925 0.371337 24.3744 0.425906C24.3048 0.60931 24.2095 0.751803 24.1162 0.892526C23.9253 1.1728 23.7151 1.43178 23.4954 1.68268C23.484 1.69575 23.4694 1.64592 23.4472 1.67172C23.1777 1.98208 23.2767 1.95936 23.1705 2.22213C23.1433 2.28866 22.9382 2.391 22.9211 2.40084C22.8588 2.43698 22.8539 2.34359 22.8358 2.35798C22.6886 2.4779 22.868 2.58394 22.7104 2.77862C22.7052 2.78446 22.6963 2.73515 22.6803 2.74901C22.6302 2.79194 22.6003 2.85276 22.5502 2.89367C22.4344 2.98836 22.3249 2.96409 22.2284 3.17567C22.2165 3.20239 22.3349 3.2417 22.1898 3.41247C22.1315 3.48037 21.8875 3.78896 21.8169 3.8702C21.7442 3.95295 21.7599 3.87023 21.7538 3.87555C21.5694 4.04982 21.5792 4.00532 21.4971 4.03324C21.483 4.03886 21.4663 4.04679 21.4456 4.05859C21.3014 4.13896 21.468 4.2049 21.4481 4.26698C21.4284 4.32917 21.2636 4.48069 21.2192 4.51419C21.1752 4.54804 21.197 4.48038 21.1615 4.51326C20.9261 4.73025 21.1448 4.67643 21.1025 4.77572C21.0021 5.00997 20.7814 5.07796 20.6342 5.24776C20.5946 5.29367 20.6481 5.27254 20.6175 5.31697C20.497 5.49275 20.3867 5.57163 20.28 5.79164C20.2618 5.82816 20.2202 6.0307 20.108 6.10741C20.0918 6.11841 20.0898 6.05819 20.0377 6.1319C20.0221 6.15403 20.0046 6.18042 19.9865 6.20907C19.9139 6.32104 19.8452 6.48446 19.8249 6.59633C19.807 6.69912 19.886 6.59698 19.842 6.71808C19.8241 6.77296 19.8127 6.6615 19.7823 6.76732C19.7467 6.87305 19.7492 7.15692 19.7789 7.25959C19.8029 7.36278 19.8299 7.29586 19.8343 7.30387C19.8446 7.32077 19.8611 7.35713 19.8807 7.39456C19.9087 7.44655 19.958 7.5087 19.9636 7.51791C20.043 7.64715 20.166 7.7785 20.2065 7.98784C20.3167 8.93018 19.4264 9.35185 18.7992 9.69027C18.7355 9.72274 18.7968 9.74066 18.7873 9.74601C18.5693 9.86833 18.6984 9.68215 18.5266 9.72057C18.5651 9.76421 18.5356 9.79174 18.4767 9.82731C18.4421 9.84879 18.3954 9.87183 18.362 9.9048C18.3237 9.94943 18.3743 9.94706 18.3722 9.9535C18.391 9.99853 18.3447 10.0479 18.3363 10.0773C18.307 10.1603 18.4005 10.2146 18.3972 10.2752C18.397 10.2802 18.3963 10.2843 18.3951 10.2877C18.3901 10.3004 18.378 10.3026 18.3665 10.3042C18.3546 10.3056 18.3433 10.3063 18.3418 10.3184C18.34 10.3296 18.3479 10.3527 18.3754 10.396C18.4263 10.4181 18.43 10.2735 18.507 10.3692C18.7903 10.7145 19.2976 11.4086 19.439 11.8191C19.4441 11.8332 19.4487 11.8465 19.4529 11.8592C19.5763 12.2599 19.4521 12.456 19.2831 12.6133C19.1902 12.6922 19.1282 12.7289 19.0895 12.7595C18.9857 12.835 19.0298 12.8561 18.8659 12.9574C18.634 13.0882 18.697 12.8979 18.6511 12.8833C18.6067 12.8665 18.5828 12.9104 18.5353 12.9085C18.4887 12.9061 18.5697 12.8555 18.472 12.8819C18.3757 12.9097 18.1207 13.0367 18.0921 13.0767C18.0332 13.163 18.1755 13.2069 17.9003 13.243C17.8845 13.2449 17.9261 13.1958 17.8662 13.2051C17.3919 13.2805 16.9037 13.3539 16.4563 13.5054C16.3949 13.527 16.4319 13.4646 16.3955 13.4771C16.1911 13.5514 16.15 13.6035 16.1311 13.6484C16.1179 13.6884 16.1232 13.7282 16.1498 13.7888C16.0578 13.7153 15.9306 13.8593 16.0551 14.1591C16.1262 14.3311 16.1585 14.2812 16.2388 14.3723C16.263 14.3996 16.2925 14.5278 16.3234 14.5385C16.4233 14.572 16.4371 14.4281 16.5557 14.7154C16.5608 14.7281 16.5053 14.7089 16.5257 14.7514C16.6447 15.0003 16.7257 15.02 16.8597 15.2371C16.8761 15.2645 16.8919 15.2943 16.9065 15.327C16.9679 15.4575 17.0166 15.7068 16.9053 15.9212C16.7976 16.1336 16.6078 16.2464 16.4723 16.3225C16.4161 16.2198 16.1867 16.3663 16.1018 16.4805C15.9156 16.5445 15.7125 16.6023 15.5274 16.631C15.4637 16.6407 15.4977 16.5974 15.4889 16.5954C15.3563 16.5629 15.2905 16.6573 15.2497 16.668C14.8713 16.7636 14.5402 16.7568 14.1957 16.8329C14.1433 16.8449 14.0866 16.8597 14.0318 16.8769C14.0175 16.8815 14.0078 16.9681 13.8856 16.9266C13.8774 16.9237 14.0079 16.8623 13.8126 16.893C13.6157 16.924 13.2361 16.951 12.972 17.0449C12.9078 17.0675 12.7551 17.1686 12.6109 17.1442C12.5916 17.1408 12.6061 17.1131 12.5777 17.1053C12.4856 17.0808 12.458 17.1736 12.3454 17.1235C12.2325 17.0733 12.0183 17.0634 11.7543 17.1708C11.7459 17.1741 11.6949 17.2539 11.6085 17.2712C11.4704 17.2988 11.2718 17.3266 11.1281 17.3572C11.0595 17.3719 11.1121 17.4037 11.1003 17.4069C10.641 17.5267 10.3041 17.5587 9.80191 17.634C9.70918 17.6479 9.4556 17.7502 9.27023 17.732C9.06747 17.7102 9.23651 17.4847 8.80319 17.5843C8.74229 17.5974 8.67653 17.6396 8.6055 17.6824C8.46394 17.7626 8.29748 17.8527 8.07755 17.7802C7.47856 17.8548 6.91491 17.8513 6.32294 17.9566C6.28772 17.9629 6.25289 17.9694 6.21769 17.9763C6.18925 17.9819 6.10756 18.0651 6.04032 18.072C5.94026 18.0823 5.8817 18.0548 5.80997 18.0609C5.51042 18.085 5.23963 18.1435 4.95004 18.1628C4.8399 18.1699 4.8757 18.132 4.74481 18.1392C4.61436 18.1457 4.52887 18.1974 4.35035 18.1805C4.21493 18.1669 4.08135 18.0737 3.90825 18.0561C3.90319 18.1025 3.87042 18.1243 3.81196 18.1353C3.75546 18.1412 3.67052 18.1332 3.5613 18.1238C3.51931 18.1202 3.55688 18.161 3.5366 18.1609C3.45361 18.161 3.3864 18.1181 3.3074 18.1175C3.28819 18.1172 3.2796 18.148 3.26332 18.1494C3.12357 18.1637 2.93571 18.0326 2.90522 18.0093C2.78526 17.9216 2.71035 17.9395 2.61467 17.8856C2.52002 17.8314 2.67868 17.8643 2.5651 17.8107C2.33005 17.6997 2.02332 17.5737 1.78855 17.4556C1.69483 17.4086 1.73984 17.4785 1.72598 17.4727C1.52513 17.3849 1.35791 17.2381 1.21012 17.2476C1.20106 17.0921 1.16188 17.1015 1.08164 17.0942C1.02695 17.0835 0.949968 17.0599 0.866864 16.958C0.85112 16.9384 0.899951 16.8425 0.977975 16.8937C1.02591 16.9249 1.07575 16.9807 1.13441 17.0319L1.12617 17.0259C1.16631 17.054 1.21047 17.0809 1.25778 17.0991C1.28665 17.111 1.48476 17.114 1.50819 17.1197C1.68985 17.1681 1.642 17.3158 1.64686 17.3284C1.70451 17.4631 1.94507 17.4627 1.99875 17.4789C2.24578 17.5563 2.43942 17.6579 2.64914 17.7091C2.78635 17.7421 2.83179 17.6499 2.93332 17.6865C3.26964 17.8026 3.3644 17.9737 3.71965 17.9165C3.77748 17.9059 3.76044 17.8319 3.85703 17.8558L3.82826 17.8529C3.85746 17.8571 3.89777 17.8689 3.95571 17.8907C3.97057 17.8973 4.16257 17.9807 4.27473 17.9272C4.28859 17.9205 4.28747 17.8882 4.30583 17.885C4.42895 17.8644 4.51308 17.8865 4.64829 17.8662C4.78364 17.8457 4.94606 17.8146 5.10335 17.811C5.19802 17.8089 5.32588 17.8565 5.37263 17.8665C5.50548 17.8954 5.63577 17.8107 5.72109 17.8527C5.80762 17.8949 5.65898 17.9912 5.87418 17.9999C5.87224 17.9155 5.88014 17.8277 5.88286 17.7423C6.01931 17.7272 6.15566 17.7138 6.29206 17.701C6.61973 17.6702 6.94707 17.6468 7.27818 17.6127C7.33641 17.6066 7.2725 17.5672 7.33493 17.5596C7.59843 17.5279 7.83207 17.5411 8.10506 17.5089C8.26056 17.4905 8.42558 17.4521 8.59055 17.4235C8.64107 17.4138 8.69884 17.4034 8.75094 17.3952C8.88488 17.4806 9.2006 17.4056 9.43059 17.3754C9.51122 17.3651 9.51062 17.3912 9.57018 17.3895C9.7916 17.3822 9.67653 17.3159 9.73327 17.2923C9.97821 17.1894 10.035 17.3745 10.3372 17.3101C10.3531 17.3069 10.529 17.1669 10.5544 17.1551C10.7178 17.0793 10.5903 17.1843 10.6987 17.1698C10.8978 17.1429 11.0383 17.1385 11.2623 17.0605C11.3274 17.0376 11.4751 16.9409 11.6157 16.9615C11.6342 16.9642 11.6318 16.9993 11.646 16.9983C11.9027 16.9775 11.8874 16.8718 12.0226 16.8062C12.1584 16.7404 12.3945 16.7657 12.4441 16.777C12.5736 16.8059 12.3583 16.819 12.3534 16.8255C12.2918 16.904 12.4507 16.8591 12.5751 16.8387C12.6137 16.9373 12.7858 16.8953 12.7042 16.8172C12.6952 16.8087 12.6004 16.8383 12.5751 16.8387C12.6625 16.7159 12.8502 16.6635 13.0795 16.7153C13.1864 16.74 13.1038 16.8089 13.399 16.7323C13.5343 16.6979 13.4658 16.6376 13.5847 16.5956C13.747 16.5383 13.9478 16.5174 14.1466 16.501C14.2759 16.4904 14.401 16.4827 14.5109 16.4639C14.6123 16.4466 14.5079 16.4208 14.5769 16.4076C14.7605 16.3722 14.9266 16.3782 15.1053 16.3323C15.1213 16.3281 15.0745 16.2944 15.1303 16.2842C15.5476 16.2028 15.9337 16.1475 16.2692 15.9611C16.3466 15.9171 16.439 15.8378 16.4723 15.7717C16.5063 15.7067 16.5025 15.6591 16.4912 15.5931C16.4839 15.5541 16.47 15.5064 16.446 15.451C16.3054 15.1384 16.1478 14.7883 16.0059 14.5309C15.8937 14.3227 15.8797 14.3844 15.8108 14.2962C15.7468 14.2075 15.6946 14.0608 15.6995 13.8644C15.6781 13.662 15.9095 13.4005 15.9595 13.4064C15.9618 13.4029 15.8575 13.4825 15.8207 13.5713C15.7858 13.6547 15.7795 13.7039 15.8344 13.5959C15.9391 13.4916 15.9553 13.4145 15.9595 13.4064C15.9621 13.405 15.966 13.4029 15.9709 13.4002C16.0288 13.3615 16.3993 13.1973 16.4726 13.1715C16.514 13.1523 16.4771 13.1239 16.4993 13.1146C17.0258 12.9014 17.5466 12.8233 18.0354 12.7178C18.0441 12.7164 18.0419 12.762 18.0623 12.7582C18.3479 12.7046 18.5058 12.5953 18.6834 12.4763C18.7424 12.436 18.795 12.3998 18.8428 12.3693C18.94 12.307 18.9935 12.2834 19.061 12.2748C19.1039 12.2111 19.1373 12.0952 19.107 11.9615C19.1063 11.9574 19.1053 11.9534 19.1043 11.9495C19.0726 11.8393 18.9875 11.8564 18.9824 11.8482C18.7563 11.5485 18.6402 11.328 18.3837 10.9645C18.3061 10.8531 18.1729 10.6871 18.0487 10.4871C17.9769 10.365 17.9022 10.2326 17.8848 10.0454C17.8627 9.89077 17.9589 9.67901 18.0601 9.59968C18.158 9.5128 18.2314 9.48525 18.283 9.45596C18.3178 9.43748 18.3509 9.42053 18.3823 9.40275C18.4027 9.39132 18.3653 9.36705 18.3711 9.3627C18.5235 9.2418 18.4784 9.36487 18.5209 9.36325C18.668 9.35989 18.7605 9.35398 18.9444 9.22066C18.9877 9.18971 19.0467 9.0002 19.1129 8.94545C19.2005 8.87327 19.1943 8.93696 19.2807 8.85689C19.2877 8.84995 19.269 8.82835 19.3231 8.785C19.5795 8.57987 19.7422 8.33949 19.6997 8.1041C19.695 8.07494 19.6644 8.10892 19.6508 8.08735C19.6495 8.08837 19.6488 8.0895 19.6488 8.09004C19.6623 8.07761 19.5119 7.93842 19.3592 7.58127C19.2777 7.34344 19.263 7.10852 19.2844 6.89714C19.2979 6.78272 19.3256 6.85756 19.3371 6.83372C19.4059 6.69299 19.3731 6.47735 19.3834 6.44127C19.4246 6.2696 19.4892 6.11408 19.5672 5.97421C19.8296 5.51092 20.1379 5.18216 20.4495 4.73725C20.4712 4.706 20.5771 4.42473 20.716 4.37456C20.7253 4.37108 20.8658 4.32213 20.8879 4.20229C20.8891 4.19495 20.8105 4.23033 20.8939 4.12725C20.9615 4.04328 21.0416 3.90516 21.136 3.79421C21.1613 3.76334 21.1923 3.72947 21.2222 3.70257C21.2695 3.66077 21.4264 3.58473 21.486 3.40585C21.4902 3.3927 21.5491 3.0865 21.6912 3.0695C21.7143 3.06709 21.7838 3.14855 21.8777 2.94658C21.8949 2.90873 21.8304 2.95093 21.8861 2.85888C21.9736 2.71512 22.131 2.56642 22.2221 2.37947C22.2373 2.34745 22.2763 2.18561 22.3931 2.12722C22.4115 2.11799 22.4166 2.1678 22.4593 2.12107C22.6623 1.899 22.839 1.6392 23.0423 1.41503C23.1133 1.3366 23.1264 1.41326 23.2061 1.3338C23.2845 1.25627 23.4319 1.08262 23.4772 0.974034C23.5213 0.867158 23.3771 0.914464 23.4688 0.771045C23.5749 0.602786 23.6854 0.429749 23.7556 0.290348C23.7722 0.25745 23.7857 0.225404 23.7896 0.214277C23.8137 0.213534 23.7132 0.190291 23.867 0.473548C23.9659 0.600835 24.1063 0.617925 24.1346 0.617221C24.1806 0.617716 24.1804 0.613067 24.1806 0.613165C24.1718 0.613825 24.1463 0.620312 24.1065 0.635955C24.1816 0.589701 24.0554 0.672312 24.0051 0.716229C23.9396 0.768627 23.8698 0.825409 23.7994 0.881375C23.6583 0.993956 23.5131 1.10534 23.3646 1.21452C23.2687 1.28428 23.3668 1.25306 23.2244 1.35694C22.8675 1.61913 22.3102 1.972 21.8048 2.19721C21.6188 2.28158 21.4082 2.39764 21.2532 2.46495C20.859 2.64101 21.2983 2.32302 21.0051 2.47616C20.866 2.54898 20.7729 2.72977 20.7408 2.75316C20.4353 2.97884 20.1837 3.07416 19.8906 3.25548C19.83 3.29279 19.9119 3.29604 19.8598 3.32744C19.6814 3.43528 19.4798 3.52121 19.3026 3.61474C19.2235 3.65646 19.2528 3.67829 19.1773 3.71278C18.9968 3.79512 18.8311 3.85697 18.6407 3.90625C18.6235 3.91066 18.7164 3.82622 18.581 3.88304C18.3615 3.97481 18.0758 4.05377 17.8225 4.16827C17.7472 4.20202 17.7665 4.27568 17.5803 4.27609C17.5409 4.27554 17.5641 4.17821 17.3838 4.30531C17.3554 4.32777 17.0303 4.50968 16.8434 4.4672C16.7942 4.45704 16.6694 4.40069 16.5698 4.42205C16.5561 4.42521 16.6157 4.45978 16.5314 4.4718C16.2342 4.51245 15.9134 4.50819 15.5964 4.47722C15.5113 4.46847 15.6319 4.52834 15.5043 4.51277C15.3686 4.49512 15.2208 4.46409 15.0728 4.41931C14.9367 4.37867 14.7411 4.2945 14.5994 4.1093C14.4614 3.92322 14.4437 3.7691 14.4255 3.71781C14.4231 3.7084 14.4214 3.70172 14.4205 3.69771C14.4228 3.69029 14.4539 3.67659 14.4571 3.67437C14.4826 3.64544 14.6021 3.79995 14.6374 3.78868C14.7359 3.78431 14.6385 3.80552 14.5846 3.85154C14.4942 3.91637 14.4012 3.98314 14.311 4.06769C14.2626 4.113 14.3238 4.11194 14.3161 4.1232C14.2361 4.23795 14.2663 4.11832 14.196 4.16968C13.9983 4.31444 13.7973 4.50413 13.6127 4.67965C13.5449 4.74418 13.6532 4.70671 13.5919 4.76428C13.2279 5.10479 12.8342 5.46073 12.3703 5.73772C12.2816 5.78923 12.3171 5.72474 12.2949 5.72948C12.1454 5.76091 11.9835 5.92897 11.9315 5.95735C11.7101 6.08242 11.5938 6.0942 11.3099 6.10447C11.0912 6.10934 10.8223 6.01526 10.6455 5.85418C10.4278 5.63338 10.4258 5.46708 10.449 5.54783C10.4634 5.57051 10.5171 5.65274 10.6411 5.69621C10.764 5.73642 10.8466 5.70838 10.8761 5.69923C10.9364 5.6752 10.9154 5.67917 10.9041 5.69062C10.4227 6.07512 9.91751 6.5053 9.46804 6.84816C9.32457 6.95727 9.18141 7.06275 9.02353 7.16228C8.94287 7.21193 8.86211 7.26204 8.74065 7.31191C8.6685 7.33421 8.62141 7.37556 8.4177 7.36384C8.31551 7.36 8.1279 7.26725 8.05799 7.13168C7.98742 7.003 7.99084 6.92647 7.98889 6.86039C8.0821 6.06331 8.30933 5.5637 8.37856 4.94774C8.38274 4.89833 8.33201 4.94372 8.33441 4.90187C8.33595 4.8728 8.33565 4.84563 8.3344 4.83522C8.34105 4.82977 8.30432 4.81867 8.39107 4.95738C8.43204 5.03172 8.61359 5.12053 8.69985 5.10662C8.79944 5.10095 8.81691 5.08228 8.83589 5.0752C8.85904 5.06232 8.84348 5.07013 8.8265 5.0862C8.46162 5.42491 8.07656 5.82686 7.70973 6.22659C7.67018 6.26986 7.76044 6.23861 7.69775 6.30941C7.57004 6.45416 7.40034 6.63084 7.25617 6.76365C7.18553 6.82887 7.24617 6.70915 7.17552 6.77547C7.01203 6.92869 6.84556 7.10147 6.69329 7.27395C6.62851 7.34747 6.76228 7.27088 6.67584 7.36369C6.29708 7.77121 5.9227 8.17548 5.53086 8.5695C5.30932 8.79193 5.09154 8.99859 4.88082 9.21091C4.84083 9.25127 4.73766 9.23023 4.6735 9.33621C4.68741 9.35939 4.71092 9.37789 4.72948 9.39813C4.05403 10.2455 3.5451 11.2295 3.11223 12.2718C3.06897 12.3766 3.02689 12.4794 2.98465 12.5839C2.96465 12.6333 3.04392 12.5658 3.00552 12.6616C2.78475 13.2129 2.58844 13.7557 2.33113 14.3078C2.30607 14.3617 2.23608 14.3044 2.18668 14.4754C2.17827 14.5046 2.09662 14.7608 2.09079 14.8319C2.09022 14.8418 2.14435 14.8092 2.11602 14.8911C1.95264 15.3618 1.77196 15.8559 1.59801 16.3208C1.56997 16.3957 1.55526 16.3019 1.53501 16.355C1.39082 16.7353 1.29696 17.166 1.17384 17.5238C1.09368 17.7625 1.04239 17.6567 0.945648 17.7762C0.931419 17.7927 0.90619 17.946 0.864506 17.9498C0.756697 17.9598 0.652417 17.8629 0.536315 17.8824C0.508687 17.8846 0.515428 18.1357 0.468126 17.9838C0.464051 17.9679 0.466313 17.7951 0.455347 17.7478C0.4466 17.7171 0.395642 17.7615 0.38835 17.7001C0.381703 17.6366 0.429008 17.5794 0.429312 17.4799C0.429911 17.381 0.372035 17.4114 0.411907 17.222ZM18.863 11.3618C18.8149 11.2221 18.6812 11.2924 18.7978 11.3959C18.8035 11.4008 18.8655 11.3689 18.863 11.3618ZM6.81846 17.7767C7.01381 17.8219 7.13315 17.7127 6.99462 17.6756C6.85582 17.6388 6.75872 17.7632 6.81846 17.7767ZM4.8801 18.0367C5.10352 18.0706 5.11815 17.8563 4.88972 17.9184C4.87646 17.9218 4.86716 18.0346 4.8801 18.0367ZM1.06923 17.1522C1.06646 17.1544 1.03559 17.2644 1.03689 17.2678C1.06743 17.3387 1.12918 17.118 1.06923 17.1522ZM2.98574 17.92C3.04282 17.9683 3.24186 17.9887 3.16945 17.9317C3.11176 17.8868 2.91525 17.8611 2.98574 17.92ZM20.5727 5.20798C20.5759 5.20752 20.6288 5.14245 20.6178 5.13608C20.5822 5.11562 20.5198 5.21519 20.5727 5.20798ZM0.261849 16.2093C0.579417 16.5761 0.661391 16.9118 0.309872 16.5065C0.247165 16.4329 0.492067 16.6222 0.420337 16.5209C0.28969 16.3364 0.108956 16.2979 0.00103202 16.0876C-0.0183746 16.0495 0.243915 16.1882 0.262608 16.2098C0.262356 16.2096 0.262103 16.2095 0.261849 16.2093ZM18.9627 11.1913C18.9628 11.1877 18.8967 11.0923 18.8934 11.0913C18.8185 11.0683 18.951 11.2596 18.9627 11.1913ZM23.6511 1.4086C23.6582 1.40706 23.822 1.1892 23.8224 1.18087C23.8416 1.02258 23.5157 1.45633 23.6511 1.4086ZM16.4663 16.3223C16.3728 16.4325 16.2206 16.5019 16.1024 16.4804C16.2259 16.4389 16.3478 16.3872 16.4663 16.3223Z" fill="#3C8634"/>
</svg>
