<svg width="8" height="9" viewBox="0 0 8 9" fill="none" xmlns="http://www.w3.org/2000/svg">
<path d="M3.38398 0.659677C3.30048 0.743419 3.17129 0.832751 3.06797 0.895556C3.03578 0.915142 3.03299 0.882719 3.00991 0.895449C2.96441 0.920732 2.93746 0.96105 2.89113 0.984913C2.87571 0.992716 2.86394 0.94737 2.8485 0.956189C2.76412 1.00478 2.7025 1.07307 2.62388 1.13089C2.23582 1.41683 1.8775 1.72856 1.51854 2.05633C1.40035 2.16439 1.23629 2.27646 1.13616 2.40709C1.12469 2.42216 1.15923 2.43924 1.15899 2.44393C1.15365 2.51756 1.11239 2.45282 1.0801 2.47304C1.07748 2.47468 1.07488 2.47633 1.07229 2.47799C0.979392 2.52137 0.929445 2.63096 0.933648 2.73927C0.935691 2.78578 1.01213 2.74515 0.968389 2.78787C0.965476 2.79112 0.926889 2.77717 0.922174 2.79033C0.911163 2.81979 0.920368 2.88 0.919809 2.90487C0.918319 2.95448 0.919761 2.9614 0.926932 3.00898C0.936403 3.07205 0.936375 3.15598 0.965756 3.22365C0.972151 3.2381 1.00467 3.2069 1.01834 3.2286C1.03203 3.25096 1.04893 3.31286 1.04793 3.3379C1.04653 3.36227 1.01364 3.36381 1.00818 3.37002C0.961686 3.42192 1.06979 3.46706 1.07529 3.47464C1.17681 3.6314 1.20354 3.79687 1.28599 3.95577C1.34884 4.07629 1.4333 4.19596 1.49621 4.31023C1.57104 4.4464 1.62002 4.5715 1.70175 4.70021C1.71033 4.71381 1.74103 4.67335 1.7516 4.68989C1.86142 4.86183 1.96411 5.03819 2.04475 5.22947C2.04743 5.23519 2.05002 5.24091 2.05251 5.24664C2.06363 5.27303 2.01001 5.26185 2.01812 5.28838C2.07908 5.46143 2.00051 5.68273 2.17292 5.77616C2.16021 5.87569 2.1387 5.97915 2.09697 6.04684C2.07022 6.0908 2.02807 6.04341 2.04399 6.10107C2.04771 6.11376 2.08784 6.09957 2.09056 6.11783C2.09398 6.14007 2.09574 6.16185 2.09759 6.18287C2.1034 6.26597 2.09103 6.34989 2.08583 6.42881C2.08435 6.45156 2.11994 6.45497 2.12436 6.46304C2.15931 6.53376 2.04441 6.58974 2.03159 6.60124C1.93076 6.70867 1.89366 6.7926 1.81963 6.88715C1.80238 6.90855 1.85993 6.91248 1.84441 6.93431C1.76236 7.04767 1.66255 7.14481 1.55779 7.21842C1.53437 7.23469 1.52442 7.18769 1.51181 7.19394C1.45681 7.22144 1.50055 7.28545 1.44875 7.31218C1.43791 7.31785 1.41875 7.2882 1.41456 7.28693C1.34912 7.26677 1.38665 7.34796 1.38175 7.35521C1.32135 7.44803 1.21084 7.43079 1.14749 7.51182C1.1401 7.5215 1.19027 7.53324 1.16781 7.5584C1.1045 7.62981 1.03997 7.70049 0.981448 7.76978C0.86166 7.90966 0.736331 7.97059 0.665017 8.03444C0.646093 8.05107 0.629513 8.01796 0.625493 8.01652C0.607874 8.01287 0.59847 8.01525 0.594733 8.02018C0.583034 8.03597 0.619057 8.06953 0.618462 8.07591C0.607298 8.13384 0.542036 8.21526 0.641829 8.18515C0.639142 8.18299 0.634164 8.17758 0.628532 8.17419C0.612396 8.2029 0.769509 8.19265 0.896797 8.12597C1.03022 8.065 1.16634 7.98514 1.31465 7.91971C1.35346 7.90281 1.39913 7.88371 1.4389 7.87057C1.44368 7.86878 1.45857 7.90895 1.46804 7.90521C1.58088 7.86142 1.52619 7.81904 1.55079 7.70908C1.55715 7.68135 1.65792 7.7312 1.66702 7.73376C1.69788 7.74491 1.71378 7.80866 1.72215 7.8093C1.78922 7.81342 1.66887 7.64572 1.732 7.60538C1.73418 7.6044 1.74622 7.64171 1.75359 7.64149C1.77566 7.64145 1.78262 7.61913 1.80524 7.62018C1.85713 7.62288 1.92491 7.69843 1.9468 7.61519C1.94977 7.6043 1.87543 7.51309 1.93425 7.48193C1.95546 7.47108 2.05323 7.40584 2.08231 7.39609C2.11288 7.38539 2.11512 7.42877 2.11788 7.42893C2.21703 7.42427 2.20106 7.45914 2.27805 7.49722C2.35327 7.53609 2.24839 7.3952 2.2523 7.36938C2.25615 7.34366 2.33191 7.34356 2.35322 7.34677C2.37431 7.35013 2.37091 7.38087 2.38684 7.38018C2.4909 7.37566 2.37255 7.28574 2.38239 7.24619C2.4066 7.1519 2.52308 7.23114 2.5846 7.20619C2.60132 7.19938 2.57302 7.18251 2.58474 7.17155C2.6327 7.12758 2.68332 7.14293 2.72285 7.07254C2.72929 7.06108 2.73476 6.96402 2.79629 6.99218C2.80517 6.99624 2.81064 7.03141 2.83655 7.02306C2.87479 7.01094 2.94067 6.976 2.96857 6.94461C2.99002 6.92084 2.93091 6.89592 2.97269 6.88819C2.99133 6.88475 2.98154 6.92864 3.01516 6.91997C3.04836 6.91158 3.1192 6.86302 3.14405 6.84523C3.1697 6.82689 3.13294 6.80269 3.13356 6.79902C3.1377 6.77753 3.1778 6.72744 3.18242 6.72442C3.40608 6.56975 3.65221 6.48673 3.85921 6.31933C3.87539 6.30631 3.84004 6.27869 3.84226 6.27634C3.89105 6.22169 3.90827 6.34712 3.97087 6.35058C3.91629 6.28292 3.9494 6.27943 3.98612 6.24301C4.00357 6.22553 3.97374 6.20524 3.97366 6.20114C3.97423 6.13916 4.03174 6.17962 4.0446 6.18715C4.09197 6.21482 4.08037 6.15192 4.11239 6.17016C4.14427 6.18818 4.14087 6.24945 4.18045 6.22171C4.17419 6.18844 4.09886 6.14173 4.12181 6.11018C4.20768 5.99157 4.45494 5.89896 4.55033 5.84108C4.64583 5.78319 4.67052 5.75911 4.73025 5.73137C4.8378 5.68144 4.76896 5.656 4.81192 5.59265C4.85526 5.52898 4.91108 5.67035 4.93774 5.69055C4.96427 5.71081 4.95473 5.67758 4.97516 5.68465C4.99555 5.69173 4.98536 5.72519 5.01362 5.7135C5.04184 5.70183 5.07698 5.60834 5.06673 5.57493C5.04454 5.50449 4.97227 5.4648 5.05132 5.44122C5.0559 5.4399 5.0662 5.48017 5.08262 5.47348C5.2128 5.41894 5.33101 5.33811 5.45935 5.2799C5.47708 5.27191 5.4881 5.3171 5.49871 5.31285C5.60914 5.26869 5.53278 5.2333 5.53729 5.13079C5.58818 5.22693 5.65448 5.26087 5.72634 5.21062C5.76962 5.1804 5.73493 5.14725 5.74358 5.10035C5.74616 5.08624 5.7948 5.09132 5.78743 5.06936C5.76339 4.99756 5.68793 4.9518 5.77965 4.92604C5.78375 4.925 5.79656 4.96456 5.80904 4.95861C5.88975 4.9203 5.8551 4.85196 5.92677 4.78934C5.97569 4.74656 6.08481 4.71067 6.16116 4.67264C6.17227 4.66709 6.18256 4.66157 6.19179 4.65605C6.2618 4.75514 6.30963 4.68599 6.2866 4.59894C6.33183 4.5698 6.37651 4.53035 6.42581 4.50713C6.44268 4.49915 6.45456 4.53429 6.45869 4.5359C6.5228 4.56171 6.49187 4.48262 6.49931 4.47275C6.57998 4.37 6.70066 4.35067 6.74859 4.22521C6.75003 4.22088 6.69812 4.15439 6.76267 4.17795C6.76717 4.17949 6.76538 4.23421 6.8074 4.19812C6.84892 4.16271 6.9584 4.11388 6.9669 4.03022C6.97059 4.00796 6.92875 3.94605 6.98657 3.94196C6.99469 3.94086 7.01591 3.9533 7.03063 3.95196C7.07858 3.94279 6.99824 3.91494 7.07304 3.90136C7.11404 3.89237 7.1495 3.86467 7.16558 3.8348C7.17951 3.8073 7.1797 3.77318 7.15734 3.73492C7.15592 3.73213 7.0887 3.71224 7.08962 3.68701C7.09126 3.64662 7.10355 3.58831 7.10079 3.54576C7.09946 3.52545 7.05832 3.54078 7.05736 3.5373C7.02598 3.40397 7.05246 3.30491 7.05028 3.15697C7.04997 3.1299 6.98325 3.06072 7.02124 3.00315C7.06295 2.94018 7.27411 2.97105 7.20936 2.84898C7.1838 2.80103 6.916 2.76174 7.04255 2.65399C6.99421 2.47191 7.06086 2.30573 7.04262 2.12235C7.04176 2.11428 6.97466 2.07519 6.97976 2.05525C6.98355 2.04063 6.99488 2.03111 7.00603 2.0229C7.01802 2.01385 7.02926 2.00765 7.03333 1.99809C7.06841 1.91782 7.06444 1.83304 7.09483 1.75446C7.10632 1.72465 7.13634 1.74599 7.15007 1.71085C7.16394 1.67539 7.12813 1.63643 7.16614 1.59513C7.19517 1.56368 7.29716 1.55946 7.32503 1.51564C7.23798 1.48167 7.2517 1.44928 7.25138 1.38164C7.25126 1.36872 7.21627 1.36896 7.21466 1.36223C7.20765 1.33395 7.24055 1.32409 7.23207 1.29632C7.23004 1.28963 7.20055 1.27742 7.19725 1.27125C7.16805 1.21784 7.25912 1.18747 7.27484 1.18295C7.33475 1.16454 7.30471 1.13042 7.33511 1.10948C7.36528 1.08932 7.36668 1.14104 7.39228 1.1135C7.44545 1.05607 7.4849 0.970425 7.52609 0.908551C7.54238 0.883787 7.49571 0.877694 7.4972 0.873621C7.51535 0.831172 7.55875 0.807234 7.56639 0.768726C7.56969 0.753304 7.56719 0.735101 7.55498 0.71205C7.75137 0.818565 7.56419 0.669686 7.65131 0.627579C7.65806 0.624365 7.74803 0.677376 7.74271 0.710017C7.73721 0.742795 7.68464 0.756486 7.67835 0.801029C7.67737 0.807824 7.69398 0.852656 7.7064 0.885703C7.71608 0.900818 7.72296 0.914313 7.7234 0.917166C7.73462 0.97815 7.60419 0.895715 7.59532 0.893246C7.50117 0.867268 7.5571 0.976354 7.55666 0.992047C7.55013 1.06925 7.50364 1.11336 7.49924 1.17797C7.49624 1.22045 7.58742 1.26557 7.57236 1.29165C7.52312 1.37854 7.37763 1.36108 7.45702 1.49689C7.47412 1.5259 7.58527 1.54496 7.47765 1.58448C7.47089 1.5868 7.37657 1.6127 7.41357 1.66007C7.41824 1.66602 7.44882 1.67658 7.44962 1.68253C7.45443 1.72213 7.42227 1.73649 7.42152 1.77746C7.42069 1.81868 7.42358 1.86887 7.39937 1.90847C7.38493 1.93196 7.31687 1.94736 7.29891 1.95535C7.24717 1.97825 7.30219 2.03653 7.24626 2.04345C7.19001 2.05061 7.12811 1.9839 7.07827 2.03314C7.14383 2.0549 7.21026 2.07897 7.27618 2.1023L7.28062 2.08549C7.29529 2.08946 7.30994 2.09337 7.32454 2.09722C7.29796 2.20082 7.26091 2.30998 7.26533 2.43044C7.26599 2.44527 7.31103 2.4298 7.31296 2.44543C7.32109 2.51093 7.29232 2.57232 7.31135 2.64405C7.32628 2.69951 7.38068 2.75668 7.40004 2.81579C7.30896 2.86443 7.35339 2.95273 7.35376 3.02259C7.35391 3.04709 7.32822 3.04878 7.32215 3.06705C7.29983 3.13609 7.38018 3.09478 7.39575 3.11106C7.46213 3.18188 7.27222 3.21188 7.28688 3.30306C7.28763 3.30761 7.3957 3.35817 7.40278 3.36649C7.44906 3.41712 7.36807 3.37861 7.36338 3.41297C7.35452 3.47606 7.33299 3.51973 7.36577 3.59231C7.37547 3.61306 7.44073 3.66503 7.39111 3.70827C7.38462 3.71389 7.35073 3.71069 7.34873 3.71513C7.31504 3.79469 7.41936 3.79984 7.45386 3.84971C7.45408 3.84988 7.45429 3.85006 7.4545 3.85024C7.49276 3.87206 7.40141 4.02154 7.37072 4.03236C7.2999 4.07853 7.3618 3.97894 7.35505 3.97315C7.29829 3.92426 7.29772 4.00759 7.26932 4.06015C7.16966 4.03109 7.14752 4.08878 7.24076 4.11042C7.25144 4.1126 7.26105 4.06935 7.26932 4.06015C7.34724 4.14618 7.30307 4.2502 7.17932 4.25108C7.12197 4.25047 7.1023 4.19515 7.05217 4.28057C7.02808 4.31925 7.09293 4.35527 7.07855 4.39822C7.04536 4.49601 6.91566 4.52178 6.8563 4.58539C6.83393 4.60917 6.88305 4.61936 6.86922 4.63612C6.83204 4.68103 6.77363 4.69021 6.73867 4.73707C6.73551 4.74136 6.77092 4.76593 6.75732 4.7773C6.65385 4.86455 6.54509 4.91271 6.43311 4.99305C6.42502 4.99885 6.41622 5.00577 6.40682 5.01352C6.35479 5.05669 6.2881 5.12424 6.23918 5.15453C6.14035 5.21598 5.98621 5.25242 5.91427 5.32146C5.8661 5.36716 5.90168 5.39242 5.89499 5.43162C5.88211 5.50756 5.74788 5.48316 5.72879 5.47817C5.72816 5.478 5.76822 5.43773 5.73162 5.43772C5.69198 5.41178 5.72919 5.47765 5.72879 5.47817C5.71664 5.47484 5.61897 5.53243 5.60521 5.55175C5.59776 5.56228 5.62583 5.59027 5.62152 5.59515C5.51947 5.70991 5.40046 5.80558 5.26623 5.87706C5.26356 5.87797 5.2419 5.83982 5.23592 5.8424C5.15176 5.87748 5.13604 5.95354 5.09482 6.02083C5.05367 6.08806 4.99895 6.11306 4.9211 6.07576C4.88126 6.11484 4.79865 6.13163 4.74914 6.14134C4.7002 6.15066 4.74329 6.22421 4.74093 6.22787C4.66956 6.34234 4.58169 6.34364 4.47139 6.40993C4.42005 6.44053 4.32406 6.52094 4.27532 6.56531C4.23687 6.60052 4.19867 6.60238 4.16564 6.64017C4.16115 6.64527 4.1879 6.67288 4.18705 6.67521C4.16761 6.74311 4.13727 6.65187 4.11875 6.64445C4.05144 6.61745 4.01378 6.6043 3.97202 6.66664C3.96225 6.68106 3.99796 6.81772 3.97821 6.84043C3.95242 6.86973 3.93752 6.82218 3.91138 6.85373C3.90913 6.85638 3.92614 6.88046 3.90538 6.89286C3.80685 6.95234 3.69636 7.00574 3.5987 7.07445C3.5855 7.08361 3.62856 7.11107 3.60993 7.12493C3.52335 7.18934 3.42181 7.25473 3.32052 7.29552C3.29546 7.30546 3.2912 7.26904 3.28107 7.2641C3.21933 7.23445 3.22557 7.3327 3.21977 7.33847C3.07834 7.48098 2.91363 7.49657 2.76632 7.63652C2.75976 7.64338 2.73735 7.76724 2.66424 7.72105C2.65894 7.71826 2.58609 7.66976 2.58773 7.73417C2.58789 7.73816 2.62994 7.7602 2.59351 7.77879C2.5565 7.79776 2.52068 7.85384 2.44775 7.84681C2.42496 7.84447 2.34776 7.7989 2.33895 7.88056C2.33819 7.88636 2.3482 8.05169 2.2714 7.98252C2.25877 7.97112 2.20595 7.8797 2.18218 7.95918C2.17786 7.9744 2.2086 7.98265 2.19035 8.0118C2.16419 8.05544 2.09245 8.06778 2.07053 8.1375C2.0659 8.15032 2.06655 8.23482 2.00906 8.20699C2.00005 8.20264 1.98953 8.16759 1.97251 8.17375C1.88657 8.20605 1.8228 8.27441 1.73513 8.30121C1.70339 8.31123 1.68619 8.2547 1.65176 8.25851C1.62421 8.26251 1.5812 8.27674 1.55893 8.2983C1.55005 8.30645 1.54298 8.31572 1.53899 8.32606C1.52299 8.36717 1.60502 8.42252 1.56309 8.45776C1.36906 8.60738 1.16401 8.70978 0.775843 8.77359C0.710722 8.77881 0.773032 8.80892 0.664894 8.8126C0.556203 8.81525 0.345213 8.78262 0.18832 8.63082C-0.0102189 8.4399 -0.0136979 8.19265 0.0101292 8.06077C0.0356521 7.91792 0.089509 7.81816 0.148191 7.7386C0.206735 7.65973 0.262554 7.6171 0.307313 7.59248C0.464572 7.51783 0.348147 7.68665 0.448721 7.62292C0.495256 7.59508 0.459418 7.48629 0.463395 7.47797C0.487827 7.43115 0.508145 7.41689 0.521154 7.41074C0.556143 7.37476 0.591495 7.34214 0.620911 7.29902C0.634202 7.27959 0.586983 7.26831 0.598846 7.25196C0.639439 7.19562 0.701335 7.1589 0.741819 7.11329C0.759929 7.09278 0.733464 7.07307 0.752943 7.05732C0.799399 7.01937 0.845963 6.99365 0.906963 6.97769C0.912514 6.97625 0.916096 7.029 0.947365 7.00122C0.997702 6.9564 1.07796 6.92209 1.10893 6.84867C1.11798 6.82681 1.06659 6.77282 1.13519 6.77761C1.14942 6.77863 1.20431 6.85065 1.18689 6.7585C1.18475 6.74262 1.16901 6.60934 1.24442 6.62623C1.26457 6.6305 1.3375 6.65927 1.34439 6.63377C1.34504 6.63021 1.30667 6.61328 1.31615 6.59637C1.34961 6.53767 1.39303 6.48845 1.41303 6.4342C1.41802 6.42001 1.37169 6.41561 1.37957 6.39601C1.40137 6.34183 1.43189 6.29751 1.45205 6.26875C1.45963 6.25804 1.49117 6.27386 1.49498 6.27402C1.55831 6.27002 1.47879 6.24517 1.47443 6.24151C1.46186 6.22632 1.46457 6.21703 1.46899 6.20583C1.47199 6.15577 1.48 6.11077 1.4773 6.06447C1.476 6.03908 1.43592 6.05469 1.43272 6.04944C1.40208 5.99512 1.46964 6.03827 1.47969 6.00731C1.50846 5.92215 1.51575 5.8413 1.51567 5.78056C1.51555 5.75859 1.46838 5.77912 1.46868 5.76015C1.46912 5.64422 1.46364 5.61627 1.47536 5.58338C1.47693 5.57616 1.50919 5.56238 1.51555 5.55735C1.52327 5.55077 1.52702 5.54576 1.52799 5.54213C1.52101 5.50643 1.45584 5.50032 1.44534 5.49451C1.38702 5.46233 1.40196 5.42743 1.37044 5.38675C1.21627 5.18898 1.07103 4.91118 0.960989 4.69494C0.817293 4.4122 0.727503 4.17974 0.588988 3.89728C0.580341 3.87932 0.546277 3.91693 0.538134 3.90132C0.435768 3.69864 0.369226 3.47922 0.299993 3.23541C0.294387 3.21475 0.257967 3.25462 0.247547 3.22126C0.226024 3.15354 0.21318 3.06079 0.220146 2.98227C0.22352 2.94413 0.265594 2.99073 0.268429 2.95307C0.275586 2.86684 0.277629 2.77031 0.280784 2.67325C0.282429 2.6309 0.230115 2.69029 0.236362 2.6339C0.259428 2.41194 0.360842 2.15707 0.537703 1.98361C0.616594 1.90772 0.700594 1.83841 0.793973 1.77751C0.809284 1.76756 0.886223 1.8199 0.899712 1.78112C0.883572 1.76127 0.862147 1.7404 0.843648 1.72045C1.09681 1.44279 1.38375 1.21217 1.6596 0.96324C1.67124 0.952736 1.61837 0.935516 1.64076 0.914983C1.77027 0.796255 1.88786 0.671212 2.05423 0.587506C2.07071 0.579151 2.12053 0.6491 2.15122 0.604563C2.1567 0.596512 2.20801 0.535924 2.21133 0.508348C2.21158 0.504405 2.17434 0.484065 2.19282 0.466262C2.30031 0.363681 2.4244 0.268483 2.55388 0.191127C2.57472 0.178798 2.58266 0.227629 2.59771 0.219166C2.70477 0.158417 2.7863 0.0493214 2.90181 0.00633918C2.97927 -0.0222141 3.0025 0.0531449 3.07905 0.0847572C3.0894 0.0895456 3.12908 0.0606276 3.15651 0.092584C3.22613 0.172324 3.2793 0.277545 3.3557 0.36084C3.37231 0.378594 3.40355 0.321539 3.41142 0.389487C3.41197 0.393983 3.38923 0.436255 3.39267 0.458866C3.39513 0.474405 3.43221 0.499651 3.43099 0.522972C3.43011 0.546019 3.3949 0.528135 3.38759 0.560356C3.38029 0.592935 3.41981 0.623526 3.38398 0.659677ZM4.53058 6.18261C4.47253 6.17294 4.55198 6.29979 4.56956 6.24433C4.57031 6.24149 4.53352 6.18302 4.53058 6.18261ZM7.15204 2.30501C7.08323 2.35275 7.17998 2.39029 7.23172 2.35685C7.28361 2.3255 7.17296 2.29153 7.15204 2.30501ZM7.22497 1.77888C7.15586 1.82304 7.35478 1.89719 7.33462 1.82059C7.33354 1.81612 7.229 1.7763 7.22497 1.77888ZM2.94401 0.219164C2.94581 0.220248 2.97295 0.20072 2.97266 0.19844C2.95687 0.150095 2.90158 0.18999 2.94401 0.219164ZM7.3691 1.23988C7.33485 1.24652 7.34352 1.31191 7.38586 1.30302C7.41966 1.29624 7.41142 1.23191 7.3691 1.23988ZM2.62599 7.26635C2.6242 7.26486 2.60273 7.27647 2.61004 7.28674C2.63355 7.31985 2.65572 7.2917 2.62599 7.26635ZM7.85486 0.417315C7.79013 0.563237 7.59765 0.529477 7.67706 0.422275C7.69115 0.400688 7.70415 0.495292 7.73237 0.473049C7.78642 0.426045 7.69604 0.352935 7.76781 0.311407C7.78214 0.301367 7.86023 0.407435 7.855 0.417649C7.85496 0.417538 7.85491 0.417426 7.85486 0.417315ZM4.40881 6.04833C4.40698 6.04718 4.37801 6.06478 4.37847 6.06685C4.3902 6.11638 4.4486 6.08093 4.40881 6.04833ZM1.38583 7.95284C1.38376 7.95163 1.36323 7.96229 1.34778 7.97106C1.33082 7.98084 1.31439 7.99137 1.3144 7.99363C1.31836 8.03804 1.35578 8.03973 1.38186 8.02387C1.40417 8.0104 1.42235 7.97699 1.38583 7.95284ZM6.19478 4.65788C6.19633 4.59777 6.22708 4.56829 6.28643 4.59899C6.25495 4.61829 6.2261 4.6388 6.19478 4.65788Z" fill="#963076"/>
</svg>
