<svg width="19" height="25" viewBox="0 0 19 25" fill="none" xmlns="http://www.w3.org/2000/svg">
<path d="M17.3518 23.916C17.4022 23.4745 17.4033 22.9051 17.3875 22.4776C17.3827 22.3415 17.3557 22.4108 17.3509 22.3184C17.3413 22.1354 17.3538 21.9695 17.34 21.7901C17.3352 21.7304 17.2939 21.8047 17.2899 21.7428C17.268 21.4042 17.2721 21.0835 17.2535 20.7409C17.2091 19.9291 17.1564 19.1243 17.0969 18.3198C17.0307 17.4435 16.9235 16.5602 16.6826 15.6814C16.535 15.1204 16.2318 14.4743 15.9953 13.9461C15.9684 13.8839 16.0189 13.9049 16.0162 13.8919C15.9982 13.8075 15.981 13.7746 15.9624 13.7566C15.9363 13.7312 15.9074 13.7343 15.87 13.6674C15.6149 13.2102 15.3699 12.6837 15.1734 12.2203C15.0898 12.0227 15.2458 12.1877 15.1187 12.0088C15.11 11.9963 15.097 12.0621 15.0688 12.0103C15.0052 11.894 14.9058 11.66 14.8603 11.5682C14.7716 11.3897 14.7585 11.3602 14.6792 11.1888C14.571 10.956 14.4244 10.685 14.3152 10.4318C14.2916 10.3769 14.3614 10.431 14.3274 10.3427C14.2936 10.2545 14.1826 10.0295 14.1374 9.95853C14.0913 9.88521 14.0791 9.93232 14.066 9.92186C13.9584 9.83849 13.9018 9.54029 13.8839 9.50477C13.8675 9.46986 13.849 9.43228 13.8317 9.39884C13.806 9.35141 13.7828 9.31057 13.7386 9.25937C13.6961 9.21923 13.6076 9.09594 13.3959 9.15083C13.116 9.3151 13.1834 9.40522 13.1348 9.49272C13.0875 9.66052 13.0699 9.81211 13.0532 9.96082C13.0221 10.2581 13.0097 10.546 12.9804 10.8416C12.9576 11.0602 12.9315 11.3142 12.8789 11.4804C12.8726 11.4911 12.9042 11.4045 13.0053 11.3967C13.0812 11.3993 13.0642 11.411 13.0571 11.4005C13.0344 11.3835 12.9939 11.3412 12.9597 11.3002C12.8875 11.2138 12.8179 11.116 12.7511 11.0206C12.4506 10.5842 12.1988 10.1935 11.9228 9.7402C11.8936 9.6922 11.9683 9.72339 11.9327 9.66484C11.8494 9.52786 11.7647 9.39126 11.6764 9.25575C11.6459 9.21131 11.6183 9.16464 11.5437 9.10306C11.5061 9.07431 11.4416 9.02999 11.3399 9.02662C11.2362 9.0241 11.1594 9.0739 11.1231 9.10341C10.9982 9.22544 10.9702 9.26214 11.0074 9.23567C10.8049 9.34977 10.5037 9.14383 10.2539 8.86157C10.209 8.8116 10.2319 8.90546 10.1845 8.85599C9.8899 8.5511 9.47342 7.97524 9.50435 7.66002C9.3531 7.40334 9.17166 7.08498 9.00466 6.86823C8.89616 6.72784 8.94388 6.89834 8.85081 6.70291C8.82962 6.65921 8.89591 6.69279 8.86144 6.62888C8.81575 6.5447 8.76513 6.45999 8.7118 6.3769C8.64241 6.27532 8.57353 6.1655 8.41357 6.07782C8.23636 5.96478 7.96908 6.10095 7.8987 6.19797C7.85678 6.24208 7.84114 6.2304 7.82624 6.22827C7.82173 6.22746 7.8176 6.22755 7.8135 6.23044C7.66305 6.35755 7.7097 6.40142 7.64448 6.4261C7.62219 6.43351 7.5954 6.4382 7.56726 6.4404C7.24246 6.45682 6.98722 6.38773 6.68323 6.28631C6.60546 6.25936 6.71268 6.24685 6.63919 6.21907C6.25799 6.07372 5.88179 5.86672 5.53284 5.64967C5.45506 5.60113 5.50074 5.68259 5.46237 5.66097C5.29351 5.56329 5.30516 5.47582 5.14954 5.37427C5.11681 5.35246 5.11238 5.39329 5.1044 5.39179C4.97885 5.36782 4.95783 5.23902 4.93733 5.21915C4.67744 4.96295 4.44669 4.8655 4.20373 4.60323C4.17507 4.57183 4.27344 4.60941 4.19108 4.52291C3.64065 3.94631 3.10291 3.29295 2.55339 2.70409C2.46426 2.61066 2.50024 2.70164 2.49173 2.69807C2.3612 2.64571 2.3661 2.52709 2.33735 2.49279C2.31828 2.47022 2.29934 2.44932 2.28062 2.43003C2.08214 2.22583 1.86587 2.06821 1.80647 1.85963C1.32881 1.3563 1.04004 0.835035 0.598117 0.181246C0.515313 0.114528 0.473233 0.0543487 0.307647 0.00820881C0.225021 -0.0321568 0.0319831 0.0853183 0.0261281 0.167899C-0.00146184 0.247518 0.000313291 0.295278 -3.66748e-06 0.352749C0.00753448 0.548803 0.0523093 0.714226 0.0958643 0.877369C0.187382 1.2039 0.304022 1.51643 0.432198 1.82431C0.438779 1.84032 0.4685 1.79775 0.481307 1.82928C0.637753 2.20942 0.55119 2.15631 0.568004 2.43922C0.572553 2.51095 0.734301 2.67338 0.747307 2.68814C0.794878 2.74229 0.829318 2.65534 0.841804 2.67473C0.943078 2.83536 0.739265 2.87863 0.826497 3.11341C0.829539 3.12059 0.853673 3.07669 0.864502 3.09496C0.898231 3.15161 0.907212 3.21881 0.941595 3.27355C1.02115 3.40025 1.13263 3.41216 1.15667 3.6435C1.15939 3.67261 1.03465 3.67209 1.11768 3.88023C1.15125 3.96318 1.28403 4.33348 1.32504 4.433C1.36758 4.53464 1.37901 4.4512 1.38314 4.45821C1.5023 4.68219 1.5072 4.63689 1.57608 4.68954C1.58765 4.69936 1.60095 4.71221 1.61688 4.73003C1.72788 4.85219 1.54889 4.86151 1.54798 4.92671C1.54679 4.99193 1.65468 5.18812 1.68601 5.23402C1.71694 5.28014 1.71785 5.20906 1.741 5.25155C1.89487 5.5323 1.70477 5.41151 1.71318 5.51911C1.73367 5.77317 1.92113 5.90802 2.0064 6.11588C2.02937 6.17206 1.98533 6.13494 2.00015 6.18681C2.05834 6.39187 2.13769 6.5018 2.16864 6.74437C2.17419 6.78477 2.14899 6.99 2.23089 7.0985C2.24271 7.11409 2.26382 7.05765 2.28973 7.14415C2.29738 7.17008 2.30562 7.20069 2.31361 7.23361C2.3467 7.36289 2.35962 7.53968 2.34317 7.65218C2.32743 7.75533 2.28514 7.63333 2.2882 7.76213C2.28767 7.81986 2.33403 7.71787 2.329 7.82783C2.329 7.93938 2.23608 8.20763 2.17521 8.29547C2.11952 8.38561 2.11529 8.31357 2.10862 8.31977C2.09345 8.3325 2.06622 8.3617 2.03568 8.39091C1.99254 8.43124 1.92598 8.47442 1.91772 8.48135C1.80126 8.57852 1.64276 8.66376 1.5376 8.84923C1.1325 9.70717 1.84178 10.3909 2.32819 10.9117C2.37829 10.9628 2.31441 10.9602 2.32175 10.9683C2.4893 11.1538 2.42632 10.9361 2.57694 11.0274C2.5265 11.0564 2.54572 11.092 2.59014 11.1444C2.61612 11.1759 2.653 11.2126 2.67419 11.2545C2.69623 11.309 2.64902 11.2906 2.64894 11.2974C2.61679 11.3341 2.64488 11.3956 2.6435 11.4262C2.64479 11.5142 2.53879 11.5358 2.52265 11.5943C2.52119 11.5991 2.52056 11.6033 2.52064 11.6069C2.5213 11.6204 2.53204 11.6264 2.54244 11.6315C2.5533 11.6367 2.56379 11.6409 2.56132 11.6529C2.55943 11.6641 2.54459 11.6835 2.50469 11.7158C2.44949 11.7205 2.49207 11.5822 2.38853 11.6484C2.00987 11.8852 1.30767 12.3812 1.04273 12.7252C1.0334 12.7369 1.02477 12.748 1.01676 12.7587C0.771962 13.0991 0.827078 13.3245 0.937077 13.5276C0.999967 13.632 1.04702 13.6866 1.07388 13.7279C1.14818 13.8326 1.09971 13.8386 1.22266 13.9868C1.40072 14.1847 1.40172 13.9843 1.4499 13.9851C1.49738 13.9834 1.50602 14.0325 1.55166 14.0459C1.59653 14.0585 1.53598 13.9847 1.62009 14.0409C1.70245 14.098 1.90368 14.2997 1.91803 14.3467C1.9463 14.4474 1.79744 14.4435 2.04676 14.5656C2.0611 14.5724 2.0373 14.5126 2.09112 14.5405C2.51659 14.7633 2.95586 14.9886 3.33156 15.275C3.38282 15.315 3.36773 15.244 3.39818 15.2675C3.56825 15.4031 3.59058 15.4656 3.59415 15.5142C3.59392 15.5563 3.57619 15.5923 3.53157 15.6413C3.64224 15.6009 3.71683 15.778 3.50324 16.0225C3.38094 16.1628 3.36627 16.1051 3.26111 16.1659C3.22944 16.1841 3.16061 16.2962 3.12792 16.2964C3.02252 16.2963 3.05532 16.1555 2.85133 16.39C2.84239 16.4004 2.90118 16.3999 2.86827 16.4337C2.67611 16.6316 2.59306 16.6244 2.39669 16.7875C2.37248 16.8081 2.34797 16.8313 2.32374 16.8577C2.22393 16.9618 2.09816 17.1825 2.13528 17.4212C2.16957 17.6569 2.31344 17.8243 2.4176 17.9397C2.50361 17.8603 2.67435 18.0723 2.71836 18.2077C2.87443 18.3277 3.04843 18.4473 3.21474 18.5335C3.27195 18.563 3.2536 18.5112 3.26251 18.5121C3.39859 18.5236 3.43084 18.6341 3.46606 18.6572C3.79426 18.8686 4.11016 18.9677 4.41246 19.1498C4.45822 19.1778 4.50727 19.21 4.55374 19.2438C4.56583 19.2527 4.54735 19.3378 4.67642 19.3374C4.68512 19.3374 4.58099 19.2375 4.75634 19.329C4.93302 19.4211 5.28418 19.5678 5.50451 19.741C5.55822 19.783 5.6706 19.9275 5.8151 19.9504C5.83443 19.9533 5.82951 19.9224 5.85894 19.9241C5.95409 19.9303 5.95062 20.0271 6.07336 20.0154C6.19634 20.004 6.40249 20.0629 6.61846 20.2489C6.6254 20.2547 6.6482 20.3466 6.72462 20.3906C6.84661 20.4608 7.02598 20.5505 7.15239 20.6253C7.21278 20.6611 7.15281 20.6745 7.16293 20.6813C7.55999 20.9414 7.8691 21.0792 8.32101 21.3108C8.40446 21.3535 8.61216 21.5314 8.79365 21.5732C8.99277 21.6173 8.9045 21.3496 9.28339 21.5823C9.33696 21.6141 9.38579 21.6751 9.43946 21.7383C9.54804 21.8595 9.67708 21.998 9.90862 21.9995C10.4525 22.2612 10.9878 22.4377 11.5153 22.7264C11.5466 22.7436 11.5776 22.7609 11.6087 22.7787C11.6339 22.793 11.6848 22.8979 11.7463 22.926C11.8378 22.9676 11.9021 22.9603 11.9682 22.9889C12.2444 23.1073 12.4823 23.2492 12.7506 23.3598C12.8528 23.4017 12.8309 23.3544 12.9527 23.4029C13.0742 23.4507 13.1387 23.527 13.3134 23.5679C13.446 23.5983 13.6023 23.5526 13.772 23.5911C13.762 23.6367 13.7861 23.6678 13.838 23.6969C13.8897 23.7205 13.9727 23.74 14.0792 23.766C14.1202 23.7759 14.0716 23.8026 14.0908 23.809C14.1694 23.8356 14.2468 23.8163 14.3219 23.8409C14.3402 23.8468 14.3385 23.8787 14.3535 23.8853C14.4814 23.9434 14.7013 23.8791 14.7376 23.8667C14.8792 23.8219 14.9445 23.8628 15.0524 23.8422C15.1594 23.821 14.9985 23.8016 15.1233 23.787C15.3814 23.7569 15.7124 23.7352 15.9726 23.6982C16.0763 23.6836 16.0114 23.7355 16.0264 23.7344C16.2448 23.7152 16.4501 23.6295 16.5871 23.6857C16.6453 23.5412 16.6794 23.5626 16.7578 23.5812C16.813 23.5886 16.8935 23.5907 17.0048 23.5207C17.026 23.5071 17.0103 23.4006 16.92 23.4243C16.8646 23.4386 16.7996 23.4755 16.7277 23.5054L16.7374 23.5023C16.6904 23.5161 16.64 23.5275 16.5893 23.5296C16.5582 23.5317 16.3694 23.4714 16.3454 23.4693C16.1578 23.4572 16.156 23.6125 16.1474 23.6229C16.0498 23.7321 15.8219 23.6551 15.7659 23.6532C15.5071 23.6477 15.2911 23.6823 15.076 23.664C14.9355 23.6514 14.9218 23.5495 14.8139 23.5519C14.4581 23.5546 14.3137 23.6865 13.9953 23.5189C13.9439 23.4905 13.9836 23.4258 13.8845 23.4176L13.9127 23.424C13.8836 23.4187 13.8417 23.417 13.7798 23.4192C13.7636 23.4207 13.5551 23.4385 13.4658 23.352C13.4548 23.3412 13.4662 23.311 13.4498 23.3021C13.3397 23.2433 13.2529 23.2374 13.1312 23.175C13.0095 23.1124 12.8655 23.0311 12.7176 22.9775C12.6285 22.9453 12.4921 22.9497 12.4447 22.9442C12.3095 22.9292 12.2131 22.8073 12.1188 22.82C12.0234 22.8323 12.1335 22.971 11.9268 22.9106C11.9555 22.8312 11.976 22.7455 12.0007 22.6637C11.8762 22.6058 11.7513 22.5496 11.6261 22.494C11.3254 22.3603 11.0226 22.2337 10.7197 22.0957C10.6664 22.0714 10.7395 22.0544 10.6828 22.0273C10.4432 21.9132 10.2176 21.8511 9.96911 21.7336C9.8276 21.6665 9.68347 21.5774 9.53623 21.4977C9.49146 21.4724 9.44001 21.4441 9.39324 21.4198C9.23907 21.4579 8.96378 21.2861 8.75543 21.1842C8.68231 21.1487 8.67456 21.1736 8.61864 21.153C8.41111 21.0754 8.54132 21.0493 8.4951 21.0088C8.29578 20.8331 8.18291 20.9904 7.91699 20.833C7.903 20.8249 7.78093 20.6361 7.76062 20.6168C7.62994 20.4928 7.71733 20.633 7.61918 20.5847C7.43908 20.4957 7.30731 20.4467 7.11989 20.3013C7.06548 20.2588 6.95635 20.12 6.81656 20.0947C6.79818 20.0914 6.78924 20.1255 6.77609 20.12C6.53945 20.0183 6.58772 19.9231 6.48048 19.8177C6.37277 19.712 6.14088 19.6607 6.09029 19.6556C5.95839 19.6417 6.15822 19.7227 6.16075 19.7305C6.19413 19.8245 6.05783 19.7313 5.94644 19.6723C5.87846 19.7535 5.72876 19.6587 5.83095 19.6107C5.84225 19.6056 5.92263 19.6639 5.94644 19.6723C5.90283 19.528 5.74163 19.4184 5.50775 19.3944C5.39859 19.3837 5.45493 19.4754 5.19958 19.3086C5.08233 19.2328 5.16649 19.1975 5.06717 19.1198C4.93164 19.0136 4.74805 18.9298 4.56488 18.8508C4.44567 18.7996 4.32957 18.7524 4.23141 18.6995C4.1408 18.6507 4.24803 18.6596 4.18682 18.625C4.0241 18.5329 3.86479 18.4857 3.7101 18.3851C3.69622 18.376 3.75131 18.359 3.7017 18.3315C3.33218 18.1212 2.9839 17.9457 2.7254 17.662C2.66607 17.5956 2.60378 17.4909 2.59336 17.4177C2.5819 17.3452 2.60067 17.3014 2.63241 17.2424C2.65178 17.2077 2.68019 17.167 2.72059 17.1222C2.95353 16.8707 3.21459 16.5892 3.43123 16.3905C3.60403 16.229 3.59761 16.2919 3.69099 16.2303C3.77995 16.1667 3.87622 16.0443 3.93426 15.8566C4.01907 15.6716 3.88326 15.35 3.83397 15.3395C3.83285 15.3356 3.90633 15.4443 3.91287 15.5402C3.91937 15.6304 3.90966 15.679 3.8921 15.5591C3.82613 15.4268 3.83538 15.3486 3.83397 15.3395C3.83189 15.3374 3.82894 15.3342 3.82512 15.33C3.7826 15.2749 3.48385 15.0011 3.42267 14.9533C3.38951 14.9218 3.43351 14.9067 3.41545 14.8908C2.98452 14.5208 2.51583 14.2807 2.08627 14.0247C2.07845 14.0206 2.06599 14.0645 2.04784 14.0544C1.79426 13.9125 1.67952 13.7585 1.54915 13.589C1.50609 13.532 1.46779 13.481 1.43224 13.4368C1.36001 13.3468 1.3168 13.3073 1.2556 13.2776C1.23518 13.2036 1.24057 13.0831 1.31189 12.966C1.31394 12.9624 1.31608 12.9589 1.31829 12.9555C1.38351 12.8612 1.45871 12.9045 1.46617 12.8984C1.77609 12.6865 1.95641 12.5145 2.31545 12.2519C2.42457 12.171 2.60382 12.0563 2.78533 11.9063C2.89229 11.8135 3.00535 11.7119 3.0816 11.54C3.15181 11.4005 3.12825 11.1691 3.05765 11.0616C2.99253 10.9481 2.93174 10.8985 2.89217 10.8543C2.86509 10.8257 2.83921 10.7991 2.81506 10.7722C2.79939 10.7549 2.8426 10.7438 2.83845 10.7378C2.73265 10.5746 2.7361 10.7056 2.69629 10.6905C2.55799 10.6404 2.47218 10.6053 2.3404 10.4203C2.30929 10.3772 2.31383 10.1787 2.26851 10.1057C2.20852 10.0093 2.19411 10.0717 2.13776 9.96824C2.13333 9.95942 2.15795 9.94492 2.1205 9.88657C1.94298 9.61038 1.86548 9.33065 1.98084 9.12112C1.99455 9.09496 2.01276 9.13694 2.03256 9.12085C2.03346 9.12223 2.03375 9.12352 2.0336 9.12404C2.02473 9.10793 2.21167 9.024 2.47033 8.73423C2.6235 8.53485 2.7123 8.31687 2.75949 8.10972C2.7832 7.99697 2.73308 8.05906 2.72975 8.0328C2.7095 7.87748 2.80936 7.68357 2.81108 7.64608C2.82681 7.47024 2.81526 7.30226 2.78596 7.14481C2.68503 6.622 2.4977 6.21205 2.34436 5.69099C2.33382 5.65446 2.32313 5.3541 2.20754 5.26224C2.19979 5.25597 2.08228 5.16476 2.09951 5.04411C2.10071 5.03677 2.16398 5.0954 2.11781 4.97109C2.08051 4.86993 2.04872 4.71349 1.99459 4.57821C1.98047 4.54089 1.96191 4.4989 1.94219 4.46388C1.91068 4.40917 1.78623 4.28704 1.78678 4.09848C1.78699 4.08468 1.82887 3.77569 1.6996 3.71424C1.6785 3.70459 1.58662 3.75962 1.56204 3.53824C1.55783 3.49688 1.6055 3.55745 1.58206 3.45244C1.54506 3.2883 1.44327 3.09714 1.41662 2.89091C1.41238 2.85569 1.42707 2.68987 1.33499 2.59727C1.32053 2.58265 1.2998 2.62824 1.27425 2.57034C1.15271 2.2951 1.06817 1.99252 0.946963 1.71518C0.904678 1.6182 0.867829 1.68668 0.817662 1.58595C0.768088 1.48746 0.683802 1.27586 0.675474 1.15848C0.667759 1.04312 0.789403 1.13398 0.748253 0.968802C0.701315 0.775464 0.651778 0.576211 0.629734 0.421703C0.624493 0.385227 0.621956 0.35056 0.621806 0.338769C0.599193 0.330373 0.701821 0.340395 0.46572 0.559793C0.331371 0.648873 0.192837 0.620272 0.166264 0.610583C0.122502 0.596374 0.124177 0.592032 0.123931 0.592054C0.132126 0.595508 0.154238 0.609796 0.186955 0.637315C0.130493 0.569504 0.223764 0.688068 0.25738 0.745722C0.302816 0.816305 0.35086 0.892391 0.399656 0.967868C0.497526 1.1196 0.599595 1.27149 0.70546 1.42233C0.774065 1.51902 0.691112 1.45816 0.792896 1.60203C1.04753 1.96439 1.46308 2.47661 1.87025 2.8513C2.01959 2.9906 2.18219 3.16779 2.3076 3.28103C2.625 3.57364 2.31011 3.13212 2.53914 3.3708C2.64772 3.48419 2.67829 3.68523 2.70125 3.71764C2.91886 4.02901 3.1269 4.19962 3.3468 4.46497C3.3923 4.51965 3.31371 4.49663 3.35304 4.543C3.48768 4.7021 3.65135 4.84787 3.7895 4.99306C3.85116 5.05783 3.8164 5.06917 3.87696 5.12595C4.02177 5.26157 4.15904 5.37304 4.32377 5.48049C4.3387 5.49017 4.27759 5.3805 4.38771 5.47752C4.56648 5.63454 4.81205 5.80051 5.01558 5.98984C5.07623 6.04587 5.03445 6.10952 5.21079 6.16932C5.24826 6.18135 5.25733 6.08171 5.38769 6.2597C5.40744 6.29005 5.6575 6.56617 5.84815 6.58552C5.89809 6.59161 6.03427 6.578 6.12189 6.63003C6.13383 6.63739 6.06638 6.65115 6.14242 6.68944C6.41107 6.82276 6.7165 6.92108 7.02686 6.99288C7.11026 7.01172 6.97682 7.02997 7.1028 7.05595C7.23702 7.08251 7.38698 7.10026 7.54151 7.10502C7.6835 7.10994 7.89572 7.09256 8.0891 6.96225C8.27929 6.82993 8.34518 6.6895 8.37881 6.6467C8.38404 6.63854 8.38784 6.63276 8.38993 6.62923C8.39018 6.62149 8.36502 6.59856 8.36273 6.59545C8.34775 6.55989 8.18526 6.66821 8.15535 6.64626C8.0634 6.61069 8.14892 6.66185 8.18538 6.72269C8.25032 6.81295 8.31717 6.9059 8.37569 7.01482C8.40712 7.07321 8.34947 7.05269 8.35319 7.06581C8.39241 7.2001 8.40188 7.07706 8.45217 7.14818C8.59335 7.34844 8.72336 7.59236 8.84226 7.81758C8.88593 7.90037 8.79524 7.83031 8.83496 7.90442C9.07135 8.34328 9.33089 8.80622 9.68218 9.21674C9.74978 9.29383 9.73679 9.22142 9.75627 9.23297C9.88793 9.31046 9.98772 9.52138 10.028 9.56489C10.1979 9.75405 10.3044 9.80232 10.5701 9.90262C10.7759 9.97701 11.0607 9.97363 11.2797 9.87737C11.5565 9.73757 11.6114 9.58061 11.5636 9.64971C11.5428 9.66662 11.4656 9.72742 11.3343 9.72907C11.2049 9.72796 11.1356 9.67504 11.1106 9.65697C11.0611 9.61494 11.0797 9.62539 11.0868 9.63986C11.4204 10.1579 11.7619 10.7267 12.0785 11.1951C12.1797 11.3443 12.2817 11.4899 12.3996 11.6346C12.4602 11.7074 12.5207 11.7806 12.6199 11.8667C12.6812 11.9108 12.7126 11.965 12.9094 12.0189C13.0075 12.0479 13.2149 12.0198 13.3244 11.9136C13.4324 11.8142 13.4535 11.7406 13.4765 11.6786C13.6424 10.8934 13.5865 10.3474 13.7174 9.74154C13.7292 9.69339 13.7628 9.75259 13.7738 9.71215C13.7817 9.68411 13.7906 9.65846 13.7951 9.649C13.7905 9.64171 13.8289 9.64291 13.7024 9.74669C13.6399 9.80407 13.4395 9.83032 13.3622 9.78962C13.2696 9.75247 13.259 9.7292 13.2433 9.71644C13.2254 9.69684 13.2377 9.70921 13.2486 9.72986C13.4864 10.1673 13.7231 10.6711 13.9432 11.1669C13.9669 11.2206 13.8913 11.1622 13.9282 11.2493C14.003 11.4272 14.1075 11.6488 14.2018 11.8206C14.2479 11.905 14.2286 11.7722 14.2744 11.8576C14.3805 12.055 14.4831 12.2718 14.5724 12.4839C14.6104 12.5742 14.508 12.4589 14.5603 12.5745C14.7893 13.0815 15.0151 13.5841 15.2608 14.0826C15.3998 14.364 15.5402 14.6294 15.6722 14.8978C15.6972 14.9488 15.8017 14.9618 15.8287 15.0827C15.8082 15.1003 15.78 15.1103 15.7559 15.1236C16.1257 16.1421 16.2941 17.2371 16.3719 18.363C16.3794 18.4761 16.3865 18.587 16.3932 18.6995C16.3964 18.7527 16.3428 18.6634 16.3486 18.7664C16.382 19.3594 16.3949 19.9365 16.4626 20.5418C16.4691 20.6009 16.5537 20.5689 16.546 20.7467C16.5447 20.7771 16.5403 21.046 16.5231 21.1152C16.5205 21.1247 16.4796 21.0766 16.4804 21.1632C16.485 21.6615 16.4986 22.1874 16.5152 22.6835C16.5179 22.7634 16.5617 22.6792 16.564 22.736C16.5793 23.1424 16.5308 23.5806 16.5334 23.9589C16.5332 24.2108 16.6156 24.1269 16.6691 24.271C16.6773 24.2911 16.6523 24.4445 16.6906 24.4614C16.7896 24.5053 16.9194 24.4467 17.0232 24.5022C17.0486 24.5132 16.9622 24.7489 17.0555 24.62C17.0644 24.6063 17.1174 24.4418 17.1428 24.4005C17.1609 24.3742 17.1951 24.4325 17.2216 24.3767C17.2481 24.3186 17.2215 24.2493 17.253 24.1549C17.284 24.0609 17.3291 24.1082 17.3518 23.916ZM1.73452 12.4755C1.82464 12.3585 1.92888 12.4678 1.78542 12.5286C1.77843 12.5314 1.7299 12.4815 1.73452 12.4755ZM11.103 22.3978C10.9035 22.3783 10.8252 22.2367 10.9683 22.2458C11.1116 22.2552 11.164 22.4041 11.103 22.3978ZM12.8572 23.2626C12.6346 23.2235 12.6891 23.0157 12.8858 23.1474C12.8973 23.1549 12.8701 23.2648 12.8572 23.2626ZM16.7511 23.6402C16.753 23.6432 16.7471 23.7572 16.7448 23.76C16.6933 23.8175 16.7052 23.5886 16.7511 23.6402ZM14.6898 23.7564C14.6203 23.7839 14.4251 23.7398 14.5119 23.7089C14.5809 23.6847 14.7753 23.7231 14.6898 23.7564ZM2.07739 6.09781C2.07457 6.09637 2.04519 6.01783 2.0576 6.01528C2.09785 6.00724 2.12524 6.12153 2.07739 6.09781ZM17.8171 23.0041C17.3991 23.2505 17.2143 23.5425 17.6767 23.2705C17.7597 23.2207 17.4672 23.322 17.5674 23.2489C17.7501 23.1157 17.9337 23.1369 18.1031 22.972C18.1336 22.9421 17.8408 22.9899 17.8162 23.0044C17.8165 23.0043 17.8168 23.0042 17.8171 23.0041ZM1.69438 12.2821C1.69546 12.2787 1.7885 12.2094 1.79197 12.2094C1.87033 12.2115 1.68365 12.3506 1.69438 12.2821ZM0.372055 1.51488C0.365836 1.51116 0.280054 1.25241 0.282375 1.2444C0.314634 1.08824 0.485097 1.60328 0.372055 1.51488ZM2.42335 17.9414C2.47683 18.0757 2.59891 18.19 2.71786 18.2074C2.61403 18.1286 2.51498 18.0408 2.42335 17.9414Z" fill="#3C8634"/>
</svg>
