<svg width="6" height="14" viewBox="0 0 6 14" fill="none" xmlns="http://www.w3.org/2000/svg">
<path d="M1.56734 1.23759C1.49074 1.3769 1.42 1.57616 1.37726 1.72925C1.36367 1.77749 1.39776 1.76447 1.38949 1.79835C1.37319 1.86496 1.33836 1.91616 1.32463 1.98344C1.32034 2.00548 1.3695 1.9956 1.36413 2.0183C1.33489 2.14161 1.28187 2.24855 1.245 2.37169C1.06529 2.97422 0.891512 3.5679 0.754466 4.18779C0.708738 4.39346 0.689326 4.64878 0.629806 4.85699C0.622806 4.88126 0.589721 4.85916 0.585784 4.86325C0.525442 4.9267 0.603015 4.91858 0.603236 4.96803C0.603457 5.07779 0.592959 5.19178 0.575986 5.30112C0.562822 5.3864 0.542717 5.46868 0.51871 5.54387C0.495327 5.61597 0.441692 5.52578 0.463947 5.60811C0.465388 5.61383 0.507928 5.60486 0.507044 5.62576C0.504886 5.67408 0.475178 5.75771 0.468016 5.79376C0.454713 5.86271 0.450882 5.87403 0.431692 5.93792C0.405685 6.0252 0.389349 6.135 0.347879 6.2259C0.33897 6.24513 0.310505 6.20527 0.292718 6.23511C0.275122 6.26455 0.2477 6.35086 0.246132 6.38308C0.244663 6.4151 0.278701 6.41363 0.283664 6.42118C0.325919 6.4836 0.210415 6.55666 0.203997 6.5693C0.0955264 6.78391 0.0635669 7.01716 0.0706753 7.27536C0.0710905 7.28247 0.0709902 7.29092 0.0702809 7.3004C0.0587018 7.42259 -0.0214172 7.65744 0.00548586 7.86462C0.00672033 7.87636 0.00814447 7.88778 0.00980762 7.89939C0.0408169 8.10651 0.107152 8.27526 0.178043 8.46307C0.186126 8.48396 0.132451 8.47723 0.142484 8.50311C0.249971 8.77796 0.412212 9.02184 0.610364 9.22137C0.630277 9.24129 0.640394 9.18742 0.662109 9.20557C0.794389 9.31948 1.0294 9.45137 0.971717 9.64816C1.05666 9.72452 1.16065 9.81419 1.2587 9.85588C1.32173 9.88258 1.30667 9.80709 1.35127 9.87457C1.36152 9.88985 1.31764 9.90315 1.33504 9.92385C1.40734 10.01 1.5076 10.0829 1.57442 10.1711C1.58809 10.1892 1.55975 10.2113 1.56012 10.2202C1.56376 10.2932 1.68595 10.2897 1.70349 10.2976C1.83978 10.3618 1.90264 10.4477 1.98476 10.5405C2.00341 10.562 1.94575 10.5675 1.96166 10.5886C2.01132 10.6539 2.05394 10.7206 2.07067 10.7589C2.09157 10.8136 2.11274 10.8679 2.13476 10.9214C2.14726 10.9517 2.17938 10.913 2.18737 10.9271C2.22188 10.9904 2.15039 11.0219 2.17952 11.0828C2.18552 11.0958 2.21805 11.0815 2.22228 11.0833C2.28871 11.1118 2.21133 11.1619 2.21114 11.172C2.20703 11.3035 2.30472 11.3759 2.30414 11.5061C2.3039 11.5216 2.25722 11.491 2.25914 11.534C2.27167 11.8198 2.28382 12.128 2.32792 12.4241C2.33483 12.4699 2.36669 12.436 2.37084 12.4387C2.43587 12.4836 2.35221 12.5172 2.34969 12.5326C2.33193 12.6542 2.41167 12.7587 2.321 12.8533C2.33369 12.9214 2.34713 12.9898 2.36334 13.0587C2.38438 13.1337 2.37063 13.2475 2.3871 13.3918C2.3939 13.4402 2.39952 13.4823 2.42131 13.5453C2.42866 13.5628 2.43146 13.5783 2.45985 13.6173C2.47551 13.631 2.50126 13.69 2.61912 13.689C2.73103 13.6695 2.74205 13.6187 2.75722 13.6033C2.79611 13.5328 2.79044 13.518 2.79834 13.4888C2.8425 13.2576 2.87619 13.0252 2.8746 12.7879C2.87468 12.7815 2.83144 12.7853 2.83176 12.7726C2.83472 12.6202 2.89377 12.6599 2.9892 12.5753C3.0132 12.5538 2.9313 12.4624 2.92546 12.4547C2.90396 12.4263 2.83828 12.4407 2.83469 12.4319C2.80725 12.3579 3.00853 12.4036 3.02401 12.3133C3.02416 12.3104 2.98472 12.316 2.98231 12.3077C2.97471 12.2819 2.99348 12.2616 2.98462 12.2361C2.96391 12.1784 2.86843 12.1424 2.94006 12.0719C2.94932 12.0632 3.06163 12.0988 3.07055 12.0181C3.0739 11.9857 3.10215 11.8458 3.10266 11.8052C3.10298 11.7646 3.06071 11.7841 3.05966 11.7811C3.03211 11.6653 3.00384 11.7014 2.94277 11.6328C2.88226 11.564 3.05056 11.6153 3.07429 11.5981C3.09792 11.5808 3.07513 11.4946 3.06571 11.4723C3.05617 11.4501 3.02737 11.4684 3.02341 11.4496C2.99853 11.3248 3.11967 11.4205 3.15552 11.3902C3.18127 11.3687 3.18909 11.3453 3.188 11.3199C3.18513 11.2626 3.13451 11.1966 3.14135 11.1392C3.14402 11.117 3.16762 11.1424 3.17562 11.1243C3.20706 11.0529 3.18173 10.996 3.24396 10.923C3.25415 10.9108 3.35021 10.868 3.31077 10.8063C3.30506 10.7974 3.26835 10.8046 3.27224 10.7709C3.27795 10.7204 3.30149 10.6336 3.33041 10.5874C3.35173 10.5533 3.38584 10.6142 3.38773 10.5622C3.38861 10.5391 3.34491 10.5661 3.34909 10.5234C3.35308 10.4808 3.39323 10.383 3.40956 10.3463C3.42577 10.3096 3.4549 10.3453 3.45865 10.3434C3.48045 10.3312 3.52797 10.2683 3.53062 10.2621C3.66798 9.95187 3.74601 9.63821 3.92257 9.35306C3.93636 9.33074 3.96588 9.36618 3.96837 9.36298C4.02624 9.29251 3.89283 9.30132 3.88913 9.22785C3.96113 9.27691 3.96482 9.23675 4.00341 9.18581C4.02207 9.16131 4.04356 9.19196 4.04791 9.19117C4.11424 9.17604 4.07175 9.11691 4.06391 9.10326C4.03508 9.05305 4.10203 9.05307 4.08309 9.01911C4.06439 8.98523 3.99886 9.00261 4.02923 8.94963C4.06462 8.94993 4.11324 9.02889 4.14724 8.99514C4.27496 8.86814 4.3832 8.55636 4.44942 8.43231C4.51509 8.30866 4.5431 8.27315 4.57552 8.19711C4.63365 8.06063 4.65776 8.13741 4.72835 8.07323C4.79899 8.009 4.64936 7.97083 4.62885 7.94321C4.60829 7.9157 4.64365 7.92036 4.63697 7.89754C4.63026 7.87477 4.59382 7.89347 4.60763 7.85769C4.62136 7.8221 4.7231 7.76231 4.75847 7.76792C4.83347 7.77973 4.87297 7.85785 4.90207 7.7584C4.90371 7.75264 4.86068 7.74884 4.86865 7.7278C4.93261 7.56201 5.02357 7.40408 5.08722 7.23881C5.09598 7.21593 5.04767 7.21334 5.05232 7.19982C5.09973 7.05971 5.13763 7.14084 5.24764 7.10983C5.17537 7.08434 5.13614 7.04178 5.13659 6.98601C5.13652 6.96259 5.14282 6.93735 5.15557 6.90903C5.18038 6.85167 5.21913 6.87973 5.26552 6.85059C5.27971 6.84145 5.26343 6.78668 5.28681 6.78491C5.36366 6.77718 5.43207 6.84527 5.42967 6.71484C5.4293 6.70925 5.38697 6.71762 5.38847 6.69904C5.39495 6.58046 5.47205 6.57627 5.48929 6.44393C5.50269 6.33929 5.44678 6.16168 5.42346 6.05285C5.30373 6.07005 5.31701 5.96719 5.39123 5.91029C5.37515 5.83979 5.36361 5.76318 5.33632 5.69856C5.32697 5.6764 5.29646 5.69978 5.29208 5.69774C5.22369 5.66794 5.29489 5.6186 5.2941 5.60282C5.28185 5.43372 5.18309 5.32305 5.19252 5.15534C5.19288 5.1494 5.27028 5.11481 5.19875 5.0938C5.19388 5.09256 5.17352 5.15371 5.14779 5.08443C5.1221 5.01523 5.0353 4.89795 5.04069 4.78914C5.04191 4.76274 5.08769 4.68265 5.02191 4.65199C5.01298 4.64784 4.99216 4.66211 4.97643 4.65698C4.92612 4.63998 5.00249 4.59898 4.92262 4.58531C4.89096 4.57981 4.8602 4.56739 4.83589 4.5474C4.7987 4.5164 4.7766 4.47095 4.78573 4.40295C4.78609 4.39946 4.84261 4.35543 4.83075 4.32455C4.8122 4.27627 4.77377 4.21274 4.75417 4.16197C4.74493 4.13794 4.78994 4.13782 4.78901 4.13337C4.74548 3.9618 4.6586 3.86228 4.55906 3.7048C4.54099 3.67629 4.54456 3.56182 4.47278 3.52591C4.39438 3.48688 4.25138 3.65233 4.21259 3.48343C4.19619 3.41364 4.38296 3.21596 4.20883 3.17018C4.16181 3.02787 4.0909 2.90051 4.06926 2.75075C4.05712 2.66777 4.04942 2.58375 4.05676 2.49529C4.05764 2.48468 4.12595 2.44266 4.12191 2.41811C4.11574 2.3815 4.07942 2.36586 4.07381 2.33998C4.04947 2.23209 4.06414 2.12814 4.04329 2.02337C4.03545 1.9839 4.00285 2.00301 3.99332 1.95607C3.98368 1.90885 4.0242 1.86969 3.99094 1.8091C3.96567 1.76363 3.86371 1.73196 3.84094 1.67076C3.93229 1.65098 3.92226 1.60733 3.93092 1.52444C3.93259 1.5084 3.96773 1.51823 3.97017 1.5103C3.98077 1.4778 3.94893 1.45658 3.96108 1.4252C3.96399 1.41767 3.99518 1.41087 3.99932 1.4043C4.03565 1.34778 3.94876 1.28565 3.93372 1.27557C3.87626 1.23518 3.91161 1.20322 3.88455 1.1684C3.85763 1.13442 3.84786 1.19663 3.82662 1.15462C3.78975 1.08144 3.76736 0.985758 3.74632 0.901652C3.74205 0.885483 3.7379 0.869277 3.73386 0.853675C3.72433 0.815614 3.77204 0.831854 3.77163 0.826166C3.76371 0.746966 3.705 0.673072 3.78323 0.61786C3.5589 0.591169 3.79633 0.56785 3.74584 0.461732C3.7419 0.453371 3.63751 0.44549 3.62422 0.482614C3.61104 0.520149 3.64793 0.571944 3.63104 0.624673C3.62664 0.636482 3.54136 0.720873 3.53767 0.732198C3.50631 0.816866 3.66122 0.794856 3.6701 0.796638C3.74458 0.813665 3.71541 0.874602 3.69695 0.915157C3.69032 0.926643 3.68494 0.936865 3.68444 0.942259C3.67486 1.04233 3.71447 1.11528 3.70908 1.19806C3.70568 1.25214 3.60755 1.27892 3.61934 1.31772C3.65791 1.4459 3.80644 1.46422 3.71046 1.61217C3.68992 1.64401 3.57599 1.63837 3.67969 1.71688C3.68621 1.72157 3.77787 1.77796 3.73535 1.82799C3.72998 1.83422 3.69809 1.83968 3.6966 1.84686C3.68721 1.89517 3.71777 1.92101 3.71372 1.97228C3.70966 2.02366 3.70083 2.08576 3.72009 2.14043C3.73167 2.17338 3.79764 2.20864 3.81455 2.22291C3.86326 2.26363 3.80084 2.32256 3.85567 2.34473C3.91079 2.36725 3.98127 2.2996 4.02439 2.37251C3.94138 2.38603 3.85662 2.40344 3.77332 2.41858C3.7906 2.53798 3.81867 2.65531 3.83822 2.77544C3.84752 2.83814 3.86089 2.89931 3.87586 2.95862C3.88256 2.98485 3.83143 2.97009 3.83797 2.9992C3.86731 3.12244 3.93867 3.20195 3.97666 3.30663C4.00637 3.38806 4.00798 3.48924 4.03773 3.56683C4.14629 3.56376 4.17615 3.6826 4.22358 3.75175C4.24023 3.77612 4.26177 3.76197 4.27905 3.77649C4.34329 3.83145 4.25066 3.83836 4.24873 3.86343C4.23905 3.96946 4.41482 3.88994 4.45739 3.9909C4.46009 3.9968 4.3954 4.10207 4.3932 4.11323C4.37895 4.18432 4.42984 4.10769 4.45185 4.13938C4.49163 4.19717 4.53291 4.23343 4.53352 4.32014C4.53372 4.34585 4.49254 4.41944 4.55409 4.44701C4.56219 4.45069 4.59322 4.43666 4.59665 4.4406C4.65609 4.51396 4.55512 4.54958 4.53514 4.60712C4.53164 4.61727 4.53156 4.62726 4.53393 4.63696C4.54677 4.68836 4.61587 4.73123 4.6368 4.73943C4.70273 4.76627 4.64873 4.69926 4.65323 4.69536C4.70594 4.64909 4.71353 4.71123 4.73305 4.75448C4.83456 4.72917 4.84854 4.79295 4.75282 4.79908C4.74231 4.79962 4.74042 4.76193 4.73305 4.75448C4.64785 4.82467 4.65801 4.89849 4.77357 4.94293C4.82773 4.96376 4.86654 4.91455 4.88337 5.02613C4.89101 5.07669 4.81662 5.08076 4.81191 5.12901C4.80112 5.2389 4.90493 5.34169 4.92433 5.44267C4.93133 5.47919 4.88327 5.45608 4.88669 5.48132C4.89548 5.54807 4.93992 5.59609 4.94233 5.66383C4.94248 5.66993 4.89896 5.66655 4.90365 5.68629C4.93775 5.83562 4.99192 5.95816 5.01282 6.10925C5.02355 6.18263 5.00964 6.31083 5.01215 6.38032C5.01981 6.50049 5.05447 6.65617 5.00636 6.74623C4.97574 6.80325 4.94177 6.77396 4.90632 6.7859C4.87961 6.79427 4.87144 6.81492 4.86994 6.84015C4.86088 6.89251 4.87243 6.95454 4.8757 6.96768C4.87597 6.9683 4.91828 6.91208 4.91874 6.95487C4.94674 6.99525 4.87624 6.9671 4.8757 6.96768C4.87929 6.9816 4.81873 7.10776 4.79806 7.12766C4.78685 7.13854 4.75716 7.11182 4.75196 7.11786C4.62882 7.26212 4.52447 7.41847 4.44178 7.59229C4.44072 7.59558 4.48082 7.61365 4.47787 7.62113C4.43735 7.72663 4.35482 7.76023 4.28048 7.82248C4.20583 7.88523 4.17756 7.95308 4.21375 8.03869C4.17005 8.09335 4.14714 8.19664 4.13527 8.2562C4.12327 8.31596 4.04594 8.27978 4.0419 8.2833C3.9152 8.39239 3.91059 8.49677 3.83527 8.64365C3.7994 8.71377 3.7122 8.84366 3.66292 8.91418C3.6237 8.96992 3.62182 9.01506 3.581 9.06397C3.5755 9.07061 3.5462 9.04516 3.5437 9.04674C3.47071 9.08697 3.56821 9.10103 3.576 9.12149C3.60456 9.19574 3.61788 9.23869 3.55177 9.30449C3.53663 9.31954 3.39064 9.31189 3.36647 9.3423C3.33537 9.38176 3.38638 9.38668 3.35295 9.42745C3.35014 9.43097 3.32418 9.41693 3.31113 9.44604C3.25023 9.58103 3.19625 9.73424 3.13038 9.87406C3.12148 9.89324 3.0899 9.84936 3.07632 9.87686C3.01264 10.006 2.95274 10.1532 2.92185 10.2927C2.91439 10.327 2.95281 10.3186 2.95914 10.3291C2.99733 10.393 2.89461 10.4237 2.88926 10.4336C2.76105 10.6631 2.77295 10.8764 2.66929 11.1236C2.6667 11.1297 2.64181 11.1501 2.62103 11.1773C2.59554 11.2103 2.57649 11.2525 2.61236 11.289C2.61665 11.2935 2.68363 11.3589 2.62067 11.3879C2.61673 11.3897 2.58313 11.3509 2.5755 11.4034C2.56796 11.4555 2.52287 11.5329 2.55299 11.6126C2.56241 11.638 2.6304 11.7059 2.55501 11.7597C2.54977 11.7629 2.38839 11.8391 2.47995 11.8933C2.49505 11.9021 2.59982 11.9148 2.53264 11.9834C2.51966 11.9965 2.50129 11.9653 2.47988 12.002C2.44691 12.0584 2.46101 12.1428 2.4022 12.208C2.39181 12.2193 2.31192 12.2619 2.35816 12.314C2.36539 12.3223 2.40231 12.3152 2.40227 12.3389C2.4023 12.4512 2.35975 12.5598 2.3644 12.6735C2.36592 12.714 2.42551 12.7041 2.43337 12.7469C2.44114 12.7904 2.44081 12.8746 2.40752 12.9117C2.37413 12.9492 2.29335 12.8871 2.2746 12.9484C2.23272 13.0854 2.21173 13.226 2.19437 13.3676C2.20192 13.3619 2.17473 13.3954 2.2424 13.2729C2.27319 13.2472 2.29052 13.1291 2.56715 13.0806C2.85892 13.0804 2.9107 13.2208 2.94084 13.2432C2.99271 13.3171 2.98538 13.3241 2.99114 13.3365C2.99681 13.3657 2.98375 13.333 2.97953 13.3163C2.97246 13.297 2.96792 13.2551 2.9658 13.1926C2.96365 13.1443 2.99784 13.1885 2.99524 13.1064C2.99317 13.061 2.98969 13.003 2.9764 12.9324C2.94588 12.7642 2.94926 12.4715 2.88648 12.306C2.82763 12.1515 2.79006 12.3491 2.76488 12.2298C2.75291 12.1722 2.85704 12.1065 2.86003 12.092C2.8906 11.9521 2.84117 11.8545 2.84918 11.7245C2.85079 11.6975 2.89484 11.7217 2.89571 11.6986C2.89901 11.6198 2.87429 11.5375 2.87103 11.461C2.86962 11.4265 2.90272 11.4299 2.89713 11.3983C2.88396 11.3226 2.86225 11.2563 2.82136 11.186C2.81764 11.1798 2.7839 11.2307 2.77438 11.1751C2.75884 11.0844 2.7094 10.9782 2.71617 10.8673C2.71817 10.8343 2.79087 10.8156 2.72387 10.7604C2.70963 10.7488 2.62832 10.7898 2.68197 10.6923C2.68744 10.6821 2.71429 10.6167 2.7113 10.5561C2.70139 10.4929 2.67353 10.4358 2.63419 10.4156C2.60545 10.3981 2.51237 10.3837 2.49558 10.3394C2.49326 10.3328 2.54182 10.3324 2.52148 10.2963C2.45101 10.1746 2.36295 10.0877 2.29112 9.9971C2.27147 9.97256 2.33361 9.97599 2.30353 9.94066C2.2208 9.84373 2.10482 9.7521 2.01329 9.6866C1.97909 9.66217 1.9774 9.70702 1.97263 9.70775C1.89592 9.72032 1.93052 9.64094 1.92181 9.62661C1.86799 9.53928 1.78795 9.5188 1.7296 9.45106C1.7137 9.43267 1.75286 9.41556 1.7517 9.40974C1.73856 9.35105 1.71782 9.42772 1.68947 9.41193C1.60938 9.36733 1.54128 9.29794 1.48284 9.23271C1.46141 9.20867 1.51895 9.20197 1.49955 9.18092C1.38583 9.05605 1.26814 8.93411 1.15087 8.82766C1.12874 8.80764 1.11294 8.84386 1.10285 8.84401C1.03193 8.84476 1.05466 8.74818 1.05256 8.73289C1.04158 8.66169 1.00262 8.65965 0.9764 8.6099C0.847591 8.36893 0.710282 8.09128 0.665999 7.8612C0.663004 7.84687 0.660189 7.8326 0.657551 7.81839C0.627709 7.69674 0.662302 7.62255 0.677208 7.26817C0.670509 7.18775 0.682057 7.09407 0.716905 6.98026C0.722697 6.9613 0.762118 6.993 0.767696 6.97698C0.8388 6.76981 0.923443 6.5144 1.02212 6.25528C1.03023 6.23386 1.06185 6.27894 1.07621 6.24505C1.10625 6.1748 1.13254 6.08132 1.14031 6.00264C1.14418 5.96426 1.0939 6.00286 1.09847 5.96452C1.10875 5.87589 1.12941 5.78357 1.15695 5.69634C1.16865 5.65952 1.19951 5.72639 1.21126 5.67751C1.23154 5.59331 1.24966 5.51126 1.26554 5.42658C1.30845 5.19741 1.346 4.97261 1.35458 4.73424C1.35527 4.7129 1.27028 4.67313 1.29753 4.63311C1.32307 4.63551 1.35218 4.64242 1.37899 4.6471C1.49425 4.21336 1.58405 3.77724 1.7205 3.34461C1.7263 3.32629 1.76214 3.37276 1.7735 3.33773C1.83949 3.13505 1.9205 2.94452 1.95141 2.72265C1.95452 2.7008 1.87047 2.68154 1.90516 2.62592C1.91128 2.61616 1.95654 2.52908 1.9827 2.51293C1.98653 2.51079 2.01742 2.54147 2.02965 2.51299C2.10044 2.34629 2.1627 2.16772 2.21028 1.99174C2.21791 1.96327 2.16671 1.97549 2.17183 1.95502C2.20878 1.80924 2.30215 1.6758 2.32526 1.53022C2.34043 1.43328 2.2591 1.43523 2.21427 1.35921C2.20792 1.34849 2.23115 1.29381 2.19429 1.27342C2.10159 1.22204 1.98425 1.2003 1.88686 1.14245C1.8658 1.13008 1.92373 1.06685 1.85023 1.08622C1.84522 1.08767 1.80288 1.13326 1.7788 1.13818C1.7621 1.14167 1.73078 1.10734 1.70619 1.11883C1.68162 1.13035 1.70487 1.16576 1.67206 1.18819C1.63907 1.21048 1.60077 1.17693 1.56734 1.23759ZM4.08139 8.52534C4.08995 8.59182 3.95663 8.52361 4.01659 8.49167C4.01965 8.49021 4.08104 8.52196 4.08139 8.52534ZM3.95394 2.73417C3.96468 2.74321 3.97185 2.75215 3.9761 2.7607C4.00178 2.81689 3.93362 2.86516 3.88189 2.82069C3.86464 2.80517 3.86141 2.78777 3.86627 2.77244C3.87911 2.74319 3.9382 2.72087 3.95394 2.73417ZM3.91022 2.02214C3.97397 2.09369 3.7661 2.13753 3.79552 2.04711C3.79715 2.04189 3.90651 2.01799 3.91022 2.02214ZM2.09917 1.56571C2.09762 1.56427 2.11305 1.52464 2.11528 1.52449C2.16783 1.52311 2.13702 1.60217 2.09917 1.56571ZM3.83102 1.31683C3.86452 1.33563 3.84707 1.41301 3.80573 1.39002C3.77257 1.37172 3.78952 1.29391 3.83102 1.31683ZM3.07166 11.1174C3.07356 11.1188 3.06726 11.149 3.05529 11.1451C3.01669 11.1323 3.03935 11.0937 3.07166 11.1174ZM3.63153 0.128424C3.67828 0.279613 3.85196 0.40391 3.81146 0.186623C3.80238 0.149322 3.76762 0.276573 3.74545 0.230387C3.7063 0.153795 3.79648 0.0660218 3.70895 0.000441999C3.69472 -0.00873403 3.63036 0.121759 3.63137 0.128774C3.63143 0.128657 3.63148 0.128541 3.63153 0.128424ZM4.22129 8.64207C4.22246 8.64397 4.20276 8.68168 4.20055 8.68159C4.1479 8.67776 4.18765 8.60162 4.22129 8.64207ZM2.81429 12.8928C2.81805 12.8959 2.8042 12.9937 2.79974 12.9963C2.71414 13.0329 2.74191 12.8352 2.81429 12.8928ZM5.42002 6.05152C5.46116 5.99737 5.45713 5.93717 5.39133 5.91049C5.40283 5.95662 5.4108 6.00402 5.42002 6.05152Z" fill="#963076"/>
</svg>
