<svg width="6" height="14" viewBox="0 0 6 14" fill="none" xmlns="http://www.w3.org/2000/svg">
<path d="M3.924 1.23762C4.0006 1.37693 4.07134 1.57619 4.11408 1.72928C4.12767 1.77752 4.09358 1.7645 4.10185 1.79838C4.11815 1.86499 4.15298 1.91619 4.16671 1.98347C4.171 2.00551 4.12184 1.99563 4.12721 2.01833C4.15646 2.14164 4.20947 2.24858 4.24634 2.37172C4.42605 2.97425 4.59983 3.56793 4.73687 4.18782C4.7826 4.39349 4.80201 4.64881 4.86153 4.85702C4.86853 4.88129 4.90162 4.85919 4.90556 4.86328C4.9659 4.92673 4.88833 4.91861 4.8881 4.96806C4.88788 5.07782 4.89838 5.19182 4.91535 5.30115C4.92852 5.38643 4.94862 5.46871 4.97263 5.5439C4.99601 5.61601 5.04965 5.52581 5.02739 5.60814C5.02595 5.61386 4.98341 5.60489 4.9843 5.62579C4.98645 5.67411 5.01616 5.75774 5.02332 5.79379C5.03663 5.86274 5.04046 5.87406 5.05965 5.93795C5.08566 6.02523 5.10199 6.13503 5.14346 6.22593C5.15237 6.24516 5.18084 6.2053 5.19862 6.23514C5.21622 6.26458 5.24364 6.35089 5.24521 6.38311C5.24668 6.41513 5.21264 6.41366 5.20768 6.42121C5.16542 6.48363 5.28093 6.55669 5.28734 6.56933C5.39581 6.78394 5.42777 7.01719 5.42067 7.27539C5.42025 7.2825 5.42035 7.29095 5.42106 7.30043C5.43264 7.42262 5.51276 7.65747 5.48585 7.86465C5.48462 7.87639 5.4832 7.88781 5.48153 7.89942C5.45052 8.10655 5.38419 8.27529 5.3133 8.4631C5.30521 8.48399 5.35889 8.47726 5.34886 8.50314C5.24137 8.77799 5.07913 9.02187 4.88098 9.2214C4.86106 9.24132 4.85095 9.18745 4.82923 9.2056C4.69695 9.31951 4.46194 9.4514 4.51962 9.64819C4.43468 9.72455 4.33069 9.81422 4.23264 9.85591C4.16961 9.88261 4.18467 9.80712 4.14007 9.8746C4.12982 9.88988 4.1737 9.90318 4.1563 9.92388C4.08401 10.0101 3.98374 10.0829 3.91692 10.1711C3.90325 10.1892 3.93159 10.2113 3.93122 10.2203C3.92758 10.2932 3.80539 10.2897 3.78785 10.2977C3.65157 10.3619 3.5887 10.4477 3.50658 10.5405C3.48793 10.562 3.5456 10.5675 3.52968 10.5886C3.48002 10.6539 3.4374 10.7206 3.42067 10.7589C3.39977 10.8137 3.3786 10.8679 3.35658 10.9214C3.34409 10.9517 3.31196 10.913 3.30397 10.9271C3.26946 10.9904 3.34095 11.0219 3.31182 11.0829C3.30582 11.0959 3.27329 11.0816 3.26906 11.0834C3.20263 11.1118 3.28001 11.1619 3.2802 11.172C3.28431 11.3036 3.18662 11.376 3.1872 11.5062C3.18744 11.5216 3.23412 11.491 3.2322 11.5341C3.21967 11.8198 3.20753 12.128 3.16342 12.4241C3.15651 12.47 3.12465 12.436 3.1205 12.4388C3.05547 12.4836 3.13913 12.5172 3.14165 12.5327C3.15941 12.6542 3.07967 12.7588 3.17034 12.8533C3.15765 12.9214 3.14421 12.9899 3.128 13.0587C3.10696 13.1337 3.12072 13.2475 3.10424 13.3919C3.09744 13.4402 3.09182 13.4824 3.07003 13.5453C3.06268 13.5629 3.05988 13.5783 3.03149 13.6173C3.01583 13.631 2.99008 13.69 2.87222 13.689C2.76031 13.6695 2.74929 13.6187 2.73412 13.6033C2.69523 13.5328 2.7009 13.5181 2.693 13.4888C2.64884 13.2576 2.61515 13.0253 2.61674 12.7879C2.61666 12.7815 2.6599 12.7854 2.65958 12.7726C2.65662 12.6203 2.59757 12.6599 2.50214 12.5754C2.47814 12.5538 2.56004 12.4624 2.56588 12.4547C2.58738 12.4264 2.65306 12.4408 2.65665 12.4319C2.6841 12.358 2.48281 12.4036 2.46733 12.3134C2.46718 12.3105 2.50662 12.316 2.50903 12.3077C2.51663 12.2819 2.49786 12.2617 2.50672 12.2361C2.52743 12.1784 2.62291 12.1425 2.55128 12.072C2.54202 12.0632 2.42971 12.0988 2.42079 12.0181C2.41744 11.9857 2.38919 11.8458 2.38869 11.8053C2.38836 11.7647 2.43063 11.7842 2.43168 11.7811C2.45923 11.6654 2.4875 11.7015 2.54857 11.6329C2.60908 11.564 2.44078 11.6153 2.41705 11.5981C2.39342 11.5808 2.41621 11.4946 2.42563 11.4723C2.43517 11.4501 2.46398 11.4684 2.46793 11.4497C2.49282 11.3248 2.37167 11.4205 2.33582 11.3903C2.31007 11.3687 2.30225 11.3454 2.30334 11.3199C2.30621 11.2627 2.35683 11.1967 2.34999 11.1393C2.34732 11.1171 2.32372 11.1424 2.31572 11.1243C2.28428 11.0529 2.30961 10.996 2.24738 10.923C2.23719 10.9108 2.14113 10.868 2.18057 10.8063C2.18628 10.7974 2.22299 10.8046 2.2191 10.7709C2.21339 10.7204 2.18985 10.6337 2.16093 10.5874C2.13962 10.5533 2.1055 10.6142 2.10361 10.5622C2.10273 10.5391 2.14643 10.5661 2.14225 10.5234C2.13827 10.4808 2.09811 10.383 2.08178 10.3463C2.06557 10.3096 2.03644 10.3454 2.03269 10.3434C2.01089 10.3312 1.96337 10.2683 1.96072 10.2622C1.82336 9.9519 1.74533 9.63824 1.56877 9.35309C1.55498 9.33077 1.52546 9.36621 1.52297 9.36301C1.46511 9.29254 1.59851 9.30135 1.60221 9.22788C1.53021 9.27695 1.52653 9.23678 1.48793 9.18584C1.46927 9.16134 1.44778 9.19199 1.44343 9.1912C1.3771 9.17607 1.41959 9.11694 1.42743 9.10329C1.45626 9.05308 1.38931 9.0531 1.40825 9.01914C1.42695 8.98526 1.49248 9.00264 1.46211 8.94966C1.42672 8.94996 1.3781 9.02892 1.3441 8.99517C1.21638 8.86817 1.10814 8.55639 1.04192 8.43235C0.976247 8.30869 0.948236 8.27318 0.915824 8.19714C0.857692 8.06066 0.833583 8.13744 0.762992 8.07326C0.69235 8.00903 0.841976 7.97086 0.86249 7.94324C0.883049 7.91573 0.847686 7.92039 0.85437 7.89757C0.861082 7.8748 0.89752 7.8935 0.883707 7.85772C0.869983 7.82213 0.768245 7.76234 0.732875 7.76795C0.65787 7.77977 0.618374 7.85788 0.589272 7.75843C0.587633 7.75267 0.630659 7.74887 0.622693 7.72783C0.558734 7.56205 0.467768 7.40411 0.404117 7.23884C0.39536 7.21596 0.443672 7.21337 0.439025 7.19985C0.391607 7.05974 0.353707 7.14087 0.243703 7.10986C0.315972 7.08437 0.355199 7.04181 0.354749 6.98604C0.35482 6.96262 0.348517 6.93738 0.335775 6.90907C0.310959 6.8517 0.272212 6.87976 0.225823 6.85062C0.211634 6.84148 0.227914 6.78671 0.204526 6.78494C0.127683 6.77721 0.0592709 6.8453 0.0616718 6.71487C0.0620433 6.70928 0.104371 6.71765 0.102866 6.69907C0.0963922 6.58049 0.0192906 6.5763 0.00204699 6.44396C-0.0113513 6.33932 0.0445654 6.16171 0.0678823 6.05288C0.187607 6.07008 0.174329 5.96722 0.100111 5.91032C0.116187 5.83983 0.127734 5.76321 0.155016 5.69859C0.164366 5.67643 0.194879 5.69981 0.199265 5.69777C0.267652 5.66797 0.196447 5.61863 0.197239 5.60285C0.209493 5.43375 0.308246 5.32308 0.298816 5.15537C0.298462 5.14943 0.22106 5.11484 0.292593 5.09383C0.29746 5.0926 0.317823 5.15374 0.343552 5.08446C0.369243 5.01526 0.456036 4.89798 0.450655 4.78917C0.449434 4.76277 0.403651 4.68268 0.46943 4.65202C0.478362 4.64787 0.499181 4.66214 0.514913 4.65701C0.565219 4.64001 0.488853 4.59901 0.568719 4.58534C0.60038 4.57984 0.631144 4.56742 0.655446 4.54743C0.692644 4.51644 0.71474 4.47098 0.705611 4.40298C0.70525 4.39949 0.648731 4.35546 0.660593 4.32458C0.679138 4.27631 0.71757 4.21277 0.737174 4.162C0.746407 4.13797 0.701404 4.13785 0.702335 4.1334C0.745859 3.96183 0.832744 3.86231 0.932285 3.70483C0.950348 3.67632 0.946779 3.56185 1.01857 3.52594C1.09696 3.48691 1.23997 3.65236 1.27875 3.48346C1.29515 3.41367 1.10838 3.21599 1.28251 3.17021C1.32953 3.0279 1.40044 2.90054 1.42208 2.75078C1.43422 2.6678 1.44192 2.58378 1.43458 2.49532C1.4337 2.48471 1.36539 2.44269 1.36943 2.41814C1.3756 2.38153 1.41192 2.36589 1.41753 2.34001C1.44187 2.23212 1.42721 2.12817 1.44805 2.0234C1.45589 1.98393 1.48849 2.00304 1.49802 1.9561C1.50766 1.90888 1.46714 1.86972 1.5004 1.80913C1.52567 1.76366 1.62763 1.73199 1.6504 1.67079C1.55905 1.65101 1.56908 1.60736 1.56043 1.52447C1.55875 1.50843 1.52361 1.51826 1.52117 1.51033C1.51057 1.47783 1.54241 1.45661 1.53026 1.42524C1.52735 1.4177 1.49616 1.4109 1.49202 1.40433C1.4557 1.34781 1.54258 1.28568 1.55762 1.2756C1.61508 1.23521 1.57973 1.20325 1.60679 1.16843C1.63371 1.13445 1.64348 1.19666 1.66472 1.15465C1.70159 1.08147 1.72398 0.985789 1.74502 0.901682C1.74929 0.885514 1.75344 0.869307 1.75749 0.853706C1.76701 0.815644 1.7193 0.831884 1.71971 0.826196C1.72764 0.746996 1.78634 0.673103 1.70811 0.61789C1.93245 0.5912 1.69501 0.567881 1.74551 0.461762C1.74944 0.453401 1.85383 0.445521 1.86712 0.482645C1.8803 0.52018 1.84341 0.571975 1.8603 0.624704C1.8647 0.636513 1.94998 0.720904 1.95367 0.732228C1.98503 0.816897 1.83012 0.794887 1.82124 0.796668C1.74676 0.813696 1.77593 0.874633 1.79439 0.915188C1.80102 0.926674 1.8064 0.936896 1.8069 0.942289C1.81648 1.04236 1.77687 1.11531 1.78226 1.19809C1.78566 1.25217 1.88379 1.27895 1.872 1.31775C1.83343 1.44593 1.6849 1.46425 1.78088 1.6122C1.80142 1.64404 1.91535 1.6384 1.81165 1.71691C1.80513 1.7216 1.71347 1.778 1.75599 1.82802C1.76136 1.83425 1.79325 1.83971 1.79475 1.84689C1.80413 1.8952 1.77357 1.92104 1.77762 1.97231C1.78168 2.02369 1.79051 2.08579 1.77125 2.14046C1.75967 2.17341 1.6937 2.20867 1.67679 2.22294C1.62808 2.26366 1.6905 2.32259 1.63567 2.34476C1.58056 2.36728 1.51007 2.29963 1.46695 2.37254C1.54996 2.38606 1.63472 2.40347 1.71802 2.41861C1.70074 2.53801 1.67267 2.65534 1.65312 2.77547C1.64382 2.83817 1.63045 2.89934 1.61548 2.95865C1.60878 2.98488 1.65991 2.97012 1.65337 2.99923C1.62403 3.12247 1.55267 3.20199 1.51468 3.30666C1.48497 3.38809 1.48336 3.48927 1.45361 3.56686C1.34505 3.56379 1.31519 3.68264 1.26776 3.75178C1.25111 3.77615 1.22957 3.762 1.21229 3.77652C1.14806 3.83148 1.24068 3.83839 1.24261 3.86346C1.25229 3.96949 1.07652 3.88997 1.03395 3.99093C1.03125 3.99683 1.09594 4.1021 1.09814 4.11326C1.11239 4.18435 1.0615 4.10772 1.03949 4.13941C0.999715 4.1972 0.958427 4.23347 0.95782 4.32017C0.957625 4.34588 0.998804 4.41947 0.937247 4.44704C0.929153 4.45072 0.89812 4.43669 0.894686 4.44063C0.835246 4.51399 0.93622 4.54961 0.956201 4.60716C0.959698 4.6173 0.959783 4.62729 0.957407 4.63699C0.944575 4.68839 0.87547 4.73126 0.854537 4.73946C0.788611 4.7663 0.842613 4.69929 0.838113 4.69539C0.785398 4.64912 0.777815 4.71126 0.758286 4.75451C0.656783 4.7292 0.642799 4.79298 0.738521 4.79911C0.749034 4.79965 0.750919 4.76196 0.758286 4.75451C0.843493 4.8247 0.833335 4.89852 0.717769 4.94296C0.663608 4.96379 0.624799 4.91458 0.607971 5.02616C0.600326 5.07673 0.674723 5.08079 0.679435 5.12904C0.690225 5.23893 0.586416 5.34172 0.567008 5.4427C0.560008 5.47922 0.608069 5.45612 0.604649 5.48135C0.595863 5.5481 0.551421 5.59612 0.549006 5.66386C0.548856 5.66996 0.592378 5.66658 0.587693 5.68632C0.553594 5.83565 0.499418 5.95819 0.478524 6.10928C0.46779 6.18266 0.481704 6.31086 0.479191 6.38035C0.471527 6.50052 0.436869 6.6562 0.484978 6.74626C0.515596 6.80328 0.549574 6.77399 0.58502 6.78593C0.61173 6.7943 0.619901 6.81495 0.621404 6.84018C0.630457 6.89254 0.61891 6.95457 0.615637 6.96771C0.615371 6.96833 0.573058 6.91212 0.572599 6.9549C0.5446 6.99528 0.615101 6.96714 0.615637 6.96771C0.612054 6.98163 0.672608 7.10779 0.693282 7.12769C0.704487 7.13857 0.734178 7.11185 0.739378 7.11789C0.86252 7.26215 0.966869 7.4185 1.04956 7.59232C1.05062 7.59561 1.01053 7.61368 1.01348 7.62116C1.05399 7.72666 1.13652 7.76026 1.21086 7.82251C1.28551 7.88526 1.31378 7.95311 1.27759 8.03872C1.32129 8.09338 1.3442 8.19667 1.35607 8.25623C1.36807 8.31599 1.44541 8.27981 1.44944 8.28333C1.57614 8.39242 1.58075 8.4968 1.65607 8.64368C1.69195 8.7138 1.77914 8.84369 1.82842 8.91421C1.86764 8.96995 1.86952 9.01509 1.91034 9.064C1.91584 9.07064 1.94514 9.04519 1.94764 9.04677C2.02064 9.087 1.92313 9.10106 1.91534 9.12152C1.88678 9.19577 1.87346 9.23872 1.93957 9.30452C1.95471 9.31957 2.1007 9.31192 2.12487 9.34233C2.15597 9.38179 2.10496 9.38671 2.13839 9.42748C2.1412 9.431 2.16716 9.41696 2.18021 9.44607C2.24111 9.58106 2.29509 9.73427 2.36096 9.87409C2.36986 9.89327 2.40144 9.84939 2.41502 9.87689C2.4787 10.006 2.5386 10.1532 2.56949 10.2927C2.57695 10.3271 2.53854 10.3186 2.5322 10.3291C2.49401 10.3931 2.59673 10.4237 2.60208 10.4336C2.73029 10.6632 2.7184 10.8764 2.82205 11.1237C2.82464 11.1297 2.84953 11.1501 2.87031 11.1774C2.8958 11.2103 2.91485 11.2526 2.87898 11.289C2.87469 11.2935 2.80771 11.359 2.87067 11.3879C2.87461 11.3898 2.90821 11.351 2.91584 11.4035C2.92338 11.4556 2.96847 11.5329 2.93835 11.6126C2.92893 11.638 2.86094 11.7059 2.93633 11.7597C2.94157 11.7629 3.10295 11.8391 3.01139 11.8933C2.99629 11.9022 2.89152 11.9149 2.9587 11.9835C2.97168 11.9966 2.99005 11.9654 3.01146 12.002C3.04443 12.0585 3.03033 12.1428 3.08914 12.208C3.09953 12.2194 3.17942 12.2619 3.13318 12.3141C3.12596 12.3223 3.08903 12.3153 3.08907 12.3389C3.08904 12.4512 3.13159 12.5598 3.12695 12.6735C3.12542 12.7141 3.06583 12.7041 3.05797 12.747C3.0502 12.7904 3.05053 12.8746 3.08382 12.9117C3.11721 12.9493 3.19799 12.8871 3.21674 12.9485C3.25862 13.0855 3.27961 13.2261 3.29697 13.3676C3.28942 13.362 3.31661 13.3954 3.24894 13.273C3.21815 13.2473 3.20082 13.1292 2.92419 13.0807C2.63242 13.0804 2.58064 13.2208 2.5505 13.2433C2.49863 13.3171 2.50596 13.3241 2.5002 13.3365C2.49453 13.3658 2.50759 13.333 2.51181 13.3163C2.51888 13.297 2.52342 13.2551 2.52554 13.1927C2.52769 13.1443 2.4935 13.1885 2.4961 13.1064C2.49817 13.061 2.50165 13.0031 2.51494 12.9324C2.54546 12.7642 2.54208 12.4715 2.60486 12.306C2.66371 12.1515 2.70128 12.3491 2.72646 12.2298C2.73843 12.1723 2.6343 12.1065 2.63132 12.0921C2.60074 11.9522 2.65017 11.8545 2.64216 11.7245C2.64055 11.6975 2.5965 11.7217 2.59563 11.6986C2.59233 11.6198 2.61705 11.5375 2.62031 11.461C2.62173 11.4265 2.58862 11.4299 2.59421 11.3983C2.60739 11.3226 2.62909 11.2563 2.66998 11.1861C2.6737 11.1798 2.70744 11.2307 2.71696 11.1751C2.7325 11.0844 2.78194 10.9783 2.77517 10.8674C2.77317 10.8343 2.70047 10.8156 2.76747 10.7605C2.78171 10.7488 2.86302 10.7899 2.80937 10.6924C2.8039 10.6821 2.77705 10.6167 2.78004 10.5561C2.78995 10.4929 2.81781 10.4358 2.85715 10.4156C2.88589 10.3981 2.97897 10.3837 2.99576 10.3394C2.99808 10.3328 2.94953 10.3324 2.96986 10.2963C3.04033 10.1746 3.1284 10.0877 3.20022 9.99713C3.21987 9.97259 3.15773 9.97602 3.18781 9.94069C3.27054 9.84376 3.38652 9.75213 3.47806 9.68663C3.51225 9.6622 3.51394 9.70705 3.51871 9.70778C3.59543 9.72035 3.56082 9.64097 3.56953 9.62664C3.62335 9.53931 3.70339 9.51883 3.76174 9.45109C3.77764 9.43271 3.73848 9.41559 3.73964 9.40977C3.75278 9.35108 3.77352 9.42775 3.80187 9.41196C3.88196 9.36736 3.95006 9.29797 4.0085 9.23274C4.02993 9.20871 3.97239 9.202 3.99179 9.18095C4.10551 9.05608 4.2232 8.93414 4.34047 8.82769C4.3626 8.80767 4.3784 8.84389 4.38849 8.84404C4.45941 8.84479 4.43668 8.74821 4.43878 8.73292C4.44976 8.66172 4.48872 8.65968 4.51494 8.60993C4.64375 8.36896 4.78106 8.09131 4.82534 7.86123C4.82834 7.8469 4.83115 7.83263 4.83379 7.81842C4.86363 7.69677 4.82904 7.62258 4.81413 7.2682C4.82083 7.18778 4.80928 7.09411 4.77444 6.98029C4.76864 6.96133 4.72922 6.99303 4.72364 6.97701C4.65254 6.76984 4.5679 6.51443 4.46922 6.25531C4.46111 6.23389 4.42949 6.27897 4.41513 6.24508C4.38509 6.17483 4.3588 6.08135 4.35103 6.00267C4.34716 5.96429 4.39744 6.00289 4.39287 5.96455C4.38259 5.87592 4.36193 5.7836 4.33439 5.69637C4.32269 5.65955 4.29183 5.72642 4.28008 5.67754C4.2598 5.59334 4.24168 5.51129 4.2258 5.42661C4.18289 5.19744 4.14534 4.97264 4.13676 4.73427C4.13607 4.71293 4.22106 4.67316 4.19381 4.63314C4.16827 4.63554 4.13916 4.64245 4.11235 4.64713C3.99709 4.21339 3.90729 3.77727 3.77085 3.34464C3.76504 3.32632 3.7292 3.37279 3.71784 3.33776C3.65185 3.13509 3.57084 2.94455 3.53993 2.72268C3.53682 2.70083 3.62087 2.68157 3.58618 2.62595C3.58006 2.61619 3.5348 2.52911 3.50864 2.51296C3.50481 2.51082 3.47392 2.54151 3.46169 2.51302C3.3909 2.34632 3.32864 2.16775 3.28106 1.99177C3.27343 1.9633 3.32463 1.97552 3.31951 1.95505C3.28256 1.80927 3.18919 1.67583 3.16608 1.53025C3.15092 1.43331 3.23224 1.43526 3.27708 1.35924C3.28342 1.34852 3.26019 1.29385 3.29705 1.27345C3.38975 1.22208 3.50709 1.20033 3.60448 1.14248C3.62554 1.13011 3.56761 1.06688 3.64111 1.08625C3.64612 1.0877 3.68846 1.13329 3.71254 1.13821C3.72924 1.1417 3.76057 1.10737 3.78515 1.11886C3.80972 1.13038 3.78647 1.16579 3.81928 1.18822C3.85227 1.21051 3.89057 1.17697 3.924 1.23762ZM1.40995 8.52537C1.40139 8.59185 1.53471 8.52364 1.47475 8.4917C1.47169 8.49024 1.4103 8.52199 1.40995 8.52537ZM1.5374 2.7342C1.52667 2.74324 1.51949 2.75218 1.51524 2.76073C1.48956 2.81692 1.55772 2.8652 1.60945 2.82072C1.6267 2.8052 1.62993 2.7878 1.62507 2.77247C1.61224 2.74322 1.55314 2.7209 1.5374 2.7342ZM1.58112 2.02217C1.51737 2.09372 1.72524 2.13756 1.69582 2.04714C1.69419 2.04192 1.58483 2.01802 1.58112 2.02217ZM3.39217 1.56574C3.39372 1.5643 3.3783 1.52467 3.37606 1.52452C3.32351 1.52315 3.35432 1.6022 3.39217 1.56574ZM1.66032 1.31686C1.62682 1.33566 1.64428 1.41304 1.68561 1.39005C1.71878 1.37175 1.70182 1.29394 1.66032 1.31686ZM2.41968 11.1174C2.41778 11.1188 2.42408 11.149 2.43605 11.1451C2.47465 11.1323 2.45199 11.0938 2.41968 11.1174ZM1.85981 0.128454C1.81306 0.279644 1.63938 0.403941 1.67988 0.186653C1.68896 0.149352 1.72372 0.276604 1.7459 0.230418C1.78504 0.153826 1.69486 0.0660523 1.78239 0.000472517C1.79662 -0.00870351 1.86098 0.121789 1.85997 0.128805C1.85992 0.128688 1.85986 0.128571 1.85981 0.128454ZM1.27005 8.6421C1.26888 8.644 1.28858 8.68171 1.29079 8.68162C1.34344 8.67779 1.3037 8.60165 1.27005 8.6421ZM2.67705 12.8928C2.67329 12.8959 2.68714 12.9938 2.6916 12.9963C2.7772 13.0329 2.74943 12.8352 2.67705 12.8928ZM0.0713196 6.05155C0.0301804 5.9974 0.0342129 5.93721 0.100012 5.91052C0.0885058 5.95665 0.08054 6.00405 0.0713196 6.05155Z" fill="#963076"/>
</svg>
