<svg width="16" height="23" viewBox="0 0 16 23" fill="none" xmlns="http://www.w3.org/2000/svg">
<path d="M10.6626 12.5411C10.7249 12.7556 10.8375 13.0254 10.932 13.2272C10.9614 13.2901 10.9741 13.248 10.9956 13.291C11.0379 13.376 11.0557 13.4617 11.0995 13.5445C11.1141 13.5716 11.1402 13.5214 11.1546 13.5502C11.2335 13.7092 11.2818 13.8686 11.3531 14.0324C11.7045 14.8389 12.0317 15.6371 12.3813 16.4549C12.4533 16.6234 12.5465 16.8097 12.6309 16.9955C12.6828 17.1101 12.7318 17.2218 12.7724 17.3297C12.7852 17.3638 12.7427 17.3588 12.7427 17.3663C12.7441 17.4841 12.7969 17.4196 12.8351 17.4803C12.9858 17.7183 13.1262 17.9924 13.2485 18.235C13.3006 18.3378 13.1788 18.2738 13.2737 18.3546C13.2802 18.3601 13.2989 18.3149 13.3187 18.3401C13.3624 18.3961 13.4294 18.5166 13.4627 18.5613C13.5271 18.6479 13.5368 18.6628 13.5959 18.7458C13.6775 18.8591 13.7953 18.979 13.8873 19.098C13.9069 19.1234 13.8486 19.1178 13.8775 19.161C13.9067 19.205 14.0029 19.3028 14.0425 19.3288C14.0815 19.3548 14.0902 19.3187 14.101 19.3193C14.1899 19.3231 14.2454 19.4903 14.2597 19.5054C14.3684 19.6247 14.4843 19.7193 14.5998 19.8046C14.7188 19.8906 14.8235 19.9969 14.8903 20.1375C14.944 20.2502 14.9733 20.3806 14.9836 20.5109C14.9885 20.5795 14.9776 20.6491 14.9572 20.7195C14.9026 20.9045 14.7993 21.0633 14.6536 21.268C14.6384 21.2907 14.6231 21.3094 14.6082 21.3242C14.5952 21.3369 14.5759 21.2896 14.5618 21.3025C14.5061 21.4197 14.1868 21.2434 13.9269 21.0053C13.9002 20.9821 13.9019 21.0438 13.8732 21.022C13.6954 20.8884 13.4043 20.65 13.4682 20.4334C13.3704 20.3155 13.2547 20.1674 13.145 20.075C13.0741 20.015 13.0874 20.1124 13.0397 20.011C13.029 19.9882 13.0798 19.9919 13.0613 19.9595C12.9828 19.8221 12.8748 19.6882 12.8018 19.5478C12.7873 19.5197 12.821 19.506 12.821 19.495C12.8193 19.4021 12.6761 19.3474 12.6548 19.3285C12.4926 19.1827 12.4198 19.0489 12.2775 18.8898C12.2431 18.8526 12.3188 18.8645 12.2864 18.8276C12.261 18.7989 12.2246 18.7615 12.1914 18.7325C12.0426 18.6012 11.877 18.4817 11.7061 18.3893C11.6606 18.3649 11.6776 18.4247 11.6549 18.4149C11.5552 18.3725 11.5751 18.295 11.4773 18.2561C11.4567 18.248 11.4499 18.2842 11.4445 18.2855C11.3615 18.3063 11.3566 18.2069 11.3432 18.1975C11.1772 18.0784 11.0229 18.1031 10.8549 18.0139C10.8347 18.0032 10.8996 17.984 10.8415 17.9563C10.722 17.8995 10.5993 17.8468 10.4748 17.797C10.1714 17.6768 9.85923 17.6361 9.56986 17.6112C9.50475 17.6058 9.54521 17.646 9.5405 17.6493C9.4643 17.701 9.43554 17.6103 9.41529 17.6037C9.25435 17.5545 9.0896 17.6 8.99711 17.4806C8.74052 17.4486 8.49035 17.3962 8.24574 17.3275C7.90322 17.2174 7.5828 16.8841 7.25088 16.6115C7.24414 16.6056 7.22391 16.6456 7.21055 16.6338C7.05137 16.4923 7.12693 16.4781 7.09641 16.3211C7.088 16.2807 6.94693 16.2625 6.93493 16.259C6.8926 16.2488 6.86801 16.3166 6.85663 16.3108C6.76366 16.2607 6.93386 16.1434 6.85139 16.0422C6.84854 16.0392 6.82997 16.0765 6.8201 16.0703C6.78977 16.0518 6.78067 16.0165 6.74972 15.9989C6.67838 15.9582 6.58354 16.0001 6.55697 15.8723C6.55398 15.8562 6.65881 15.8007 6.58387 15.7138C6.55337 15.6788 6.43038 15.5163 6.38908 15.4745C6.34856 15.4339 6.34231 15.4878 6.33856 15.4856C6.20552 15.3933 6.22433 15.452 6.11846 15.4345C6.01328 15.4173 6.16596 15.3286 6.16257 15.2916C6.15907 15.2547 6.05773 15.1883 6.02978 15.1748C6.00164 15.1611 6.00332 15.2033 5.98199 15.1883C5.84081 15.0879 6.00806 15.0779 5.998 15.018C5.97483 14.8769 5.81092 14.8742 5.73094 14.7878C5.70923 14.7643 5.74848 14.7675 5.73382 14.7431C5.67611 14.6475 5.60295 14.6168 5.55766 14.4931C5.55034 14.473 5.5515 14.3431 5.46619 14.3242C5.45395 14.3215 5.4438 14.3623 5.4097 14.3284C5.35863 14.2776 5.27668 14.1788 5.23984 14.1109C5.21257 14.0606 5.29411 14.081 5.23831 14.0336C5.21348 14.0125 5.22332 14.0782 5.1789 14.0373C5.13497 13.997 5.04551 13.8743 5.01233 13.828C4.97899 13.7814 5.03018 13.7824 5.0296 13.777C5.02546 13.7453 4.97491 13.645 4.96915 13.6374C4.92836 13.5817 4.88665 13.5273 4.8443 13.4738C4.59202 13.1564 4.34725 12.8511 4.17276 12.4822C4.15681 12.4486 4.20615 12.4504 4.2041 12.4451C4.16077 12.3246 4.10696 12.4662 4.03185 12.4043C4.11471 12.3759 4.07639 12.3366 4.04428 12.2521C4.02891 12.2113 4.0695 12.2173 4.07078 12.2122C4.0875 12.1322 4.00895 12.1217 3.99167 12.1171C3.92852 12.1012 3.96041 12.0332 3.91811 12.022C3.87588 12.0103 3.86137 12.0918 3.824 12.0135C3.8413 11.9781 3.94225 12.0006 3.92545 11.9358C3.8626 11.6925 3.60888 11.3 3.5165 11.1222C3.43875 10.972 3.41063 10.9065 3.36655 10.8285C3.35849 10.8142 3.34994 10.7997 3.3405 10.7842C3.22964 10.6039 3.31813 10.6479 3.28408 10.5175C3.24995 10.3878 3.14633 10.5114 3.10949 10.5088C3.07285 10.5067 3.09323 10.4745 3.06723 10.4618C3.04125 10.4491 3.04445 10.5033 3.01416 10.458C2.98375 10.4123 2.96807 10.2579 2.98822 10.2247C3.03215 10.1564 3.12843 10.1811 3.03947 10.0665C3.03432 10.06 3.01211 10.1015 2.99415 10.0756C2.85197 9.86821 2.72726 9.64133 2.58303 9.43689C2.56317 9.40886 2.54023 9.45659 2.52826 9.44056C2.40328 9.27409 2.50247 9.30201 2.51732 9.16375C2.43624 9.23953 2.34745 9.21618 2.26925 9.08173C2.2214 8.99975 2.27031 8.99029 2.26839 8.92093C2.26798 8.90029 2.20623 8.85873 2.21913 8.83696C2.26132 8.76585 2.36313 8.77873 2.25307 8.65568C2.24809 8.65026 2.22563 8.69017 2.2109 8.66998C2.11608 8.54085 2.17133 8.48561 2.09058 8.33356C2.02738 8.21453 1.86276 8.03315 1.77624 7.90652C1.67466 7.97284 1.62236 7.83447 1.66326 7.74126C1.60814 7.65798 1.55594 7.56383 1.49653 7.48866C1.47578 7.46221 1.45723 7.49922 1.45179 7.4976C1.36733 7.4734 1.41496 7.39506 1.40647 7.3749C1.31265 7.16001 1.16294 7.0293 1.10746 6.80719C1.10553 6.79924 1.17274 6.7471 1.09095 6.72605C1.08533 6.72459 1.08668 6.8068 1.03437 6.71749C0.986507 6.63584 0.87118 6.49919 0.834864 6.36294C0.831692 6.35124 0.829099 6.3396 0.827169 6.32805C0.820714 6.29177 0.848816 6.18683 0.773223 6.1428C0.762959 6.13687 0.744484 6.15554 0.726896 6.148C0.670532 6.12289 0.741121 6.06988 0.655434 6.04774C0.569899 6.02555 0.4796 5.93804 0.484669 5.78057C0.484689 5.77551 0.539403 5.72309 0.526324 5.67979C0.504823 5.60946 0.466532 5.51262 0.451055 5.43674C0.443701 5.40067 0.489588 5.4152 0.489025 5.4088C0.464089 5.16545 0.404616 4.99961 0.376328 4.73618C0.370912 4.68732 0.425676 4.54938 0.383674 4.45593C0.33865 4.35115 0.125009 4.45029 0.190987 4.20649C0.219227 4.10576 0.490046 4.01959 0.384831 3.83018C0.473984 3.50757 0.491605 3.18833 0.653732 2.88837C0.660971 2.87491 0.745863 2.85632 0.757684 2.82354C0.775177 2.77457 0.754315 2.73562 0.766612 2.69996C0.817173 2.55134 0.903708 2.43277 0.966387 2.29635C0.990569 2.24435 0.950047 2.24632 0.979532 2.18449C1.00939 2.12265 1.07148 2.10414 1.09635 2.0124C1.11516 1.94302 1.06746 1.83483 1.1059 1.74786C1.18817 1.79251 1.21909 1.7354 1.29944 1.65234C1.31507 1.63622 1.33033 1.67334 1.33914 1.66662C1.37551 1.6398 1.37331 1.59274 1.40991 1.56934C1.41875 1.56365 1.4459 1.58045 1.4547 1.57671C1.49706 1.55928 1.51554 1.5111 1.52385 1.46805L1.51725 1.47681C1.5286 1.44309 1.53244 1.41238 1.5338 1.40232C1.54543 1.31589 1.5991 1.31722 1.62161 1.26252C1.64405 1.20795 1.57142 1.25627 1.60585 1.19907C1.67676 1.08111 1.79497 0.953324 1.88465 0.848686C1.92049 0.80715 1.92789 0.863381 1.93377 0.858081C2.01671 0.779774 2.05826 0.663599 2.16353 0.67192C2.04957 0.468328 2.22497 0.634683 2.29722 0.481803C2.30277 0.469663 2.23356 0.390845 2.19068 0.418008C2.14799 0.444913 2.12417 0.522226 2.06165 0.557866C2.04687 0.566412 1.91293 0.571949 1.90041 0.577281C1.80074 0.621274 1.9083 0.733786 1.91124 0.743362C1.94128 0.848556 1.78825 0.864355 1.76304 0.882242C1.64837 0.963096 1.58924 1.06441 1.49653 1.13552C1.43639 1.18176 1.35454 1.12117 1.31867 1.16765C1.29422 1.1993 1.27779 1.23008 1.26452 1.26043C1.26068 1.26515 1.24957 1.27937 1.24635 1.28452C1.20946 1.40924 1.2289 1.50797 1.0677 1.58394C1.02466 1.60466 0.949293 1.51324 0.950346 1.68294C0.950261 1.69374 0.965526 1.82652 0.891558 1.85588C0.882187 1.85961 0.854033 1.84366 0.846616 1.85142C0.797286 1.90427 0.798289 1.95656 0.751957 2.0183C0.705991 2.07945 0.647938 2.15363 0.620287 2.23671C0.603301 2.2871 0.62986 2.37337 0.633136 2.40195C0.642855 2.48313 0.549135 2.52437 0.579659 2.58472C0.610691 2.64479 0.715252 2.59748 0.703351 2.71406C0.623945 2.68617 0.540356 2.66269 0.459355 2.63752C0.366478 2.87594 0.311999 3.1236 0.244313 3.37163C0.235865 3.40251 0.200151 3.35952 0.189991 3.39264C0.147796 3.53245 0.153006 3.66396 0.115684 3.81073C0.0866535 3.92461 0.0226787 4.04749 1.381e-06 4.17093C0.0886192 4.25509 0.0454501 4.43379 0.0549053 4.5675C0.0579972 4.61416 0.0837587 4.61108 0.0925709 4.64359C0.126311 4.76628 0.0402728 4.71104 0.0279345 4.7459C-0.0220357 4.89772 0.170233 4.89838 0.182995 5.06555C0.183379 5.07375 0.0958749 5.19772 0.0921872 5.21416C0.0656751 5.31766 0.129721 5.22494 0.146748 5.28414C0.178919 5.3929 0.217101 5.46191 0.217577 5.59557C0.217297 5.63359 0.178523 5.74119 0.246518 5.79832C0.25542 5.80588 0.286519 5.79136 0.290575 5.79826C0.362122 5.92355 0.2627 5.95839 0.254658 6.04806C0.247222 6.13898 0.361468 6.23125 0.390704 6.24658C0.466328 6.28806 0.393605 6.19062 0.397652 6.18531C0.442566 6.12344 0.463845 6.21102 0.495508 6.2729C0.595861 6.2429 0.626403 6.33009 0.527752 6.33597C0.516744 6.33625 0.505306 6.28433 0.495508 6.2729C0.435464 6.35201 0.447155 6.43865 0.533759 6.50397C0.550459 6.51622 0.569993 6.52761 0.59235 6.53792C0.656663 6.56714 0.68012 6.49876 0.736273 6.65204C0.761965 6.72061 0.685135 6.72875 0.698552 6.79616C0.729192 6.94968 0.882532 7.08399 0.949853 7.2194C0.974109 7.26828 0.913265 7.24244 0.928781 7.27666C0.970563 7.3686 1.04086 7.42845 1.07901 7.52084C1.08247 7.52932 1.03576 7.5317 1.0514 7.55858C1.16926 7.76244 1.29765 7.9202 1.42496 8.12657C1.48678 8.2267 1.57585 8.41625 1.64219 8.5173C1.75715 8.69233 1.94 8.88265 2.01749 9.04472C2.06771 9.14953 2.01936 9.14851 2.02013 9.20591C2.02059 9.31526 2.18957 9.41521 2.21379 9.42758C2.21454 9.42782 2.17391 9.3365 2.2185 9.37222C2.2721 9.37737 2.21342 9.42652 2.21379 9.42758C2.23001 9.43611 2.33555 9.60525 2.34803 9.64444C2.3548 9.66555 2.31475 9.67382 2.31892 9.68447C2.4175 9.93491 2.53435 10.1743 2.67442 10.4058C2.67732 10.4097 2.71281 10.3833 2.71916 10.3927C2.8077 10.5222 2.80571 10.6368 2.83473 10.7661C2.86178 10.8856 2.9087 10.9668 2.99468 11.0088C3.00249 11.0127 3.01062 11.0161 3.01906 11.0192C3.05309 11.111 3.14392 11.2239 3.19661 11.2879C3.24984 11.353 3.17758 11.3991 3.17914 11.4063C3.22599 11.6307 3.32421 11.726 3.43128 11.9336C3.48209 12.0321 3.56693 12.2365 3.61317 12.3498C3.64934 12.4391 3.69352 12.4822 3.72313 12.5671C3.7272 12.5787 3.68796 12.5852 3.68837 12.5892C3.69456 12.6991 3.75431 12.6134 3.77848 12.6239C3.86664 12.662 3.91575 12.6868 3.95292 12.8121C3.96135 12.8407 3.88805 12.9818 3.90918 13.0333C3.93671 13.0999 3.96408 13.0524 3.99238 13.1223C3.99486 13.1282 3.96888 13.1424 3.99398 13.1811C4.11049 13.3617 4.25492 13.547 4.38494 13.728C4.40279 13.7527 4.3419 13.749 4.36731 13.7853C4.37448 13.7955 4.38175 13.8057 4.38913 13.816C4.4971 13.9668 4.61813 14.1245 4.74156 14.2563C4.77389 14.2905 4.78268 14.2475 4.79653 14.2498C4.88077 14.2647 4.86515 14.3871 4.87251 14.3997C5.04709 14.7044 5.2679 14.8739 5.45117 15.1822C5.46121 15.1993 5.47723 15.3742 5.58027 15.3808C5.58724 15.3814 5.69142 15.3865 5.68244 15.4661C5.68186 15.471 5.62412 15.463 5.67052 15.5178C5.71772 15.5736 5.76461 15.6817 5.86178 15.7343C5.8925 15.7511 6.00029 15.7604 6.00746 15.8745C6.00757 15.8821 5.98188 16.0853 6.09301 16.0656C6.11119 16.0622 6.18876 15.9904 6.21534 16.1119C6.22052 16.1354 6.17765 16.119 6.20148 16.173C6.23748 16.2553 6.33211 16.3287 6.36281 16.441C6.36833 16.461 6.36427 16.5693 6.44685 16.5837C6.45986 16.586 6.47446 16.5485 6.49955 16.5725C6.61752 16.6849 6.71131 16.8303 6.84127 16.9374C6.8879 16.9759 6.90946 16.9152 6.96213 16.9498C7.01444 16.9843 7.10994 17.0632 7.13858 17.1286C7.16643 17.1932 7.05137 17.207 7.1167 17.2815C7.35271 17.5338 7.61788 17.7703 8.08443 17.9033C8.17449 17.9237 8.26422 17.9429 8.3534 17.9625C8.41524 17.9758 8.35672 17.9957 8.44737 18.0169C8.7829 18.0984 9.34597 18.21 9.61673 18.1893C9.83739 18.1741 9.57982 18.083 9.74554 18.0915C9.82621 18.0961 9.88471 18.2174 9.90089 18.2248C10.0411 18.2876 10.1492 18.2892 10.257 18.3322C10.2789 18.3411 10.3005 18.3508 10.3226 18.3621C10.3544 18.3784 10.3059 18.4047 10.333 18.4181C10.4251 18.4641 10.5313 18.4885 10.6175 18.5307C10.6562 18.5497 10.6356 18.5763 10.6723 18.5902C10.76 18.624 10.8393 18.6468 10.9333 18.6604C10.942 18.6617 10.9108 18.6001 10.9727 18.6301C11.0723 18.6786 11.2076 18.7197 11.2977 18.8135C11.3244 18.8416 11.2849 18.9043 11.3793 18.9053C11.3989 18.9057 11.4324 18.8193 11.4651 18.9364C11.4718 18.9562 11.5334 19.1304 11.6339 19.1256C11.6605 19.1241 11.7476 19.1003 11.7755 19.1388C11.779 19.1442 11.7344 19.159 11.7605 19.1861C11.7678 19.1936 11.7752 19.2012 11.7827 19.2087C11.825 19.2572 11.9139 19.3586 11.9795 19.4637C11.9983 19.4941 11.9332 19.477 11.9624 19.5217C12.0441 19.6468 12.1657 19.8012 12.2659 19.9221C12.3024 19.966 12.3081 19.9141 12.3135 19.9154C12.4016 19.9354 12.3579 20.0164 12.3665 20.0372C12.4224 20.168 12.5158 20.2351 12.5824 20.3478C12.601 20.379 12.5542 20.3805 12.5555 20.3884C12.5707 20.4693 12.5961 20.3832 12.6298 20.4175C12.7242 20.5132 12.8083 20.636 12.8857 20.7486C12.9141 20.79 12.844 20.7718 12.87 20.8087C13.0239 21.0277 13.2033 21.2485 13.4144 21.4359C13.4541 21.4708 13.4566 21.4226 13.4699 21.425C13.5603 21.4394 13.5888 21.5724 13.6043 21.596C13.6739 21.704 13.7331 21.7132 13.8226 21.7861C13.9594 21.8885 14.1272 22.0172 14.4383 22.0414C14.7658 22.0732 15.0848 21.8186 15.1896 21.6365C15.2808 21.5027 15.4389 21.2887 15.5264 21.0681C15.6033 20.8824 15.6472 20.6593 15.6159 20.44C15.5543 20.0142 15.35 19.6109 14.9878 19.3185C14.9656 19.3004 14.9434 19.2821 14.9213 19.2636C14.8967 19.2429 14.9511 19.2273 14.9304 19.2091C14.6627 18.9778 14.4204 18.7658 14.225 18.4882C14.2091 18.4656 14.2682 18.4705 14.2439 18.4334C14.1948 18.3576 14.1269 18.2652 14.0638 18.1945C14.0334 18.1606 14.035 18.2321 14.0049 18.1971C13.9342 18.1143 13.8707 18.0156 13.8211 17.9145C13.8 17.8711 13.8751 17.912 13.8447 17.8573C13.6468 17.4964 13.4803 17.1142 13.2663 16.735C13.261 16.7254 13.2556 16.7158 13.2501 16.7063C13.2347 16.6791 13.1395 16.6885 13.1306 16.6202C13.1523 16.6059 13.1801 16.5949 13.2044 16.5826C12.971 15.9711 12.7028 15.3795 12.4606 14.7681C12.4504 14.7423 12.513 14.7695 12.4935 14.7195C12.3808 14.4302 12.2855 14.1437 12.1281 13.8639C12.1126 13.8363 12.0384 13.8815 12.0176 13.7898C12.014 13.7737 11.9754 13.6387 11.9801 13.5983C11.981 13.5927 12.0272 13.6026 12.0125 13.5601C11.9265 13.3133 11.8222 13.0583 11.7098 12.8219C11.6917 12.784 11.6671 12.8403 11.6539 12.8135C11.5596 12.6211 11.5112 12.3918 11.4071 12.2132C11.3377 12.0946 11.2848 12.1649 11.1928 12.1211C11.18 12.1154 11.1503 12.0352 11.1092 12.0451C11.0057 12.0692 10.91 12.1461 10.798 12.1672C10.7738 12.1714 10.7616 12.0565 10.728 12.1387C10.7257 12.1441 10.7347 12.229 10.7228 12.2552C10.7144 12.273 10.6657 12.2632 10.6586 12.2961C10.6515 12.329 10.6958 12.3471 10.6926 12.4001C10.6887 12.4519 10.6356 12.4478 10.6626 12.5411ZM3.43435 11.58C3.50333 11.6305 3.37279 11.7043 3.37051 11.6156C3.37056 11.6113 3.43088 11.5773 3.43435 11.58ZM0.425995 3.15714C0.459613 3.27235 0.348227 3.31318 0.318864 3.22957C0.290323 3.14484 0.416174 3.12152 0.425995 3.15714ZM0.863026 2.2095C0.857777 2.33684 0.658641 2.2616 0.753714 2.16605C0.759226 2.16046 0.86341 2.20202 0.863026 2.2095ZM11.2858 12.4451C11.2835 12.4447 11.2612 12.388 11.2626 12.3861C11.2965 12.3397 11.3409 12.4529 11.2858 12.4451ZM1.4339 1.35117C1.43347 1.36393 1.42598 1.37758 1.41533 1.38954C1.38878 1.42758 1.34361 1.45232 1.33978 1.41102C1.3383 1.3948 1.3479 1.37571 1.36117 1.36046C1.36257 1.35821 1.36742 1.35201 1.36909 1.34996C1.39705 1.32478 1.43509 1.31429 1.4339 1.35117ZM5.67042 14.8287C5.67293 14.8284 5.70062 14.8623 5.68997 14.8691C5.65564 14.891 5.6285 14.8351 5.67042 14.8287ZM2.55581 0.0492551C2.4113 0.250083 2.43155 0.484742 2.60253 0.254446C2.63237 0.212559 2.48895 0.304113 2.51849 0.243788C2.57078 0.135604 2.70619 0.138897 2.72928 0.00554629C2.73298 -0.0176364 2.56375 0.0383879 2.55534 0.0494595C2.5555 0.049392 2.55565 0.0493226 2.55581 0.0492551ZM3.61524 11.5424C3.61756 11.5427 3.6453 11.5971 3.64409 11.5991C3.61519 11.6491 3.55956 11.5402 3.61524 11.5424ZM7.33002 16.7563C7.33513 16.7561 7.43452 16.8525 7.43535 16.8582C7.43158 16.9655 7.22737 16.7681 7.33002 16.7563ZM1.77222 7.90616C1.7789 7.82565 1.74166 7.75422 1.66347 7.74148C1.70004 7.79498 1.73568 7.85216 1.77222 7.90616Z" fill="#963076"/>
</svg>
