<svg width="1" height="15" viewBox="0 0 1 15" fill="none" xmlns="http://www.w3.org/2000/svg">
<path d="M0.979758 14.2008C0.99317 14.1217 0.979815 14.0074 0.961106 13.9282C0.955313 13.9018 0.92874 13.915 0.923549 13.8965C0.913431 13.8604 0.926584 13.8308 0.914495 13.7952C0.910358 13.7836 0.8683 13.7979 0.864924 13.7856C0.846729 13.7176 0.857736 13.659 0.849186 13.5902C0.806929 13.2647 0.793075 12.9389 0.775992 12.6084C0.770406 12.4978 0.733128 12.3671 0.750535 12.2516C0.752605 12.2381 0.789402 12.2464 0.792456 12.2439C0.839203 12.205 0.764727 12.2178 0.755007 12.1923C0.716632 12.0917 0.714005 11.9752 0.72887 11.8789C0.735308 11.8371 0.808219 11.8796 0.76742 11.8371C0.764664 11.8341 0.725461 11.8445 0.721365 11.8329C0.712152 11.8069 0.719487 11.7565 0.716523 11.7363C0.710608 11.6982 0.711045 11.6918 0.710847 11.6554C0.710237 11.6056 0.691197 11.5454 0.700444 11.4906C0.702534 11.4789 0.742541 11.4946 0.749495 11.4762C0.756435 11.4582 0.753367 11.4103 0.744025 11.3939C0.734678 11.3776 0.7031 11.3843 0.695894 11.3814C0.635062 11.3573 0.719938 11.3016 0.722079 11.2943C0.758629 11.1597 0.711276 11.0516 0.712334 10.9248C0.713213 10.8322 0.729837 10.7323 0.728334 10.6415C0.72637 10.5358 0.705305 10.4463 0.709841 10.3414C0.710273 10.3304 0.757338 10.3437 0.757962 10.3302C0.764509 10.1913 0.760492 10.0462 0.72974 9.90764C0.726616 9.89356 0.685063 9.91135 0.679466 9.89726C0.646106 9.81153 0.565472 9.67079 0.746165 9.62274C0.739591 9.56466 0.732891 9.49353 0.696978 9.44048C0.673864 9.40626 0.628482 9.43898 0.648073 9.39726C0.652439 9.38785 0.691845 9.40046 0.695405 9.38631C0.71036 9.32613 0.698032 9.2635 0.718929 9.20497C0.723272 9.19314 0.758645 9.19667 0.765047 9.19336C0.816906 9.16552 0.73196 9.11751 0.725845 9.1071C0.680261 9.02766 0.698936 8.97089 0.698417 8.89854C0.698278 8.88169 0.745659 8.90201 0.747233 8.88581C0.754756 8.80196 0.751426 8.71315 0.731037 8.63036C0.726386 8.61211 0.685739 8.6285 0.681444 8.61977C0.663 8.58121 0.739574 8.57333 0.723364 8.53619C0.720045 8.52836 0.685333 8.53246 0.681538 8.531C0.621952 8.5082 0.706822 8.48951 0.708742 8.48378C0.734925 8.41123 0.646909 8.36364 0.660054 8.29269C0.661714 8.28439 0.705422 8.30353 0.707407 8.28016C0.72088 8.12524 0.710352 7.95432 0.676649 7.8006C0.671471 7.77639 0.638357 7.79334 0.634308 7.79178C0.571051 7.76642 0.656255 7.75111 0.65953 7.74324C0.683154 7.68111 0.61236 7.62186 0.714061 7.58004C0.681316 7.3168 0.740675 7.05459 0.652446 6.79042C0.651427 6.78705 0.609479 6.79266 0.607627 6.78594C0.584874 6.70586 0.64983 6.72209 0.729965 6.67013C0.750088 6.65706 0.654346 6.61568 0.647334 6.61202C0.621493 6.59872 0.55904 6.61165 0.554054 6.60723C0.514916 6.57065 0.72096 6.57858 0.721504 6.52963C0.721175 6.5281 0.683177 6.53416 0.679445 6.53001C0.667728 6.51713 0.682926 6.5046 0.66999 6.49196C0.640053 6.463 0.540006 6.45182 0.598722 6.40848C0.606115 6.40315 0.716311 6.41209 0.718214 6.37237L0.717683 6.38435C0.717825 6.38314 0.717869 6.38187 0.717808 6.38055C0.716897 6.3628 0.724998 6.28583 0.71915 6.26379C0.713311 6.24171 0.674583 6.25348 0.673078 6.25182C0.628007 6.19008 0.605682 6.21037 0.534455 6.17563C0.463504 6.14097 0.637569 6.16289 0.658003 6.15272C0.678364 6.14276 0.640815 6.0966 0.62741 6.08498C0.613999 6.07335 0.589088 6.08453 0.58177 6.07456C0.534028 6.00857 0.670653 6.0544 0.700007 6.0363C0.769492 5.99375 0.642915 5.94632 0.63371 5.90196C0.631226 5.88996 0.659962 5.9019 0.663561 5.89169C0.677482 5.85056 0.639105 5.82194 0.680008 5.77745C0.686676 5.77016 0.767664 5.73814 0.712504 5.70884C0.704545 5.70468 0.671458 5.71199 0.665658 5.69374C0.656926 5.66669 0.653776 5.61798 0.666902 5.59012C0.676605 5.56959 0.727828 5.59817 0.713467 5.5702C0.707049 5.55778 0.674151 5.57716 0.664689 5.55404C0.655224 5.53101 0.661163 5.47494 0.663968 5.45378C0.666796 5.43263 0.706198 5.44754 0.709056 5.44605C0.72546 5.43709 0.748277 5.39742 0.748531 5.39371C0.768433 5.21036 0.714112 5.03739 0.751203 4.85999C0.754048 4.84614 0.795839 4.85891 0.796712 4.85684C0.818426 4.81049 0.702236 4.83895 0.667079 4.80255C0.753031 4.81439 0.738999 4.79342 0.751179 4.76078C0.757118 4.74506 0.789841 4.75654 0.793383 4.75535C0.84614 4.73512 0.781917 4.7129 0.768852 4.70746C0.720795 4.68739 0.780527 4.67468 0.748415 4.66113C0.716548 4.64761 0.665981 4.66869 0.66922 4.63637C0.700863 4.6298 0.779697 4.66034 0.794773 4.63684C0.851717 4.54913 0.802298 4.36994 0.801593 4.29513C0.800952 4.21976 0.808525 4.1964 0.800739 4.15244C0.786651 4.07287 0.844382 4.10575 0.87562 4.05916C0.906858 4.01239 0.757514 4.02473 0.726353 4.01524C0.695194 4.00591 0.7284 4.00094 0.711638 3.99106C0.694877 3.98121 0.671895 3.99794 0.6669 3.97745C0.661921 3.95689 0.722471 3.90708 0.756201 3.90208C0.827603 3.89231 0.899429 3.92282 0.877608 3.86737C0.876305 3.86418 0.836759 3.87118 0.833735 3.85913C0.810948 3.76405 0.816365 3.66685 0.796705 3.5725C0.793939 3.55956 0.749952 3.56774 0.747853 3.56017C0.725846 3.48123 0.796644 3.51362 0.880554 3.47693C0.77227 3.4788 0.708172 3.45034 0.711674 3.39191C0.713731 3.35682 0.760294 3.36622 0.795005 3.34589C0.805478 3.33964 0.774964 3.31219 0.79738 3.30918C0.870667 3.2992 0.949932 3.32836 0.921909 3.26533C0.920561 3.26257 0.880429 3.26833 0.878664 3.25897C0.867051 3.19833 0.943035 3.19758 0.956528 3.1329C0.967108 3.08228 0.926697 2.99112 0.922808 2.93229C0.801701 2.92592 0.83276 2.87353 0.917532 2.85676C0.916332 2.8199 0.923474 2.77917 0.914009 2.7425C0.910789 2.72986 0.875266 2.736 0.871568 2.73422C0.813527 2.70686 0.895649 2.69541 0.899285 2.68757C0.935106 2.60249 0.877306 2.52785 0.941577 2.44767C0.943889 2.44482 1.02828 2.44404 0.967916 2.41868C0.963748 2.41705 0.924143 2.44278 0.923064 2.40336C0.92198 2.36399 0.880197 2.28859 0.921452 2.23549C0.931391 2.22273 1.00108 2.19217 0.948707 2.16361C0.941593 2.1598 0.917302 2.16272 0.904063 2.15712C0.861892 2.13885 0.94733 2.13276 0.875762 2.11049C0.804193 2.08818 0.751517 2.04596 0.8031 1.99357C0.804605 1.99186 0.872474 1.98086 0.871927 1.96347C0.871003 1.9357 0.858031 1.89631 0.859182 1.8679C0.859758 1.85429 0.901433 1.86405 0.902258 1.8617C0.928 1.76899 0.891895 1.70303 0.876762 1.60338C0.873907 1.58541 0.931476 1.53358 0.886393 1.49787C0.837001 1.4592 0.631341 1.49789 0.680242 1.4111C0.699737 1.37568 0.960523 1.32812 0.824417 1.26572C0.856115 1.14013 0.783654 1.02804 0.825457 0.90167C0.827311 0.896096 0.899187 0.874754 0.89748 0.861294C0.894818 0.841507 0.860213 0.832594 0.857169 0.818738C0.843574 0.76137 0.868918 0.704726 0.859988 0.64905C0.859078 0.643254 0.85582 0.639823 0.851491 0.63738C0.838727 0.630203 0.820094 0.633403 0.81419 0.616018C0.806073 0.592618 0.846172 0.563091 0.813911 0.535852C0.78937 0.515761 0.691781 0.524451 0.670443 0.503223C0.755439 0.464832 0.745684 0.444675 0.746786 0.396077C0.746823 0.386475 0.779538 0.378169 0.780944 0.372683C0.786827 0.349272 0.755732 0.35045 0.761721 0.326997C0.76309 0.321276 0.789109 0.302792 0.791492 0.296837C0.811689 0.243022 0.721604 0.250162 0.708215 0.255214C0.653909 0.268083 0.671775 0.229241 0.641807 0.229586C0.613285 0.231669 0.624505 0.268974 0.598775 0.264221C0.54709 0.255588 0.496914 0.227106 0.449448 0.213487C0.430963 0.207996 0.456195 0.171326 0.453864 0.1696C0.415516 0.146273 0.364828 0.181597 0.358171 0.0937171C0.287402 0.303594 0.33684 0.0673592 0.267337 0.100921C0.261905 0.103707 0.241292 0.205522 0.256114 0.223182C0.271176 0.240876 0.302911 0.213269 0.321679 0.241167C0.32708 0.247802 0.336139 0.349185 0.337922 0.355766C0.35478 0.407074 0.398963 0.258867 0.403414 0.251168C0.449011 0.168164 0.455417 0.281044 0.458991 0.290585C0.484703 0.336149 0.52143 0.332268 0.531388 0.368855C0.537473 0.392758 0.471411 0.470409 0.479296 0.473393C0.502246 0.480477 0.636309 0.423559 0.550572 0.523568C0.531777 0.544856 0.427244 0.582156 0.519526 0.574963C0.52499 0.573393 0.610131 0.570993 0.568172 0.604997C0.562816 0.609034 0.532137 0.619309 0.530393 0.622667C0.519285 0.645105 0.547487 0.649313 0.541326 0.673697C0.538182 0.685052 0.533813 0.697912 0.532009 0.711047L0.524516 0.663712C0.520653 0.679176 0.519727 0.694963 0.5265 0.709873C0.534377 0.727249 0.596133 0.746374 0.611449 0.754226C0.65558 0.776627 0.587595 0.806698 0.639893 0.81897C0.692454 0.831482 0.769133 0.796174 0.804879 0.835547C0.721037 0.841805 0.635084 0.850097 0.550807 0.857162C0.558629 0.945086 0.589253 1.03085 0.587988 1.12033C0.587745 1.13148 0.542265 1.12132 0.540832 1.13327C0.534947 1.18329 0.568004 1.2256 0.55589 1.27845C0.546321 1.31834 0.498841 1.3626 0.486924 1.40493C0.583226 1.43027 0.550576 1.49231 0.559049 1.53838C0.561983 1.55454 0.587678 1.55354 0.595973 1.56488C0.626605 1.6077 0.541769 1.58699 0.528284 1.5985C0.470647 1.64775 0.662986 1.65518 0.657257 1.71477C0.657027 1.71792 0.55378 1.75445 0.547279 1.7596C0.504958 1.79245 0.582861 1.76588 0.589994 1.78722C0.602999 1.82639 0.626845 1.85387 0.595604 1.89818C0.586355 1.91115 0.521567 1.94095 0.57019 1.96834C0.576556 1.97195 0.610497 1.97111 0.612397 1.97392C0.643923 2.02444 0.537404 2.02185 0.500401 2.04865C0.463407 2.07532 0.535269 2.12164 0.556096 2.13146C0.609987 2.15697 0.58019 2.1144 0.585604 2.11337C0.650136 2.10077 0.637931 2.1328 0.642397 2.15703C0.746629 2.16454 0.739016 2.19824 0.646596 2.18225C0.636506 2.18044 0.646979 2.16204 0.642397 2.15703C0.539185 2.17421 0.524611 2.2104 0.618502 2.25597C0.662498 2.27725 0.715597 2.26147 0.693853 2.31945C0.684021 2.34554 0.612651 2.33203 0.591986 2.3545C0.544836 2.40581 0.608351 2.47953 0.594911 2.53393C0.590026 2.55382 0.551744 2.53218 0.547048 2.5457C0.534469 2.58137 0.562152 2.61628 0.545047 2.65129C0.543445 2.6545 0.502752 2.64417 0.501597 2.65543C0.492012 2.74092 0.513882 2.81803 0.509024 2.90809C0.50662 2.95237 0.479018 3.02783 0.480584 3.07351C0.483041 3.15343 0.53638 3.2519 0.517089 3.31904C0.504742 3.36197 0.464305 3.34936 0.434981 3.366C0.378166 3.39791 0.470814 3.46896 0.485236 3.4788C0.485718 3.47908 0.498128 3.442 0.517779 3.46368C0.560904 3.47857 0.485457 3.47839 0.485236 3.4788C0.49454 3.48548 0.498439 3.56084 0.489481 3.5751C0.484594 3.58286 0.445983 3.57548 0.444171 3.57958C0.401905 3.67785 0.384519 3.77651 0.394836 3.88077C0.395483 3.88264 0.439243 3.88325 0.440221 3.88761C0.455076 3.94783 0.3989 3.98116 0.363468 4.02757C0.328034 4.07414 0.335603 4.11341 0.408106 4.14786C0.395824 4.18362 0.424693 4.23903 0.442313 4.27122C0.459931 4.30343 0.374839 4.30091 0.372956 4.30339C0.312767 4.38147 0.357381 4.43398 0.357956 4.52121C0.358422 4.56213 0.339552 4.64252 0.326644 4.68667C0.316284 4.72177 0.334479 4.74389 0.319154 4.77519C0.317104 4.77941 0.27973 4.77194 0.278169 4.77315C0.230099 4.80549 0.323746 4.79569 0.339615 4.80447C0.397326 4.83637 0.427876 4.85565 0.3959 4.89995C0.388577 4.91009 0.25318 4.93099 0.24386 4.9494C0.231958 4.97371 0.280338 4.9681 0.266656 4.99353C0.265529 4.99571 0.236199 4.99284 0.236164 5.00925C0.235614 5.08542 0.245869 5.17053 0.236541 5.24856C0.235373 5.25931 0.189916 5.24169 0.187461 5.25717C0.175963 5.32999 0.171132 5.41055 0.187172 5.48321C0.191259 5.50119 0.224771 5.49285 0.234146 5.49744C0.290844 5.52557 0.202996 5.55195 0.200926 5.55733C0.149408 5.68456 0.218333 5.79127 0.171001 5.92071C0.168269 5.92772 0.0725158 5.97607 0.148803 6.00735C0.153874 6.00948 0.231994 6.04059 0.175476 6.05814C0.171941 6.05924 0.131941 6.04047 0.133987 6.0678C0.135994 6.09549 0.105099 6.1354 0.147477 6.17585C0.160826 6.18861 0.238547 6.22241 0.17209 6.25222C0.167465 6.2541 0.0191698 6.29665 0.117013 6.32388C0.127754 6.32683 0.178195 6.33004 0.193663 6.34301C0.193609 6.34786 0.192312 6.36235 0.192591 6.3672C0.200752 6.37312 0.200363 6.38207 0.182201 6.39586C0.171638 6.40375 0.148253 6.389 0.133355 6.40993C0.110395 6.442 0.138228 6.48497 0.0908546 6.52399C0.0824687 6.53079 0.0105896 6.5594 0.0647012 6.58337C0.073176 6.58712 0.108458 6.58049 0.112279 6.59291C0.13061 6.65199 0.106463 6.71297 0.130255 6.7727C0.138611 6.79416 0.195645 6.78378 0.210686 6.8062C0.225723 6.82862 0.239965 6.87352 0.213728 6.89645C0.187481 6.9194 0.0969916 6.89321 0.0894 6.92786C0.0564334 7.07798 0.108256 7.22751 0.114642 7.37831C0.115599 7.40058 0.0833032 7.38184 0.0823831 7.41461C0.0788595 7.53386 0.0464797 7.74586 0.114534 7.85019C0.169036 7.93428 0.21205 7.8295 0.23396 7.89354C0.244412 7.92407 0.138619 7.95756 0.135231 7.96498C0.100836 8.03854 0.14711 8.08997 0.132191 8.1556C0.129096 8.16915 0.0864595 8.15546 0.0842977 8.16699C0.0765343 8.20636 0.0952538 8.24782 0.0914349 8.28519C0.0896213 8.30217 0.0569941 8.29884 0.0593763 8.31461C0.0646998 8.3524 0.0781356 8.38577 0.108423 8.42257C0.111183 8.42593 0.151998 8.40383 0.153268 8.43157C0.155207 8.47645 0.184919 8.53213 0.1533 8.58294C0.14379 8.59801 0.069155 8.59798 0.120416 8.63092C0.131121 8.63796 0.220815 8.62944 0.143052 8.66746C0.130129 8.67388 0.0251347 8.73782 0.0921873 8.77C0.109834 8.7785 0.182985 8.80042 0.171305 8.81869C0.169445 8.82116 0.129443 8.81084 0.125404 8.82603C0.111866 8.87956 0.115672 8.93548 0.102659 8.98983C0.0991053 9.00437 0.0578065 8.98222 0.0538325 9.00407C0.0428355 9.06509 0.0527675 9.14086 0.0652654 9.19979C0.0699518 9.22152 0.104438 9.20681 0.108164 9.20842C0.168777 9.23429 0.0865574 9.24856 0.0817013 9.25691C0.0526075 9.30886 0.0908503 9.3484 0.0802431 9.39759C0.0774209 9.41104 0.0383541 9.40117 0.0348418 9.40382C0.000511111 9.43135 0.0709787 9.41122 0.0785845 9.42886C0.100125 9.47828 0.0965378 9.53279 0.0911399 9.58191C0.0890998 9.59994 0.0438738 9.57929 0.0425674 9.59548C0.0339872 9.68974 0.0375052 9.79345 0.0617942 9.88683C0.0664491 9.90452 0.101488 9.89369 0.109442 9.89743C0.165093 9.92322 0.0886221 9.95958 0.0812989 9.968C0.0478652 10.006 0.0786484 10.0222 0.0726092 10.0569C0.0425687 10.2258 0.0614504 10.4347 0.0729237 10.5922C0.0876433 10.8011 0.119725 10.9616 0.109687 11.1584C0.109093 11.1708 0.0626864 11.1579 0.0615781 11.1686C0.0493603 11.3103 0.0665967 11.4437 0.0521841 11.5869C0.0510854 11.5984 0.00712061 11.5815 0.00387572 11.5999C-0.00308913 11.6378 -0.00101725 11.6853 0.0128029 11.723C0.0194603 11.7413 0.0574501 11.717 0.0633783 11.7355C0.0772579 11.7801 0.0800776 11.8277 0.0727116 11.8724C0.069481 11.8915 0.0245918 11.8624 0.0239061 11.8872C0.0183164 12.0547 0.00946303 12.2219 0.0667526 12.394C0.0706885 12.4056 0.162247 12.4164 0.144522 12.4407C0.119083 12.4424 0.0891722 12.4421 0.0619886 12.4428C0.0457878 12.6902 0.076075 12.9342 0.0795589 13.1814C0.0796956 13.1918 0.0312523 13.1736 0.0312698 13.1937C0.0313272 13.3083 0.0172365 13.4221 0.0648259 13.5434C0.0694812 13.5551 0.154918 13.5498 0.141816 13.5837C0.139433 13.5884 0.127744 13.6436 0.109132 13.6568C0.106326 13.6586 0.0665137 13.6488 0.0652601 13.6658C0.0586922 13.7614 0.0672412 13.8665 0.0910928 13.9657C0.0950215 13.9811 0.137557 13.965 0.140724 13.9759C0.162844 14.0574 0.130143 14.1439 0.168315 14.2205C0.194016 14.2726 0.267499 14.2521 0.339599 14.2799C0.349767 14.2846 0.351226 14.3171 0.393247 14.3185C0.498906 14.3231 0.614696 14.3087 0.72731 14.3154C0.751563 14.3174 0.725246 14.3559 0.783987 14.3334C0.787917 14.3321 0.80752 14.3024 0.82745 14.294C0.841229 14.2884 0.883921 14.2988 0.901579 14.2873C0.919228 14.2745 0.883444 14.2654 0.904213 14.2476C0.925238 14.2298 0.973817 14.2388 0.979758 14.2008ZM0.521059 4.41471C0.559506 4.44611 0.410103 4.43831 0.448206 4.41075C0.450225 4.40943 0.519178 4.4131 0.521059 4.41471ZM0.701601 1.02672C0.768814 1.06047 0.672601 1.08852 0.620885 1.06467C0.569206 1.04115 0.681219 1.01659 0.701601 1.02672ZM0.728204 0.648026C0.78338 0.686126 0.572387 0.708432 0.61168 0.660979C0.613138 0.659163 0.662012 0.653163 0.696012 0.649901L0.699387 0.671223C0.709155 0.668747 0.71768 0.666699 0.723407 0.665507L0.720623 0.647919C0.724989 0.647695 0.727738 0.647705 0.728204 0.648026ZM0.360777 14.1549C0.36276 14.1554 0.364586 14.1776 0.362616 14.1781C0.315062 14.1897 0.311443 14.1452 0.360777 14.1549ZM0.636519 0.338068C0.666339 0.327295 0.662732 0.375821 0.625648 0.38661C0.597397 0.396637 0.601678 0.353185 0.636519 0.338068ZM0.561042 5.89493C0.563228 5.89554 0.563927 5.91187 0.551396 5.91054C0.511044 5.90618 0.524269 5.8846 0.561042 5.89493ZM0.0719383 0.15759C0.165913 0.159201 0.246398 -0.00712867 0.138317 0.000267496C0.118995 0.00173322 0.17293 0.0603131 0.147167 0.0733343C0.100047 0.0970491 0.0826735 -0.0152148 0.0317091 0.039041C0.0228237 0.049001 0.0665162 0.15785 0.0720829 0.15785C0.0720346 0.157763 0.0719865 0.157677 0.0719383 0.15759ZM0.698813 4.44526C0.700739 4.44598 0.700793 4.46877 0.698794 4.46917C0.650486 4.47763 0.650351 4.43171 0.698813 4.44526ZM0.610969 6.85105C0.615171 6.85237 0.618607 6.90519 0.614708 6.90685C0.536811 6.93364 0.529633 6.82686 0.610969 6.85105ZM0.919636 2.93118C0.96885 2.90933 0.976273 2.88007 0.917586 2.85688C0.919289 2.88149 0.918243 2.90621 0.919636 2.93118Z" fill="#3C8634"/>
</svg>
