<svg width="7" height="14" viewBox="0 0 7 14" fill="none" xmlns="http://www.w3.org/2000/svg">
<path d="M0.752608 0.0486262C0.796361 0.115859 0.829561 0.22606 0.843897 0.306193C0.849083 0.33273 0.819428 0.331128 0.822031 0.350189C0.827085 0.387298 0.850918 0.409216 0.853983 0.446691C0.854826 0.459039 0.810553 0.462651 0.812329 0.475239C0.822697 0.544924 0.856066 0.594243 0.875571 0.660754C0.966229 0.97623 1.08307 1.2807 1.19882 1.59076C1.23768 1.69449 1.25542 1.82917 1.31733 1.92824C1.32458 1.93978 1.35506 1.91756 1.35887 1.91868C1.4172 1.93572 1.3438 1.95364 1.345 1.98086C1.34981 2.08845 1.39373 2.19642 1.44567 2.27889C1.46818 2.31465 1.51819 2.24669 1.49766 2.30191C1.49631 2.30572 1.4562 2.31176 1.45704 2.32399C1.45895 2.35159 1.48572 2.39491 1.49101 2.41456C1.50075 2.45193 1.50368 2.45758 1.51798 2.49108C1.53724 2.53705 1.54368 2.59981 1.57396 2.64643C1.58052 2.6563 1.61101 2.62604 1.62472 2.64018C1.6382 2.65386 1.65446 2.69907 1.65239 2.7178C1.6503 2.73649 1.61867 2.7429 1.61322 2.74846C1.56697 2.79473 1.66701 2.8121 1.67187 2.81795C1.75892 2.92689 1.75846 3.04493 1.80985 3.16086C1.84746 3.24543 1.90246 3.33054 1.93718 3.41443C1.97742 3.51223 1.99365 3.60267 2.03953 3.69713C2.04433 3.7071 2.08221 3.67616 2.08816 3.68831C2.14939 3.81315 2.2034 3.94789 2.23027 4.08722C2.233 4.10139 2.1878 4.10158 2.18827 4.11674C2.19174 4.20866 2.17372 4.36985 2.35862 4.3421C2.37568 4.39801 2.39782 4.46593 2.38596 4.52889C2.37836 4.56948 2.32371 4.5575 2.35827 4.58799C2.36602 4.59489 2.39716 4.56765 2.40606 4.57922C2.44371 4.62849 2.4573 4.69085 2.49975 4.73625C2.50844 4.74538 2.53949 4.72808 2.54668 4.72857C2.60533 4.73349 2.54648 4.81132 2.54501 4.8233C2.53477 4.91432 2.57448 4.95898 2.60277 5.02557C2.60934 5.04109 2.64474 5.00361 2.65262 5.01785C2.69287 5.09179 2.72512 5.1746 2.73934 5.25867C2.74232 5.27727 2.69851 5.27839 2.69804 5.28811C2.69645 5.33083 2.76984 5.30761 2.76974 5.34812C2.76981 5.35663 2.73633 5.36668 2.73342 5.36952C2.68782 5.41413 2.77312 5.39753 2.77716 5.40203C2.83003 5.45818 2.7682 5.53685 2.80847 5.59673C2.81329 5.60368 2.84579 5.56874 2.8569 5.58939C2.93086 5.72618 2.98917 5.8872 3.01936 6.04164C3.02424 6.06592 2.98712 6.06353 2.98402 6.06657C2.93606 6.11499 3.02033 6.09516 3.02646 6.10108C3.07284 6.14869 3.03144 6.23121 3.14139 6.22914C3.21602 6.4837 3.37474 6.70068 3.39883 6.97816C3.39923 6.98165 3.35851 6.99318 3.35948 7.00008C3.37045 7.08261 3.4236 7.04189 3.51779 7.0577C3.54144 7.06169 3.47005 7.13773 3.46507 7.14388C3.44665 7.16636 3.38421 7.17932 3.38139 7.18536C3.36002 7.23449 3.54593 7.14529 3.56589 7.18998C3.5662 7.19152 3.52892 7.20107 3.52714 7.20635C3.52152 7.22284 3.54044 7.22829 3.5336 7.24503C3.51765 7.2835 3.43029 7.33355 3.5014 7.34997C3.5103 7.35191 3.60786 7.2999 3.6254 7.33558L3.62015 7.3248C3.62076 7.32586 3.62131 7.327 3.62177 7.32824C3.628 7.34489 3.66604 7.41229 3.66943 7.43484C3.67285 7.45742 3.63264 7.46202 3.63192 7.46415C3.61511 7.53872 3.58656 7.52897 3.53502 7.58917C3.4837 7.64919 3.6347 7.55986 3.65749 7.56107C3.68013 7.5621 3.66404 7.61939 3.65635 7.63538C3.64867 7.65139 3.62137 7.65104 3.61862 7.6631C3.60106 7.74263 3.70819 7.64625 3.74232 7.65118C3.823 7.6626 3.72572 7.75645 3.73491 7.80081C3.7374 7.81281 3.75902 7.79043 3.76638 7.79836C3.79551 7.83057 3.77168 7.87209 3.8269 7.89664C3.83592 7.90068 3.92296 7.89786 3.884 7.94668C3.87835 7.95366 3.84508 7.96011 3.84702 7.97916C3.84976 8.00745 3.86624 8.05339 3.88936 8.07374C3.90642 8.08871 3.94206 8.04213 3.94 8.0735C3.93905 8.08745 3.90116 8.08275 3.90168 8.10772C3.90215 8.13262 3.92989 8.18171 3.94088 8.20001C3.95188 8.21829 3.98211 8.18894 3.98533 8.18917C4.00394 8.19087 4.04065 8.21819 4.04236 8.2215C4.13352 8.38181 4.15246 8.56212 4.25703 8.71015C4.26514 8.72173 4.29841 8.69339 4.30004 8.69495C4.33839 8.72884 4.22046 8.74892 4.20268 8.7963C4.27684 8.75126 4.2723 8.77608 4.29645 8.80119C4.30815 8.81325 4.33361 8.78971 4.33734 8.78939C4.39379 8.78698 4.3437 8.8329 4.33387 8.84309C4.29775 8.88061 4.35762 8.86852 4.33354 8.89372C4.30968 8.9188 4.2549 8.91956 4.27072 8.94793C4.30237 8.94138 4.36256 8.88201 4.38573 8.89757C4.47286 8.95541 4.49877 9.13948 4.52786 9.2084C4.55725 9.27781 4.57348 9.29624 4.58382 9.33966C4.60253 9.41827 4.64243 9.36515 4.68961 9.39548C4.73687 9.42597 4.59494 9.47403 4.57012 9.49512C4.54524 9.51608 4.57768 9.50744 4.56623 9.52317C4.55477 9.53887 4.52703 9.53266 4.53059 9.55344C4.5342 9.57429 4.60956 9.59592 4.6425 9.58709C4.7119 9.56767 4.76567 9.51111 4.7677 9.57067C4.76777 9.57411 4.7287 9.58341 4.73072 9.59567C4.74762 9.69197 4.79124 9.77901 4.81071 9.87339C4.81332 9.88636 4.76971 9.89635 4.77079 9.90413C4.78199 9.98531 4.83407 9.92744 4.92565 9.92774C4.82555 9.96908 4.77806 10.0207 4.8045 10.0729C4.82034 10.1043 4.85933 10.0771 4.89926 10.082C4.91135 10.0836 4.89427 10.1209 4.91604 10.1147C4.98725 10.0948 5.04838 10.0365 5.04773 10.1054C5.0476 10.1085 5.00848 10.1192 5.01058 10.1285C5.02404 10.1887 5.09406 10.1592 5.13215 10.2132C5.16199 10.2554 5.16116 10.3552 5.18098 10.4107C5.0724 10.4647 5.12172 10.5004 5.20617 10.4821C5.21973 10.5164 5.24248 10.5509 5.24837 10.5883C5.25045 10.6012 5.21541 10.6097 5.21273 10.6128C5.17035 10.661 5.25025 10.6388 5.2567 10.6446C5.3234 10.7084 5.30005 10.7999 5.3909 10.8479C5.39416 10.8496 5.4719 10.8167 5.42659 10.864C5.42342 10.8672 5.37685 10.8593 5.39153 10.8959C5.40619 10.9324 5.39783 11.0182 5.4568 11.0506C5.47099 11.0583 5.54709 11.0586 5.51039 11.1057C5.50538 11.112 5.48193 11.119 5.47201 11.1294C5.44058 11.1629 5.5214 11.1345 5.46458 11.1834C5.40779 11.2324 5.37624 11.292 5.4444 11.3196C5.44646 11.3206 5.51311 11.3037 5.51953 11.3198C5.52972 11.3457 5.53348 11.387 5.54583 11.4126C5.55177 11.4249 5.58613 11.3993 5.58782 11.4012C5.6483 11.476 5.6414 11.5509 5.66714 11.6483C5.67166 11.6659 5.7451 11.6906 5.71793 11.7413C5.68799 11.7964 5.4839 11.8427 5.56328 11.9029C5.59525 11.9276 5.85344 11.8676 5.75337 11.979C5.83239 12.0816 5.81048 12.2132 5.89908 12.3126C5.903 12.317 5.97743 12.308 5.98122 12.321C5.98665 12.3402 5.95844 12.3621 5.96115 12.3761C5.97149 12.4341 6.01727 12.476 6.03121 12.5306C6.03268 12.5363 6.03106 12.5408 6.02806 12.5447C6.0192 12.5564 6.00083 12.5609 6.00233 12.5792C6.00418 12.6039 6.05272 12.615 6.03395 12.6528C6.01942 12.681 5.92642 12.7118 5.91528 12.7398C6.00853 12.7412 6.0076 12.7636 6.02793 12.8078C6.03179 12.8166 6.06511 12.8112 6.06858 12.8156C6.08328 12.8348 6.05428 12.8461 6.06911 12.8652C6.07264 12.8699 6.10386 12.8765 6.10841 12.881C6.14834 12.9224 6.06285 12.9517 6.04855 12.9523C5.99361 12.9621 6.02544 12.9907 5.99781 13.0023C5.97081 13.0117 5.96627 12.973 5.94456 12.9876C5.90056 13.0161 5.86585 13.0622 5.82771 13.0935C5.81294 13.1059 5.85067 13.1295 5.84922 13.132C5.82331 13.1687 5.76275 13.1564 5.79159 13.2397C5.6432 13.0753 5.78249 13.2724 5.70538 13.2692C5.69928 13.2688 5.63989 13.1836 5.64647 13.1615C5.65325 13.1393 5.69335 13.152 5.69947 13.1189C5.70179 13.1107 5.66979 13.0141 5.66881 13.0073C5.66388 12.9535 5.76335 13.072 5.77049 13.0773C5.84533 13.1353 5.80633 13.0292 5.80581 13.019C5.81129 12.967 5.84653 12.9559 5.84112 12.9184C5.8372 12.894 5.74571 12.8491 5.75176 12.8432C5.77 12.8276 5.91564 12.8265 5.7972 12.7688C5.77149 12.7567 5.66075 12.7641 5.74828 12.734C5.75392 12.7333 5.833 12.7016 5.78097 12.6871C5.77446 12.6855 5.74222 12.6883 5.73929 12.6859C5.72017 12.6697 5.74437 12.6547 5.72903 12.6347C5.72163 12.6256 5.7125 12.6155 5.70563 12.6042L5.71757 12.6506C5.70788 12.6379 5.70075 12.6238 5.70104 12.6074C5.70136 12.5884 5.75042 12.5463 5.76135 12.533C5.79293 12.4949 5.71859 12.4943 5.7617 12.4622C5.80495 12.4299 5.88935 12.4318 5.90649 12.3814C5.82708 12.409 5.74491 12.4356 5.66477 12.4626C5.63699 12.3788 5.63099 12.288 5.59425 12.2064C5.58959 12.1962 5.5519 12.2236 5.54584 12.2132C5.52055 12.1697 5.53405 12.1177 5.50192 12.074C5.47728 12.0413 5.41612 12.0195 5.38835 11.9854C5.46664 11.9239 5.41201 11.8799 5.40147 11.8343C5.39774 11.8183 5.42171 11.809 5.42481 11.7953C5.43589 11.7438 5.36629 11.7966 5.34934 11.7914C5.27687 11.7691 5.4504 11.6858 5.42144 11.6334C5.41998 11.6306 5.31072 11.6381 5.30271 11.636C5.25081 11.6227 5.33286 11.6161 5.33092 11.5937C5.32728 11.5526 5.33823 11.5179 5.29195 11.4896C5.2783 11.4814 5.207 11.4798 5.24073 11.4354C5.24513 11.4295 5.27661 11.4168 5.27724 11.4135C5.28608 11.3546 5.18937 11.3993 5.14476 11.3894C5.10021 11.3797 5.14773 11.3086 5.16294 11.2913C5.20224 11.2465 5.19183 11.2974 5.19721 11.2962C5.26143 11.2821 5.23749 11.2575 5.23195 11.2335C5.32461 11.1852 5.30422 11.1573 5.22578 11.2087C5.21724 11.2144 5.23416 11.2271 5.23195 11.2335C5.13042 11.2588 5.10266 11.2314 5.17069 11.1522C5.2026 11.1152 5.25759 11.1086 5.21459 11.064C5.19519 11.044 5.13508 11.0848 5.10718 11.0724C5.04351 11.044 5.07248 10.9511 5.03852 10.9066C5.02613 10.8903 4.99961 10.9253 4.98992 10.9148C4.9642 10.8871 4.97572 10.844 4.9461 10.8187C4.94336 10.8164 4.91012 10.8421 4.90459 10.8322C4.8618 10.7576 4.8512 10.6781 4.81094 10.5974C4.79113 10.5577 4.7358 10.4995 4.71907 10.4569C4.68955 10.3826 4.69933 10.2711 4.65494 10.2171C4.62654 10.1827 4.59445 10.2103 4.56092 10.2067C4.4961 10.2 4.55286 10.098 4.56218 10.0832C4.56251 10.0828 4.58864 10.1119 4.59806 10.0841C4.6317 10.0533 4.56255 10.0835 4.56218 10.0832C4.56806 10.0734 4.54168 10.0027 4.52779 9.99316C4.52022 9.98799 4.48772 10.0101 4.48443 10.0071C4.40658 9.93371 4.35139 9.8501 4.31941 9.75034C4.31926 9.74836 4.35916 9.7304 4.35833 9.72601C4.34801 9.66485 4.28322 9.6566 4.23225 9.62811C4.18122 9.59946 4.17255 9.56043 4.22538 9.49998C4.19989 9.47206 4.20435 9.40974 4.20771 9.37319C4.21107 9.33663 4.134 9.37279 4.13129 9.37126C4.04501 9.32354 4.06507 9.25763 4.03091 9.17736C4.01507 9.13963 3.96579 9.07337 3.93639 9.03799C3.91293 9.0099 3.92083 8.98237 3.89432 8.95975C3.89076 8.95669 3.85944 8.97841 3.85752 8.97792C3.80056 8.96736 3.89038 8.93911 3.90145 8.92475C3.94172 8.87253 3.96209 8.8427 3.91513 8.81477C3.90438 8.80837 3.77183 8.84303 3.75596 8.82984C3.73538 8.81227 3.782 8.79818 3.75933 8.78029C3.75743 8.77874 3.73166 8.79304 3.7251 8.77799C3.69431 8.70832 3.66988 8.62615 3.6303 8.55826C3.62495 8.54886 3.59024 8.5831 3.58184 8.56988C3.54233 8.50763 3.50587 8.43563 3.4917 8.36259C3.4883 8.34447 3.52236 8.33879 3.52914 8.33085C3.56998 8.2825 3.47888 8.29322 3.47484 8.28911C3.37698 8.19285 3.39779 8.06754 3.3029 7.96759C3.2976 7.96225 3.19052 7.95595 3.24808 7.89692C3.25188 7.89295 3.31119 7.83334 3.25235 7.83971C3.24868 7.84011 3.21944 7.87323 3.21045 7.84735C3.20128 7.82114 3.15706 7.79681 3.17986 7.74284C3.18704 7.72582 3.24491 7.66391 3.17208 7.66298C3.16709 7.66309 3.0141 7.68301 3.09305 7.61913C3.10173 7.61215 3.14674 7.58915 3.15577 7.5711C3.15379 7.56667 3.14684 7.55389 3.14517 7.54933C3.15031 7.54065 3.14639 7.53259 3.12424 7.52717C3.11141 7.52412 3.09582 7.54695 3.07383 7.53367C3.04001 7.51338 3.04846 7.46289 2.98948 7.44592C2.97908 7.44301 2.90175 7.44535 2.94187 7.40184C2.94816 7.39502 2.98317 7.38708 2.98173 7.37417C2.97506 7.31267 2.92866 7.26632 2.92674 7.20205C2.92587 7.17903 2.98233 7.16588 2.98722 7.13933C2.9921 7.11278 2.98731 7.06592 2.95412 7.05531C2.92091 7.04469 2.8483 7.1047 2.82756 7.07593C2.73761 6.95129 2.72571 6.79349 2.67161 6.65258C2.66363 6.63176 2.64145 6.6618 2.62758 6.6321C2.57693 6.52409 2.46292 6.34244 2.48388 6.21965C2.50045 6.12083 2.58158 6.19986 2.57622 6.13239C2.57367 6.10022 2.46328 6.11155 2.45722 6.1061C2.39642 6.05228 2.41843 5.98669 2.37864 5.9324C2.37041 5.9212 2.33673 5.95071 2.33017 5.941C2.30739 5.90796 2.30808 5.86248 2.28972 5.82971C2.2813 5.81484 2.25269 5.83087 2.2486 5.81546C2.23846 5.77867 2.23752 5.74271 2.25068 5.69689C2.25187 5.69272 2.29811 5.69676 2.28825 5.67081C2.27218 5.62886 2.2773 5.56595 2.22809 5.5319C2.21337 5.52186 2.1449 5.55156 2.17884 5.50096C2.18586 5.49024 2.27155 5.46239 2.18508 5.45842C2.17067 5.45767 2.04891 5.44076 2.09764 5.38457C2.11045 5.36975 2.16885 5.32055 2.15087 5.30843C2.14818 5.3069 2.11558 5.33228 2.10583 5.31995C2.07213 5.27622 2.05338 5.22339 2.01983 5.1787C2.01079 5.16677 1.9817 5.20351 1.96937 5.18504C1.93502 5.13343 1.914 5.05995 1.90204 5.00092C1.8977 4.97912 1.93519 4.9789 1.93797 4.97594C1.9833 4.9281 1.90218 4.94771 1.89441 4.94197C1.84706 4.90588 1.86642 4.85438 1.83713 4.81347C1.82919 4.80225 1.79727 4.82685 1.79299 4.82581C1.75055 4.8142 1.82321 4.80465 1.82317 4.78544C1.82329 4.73153 1.79832 4.68294 1.77384 4.64002C1.7648 4.62428 1.73151 4.66121 1.72388 4.64688C1.67852 4.5638 1.64051 4.46724 1.62567 4.3719C1.62291 4.35382 1.65936 4.34983 1.66517 4.34323C1.70598 4.29744 1.62136 4.29449 1.61129 4.28967C1.5655 4.2681 1.58729 4.24095 1.56796 4.21154C1.47324 4.06851 1.40752 3.86937 1.35541 3.72028C1.28586 3.52276 1.25146 3.36269 1.16401 3.18615C1.15854 3.17502 1.12106 3.20524 1.1158 3.19589C1.04825 3.07075 1.01101 2.94146 0.940881 2.81587C0.935293 2.80574 0.901675 2.83874 0.891357 2.82309C0.869912 2.79112 0.852905 2.74666 0.850618 2.70663C0.849427 2.68713 0.893947 2.69432 0.892045 2.67503C0.88705 2.62859 0.870728 2.58384 0.84616 2.54567C0.835616 2.52947 0.805991 2.574 0.795509 2.55153C0.723794 2.4001 0.649188 2.25021 0.633313 2.0695C0.632299 2.05726 0.712022 2.01096 0.686077 1.99567C0.662067 2.00424 0.634738 2.0164 0.609544 2.02663C0.496283 1.80601 0.427057 1.5701 0.331954 1.34188C0.327945 1.33229 0.290745 1.36828 0.282769 1.34983C0.237246 1.24464 0.179059 1.1458 0.174495 1.01558C0.174124 1.00302 0.254626 0.973917 0.229142 0.94806C0.225084 0.94469 0.192413 0.898697 0.170073 0.893953C0.166766 0.893379 0.134161 0.918266 0.126228 0.903113C0.0822022 0.818038 0.0482405 0.718168 0.030691 0.617686C0.0281644 0.601975 0.0736182 0.599889 0.0721706 0.588585C0.060079 0.505051 -0.00431255 0.438705 0.00022644 0.353178C0.00310169 0.295177 0.0786825 0.28478 0.133768 0.230566C0.141221 0.222192 0.129645 0.191812 0.167659 0.173852C0.262772 0.127605 0.374759 0.0948195 0.475418 0.0438812C0.496844 0.0323292 0.457421 0.00754132 0.520268 0.00483733C0.524357 0.00438975 0.554189 0.0239305 0.575812 0.0237015C0.590659 0.0233093 0.625711 -0.00317132 0.646462 0.000300994C0.667751 0.00504256 0.638531 0.0276105 0.664667 0.0356892C0.691044 0.043678 0.732034 0.0160923 0.752608 0.0486262ZM4.22291 9.21022C4.2457 9.16613 4.11172 9.23269 4.15764 9.24283C4.16002 9.24324 4.22183 9.21245 4.22291 9.21022ZM5.73572 12.2471C5.78397 12.1894 5.68454 12.2019 5.64656 12.2444C5.6085 12.2865 5.72104 12.2645 5.73572 12.2471ZM5.9107 12.584C5.94618 12.5271 5.74371 12.5905 5.79864 12.6184C5.8007 12.6195 5.84793 12.6056 5.88042 12.5951L5.87504 12.5741C5.88499 12.5725 5.89362 12.571 5.89935 12.5698L5.90379 12.5871C5.90788 12.5856 5.9104 12.5845 5.9107 12.584ZM0.202921 0.336883C0.204543 0.335637 0.197363 0.314475 0.195392 0.314883C0.147149 0.323152 0.161498 0.365366 0.202921 0.336883ZM5.94982 12.9048C5.98147 12.9029 5.95886 12.8598 5.92055 12.8646C5.89064 12.8666 5.91184 12.9048 5.94982 12.9048ZM3.67103 7.83616C3.67279 7.83472 3.66694 7.81946 3.65597 7.82567C3.62068 7.84571 3.64139 7.86025 3.67103 7.83616ZM5.50356 13.2949C5.58914 13.2561 5.72913 13.3767 5.62702 13.4129C5.60871 13.4192 5.6349 13.344 5.60608 13.3423C5.55342 13.3393 5.58212 13.4492 5.51378 13.4197C5.50167 13.4141 5.49848 13.2968 5.50359 13.2946C5.50358 13.2947 5.50357 13.2948 5.50356 13.2949ZM4.37386 9.11151C4.37534 9.11009 4.36633 9.08916 4.36434 9.08959C4.31665 9.10103 4.33478 9.14322 4.37386 9.11151ZM3.33666 6.93901C3.33999 6.93614 3.32214 6.88631 3.31791 6.88633C3.23578 6.89272 3.27165 6.99355 3.33666 6.93901ZM5.17851 10.4129C5.23236 10.4134 5.2508 10.4373 5.20618 10.4819C5.19796 10.4587 5.18716 10.4364 5.17851 10.4129Z" fill="#3C8634"/>
</svg>
