<svg width="11" height="5" viewBox="0 0 11 5" fill="none" xmlns="http://www.w3.org/2000/svg">
<path d="M0.214301 4.84263C0.282526 4.84157 0.367186 4.80883 0.428024 4.77553C0.447354 4.76511 0.431076 4.7416 0.444168 4.73323C0.470196 4.71678 0.497887 4.72379 0.522474 4.70552C0.530541 4.69935 0.509892 4.66103 0.518554 4.6555C0.566396 4.6254 0.617381 4.6244 0.667566 4.60323C0.91529 4.49866 1.1604 4.41908 1.41264 4.3298C1.49539 4.30052 1.58777 4.23491 1.67937 4.2258C1.6901 4.22476 1.69425 4.26192 1.69703 4.26428C1.74037 4.30015 1.70955 4.23162 1.72657 4.21638C1.79417 4.15611 1.88017 4.12704 1.95955 4.11785C1.99336 4.11403 1.98249 4.19382 2.00285 4.14469C2.00428 4.14136 1.98475 4.1064 1.99233 4.09973C2.00952 4.08469 2.04932 4.0798 2.06381 4.07207C2.09167 4.05701 2.09668 4.05586 2.12457 4.04671C2.16276 4.03381 2.20249 4.00089 2.24614 3.99627C2.2555 3.99539 2.2561 4.03731 2.27216 4.03935C2.28819 4.04139 2.32445 4.02616 2.33401 4.01312C2.34361 4.00007 2.32856 3.9718 2.32855 3.96421C2.32788 3.90033 2.39662 3.96675 2.4028 3.96691C2.51458 3.96769 2.5854 3.89302 2.67886 3.86079C2.75049 3.83619 2.831 3.82448 2.89849 3.79762C2.9776 3.76591 3.03871 3.7199 3.1174 3.69367C3.1258 3.69081 3.13303 3.73857 3.14335 3.73515C3.25224 3.69905 3.35619 3.65175 3.44974 3.57746C3.45895 3.57004 3.42928 3.53765 3.43746 3.52797C3.48929 3.46913 3.55436 3.35059 3.6682 3.49645C3.70798 3.47042 3.75937 3.43791 3.78115 3.38667C3.79537 3.35357 3.75111 3.32516 3.79025 3.3272C3.79911 3.32757 3.80773 3.36744 3.81974 3.36527C3.87043 3.35604 3.91058 3.32068 3.96379 3.31495C3.97451 3.31394 3.98912 3.34629 3.99466 3.35053C4.04032 3.38445 4.03386 3.29008 4.03827 3.28034C4.07096 3.20959 4.12042 3.19822 4.16934 3.166C4.17064 3.16514 4.17193 3.16427 4.17323 3.16339C4.18462 3.15554 4.19711 3.20426 4.20905 3.19811C4.27029 3.16588 4.32704 3.12254 4.37003 3.06702C4.37962 3.0545 4.34518 3.02911 4.34856 3.02144C4.36353 2.98814 4.41311 3.0468 4.42803 3.01604C4.4312 3.00965 4.40829 2.98338 4.40703 2.97961C4.38732 2.92032 4.44915 2.98025 4.45408 2.97903C4.51675 2.96561 4.49567 2.87156 4.54799 2.8484C4.55444 2.8456 4.56816 2.89005 4.5847 2.87998C4.69427 2.81371 4.79374 2.72093 4.86894 2.61478C4.88065 2.59834 4.84909 2.58149 4.84749 2.57756C4.82288 2.51578 4.88632 2.57378 4.8934 2.57214C4.94707 2.55806 4.93704 2.47364 5.02813 2.52951C5.16816 2.36656 5.36253 2.27054 5.45821 2.06574C5.45949 2.06321 5.42831 2.03484 5.43099 2.02993C5.46304 1.97053 5.49689 2.02745 5.58069 2.05995C5.60172 2.06812 5.56259 1.97468 5.56013 1.96749C5.55086 1.94113 5.50186 1.90115 5.50117 1.89509C5.49691 1.84645 5.62861 2.00504 5.65759 1.98004C5.65827 1.97899 5.62963 1.9536 5.6296 1.94864C5.62944 1.93313 5.64681 1.93804 5.64571 1.92174C5.64297 1.88421 5.58382 1.80296 5.64791 1.82483C5.65614 1.82776 5.72708 1.92088 5.74949 1.89453C5.75827 1.88399 5.8056 1.8466 5.8136 1.83007C5.82161 1.81348 5.78859 1.792 5.78846 1.78998C5.79146 1.72255 5.76501 1.71776 5.73566 1.64625C5.70662 1.57489 5.81335 1.71407 5.83295 1.72325C5.85249 1.7324 5.85224 1.67944 5.84968 1.66311C5.84706 1.64681 5.82393 1.63477 5.82453 1.62385C5.82899 1.55213 5.89587 1.67797 5.92571 1.6896C5.99611 1.71742 5.93738 1.59801 5.95687 1.56643C5.96211 1.55793 5.97441 1.58592 5.98267 1.58295C6.01493 1.57106 6.0056 1.52692 6.05806 1.53352C6.06662 1.53457 6.13759 1.57868 6.11851 1.52125C6.11574 1.51298 6.08991 1.49189 6.09677 1.47764C6.10706 1.45622 6.13282 1.4282 6.15755 1.42348C6.17488 1.42021 6.19037 1.4693 6.19792 1.45179L6.17468 1.4647C6.17528 1.46394 6.17589 1.46301 6.17653 1.4619C6.18248 1.45153 6.15469 1.42905 6.16687 1.41198C6.17897 1.39493 6.22112 1.3796 6.23731 1.37436C6.25349 1.36914 6.25975 1.4102 6.26203 1.41223C6.27549 1.4237 6.31276 1.42999 6.31539 1.42891C6.45147 1.38076 6.55262 1.26936 6.69236 1.24203C6.70326 1.23985 6.71111 1.28244 6.71293 1.28252C6.75484 1.2862 6.68757 1.18997 6.69962 1.14511C6.72572 1.22781 6.73513 1.20766 6.76352 1.20746C6.77722 1.20744 6.78205 1.24137 6.78433 1.24419C6.81958 1.28561 6.80963 1.21925 6.80829 1.20542C6.80339 1.15455 6.83607 1.20498 6.83295 1.17094C6.82993 1.13713 6.79492 1.09793 6.81921 1.0899C6.83637 1.1167 6.84587 1.19936 6.86845 1.20524C6.95458 1.22711 7.06143 1.12259 7.11592 1.09715C7.16958 1.0719 7.18891 1.07148 7.21801 1.0499C7.27079 1.01094 7.2681 1.07522 7.31319 1.08929C7.35824 1.10341 7.29433 0.968719 7.28966 0.936774C7.28492 0.904871 7.30078 0.934107 7.30177 0.915394C7.30275 0.896689 7.28212 0.88069 7.29519 0.86951C7.30816 0.858358 7.36739 0.898592 7.38304 0.928491C7.4161 0.991852 7.42015 1.06822 7.45222 1.03061C7.45405 1.0284 7.43468 0.993764 7.4423 0.987188C7.50289 0.936286 7.57573 0.911437 7.63799 0.86456C7.64653 0.85806 7.6252 0.819347 7.63003 0.815094C7.68014 0.770778 7.68103 0.846834 7.73674 0.914611C7.69813 0.813612 7.69705 0.744923 7.7417 0.730859C7.76847 0.722406 7.77732 0.768938 7.80405 0.795625C7.81207 0.80368 7.82169 0.767088 7.83139 0.787328C7.86337 0.853406 7.86838 0.936423 7.90542 0.891892C7.90701 0.889826 7.8894 0.853675 7.89573 0.849318C7.93653 0.821018 7.96308 0.892185 8.01366 0.887186C8.05368 0.883164 8.10953 0.81938 8.15041 0.800276C8.11672 0.683755 8.16621 0.698879 8.20502 0.774966C8.23257 0.763872 8.26426 0.760184 8.28831 0.741766C8.2966 0.735464 8.2814 0.703189 8.28159 0.699209C8.28431 0.636866 8.31814 0.71205 8.32503 0.713518C8.39985 0.725742 8.43764 0.652249 8.51669 0.694361C8.51948 0.695893 8.54377 0.776634 8.54555 0.712754C8.54562 0.708366 8.5154 0.676447 8.54436 0.666103C8.57246 0.655959 8.61993 0.597672 8.67019 0.625687C8.68258 0.63235 8.723 0.692946 8.73167 0.635956C8.73275 0.628241 8.72413 0.605458 8.725 0.591429C8.72801 0.546678 8.75462 0.627875 8.75304 0.55393C8.75166 0.479945 8.76998 0.419981 8.82409 0.458784C8.82579 0.459882 8.85102 0.523335 8.86414 0.51926C8.88513 0.512681 8.91205 0.492229 8.93393 0.487836C8.94442 0.485755 8.94679 0.528151 8.94876 0.528499C9.02643 0.535427 9.06778 0.488362 9.14191 0.456585C9.15509 0.450756 9.20678 0.4986 9.22555 0.448868C9.24598 0.394482 9.17566 0.198482 9.25441 0.233251C9.28779 0.246856 9.36944 0.497061 9.39557 0.354999C9.49799 0.370756 9.57923 0.2873 9.68454 0.320858C9.68938 0.32232 9.7133 0.392553 9.72319 0.39023C9.73794 0.386626 9.74141 0.351845 9.75277 0.34813C9.79812 0.332027 9.84394 0.356161 9.88678 0.347632C9.90403 0.344417 9.895 0.30985 9.91509 0.306208C9.93415 0.302754 9.95271 0.347826 9.97771 0.324084C9.99642 0.306084 10.0149 0.210363 10.0475 0.199458C10.0479 0.262428 10.0579 0.282075 10.0723 0.296388C10.0797 0.303357 10.0889 0.308992 10.0995 0.317525C10.1057 0.322592 10.0974 0.354785 10.1003 0.358859C10.112 0.376158 10.1247 0.349722 10.1358 0.368455C10.1385 0.372956 10.1373 0.404852 10.1394 0.410331C10.1576 0.458154 10.1938 0.387658 10.1998 0.375345C10.2233 0.328653 10.232 0.37045 10.2493 0.352234C10.2665 0.333997 10.2423 0.309973 10.262 0.299146C10.3025 0.276755 10.3535 0.282614 10.394 0.28112C10.4102 0.280724 10.3992 0.323336 10.4015 0.324269C10.4353 0.335048 10.4685 0.289277 10.4888 0.373788C10.5079 0.153925 10.5095 0.39479 10.5571 0.349508C10.5609 0.34584 10.5625 0.241981 10.5476 0.227177C10.5329 0.212377 10.512 0.245352 10.4916 0.221978C10.4868 0.216513 10.4587 0.119692 10.4551 0.113827C10.4267 0.0681077 10.4237 0.223132 10.4222 0.231672C10.4051 0.323711 10.3718 0.218878 10.3635 0.21156C10.3244 0.178132 10.2908 0.199291 10.2584 0.174743C10.2373 0.158851 10.2384 0.0572448 10.2217 0.0598086C10.1661 0.0681599 10.1399 0.208781 10.0914 0.0836601C10.0862 0.0702835 10.0877 0.035891 10.0848 0.0156413C10.0805 -0.0045308 10.0689 -0.0110755 10.0394 0.0324423C10.0331 0.037867 10.0011 0.11818 9.9766 0.0688388C9.97388 0.0625865 9.97247 0.0302608 9.96902 0.0277035C9.94616 0.011221 9.93051 0.0380379 9.90604 0.0274988C9.88254 0.0168755 9.84864 0.0014366 9.82487 0.0149038C9.80959 0.0230368 9.79517 0.0852657 9.78902 0.100821C9.77318 0.145388 9.743 0.0788389 9.73596 0.131612C9.72925 0.184619 9.76464 0.259315 9.73469 0.296857C9.72251 0.21367 9.7087 0.128458 9.69572 0.0448977C9.62187 0.0575457 9.54968 0.0959789 9.47734 0.104127C9.468 0.105115 9.47013 0.058959 9.45986 0.0588856C9.415 0.0590675 9.38746 0.096529 9.34079 0.0918603C9.30585 0.0878704 9.26181 0.047351 9.22383 0.0423033C9.22009 0.140908 9.16464 0.118383 9.1282 0.13467C9.11559 0.140296 9.12137 0.165342 9.1141 0.17536C9.08626 0.212636 9.0852 0.126123 9.07312 0.114931C9.02096 0.0673651 9.05584 0.256607 9.0073 0.262009C9.00488 0.262322 8.95286 0.168565 8.94715 0.163271C8.91121 0.128423 8.9502 0.199125 8.93482 0.210209C8.90667 0.230495 8.88986 0.259267 8.84784 0.237878C8.83549 0.231521 8.79604 0.174878 8.78624 0.22783C8.78495 0.234764 8.794 0.26747 8.79225 0.269905C8.7597 0.311303 8.73552 0.207602 8.70488 0.177681C8.67436 0.147743 8.65624 0.227576 8.65406 0.249884C8.64814 0.307637 8.6737 0.2693 8.67591 0.274313C8.70236 0.333853 8.67462 0.329066 8.6564 0.338981C8.6777 0.441263 8.64966 0.441543 8.63757 0.348824C8.63612 0.338724 8.65362 0.344548 8.6564 0.338981C8.61505 0.243501 8.58328 0.237631 8.57327 0.338641C8.56867 0.385977 8.59566 0.433195 8.5447 0.426047C8.52156 0.422876 8.51209 0.351135 8.48899 0.336682C8.43652 0.303652 8.39755 0.382762 8.35122 0.383847C8.33468 0.384166 8.33999 0.342126 8.32832 0.341041C8.29724 0.33807 8.27953 0.373247 8.24674 0.366274C8.24375 0.365597 8.23962 0.324061 8.23046 0.325946C8.16045 0.339576 8.1096 0.380707 8.03842 0.4012C8.00489 0.410828 7.93776 0.406109 7.90322 0.420752C7.84466 0.445429 7.78591 0.525007 7.7301 0.526425C7.69384 0.527489 7.68939 0.485824 7.66684 0.463255C7.62316 0.419494 7.60128 0.528017 7.599 0.544509C7.59895 0.545039 7.63111 0.545425 7.62161 0.570421C7.62535 0.615358 7.59939 0.544589 7.599 0.544509C7.59698 0.555296 7.54256 0.581758 7.5286 0.577855C7.52108 0.575672 7.51304 0.537286 7.50933 0.536857C7.42081 0.527668 7.34045 0.542681 7.26686 0.585672C7.26571 0.586874 7.28125 0.627753 7.27838 0.630058C7.23851 0.663385 7.19376 0.621829 7.1461 0.604152C7.09868 0.586425 7.07165 0.606663 7.07353 0.685128C7.04258 0.685549 7.01291 0.730604 6.99621 0.757568C6.97952 0.784523 6.94868 0.705229 6.94608 0.704342C6.86393 0.675685 6.84418 0.734081 6.78037 0.764611C6.74993 0.779312 6.68403 0.789739 6.64702 0.793246C6.6177 0.795873 6.60834 0.820473 6.57921 0.817543C6.57528 0.81717 6.56568 0.780374 6.56415 0.779379C6.52085 0.746987 6.566 0.829021 6.56597 0.84663C6.56588 0.910689 6.56477 0.94519 6.51999 0.931624C6.50974 0.928517 6.43971 0.812387 6.42209 0.810657C6.39932 0.808618 6.42337 0.850614 6.3991 0.847364C6.39704 0.847129 6.38704 0.819405 6.37499 0.825329C6.31884 0.852504 6.26298 0.892199 6.20177 0.912791C6.19346 0.915705 6.18707 0.868046 6.17476 0.871552C6.11715 0.887992 6.05759 0.913335 6.0116 0.95528C6.00036 0.965731 6.02085 0.992783 6.02158 1.00296C6.02362 1.03317 6.01104 1.03194 5.99707 1.02287C5.98012 1.03143 5.9309 1.05511 5.91659 1.06759C5.89992 1.06223 5.87973 1.04901 5.87734 1.04974C5.76449 1.08204 5.74504 1.19447 5.63578 1.23432C5.62992 1.23619 5.53591 1.19416 5.56925 1.26827C5.57136 1.27328 5.60642 1.3483 5.5577 1.31717C5.55465 1.31522 5.53836 1.2751 5.52378 1.29247C5.50922 1.30981 5.46415 1.31117 5.46979 1.36564C5.4715 1.38285 5.50574 1.45866 5.44287 1.42807C5.43866 1.42576 5.31151 1.34405 5.36409 1.43021C5.37277 1.44437 5.44316 1.52294 5.38237 1.50373C5.37065 1.49995 5.36428 1.47443 5.34178 1.47435C5.3072 1.47413 5.29949 1.51803 5.24461 1.50338C5.23497 1.50072 5.1701 1.46219 5.1914 1.51569C5.19474 1.52406 5.2221 1.54693 5.21714 1.55647C5.1937 1.60192 5.14095 1.61679 5.12115 1.66658C5.11411 1.68415 5.15815 1.72125 5.15501 1.7443C5.15185 1.76737 5.13503 1.80169 5.10412 1.79423C5.07319 1.78676 5.0283 1.70541 5.00292 1.71805C4.8927 1.77294 4.84065 1.88935 4.75759 1.97073C4.74529 1.98279 4.73501 1.94886 4.71537 1.96482C4.64285 2.02386 4.50185 2.10127 4.48282 2.20464C4.46761 2.28759 4.55671 2.27021 4.53241 2.31841C4.52043 2.34168 4.43459 2.27503 4.42824 2.2758C4.36405 2.28336 4.36216 2.34386 4.31363 2.36279C4.30359 2.36669 4.2858 2.32651 4.27756 2.33018C4.2494 2.34224 4.23608 2.37609 4.21087 2.39044C4.19958 2.39674 4.18214 2.36901 4.17428 2.37795C4.15531 2.39896 4.14312 2.42485 4.13892 2.46565C4.13852 2.46937 4.17594 2.49246 4.15999 2.50584C4.1342 2.52732 4.11674 2.5768 4.06717 2.57342C4.05227 2.57239 4.00935 2.51136 4.01828 2.5679C4.02021 2.57965 4.0763 2.64986 4.00875 2.60237C3.99737 2.59461 3.89896 2.5354 3.91676 2.60455C3.92152 2.62271 3.94923 2.69245 3.9312 2.69063C3.92861 2.69015 3.9126 2.65263 3.90089 2.65575C3.8825 2.66095 3.8656 2.66929 3.84866 2.67806C3.83159 2.6864 3.81372 2.6956 3.79257 2.70049C3.78227 2.70277 3.7732 2.65969 3.75867 2.66413C3.72051 2.67517 3.68024 2.71034 3.65113 2.74088C3.64011 2.7524 3.6657 2.77761 3.66653 2.78142C3.67947 2.84358 3.63085 2.77642 3.62334 2.77499C3.57725 2.76692 3.57014 2.81386 3.53338 2.8208C3.52334 2.82277 3.51218 2.7846 3.50887 2.78235C3.47618 2.76048 3.52047 2.817 3.51273 2.82946C3.49138 2.86445 3.45226 2.87968 3.41779 2.89021C3.40498 2.89408 3.39932 2.84666 3.38808 2.85058C3.32047 2.87334 3.25484 2.90711 3.19938 2.95794C3.18915 2.96751 3.21044 2.99643 3.21103 3.00485C3.2153 3.06374 3.15953 3.00452 3.15079 3.00029C3.11074 2.98109 3.11166 3.01413 3.0857 3.01852C2.95641 3.04048 2.81736 3.11566 2.70656 3.1696C2.56258 3.23955 2.45631 3.31163 2.30825 3.35214C2.29887 3.35474 2.29343 3.30753 2.28517 3.3092C2.1789 3.33285 2.08342 3.38283 1.97585 3.4026C1.96704 3.4043 1.96606 3.3584 1.9515 3.3597C1.92152 3.3621 1.88694 3.37538 1.86281 3.39755C1.85101 3.40829 1.88069 3.43872 1.86856 3.4488C1.84033 3.47234 1.8063 3.48602 1.7709 3.48936C1.7558 3.49069 1.76415 3.44106 1.74557 3.44614C1.61866 3.47982 1.49298 3.50849 1.38104 3.60086C1.37339 3.60719 1.39061 3.69755 1.36703 3.68593C1.35873 3.66185 1.35071 3.63303 1.34273 3.60704C1.15443 3.6448 0.979563 3.72458 0.79437 3.77682C0.786518 3.77903 0.78818 3.72851 0.772944 3.73252C0.685103 3.75559 0.596574 3.76368 0.518143 3.83221C0.510243 3.83896 0.534803 3.92091 0.505218 3.91471C0.499952 3.91356 0.45751 3.91195 0.443082 3.89629C0.441057 3.8939 0.439076 3.85341 0.426116 3.85527C0.350025 3.867 0.274882 3.8936 0.205408 3.93403C0.194336 3.94059 0.216275 3.9792 0.208459 3.98424C0.15316 4.01963 0.0797074 4.0025 0.0295267 4.0524C-0.00438522 4.08601 0.0251337 4.1548 0.0189046 4.22986C0.0179943 4.24046 -0.00583268 4.247 0.00134961 4.28843C0.019261 4.39263 0.054304 4.50358 0.0720248 4.61493C0.0758193 4.63893 0.0375871 4.62004 0.06883 4.67352C0.070955 4.67709 0.09896 4.69123 0.108995 4.70946C0.115947 4.72207 0.117026 4.76549 0.129131 4.78097C0.141261 4.79642 0.143409 4.75939 0.161938 4.77666C0.180572 4.79415 0.184136 4.8431 0.214301 4.84263ZM6.92136 0.878443C6.9136 0.924374 6.86119 0.784275 6.896 0.810039C6.89774 0.811452 6.92179 0.876171 6.92136 0.878443ZM9.56952 0.207392C9.54892 0.277336 9.51553 0.184518 9.52756 0.131C9.54017 0.0774701 9.57593 0.186175 9.56952 0.207392ZM9.88458 0.216004C9.85355 0.2711 9.82701 0.0606395 9.8709 0.099574C9.87352 0.10177 9.88645 0.212807 9.88458 0.216004ZM0.120398 4.22956C0.120506 4.23157 0.103593 4.23715 0.102783 4.23531C0.0837345 4.1908 0.117438 4.17971 0.120398 4.22956ZM10.1959 0.266005C10.1843 0.294304 10.155 0.260002 10.1696 0.224879C10.1813 0.196638 10.2103 0.230816 10.1959 0.266005ZM5.91244 1.50851C5.91353 1.51048 5.90456 1.52011 5.89696 1.51007C5.87248 1.47769 5.8939 1.47539 5.91244 1.50851ZM10.7019 0.263747C10.6281 0.275484 10.588 0.4522 10.6708 0.42887C10.6857 0.42461 10.6358 0.374542 10.6543 0.357899C10.6875 0.327588 10.7165 0.436229 10.749 0.37535C10.7547 0.364243 10.7061 0.262714 10.7017 0.26351C10.7018 0.263589 10.7018 0.263668 10.7019 0.263747ZM6.96825 1.05232C6.96848 1.05433 6.95222 1.06199 6.95116 1.06028C6.92633 1.01866 6.95918 1.00317 6.96825 1.05232ZM5.39518 2.06667C5.39722 2.07048 5.36859 2.1009 5.365 2.09889C5.29744 2.0549 5.3552 1.99322 5.39518 2.06667ZM8.15022 0.796971C8.18147 0.837866 8.20585 0.836986 8.20495 0.775048C8.18714 0.783227 8.16789 0.78902 8.15022 0.796971Z" fill="#3C8634"/>
</svg>
