<svg width="15" height="3" viewBox="0 0 15 3" fill="none" xmlns="http://www.w3.org/2000/svg">
<path d="M14.1474 2.0966C14.0716 2.07045 13.9566 2.06497 13.8754 2.07049C13.8484 2.07189 13.8571 2.10028 13.838 2.10237C13.8008 2.10647 13.7738 2.08866 13.7367 2.09478C13.7245 2.09695 13.7317 2.14078 13.7191 2.14211C13.6489 2.14895 13.593 2.12854 13.5237 2.12574C13.1957 2.11429 12.872 2.07477 12.5431 2.03766C12.4331 2.02511 12.2981 2.04056 12.187 2.00453C12.174 2.00029 12.1882 1.96534 12.1862 1.96191C12.1555 1.90945 12.1559 1.98501 12.1292 1.99044C12.0237 2.01187 11.9083 1.99544 11.8157 1.96505C11.7755 1.95188 11.8293 1.88688 11.7807 1.92019C11.7773 1.92243 11.7812 1.96281 11.7691 1.96496C11.7419 1.96979 11.6934 1.95433 11.673 1.95397C11.6344 1.95357 11.6282 1.9521 11.5923 1.94635C11.543 1.93882 11.4805 1.94778 11.428 1.92971C11.4168 1.92575 11.4388 1.88883 11.4217 1.87896C11.4052 1.86919 11.3574 1.86439 11.3397 1.87093C11.3221 1.87749 11.3235 1.90974 11.3195 1.91637C11.2858 1.97246 11.2447 1.87962 11.2378 1.87632C11.111 1.81829 10.9966 1.84736 10.8717 1.82561C10.7805 1.80963 10.6846 1.77691 10.5948 1.76358C10.4902 1.74825 10.3985 1.75443 10.2957 1.73283C10.2849 1.7306 10.3057 1.68634 10.2925 1.68352C10.1565 1.65439 10.0127 1.63466 9.87104 1.64238C9.85663 1.64317 9.86741 1.68707 9.85259 1.69029C9.76257 1.70921 9.61055 1.76578 9.59264 1.57967C9.53427 1.57667 9.463 1.57167 9.4048 1.59844C9.36727 1.61566 9.39213 1.66577 9.35418 1.63963C9.3456 1.63379 9.36448 1.59697 9.3511 1.59115C9.29416 1.56657 9.23037 1.56851 9.17603 1.53834C9.16507 1.53212 9.17433 1.4978 9.1721 1.49094C9.15311 1.43523 9.09187 1.5112 9.08061 1.51554C8.99479 1.54754 8.94183 1.51985 8.87036 1.50855C8.85372 1.50593 8.8815 1.4625 8.86577 1.45831C8.78428 1.4372 8.69612 1.42598 8.61111 1.43258C8.59234 1.43419 8.60188 1.47697 8.59256 1.47978C8.55151 1.49168 8.55624 1.41485 8.51695 1.42478C8.50868 1.42678 8.50706 1.46169 8.505 1.4652C8.47278 1.52026 8.4682 1.43348 8.46285 1.43065C8.39556 1.39297 8.33423 1.47204 8.26638 1.44749C8.25846 1.44449 8.28448 1.4045 8.26175 1.39872C8.1111 1.36014 7.94076 1.34262 7.7836 1.35078C7.75887 1.35193 7.77019 1.38737 7.76799 1.39111C7.73264 1.44938 7.73144 1.36282 7.72421 1.3583C7.66678 1.32485 7.59677 1.38503 7.57211 1.27786C7.30705 1.26719 7.05805 1.16582 6.78302 1.20974C6.77953 1.2102 6.77822 1.2525 6.77129 1.25323C6.68857 1.2626 6.71518 1.20117 6.677 1.11362C6.66739 1.09164 6.61094 1.17934 6.60618 1.18566C6.58884 1.20898 6.5914 1.27271 6.58623 1.27691C6.54375 1.30955 6.58521 1.10756 6.53701 1.09904C6.53544 1.09911 6.53522 1.13759 6.53052 1.14059C6.51589 1.15005 6.50601 1.13301 6.49143 1.14371C6.45797 1.16851 6.43061 1.26539 6.39744 1.20039C6.39339 1.19223 6.4202 1.08497 6.38132 1.07661L6.39305 1.07909C6.39188 1.07875 6.39064 1.0785 6.38932 1.07834C6.37167 1.07634 6.29704 1.05579 6.27434 1.05796C6.25161 1.06011 6.2569 1.10024 6.25501 1.10146C6.18674 1.13584 6.20312 1.16118 6.15722 1.22578C6.11144 1.29012 6.16149 1.12197 6.15478 1.10015C6.14829 1.07844 6.09661 1.10795 6.08296 1.11928C6.0693 1.13061 6.07626 1.15701 6.06522 1.1626C5.99233 1.19893 6.05985 1.07162 6.04679 1.0397C6.01615 0.964205 5.94869 1.08134 5.90342 1.08318C5.89118 1.08367 5.90765 1.05727 5.89816 1.05205C5.85986 1.0316 5.82536 1.06479 5.78814 1.01718C5.78204 1.00941 5.76367 0.92428 5.72576 0.973916C5.72035 0.981088 5.72216 1.01493 5.70321 1.01767C5.6751 1.02187 5.62653 1.01702 5.60118 0.999524C5.58252 0.986601 5.61907 0.94073 5.58914 0.950333C5.57584 0.954637 5.58958 0.990258 5.56523 0.995818C5.54097 1.0014 5.48661 0.986382 5.46619 0.98016C5.44579 0.973918 5.46693 0.937479 5.46593 0.934415C5.45977 0.916769 5.42436 0.887783 5.42074 0.886926C5.2431 0.837359 5.06358 0.862712 4.89461 0.797157C4.88141 0.79209 4.90084 0.752945 4.89893 0.751745C4.85675 0.722755 4.86586 0.842033 4.82421 0.870777C4.84992 0.787909 4.82695 0.798331 4.79673 0.780984C4.78219 0.772559 4.79886 0.742149 4.79826 0.738461C4.78692 0.683109 4.75451 0.742842 4.74701 0.754845C4.71937 0.798981 4.71658 0.737975 4.69796 0.767444C4.67943 0.796676 4.69197 0.850006 4.66061 0.841533C4.65929 0.809242 4.70229 0.736453 4.68157 0.717742C4.60433 0.647243 4.41948 0.666745 4.34556 0.655229C4.27109 0.643555 4.24928 0.63227 4.20464 0.632776C4.12385 0.633685 4.16571 0.582096 4.12484 0.543671C4.0838 0.505217 4.07159 0.654572 4.05714 0.683766C4.04285 0.712983 4.04336 0.679411 4.03088 0.694335C4.01843 0.709263 4.03118 0.734668 4.01015 0.736251C3.98905 0.737807 3.9498 0.669938 3.95037 0.635844C3.95238 0.563804 3.99422 0.497924 3.93594 0.510398C3.93259 0.511164 3.93304 0.551323 3.92066 0.552339C3.82313 0.559297 3.72811 0.538084 3.63183 0.542078C3.61861 0.542694 3.61949 0.587426 3.61169 0.588262C3.53021 0.597085 3.57372 0.532524 3.55123 0.443751C3.53539 0.550888 3.49685 0.60948 3.43977 0.596486C3.4055 0.588728 3.42237 0.544325 3.40798 0.506759C3.40353 0.495408 3.37146 0.521031 3.37215 0.498424C3.37426 0.42449 3.41598 0.35105 3.34922 0.368407C3.34627 0.369285 3.3454 0.40982 3.33588 0.410033C3.27416 0.411591 3.28583 0.336504 3.22422 0.312633C3.176 0.29393 3.07946 0.318916 3.02079 0.31315C2.99473 0.431591 2.94812 0.392397 2.94541 0.306024C2.90885 0.30119 2.86984 0.287496 2.83211 0.290846C2.81912 0.291959 2.81937 0.328009 2.81701 0.331366C2.78055 0.384162 2.78265 0.301272 2.77552 0.296406C2.69742 0.247175 2.61435 0.292015 2.54574 0.215516C2.5433 0.212769 2.55631 0.129387 2.52144 0.184799C2.51915 0.188643 2.53806 0.231917 2.499 0.226547C2.45998 0.221189 2.37877 0.250102 2.33312 0.200732C2.32215 0.188844 2.30338 0.1151 2.26665 0.162107C2.26173 0.168505 2.26065 0.192947 2.25297 0.205094C2.22805 0.243716 2.23599 0.15843 2.20233 0.225402C2.16864 0.292369 2.11839 0.337445 2.07512 0.278001C2.07368 0.276238 2.07391 0.207483 2.05666 0.205183C2.02911 0.201561 1.98814 0.20793 1.96029 0.202156C1.94696 0.199365 1.96339 0.159843 1.96121 0.158645C1.87395 0.118113 1.80297 0.142966 1.70219 0.141627C1.684 0.141511 1.64226 0.0762526 1.59967 0.114901C1.55346 0.157317 1.55805 0.366534 1.48041 0.30412C1.44865 0.279105 1.4443 0.0140528 1.36052 0.138145C1.24179 0.0863699 1.11938 0.13956 1.00152 0.077687C0.996324 0.0749478 0.987003 0.00055218 0.973444 3.83287e-05C0.953489 -0.000565149 0.939046 0.0321204 0.924879 0.0328614C0.866061 0.0369079 0.814315 0.00265672 0.757928 0.0023777C0.75206 0.00232935 0.748143 0.00498381 0.745026 0.00885553C0.735862 0.0202766 0.735977 0.0391819 0.717861 0.0421686C0.69345 0.0463562 0.670866 0.00197501 0.638726 0.0293565C0.614897 0.0502883 0.60754 0.147987 0.583112 0.165573C0.559113 0.0754494 0.537633 0.0817835 0.489868 0.0727622C0.4804 0.0711578 0.477546 0.0375256 0.472364 0.0352427C0.450228 0.0256167 0.446313 0.0564877 0.424153 0.0467495C0.418731 0.0444647 0.404743 0.0157773 0.399257 0.0124541C0.349461 -0.0162577 0.341799 0.0737853 0.344598 0.0878192C0.348429 0.143498 0.313024 0.11953 0.308472 0.149153C0.305871 0.177631 0.344507 0.172652 0.335617 0.197261C0.318662 0.246844 0.282371 0.291697 0.261185 0.336303C0.25275 0.353643 0.220691 0.322763 0.218608 0.324781C0.189334 0.358806 0.215909 0.414581 0.128121 0.406802C0.323629 0.510884 0.0986343 0.423544 0.1204 0.497593C0.122261 0.503408 0.219345 0.540366 0.239187 0.528626C0.259103 0.516654 0.237048 0.480838 0.267635 0.466876C0.275063 0.46263 0.376565 0.470245 0.383348 0.46956C0.43672 0.461305 0.297715 0.393518 0.290846 0.38787C0.216399 0.329334 0.32881 0.341442 0.338807 0.339474C0.387958 0.321545 0.390124 0.284677 0.427846 0.280826C0.452422 0.278725 0.518246 0.356578 0.522478 0.349285C0.533213 0.3278 0.498945 0.186244 0.583616 0.287157C0.601549 0.309175 0.621284 0.418395 0.629253 0.326178C0.628595 0.32053 0.640127 0.236139 0.666825 0.283087C0.669934 0.28903 0.675062 0.320975 0.67809 0.323243C0.698414 0.337866 0.70717 0.310729 0.730221 0.320789C0.74091 0.325743 0.752884 0.332154 0.765549 0.336078L0.717625 0.335742C0.732251 0.342078 0.747675 0.345569 0.763491 0.341321C0.78192 0.336386 0.81087 0.278582 0.821117 0.264753C0.850422 0.224871 0.868991 0.296853 0.889636 0.24726C0.910561 0.197447 0.888245 0.116032 0.932926 0.0871936C0.925412 0.170933 0.919561 0.257086 0.912772 0.341386C1.00079 0.348023 1.0904 0.33181 1.17848 0.347667C1.18944 0.349728 1.17199 0.392938 1.18355 0.396303C1.23194 0.410275 1.27908 0.384569 1.32924 0.405148C1.36703 0.421101 1.40294 0.475169 1.44276 0.493838C1.48348 0.402963 1.53936 0.445305 1.58619 0.444466C1.60262 0.444209 1.60583 0.418697 1.61837 0.412364C1.66561 0.389133 1.63133 0.46945 1.64048 0.484633C1.67967 0.549538 1.71839 0.360991 1.77625 0.376372C1.77933 0.377114 1.79851 0.484939 1.80252 0.492193C1.82802 0.539309 1.81453 0.458114 1.83674 0.45456C1.87752 0.448125 1.90853 0.429085 1.94713 0.467141C1.95843 0.478384 1.97725 0.547168 2.01221 0.503669C2.01681 0.497976 2.02152 0.464353 2.0246 0.462938C2.07959 0.440082 2.05965 0.54475 2.08005 0.585632C2.10031 0.626482 2.15775 0.563147 2.17084 0.544203C2.2048 0.495199 2.15794 0.517646 2.1578 0.512137C2.15591 0.446414 2.18552 0.463685 2.21015 0.463234C2.23458 0.361626 2.26658 0.374638 2.23572 0.463207C2.23229 0.472868 2.21585 0.459532 2.21015 0.463234C2.21025 0.567866 2.24358 0.588152 2.30386 0.50296C2.33204 0.463029 2.32514 0.408066 2.37879 0.438984C2.40293 0.452944 2.37795 0.52115 2.39675 0.545207C2.43967 0.600101 2.52277 0.549472 2.57424 0.571613C2.59307 0.57968 2.56547 0.613916 2.57804 0.620756C2.61118 0.638988 2.65014 0.617377 2.68189 0.639968C2.68479 0.642073 2.66796 0.680533 2.67888 0.68351C2.76166 0.706924 2.84131 0.697936 2.92937 0.717432C2.97266 0.727033 3.0426 0.766583 3.08793 0.772496C3.16717 0.783118 3.27303 0.746571 3.33611 0.776564C3.37646 0.795754 3.35742 0.833591 3.36905 0.865237C3.39125 0.9265 3.47647 0.846694 3.48853 0.834071C3.48889 0.833642 3.45433 0.815345 3.47893 0.799496C3.50066 0.759382 3.48816 0.833786 3.48853 0.834071C3.49664 0.825982 3.57163 0.834438 3.58424 0.845604C3.59109 0.851692 3.57751 0.888581 3.58126 0.891038C3.67131 0.94878 3.76581 0.982039 3.87035 0.988881C3.8723 0.988548 3.88005 0.945476 3.88451 0.945222C3.94635 0.940398 3.97006 1.00126 4.01006 1.04379C4.05023 1.08636 4.0902 1.0853 4.13603 1.01939C4.1693 1.03735 4.22868 1.01791 4.26332 1.00579C4.29797 0.993661 4.28159 1.0772 4.28373 1.07946C4.35094 1.15159 4.41003 1.11615 4.49618 1.12982C4.53662 1.13604 4.61286 1.16778 4.65431 1.18773C4.68725 1.20368 4.71204 1.18934 4.74041 1.20957C4.74425 1.21228 4.73077 1.24793 4.73172 1.24967C4.75577 1.30237 4.76139 1.20838 4.77265 1.19416C4.81354 1.14243 4.83755 1.11544 4.87603 1.15422C4.88484 1.1631 4.88336 1.30009 4.9 1.31229C4.92204 1.328 4.9244 1.27936 4.94725 1.297C4.94922 1.29847 4.9416 1.32694 4.95779 1.32965C5.03284 1.34263 5.11849 1.34641 5.19395 1.36835C5.20436 1.37126 5.17957 1.41323 5.19443 1.41818C5.2644 1.44141 5.34309 1.45933 5.41739 1.45536C5.43579 1.45427 5.43304 1.41984 5.4391 1.41134C5.47611 1.36 5.48779 1.45098 5.49276 1.4539C5.60988 1.52549 5.7264 1.47491 5.84638 1.54274C5.85285 1.54658 5.88492 1.64895 5.92824 1.57879C5.93117 1.57413 5.97461 1.50214 5.9827 1.56076C5.9832 1.56443 5.95816 1.60083 5.98545 1.60327C6.0131 1.60581 6.04743 1.64281 6.09426 1.6076C6.10903 1.59652 6.15506 1.52536 6.17362 1.59579C6.17473 1.60066 6.1925 1.75391 6.23533 1.66182C6.23999 1.65171 6.25139 1.60247 6.26672 1.58933C6.2715 1.59017 6.28558 1.59382 6.2904 1.59433C6.29758 1.58725 6.30635 1.58909 6.31698 1.60926C6.32305 1.62097 6.30468 1.64164 6.3229 1.65975C6.35079 1.68764 6.39772 1.66719 6.42848 1.7203C6.43383 1.72969 6.45031 1.80527 6.48279 1.7558C6.48788 1.74805 6.4871 1.71216 6.49997 1.71042C6.56125 1.70198 6.61748 1.73575 6.68029 1.72203C6.70283 1.71729 6.7019 1.65933 6.72647 1.64815C6.75105 1.63698 6.79767 1.63025 6.81601 1.65988C6.83436 1.68952 6.79375 1.77452 6.8267 1.78767C6.96943 1.8447 7.12541 1.81799 7.27523 1.83631C7.29736 1.839 7.27359 1.8678 7.30577 1.87406C7.42285 1.897 7.62672 1.96356 7.74076 1.91345C7.83262 1.87341 7.73626 1.81386 7.80302 1.8027C7.83485 1.79737 7.85062 1.90722 7.85739 1.91177C7.92434 1.95771 7.98264 1.92045 8.04496 1.94589C8.05781 1.95115 8.03735 1.99098 8.04837 1.995C8.08595 2.00908 8.1299 1.99738 8.16615 2.00725C8.18261 2.01181 8.17399 2.04346 8.18994 2.04368C8.22809 2.0446 8.26321 2.03679 8.30446 2.01292C8.30823 2.01075 8.29309 1.96687 8.32066 1.97015C8.36525 1.97556 8.42504 1.95534 8.47001 1.99483C8.48332 2.00667 8.47111 2.0803 8.51197 2.0351C8.52067 2.02569 8.5269 1.93581 8.55172 2.01874C8.55595 2.03253 8.60188 2.14656 8.64458 2.08566C8.65585 2.06964 8.68941 2.00104 8.70553 2.01555C8.70767 2.01779 8.69096 2.05557 8.70528 2.06204C8.75588 2.08413 8.81167 2.0895 8.86317 2.11121C8.87693 2.1171 8.84834 2.15422 8.86925 2.16171C8.92765 2.18252 9.00403 2.18509 9.06421 2.18238C9.08641 2.18131 9.07753 2.14488 9.07973 2.14147C9.11515 2.08589 9.1158 2.16934 9.12324 2.17549C9.16974 2.21268 9.215 2.1814 9.2618 2.1999C9.27461 2.20488 9.25849 2.24181 9.26054 2.24571C9.28209 2.28407 9.27373 2.21126 9.29238 2.20664C9.34465 2.19346 9.39785 2.2059 9.44542 2.21924C9.46288 2.2242 9.43513 2.26544 9.45088 2.26938C9.54248 2.29323 9.64537 2.30669 9.74147 2.29797C9.75968 2.29627 9.75471 2.25993 9.7597 2.25269C9.79423 2.202 9.81761 2.28338 9.82473 2.29198C9.85676 2.33117 9.87782 2.30345 9.91104 2.31507C10.0728 2.37228 10.2819 2.38775 10.4392 2.40214C10.6477 2.42172 10.8113 2.41628 11.0038 2.45831C11.0159 2.46092 10.9957 2.50461 11.006 2.50744C11.1438 2.54263 11.2783 2.54741 11.4171 2.58499C11.4283 2.58795 11.4044 2.62857 11.4221 2.63478C11.4583 2.64784 11.5056 2.65355 11.545 2.64607C11.5642 2.64249 11.5464 2.60105 11.5656 2.59821C11.6119 2.5918 11.6592 2.59678 11.7022 2.61136C11.7205 2.61766 11.6845 2.6572 11.7088 2.66192C11.8731 2.69477 12.0366 2.7308 12.2158 2.70238C12.2279 2.7004 12.2535 2.61183 12.2746 2.63329C12.2721 2.65866 12.267 2.68813 12.2631 2.71505C12.5046 2.77143 12.7503 2.78138 12.9948 2.8183C13.0051 2.81987 12.9792 2.86468 12.999 2.86795C13.1121 2.8866 13.2221 2.91909 13.3495 2.89194C13.3618 2.88925 13.3705 2.80409 13.4018 2.82255C13.406 2.82567 13.4586 2.84621 13.4686 2.86673C13.4699 2.8698 13.4537 2.90747 13.4703 2.91149C13.5635 2.93357 13.6687 2.9423 13.7704 2.93496C13.7863 2.9336 13.7773 2.889 13.7886 2.88766C13.8726 2.87914 13.9525 2.92552 14.0344 2.90037C14.09 2.88352 14.0817 2.80767 14.121 2.74109C14.1273 2.73182 14.1596 2.73569 14.1678 2.69445C14.1896 2.59096 14.1942 2.47437 14.2192 2.36436C14.2253 2.34077 14.2589 2.37301 14.2462 2.31138C14.2457 2.30731 14.2195 2.2831 14.2145 2.26207C14.2113 2.24757 14.2284 2.20714 14.22 2.18786C14.2103 2.16835 14.1955 2.20217 14.1813 2.17878C14.1671 2.15512 14.184 2.10867 14.1474 2.0966ZM4.41774 0.951521C4.45499 0.918715 4.42291 1.06484 4.40193 1.02275C4.40096 1.02054 4.41584 0.953113 4.41774 0.951521ZM1.10467 0.220296C1.14894 0.159494 1.1609 0.258995 1.12894 0.306125C1.09729 0.35327 1.09135 0.23875 1.10467 0.220296ZM0.735403 0.132226C0.781999 0.0840103 0.76956 0.295814 0.729159 0.249302C0.727605 0.247567 0.729665 0.198369 0.731997 0.164293L0.753584 0.164444C0.752736 0.154402 0.752107 0.145658 0.751867 0.139813L0.734059 0.139688C0.734552 0.135345 0.73501 0.132634 0.735403 0.132226ZM14.0011 2.69978C14.0019 2.6979 14.0241 2.69974 14.0242 2.70175C14.0279 2.75056 13.9835 2.74687 14.0011 2.69978ZM0.414635 0.17208C0.408875 0.140901 0.456161 0.152381 0.460751 0.190729C0.466031 0.220238 0.423862 0.208921 0.414635 0.17208ZM5.88462 1.15373C5.88559 1.15167 5.90181 1.15365 5.89845 1.16579C5.88756 1.20489 5.86843 1.18832 5.88462 1.15373ZM0.144408 0.699622C0.16134 0.607171 0.0103808 0.500611 3.3017e-05 0.60845C-0.00167536 0.627752 0.0649238 0.584104 0.0735643 0.611647C0.0892684 0.662007 -0.0243257 0.66082 0.0208821 0.719958C0.0292578 0.73035 0.14378 0.705014 0.144688 0.699522C0.144595 0.699555 0.144502 0.699588 0.144408 0.699622ZM4.4769 0.781139C4.47792 0.779355 4.50041 0.783024 4.50048 0.78506C4.50094 0.834102 4.45562 0.826739 4.4769 0.781139ZM6.83607 1.26056C6.83805 1.25663 6.89072 1.26186 6.89173 1.26598C6.90545 1.34721 6.79893 1.33686 6.83607 1.26056ZM3.01918 0.316099C3.00566 0.263977 2.978 0.251877 2.94554 0.30599C2.97009 0.308327 2.99432 0.313396 3.01918 0.316099Z" fill="#3C8634"/>
</svg>
