<svg width="29" height="15" viewBox="0 0 29 15" fill="none" xmlns="http://www.w3.org/2000/svg">
<path d="M28.0845 12.4127C27.6813 12.5994 27.1411 12.7795 26.7303 12.899C26.5996 12.9372 26.6569 12.8898 26.5677 12.9143C26.391 12.9627 26.2374 13.0268 26.0628 13.0701C26.0046 13.0844 26.0622 13.0218 26.0022 13.0374C25.6738 13.1231 25.3707 13.2279 25.0397 13.318C24.255 13.5312 23.4745 13.7343 22.6921 13.9309C21.8395 14.1436 20.9673 14.3196 20.0573 14.3674C19.4784 14.4037 18.7697 14.3191 18.1939 14.2608C18.1264 14.2548 18.1622 14.2961 18.1491 14.2977C18.0632 14.3071 18.0266 14.3011 18.0037 14.2891C17.9714 14.2724 17.9653 14.2439 17.8899 14.2295C17.3757 14.1311 16.7988 14.0641 16.2972 14.0234C16.0834 14.0061 16.2891 14.1023 16.0792 14.038C16.0646 14.0336 16.123 14.0006 16.065 13.9901C15.9346 13.9663 15.6812 13.9455 15.5797 13.9312C15.3824 13.9032 15.3503 13.9001 15.1626 13.8787C14.9077 13.8492 14.6043 13.7952 14.3296 13.7712C14.2701 13.7661 14.3433 13.8153 14.2488 13.8108C14.1544 13.8065 13.9059 13.7719 13.8244 13.7513C13.7403 13.7306 13.7812 13.7042 13.7671 13.6951C13.6541 13.6191 13.3532 13.6592 13.3139 13.6533C13.2756 13.6488 13.2341 13.643 13.1969 13.6371C13.1438 13.6277 13.0978 13.6185 13.0353 13.5927C12.9838 13.5649 12.8389 13.5197 12.8245 13.3015C12.8923 12.9841 12.9991 13.0198 13.0669 12.9461C13.2113 12.8485 13.3496 12.784 13.4855 12.7214C13.758 12.5983 14.0274 12.4961 14.2988 12.3753C14.4991 12.2849 14.732 12.1803 14.8732 12.078C14.8814 12.0687 14.8091 12.1259 14.8335 12.2243C14.8598 12.2955 14.8656 12.2758 14.8534 12.2723C14.8301 12.2561 14.7773 12.2309 14.7275 12.2114C14.6228 12.17 14.5081 12.1347 14.3966 12.1013C13.8878 11.9533 13.4377 11.8372 12.9206 11.7178C12.8658 11.7051 12.9189 11.7662 12.8522 11.7509C12.6959 11.7149 12.5396 11.6774 12.3832 11.6363C12.3315 11.6213 12.2785 11.6097 12.1965 11.5583C12.1574 11.5317 12.0951 11.4844 12.0599 11.3888C12.0249 11.2913 12.048 11.2027 12.0646 11.1589C12.1411 11.002 12.1672 10.9639 12.1538 11.0075C12.1984 10.7794 11.9081 10.5582 11.5617 10.4099C11.5001 10.383 11.5964 10.3752 11.5345 10.3458C11.1525 10.162 10.4748 9.9478 10.1853 10.0763C9.89411 10.0135 9.53484 9.94137 9.27656 9.85101C9.10917 9.79217 9.28603 9.78385 9.07124 9.75696C9.02309 9.7506 9.07582 9.80296 9.00432 9.79034C8.91004 9.77344 8.81371 9.75204 8.71805 9.72754C8.5998 9.69362 8.4739 9.66279 8.34036 9.53851C8.17732 9.40585 8.22251 9.10931 8.29247 9.01198C8.32116 8.95832 8.30515 8.94715 8.29844 8.93367C8.29625 8.92965 8.29504 8.92569 8.2965 8.9209C8.36984 8.7381 8.42615 8.76859 8.42907 8.69891C8.42908 8.67543 8.42512 8.64852 8.41836 8.62112C8.33179 8.30764 8.18592 8.08708 7.99404 7.83042C7.944 7.76506 7.96584 7.87078 7.91636 7.80975C7.65849 7.49362 7.34368 7.20162 7.02788 6.93864C6.95735 6.88008 7.04904 6.89781 7.01645 6.8682C6.87062 6.73863 6.79125 6.7772 6.64591 6.66142C6.61491 6.6372 6.65228 6.62016 6.64834 6.61305C6.5861 6.50141 6.45723 6.52198 6.43192 6.50876C6.10698 6.34264 5.94189 6.15425 5.61652 6.00611C5.5777 5.98878 5.64431 6.07034 5.5363 6.01936C4.81584 5.67821 4.02651 5.37326 3.2947 5.03684C3.17798 4.98162 3.27565 4.98715 3.26959 4.9802C3.17883 4.87276 3.06778 4.91472 3.02618 4.89822C2.99875 4.88722 2.97296 4.87581 2.94876 4.8641C2.69249 4.73993 2.47485 4.58421 2.25817 4.59343C1.63015 4.29831 1.04452 4.18814 0.284915 3.97428C0.195539 3.91666 0.125179 3.89564 0.0293008 3.75297C-0.0350039 3.68723 0.0157954 3.46704 0.0923435 3.43551C0.159245 3.38428 0.205139 3.37094 0.259594 3.35257C0.448069 3.29806 0.61918 3.28853 0.787742 3.27857C1.12649 3.26274 1.45984 3.27517 1.79241 3.3C1.80968 3.30121 1.77861 3.34282 1.81257 3.34506C2.22263 3.374 2.14498 3.30854 2.41882 3.23552C2.48835 3.21727 2.69341 3.31972 2.71151 3.32743C2.77788 3.35555 2.70617 3.41559 2.72851 3.42135C2.91283 3.46696 2.88981 3.25988 3.1401 3.26884C3.14788 3.26947 3.11379 3.30619 3.13455 3.31072C3.19893 3.32492 3.26554 3.31231 3.32832 3.32773C3.47361 3.3634 3.51998 3.46548 3.74713 3.41554C3.77562 3.40896 3.73591 3.29072 3.95959 3.30407C4.04889 3.30985 4.44216 3.31942 4.54953 3.32705C4.65939 3.33547 4.58378 3.37256 4.59173 3.37427C4.84183 3.41694 4.80036 3.43584 4.872 3.48466C4.88497 3.49256 4.90135 3.50114 4.92327 3.51066C5.07415 3.5776 5.0267 3.40476 5.0883 3.3834C5.14984 3.36176 5.37 3.40246 5.42342 3.41776C5.47693 3.43262 5.40975 3.45584 5.45736 3.46445C5.77226 3.52221 5.59781 3.37975 5.7026 3.35389C5.95021 3.29344 6.13717 3.42897 6.36131 3.44453C6.42186 3.44867 6.37277 3.41854 6.42667 3.4163C6.63963 3.40703 6.76894 3.44778 7.00892 3.40087C7.04902 3.39343 7.23591 3.30496 7.36466 3.34858C7.38318 3.35489 7.33625 3.39269 7.4265 3.39007C7.45352 3.38918 7.48518 3.38738 7.51894 3.3846C7.65206 3.37535 7.82394 3.33202 7.92556 3.28102C8.01853 3.23363 7.88942 3.23186 8.01264 3.19425C8.06727 3.17559 7.98504 3.25168 8.08783 3.21232C8.19373 3.17724 8.41914 3.00467 8.48337 2.91925C8.55142 2.83804 8.48171 2.85668 8.4855 2.8484C8.49282 2.83 8.51197 2.79496 8.53009 2.75679C8.55481 2.70315 8.57486 2.62639 8.57884 2.61636C8.63445 2.47525 8.66551 2.29799 8.8085 2.13983C9.49548 1.48546 10.3676 1.94371 11.0149 2.24163C11.0792 2.2731 11.0567 2.21328 11.0667 2.21769C11.2954 2.31841 11.069 2.32707 11.203 2.44136C11.2147 2.38434 11.2545 2.39141 11.3183 2.41707C11.3563 2.43185 11.4027 2.45531 11.4492 2.46224C11.5079 2.46601 11.4755 2.42699 11.4819 2.42478C11.5067 2.38272 11.5739 2.39004 11.6025 2.3791C11.6864 2.35266 11.6736 2.24522 11.7241 2.21151C11.7282 2.20862 11.7319 2.20672 11.7354 2.20565C11.7484 2.20203 11.7575 2.21034 11.7656 2.21859C11.7739 2.22729 11.7813 2.2359 11.7919 2.2298C11.8019 2.22447 11.8156 2.20428 11.8337 2.15626C11.8208 2.10239 11.703 2.18629 11.7332 2.0672C11.8389 1.63326 12.0889 0.81069 12.3321 0.451023C12.3402 0.438491 12.3481 0.426782 12.3557 0.415826C12.6019 0.0763681 12.8332 0.0577973 13.0605 0.0983562C13.1794 0.125217 13.2461 0.152697 13.2938 0.165196C13.4164 0.202823 13.4069 0.154927 13.5863 0.225003C13.8302 0.331774 13.6403 0.395757 13.6562 0.441254C13.6695 0.486858 13.7188 0.479601 13.7459 0.518715C13.7719 0.557354 13.6828 0.523088 13.7626 0.585263C13.8427 0.645482 14.0975 0.773055 14.1466 0.771895C14.2511 0.767075 14.2006 0.626977 14.3949 0.82526C14.4059 0.836714 14.3416 0.83293 14.385 0.87525C14.7304 1.20905 15.0824 1.55517 15.4724 1.82173C15.5265 1.85781 15.4544 1.8658 15.4863 1.88731C15.6684 2.00611 15.7348 2.00766 15.7821 1.99574C15.8219 1.98229 15.8506 1.95413 15.883 1.89639C15.8795 2.01412 16.071 2.02924 16.236 1.74958C16.3306 1.58938 16.2713 1.59357 16.2959 1.47464C16.3032 1.43886 16.388 1.33828 16.378 1.30715C16.3447 1.20713 16.2213 1.28256 16.3798 1.01518C16.3868 1.00342 16.4048 1.05939 16.4266 1.01751C16.554 0.77286 16.521 0.69629 16.6141 0.458603C16.6261 0.429114 16.6404 0.398552 16.6578 0.367264C16.7252 0.239783 16.8952 0.050962 17.1334 0.0111309C17.3679 -0.0304393 17.5721 0.0534578 17.7144 0.116039C17.6661 0.222656 17.9211 0.318048 18.0634 0.317256C18.2264 0.427661 18.3947 0.555209 18.5288 0.685973C18.5748 0.730982 18.5198 0.729872 18.5235 0.738042C18.5772 0.863611 18.6922 0.859479 18.7253 0.885627C19.0291 1.13069 19.2226 1.39939 19.4905 1.62908C19.5315 1.66369 19.5775 1.70014 19.6241 1.73363C19.6364 1.74231 19.7114 1.69798 19.7517 1.82062C19.7543 1.8289 19.6268 1.76147 19.7687 1.89914C19.9118 2.03789 20.1614 2.32509 20.3952 2.47975C20.4519 2.51755 20.6245 2.57875 20.6916 2.70872C20.7005 2.72615 20.6696 2.7312 20.6805 2.75861C20.7163 2.84698 20.807 2.81326 20.8346 2.93342C20.8624 3.05377 20.9832 3.23092 21.2276 3.37744C21.2353 3.3822 21.3298 3.37493 21.3956 3.43363C21.5006 3.52736 21.6421 3.66942 21.7529 3.76586C21.8059 3.81193 21.7997 3.75081 21.8094 3.75826C22.1811 4.05337 22.4091 4.30347 22.7711 4.6596C22.838 4.72536 23.0721 4.86658 23.1689 5.0257C23.2734 5.20086 22.9916 5.20125 23.3316 5.48774C23.3786 5.52859 23.4519 5.55574 23.5288 5.58681C23.6779 5.65178 23.85 5.73071 23.9242 5.95003C24.3438 6.38399 24.6797 6.83663 25.1196 7.2465C25.1458 7.27089 25.1719 7.29481 25.1986 7.31879C25.2201 7.33818 25.3357 7.35349 25.3817 7.40304C25.45 7.47685 25.4633 7.54015 25.5112 7.59386C25.7105 7.81879 25.92 8.00007 26.1094 8.21996C26.1812 8.30375 26.1295 8.29787 26.2139 8.39819C26.2974 8.49856 26.3902 8.53578 26.4839 8.68868C26.5545 8.80506 26.5602 8.96783 26.6502 9.11677C26.6903 9.09294 26.7274 9.10602 26.7714 9.14614C26.81 9.18776 26.8547 9.26047 26.9128 9.35339C26.9351 9.38915 26.9452 9.33457 26.9573 9.35084C27.0073 9.41711 27.0133 9.49664 27.0603 9.56017C27.0716 9.57567 27.1014 9.56406 27.1123 9.57618C27.2077 9.67934 27.2158 9.90827 27.2155 9.94662C27.2175 10.0952 27.2768 10.1443 27.2912 10.2532C27.3048 10.3614 27.2357 10.2148 27.2612 10.3378C27.3137 10.5924 27.3973 10.9133 27.4439 11.1719C27.4628 11.2751 27.4916 11.1971 27.4952 11.2117C27.5458 11.425 27.5289 11.6468 27.6253 11.7592C27.5065 11.8599 27.5376 11.8856 27.5799 11.9541C27.6043 12.0043 27.6316 12.08 27.6001 12.2076C27.5939 12.232 27.4879 12.2506 27.482 12.1575C27.4781 12.1004 27.4927 12.0271 27.4984 11.9494L27.4986 11.9596C27.4969 11.9106 27.4919 11.8591 27.478 11.8104C27.4701 11.7802 27.3535 11.62 27.344 11.5979C27.2735 11.4236 27.4203 11.3731 27.4275 11.3616C27.5005 11.2346 27.3556 11.0425 27.3363 10.9899C27.2497 10.746 27.2146 10.5301 27.1295 10.3317C27.0734 10.2022 26.9724 10.2213 26.9406 10.1181C26.8313 9.77953 26.9111 9.60099 26.6519 9.35144C26.6087 9.31156 26.5598 9.36965 26.5209 9.27806L26.5358 9.30285C26.5217 9.27694 26.5068 9.23766 26.4895 9.17823C26.4858 9.16239 26.4371 8.95883 26.3269 8.90134C26.3132 8.89425 26.2881 8.91458 26.2745 8.90179C26.184 8.81579 26.1512 8.73523 26.0537 8.63938C25.956 8.54348 25.8335 8.4324 25.7361 8.30883C25.6775 8.23441 25.6388 8.10359 25.6186 8.06027C25.5619 7.93668 25.4159 7.88346 25.3982 7.78998C25.3799 7.6955 25.5462 7.75644 25.4239 7.57918C25.3576 7.63145 25.2827 7.67789 25.2127 7.72706C25.1187 7.62708 25.026 7.52614 24.9338 7.42479C24.7124 7.18137 24.4969 6.93381 24.2707 6.68966C24.2308 6.64676 24.2377 6.7215 24.1941 6.67617C24.0105 6.48462 23.8806 6.28994 23.6908 6.09108C23.5827 5.97785 23.4528 5.86904 23.3308 5.75434C23.2927 5.71982 23.2497 5.67986 23.2118 5.64314C23.1996 5.48478 22.9499 5.2775 22.7876 5.1118C22.7309 5.05355 22.7521 5.03835 22.7149 4.99176C22.5761 4.81914 22.5922 4.95096 22.5392 4.91983C22.3098 4.78587 22.4236 4.62926 22.1906 4.42635C22.1784 4.41562 21.9608 4.35912 21.9362 4.3459C21.7773 4.26086 21.9379 4.29972 21.8612 4.22175C21.7201 4.07878 21.6321 3.9691 21.4351 3.83694C21.3777 3.79864 21.2116 3.7387 21.1436 3.61397C21.1346 3.59758 21.1642 3.57837 21.1549 3.5676C20.9839 3.37496 20.9087 3.45073 20.775 3.38207C20.6408 3.31306 20.5191 3.10909 20.4984 3.06267C20.4437 2.94184 20.5834 3.10604 20.5916 3.10599C20.6913 3.10812 20.56 3.00805 20.469 2.92087C20.5246 2.83081 20.3876 2.71851 20.3742 2.8306C20.3728 2.84296 20.4535 2.90092 20.469 2.92087C20.3182 2.92486 20.1636 2.8063 20.0672 2.59185C20.0227 2.49159 20.1274 2.51624 19.8889 2.32629C19.78 2.23885 19.7729 2.32984 19.668 2.25999C19.5246 2.16473 19.3872 2.01682 19.2547 1.86778C19.1685 1.77074 19.0872 1.67539 19.0061 1.59884C18.9313 1.52816 18.9734 1.62718 18.9214 1.57993C18.7828 1.45445 18.6878 1.31808 18.5438 1.20285C18.5307 1.19255 18.5319 1.25019 18.4902 1.21175C18.1744 0.927117 17.8982 0.651719 17.5476 0.495557C17.4659 0.460137 17.347 0.433921 17.2742 0.447068C17.2018 0.45898 17.166 0.490596 17.12 0.539269C17.0932 0.568561 17.0635 0.60834 17.0337 0.660783C16.8682 0.960996 16.6831 1.29736 16.5626 1.56548C16.4637 1.78032 16.5214 1.75442 16.4923 1.86244C16.4599 1.96689 16.374 2.09677 16.214 2.21092C16.0651 2.3496 15.7171 2.32184 15.6917 2.27834C15.6876 2.27852 15.8139 2.31408 15.907 2.29013C15.9946 2.26793 16.0377 2.24343 15.9184 2.26447C15.772 2.24345 15.7008 2.27681 15.6917 2.27834C15.689 2.27703 15.685 2.27524 15.6799 2.27293C15.6142 2.24989 15.2603 2.05244 15.1957 2.00939C15.1554 1.9878 15.1548 2.03434 15.1341 2.02219C14.6473 1.7295 14.2719 1.36013 13.8939 1.03288C13.8875 1.02674 13.9253 1.0011 13.91 0.987054C13.6955 0.79098 13.5133 0.730483 13.3114 0.660043C13.2437 0.637087 13.1833 0.61678 13.1301 0.596946C13.0219 0.556688 12.9709 0.528093 12.9234 0.47934C12.8467 0.483244 12.7341 0.526243 12.6453 0.630783C12.6425 0.63387 12.6399 0.636996 12.6374 0.640144C12.5684 0.731714 12.6332 0.789483 12.6297 0.798484C12.526 1.15934 12.4195 1.38458 12.2831 1.808C12.2407 1.93702 12.1881 2.14327 12.1029 2.36273C12.0484 2.49346 11.9875 2.63274 11.8483 2.75919C11.738 2.86971 11.5109 2.92011 11.3867 2.88689C11.2584 2.86081 11.1923 2.81868 11.1378 2.79503C11.1022 2.77833 11.0688 2.76212 11.0357 2.74766C11.0143 2.73823 11.0174 2.78273 11.0104 2.78068C10.8222 2.73156 10.9477 2.69363 10.9208 2.66059C10.8297 2.54507 10.7694 2.47467 10.5523 2.40777C10.5016 2.3918 10.3146 2.45852 10.2311 2.43847C10.1207 2.41183 10.1754 2.37854 10.0595 2.35759C10.0497 2.35615 10.0437 2.38409 9.97653 2.36688C9.65851 2.28524 9.3686 2.29966 9.20599 2.47507C9.18547 2.49631 9.23105 2.50038 9.222 2.52425C9.2236 2.52467 9.22491 2.52454 9.22536 2.52423C9.20728 2.52087 9.1864 2.72472 8.99269 3.0614C8.8516 3.2695 8.67261 3.42236 8.49081 3.5323C8.39125 3.59027 8.43443 3.52317 8.40845 3.52827C8.25464 3.55789 8.10198 3.71367 8.06693 3.7271C7.90497 3.79734 7.74188 3.83921 7.5832 3.86091C7.05518 3.92954 6.60712 3.88065 6.06427 3.89898C6.02628 3.90046 5.7378 3.98478 5.61425 3.90395C5.60586 3.89857 5.48232 3.81571 5.37321 3.87001C5.36663 3.87346 5.44217 3.91508 5.30965 3.91035C5.2019 3.90676 5.0434 3.92578 4.89796 3.91695C4.85809 3.91528 4.81239 3.91087 4.77295 3.90317C4.71111 3.89047 4.55603 3.81074 4.37721 3.87057C4.36417 3.87511 4.08404 4.01204 3.98505 3.90867C3.96926 3.89167 3.99259 3.78715 3.77472 3.83344C3.73413 3.84246 3.80663 3.86866 3.69957 3.87943C3.53212 3.89593 3.31865 3.85944 3.1145 3.899C3.07974 3.90605 2.92695 3.97215 2.81009 3.91387C2.79167 3.90474 2.82842 3.87072 2.76542 3.86468C2.46592 3.83588 2.15211 3.85079 1.85073 3.82297C1.74536 3.81333 1.79877 3.75681 1.68738 3.74087C1.5783 3.72479 1.35092 3.71134 1.23689 3.74035C1.12495 3.76931 1.24946 3.8562 1.07972 3.86909C0.881435 3.88534 0.676713 3.90099 0.523113 3.92866C0.486839 3.93516 0.453134 3.94365 0.441895 3.94722C0.426813 3.92839 0.468604 4.02266 0.602609 3.72954C0.644914 3.57399 0.574192 3.45148 0.556637 3.4293C0.529386 3.39223 0.525791 3.39519 0.525734 3.39495C0.53159 3.40164 0.552108 3.41814 0.588521 3.44054C0.506393 3.40827 0.648275 3.45952 0.713576 3.47329C0.794867 3.49422 0.882203 3.5159 0.969196 3.53848C1.14401 3.58366 1.32029 3.63278 1.49677 3.68583C1.61014 3.72054 1.52628 3.66094 1.69486 3.71231C2.11891 3.84005 2.73584 4.07341 3.21957 4.34207C3.39877 4.44002 3.61811 4.53863 3.76505 4.62206C4.14264 4.83132 3.62449 4.67128 3.92309 4.81362C4.06488 4.88103 4.26533 4.84681 4.30332 4.85841C4.66733 4.96705 4.89471 5.11087 5.21576 5.23615C5.28197 5.26215 5.23541 5.19479 5.29179 5.21753C5.48517 5.2953 5.67502 5.40482 5.85628 5.49029C5.93716 5.52845 5.93699 5.49188 6.00994 5.53151C6.18422 5.62632 6.33321 5.72156 6.48702 5.84414C6.5009 5.85527 6.37758 5.83175 6.50431 5.90577C6.70958 6.02608 6.94437 6.20699 7.18811 6.34065C7.26037 6.38059 7.30765 6.32091 7.41987 6.46949C7.44308 6.50128 7.35135 6.54123 7.56131 6.60899C7.59633 6.6182 7.93708 6.76872 8.01542 6.94361C8.0369 6.9891 8.06681 7.12265 8.14376 7.18946C8.1545 7.19847 8.14635 7.13012 8.20661 7.19026C8.41766 7.40334 8.60706 7.66235 8.77283 7.93437C8.81695 8.00762 8.7923 7.87521 8.85658 7.98662C8.92401 8.10568 8.98802 8.24245 9.04114 8.38764C9.09047 8.52088 9.14072 8.72779 9.07785 8.95234C9.01206 9.1745 8.89948 9.28121 8.86943 9.3266C8.86333 9.33413 8.85904 9.33955 8.85635 9.34265C8.84908 9.34532 8.8194 9.32865 8.81572 9.32746C8.77725 9.32442 8.82897 9.1361 8.79873 9.11461C8.73605 9.03852 8.81151 9.10361 8.88073 9.11908C8.98684 9.15234 9.09609 9.18656 9.21789 9.20786C9.2832 9.21933 9.24559 9.17106 9.25922 9.17046C9.39902 9.16545 9.28521 9.21314 9.36853 9.23851C9.60304 9.30953 9.87547 9.35623 10.1267 9.39826C10.219 9.41368 10.1239 9.34962 10.2068 9.36402C10.6977 9.45039 11.2188 9.55115 11.719 9.7555C11.8134 9.79542 11.7406 9.80586 11.7577 9.82072C11.8727 9.92133 12.1043 9.94971 12.1582 9.97427C12.3912 10.0761 12.4705 10.1619 12.6493 10.3827C12.7846 10.5546 12.871 10.826 12.8485 11.0641C12.8029 11.3708 12.6712 11.4724 12.7217 11.4053C12.7312 11.3802 12.7647 11.2878 12.7249 11.1626C12.6832 11.0402 12.6112 10.991 12.5861 10.973C12.5307 10.9392 12.5464 10.9536 12.5624 10.9557C13.159 11.1095 13.8065 11.2548 14.3506 11.408C14.524 11.4571 14.6944 11.5081 14.8688 11.5745C14.957 11.6092 15.0455 11.6436 15.1584 11.7107C15.2196 11.755 15.2809 11.7678 15.394 11.9376C15.4523 12.0216 15.4909 12.2273 15.4246 12.3647C15.3641 12.4984 15.3009 12.5417 15.2492 12.5829C14.5561 12.9874 14.0202 13.106 13.4863 13.4208C13.4443 13.4472 13.5111 13.4605 13.4762 13.4837C13.452 13.4999 13.4305 13.5165 13.4229 13.5237C13.4145 13.5217 13.4277 13.5577 13.4865 13.405C13.5213 13.3276 13.4832 13.1291 13.4202 13.0686C13.3558 12.9923 13.3304 12.9896 13.3133 12.9787C13.2891 12.9679 13.3047 12.9757 13.3278 12.9796C13.8178 13.0677 14.3705 13.1339 14.9104 13.1869C14.9688 13.1925 14.8895 13.1392 14.9838 13.1467C15.1762 13.1618 15.4194 13.1913 15.6122 13.2267C15.7068 13.244 15.5747 13.2675 15.6701 13.2841C15.8909 13.3227 16.129 13.3519 16.3584 13.37C16.4561 13.3776 16.3145 13.3167 16.4406 13.33C16.9939 13.3879 17.542 13.4442 18.0924 13.5206C18.4034 13.564 18.6994 13.6139 18.9957 13.6547C19.052 13.6624 19.0972 13.7575 19.2205 13.7451C19.2307 13.7201 19.2313 13.6902 19.2363 13.6632C20.3195 13.6939 21.4119 13.5094 22.5051 13.229C22.6149 13.2006 22.7224 13.1724 22.8312 13.1434C22.8828 13.1297 22.7812 13.1069 22.8808 13.0801C23.4541 12.9252 24.006 12.7559 24.6019 12.6298C24.6601 12.6175 24.6563 12.7078 24.8226 12.6446C24.851 12.6338 25.1049 12.5451 25.1653 12.507C25.1734 12.5015 25.1149 12.4778 25.1974 12.4513C25.6718 12.299 26.1753 12.1465 26.6515 12.0061C26.7281 11.9836 26.662 12.0517 26.7166 12.036C27.1072 11.9227 27.5079 11.7389 27.8679 11.6223C28.1069 11.5429 28.0531 11.6475 28.2068 11.653C28.2285 11.6545 28.3662 11.5825 28.3943 11.6136C28.4671 11.6937 28.4523 11.8353 28.5376 11.9164C28.556 11.9371 28.7526 11.7809 28.6596 11.91C28.6494 11.9227 28.5099 12.0248 28.4787 12.0619C28.4595 12.0874 28.5255 12.1015 28.4808 12.1442C28.4341 12.1876 28.3599 12.1842 28.2802 12.2438C28.2008 12.3027 28.2598 12.3307 28.0845 12.4127ZM12.3127 1.18622C12.23 1.30857 12.3664 1.37316 12.3791 1.21784C12.3795 1.21032 12.3169 1.17996 12.3127 1.18622ZM24.678 6.95853C24.5967 6.77525 24.4377 6.74549 24.4913 6.8785C24.5454 7.01155 24.7031 7.01442 24.678 6.95853ZM26.0506 8.35166C25.9435 8.15266 25.7634 8.26978 25.9503 8.41506C25.961 8.42357 26.0568 8.36322 26.0506 8.35166ZM27.6338 11.9292C27.6372 11.9301 27.7436 11.8887 27.7456 11.8856C27.7839 11.8186 27.5704 11.9018 27.6338 11.9292ZM27.0957 9.93594C27.1 9.8613 26.9967 9.68994 26.9947 9.78207C26.9935 9.85515 27.091 10.0277 27.0957 9.93594ZM6.36648 3.5176C6.36423 3.51538 6.28042 3.51219 6.28192 3.52478C6.28695 3.56551 6.40404 3.55557 6.36648 3.5176ZM27.3653 13.1411C27.4676 12.6669 27.6867 12.3996 27.574 12.9242C27.5528 13.0185 27.5569 12.709 27.5191 12.8272C27.4501 13.0425 27.5279 13.2101 27.4247 13.4227C27.4059 13.4611 27.3592 13.1681 27.3652 13.1402C27.3652 13.1405 27.3652 13.1408 27.3653 13.1411ZM12.1164 1.20896C12.1135 1.21105 12.077 1.32118 12.0782 1.32445C12.1048 1.39817 12.1781 1.17724 12.1164 1.20896ZM1.47976 3.34023C1.47428 3.3355 1.20168 3.33545 1.19481 3.34017C1.05672 3.41991 1.59924 3.41973 1.47976 3.34023ZM17.7178 0.120981C17.8621 0.129514 18.0091 0.209422 18.0629 0.316881C17.9555 0.243091 17.841 0.176699 17.7178 0.120981Z" fill="#3C8634"/>
</svg>
