<svg width="3" height="11" viewBox="0 0 3 11" fill="none" xmlns="http://www.w3.org/2000/svg">
<path d="M2.37569 0.46992C2.3534 0.526503 2.29879 0.584281 2.25068 0.623833C2.23559 0.636342 2.2184 0.614071 2.20697 0.622108C2.18464 0.637879 2.18299 0.66472 2.15932 0.679274C2.15135 0.68404 2.12132 0.652942 2.11377 0.658478C2.07268 0.688964 2.05781 0.733272 2.02501 0.769912C1.86318 0.950849 1.73354 1.14899 1.60601 1.35627C1.56409 1.42435 1.48658 1.49523 1.46609 1.57736C1.46373 1.58696 1.4995 1.59753 1.50146 1.60049C1.53122 1.64632 1.46804 1.6059 1.45108 1.61876C1.38411 1.6696 1.34633 1.74493 1.33067 1.81654C1.32408 1.84715 1.40345 1.84808 1.35354 1.85998C1.35014 1.86085 1.31729 1.8382 1.31013 1.84428C1.29392 1.8581 1.2862 1.89413 1.27765 1.90651C1.26096 1.93029 1.25944 1.93497 1.24873 1.95973C1.23377 1.99351 1.19939 2.02669 1.19304 2.06697C1.19181 2.07558 1.23322 2.07989 1.23466 2.09488C1.23607 2.10988 1.22009 2.14164 1.207 2.14941C1.19389 2.15718 1.16626 2.14117 1.15876 2.14057C1.09547 2.1352 1.15991 2.20386 1.16008 2.20946C1.15986 2.31207 1.08724 2.37362 1.05877 2.4598C1.03724 2.52534 1.03044 2.59994 1.00973 2.66178C0.984999 2.73518 0.946227 2.79294 0.930579 2.86711C0.928893 2.87492 0.97688 2.87785 0.974934 2.88735C0.95434 2.98801 0.926158 3.08532 0.874119 3.17923C0.868866 3.18863 0.831008 3.16723 0.823327 3.17618C0.777088 3.23062 0.678042 3.31739 0.849682 3.3847C0.835574 3.42547 0.820501 3.47465 0.779045 3.50746C0.75238 3.52857 0.711094 3.49842 0.725897 3.53135C0.7292 3.53875 0.769554 3.53536 0.771565 3.54597C0.780035 3.59039 0.761441 3.63569 0.777029 3.68014C0.780294 3.68917 0.815744 3.69071 0.821814 3.69382C0.870902 3.71942 0.782627 3.74413 0.775732 3.75118C0.72423 3.80341 0.738993 3.84657 0.734305 3.89941C0.733219 3.91166 0.781612 3.90032 0.782285 3.91212C0.785183 3.97301 0.778309 4.03552 0.755776 4.09429C0.750653 4.10744 0.710449 4.09427 0.705931 4.10056C0.686547 4.12858 0.762948 4.13604 0.746137 4.16256C0.7427 4.16818 0.708055 4.1647 0.704238 4.16571C0.644319 4.18164 0.729007 4.19625 0.730876 4.20029C0.756464 4.25248 0.668576 4.28767 0.682624 4.33886C0.684138 4.34402 0.715825 4.33383 0.726649 4.34119C0.728539 4.34241 0.729792 4.34413 0.73014 4.34654C0.745989 4.45586 0.745834 4.57596 0.725723 4.69427C0.722688 4.71281 0.688352 4.70434 0.684466 4.70597C0.623965 4.73298 0.709831 4.73309 0.71379 4.73844C0.742805 4.78068 0.678627 4.83405 0.78355 4.84983C0.778532 5.04836 0.870727 5.23069 0.819508 5.44113C0.818957 5.44378 0.776989 5.44747 0.776066 5.45272C0.764584 5.51615 0.826258 5.4923 0.91212 5.51586C0.933678 5.52175 0.845342 5.57035 0.838969 5.57441C0.815433 5.58914 0.752318 5.59136 0.748032 5.59558C0.714669 5.63011 0.915889 5.58527 0.923204 5.62136C0.923093 5.62255 0.884951 5.6253 0.881858 5.62906C0.872131 5.64077 0.888782 5.6471 0.877829 5.65886C0.852442 5.68587 0.755777 5.71317 0.819427 5.73393C0.827665 5.7365 0.941022 5.7072 0.9421 5.74045C0.942427 5.75369 0.955905 5.81029 0.951696 5.82774C0.947492 5.84516 0.908354 5.84168 0.906984 5.84314C0.866806 5.8959 0.843283 5.88372 0.775313 5.91979C0.707611 5.9558 0.878218 5.91525 0.899163 5.92018C0.920062 5.92515 0.886086 5.96472 0.873626 5.97527C0.861161 5.98582 0.835753 5.98088 0.8292 5.98935C0.786505 6.04531 0.918507 5.99229 0.948794 6.00188C1.02048 6.02453 0.898519 6.07759 0.892437 6.11249C0.890799 6.12194 0.918423 6.10904 0.922685 6.11633C0.939175 6.1453 0.903048 6.17179 0.946422 6.19997C0.953494 6.20457 1.03576 6.21829 0.983029 6.24775C0.975413 6.25194 0.942177 6.25061 0.937602 6.26523C0.930724 6.2871 0.930553 6.32398 0.945199 6.34323C0.95604 6.3575 1.00508 6.32955 0.992526 6.35247C0.986906 6.36265 0.953158 6.35209 0.945152 6.37071C0.937145 6.38925 0.946264 6.43088 0.950246 6.44669C0.954261 6.46249 0.992479 6.44646 0.995398 6.44726C1.01221 6.45228 1.037 6.4796 1.03744 6.48233C1.06708 6.61906 1.02104 6.75699 1.063 6.88795C1.06623 6.89825 1.10746 6.88509 1.10839 6.8866C1.13131 6.92027 1.01487 6.9079 0.980821 6.93828C1.06607 6.92247 1.0527 6.93971 1.06561 6.96395C1.07189 6.97563 1.10422 6.96441 1.10777 6.96507C1.16076 6.97661 1.09721 6.9981 1.08428 7.00307C1.03675 7.02142 1.09649 7.02721 1.06471 7.03969C1.03315 7.05203 0.982466 7.03934 0.986145 7.06358C1.01777 7.06661 1.09591 7.03829 1.11127 7.05539C1.16224 7.11136 1.13115 7.22736 1.12041 7.29245C1.11893 7.30194 1.11788 7.31048 1.11759 7.31778C1.11511 7.3766 1.12127 7.39466 1.11128 7.42898C1.09262 7.49034 1.15212 7.46636 1.18007 7.50479C1.20771 7.54377 1.05968 7.52454 1.0279 7.53C0.996099 7.53504 1.0288 7.54077 1.01128 7.54707C0.993756 7.55327 0.972248 7.53945 0.96556 7.55419C0.958944 7.56864 1.01459 7.61108 1.04762 7.61738C1.11768 7.63088 1.19228 7.6139 1.16487 7.65463C1.16324 7.65695 1.12466 7.64781 1.12039 7.65673C1.08773 7.7274 1.08091 7.80074 1.0481 7.86898C1.04354 7.87827 1.00123 7.86573 0.998086 7.87105C0.965018 7.92625 1.03959 7.91258 1.11682 7.95356C1.01029 7.93496 0.94298 7.94539 0.937245 7.9887C0.933689 8.01487 0.980983 8.01602 1.01179 8.03725C1.02108 8.04367 0.986585 8.05823 1.0081 8.0645C1.07838 8.08525 1.16125 8.07796 1.12288 8.12024C1.12107 8.12207 1.08271 8.11014 1.07935 8.11683C1.05745 8.15947 1.13161 8.17594 1.13302 8.22666C1.13414 8.26642 1.07703 8.32704 1.06169 8.36882C0.94254 8.34632 0.962503 8.39115 1.04141 8.42348C1.03269 8.45082 1.03132 8.48198 1.01447 8.50661C1.0087 8.51509 0.975561 8.50192 0.971605 8.50233C0.909666 8.50804 0.98678 8.53659 0.988621 8.54331C1.00511 8.61502 0.933084 8.65402 0.977058 8.72945C0.978653 8.7321 1.05971 8.7554 0.995898 8.75762C0.991523 8.75766 0.959206 8.72829 0.949286 8.75661C0.939346 8.78503 0.881965 8.82816 0.909237 8.87786C0.915837 8.88977 0.975361 8.93216 0.918417 8.93801C0.910705 8.93874 0.888157 8.92957 0.87416 8.92982C0.829536 8.93069 0.909845 8.95983 0.836184 8.95484C0.76255 8.94973 0.702329 8.96422 0.73899 9.01711C0.740023 9.01876 0.802175 9.04678 0.79745 9.05912C0.789898 9.07868 0.768017 9.10286 0.762187 9.12351C0.759382 9.13353 0.801406 9.13938 0.801613 9.14134C0.803441 9.21559 0.752673 9.25188 0.713505 9.31764C0.706271 9.32962 0.747619 9.3854 0.696012 9.39591C0.639637 9.40693 0.455787 9.31037 0.479965 9.38782C0.489657 9.4185 0.722277 9.54219 0.578417 9.53936C0.575679 9.63918 0.478939 9.69162 0.483641 9.79564C0.483806 9.79968 0.529643 9.83258 0.538085 9.84676C0.539945 9.84764 0.540441 9.84929 0.539823 9.8504C0.532647 9.86296 0.498174 9.85716 0.492051 9.86607C0.465653 9.90309 0.478445 9.95137 0.459272 9.98953C0.452057 10.0041 0.421069 9.98645 0.412456 10.0039C0.403885 10.0212 0.442796 10.0496 0.412552 10.0662C0.389524 10.0787 0.294132 10.0629 0.27464 10.0818C0.361006 10.1175 0.35282 10.1332 0.362972 10.1722C0.364933 10.1798 0.397437 10.1865 0.399893 10.1908C0.410455 10.2087 0.381254 10.208 0.393103 10.226C0.395923 10.2304 0.42489 10.2438 0.428792 10.2482C0.462964 10.2867 0.383126 10.2861 0.369629 10.2848C0.34525 10.2837 0.339451 10.2888 0.337525 10.2955C0.33536 10.3031 0.338209 10.3126 0.325298 10.3152C0.301136 10.3199 0.292532 10.2878 0.273646 10.298C0.23484 10.3185 0.213632 10.3604 0.190339 10.3905C0.181259 10.4026 0.22185 10.419 0.221358 10.4213C0.211211 10.454 0.155879 10.4516 0.211578 10.518C0.0255514 10.3995 0.216368 10.5467 0.152489 10.5553C0.14738 10.5559 0.0646896 10.4931 0.0614494 10.473C0.0581522 10.4531 0.0962151 10.4577 0.0890267 10.4284C0.0875736 10.4213 0.0255654 10.3426 0.0225752 10.3368C0.00062944 10.2896 0.127156 10.379 0.13499 10.3828C0.218865 10.424 0.151575 10.3376 0.149438 10.3277C0.141697 10.2802 0.175351 10.2673 0.168863 10.2309C0.166029 10.2152 0.125569 10.1877 0.101485 10.1685C0.089509 10.1589 0.0815899 10.1514 0.0844594 10.1481C0.112268 10.1166 0.249593 10.1567 0.154629 10.066C0.134275 10.0466 0.0277617 10.0141 0.121763 10.0144C0.127615 10.0146 0.211999 10.0183 0.170648 9.9849C0.165422 9.98073 0.135171 9.96925 0.133577 9.9658C0.12349 9.94289 0.151869 9.94063 0.147438 9.91725C0.142999 9.8939 0.134556 9.86385 0.153594 9.84459C0.165015 9.83295 0.22826 9.83647 0.244615 9.83516C0.291507 9.83184 0.235045 9.78535 0.287676 9.7927C0.340371 9.80063 0.403814 9.85279 0.447014 9.83593C0.369938 9.80236 0.291507 9.76629 0.214464 9.73142C0.217919 9.72403 0.221648 9.71676 0.225635 9.70951C0.258736 9.65446 0.301571 9.61026 0.320537 9.55573C0.323125 9.54804 0.278205 9.53842 0.279873 9.52978C0.286748 9.49419 0.328697 9.47589 0.330113 9.43653C0.331243 9.40548 0.297606 9.35888 0.296652 9.3263C0.393571 9.34139 0.378095 9.28775 0.397339 9.25881C0.403976 9.24888 0.428019 9.25795 0.438635 9.25281C0.478109 9.23304 0.39285 9.21969 0.382918 9.20731C0.340445 9.15438 0.523999 9.21223 0.533194 9.16841C0.533768 9.16607 0.444811 9.1075 0.43979 9.10214C0.407434 9.06626 0.475057 9.10902 0.486916 9.09654C0.508538 9.07376 0.537944 9.06147 0.518697 9.0211C0.512988 9.00917 0.458263 8.96892 0.510999 8.96464C0.517912 8.96405 0.550075 8.97485 0.552539 8.97349C0.594407 8.94787 0.492246 8.91752 0.463082 8.8881C0.433933 8.85863 0.513089 8.84806 0.535266 8.84723C0.592628 8.84522 0.554446 8.86596 0.559384 8.86825C0.61824 8.89568 0.61383 8.87021 0.623732 8.85424C0.725245 8.87898 0.725808 8.8526 0.633584 8.83755C0.623506 8.83594 0.629284 8.852 0.623732 8.85424C0.528947 8.81219 0.523108 8.78322 0.6234 8.77784C0.6704 8.77524 0.71779 8.8014 0.710001 8.75419C0.706439 8.73289 0.634823 8.72285 0.619949 8.70139C0.585974 8.65256 0.663002 8.61854 0.661743 8.57624C0.661263 8.56098 0.6197 8.5663 0.61803 8.55564C0.613433 8.52743 0.647316 8.51083 0.638107 8.48149C0.63722 8.47883 0.595696 8.47599 0.5969 8.46781C0.605157 8.40576 0.641651 8.35752 0.654124 8.29336C0.660186 8.2623 0.647305 8.20313 0.656898 8.17187C0.673432 8.1179 0.742612 8.05739 0.734221 8.00749C0.728887 7.97526 0.687094 7.97701 0.660813 7.96048C0.609839 7.92883 0.711477 7.89532 0.72713 7.89027C0.727663 7.89012 0.734506 7.91791 0.757052 7.90585C0.801779 7.90203 0.727291 7.89056 0.72713 7.89027C0.737326 7.88721 0.751752 7.83476 0.744718 7.82358C0.740927 7.81743 0.701742 7.81733 0.700497 7.81422C0.671672 7.74077 0.665823 7.67182 0.685943 7.60295C0.686764 7.60175 0.730378 7.60476 0.731763 7.6019C0.752203 7.561 0.698914 7.53484 0.666979 7.50234C0.635005 7.47021 0.644887 7.44595 0.719069 7.42366C0.708754 7.39979 0.739818 7.36297 0.758298 7.34121C0.766745 7.33133 0.753648 7.32677 0.736754 7.32474C0.716546 7.32196 0.690921 7.32281 0.689923 7.32188C0.631251 7.26843 0.676288 7.23017 0.676782 7.16727C0.677232 7.13778 0.657693 7.0805 0.64422 7.05019C0.633453 7.02611 0.651089 7.00815 0.635165 6.98647C0.633032 6.98354 0.596003 6.99205 0.594423 6.99128C0.545927 6.97198 0.639291 6.97122 0.654889 6.96353C0.711573 6.93553 0.741473 6.91856 0.708402 6.8889C0.700792 6.88186 0.565676 6.87985 0.5558 6.86715C0.543187 6.85054 0.591453 6.84997 0.576989 6.83265C0.575792 6.83115 0.546753 6.83614 0.546144 6.82413C0.542981 6.76878 0.54978 6.70594 0.536851 6.6493C0.535193 6.64152 0.490916 6.65962 0.487764 6.64855C0.473027 6.59669 0.46416 6.53828 0.476036 6.48261C0.479097 6.46884 0.512757 6.47083 0.521792 6.46628C0.576402 6.43841 0.487869 6.42991 0.485518 6.42624C0.427221 6.33901 0.488797 6.25108 0.433301 6.16053C0.430126 6.15561 0.33217 6.13262 0.40552 6.09892C0.410395 6.09665 0.485557 6.06275 0.428473 6.05752C0.424904 6.05721 0.38661 6.07663 0.386791 6.05611C0.386967 6.03561 0.353484 6.00925 0.392564 5.97312C0.404862 5.96168 0.479348 5.92557 0.411515 5.91246C0.406804 5.91166 0.257164 5.90053 0.35201 5.86663C0.367629 5.86108 0.471512 5.84261 0.412303 5.82262C0.400836 5.8188 0.379931 5.83416 0.362396 5.82154C0.335397 5.80222 0.356746 5.76515 0.304814 5.74523C0.295637 5.74179 0.221046 5.734 0.270828 5.70583C0.278625 5.70142 0.314197 5.69971 0.316214 5.68971C0.326005 5.64229 0.293678 5.60052 0.308808 5.55119C0.3141 5.53372 0.371564 5.5309 0.38328 5.51136C0.394987 5.49182 0.402906 5.45573 0.374034 5.44342C0.345139 5.43106 0.259709 5.46725 0.247554 5.44253C0.194738 5.3348 0.225967 5.21109 0.214002 5.09397C0.212254 5.07664 0.182623 5.09625 0.177781 5.07107C0.159424 4.97797 0.104635 4.8161 0.163164 4.722C0.210041 4.64824 0.261805 4.7278 0.278121 4.67396C0.285908 4.64801 0.178195 4.63247 0.174256 4.62661C0.13451 4.56975 0.177437 4.52368 0.159394 4.46908C0.155681 4.45785 0.11374 4.47185 0.111058 4.46217C0.101749 4.42995 0.118002 4.39247 0.114575 4.36081C0.114495 4.36009 0.114405 4.35938 0.114303 4.35867C0.112208 4.34473 0.0796434 4.34826 0.0818077 4.33521C0.0866416 4.30403 0.0998918 4.27623 0.130231 4.24591C0.132998 4.24319 0.173772 4.26112 0.175096 4.23852C0.177146 4.2018 0.20751 4.15739 0.177091 4.115C0.167947 4.10247 0.0933002 4.10019 0.145485 4.07453C0.156407 4.06914 0.245737 4.07884 0.169264 4.04562C0.1565 4.04035 0.054028 3.98323 0.122598 3.96017C0.140621 3.95409 0.21471 3.94058 0.204011 3.92529C0.202286 3.92317 0.161809 3.92908 0.158589 3.91651C0.147955 3.87227 0.155365 3.82655 0.146471 3.78092C0.144027 3.76868 0.101214 3.78317 0.0989137 3.76494C0.0925207 3.71474 0.109129 3.65359 0.127408 3.60736C0.13423 3.59025 0.167001 3.60633 0.170862 3.60545C0.233608 3.59191 0.153507 3.57039 0.149582 3.56289C0.126283 3.51665 0.168755 3.48938 0.164065 3.4491C0.16289 3.43796 0.123055 3.44013 0.1199 3.4375C0.0893094 3.41031 0.15654 3.43687 0.166228 3.42389C0.193634 3.38752 0.197219 3.34381 0.198829 3.30344C0.199369 3.2886 0.151872 3.29753 0.152896 3.28423C0.158187 3.20502 0.177542 3.12536 0.21744 3.0557C0.22503 3.04264 0.257436 3.05855 0.265856 3.05725C0.324644 3.0487 0.256353 3.00376 0.250766 2.99532C0.225088 2.95741 0.257987 2.95193 0.258468 2.92371C0.260437 2.78438 0.323032 2.62698 0.371256 2.5084C0.433901 2.35355 0.505261 2.24315 0.549739 2.09269C0.552616 2.08317 0.505463 2.07691 0.507398 2.06846C0.534577 1.95975 0.590774 1.8638 0.620049 1.75578C0.622539 1.74693 0.576725 1.7426 0.57938 1.72778C0.584537 1.69727 0.601481 1.66254 0.626279 1.63988C0.638277 1.62884 0.665446 1.6618 0.676793 1.65045C0.70329 1.62407 0.720745 1.5913 0.728502 1.55581C0.731728 1.54065 0.681226 1.54366 0.688676 1.5253C0.738378 1.4005 0.787481 1.27626 0.899277 1.18074C0.906966 1.17416 0.992732 1.20736 0.985615 1.18211C0.963476 1.16951 0.936633 1.15631 0.912562 1.14368C0.985834 0.962697 1.10443 0.807785 1.20449 0.641963C1.20871 0.634953 1.15951 0.623227 1.1675 0.609493C1.21375 0.529912 1.24752 0.445914 1.33741 0.390585C1.34626 0.385094 1.41682 0.43342 1.41989 0.403528C1.42035 0.398211 1.43202 0.357342 1.42185 0.338557C1.42023 0.335855 1.38234 0.321342 1.38834 0.309413C1.42377 0.240485 1.47478 0.176874 1.53696 0.125658C1.54705 0.117453 1.57552 0.151581 1.583 0.14596C1.63569 0.106083 1.64627 0.0315545 1.71141 0.00379648C1.75513 -0.0146475 1.80774 0.0386156 1.87923 0.0618683C1.88931 0.0651504 1.90429 0.0460019 1.93971 0.0686664C2.02879 0.125619 2.11791 0.200322 2.21364 0.259873C2.23424 0.27272 2.23034 0.232119 2.26828 0.280515C2.27078 0.283802 2.27411 0.313456 2.28745 0.329217C2.29666 0.340134 2.33591 0.358422 2.34607 0.374793C2.35623 0.391135 2.32174 0.378169 2.33162 0.400502C2.34174 0.422948 2.38522 0.445403 2.37569 0.46992ZM0.839123 7.23615C0.877666 7.21141 0.728612 7.2239 0.766413 7.24205C0.768417 7.24292 0.837237 7.23742 0.839123 7.23615ZM0.402149 9.66182C0.473694 9.66256 0.391119 9.60859 0.337085 9.60558C0.283199 9.60228 0.380551 9.66136 0.402149 9.66182ZM0.333246 9.9517C0.39341 9.9394 0.196915 9.85948 0.224506 9.90792C0.226051 9.9107 0.329746 9.95243 0.333246 9.9517ZM1.84255 0.153296C1.84437 0.154148 1.85561 0.140779 1.85421 0.139341C1.81987 0.105228 1.79733 0.132109 1.84255 0.153296ZM0.275694 10.2288C0.305853 10.2329 0.28819 10.193 0.250781 10.1885C0.221001 10.1845 0.238609 10.2231 0.275694 10.2288ZM0.820998 6.12752C0.823119 6.12676 0.822697 6.11428 0.810387 6.11697C0.770751 6.12567 0.785305 6.14025 0.820998 6.12752ZM0.000241691 10.611C0.0527983 10.5627 0.215002 10.6423 0.14807 10.6899C0.136017 10.6984 0.125941 10.63 0.102082 10.6335C0.0587279 10.6397 0.127165 10.7286 0.0605829 10.7152C0.0484564 10.7127 -0.00304089 10.6134 0.000140846 10.6107C0.000174209 10.6108 0.000207572 10.6109 0.000241691 10.611ZM1.01663 7.20611C1.01856 7.2055 1.01868 7.18844 1.01668 7.18823C0.968524 7.18413 0.968233 7.21822 1.01663 7.20611ZM0.770611 5.40418C0.774555 5.40243 0.770916 5.36298 0.766873 5.36248C0.686716 5.35695 0.693888 5.43699 0.770611 5.40418ZM1.05838 8.36892C1.10196 8.39618 1.10323 8.41987 1.04148 8.42341C1.04815 8.40553 1.05208 8.38707 1.05838 8.36892Z" fill="#963076"/>
</svg>
