<svg width="4" height="15" viewBox="0 0 4 15" fill="none" xmlns="http://www.w3.org/2000/svg">
<path d="M0.827903 14.1232C0.856622 14.0466 0.864021 13.9402 0.861416 13.8576C0.860664 13.8317 0.832138 13.8389 0.830455 13.8208C0.827201 13.7854 0.846329 13.7568 0.841113 13.7213C0.839249 13.7096 0.795333 13.7147 0.794319 13.7025C0.789062 13.6361 0.81183 13.5789 0.816338 13.5134C0.83841 13.1911 0.888483 12.8796 0.938126 12.5583C0.954496 12.4525 0.944834 12.317 0.984569 12.2126C0.989247 12.2004 1.02362 12.2158 1.02711 12.214C1.08073 12.1863 1.00531 12.183 1.00101 12.1563C0.984168 12.0501 1.00441 11.9414 1.0389 11.8503C1.05367 11.8116 1.1164 11.8674 1.08508 11.8183C1.08298 11.8149 1.04253 11.8167 1.04086 11.8048C1.03712 11.778 1.05426 11.7325 1.05545 11.7126C1.05756 11.6742 1.05929 11.6681 1.06656 11.6329C1.07616 11.5847 1.06975 11.5233 1.08969 11.4738C1.09407 11.4633 1.13005 11.4864 1.14057 11.4704C1.15107 11.4544 1.15796 11.4072 1.15217 11.3896C1.14637 11.3719 1.11411 11.3718 1.10766 11.3674C1.05311 11.3315 1.14745 11.296 1.15101 11.2895C1.2135 11.1713 1.19034 11.0529 1.21657 10.9347C1.23654 10.8452 1.2733 10.7524 1.29001 10.6666C1.30974 10.5644 1.30762 10.4732 1.33305 10.3753C1.33569 10.3649 1.37905 10.3873 1.38237 10.3747C1.41757 10.2405 1.4422 10.1048 1.44075 9.96316C1.44056 9.94893 1.39628 9.95748 1.39368 9.94273C1.37868 9.85248 1.32747 9.70441 1.51437 9.69376C1.51979 9.63615 1.52759 9.56644 1.50302 9.50862C1.48723 9.47131 1.4363 9.49307 1.46378 9.45748C1.46993 9.44944 1.50598 9.46951 1.51228 9.45681C1.53875 9.40335 1.53971 9.33867 1.57183 9.28704C1.57846 9.27657 1.61237 9.2872 1.6193 9.28533C1.67564 9.26921 1.60206 9.20595 1.59813 9.1948C1.56921 9.11009 1.59889 9.05905 1.61287 8.98903C1.6161 8.97278 1.65844 9.00197 1.66321 8.98669C1.68734 8.90733 1.70142 8.82261 1.69783 8.73883C1.69691 8.72022 1.65384 8.7279 1.65137 8.71857C1.64097 8.67755 1.71754 8.68538 1.70901 8.64631C1.70731 8.63809 1.67249 8.63506 1.66906 8.63289C1.6152 8.59895 1.70201 8.59806 1.70502 8.59293C1.74493 8.52855 1.66801 8.46529 1.69457 8.40065C1.69783 8.39292 1.73688 8.42022 1.74344 8.39794C1.7874 8.24952 1.80937 8.08717 1.80634 7.93035C1.80593 7.90597 1.7702 7.91583 1.76653 7.91354C1.70938 7.87667 1.79587 7.87864 1.80059 7.8717C1.83565 7.81664 1.77743 7.74627 1.88508 7.7262C1.9033 7.46551 2.01066 7.22437 1.97219 6.9546C1.9718 6.9512 1.92957 6.94869 1.92897 6.94194C1.92129 6.86051 1.98217 6.88806 2.07042 6.85271C2.09259 6.84378 2.00607 6.78599 1.99984 6.78117C1.97687 6.76354 1.91314 6.76443 1.90905 6.75924C1.87722 6.71674 2.07828 6.76251 2.08766 6.71547C2.08761 6.71394 2.04917 6.71274 2.04625 6.70807C2.03706 6.69353 2.05425 6.68431 2.0438 6.66979C2.01958 6.63649 1.92324 6.60739 1.98867 6.57675C1.99713 6.5729 2.11026 6.60357 2.11309 6.56049C2.11412 6.5433 2.13059 6.46952 2.1272 6.44726C2.12382 6.42504 2.08406 6.4321 2.08275 6.43031C2.04472 6.36494 2.02032 6.38218 1.95335 6.34017C1.88663 6.29825 2.05718 6.33934 2.07859 6.33165C2.09996 6.32393 2.06752 6.27515 2.05543 6.26238C2.04333 6.24961 2.01741 6.25763 2.01119 6.24715C1.97071 6.17785 2.10163 6.23756 2.13271 6.22325C2.20626 6.18952 2.08552 6.12901 2.08104 6.08452C2.07984 6.07246 2.10714 6.08732 2.1118 6.07767C2.12986 6.03938 2.09462 6.0076 2.13983 5.96867C2.1472 5.96231 2.231 5.9397 2.17917 5.90505C2.17168 5.90012 2.13804 5.90379 2.13414 5.88526C2.12828 5.85756 2.13 5.81003 2.14579 5.78446C2.15746 5.76558 2.20556 5.79872 2.19405 5.77004C2.1889 5.75729 2.15427 5.77267 2.14715 5.7492C2.14002 5.72585 2.15148 5.67167 2.15637 5.65114C2.16129 5.63066 2.199 5.64935 2.20199 5.64817C2.21923 5.6409 2.24576 5.60469 2.24636 5.60117C2.27147 5.48318 2.2629 5.36563 2.27034 5.25012C2.27162 5.18872 2.27624 5.13161 2.29077 5.07516C2.29416 5.06176 2.3354 5.07608 2.33636 5.07409C2.35989 5.02964 2.24269 5.05247 2.20903 5.01519C2.29442 5.03055 2.28123 5.00938 2.29474 4.97759C2.30132 4.96227 2.33354 4.97503 2.33712 4.97401C2.3906 4.95671 2.3273 4.93237 2.31446 4.9265C2.26723 4.90489 2.32739 4.89512 2.29584 4.88047C2.26454 4.86586 2.2132 4.88428 2.21771 4.8528C2.24958 4.84774 2.32712 4.88109 2.34311 4.85872C2.40356 4.77439 2.36116 4.59809 2.36355 4.5245C2.36589 4.45133 2.37445 4.42856 2.36853 4.38489C2.3578 4.30621 2.41403 4.34148 2.44718 4.29748C2.48035 4.25331 2.33068 4.25832 2.29996 4.24759C2.26924 4.23699 2.30262 4.23366 2.2863 4.22317C2.26999 4.21273 2.24631 4.22806 2.24221 4.20773C2.23811 4.18739 2.30084 4.14084 2.3347 4.13798C2.40643 4.13196 2.47683 4.16515 2.45745 4.11018C2.45629 4.10701 2.41649 4.1119 2.414 4.10001C2.39548 4.00589 2.40533 3.9116 2.39037 3.81791C2.38825 3.80502 2.34392 3.81076 2.3422 3.80319C2.32419 3.72438 2.39321 3.76041 2.47882 3.72925C2.37063 3.72506 2.30802 3.69399 2.31462 3.63666C2.31855 3.60222 2.36454 3.61406 2.4003 3.59601C2.41107 3.5906 2.38207 3.56221 2.40461 3.56059C2.4783 3.5552 2.55581 3.58832 2.53129 3.52535C2.5301 3.52257 2.48972 3.52579 2.48848 3.51655C2.48026 3.45683 2.55628 3.45955 2.5734 3.39839C2.58682 3.35045 2.55227 3.25763 2.5521 3.20101C2.4317 3.18647 2.46613 3.13741 2.55184 3.12702C2.5532 3.09047 2.56304 3.05212 2.55623 3.01569C2.55392 3.00316 2.51807 3.00642 2.51451 3.0044C2.45861 2.9733 2.54135 2.96835 2.54555 2.96099C2.58757 2.88072 2.53579 2.80361 2.60654 2.73122C2.60909 2.72865 2.69317 2.73549 2.6352 2.70559C2.63119 2.70362 2.58956 2.72499 2.59184 2.6867C2.59411 2.64847 2.55931 2.57071 2.60538 2.52356C2.61648 2.51211 2.68871 2.48966 2.63948 2.45628C2.63279 2.45181 2.60833 2.45219 2.59573 2.44532C2.5556 2.4232 2.64114 2.42645 2.57223 2.39734C2.50332 2.3682 2.45531 2.32126 2.51243 2.27515C2.51411 2.27366 2.58273 2.27078 2.5841 2.25395C2.58624 2.22704 2.57786 2.18731 2.58241 2.15953C2.58461 2.14623 2.6248 2.16089 2.6259 2.15869C2.66238 2.07265 2.63499 2.00354 2.63365 1.90535C2.63331 1.88744 2.69761 1.84555 2.65827 1.80469C2.61527 1.75972 2.40593 1.76635 2.46797 1.68774C2.49289 1.6558 2.75754 1.65364 2.63415 1.56988C2.68684 1.45471 2.63726 1.332 2.70547 1.21911C2.7085 1.21404 2.78325 1.20947 2.78449 1.19664C2.78621 1.17753 2.75453 1.16112 2.75472 1.14721C2.75466 1.08869 2.7926 1.0424 2.79816 0.986944C2.80033 0.965973 2.76438 0.966827 2.76699 0.941819C2.76965 0.916848 2.81826 0.908967 2.80255 0.871336C2.79053 0.842943 2.70222 0.800011 2.6978 0.764404C2.78983 0.780787 2.79235 0.757293 2.82453 0.721099C2.83076 0.714163 2.86105 0.728802 2.86564 0.725845C2.88503 0.713975 2.86131 0.694854 2.88203 0.684104C2.88701 0.681481 2.91836 0.687491 2.9242 0.685703C2.94066 0.680861 2.94524 0.672007 2.94354 0.661921L2.94023 0.674453C2.93925 0.653251 2.91193 0.623142 2.90547 0.615927C2.86922 0.575362 2.91261 0.577188 2.90183 0.551842C2.89119 0.526223 2.85875 0.547284 2.85629 0.520697C2.85119 0.46574 2.87943 0.406856 2.89749 0.359273C2.90491 0.340257 2.93897 0.369427 2.94095 0.367079C2.96669 0.333058 2.94226 0.275825 3.02915 0.289415C2.84075 0.173348 3.05862 0.275212 3.04346 0.203697C3.0422 0.19803 2.9509 0.148272 2.9293 0.158499C2.90771 0.16874 2.92557 0.207524 2.89349 0.221072C2.88599 0.224091 2.78279 0.217111 2.77543 0.219368C2.71789 0.236379 2.85868 0.301972 2.86579 0.306955C2.94191 0.362821 2.82931 0.361567 2.81835 0.369638C2.76838 0.405381 2.77338 0.4541 2.73647 0.48664C2.71258 0.507907 2.61582 0.476923 2.61124 0.499529C2.60626 0.524358 2.61701 0.548667 2.62846 0.571043C2.62706 0.576472 2.62207 0.592374 2.62136 0.597934C2.65009 0.638012 2.6803 0.670334 2.59114 0.699225C2.56267 0.708489 2.45632 0.673489 2.53223 0.741104C2.53701 0.745378 2.60825 0.798159 2.55447 0.810748C2.5477 0.812328 2.51592 0.806247 2.51256 0.809392C2.49068 0.830569 2.51292 0.851846 2.49589 0.875991C2.47883 0.900241 2.45484 0.928939 2.46009 0.961397C2.46319 0.981004 2.51828 1.01515 2.53125 1.02646C2.56866 1.05856 2.49532 1.07278 2.5433 1.09711C2.59152 1.12155 2.67421 1.10521 2.7 1.15133C2.61696 1.1382 2.53138 1.12666 2.4477 1.11441C2.43498 1.20366 2.44677 1.29573 2.42821 1.38422C2.42583 1.3952 2.38314 1.37642 2.37943 1.38802C2.364 1.43696 2.38863 1.48565 2.36752 1.53562C2.35102 1.57418 2.29673 1.61048 2.27812 1.65078C2.36901 1.69173 2.32699 1.74857 2.32864 1.79532C2.32918 1.81166 2.35473 1.81453 2.36127 1.8271C2.38534 1.87437 2.30441 1.84146 2.28939 1.85109C2.22529 1.89247 2.41482 1.92579 2.40121 1.98397C2.40054 1.98709 2.2934 2.0099 2.2863 2.01424C2.24011 2.04148 2.32077 2.02505 2.32514 2.04706C2.33315 2.08724 2.35342 2.11749 2.31713 2.15778C2.30642 2.1695 2.23858 2.1916 2.28381 2.22412C2.28973 2.22839 2.32355 2.23142 2.32512 2.23439C2.35081 2.28776 2.24523 2.27379 2.20552 2.29644C2.16581 2.31911 2.23247 2.37252 2.25221 2.38423C2.30324 2.41481 2.2779 2.37001 2.2834 2.36954C2.34886 2.36405 2.33348 2.39376 2.33545 2.41844C2.43835 2.4366 2.42743 2.46901 2.33708 2.44393C2.32721 2.44114 2.33949 2.42392 2.33545 2.41844C2.23101 2.42506 2.21282 2.45999 2.30196 2.51386C2.34375 2.53908 2.39807 2.52836 2.37108 2.58337C2.35889 2.6083 2.28907 2.58831 2.26645 2.60871C2.21483 2.65534 2.27187 2.73318 2.25403 2.78607C2.24755 2.8053 2.21116 2.78078 2.20538 2.79374C2.18994 2.82815 2.21495 2.86375 2.19514 2.89768C2.19329 2.90075 2.15352 2.88732 2.1515 2.89844C2.13539 2.9827 2.15179 3.06006 2.14092 3.14875C2.13565 3.19158 2.10318 3.26517 2.10199 3.31011C2.09969 3.38795 2.14706 3.49002 2.12431 3.55376C2.10964 3.59537 2.06994 3.58081 2.03977 3.59562C1.98128 3.62422 2.07013 3.69906 2.08406 3.70935C2.08452 3.70967 2.09879 3.67408 2.11731 3.69636C2.15961 3.71327 2.0843 3.70896 2.08406 3.70935C2.09304 3.71609 2.0931 3.79079 2.08346 3.80442C2.07819 3.81182 2.04 3.80254 2.03799 3.80649C1.99103 3.90046 1.96895 3.99773 1.97474 4.09973C1.97531 4.10158 2.01898 4.10429 2.01977 4.10858C2.03192 4.16865 1.97434 4.19901 1.93698 4.24276C1.89965 4.28649 1.90557 4.32537 1.97652 4.36277C1.96273 4.39755 1.98931 4.45303 2.00564 4.48503C2.02196 4.51715 1.93707 4.51091 1.93508 4.51332C1.87169 4.58805 1.91423 4.64093 1.91138 4.7261C1.9102 4.76642 1.88813 4.8447 1.87357 4.88672C1.86192 4.91992 1.87911 4.94322 1.86257 4.97318C1.86035 4.97724 1.82331 4.96828 1.82171 4.9694C1.7724 4.99903 1.86634 4.99349 1.88184 5.00279C1.93822 5.03654 1.96799 5.05662 1.9343 5.09839C1.92658 5.10802 1.79058 5.12186 1.78048 5.1398C1.76761 5.16315 1.81616 5.1598 1.80147 5.18407C1.80096 5.18495 1.79551 5.18473 1.78931 5.18537L1.79251 5.16433C1.78392 5.16477 1.77382 5.16675 1.77292 5.17601C1.76534 5.2501 1.76777 5.3328 1.75099 5.40811C1.74881 5.41841 1.70526 5.39672 1.70136 5.41146C1.68306 5.48064 1.67053 5.55802 1.67931 5.63039C1.68162 5.64824 1.71575 5.64368 1.72462 5.64911C1.77824 5.68234 1.68832 5.6985 1.68574 5.70344C1.62196 5.8211 1.67977 5.93139 1.6192 6.05208C1.61575 6.05865 1.51556 6.09485 1.58809 6.13353C1.59291 6.13615 1.66727 6.17497 1.60929 6.18544C1.60567 6.18608 1.56789 6.16355 1.56707 6.19C1.56625 6.21646 1.53114 6.25245 1.56891 6.29636C1.5808 6.31023 1.65434 6.35197 1.58511 6.37309C1.58031 6.37444 1.42847 6.39811 1.52269 6.43561C1.53821 6.44174 1.64234 6.45893 1.58146 6.48829C1.56968 6.49386 1.5493 6.47554 1.53095 6.49271C1.50271 6.51898 1.52242 6.56504 1.46888 6.59355C1.45943 6.59848 1.38365 6.61255 1.4325 6.64555C1.44015 6.65072 1.47602 6.6509 1.47754 6.66352C1.48488 6.72358 1.45002 6.77795 1.46246 6.83988C1.46679 6.86181 1.52469 6.86265 1.53541 6.88676C1.54613 6.91085 1.55193 6.9564 1.52197 6.97338C1.49199 6.99037 1.40792 6.94827 1.39412 6.97994C1.33417 7.11753 1.35724 7.27067 1.33528 7.41585C1.33204 7.43738 1.30387 7.41318 1.2968 7.44441C1.27057 7.55983 1.19923 7.75303 1.24561 7.86778C1.2828 7.95961 1.34524 7.86696 1.35432 7.9331C1.35858 7.96501 1.24859 7.97538 1.24384 7.98185C1.19611 8.04473 1.23152 8.10316 1.20415 8.16317C1.19849 8.17556 1.15936 8.15394 1.155 8.16458C1.13974 8.20084 1.14997 8.2445 1.13888 8.27986C1.1338 8.29569 1.1025 8.28591 1.10179 8.30132C1.09973 8.33814 1.10641 8.37263 1.12891 8.4138C1.13096 8.41756 1.17526 8.40465 1.17109 8.43139C1.16424 8.47462 1.1824 8.53398 1.14138 8.57655C1.12908 8.58916 1.05599 8.57404 1.09965 8.61619C1.10877 8.62503 1.19819 8.63547 1.11462 8.65576C1.10072 8.65922 0.985409 8.6986 1.04473 8.74287C1.06034 8.75455 1.12765 8.79028 1.1126 8.80538C1.11029 8.80737 1.07316 8.78939 1.06621 8.80309C1.04237 8.85151 1.03496 8.90601 1.01126 8.95605C1.00486 8.96939 0.968858 8.93966 0.960614 8.95981C0.937881 9.0152 0.932598 9.08928 0.93305 9.14826C0.933294 9.17002 0.969989 9.163 0.973315 9.16531C1.02746 9.20252 0.944103 9.19947 0.93767 9.20651C0.898728 9.2506 0.928077 9.29701 0.908018 9.34104C0.902584 9.35321 0.866313 9.33581 0.862349 9.33761C0.823282 9.35664 0.896245 9.35205 0.900177 9.37035C0.911424 9.42168 0.89697 9.47304 0.881726 9.51926C0.876073 9.53622 0.836006 9.507 0.831445 9.52232C0.803602 9.61289 0.786901 9.70925 0.791525 9.80477C0.792482 9.82274 0.828963 9.81959 0.835983 9.82483C0.885182 9.86117 0.802935 9.88046 0.794043 9.8871C0.753479 9.91727 0.780479 9.93839 0.767602 9.97005C0.704102 10.1249 0.680267 10.3279 0.65906 10.4827C0.631239 10.6842 0.629771 10.845 0.579651 11.0322C0.576511 11.0441 0.533773 11.022 0.530484 11.0321C0.490105 11.1632 0.478807 11.299 0.436262 11.4301C0.432847 11.4409 0.393281 11.4156 0.386352 11.4326C0.371838 11.4674 0.364103 11.5138 0.369825 11.5535C0.372534 11.5728 0.414731 11.5569 0.416704 11.5762C0.42138 11.6211 0.414652 11.6665 0.398306 11.7081C0.391264 11.7258 0.353275 11.6885 0.347553 11.7122C0.307723 11.8734 0.265374 12.0313 0.28698 12.2073C0.288459 12.2194 0.37587 12.2487 0.353519 12.2689C0.328276 12.2654 0.299061 12.2589 0.272326 12.254C0.20691 12.4872 0.187796 12.7279 0.142397 12.9663C0.140476 12.9763 0.0966306 12.949 0.0926697 12.9684C0.0696638 13.0807 0.0335784 13.1871 0.0568976 13.3117C0.0591395 13.3241 0.143967 13.3357 0.124328 13.3667C0.120784 13.3721 0.0991218 13.4204 0.0782609 13.4297C0.0751543 13.4309 0.038033 13.4136 0.0335162 13.4296C0.00798535 13.523 -0.00359941 13.6244 0.000949383 13.7239C0.00175929 13.74 0.0466721 13.7322 0.0476112 13.7437C0.0539947 13.8252 0.00528336 13.903 0.0282292 13.9844C0.043745 14.0388 0.119366 14.035 0.184934 14.0754C0.194182 14.0811 0.189661 14.1119 0.230558 14.1217C0.333375 14.1465 0.449788 14.1545 0.559033 14.1826C0.582565 14.1887 0.548827 14.2241 0.611124 14.2116C0.615306 14.2107 0.640275 14.1851 0.661232 14.1818C0.675726 14.1794 0.715811 14.1969 0.735134 14.1901C0.754439 14.1833 0.72158 14.1649 0.745287 14.1519C0.769246 14.139 0.8154 14.1561 0.827903 14.1232ZM2.07849 4.62934C2.11565 4.6617 1.96672 4.64752 2.00588 4.62224C2.00795 4.62104 2.07668 4.62768 2.07849 4.62934ZM2.55818 1.31418C2.61715 1.36087 2.5174 1.36925 2.47143 1.33549C2.42554 1.30168 2.54033 1.29993 2.55818 1.31418ZM2.6711 0.951975C2.71462 1.00299 2.50478 0.971626 2.55518 0.934408C2.55804 0.932232 2.66857 0.948992 2.6711 0.951975ZM0.229541 13.9581C0.231411 13.9588 0.228877 13.9812 0.226842 13.9813C0.177925 13.9836 0.183028 13.9389 0.229541 13.9581ZM2.79908 0.589786C2.81391 0.604182 2.80072 0.619731 2.78169 0.621869C2.7702 0.631525 2.75873 0.630252 2.74804 0.623094C2.74834 0.620739 2.75046 0.614004 2.75105 0.611704C2.75063 0.61133 2.75021 0.610945 2.74979 0.610549C2.72682 0.58851 2.77071 0.562392 2.79908 0.589786ZM2.00955 6.0697C2.01166 6.07055 2.01063 6.08664 1.99832 6.08396C1.95867 6.07528 1.97409 6.05557 2.00955 6.0697ZM3.0521 0.00366306C3.01725 0.091585 3.15077 0.218084 3.17704 0.119437C3.18192 0.101464 3.10955 0.130036 3.10565 0.102206C3.09876 0.0510611 3.20988 0.0748059 3.17669 0.00937796C3.17058 -0.00252721 3.05374 -0.00154443 3.05181 0.00370285C3.0519 0.00368962 3.052 0.00367629 3.0521 0.00366306ZM2.25484 4.66702C2.25673 4.66781 2.25588 4.69009 2.25387 4.69038C2.20528 4.69652 2.20697 4.65165 2.25484 4.66702ZM1.92041 7.00473C1.9243 7.00676 1.91799 7.05806 1.91385 7.05893C1.83244 7.06992 1.84496 6.96625 1.92041 7.00473ZM2.54901 3.19972C2.5995 3.18195 2.60884 3.15406 2.55189 3.12714C2.55191 3.15136 2.54923 3.17539 2.54901 3.19972Z" fill="black"/>
</svg>
