<svg width="5" height="7" viewBox="0 0 5 7" fill="none" xmlns="http://www.w3.org/2000/svg">
<path d="M0.000187933 6.79151C-0.00269639 6.74691 0.023021 6.69481 0.0506724 6.65568C0.0592682 6.64347 0.0838068 6.65565 0.0909152 6.64738C0.104802 6.63106 0.0955152 6.6114 0.111201 6.59548C0.116523 6.59025 0.156198 6.60599 0.160841 6.60028C0.18602 6.5687 0.181965 6.53319 0.197547 6.4987C0.274325 6.32829 0.321128 6.14957 0.373988 5.96674C0.391353 5.90638 0.442613 5.83859 0.438162 5.77206C0.437608 5.76428 0.40056 5.76189 0.397841 5.75992C0.356325 5.72911 0.428099 5.74997 0.440494 5.73758C0.47005 5.7076 0.487411 5.673 0.495958 5.63706C0.50165 5.6131 0.503476 5.58888 0.50236 5.56552C0.501077 5.54055 0.42453 5.54999 0.469633 5.5341C0.472689 5.53299 0.509832 5.54676 0.515236 5.54108C0.527397 5.52825 0.526294 5.49884 0.531722 5.488C0.542357 5.4672 0.542737 5.46349 0.547578 5.4428C0.554534 5.41461 0.580853 5.38503 0.578955 5.35267C0.578438 5.34574 0.537361 5.34566 0.53301 5.33378C0.528667 5.32188 0.538178 5.29513 0.549507 5.28801C0.560834 5.28087 0.590679 5.29182 0.598096 5.2918C0.660572 5.29212 0.585593 5.24142 0.584529 5.23683C0.567216 5.15439 0.629621 5.10176 0.646975 5.03277C0.660175 4.9799 0.659433 4.92008 0.675067 4.87049C0.69372 4.81194 0.728733 4.76719 0.741448 4.70911C0.742839 4.70298 0.695467 4.69708 0.697086 4.68954C0.714506 4.60887 0.742784 4.53209 0.797264 4.46379C0.80278 4.45692 0.839213 4.47925 0.847082 4.47314C0.894387 4.43529 0.995819 4.38647 0.833564 4.30254C0.850662 4.27267 0.870533 4.23568 0.914582 4.2186C0.942934 4.20762 0.97971 4.23982 0.969029 4.21118C0.966674 4.20474 0.927008 4.19873 0.926316 4.19C0.923422 4.15332 0.947764 4.12186 0.939454 4.08356C0.937684 4.07571 0.903634 4.06585 0.89825 4.06193C0.85481 4.02963 0.944521 4.03172 0.952312 4.02828C1.01096 4.00101 1.00474 3.9644 1.02021 3.92507C1.0238 3.916 0.975173 3.9106 0.977035 3.90127C0.987195 3.8534 1.00882 3.80681 1.04526 3.76999C1.05348 3.76184 1.08795 3.78519 1.09381 3.78204C1.11926 3.76784 1.04953 3.73596 1.07263 3.7218C1.0774 3.71878 1.10888 3.73354 1.11274 3.73413C1.17315 3.74352 1.09804 3.70283 1.09749 3.69905C1.08858 3.6511 1.18097 3.65758 1.18394 3.6159C1.18423 3.61085 1.13944 3.60482 1.14275 3.5916C1.16495 3.50245 1.21213 3.41872 1.27934 3.3494C1.28968 3.33874 1.31623 3.36063 1.32031 3.36139C1.38429 3.37303 1.30945 3.33162 1.30832 3.32609C1.30119 3.28375 1.37969 3.2817 1.29632 3.21921C1.38878 3.09373 1.39915 2.93285 1.54571 2.83525C1.54748 2.83397 1.58388 2.85498 1.58724 2.85236C1.62811 2.82109 1.56521 2.80179 1.50673 2.73952C1.49207 2.72382 1.58882 2.74449 1.59603 2.74578C1.62265 2.75037 1.67543 2.7844 1.68104 2.78435C1.72552 2.78306 1.53831 2.69673 1.55076 2.67097C1.55146 2.67032 1.58394 2.69027 1.58837 2.68979C1.60224 2.68835 1.59188 2.67521 1.60675 2.67453C1.64112 2.67302 1.73331 2.71247 1.6921 2.66424C1.68672 2.65805 1.57973 2.61063 1.59586 2.5905C1.59964 2.58587 1.60725 2.57028 1.61529 2.55675C1.61713 2.55161 1.62656 2.53844 1.62918 2.53365C1.63658 2.52473 1.64406 2.51684 1.64966 2.51447C1.663 2.50883 1.68869 2.53767 1.69053 2.5379C1.75033 2.53998 1.75978 2.56224 1.82929 2.5919C1.8985 2.6215 1.75356 2.52288 1.7416 2.50601C1.72965 2.48922 1.77738 2.49329 1.79242 2.49688C1.8075 2.50041 1.82256 2.52045 1.83222 2.5209C1.89555 2.52351 1.77074 2.45746 1.75498 2.43179C1.71751 2.37124 1.83546 2.43003 1.86038 2.41747C1.86714 2.41405 1.83998 2.40105 1.84129 2.39457C1.84677 2.36913 1.88782 2.3817 1.87405 2.33765C1.87179 2.33049 1.82194 2.2664 1.87647 2.28909C1.88431 2.2924 1.907 2.31619 1.91882 2.3124C1.93644 2.30687 1.95868 2.28875 1.95965 2.26932C1.9604 2.25491 1.90937 2.23407 1.9317 2.23185C1.94164 2.2309 1.95926 2.25951 1.97583 2.25619C1.99221 2.25312 2.01067 2.22616 2.01711 2.21581C2.02356 2.2054 1.98719 2.18641 1.98561 2.18398C1.97672 2.1698 1.9752 2.13938 1.97648 2.13777C2.03599 2.05079 2.14904 2.0159 2.19456 1.92198C2.19816 1.91468 2.16141 1.89232 2.16161 1.89094C2.16464 1.85833 2.24012 1.94581 2.28178 1.95445C2.21226 1.90269 2.23164 1.90351 2.23627 1.88252C2.23844 1.87236 2.2091 1.85534 2.20695 1.85253C2.17585 1.80986 2.23315 1.84363 2.24518 1.85015C2.28955 1.874 2.2503 1.82947 2.27998 1.84542C2.30942 1.86126 2.33832 1.90296 2.34942 1.88827C2.3286 1.86471 2.25698 1.82436 2.25566 1.80514C2.25065 1.73227 2.36362 1.69578 2.39642 1.66759C2.42906 1.6394 2.43392 1.62508 2.4587 1.6136C2.50324 1.5933 2.44742 1.56586 2.44539 1.52649C2.44355 1.48703 2.54509 1.59554 2.57155 1.61362C2.59789 1.63183 2.57624 1.60694 2.59248 1.61498C2.60873 1.62301 2.6179 1.64521 2.63039 1.64107C2.64285 1.63692 2.6215 1.57614 2.59962 1.5508C2.55326 1.49707 2.48868 1.45813 2.52894 1.45256C2.53127 1.45229 2.55609 1.48279 2.56358 1.48043C2.62157 1.46142 2.66145 1.42179 2.7173 1.40248C2.7251 1.39979 2.75146 1.43473 2.75633 1.43353C2.80691 1.42154 2.74366 1.38182 2.70369 1.3071C2.77602 1.38734 2.83232 1.42421 2.85591 1.40197C2.87017 1.38864 2.83508 1.35708 2.82138 1.32415C2.81728 1.31418 2.84989 1.32774 2.83644 1.30996C2.79277 1.25158 2.72663 1.20245 2.7751 1.20115C2.77729 1.20121 2.80078 1.23352 2.80634 1.2316C2.84218 1.21969 2.79405 1.16099 2.81636 1.12858C2.83411 1.10291 2.90481 1.10282 2.93554 1.08733C3.01249 1.18102 3.01807 1.14053 2.97615 1.06708C2.99566 1.05587 3.01133 1.03773 3.03548 1.03402C3.04369 1.03277 3.06093 1.06374 3.06395 1.06621C3.11054 1.10565 3.06947 1.03491 3.0716 1.0294C3.07714 1.01622 3.0854 1.00767 3.09471 1.00136C3.12285 0.982138 3.16383 0.983446 3.16603 0.925391C3.16608 0.922686 3.11954 0.852406 3.16538 0.895233C3.16851 0.898207 3.17831 0.938333 3.19786 0.927979C3.21764 0.917474 3.27821 0.929633 3.28019 0.880188C3.28083 0.868169 3.2563 0.801604 3.29966 0.836263C3.30553 0.840984 3.31781 0.861904 3.32801 0.871132C3.3606 0.90048 3.31539 0.828126 3.36639 0.880562C3.41731 0.933059 3.46804 0.963335 3.46388 0.90489C3.46384 0.903133 3.43046 0.844023 3.4391 0.839136C3.45283 0.831445 3.4788 0.830111 3.49198 0.820102C3.49815 0.815382 3.46967 0.784243 3.47032 0.782835C3.49906 0.733282 3.55127 0.741777 3.60632 0.72219C3.61655 0.718598 3.60695 0.655127 3.64972 0.680024C3.69628 0.707461 3.79801 0.887711 3.81038 0.81845C3.81534 0.790739 3.68398 0.563712 3.79239 0.652319C3.83022 0.583839 3.92384 0.601752 3.95339 0.521544C3.95479 0.517928 3.92036 0.452957 3.92701 0.449393C3.93696 0.44422 3.96181 0.468285 3.96958 0.465456C4.00268 0.454275 4.01034 0.412871 4.03902 0.397812C4.04986 0.392042 4.06696 0.423105 4.07992 0.416206C4.09286 0.409276 4.07368 0.365962 4.10268 0.372674C4.12468 0.377865 4.1922 0.446016 4.21463 0.443475C4.16064 0.367179 4.17272 0.36086 4.17789 0.326737C4.17886 0.320141 4.15582 0.296646 4.15529 0.292164C4.15276 0.273333 4.17521 0.290387 4.17139 0.270648C4.1705 0.265891 4.15193 0.23993 4.15015 0.234577C4.13428 0.188086 4.19539 0.232553 4.206 0.240323C4.24635 0.269772 4.22794 0.231877 4.24853 0.24009C4.2691 0.248315 4.26832 0.277667 4.28622 0.278758C4.32337 0.280924 4.35026 0.255216 4.3749 0.239282C4.38458 0.232795 4.35324 0.202859 4.35404 0.201127C4.36726 0.178296 4.41361 0.20077 4.37485 0.124104C4.51662 0.292425 4.37418 0.0983529 4.42786 0.113838C4.43214 0.115132 4.49558 0.197325 4.49601 0.215789C4.49643 0.23424 4.46464 0.217157 4.4668 0.24487C4.46728 0.251386 4.50817 0.341771 4.50943 0.348121C4.51929 0.397749 4.42628 0.273629 4.4204 0.267367C4.3565 0.200117 4.39826 0.299134 4.39734 0.308713C4.39325 0.352526 4.36064 0.349132 4.35483 0.38249C4.35094 0.404138 4.40904 0.487476 4.39718 0.492184C4.35759 0.508022 4.26329 0.401304 4.30341 0.523812C4.31196 0.549944 4.38351 0.635234 4.30833 0.581784C4.30363 0.578384 4.23888 0.526596 4.25801 0.575066C4.26042 0.581175 4.27936 0.607406 4.27923 0.610851C4.27796 0.633429 4.25529 0.617987 4.24985 0.637112C4.24444 0.656216 4.24014 0.681988 4.21937 0.683411C4.20684 0.684342 4.16052 0.643409 4.14776 0.634407C4.11123 0.608313 4.1395 0.673855 4.10211 0.63733C4.06456 0.600601 4.03298 0.526521 3.99426 0.513192C4.04265 0.581936 4.09141 0.653145 4.13964 0.722586C4.09602 0.750332 4.03864 0.758128 3.99878 0.791371C3.99385 0.79559 4.0256 0.828416 4.021 0.833881C4.00153 0.856732 3.96209 0.845418 3.94508 0.873449C3.93218 0.895168 3.939 0.949203 3.92638 0.973118C3.8579 0.903884 3.84787 0.951314 3.82111 0.959716C3.81184 0.962637 3.79736 0.941413 3.78715 0.938423C3.74911 0.927593 3.80804 0.989922 3.81032 1.00475C3.81976 1.06827 3.70589 0.913177 3.68052 0.937258C3.67912 0.938489 3.72094 1.03473 3.72222 1.04167C3.73075 1.08682 3.69881 1.01453 3.68444 1.01553C3.65813 1.01738 3.63165 1.00624 3.62774 1.04603C3.62667 1.05774 3.64944 1.12009 3.60837 1.0887C3.60301 1.08458 3.58412 1.05641 3.58169 1.05572C3.53932 1.04539 3.60108 1.13217 3.60876 1.17106C3.61651 1.20988 3.55359 1.16453 3.53695 1.15039C3.49411 1.11364 3.53164 1.12537 3.52913 1.12054C3.4988 1.0635 3.49014 1.08328 3.47571 1.08698C3.41318 1.0033 3.40117 1.01962 3.46103 1.09112C3.46758 1.09892 3.47065 1.08473 3.47571 1.08698C3.52564 1.17726 3.51557 1.20063 3.44076 1.13644C3.40577 1.10629 3.38358 1.05782 3.36739 1.09297C3.36007 1.10885 3.40693 1.16374 3.40718 1.18767C3.40814 1.242 3.33667 1.21066 3.31688 1.2378C3.30988 1.24752 3.34177 1.27311 3.33777 1.28086C3.3311 1.29345 3.31708 1.29375 3.30526 1.29698C3.29682 1.29942 3.29049 1.30249 3.28814 1.31174C3.28767 1.31385 3.31502 1.34491 3.31087 1.34857C3.28031 1.37676 3.23462 1.37887 3.19897 1.40734C3.18173 1.42106 3.16653 1.46402 3.14623 1.47598C3.11162 1.49628 3.03328 1.48733 3.01784 1.52244C3.0076 1.54526 3.03984 1.57147 3.05257 1.59826C3.07757 1.64987 2.98499 1.60455 2.97103 1.59721C2.97058 1.59695 2.9777 1.57605 2.95525 1.5686C2.91964 1.54187 2.97104 1.59694 2.97103 1.59721C2.96214 1.59225 2.92687 1.6148 2.9272 1.62585C2.92729 1.63195 2.95703 1.65738 2.95655 1.66003C2.94435 1.72291 2.9159 1.76796 2.86548 1.79641C2.86426 1.79659 2.83285 1.7662 2.83036 1.767C2.79454 1.77766 2.82056 1.82881 2.82713 1.86931C2.83341 1.91015 2.81226 1.91831 2.74518 1.88125C2.73907 1.90274 2.69547 1.90272 2.66923 1.90256C2.64302 1.90237 2.70643 1.95908 2.70678 1.96127C2.71895 2.03032 2.66477 2.01936 2.62876 2.05128C2.61139 2.06652 2.59294 2.10883 2.58477 2.13388C2.57862 2.1535 2.55577 2.15017 2.55454 2.17217C2.55436 2.17513 2.58551 2.19678 2.58619 2.19827C2.6092 2.24211 2.54269 2.17705 2.52718 2.17001C2.4709 2.14424 2.44 2.13169 2.44623 2.1695C2.44763 2.17819 2.54165 2.27423 2.54139 2.28723C2.54067 2.30421 2.50623 2.2707 2.50639 2.28933C2.50637 2.2909 2.52978 2.30878 2.52322 2.3151C2.49289 2.34494 2.45154 2.37059 2.4275 2.40705C2.42413 2.41196 2.46594 2.4342 2.46169 2.44174C2.44152 2.47742 2.41386 2.51125 2.37241 2.53017C2.36216 2.53465 2.33959 2.51017 2.33055 2.50604C2.27573 2.48118 2.33322 2.54701 2.33274 2.55039C2.32229 2.63325 2.22741 2.63183 2.21333 2.71373C2.21257 2.71845 2.26866 2.79706 2.19694 2.76221C2.19216 2.7599 2.11899 2.72396 2.15637 2.76603C2.15872 2.76866 2.19729 2.7859 2.18509 2.7956C2.17279 2.80547 2.18141 2.84078 2.13251 2.83097C2.1171 2.82789 2.04293 2.79377 2.08349 2.8469C2.08445 2.84811 2.09612 2.86091 2.10808 2.87566L2.14185 2.81952C2.17042 2.84466 2.20151 2.87714 2.13876 2.85386C2.1233 2.84811 2.0296 2.79959 2.06784 2.8443C2.07528 2.8529 2.09993 2.85612 2.10796 2.87306C2.12044 2.89895 2.08501 2.90704 2.11768 2.94729C2.12348 2.95436 2.18082 3.00018 2.12645 2.9878C2.11791 2.98589 2.08787 2.96713 2.08138 2.97149C2.05033 2.99229 2.05687 3.03322 2.02086 3.05231C2.00812 3.05921 1.95922 3.02945 1.94017 3.03406C1.92102 3.0389 1.89746 3.05455 1.9156 3.07721C1.93378 3.09979 2.02188 3.12554 2.02043 3.14586C2.01437 3.2336 1.93199 3.28635 1.89163 3.3584C1.8856 3.36918 1.91942 3.37295 1.91267 3.38979C1.88819 3.4511 1.871 3.56868 1.78548 3.59478C1.71659 3.61648 1.70031 3.54612 1.66581 3.57051C1.64916 3.58263 1.73978 3.63961 1.74127 3.64471C1.75725 3.69456 1.70331 3.70321 1.70319 3.74196C1.70317 3.74999 1.74557 3.75912 1.74512 3.76578C1.74399 3.78853 1.71765 3.80312 1.71341 3.82336C1.71157 3.83257 1.74257 3.84296 1.73712 3.84994C1.72441 3.86681 1.70505 3.87864 1.66925 3.88633C1.66598 3.88704 1.63259 3.86078 1.62564 3.87453C1.61467 3.89642 1.57551 3.91417 1.59455 3.9519C1.60033 3.96312 1.66996 3.98995 1.61545 3.98843C1.60406 3.98814 1.52186 3.9521 1.58698 3.99895C1.59775 4.00684 1.68337 4.07612 1.61424 4.06901C1.59604 4.06716 1.52318 4.05276 1.53053 4.06618C1.53179 4.06809 1.5713 4.07679 1.57211 4.08594C1.57433 4.11789 1.55972 4.14565 1.56137 4.17828C1.56191 4.18697 1.60498 4.18973 1.60454 4.20222C1.60343 4.23645 1.57968 4.2721 1.55697 4.29798C1.5485 4.30755 1.51871 4.28858 1.51489 4.28817C1.45286 4.28142 1.52777 4.31604 1.53081 4.32193C1.5486 4.35834 1.505 4.36679 1.50628 4.39495C1.50654 4.40271 1.54529 4.4103 1.54813 4.41278C1.5757 4.43782 1.5126 4.40487 1.50223 4.41143C1.47297 4.42971 1.46643 4.45947 1.46289 4.48645C1.46162 4.49644 1.50821 4.49997 1.50658 4.50875C1.49773 4.56111 1.47713 4.61155 1.43799 4.65323C1.43054 4.66107 1.39896 4.64489 1.39074 4.64446C1.33321 4.64141 1.40004 4.6833 1.40563 4.68985C1.43111 4.71984 1.39915 4.71872 1.39923 4.73844C1.40017 4.8346 1.34946 4.9374 1.31456 5.01779C1.26925 5.12265 1.21534 5.19925 1.19833 5.30653C1.19722 5.31329 1.24404 5.31746 1.24367 5.32341C1.2369 5.39969 1.20255 5.46851 1.19958 5.54582C1.19927 5.5521 1.24424 5.55268 1.24519 5.56304C1.24746 5.58436 1.23977 5.60909 1.22177 5.62649C1.21308 5.635 1.17881 5.61401 1.1708 5.62277C1.15207 5.64326 1.14393 5.6675 1.14608 5.69281C1.1471 5.70358 1.19436 5.69708 1.19225 5.71035C1.18933 5.73002 1.18664 5.74969 1.18346 5.76925C1.17156 5.84201 1.15294 5.91283 1.09434 5.97822C1.08919 5.98403 0.998024 5.97312 1.01276 5.99009C1.03757 5.99575 1.067 6.00112 1.09364 6.0065C1.08295 6.14497 1.02776 6.27391 0.998089 6.41182C0.996851 6.41761 1.04644 6.41611 1.04429 6.42736C1.03187 6.49252 1.03343 6.55966 0.97327 6.61899C0.967377 6.62482 0.884064 6.60575 0.893016 6.62805C0.894688 6.63195 0.900176 6.66417 0.916878 6.67547C0.919421 6.67706 0.959632 6.67904 0.958906 6.689C0.953984 6.74679 0.932992 6.80553 0.896953 6.85803C0.891064 6.86647 0.851633 6.84778 0.847084 6.85369C0.815163 6.89548 0.835205 6.95365 0.78706 6.98963C0.754703 7.01349 0.685963 6.98534 0.612018 6.98381C0.601595 6.98358 0.595623 7.00113 0.554596 6.99193C0.451449 6.96881 0.341166 6.93273 0.230965 6.90913C0.207247 6.90402 0.227064 6.93255 0.173452 6.90522C0.169882 6.90335 0.154944 6.88269 0.136565 6.87408C0.123868 6.86811 0.0811642 6.86281 0.0653996 6.85316C0.0496397 6.84355 0.0859315 6.84593 0.0680022 6.83199C0.0498029 6.81803 0.00157005 6.81077 0.000187933 6.79151ZM2.55169 1.90269C2.51015 1.88878 2.62379 1.98603 2.60709 1.95014C2.60615 1.9483 2.55375 1.90334 2.55169 1.90269ZM3.9731 0.666318C3.91754 0.625031 3.96262 0.712076 4.00432 0.744834C4.046 0.777534 3.98997 0.67881 3.9731 0.666318ZM4.12108 0.500509C4.0709 0.472547 4.19166 0.646908 4.18782 0.596856C4.18764 0.594002 4.124 0.502126 4.12108 0.500509ZM0.60888 6.90767C0.606897 6.90745 0.602039 6.91989 0.603882 6.92064C0.648551 6.93829 0.658287 6.91319 0.60888 6.90767ZM4.2652 0.332171C4.24223 0.313363 4.24374 0.353078 4.27228 0.376488C4.29523 0.395321 4.29378 0.355564 4.2652 0.332171ZM1.91975 2.45995C1.9178 2.45884 1.91072 2.46515 1.92101 2.47242C1.95417 2.49581 1.9525 2.47866 1.91975 2.45995ZM4.56071 0.116406C4.51222 0.141483 4.3832 0.0185234 4.44256 0.000142775C4.4533 -0.00318259 4.45655 0.0589022 4.4768 0.0637875C4.51374 0.0726402 4.46285 -0.0262476 4.51787 0.00676445C4.52789 0.0128378 4.56371 0.115292 4.56078 0.116661C4.56076 0.116576 4.56073 0.116491 4.56071 0.116406ZM2.40769 1.79492C2.40592 1.79396 2.39635 1.80256 2.39767 1.80404C2.42985 1.83962 2.44911 1.82234 2.40769 1.79492ZM1.56788 2.88412C1.56378 2.88292 1.54756 2.90826 1.55066 2.91082C1.61445 2.95767 1.64729 2.90687 1.56788 2.88412ZM2.93801 1.08948C2.91895 1.04326 2.92952 1.02746 2.97606 1.06707C2.96273 1.07363 2.95125 1.08236 2.93801 1.08948Z" fill="black"/>
</svg>
