<svg width="5" height="10" viewBox="0 0 5 10" fill="none" xmlns="http://www.w3.org/2000/svg">
<path d="M2.10822 1.08499C2.12882 1.18732 2.18643 1.31246 2.23861 1.40359C2.25497 1.4324 2.27453 1.40806 2.28695 1.42748C2.31122 1.46547 2.31248 1.50795 2.33868 1.54484C2.34746 1.55695 2.38099 1.52601 2.38929 1.53901C2.43438 1.61001 2.45088 1.68685 2.4882 1.76223C2.67183 2.13192 2.83555 2.50225 3.02703 2.87609C3.09026 2.99963 3.19742 3.13482 3.24874 3.27008C3.25464 3.28579 3.21736 3.29392 3.21612 3.29814C3.19838 3.36476 3.25659 3.31545 3.28062 3.33982C3.37619 3.43699 3.45017 3.56057 3.50662 3.67686C3.53063 3.72623 3.4395 3.71949 3.50384 3.74366C3.50829 3.74542 3.53345 3.71229 3.54526 3.72283C3.57175 3.74667 3.6021 3.80399 3.62014 3.82404C3.65053 3.85763 3.65855 3.86793 3.6799 3.896C3.68215 3.89893 3.68458 3.90213 3.68726 3.90567C3.71888 3.9468 3.76958 3.99041 3.78924 4.04592C3.79324 4.05767 3.75038 4.06246 3.75323 4.08248C3.75621 4.10231 3.78103 4.14606 3.7965 4.15818C3.81213 4.17015 3.83808 4.15091 3.84595 4.15086C3.91298 4.15118 3.85713 4.24122 3.85723 4.24844C3.87141 4.39321 3.94496 4.50232 3.96461 4.6424C3.97902 4.74789 3.97064 4.86325 3.97372 4.96503C3.97747 5.08634 3.99377 5.19185 3.97752 5.31065C3.97582 5.32313 3.93053 5.30345 3.92834 5.31846C3.91545 5.40639 3.90183 5.49424 3.88999 5.58077C3.88113 5.64732 3.87115 5.71815 3.86324 5.7904C3.86142 5.80681 3.90725 5.79934 3.90771 5.8167C3.91089 5.92169 3.92499 6.1091 3.73457 6.0952C3.71452 6.16121 3.68663 6.24122 3.69283 6.31385C3.69685 6.36046 3.7545 6.34388 3.71565 6.3811C3.70691 6.38952 3.67754 6.35927 3.66715 6.3731C3.62347 6.43124 3.60044 6.50692 3.55022 6.56105C3.53992 6.57203 3.51011 6.55252 3.50258 6.55328C3.44114 6.5604 3.49108 6.64995 3.49076 6.66404C3.48806 6.76998 3.43916 6.82367 3.3983 6.90313C3.38879 6.92165 3.35832 6.87763 3.34767 6.89463C3.29318 6.98268 3.24559 7.08016 3.2163 7.18042C3.20981 7.20293 3.25546 7.20328 3.2542 7.21499C3.24821 7.26642 3.17588 7.23957 3.16879 7.2886C3.16724 7.29886 3.20051 7.31007 3.20306 7.31342C3.24306 7.36585 3.1569 7.34794 3.15193 7.35345C3.0872 7.42272 3.13944 7.51482 3.08946 7.5878C3.08333 7.59668 3.05458 7.55568 3.03974 7.58189C2.94236 7.75474 2.8615 7.95783 2.84068 8.17316C2.83766 8.20698 2.87553 8.19171 2.87892 8.19485C2.93268 8.24146 2.84577 8.24272 2.84024 8.25411C2.80932 8.31752 2.84234 8.38976 2.81451 8.44788C2.80666 8.46204 2.79353 8.47533 2.77225 8.48757C2.78219 8.53449 2.78017 8.59654 2.78544 8.57574C2.77364 8.55948 2.89148 8.48483 2.90656 8.50525C2.92521 8.50951 2.90874 8.50639 2.89592 8.49806C2.71131 8.39165 2.54657 8.27086 2.34868 8.18049C2.34496 8.17864 2.32294 8.21502 2.31558 8.21115C2.22788 8.16492 2.28451 8.12763 2.29552 8.02835C2.29912 8.00421 2.19733 8.03845 2.18927 8.04016C2.15988 8.04728 2.12665 8.10242 2.11939 8.1022C2.06038 8.09806 2.21319 7.95995 2.17591 7.91937C2.17447 7.9183 2.15142 7.94933 2.14545 7.94837C2.12685 7.94556 2.12791 7.92415 2.10846 7.92182C2.06394 7.9168 1.97893 7.97188 1.9901 7.89367C1.99181 7.88367 2.08858 7.81792 2.05286 7.78176C2.03828 7.76757 1.98659 7.69516 1.96608 7.67866C1.94532 7.66238 1.9245 7.69822 1.92215 7.69771C1.84194 7.6697 1.83972 7.7025 1.75846 7.71401C1.67715 7.72441 1.82924 7.63654 1.83772 7.6138C1.84608 7.59107 1.78435 7.5706 1.76525 7.56682C1.74635 7.56352 1.73447 7.58974 1.72156 7.5843C1.63694 7.54767 1.7784 7.51063 1.78938 7.47523C1.81635 7.39251 1.68142 7.41916 1.64316 7.37882C1.63289 7.36801 1.66448 7.36344 1.66027 7.35071C1.64326 7.30054 1.59295 7.29447 1.59424 7.22419C1.5947 7.2131 1.6357 7.1299 1.56993 7.13337C1.56052 7.13399 1.54001 7.16204 1.52171 7.14684C1.49451 7.12423 1.45498 7.07825 1.44173 7.04235C1.43196 7.01578 1.49368 7.00907 1.45921 6.991C1.44386 6.9832 1.43653 7.02476 1.41004 7.00905C1.38421 6.9935 1.33801 6.93797 1.31894 6.9177C1.30034 6.89724 1.33949 6.87934 1.33991 6.87586C1.34065 6.86292 1.33065 6.83768 1.32106 6.8195C1.31654 6.80945 1.3126 6.8019 1.3114 6.80081C1.16167 6.65648 0.987845 6.53586 0.915455 6.33248C0.909891 6.3168 0.953221 6.30851 0.952769 6.30593C0.945779 6.2483 0.861097 6.33598 0.809582 6.31395C0.891209 6.28421 0.867132 6.26931 0.860616 6.22817C0.857588 6.20829 0.892736 6.20571 0.895242 6.20276C0.932296 6.15827 0.864125 6.16366 0.849594 6.16327C0.796372 6.16233 0.844493 6.12309 0.808971 6.12172C0.773573 6.11987 0.737694 6.16532 0.725125 6.12677C0.750978 6.10641 0.836917 6.10762 0.840067 6.07584C0.851355 5.95821 0.739784 5.77474 0.714933 5.68574C0.689698 5.59868 0.690075 5.56872 0.669128 5.51842C0.631939 5.42824 0.697338 5.45125 0.714285 5.38858C0.731449 5.32573 0.590429 5.37858 0.55763 5.37546C0.52486 5.37229 0.555581 5.35762 0.536584 5.34988C0.517605 5.3422 0.50002 5.3684 0.489497 5.34496C0.479025 5.32205 0.523956 5.24458 0.555597 5.23143C0.622374 5.20234 0.700055 5.22111 0.664473 5.16069C0.662378 5.15719 0.625777 5.17519 0.619706 5.16147C0.572894 5.05313 0.554346 4.93551 0.512472 4.82511C0.506693 4.81021 0.465707 4.82986 0.461857 4.82124C0.421602 4.73083 0.498372 4.7537 0.571784 4.69156C0.466412 4.7173 0.397248 4.6984 0.386926 4.62558C0.386456 4.62228 0.38629 4.61923 0.3864 4.6164C0.387761 4.58165 0.430604 4.58062 0.45772 4.55081C0.46656 4.54114 0.430632 4.51481 0.451948 4.50662C0.521596 4.47952 0.605433 4.49797 0.564522 4.42834C0.562616 4.4253 0.524471 4.44025 0.520762 4.4294C0.496742 4.35939 0.570943 4.34167 0.57187 4.26322C0.572606 4.20197 0.516438 4.09758 0.503502 4.02852C0.382731 4.04019 0.405145 3.97025 0.48678 3.93814C0.480141 3.89275 0.481814 3.84403 0.467825 3.80053C0.463058 3.78566 0.428546 3.79749 0.424652 3.7958C0.363621 3.76974 0.443891 3.74556 0.4466 3.73562C0.472487 3.62816 0.40812 3.5432 0.466494 3.44023C0.468606 3.43656 0.552707 3.42945 0.490811 3.40331C0.48655 3.40159 0.44869 3.43576 0.445069 3.38795C0.441423 3.3404 0.395816 3.24983 0.435282 3.18337C0.444754 3.16725 0.513437 3.12731 0.460414 3.09411C0.453212 3.08967 0.428995 3.09415 0.415628 3.08769C0.373051 3.06674 0.458342 3.05688 0.386396 3.03176C0.314456 3.00676 0.261161 2.95504 0.312685 2.88867C0.314188 2.88655 0.382041 2.8721 0.381523 2.85092C0.380627 2.81724 0.367951 2.76844 0.369471 2.73327C0.370225 2.71634 0.411779 2.72847 0.412635 2.72555C0.439638 2.61265 0.405206 2.53041 0.393398 2.40783C0.391145 2.38554 0.450596 2.32313 0.407 2.27832C0.359286 2.22872 0.151954 2.27045 0.204794 2.16308C0.225918 2.11998 0.488742 2.07253 0.356128 1.98936C0.377069 1.90608 0.36722 1.82632 0.362197 1.74477C0.360922 1.67494 0.364287 1.60638 0.393229 1.53843C0.396055 1.53164 0.470791 1.5176 0.471595 1.50152C0.472655 1.47752 0.440389 1.46048 0.440232 1.44303C0.43877 1.36993 0.476799 1.30836 0.483263 1.23928C0.485871 1.21292 0.44958 1.21646 0.452936 1.18477C0.456423 1.15311 0.505653 1.14075 0.491675 1.09471C0.481011 1.06 0.394632 1.00891 0.393509 0.962916C0.485184 0.981488 0.489467 0.951933 0.526107 0.906869C0.533197 0.898286 0.562127 0.916641 0.567102 0.913024C0.587978 0.898774 0.566396 0.87481 0.588802 0.862097C0.594188 0.859038 0.625007 0.86735 0.63113 0.865421C0.655746 0.857816 0.657125 0.839987 0.650814 0.821485C0.643482 0.79971 0.62575 0.776813 0.620789 0.770314C0.586035 0.724006 0.630617 0.722672 0.621786 0.692638C0.61333 0.662023 0.577794 0.689983 0.577972 0.657502C0.578611 0.589544 0.617163 0.516257 0.64318 0.458032C0.653678 0.43493 0.684775 0.46883 0.687172 0.465946C0.719468 0.423094 0.701599 0.356006 0.790684 0.36645C0.608443 0.23888 0.823655 0.347179 0.81612 0.260234C0.815399 0.253412 0.724629 0.202603 0.701319 0.216348C0.67796 0.230227 0.692621 0.274941 0.65771 0.292828C0.649404 0.297286 0.543407 0.293358 0.535589 0.296019C0.474252 0.317355 0.611249 0.390384 0.617882 0.396243C0.688976 0.460501 0.571915 0.463277 0.559364 0.473414C0.502089 0.518552 0.499797 0.579534 0.457825 0.623849C0.430645 0.653013 0.333572 0.623126 0.326507 0.653467C0.320658 0.679045 0.324798 0.702831 0.331714 0.725049C0.352456 0.789951 0.397431 0.83655 0.292413 0.880434C0.262527 0.893249 0.158337 0.849439 0.22807 0.937671C0.23239 0.943382 0.299831 1.00991 0.244742 1.02869C0.237774 1.03111 0.206045 1.02477 0.202426 1.02912C0.178862 1.05825 0.200168 1.08472 0.181828 1.11774C0.163494 1.15082 0.138331 1.19057 0.143085 1.23258C0.145852 1.25801 0.20112 1.29751 0.214172 1.31089C0.251798 1.34888 0.178232 1.37447 0.226843 1.40096C0.275773 1.42718 0.358404 1.39826 0.385418 1.4537C0.301711 1.44574 0.215495 1.44014 0.13115 1.43358C0.122245 1.53157 0.132475 1.62955 0.130076 1.72717C0.130044 1.72946 0.129468 1.73632 0.129533 1.73861C0.129897 1.75771 0.129634 1.7767 0.128478 1.79558C0.127544 1.80941 0.0827688 1.794 0.0806024 1.80875C0.0716474 1.87108 0.102188 1.92638 0.0872316 1.99185C0.075514 2.04149 0.0257918 2.0959 0.011911 2.14787C0.106912 2.1838 0.0714743 2.26114 0.0781946 2.31832C0.0805097 2.33832 0.106224 2.33813 0.114083 2.35271C0.143109 2.40769 0.0590774 2.37934 0.0451763 2.39358C-0.0141583 2.45479 0.177908 2.46704 0.170532 2.54175C0.1702 2.54576 0.066043 2.59048 0.0594381 2.597C0.01638 2.63835 0.0948724 2.6053 0.101558 2.63223C0.113806 2.68109 0.137194 2.71592 0.105512 2.77195C0.0961295 2.78846 0.0311099 2.82679 0.0797263 2.86057C0.0860909 2.86503 0.120038 2.86351 0.121937 2.867C0.153504 2.93008 0.047036 2.92908 0.0102294 2.96435C-0.0265666 2.99955 0.0461046 3.05636 0.0671636 3.06784C0.121591 3.09799 0.0908913 3.04562 0.0963136 3.04409C0.160619 3.02637 0.148954 3.06642 0.154023 3.09712C0.258387 3.10277 0.25171 3.14534 0.158879 3.12902C0.148735 3.12716 0.158717 3.10332 0.154023 3.09712C0.0512472 3.12283 0.037659 3.17088 0.133315 3.22348C0.178192 3.24802 0.230392 3.22496 0.211463 3.29891C0.202995 3.33254 0.131005 3.31997 0.111638 3.35007C0.0674577 3.41891 0.136218 3.50718 0.127863 3.57761C0.124833 3.60342 0.0846971 3.5796 0.0812842 3.59736C0.0721292 3.64422 0.103275 3.6846 0.090307 3.73179C0.089086 3.73611 0.0474368 3.72761 0.0475981 3.74227C0.0481252 3.85352 0.0805772 3.94842 0.090491 4.06353C0.0951501 4.11877 0.081589 4.22085 0.0920136 4.27758C0.109663 4.37704 0.183355 4.4914 0.179706 4.57717C0.17755 4.63228 0.136591 4.6269 0.111734 4.65286C0.111304 4.6533 0.110879 4.65375 0.110459 4.65422C0.0625704 4.70723 0.169578 4.77152 0.186112 4.78104C0.18662 4.78111 0.190023 4.73355 0.214295 4.75528C0.259932 4.76388 0.186233 4.78051 0.186112 4.78104C0.196787 4.78739 0.218491 4.87747 0.2134 4.89797C0.210533 4.90868 0.17107 4.90836 0.170307 4.91385C0.152912 5.04303 0.161078 5.16983 0.199232 5.29517C0.20036 5.29727 0.242984 5.28716 0.245095 5.29215C0.276041 5.36362 0.231117 5.41928 0.210471 5.48607C0.190042 5.55377 0.209627 5.60102 0.290355 5.62392C0.289825 5.67174 0.336095 5.73282 0.364174 5.76719C0.392194 5.80146 0.310492 5.82515 0.309611 5.829C0.281812 5.94878 0.34486 6.00109 0.385104 6.11152C0.404056 6.1637 0.428041 6.27527 0.442589 6.33785C0.453527 6.38713 0.483707 6.40808 0.490708 6.4558C0.491742 6.46235 0.454494 6.47172 0.453955 6.47411C0.434687 6.54187 0.508403 6.47988 0.527889 6.48286C0.598962 6.49291 0.636832 6.4989 0.642583 6.5701C0.643575 6.58588 0.549468 6.69098 0.558677 6.72152C0.570292 6.76003 0.603343 6.72263 0.615006 6.76291C0.616089 6.76633 0.59074 6.78161 0.605695 6.80215C0.674982 6.89793 0.767975 6.98778 0.847795 7.07624C0.858893 7.08836 0.810332 7.10515 0.826157 7.12343C0.861117 7.16361 0.900132 7.20282 0.942057 7.23808C0.962649 7.25371 0.986204 7.26991 1.01439 7.28571C1.02771 7.29315 1.04736 7.26556 1.05689 7.26184C1.1158 7.24085 1.067 7.31832 1.06814 7.32277C1.10462 7.4432 1.22726 7.5062 1.28169 7.67137C1.28423 7.68006 1.24282 7.78984 1.32779 7.77812C1.33355 7.77753 1.41863 7.76272 1.38774 7.81684C1.38582 7.82022 1.33962 7.8245 1.36263 7.85314C1.38538 7.88135 1.39496 7.94687 1.46189 7.96404C1.48285 7.96929 1.56982 7.95435 1.54616 8.03036C1.54355 8.03467 1.47446 8.18382 1.57049 8.14444C1.58624 8.13781 1.66616 8.06944 1.65994 8.14801C1.65878 8.1632 1.62768 8.16231 1.63495 8.19445C1.64676 8.24459 1.70688 8.27135 1.71028 8.34474C1.71036 8.35724 1.68735 8.43792 1.7506 8.42515C1.76035 8.423 1.77884 8.39147 1.79383 8.40129C1.86563 8.44817 1.91351 8.52604 1.99274 8.56312C2.02092 8.57636 2.04718 8.52379 2.07981 8.5317C2.112 8.53932 2.16919 8.56738 2.17678 8.6064C2.18538 8.64629 2.1017 8.69608 2.13574 8.73175C2.26567 8.86667 2.43885 8.9363 2.59904 9.0114C2.64319 9.03249 2.68801 9.06051 2.79817 9.08356C2.86588 9.09498 2.88446 9.0997 2.90178 9.10828C2.92412 9.10702 2.95189 9.15592 3.15923 9.05075C3.47661 8.79318 3.38539 8.64732 3.41146 8.57937C3.4149 8.50403 3.41201 8.4556 3.41146 8.42154C3.41021 8.41485 3.41797 8.33001 3.39773 8.2672C3.37024 8.17245 3.29789 8.25856 3.29685 8.18994C3.29741 8.15477 3.40911 8.15775 3.41486 8.1521C3.47409 8.09242 3.45338 8.02326 3.49789 7.96031C3.50699 7.94767 3.53954 7.97917 3.54685 7.96827C3.57229 7.93095 3.57567 7.87982 3.59837 7.84157C3.60869 7.82437 3.63633 7.84216 3.64207 7.82493C3.65622 7.7838 3.66186 7.74232 3.65426 7.69011C3.6536 7.6853 3.60523 7.69055 3.61899 7.66046C3.64162 7.61137 3.64583 7.53815 3.70257 7.4975C3.71955 7.48546 3.78577 7.51985 3.75908 7.46018C3.75354 7.44766 3.66932 7.41514 3.75959 7.41031C3.77459 7.40949 3.9039 7.38892 3.86276 7.32301C3.85194 7.30564 3.79962 7.24791 3.82048 7.23327C3.82355 7.23142 3.85314 7.26114 3.86542 7.2464C3.90816 7.194 3.93727 7.13008 3.98056 7.07468C3.99219 7.05992 4.01612 7.10359 4.03229 7.08094C4.07684 7.01863 4.11144 6.92875 4.13385 6.85548C4.14204 6.82843 4.10268 6.83015 4.10026 6.82665C4.0605 6.77038 4.14243 6.79 4.15157 6.78238C4.20739 6.73441 4.19523 6.6712 4.23146 6.61856C4.24134 6.604 4.27148 6.63185 4.27611 6.63021C4.32235 6.61205 4.2473 6.60647 4.24991 6.5826C4.25716 6.51527 4.28929 6.45177 4.31996 6.39316C4.33121 6.37176 4.36222 6.41461 4.37187 6.39507C4.42997 6.27901 4.47631 6.14772 4.49353 6.0128C4.49669 5.98729 4.45853 5.9918 4.45252 5.98439C4.41006 5.93406 4.4977 5.90585 4.50818 5.89515C4.55535 5.84945 4.53104 5.81977 4.54845 5.7711C4.55409 5.75524 4.55942 5.739 4.56443 5.72245C4.63348 5.49967 4.64067 5.22988 4.62953 5.02103C4.61329 4.72858 4.55706 4.50589 4.49228 4.22452C4.48789 4.20655 4.5377 4.21233 4.53438 4.19645C4.48857 3.99079 4.38976 3.79801 4.27779 3.60121C4.26836 3.58497 4.32027 3.5836 4.30594 3.55631C4.29109 3.52796 4.27104 3.49757 4.24775 3.46925C4.2343 3.45394 4.21811 3.43863 4.20127 3.4269C4.1848 3.4153 4.16864 3.45806 4.15252 3.44564C4.11437 3.41589 4.0835 3.37483 4.06335 3.32953C4.05473 3.30995 4.10983 3.31298 4.09576 3.28951C4.00177 3.1298 3.91962 2.95891 3.77893 2.80438C3.76937 2.79393 3.68167 2.82318 3.68458 2.78872C3.70653 2.77568 3.73354 2.76283 3.75761 2.75018C3.64534 2.48247 3.5021 2.22729 3.38737 1.95236C3.38257 1.94081 3.43566 1.94296 3.42661 1.92053C3.37424 1.79036 3.33806 1.65834 3.24253 1.53989C3.23314 1.52814 3.15562 1.56481 3.15305 1.52058C3.15265 1.51277 3.14127 1.44874 3.15312 1.42705C3.15498 1.42399 3.1964 1.42122 3.19049 1.40159C3.15532 1.28735 3.105 1.17291 3.04279 1.06809C3.03269 1.05121 2.99931 1.08452 2.99176 1.0726C2.93838 0.987541 2.93482 0.87697 2.86858 0.800591C2.82412 0.749492 2.76189 0.794766 2.68281 0.785895C2.67164 0.784639 2.65784 0.748144 2.61731 0.759401C2.51533 0.787623 2.41145 0.84205 2.30205 0.870018C2.27849 0.876085 2.28669 0.817533 2.24085 0.865727C2.23781 0.869047 2.23141 0.911662 2.21552 0.926908C2.20455 0.9375 2.16023 0.939676 2.14777 0.958011C2.13533 0.97635 2.174 0.97907 2.16143 1.00675C2.14863 1.03449 2.09942 1.0407 2.10822 1.08499ZM0.492026 5.9192C0.54051 5.94395 0.397243 5.98718 0.421928 5.9395C0.423296 5.93714 0.489623 5.91787 0.492026 5.9192ZM0.251052 1.67737C0.289658 1.70941 0.266215 1.7308 0.2312 1.73409C0.220548 1.74265 0.20916 1.74245 0.198001 1.74042C0.186697 1.72916 0.175333 1.72438 0.165896 1.71719C0.117503 1.67998 0.23226 1.66148 0.251052 1.67737ZM0.355988 1.20394C0.398808 1.26534 0.187835 1.24213 0.23956 1.1898C0.242513 1.18673 0.353522 1.20031 0.355988 1.20394ZM2.71257 0.939374C2.71054 0.939566 2.69975 0.913681 2.70141 0.912412C2.74166 0.883147 2.76316 0.93483 2.71257 0.939374ZM0.513184 0.748427C0.522203 0.758783 0.519956 0.770603 0.512125 0.779572C0.500969 0.792026 0.478179 0.798268 0.461544 0.780084C0.456539 0.7746 0.454907 0.768421 0.45571 0.762522C0.458667 0.741192 0.491857 0.724004 0.513184 0.748427ZM1.57936 7.41431C1.58155 7.41364 1.59339 7.42998 1.58232 7.436C1.54656 7.45522 1.5424 7.42534 1.57936 7.41431ZM0.83924 0.0173297C0.799534 0.12668 0.928066 0.265781 0.96383 0.139259C0.970165 0.116467 0.892134 0.1624 0.889956 0.128807C0.885848 0.0678906 1.00118 0.0790341 0.969279 0.00447369C0.963258 -0.00867086 0.84122 0.0109 0.838933 0.0174208C0.839035 0.0173904 0.839137 0.01736 0.83924 0.0173297ZM0.6711 5.8944C0.673175 5.89462 0.681988 5.92077 0.680342 5.92211C0.638353 5.9491 0.620233 5.89523 0.6711 5.8944ZM2.37734 8.25832C2.3812 8.25625 2.43285 8.29285 2.43201 8.29692C2.41028 8.37911 2.30301 8.30326 2.37734 8.25832ZM0.50019 4.02769C0.545387 3.99385 0.548339 3.95774 0.48685 3.93827C0.492109 3.96761 0.494863 3.99795 0.50019 4.02769Z" fill="#963076"/>
</svg>
