<svg width="9" height="21" viewBox="0 0 9 21" fill="none" xmlns="http://www.w3.org/2000/svg">
<path d="M7.43501 0.0203C7.29773 0.0911395 7.13077 0.212238 7.01034 0.310465C6.97301 0.34091 7.00766 0.35045 6.98219 0.37269C6.93098 0.417037 6.87427 0.437342 6.82469 0.483047C6.80906 0.497845 6.85368 0.519366 6.83675 0.53409C6.7422 0.615527 6.63763 0.668823 6.53685 0.743071C6.03982 1.10925 5.53753 1.44904 5.02545 1.80388C4.85649 1.92088 4.66717 2.08972 4.48094 2.19182C4.45898 2.20383 4.45123 2.16486 4.44559 2.16492C4.35821 2.1666 4.41977 2.2152 4.38488 2.24991C4.24523 2.3882 4.0706 2.50739 3.90824 2.59787C3.83974 2.63585 3.86466 2.53154 3.82164 2.60934C3.81861 2.61468 3.85681 2.6363 3.8412 2.65166C3.80575 2.68642 3.7243 2.73212 3.6949 2.7554C3.63777 2.80082 3.62749 2.80719 3.57003 2.84602C3.56802 2.84739 3.56601 2.84877 3.564 2.85017C3.48625 2.90413 3.40536 2.98177 3.31873 3.03258C3.29965 3.04365 3.30023 2.99404 3.26755 3.00889C3.23483 3.02369 3.1613 3.0811 3.14174 3.10732C3.12214 3.13347 3.1516 3.15096 3.15142 3.16006C3.15098 3.23599 3.0151 3.2326 3.0027 3.23956C2.78034 3.36443 2.64263 3.53916 2.46449 3.69332C2.32881 3.81068 2.17643 3.92843 2.05469 4.04812C1.90945 4.19122 1.80402 4.32853 1.66573 4.46939C1.65124 4.48426 1.6336 4.43419 1.61581 4.45234C1.52235 4.54784 1.43274 4.64643 1.34861 4.74908C1.25567 4.86198 1.17501 4.98383 1.10967 5.11312C1.0968 5.13877 1.15146 5.1307 1.14089 5.15746C1.07248 5.32143 1.03139 5.58744 0.82746 5.61113C0.787261 5.72184 0.745508 5.8589 0.749756 5.96833C0.75265 6.0387 0.814275 5.9902 0.772987 6.06215C0.763846 6.07847 0.732389 6.04471 0.721547 6.07025C0.67583 6.17855 0.659702 6.30476 0.61843 6.41381C0.609948 6.43597 0.576332 6.42329 0.568847 6.42869C0.507556 6.47517 0.577339 6.58186 0.580874 6.6021C0.605153 6.75997 0.576626 6.86778 0.568721 7.00938C0.567053 7.04213 0.521861 7.00055 0.518596 7.03213C0.50242 7.19667 0.504969 7.36801 0.530638 7.52774C0.536493 7.56331 0.576006 7.52931 0.580887 7.54613C0.602106 7.61888 0.52649 7.63997 0.546751 7.7102C0.550983 7.72529 0.585125 7.71473 0.589083 7.7173C0.651197 7.75707 0.569104 7.79801 0.568057 7.81004C0.552509 7.95201 0.649082 8.03244 0.650973 8.16614C0.651137 8.1821 0.603596 8.15142 0.606728 8.1958C0.608618 8.22283 0.611058 8.25207 0.61343 8.27848C0.635675 8.51478 0.603877 8.7608 0.545738 9.00862C0.535823 9.05097 0.577386 9.03364 0.580285 9.03754C0.623841 9.10243 0.533378 9.09914 0.525193 9.11092C0.461846 9.20611 0.481762 9.33337 0.356752 9.36357C0.289891 9.54541 0.201356 9.72715 0.150483 9.94072C0.0801 10.2427 0.0384689 10.5553 0.082136 10.8641C0.0829468 10.8705 0.125234 10.8607 0.126681 10.8734C0.145834 11.026 0.0819854 10.9945 0.0026623 11.0983C-0.0172254 11.1249 0.0809652 11.2013 0.0883803 11.2075C0.11523 11.2315 0.17658 11.2034 0.181906 11.2115C0.224173 11.2776 0.0173761 11.2761 0.0234098 11.3716C0.0239536 11.3745 0.0609574 11.3595 0.0652597 11.3672C0.0787524 11.3909 0.0655692 11.4163 0.0805949 11.4392C0.115535 11.4918 0.216626 11.5002 0.168074 11.5885C0.161917 11.5998 0.043347 11.5974 0.0598427 11.681C0.0660215 11.7143 0.0872807 11.8626 0.102887 11.9023C0.117931 11.9421 0.149743 11.9069 0.151891 11.9095C0.221782 12.0095 0.234236 11.964 0.31746 12.0023C0.400653 12.0394 0.226424 12.0625 0.212319 12.0891C0.198142 12.1156 0.257274 12.1855 0.276122 12.2009C0.294877 12.2165 0.311963 12.1867 0.324148 12.2017C0.404672 12.3 0.253142 12.2734 0.236482 12.3184C0.234092 12.325 0.232412 12.3313 0.231369 12.3373C0.214789 12.4274 0.343392 12.4597 0.375619 12.5311C0.384876 12.5516 0.351509 12.542 0.354122 12.5618C0.364903 12.6402 0.416556 12.6748 0.404474 12.7707C0.402535 12.7864 0.346419 12.8767 0.414135 12.9064C0.423867 12.9106 0.450078 12.8838 0.465975 12.9141C0.489799 12.9594 0.520624 13.0442 0.524595 13.0988C0.527509 13.1392 0.463903 13.1097 0.493269 13.1533C0.506357 13.1727 0.525392 13.1247 0.547471 13.1618C0.569466 13.1987 0.596771 13.3012 0.606701 13.3403C0.616582 13.3793 0.571639 13.3691 0.569898 13.373C0.560226 13.3963 0.562561 13.4759 0.564521 13.4826C0.654421 13.8161 0.811122 14.1016 0.891308 14.4281C0.89772 14.4539 0.851686 14.4501 0.852246 14.4541C0.862676 14.5456 0.949084 14.4431 1.00449 14.4915C0.919207 14.5092 0.945604 14.5403 0.956081 14.6033C0.961153 14.634 0.92409 14.6284 0.921689 14.6322C0.887527 14.6918 0.959691 14.7006 0.97508 14.7044C1.03152 14.7175 0.986293 14.7672 1.02407 14.776C1.06167 14.785 1.09313 14.7251 1.11167 14.783C1.08765 14.809 0.996409 14.7915 0.998621 14.8397C1.00293 14.9388 1.05451 15.0707 1.10937 15.1907C1.11119 15.1967 1.11953 15.2125 1.12282 15.2178C1.1929 15.3039 1.26525 15.3791 1.30659 15.4291C1.39784 15.5387 1.42366 15.5774 1.48581 15.6336C1.5995 15.7332 1.51834 15.7315 1.5621 15.8197C1.60754 15.9077 1.6824 15.7715 1.71461 15.7592C1.74638 15.7464 1.73268 15.7792 1.75648 15.7785C1.78011 15.7776 1.77146 15.7381 1.80218 15.7598C1.83237 15.7815 1.86657 15.8933 1.85356 15.9265C1.82583 15.9971 1.74054 16.0189 1.83301 16.0694C1.83834 16.0722 1.85083 16.0308 1.86986 16.043C2.02057 16.1409 2.16061 16.2566 2.31303 16.3466C2.3342 16.359 2.34466 16.3118 2.35729 16.3186C2.48713 16.388 2.40135 16.4124 2.41317 16.5256C2.46643 16.4301 2.54149 16.4058 2.62886 16.4736C2.6806 16.5137 2.64269 16.5438 2.65639 16.5966C2.66103 16.613 2.71685 16.6154 2.71018 16.6383C2.68783 16.7126 2.60356 16.7499 2.71329 16.794C2.71815 16.7958 2.72989 16.7548 2.74493 16.7634C2.84369 16.8197 2.80732 16.8873 2.89759 16.968C2.96708 17.03 3.1174 17.091 3.21061 17.1495C3.21581 17.1529 3.21917 17.1549 3.22244 17.157C3.29154 17.0573 3.35802 17.1402 3.34178 17.2317C3.39977 17.2697 3.45834 17.3181 3.51986 17.3484C3.5412 17.359 3.54931 17.3215 3.55393 17.3202C3.62611 17.299 3.60159 17.3817 3.61219 17.3933C3.72677 17.5145 3.87027 17.5421 3.96161 17.6822C3.96483 17.6872 3.92273 17.7607 3.99268 17.7352C3.99737 17.7334 3.97767 17.672 4.03938 17.7128C4.10033 17.753 4.23926 17.7973 4.29893 17.8882C4.31377 17.9105 4.32427 18.0022 4.39591 17.9878C4.40555 17.9858 4.41372 17.9619 4.42937 17.9566C4.47963 17.94 4.44385 18.0191 4.51607 17.9819C4.58743 17.9441 4.68086 17.9444 4.73533 18.0448C4.73712 18.0479 4.71738 18.1168 4.74423 18.1347C4.7872 18.1633 4.85518 18.1947 4.89832 18.2261C4.91911 18.2413 4.88132 18.2658 4.88451 18.269C5.01238 18.3894 5.13339 18.43 5.29444 18.5252C5.32393 18.5425 5.36964 18.6454 5.45002 18.6472C5.53778 18.6491 5.59641 18.4382 5.70327 18.5747C5.74717 18.6301 5.66329 18.8909 5.84078 18.8514C6.01118 19.0141 6.22725 19.0832 6.3905 19.2582C6.39781 19.266 6.3826 19.3446 6.40335 19.3582C6.43422 19.3782 6.47046 19.3622 6.49322 19.3757C6.5887 19.4311 6.65405 19.5134 6.7429 19.5711C6.7766 19.5931 6.78555 19.5562 6.82582 19.5825C6.866 19.6087 6.86563 19.6653 6.9313 19.6846C6.98112 19.6991 7.07607 19.6504 7.13578 19.6793C7.08371 19.757 7.12112 19.7813 7.17164 19.8475C7.18133 19.8603 7.1491 19.8773 7.15271 19.8847C7.16699 19.9154 7.20487 19.9093 7.21714 19.9404C7.22016 19.9479 7.20191 19.9741 7.20334 19.9817C7.21466 20.0475 7.31959 20.034 7.33779 20.0316C7.40712 20.0227 7.40266 20.0705 7.44561 20.0781C7.48837 20.0856 7.45418 20.0326 7.49806 20.0499C7.58894 20.0857 7.68587 20.161 7.76525 20.2157C7.79688 20.2377 7.75075 20.2572 7.75471 20.2611C7.81346 20.3162 7.90538 20.3259 7.89216 20.4207C8.06436 20.2739 7.91902 20.4659 8.03734 20.4962C8.04671 20.4985 8.11614 20.4205 8.09693 20.3881C8.07768 20.3558 8.01622 20.3519 7.99105 20.3048C7.98505 20.2937 7.98862 20.1769 7.98484 20.167C7.95511 20.0894 7.85711 20.21 7.84921 20.2148C7.762 20.2656 7.75819 20.1343 7.74543 20.1163C7.68693 20.034 7.60797 20.0046 7.55686 19.9392C7.52319 19.8965 7.57782 19.8107 7.54259 19.7894C7.42566 19.7188 7.30461 19.8066 7.27127 19.6321C7.26402 19.5948 7.35085 19.5203 7.21973 19.5341C7.21146 19.535 7.10535 19.5575 7.10023 19.4918C7.0996 19.4836 7.1185 19.4573 7.11438 19.451C7.08643 19.4096 7.04592 19.4124 7.01126 19.3726C6.97662 19.3327 6.93736 19.2822 6.88345 19.2573C6.85082 19.2421 6.779 19.265 6.75671 19.2672C6.69322 19.2742 6.69242 19.188 6.63843 19.2128C6.58409 19.2376 6.58603 19.3355 6.5029 19.3173C6.54931 19.2472 6.59395 19.173 6.63921 19.1015C6.4986 19.0049 6.34589 18.9295 6.20816 18.8268C6.19121 18.814 6.23509 18.7898 6.21762 18.7752C6.14382 18.7138 6.05616 18.6908 5.98285 18.6228C5.92528 18.5693 5.88525 18.4819 5.82601 18.4248C5.72966 18.4742 5.65198 18.3787 5.57556 18.3349C5.54902 18.3197 5.53575 18.3418 5.51331 18.336C5.42913 18.314 5.50969 18.2671 5.49913 18.2431C5.4535 18.1403 5.33545 18.2924 5.24598 18.2226C5.24111 18.2189 5.24088 18.0927 5.23645 18.0816C5.20864 18.0105 5.20704 18.1045 5.17013 18.0874C5.10265 18.0561 5.04599 18.0457 4.99424 17.9717C4.97911 17.9499 4.9667 17.8624 4.89853 17.8744C4.88957 17.876 4.87269 17.9056 4.86736 17.9042C4.77311 17.8774 4.83185 17.7884 4.80972 17.7282C4.78755 17.6679 4.67772 17.6796 4.65152 17.6869C4.58377 17.7057 4.6653 17.7256 4.66419 17.7314C4.64981 17.7999 4.60675 17.7554 4.56639 17.7331C4.50003 17.8141 4.4519 17.7718 4.52488 17.7097C4.53292 17.703 4.55611 17.7316 4.56639 17.7331C4.59374 17.6266 4.54357 17.5744 4.42446 17.6068C4.36849 17.6218 4.3671 17.6853 4.28718 17.6042C4.25122 17.5677 4.30901 17.5207 4.28461 17.479C4.2284 17.3834 4.08176 17.3604 4.00365 17.291C3.97552 17.266 4.0283 17.2555 4.00963 17.2371C3.95864 17.1871 3.89466 17.1773 3.84598 17.1234C3.84172 17.1186 3.87832 17.0942 3.86116 17.0811C3.73203 16.9817 3.60258 16.9204 3.46459 16.8206C3.46224 16.8189 3.45986 16.8171 3.45743 16.8153C3.39512 16.7663 3.2979 16.6659 3.23006 16.6195C3.10868 16.5364 2.92852 16.4734 2.83898 16.3851C2.77952 16.3269 2.81958 16.3058 2.80971 16.2624C2.7899 16.1778 2.63692 16.1807 2.61532 16.1826C2.61444 16.1826 2.66283 16.2336 2.62056 16.227C2.57616 16.2479 2.6158 16.1833 2.61532 16.1826C2.60078 16.1837 2.48648 16.1034 2.47058 16.0799C2.4619 16.0672 2.49306 16.0423 2.48811 16.0362C2.36706 15.8914 2.23753 15.7672 2.09473 15.6564C2.09191 15.6548 2.0652 15.6897 2.05893 15.6855C1.96969 15.6268 1.96057 15.5411 1.92685 15.4586C1.89316 15.3758 1.84375 15.3345 1.75406 15.3441C1.72044 15.2894 1.6381 15.238 1.58986 15.2067C1.54153 15.1754 1.60613 15.1192 1.60477 15.1145C1.58475 15.0429 1.55575 14.9965 1.51972 14.9524L1.5608 15.0352C1.5339 14.9753 1.49874 14.9194 1.46811 14.8411C1.4398 14.7692 1.40387 14.6223 1.38687 14.5402C1.37366 14.4757 1.34268 14.4447 1.33622 14.3831C1.33534 14.3748 1.37391 14.371 1.37453 14.3682C1.39717 14.2905 1.31891 14.3495 1.29894 14.3413C1.22629 14.3114 1.18645 14.2919 1.18739 14.2005C1.18765 14.1797 1.29752 14.0845 1.29439 14.0479C1.29007 14.0005 1.24951 14.031 1.24615 13.9807C1.24583 13.9764 1.27423 13.9685 1.26419 13.9401C1.21761 13.8069 1.15733 13.6643 1.1193 13.5226C1.11399 13.5033 1.16604 13.515 1.15911 13.4868C1.12661 13.3547 1.08435 13.2119 1.02742 13.0896C1.01327 13.0595 0.987286 13.0881 0.976012 13.0839C0.907616 13.0576 0.973275 12.9749 0.972107 12.9646C0.946283 12.7184 0.822186 12.5579 0.790237 12.3063C0.789001 12.2959 0.82202 12.2239 0.802298 12.1771C0.796016 12.1628 0.783616 12.1515 0.761398 12.1462C0.755652 12.145 0.6668 12.1241 0.710945 12.074C0.713751 12.071 0.760127 12.0863 0.745089 12.0431C0.729954 11.9993 0.740781 11.9226 0.683978 11.8699C0.666115 11.8536 0.577927 11.8208 0.630827 11.7505C0.634219 11.745 0.762737 11.6338 0.659951 11.6159C0.643091 11.613 0.538824 11.6326 0.583578 11.5543C0.592367 11.5395 0.618607 11.5612 0.629032 11.5239C0.645243 11.4674 0.610168 11.3975 0.652543 11.3275C0.659988 11.315 0.72837 11.2624 0.672437 11.2259C0.66367 11.2201 0.628977 11.2335 0.624164 11.2126C0.601188 11.1129 0.624292 11.0079 0.603334 10.9054C0.596064 10.869 0.538431 10.8853 0.524859 10.8463C0.511213 10.8074 0.50157 10.7281 0.530977 10.6901C0.560341 10.6523 0.646857 10.7033 0.659459 10.6455C0.701189 10.4577 0.708021 10.2677 0.735133 10.0765C0.739965 10.0308 0.751253 9.97903 0.76958 9.92441C0.780776 9.89171 0.800524 9.93024 0.820113 9.88251C0.890312 9.71182 1.10981 9.33986 1.11208 9.08855C1.11314 8.89532 1.00648 9.1045 1.02415 8.96531C1.03178 8.89992 1.15054 8.85101 1.15736 8.83375C1.22377 8.67439 1.18867 8.54668 1.20088 8.3921C1.20306 8.35949 1.24667 8.3903 1.24788 8.36232C1.25006 8.31062 1.24246 8.25791 1.23269 8.2062C1.22571 8.17406 1.21849 8.13933 1.21674 8.10864C1.21507 8.07813 1.24802 8.07907 1.24265 8.05232C1.23004 7.98639 1.21078 7.92888 1.17498 7.86764C1.17171 7.86189 1.13454 7.90541 1.12895 7.85591C1.12019 7.77716 1.0836 7.67932 1.11112 7.58693C1.11946 7.55931 1.19386 7.55659 1.14071 7.50024C1.1297 7.48848 1.04021 7.50559 1.11644 7.4371C1.12891 7.42475 1.23261 7.31369 1.16659 7.25895C1.14911 7.24461 1.07661 7.2051 1.08925 7.17345C1.09124 7.16922 1.13069 7.1878 1.13553 7.16167C1.15203 7.06872 1.154 6.97261 1.17579 6.87955C1.18169 6.85507 1.21924 6.89604 1.22676 6.85968C1.24751 6.75931 1.25501 6.63394 1.2608 6.5349C1.26285 6.49838 1.2244 6.51643 1.22121 6.51317C1.16977 6.45893 1.25563 6.45049 1.26321 6.43805C1.30983 6.359 1.28877 6.28582 1.32079 6.21178C1.32959 6.19142 1.36275 6.21746 1.36733 6.21425C1.41282 6.18114 1.33587 6.19291 1.33685 6.16317C1.33946 6.08004 1.37262 5.99563 1.40748 5.92297C1.42036 5.89635 1.4499 5.94406 1.46092 5.9203C1.52708 5.78034 1.59548 5.63908 1.655 5.50009C1.66626 5.47376 1.62733 5.46966 1.62385 5.46034C1.59959 5.39482 1.69754 5.38772 1.71123 5.38133C1.7742 5.35087 1.76422 5.3133 1.80306 5.27406C1.82504 5.25219 1.84753 5.22957 1.87061 5.20641C2.06705 5.00562 2.27609 4.76181 2.4504 4.57752C2.70675 4.30692 2.90396 4.0896 3.1877 3.87301C3.20578 3.85924 3.21685 3.90986 3.23278 3.89851C3.43614 3.75116 3.62441 3.58975 3.83982 3.45901C3.85746 3.44823 3.85779 3.50132 3.88673 3.48541C3.90958 3.47301 3.93399 3.45807 3.95828 3.44157C3.99921 3.41379 4.03929 3.38201 4.07105 3.35047C4.09623 3.32558 4.03648 3.31989 4.06224 3.29549C4.12163 3.23897 4.19422 3.18703 4.26739 3.14705C4.29868 3.13005 4.27894 3.19719 4.31768 3.17217C4.58387 3.00133 4.84764 2.83731 5.08339 2.61382C5.09953 2.5985 5.06562 2.51123 5.11396 2.50071C5.13076 2.52011 5.14692 2.54528 5.16303 2.56723C5.55723 2.32793 5.92267 2.0546 6.30938 1.80193C6.32572 1.79127 6.32344 1.85031 6.35517 1.82991C6.53865 1.71198 6.72465 1.60976 6.8874 1.44971C6.90364 1.43385 6.84772 1.36815 6.91025 1.34391C6.92177 1.33941 7.01011 1.29709 7.04179 1.29903C7.04623 1.29953 7.05216 1.34293 7.0799 1.3268C7.2388 1.2337 7.39761 1.12309 7.54039 1.00471C7.56319 0.985664 7.5141 0.966354 7.5301 0.952507C7.64542 0.853506 7.8 0.794703 7.90214 0.684995C7.96952 0.611977 7.90058 0.568638 7.90554 0.480159C7.90595 0.467864 7.95569 0.434585 7.93597 0.397325C7.88628 0.303721 7.79993 0.22138 7.7499 0.119751C7.73972 0.0974988 7.81855 0.0785753 7.74885 0.0532792C7.74475 0.0512367 7.68404 0.0665526 7.66242 0.0566565C7.64692 0.0501673 7.63888 0.00471908 7.61278 0.000355098C7.58703 -0.00420522 7.58547 0.0391159 7.54743 0.0386071C7.5085 0.0383524 7.49436 -0.0101815 7.43501 0.0203ZM1.37482 15.0579C1.37181 15.0569 1.36922 15.0558 1.36701 15.0545L1.38711 15.095C1.35179 15.0593 1.47022 15.013 1.46247 15.0691L1.43327 15.0102C1.43341 15.0116 1.4335 15.013 1.43352 15.0145C1.43342 15.0178 1.37797 15.059 1.37482 15.0579ZM6.28106 19.0218C6.18662 19.0355 6.20401 18.9288 6.27348 18.9157C6.34307 18.9029 6.30967 19.0176 6.28106 19.0218ZM6.83684 19.4768C6.74102 19.4724 6.85371 19.2923 6.89913 19.3773C6.90181 19.3822 6.84243 19.4771 6.83684 19.4768ZM7.69355 0.589104C7.69253 0.587402 7.7289 0.562287 7.73062 0.56353C7.77543 0.591476 7.704 0.640847 7.69355 0.589104ZM7.38598 19.932C7.34879 19.9407 7.30896 19.8718 7.35512 19.8608C7.39224 19.852 7.43225 19.9211 7.38598 19.932ZM0.446548 12.5137C0.444183 12.5135 0.434026 12.4845 0.446323 12.4817C0.485982 12.4728 0.48638 12.517 0.446548 12.5137ZM8.36982 20.6348C8.21972 20.5378 8.02982 20.6178 8.19983 20.7144C8.23059 20.7319 8.1704 20.6249 8.21606 20.638C8.29952 20.6621 8.28018 20.7833 8.38262 20.7838C8.40123 20.7838 8.3786 20.64 8.3697 20.6344C8.36974 20.6346 8.36978 20.6347 8.36982 20.6348ZM1.21402 15.1299C1.21178 15.1295 1.1962 15.0899 1.19775 15.0883C1.2352 15.0512 1.26656 15.1309 1.21402 15.1299ZM0.128795 10.7504C0.124478 10.7479 0.127908 10.6477 0.13231 10.6448C0.213473 10.6002 0.206849 10.7991 0.128795 10.7504ZM3.22569 17.1553C3.23381 17.2204 3.27736 17.2591 3.34157 17.2317C3.30322 17.2077 3.26376 17.1795 3.22569 17.1553Z" fill="#963076"/>
</svg>
