<svg width="29" height="15" viewBox="0 0 29 15" fill="none" xmlns="http://www.w3.org/2000/svg">
<path d="M0.599943 12.4126C1.00314 12.5994 1.54332 12.7794 1.95416 12.899C2.08486 12.9372 2.02756 12.8897 2.11678 12.9142C2.29345 12.9627 2.44703 13.0268 2.62169 13.0701C2.67987 13.0844 2.62231 13.0218 2.68229 13.0374C3.01063 13.1231 3.31376 13.2279 3.64482 13.318C4.42944 13.5312 5.20995 13.7343 5.99235 13.9308C6.845 14.1436 7.71718 14.3196 8.62713 14.3674C9.20609 14.4037 9.91478 14.3191 10.4905 14.2608C10.558 14.2548 10.5222 14.2961 10.5354 14.2976C10.6212 14.3071 10.6578 14.3011 10.6808 14.2891C10.7131 14.2724 10.7192 14.2439 10.7945 14.2295C11.3088 14.1311 11.8856 14.0641 12.3873 14.0234C12.6011 14.0061 12.3954 14.1023 12.6052 14.038C12.6199 14.0336 12.5614 14.0006 12.6195 13.99C12.7499 13.9663 13.0033 13.9455 13.1047 13.9312C13.3021 13.9032 13.3342 13.9 13.5218 13.8786C13.7768 13.8492 14.0802 13.7952 14.3549 13.7712C14.4144 13.7661 14.3412 13.8153 14.4357 13.8108C14.53 13.8064 14.7786 13.7719 14.8601 13.7513C14.9442 13.7306 14.9033 13.7042 14.9174 13.695C15.0303 13.6191 15.3312 13.6591 15.3706 13.6533C15.4088 13.6488 15.4504 13.643 15.4875 13.6371C15.5406 13.6277 15.5867 13.6184 15.6492 13.5926C15.7007 13.5649 15.8455 13.5196 15.86 13.3014C15.7921 12.9841 15.6854 13.0197 15.6176 12.9461C15.4732 12.8484 15.3348 12.784 15.1989 12.7214C14.9265 12.5983 14.6571 12.496 14.3857 12.3753C14.1854 12.2849 13.9525 12.1802 13.8113 12.0779C13.8031 12.0686 13.8754 12.1259 13.851 12.2243C13.8246 12.2955 13.8189 12.2757 13.8311 12.2722C13.8543 12.2561 13.9072 12.2309 13.9569 12.2114C14.0616 12.17 14.1764 12.1347 14.2879 12.1013C14.7967 11.9533 15.2468 11.8372 15.7639 11.7177C15.8186 11.7051 15.7655 11.7662 15.8323 11.7508C15.9885 11.7148 16.1448 11.6774 16.3012 11.6362C16.353 11.6213 16.406 11.6097 16.4879 11.5582C16.527 11.5316 16.5894 11.4843 16.6246 11.3888C16.6596 11.2912 16.6365 11.2027 16.6199 11.1589C16.5433 11.0019 16.5173 10.9639 16.5307 11.0075C16.4861 10.7794 16.7763 10.5582 17.1228 10.4099C17.1844 10.3829 17.0881 10.3752 17.1499 10.3458C17.532 10.162 18.2096 9.94777 18.4991 10.0763C18.7904 10.0134 19.1496 9.94134 19.4079 9.85098C19.5753 9.79214 19.3984 9.78381 19.6132 9.75693C19.6614 9.75057 19.6087 9.80292 19.6802 9.79031C19.7744 9.77341 19.8708 9.75201 19.9664 9.72751C20.0847 9.69359 20.2106 9.66276 20.3441 9.53848C20.5072 9.40582 20.462 9.10928 20.392 9.01195C20.3633 8.95829 20.3793 8.94712 20.386 8.93364C20.3882 8.92962 20.3894 8.92566 20.388 8.92087C20.3146 8.73807 20.2583 8.76856 20.2554 8.69888C20.2554 8.6754 20.2594 8.64849 20.2661 8.62109C20.3527 8.30761 20.4985 8.08704 20.6904 7.83039C20.7405 7.76503 20.7186 7.87075 20.7681 7.80972C21.026 7.49359 21.3408 7.20159 21.6566 6.93861C21.7271 6.88005 21.6354 6.89778 21.668 6.86817C21.8138 6.7386 21.8932 6.77717 22.0386 6.66139C22.0696 6.63717 22.0322 6.62012 22.0361 6.61302C22.0984 6.50138 22.2272 6.52195 22.2525 6.50873C22.5775 6.34261 22.7426 6.15422 23.0679 6.00608C23.1068 5.98875 23.0402 6.07031 23.1482 6.01933C23.8686 5.67818 24.658 5.37323 25.3898 5.03681C25.5065 4.98158 25.4088 4.98712 25.4149 4.98017C25.5056 4.87273 25.6167 4.91469 25.6583 4.89819C25.6857 4.88719 25.7115 4.87578 25.7357 4.86407C25.992 4.7399 26.2096 4.58418 26.4263 4.59339C27.0543 4.29828 27.64 4.18811 28.3996 3.97425C28.4889 3.91663 28.5593 3.89561 28.6552 3.75294C28.7195 3.6872 28.6687 3.46701 28.5921 3.43548C28.5252 3.38425 28.4793 3.37091 28.4249 3.35254C28.2364 3.29803 28.0653 3.2885 27.8967 3.27854C27.558 3.26271 27.2246 3.27514 26.8921 3.29997C26.8748 3.30118 26.9059 3.34278 26.8719 3.34502C26.4618 3.37397 26.5395 3.3085 26.2656 3.23549C26.1961 3.21724 25.9911 3.31969 25.973 3.3274C25.9066 3.35552 25.9783 3.41556 25.956 3.42132C25.7716 3.46693 25.7947 3.25985 25.5444 3.26881C25.5366 3.26944 25.5707 3.30616 25.5499 3.31069C25.4855 3.32489 25.4189 3.31228 25.3562 3.3277C25.2109 3.36337 25.1645 3.46545 24.9373 3.41551C24.9088 3.40893 24.9486 3.29069 24.7249 3.30404C24.6356 3.30982 24.2423 3.31939 24.1349 3.32702C24.0251 3.33544 24.1007 3.37253 24.0927 3.37424C23.8426 3.41691 23.8841 3.43581 23.8125 3.48463C23.7995 3.49253 23.7831 3.50111 23.7612 3.51063C23.6103 3.57757 23.6578 3.40473 23.5962 3.38337C23.5346 3.36173 23.3145 3.40243 23.261 3.41773C23.2075 3.43259 23.2747 3.45581 23.2271 3.46442C22.9122 3.52218 23.0867 3.37972 22.9819 3.35386C22.7343 3.29341 22.5473 3.42894 22.3232 3.4445C22.2626 3.44864 22.3117 3.41851 22.2578 3.41627C22.0448 3.407 21.9155 3.44775 21.6755 3.40084C21.6354 3.3934 21.4486 3.30493 21.3198 3.34855C21.3013 3.35486 21.3482 3.39266 21.258 3.39004C21.2309 3.38915 21.1993 3.38735 21.1655 3.38457C21.0324 3.37532 20.8605 3.33199 20.7589 3.28099C20.6659 3.2336 20.7951 3.23183 20.6718 3.19422C20.6172 3.17556 20.6994 3.25165 20.5966 3.21229C20.4907 3.17721 20.2653 3.00464 20.2011 2.91922C20.133 2.83801 20.2028 2.85665 20.199 2.84837C20.1917 2.82997 20.1725 2.79493 20.1544 2.75676C20.1297 2.70312 20.1096 2.62636 20.1056 2.61633C20.05 2.47522 20.019 2.29796 19.876 2.1398C19.189 1.48543 18.3169 1.94368 17.6695 2.2416C17.6053 2.27307 17.6278 2.21325 17.6178 2.21766C17.3891 2.31838 17.6155 2.32704 17.4815 2.44133C17.4697 2.38431 17.43 2.39138 17.3662 2.41704C17.3282 2.43182 17.2817 2.45528 17.2353 2.46221C17.1766 2.46598 17.2089 2.42696 17.2025 2.42475C17.1778 2.38269 17.1106 2.39001 17.082 2.37907C16.9981 2.35263 17.0108 2.24519 16.9604 2.21148C16.9563 2.20859 16.9525 2.20669 16.9491 2.20562C16.936 2.20199 16.927 2.21031 16.9188 2.21856C16.9105 2.22726 16.9032 2.23587 16.8926 2.22977C16.8826 2.22444 16.8688 2.20425 16.8507 2.15623C16.8636 2.10236 16.9815 2.18625 16.9513 2.06717C16.8455 1.63323 16.5956 0.81066 16.3524 0.450992C16.3442 0.43846 16.3363 0.426751 16.3287 0.415796C16.0825 0.0763376 15.8513 0.0577668 15.6239 0.0983257C15.505 0.125186 15.4384 0.152667 15.3907 0.165166C15.268 0.202793 15.2776 0.154897 15.0982 0.224972C14.8543 0.331743 15.0442 0.395727 15.0283 0.441224C15.015 0.486827 14.9656 0.479571 14.9386 0.518684C14.9125 0.557323 15.0016 0.523058 14.9218 0.585232C14.8418 0.645452 14.587 0.773025 14.5378 0.771864C14.4334 0.767044 14.4839 0.626946 14.2896 0.825229C14.2786 0.836684 14.3428 0.832899 14.2995 0.875219C13.9541 1.20902 13.6021 1.55514 13.2121 1.8217C13.158 1.85778 13.2301 1.86577 13.1982 1.88728C13.016 2.00608 12.9497 2.00763 12.9024 1.99571C12.8625 1.98226 12.8339 1.9541 12.8015 1.89636C12.805 2.01409 12.6134 2.02921 12.4485 1.74955C12.3538 1.58935 12.4131 1.59354 12.3885 1.4746C12.3813 1.43883 12.2965 1.33825 12.3065 1.30712C12.3398 1.2071 12.4631 1.28253 12.3047 1.01515C12.2977 1.00339 12.2796 1.05936 12.2579 1.01748C12.1305 0.772829 12.1634 0.696259 12.0704 0.458573C12.0584 0.429084 12.0441 0.398521 12.0267 0.367233C11.9593 0.239752 11.7893 0.0509315 11.551 0.0111004C11.3165 -0.0304698 11.1123 0.0534273 10.97 0.116009C11.0183 0.222626 10.7634 0.318018 10.6211 0.317225C10.4581 0.427631 10.2898 0.555178 10.1557 0.685942C10.1096 0.730951 10.1646 0.729841 10.161 0.738011C10.1073 0.86358 9.99225 0.859448 9.95919 0.885596C9.65533 1.13066 9.46189 1.39936 9.19399 1.62905C9.15295 1.66366 9.107 1.70011 9.06033 1.7336C9.04807 1.74228 8.97306 1.69795 8.93281 1.82059C8.93014 1.82887 9.05771 1.76144 8.91572 1.89911C8.77271 2.03785 8.52302 2.32506 8.28926 2.47972C8.23256 2.51752 8.05998 2.57872 7.99282 2.70869C7.98396 2.72612 8.01484 2.73117 8.00398 2.75858C7.96818 2.84695 7.87743 2.81323 7.84985 2.93339C7.82206 3.05374 7.70128 3.23089 7.45683 3.37741C7.44915 3.38217 7.35469 3.3749 7.2889 3.4336C7.18391 3.52733 7.04235 3.66939 6.93154 3.76583C6.87856 3.8119 6.88476 3.75078 6.87509 3.75823C6.50332 4.05334 6.27532 4.30344 5.91333 4.65957C5.84649 4.72533 5.61234 4.86655 5.51552 5.02567C5.41109 5.20083 5.6929 5.20122 5.35289 5.48771C5.30588 5.52856 5.23257 5.55571 5.15568 5.58678C5.00653 5.65175 4.83451 5.73068 4.76026 5.95C4.34069 6.38396 4.00479 6.8366 3.56487 7.24647C3.53872 7.27086 3.51257 7.29478 3.48588 7.31875C3.46434 7.33815 3.34876 7.35346 3.30278 7.40301C3.23446 7.47682 3.2212 7.54012 3.17328 7.59383C2.97397 7.81876 2.76447 8.00003 2.57506 8.21993C2.50322 8.30372 2.55497 8.29784 2.4706 8.39816C2.38702 8.49853 2.29427 8.53575 2.20057 8.68865C2.13001 8.80503 2.12422 8.96779 2.03428 9.11674C1.99416 9.0929 1.95702 9.10599 1.91311 9.14611C1.87444 9.18773 1.8298 9.26043 1.77165 9.35336C1.74933 9.38912 1.73926 9.33454 1.72717 9.35081C1.6772 9.41708 1.67114 9.49661 1.62418 9.56014C1.61282 9.57564 1.58308 9.56403 1.57213 9.57615C1.47678 9.67931 1.46866 9.90824 1.46894 9.94659C1.46692 10.0952 1.40762 10.1443 1.39322 10.2532C1.37967 10.3614 1.44873 10.2148 1.4233 10.3378C1.37074 10.5923 1.28721 10.9133 1.24052 11.1719C1.22171 11.275 1.1929 11.1971 1.18923 11.2116C1.13871 11.4249 1.15555 11.6468 1.05913 11.7592C1.17799 11.8599 1.1469 11.8856 1.10456 11.9541C1.08022 12.0042 1.05285 12.08 1.08435 12.2076C1.09059 12.232 1.19658 12.2506 1.20249 12.1574C1.20636 12.1004 1.19176 12.027 1.18603 11.9493L1.1859 11.9596C1.18755 11.9106 1.1926 11.8591 1.20652 11.8104C1.21435 11.7802 1.33097 11.62 1.34048 11.5978C1.41099 11.4236 1.26417 11.373 1.25701 11.3616C1.18402 11.2346 1.32883 11.0425 1.3482 10.9899C1.43479 10.7459 1.46988 10.5301 1.55498 10.3316C1.61107 10.2022 1.71211 10.2213 1.74383 10.1181C1.85312 9.7795 1.77332 9.60095 2.03256 9.35141C2.07575 9.31153 2.12467 9.36961 2.16357 9.27803L2.14867 9.30282C2.1628 9.27691 2.17763 9.23763 2.195 9.1782C2.19865 9.16236 2.2474 8.9588 2.35759 8.90131C2.37123 8.89422 2.39639 8.91455 2.40993 8.90176C2.50043 8.81576 2.53329 8.7352 2.63078 8.63935C2.72847 8.54345 2.851 8.43237 2.94838 8.3088C3.00693 8.23438 3.04571 8.10356 3.06586 8.06023C3.12255 7.93665 3.26859 7.88343 3.28624 7.78995C3.30455 7.69547 3.13827 7.75641 3.26059 7.57915C3.32689 7.63142 3.40181 7.67786 3.47173 7.72703C3.56582 7.62704 3.65846 7.52611 3.75063 7.42476C3.97212 7.18134 4.18756 6.93378 4.41382 6.68963C4.45366 6.64673 4.44672 6.72147 4.49032 6.67614C4.67401 6.48459 4.80387 6.28991 4.99364 6.09105C5.10181 5.97782 5.23168 5.86901 5.35364 5.75431C5.3918 5.71979 5.43478 5.67983 5.47264 5.64311C5.4849 5.48475 5.73457 5.27747 5.89688 5.11177C5.95358 5.05351 5.93237 5.03832 5.96953 4.99173C6.10838 4.81911 6.09224 4.95093 6.14524 4.9198C6.37466 4.78584 6.26086 4.62923 6.49391 4.42632C6.50602 4.41559 6.72362 4.35909 6.7483 4.34587C6.90715 4.26083 6.74655 4.29969 6.82331 4.22172C6.9644 4.07875 7.05237 3.96907 7.24939 3.83691C7.30678 3.79861 7.47284 3.73867 7.54085 3.61394C7.54982 3.59755 7.52026 3.57834 7.5296 3.56757C7.70055 3.37493 7.77576 3.4507 7.90951 3.38204C8.0437 3.31303 8.16534 3.10906 8.18609 3.06264C8.2408 2.94181 8.10103 3.10601 8.09285 3.10596C7.99313 3.10809 8.12445 3.00802 8.21549 2.92084C8.15985 2.83078 8.29686 2.71848 8.31027 2.83057C8.31163 2.84293 8.231 2.90089 8.21549 2.92084C8.36622 2.92483 8.52091 2.80627 8.61728 2.59182C8.66179 2.49156 8.55703 2.5162 8.79561 2.32626C8.9045 2.23882 8.91153 2.32981 9.01652 2.25996C9.15991 2.1647 9.29722 2.01679 9.42979 1.86775C9.51593 1.7707 9.59728 1.67536 9.67835 1.59881C9.75314 1.52813 9.71103 1.62715 9.76308 1.5799C9.9017 1.45442 9.99664 1.31805 10.1407 1.20282C10.1537 1.19252 10.1526 1.25016 10.1943 1.21172C10.5101 0.927086 10.7862 0.651689 11.1368 0.495526C11.2185 0.460106 11.3375 0.43389 11.4103 0.447038C11.4827 0.458949 11.5184 0.490566 11.5644 0.539239C11.5912 0.56853 11.621 0.608309 11.6508 0.660753C11.8162 0.960965 12.0014 1.29733 12.1218 1.56545C12.2208 1.78029 12.1631 1.75439 12.1922 1.86241C12.2246 1.96686 12.3105 2.09674 12.4705 2.21089C12.6194 2.34957 12.9674 2.32181 12.9928 2.27831C12.9969 2.27849 12.8706 2.31405 12.7775 2.2901C12.6898 2.2679 12.6468 2.2434 12.7661 2.26444C12.9124 2.24342 12.9837 2.27678 12.9928 2.27831C12.9954 2.277 12.9994 2.27521 13.0046 2.2729C13.0703 2.24986 13.4242 2.05241 13.4888 2.00936C13.5291 1.98777 13.5296 2.03431 13.5504 2.02216C14.0371 1.72947 14.4125 1.3601 14.7906 1.03285C14.7969 1.02671 14.7592 1.00107 14.7745 0.987023C14.9889 0.790949 15.1712 0.730452 15.3731 0.660012C15.4407 0.637057 15.5012 0.616749 15.5544 0.596916C15.6625 0.556657 15.7136 0.528063 15.761 0.479309C15.8377 0.483213 15.9504 0.526213 16.0391 0.630752C16.0419 0.633839 16.0446 0.636966 16.047 0.640113C16.1161 0.731684 16.0513 0.789453 16.0548 0.798454C16.1585 1.15931 16.2649 1.38455 16.4013 1.80797C16.4438 1.93699 16.4963 2.14324 16.5816 2.3627C16.6361 2.49343 16.697 2.63271 16.8362 2.75915C16.9465 2.86968 17.1735 2.92008 17.2978 2.88686C17.4261 2.86078 17.4922 2.81865 17.5466 2.795C17.5823 2.7783 17.6157 2.76209 17.6488 2.74763C17.6702 2.7382 17.6671 2.7827 17.6741 2.78065C17.8623 2.73153 17.7368 2.6936 17.7637 2.66056C17.8547 2.54504 17.9151 2.47464 18.1322 2.40774C18.1829 2.39177 18.3698 2.45849 18.4534 2.43843C18.5637 2.4118 18.5091 2.37851 18.625 2.35756C18.6348 2.35612 18.6408 2.38406 18.7079 2.36685C19.026 2.28521 19.3159 2.29963 19.4785 2.47504C19.499 2.49628 19.4534 2.50035 19.4625 2.52421C19.4609 2.52464 19.4596 2.52451 19.4591 2.5242C19.4772 2.52084 19.4981 2.72469 19.6918 3.06137C19.8329 3.26947 20.0119 3.42233 20.1937 3.53227C20.2932 3.59024 20.25 3.52314 20.276 3.52824C20.4298 3.55786 20.5825 3.71364 20.6175 3.72707C20.7795 3.79731 20.9426 3.83918 21.1013 3.86088C21.6293 3.92951 22.0773 3.88062 22.6202 3.89895C22.6582 3.90043 22.9467 3.98475 23.0702 3.90392C23.0786 3.89854 23.2021 3.81568 23.3113 3.86998C23.3178 3.87343 23.2423 3.91505 23.3748 3.91032C23.4826 3.90673 23.6411 3.92575 23.7865 3.91692C23.8264 3.91525 23.8721 3.91084 23.9115 3.90314C23.9734 3.89044 24.1284 3.81071 24.3073 3.87054C24.3203 3.87508 24.6004 4.01201 24.6994 3.90864C24.7152 3.89164 24.6919 3.78712 24.9098 3.83341C24.9503 3.84242 24.8778 3.86863 24.9849 3.8794C25.1523 3.8959 25.3658 3.85941 25.57 3.89897C25.6047 3.90602 25.7575 3.97212 25.8744 3.91384C25.8928 3.90471 25.8561 3.87069 25.919 3.86465C26.2185 3.83585 26.5324 3.85076 26.8337 3.82293C26.9391 3.8133 26.8857 3.75678 26.9971 3.74084C27.1062 3.72476 27.3335 3.71131 27.4476 3.74032C27.5595 3.76928 27.435 3.85617 27.6047 3.86906C27.803 3.88531 28.0078 3.90096 28.1614 3.92863C28.1976 3.93513 28.2313 3.94362 28.2426 3.94719C28.2577 3.92836 28.2159 4.02263 28.0819 3.72951C28.0396 3.57396 28.1103 3.45145 28.1278 3.42927C28.1551 3.3922 28.1587 3.39516 28.1587 3.39492C28.1529 3.40161 28.1324 3.41811 28.0959 3.44051C28.1781 3.40824 28.0362 3.45948 27.9709 3.47326C27.8896 3.49419 27.8023 3.51587 27.7153 3.53845C27.5405 3.58363 27.3642 3.63275 27.1877 3.6858C27.0743 3.72051 27.1582 3.6609 26.9896 3.71227C26.5656 3.84002 25.9486 4.07337 25.4649 4.34204C25.2857 4.43999 25.0664 4.5386 24.9194 4.62203C24.5418 4.83129 25.06 4.67125 24.7614 4.81359C24.6196 4.881 24.4191 4.84678 24.3812 4.85838C24.0171 4.96701 23.7898 5.11084 23.4687 5.23612C23.4025 5.26212 23.4491 5.19476 23.3927 5.2175C23.1993 5.29527 23.0095 5.40479 22.8282 5.49026C22.7473 5.52842 22.7475 5.49185 22.6745 5.53148C22.5002 5.62629 22.3513 5.72153 22.1974 5.84411C22.1836 5.85524 22.3069 5.83172 22.1802 5.90574C21.9749 6.02605 21.7401 6.20696 21.4964 6.34062C21.4241 6.38056 21.3768 6.32088 21.2646 6.46946C21.2414 6.50124 21.3331 6.5412 21.1232 6.60896C21.0881 6.61817 20.7474 6.76869 20.6691 6.94358C20.6476 6.98907 20.6177 7.12262 20.5407 7.18943C20.53 7.19844 20.5381 7.13009 20.4779 7.19023C20.2668 7.40331 20.0774 7.66232 19.9116 7.93434C19.8675 8.00759 19.8922 7.87518 19.8279 7.98659C19.7605 8.10565 19.6964 8.24242 19.6433 8.38761C19.594 8.52085 19.5437 8.72776 19.6066 8.95231C19.6724 9.17447 19.785 9.28118 19.815 9.32657C19.8211 9.3341 19.8254 9.33952 19.8281 9.34262C19.8354 9.34529 19.8651 9.32862 19.8687 9.32743C19.9072 9.32439 19.8555 9.13607 19.8857 9.11458C19.9484 9.03849 19.873 9.10358 19.8037 9.11905C19.6976 9.15231 19.5884 9.18653 19.4666 9.20783C19.4013 9.2193 19.4389 9.17103 19.4253 9.17043C19.2854 9.16542 19.3993 9.21311 19.3159 9.23848C19.0814 9.3095 18.809 9.3562 18.5578 9.39823C18.4655 9.41365 18.5605 9.34959 18.4777 9.36399C17.9867 9.45036 17.4657 9.55112 16.9655 9.75547C16.871 9.79539 16.9439 9.80583 16.9268 9.82069C16.8118 9.9213 16.5802 9.94968 16.5262 9.97424C16.2932 10.076 16.2139 10.1619 16.0351 10.3826C15.8998 10.5545 15.8134 10.826 15.8359 11.0641C15.8816 11.3708 16.0133 11.4724 15.9627 11.4052C15.9532 11.3801 15.9198 11.2878 15.9595 11.1626C16.0013 11.0401 16.0733 10.991 16.0983 10.9729C16.1538 10.9392 16.138 10.9535 16.1221 10.9557C15.5254 11.1094 14.878 11.2547 14.3339 11.408C14.1604 11.4571 13.9901 11.5081 13.8157 11.5745C13.7275 11.6091 13.6389 11.6436 13.5261 11.7107C13.4649 11.755 13.4036 11.7677 13.2905 11.9376C13.2322 12.0216 13.1936 12.2273 13.2599 12.3646C13.3204 12.4984 13.3836 12.5416 13.4352 12.5829C14.1283 12.9874 14.6642 13.106 15.1982 13.4208C15.2402 13.4472 15.1734 13.4604 15.2083 13.4837C15.2325 13.4999 15.254 13.5165 15.2616 13.5237C15.2699 13.5217 15.2567 13.5577 15.198 13.405C15.1632 13.3276 15.2013 13.1291 15.2643 13.0685C15.3286 12.9923 15.3541 12.9896 15.3711 12.9787C15.3953 12.9679 15.3797 12.9756 15.3567 12.9796C14.8667 13.0677 14.314 13.1339 13.7741 13.1869C13.7157 13.1925 13.7949 13.1391 13.7007 13.1467C13.5082 13.1618 13.265 13.1913 13.0722 13.2267C12.9777 13.244 13.1098 13.2674 13.0143 13.2841C12.7936 13.3227 12.5555 13.3519 12.3261 13.37C12.2284 13.3776 12.37 13.3167 12.2439 13.33C11.6905 13.3878 11.1424 13.4441 10.592 13.5206C10.2811 13.564 9.98505 13.6139 9.68872 13.6547C9.63243 13.6624 9.58725 13.7575 9.46398 13.7451C9.45382 13.7201 9.45315 13.6902 9.44813 13.6632C8.36496 13.6939 7.27259 13.5093 6.17936 13.229C6.06958 13.2006 5.96209 13.1724 5.85325 13.1434C5.80168 13.1297 5.9033 13.1069 5.8037 13.08C5.23036 12.9252 4.67851 12.7559 4.08256 12.6298C4.0244 12.6174 4.02818 12.7078 3.86184 12.6446C3.83343 12.6337 3.57958 12.545 3.51921 12.5069C3.51102 12.5015 3.56954 12.4778 3.48711 12.4512C3.0127 12.299 2.50917 12.1465 2.033 12.0061C1.95633 11.9835 2.02244 12.0517 1.96786 12.0359C1.57724 11.9227 1.17656 11.7389 0.816597 11.6223C0.57758 11.5429 0.631368 11.6475 0.477696 11.653C0.455998 11.6544 0.318295 11.5825 0.290211 11.6135C0.217402 11.6937 0.232175 11.8352 0.146865 11.9163C0.12845 11.9371 -0.0681419 11.7808 0.0248486 11.9099C0.0350778 11.9227 0.174533 12.0247 0.205737 12.0619C0.225012 12.0873 0.158949 12.1014 0.203637 12.1441C0.250388 12.1876 0.324519 12.1842 0.404255 12.2437C0.483691 12.3027 0.424625 12.3307 0.599943 12.4126ZM16.3718 1.18619C16.4545 1.30854 16.318 1.37313 16.3054 1.21781C16.3049 1.21029 16.3676 1.17993 16.3718 1.18619ZM4.00643 6.9585C4.08773 6.77522 4.24673 6.74545 4.19313 6.87847C4.13912 7.01152 3.98136 7.01439 4.00643 6.9585ZM2.63384 8.35163C2.74095 8.15263 2.92107 8.26975 2.73418 8.41503C2.72343 8.42354 2.62769 8.36319 2.63384 8.35163ZM1.0507 11.9291C1.04729 11.93 0.940839 11.8886 0.938909 11.8856C0.900615 11.8186 1.11409 11.9018 1.0507 11.9291ZM1.58873 9.93591C1.58444 9.86127 1.68773 9.68991 1.68977 9.78204C1.69098 9.85512 1.59343 10.0276 1.58873 9.93591ZM22.318 3.51757C22.3202 3.51535 22.404 3.51216 22.4026 3.52475C22.3975 3.56548 22.2804 3.55554 22.318 3.51757ZM1.31921 13.1411C1.21686 12.6669 0.997777 12.3996 1.11051 12.9241C1.1317 13.0185 1.12753 12.709 1.16536 12.8272C1.23437 13.0425 1.15652 13.2101 1.25975 13.4227C1.27853 13.4611 1.32528 13.1681 1.31928 13.1402C1.31925 13.1405 1.31923 13.1408 1.31921 13.1411ZM16.568 1.20893C16.5709 1.21102 16.6075 1.32115 16.6063 1.32442C16.5796 1.39814 16.5064 1.17721 16.568 1.20893ZM27.2047 3.3402C27.2102 3.33547 27.4828 3.33542 27.4897 3.34014C27.6277 3.41988 27.0852 3.4197 27.2047 3.3402ZM10.9667 0.12095C10.8224 0.129484 10.6754 0.209391 10.6215 0.31685C10.7289 0.243061 10.8435 0.176668 10.9667 0.12095Z" fill="#3C8634"/>
</svg>
