<svg width="5" height="5" viewBox="0 0 5 5" fill="none" xmlns="http://www.w3.org/2000/svg">
<path d="M8.58307e-06 0.264414C0.00315952 0.314885 0.0337267 0.357072 0.0655084 0.387237C0.0751505 0.395988 0.0978613 0.381107 0.105669 0.386795C0.120926 0.397965 0.11445 0.417403 0.131238 0.426829C0.13699 0.430079 0.173879 0.409055 0.179012 0.412803C0.207281 0.434518 0.20675 0.462556 0.226394 0.488107C0.320287 0.606269 0.387851 0.730443 0.460782 0.857664C0.484443 0.898746 0.542076 0.938519 0.54534 0.989933C0.545721 0.996034 0.510357 1.00695 0.507972 1.00913C0.471648 1.04293 0.53817 1.00913 0.551657 1.01586C0.60437 1.0411 0.627128 1.08698 0.629969 1.13075C0.631238 1.1498 0.556699 1.16122 0.601644 1.16226C0.604695 1.16236 0.639036 1.14304 0.644806 1.14603C0.657811 1.15283 0.659693 1.17549 0.665995 1.18253C0.678287 1.19594 0.67883 1.19826 0.685369 1.21274C0.694582 1.2323 0.722572 1.24879 0.723594 1.27416C0.7237 1.27961 0.684129 1.28898 0.680929 1.299C0.677664 1.30884 0.688867 1.32676 0.70033 1.32963C0.711792 1.3325 0.739699 1.31752 0.746848 1.31587C0.807068 1.30174 0.738657 1.35703 0.737968 1.36078C0.727465 1.42768 0.790708 1.45385 0.811487 1.50346C0.82685 1.54041 0.829772 1.58815 0.84655 1.62221C0.86684 1.66311 0.902707 1.69205 0.916419 1.73394C0.917938 1.73841 0.872361 1.75175 0.87413 1.75725C0.893143 1.81613 0.921582 1.8699 0.974988 1.91406C0.980387 1.91849 1.01537 1.89493 1.02304 1.89838C1.06921 1.91995 1.16731 1.94161 1.01037 2.03322C1.02698 2.05422 1.04562 2.07936 1.08795 2.08593C1.1152 2.09018 1.15111 2.05939 1.14047 2.08349C1.13812 2.0889 1.09971 2.09957 1.09894 2.10652C1.09567 2.13568 1.1188 2.15711 1.10984 2.18806C1.10794 2.19443 1.07485 2.20707 1.06956 2.21091C1.02688 2.24242 1.11336 2.22758 1.12082 2.22924C1.17664 2.24213 1.16989 2.27259 1.18332 2.30107C1.18645 2.30764 1.13935 2.31847 1.14079 2.32547C1.14883 2.36153 1.16756 2.39482 1.20123 2.41976C1.20882 2.42526 1.24312 2.40248 1.24866 2.40429C1.2726 2.41248 1.20367 2.44583 1.2252 2.45407C1.22964 2.45584 1.26075 2.4404 1.26449 2.43946C1.32322 2.42473 1.24871 2.46588 1.24798 2.4689C1.23693 2.50792 1.32617 2.4916 1.32681 2.52479C1.32681 2.5288 1.28322 2.5385 1.28568 2.54872C1.28598 2.54997 1.28628 2.55123 1.2866 2.55248C1.3038 2.62038 1.34423 2.68116 1.40402 2.72854C1.41337 2.73592 1.44012 2.71522 1.44409 2.71413C1.50622 2.69725 1.43202 2.73941 1.43063 2.74401C1.42155 2.77917 1.49671 2.77121 1.41343 2.83193C1.49557 2.92236 1.49834 3.0532 1.63439 3.11224C1.63602 3.11302 1.67146 3.09053 1.67455 3.09216C1.71204 3.11137 1.65175 3.13686 1.59405 3.19674C1.57963 3.21189 1.67218 3.18019 1.67904 3.17797C1.70443 3.17008 1.75563 3.13405 1.76094 3.13321C1.80288 3.127 1.62292 3.22755 1.63393 3.24671C1.63457 3.24713 1.66595 3.22562 1.67014 3.22531C1.68323 3.22429 1.67303 3.23672 1.68709 3.23491C1.71958 3.2306 1.808 3.18342 1.76765 3.22963C1.7624 3.23559 1.65996 3.29213 1.67478 3.30614C1.68065 3.31152 1.69705 3.3424 1.70858 3.34663C1.72008 3.35088 1.74868 3.32547 1.75044 3.32521C1.80627 3.32079 1.81871 3.30163 1.88801 3.27338C1.95695 3.24502 1.80663 3.33517 1.79288 3.35007C1.7792 3.36497 1.82399 3.35884 1.83844 3.35491C1.85299 3.35112 1.87006 3.33337 1.87908 3.33247C1.9381 3.32658 1.81233 3.38952 1.79386 3.41222C1.75028 3.4661 1.86831 3.40906 1.88945 3.41784C1.8952 3.42026 1.86821 3.43314 1.86849 3.43855C1.8699 3.45968 1.90981 3.44633 1.89094 3.48458C1.88781 3.49075 1.83328 3.54934 1.88683 3.52587C1.89451 3.52242 1.91854 3.50027 1.92901 3.50258C1.94468 3.50603 1.96246 3.51891 1.9611 3.53557C1.96003 3.54783 1.91041 3.57023 1.93078 3.57017C1.93985 3.57008 1.95953 3.544 1.97441 3.5453C1.98915 3.54646 2.00276 3.5674 2.00749 3.57557C2.01219 3.58377 1.97662 3.60376 1.97487 3.60599C1.96504 3.61897 1.96043 3.64541 1.96149 3.64672C2.00735 3.71593 2.10739 3.73161 2.14096 3.80617C2.14366 3.81201 2.10845 3.83649 2.10853 3.83766C2.10877 3.86554 2.18427 3.77915 2.22262 3.76555C2.15544 3.82028 2.17305 3.81676 2.17561 3.83424C2.1768 3.84271 2.1489 3.86173 2.14674 3.86448C2.11532 3.90602 2.16991 3.86847 2.18129 3.86103C2.2232 3.83373 2.18431 3.8781 2.21232 3.85981C2.24008 3.84162 2.26941 3.80127 2.27821 3.81215C2.25763 3.83569 2.18995 3.88151 2.18733 3.89835C2.17971 3.94887 2.24002 3.96874 2.27894 3.98374C2.28985 3.9883 2.29917 3.99234 2.30523 3.99661C2.33392 4.0166 2.33811 4.02835 2.36039 4.03403C2.40063 4.0437 2.35005 4.07879 2.34959 4.1152C2.34962 4.15169 2.43718 4.03176 2.46036 4.00977C2.48324 3.98751 2.46446 4.0145 2.47853 4.0035C2.49251 3.99243 2.50056 3.97095 2.51112 3.97124C2.52141 3.97139 2.50351 4.02956 2.48576 4.05784C2.44768 4.11746 2.39293 4.16868 2.42921 4.16378C2.43129 4.16342 2.45114 4.12965 2.45787 4.12982C2.51023 4.13196 2.54752 4.15493 2.5968 4.15399C2.60355 4.15376 2.62176 4.11419 2.62587 4.1136C2.66838 4.10678 2.62072 4.16326 2.59755 4.24344C2.64719 4.14754 2.68851 4.09534 2.70991 4.10616C2.72295 4.11266 2.69867 4.15308 2.69219 4.18716C2.69029 4.19746 2.71474 4.17363 2.70644 4.19425C2.67973 4.26186 2.63362 4.32957 2.67354 4.31326C2.67532 4.31242 2.68922 4.2751 2.69407 4.27479C2.72513 4.27234 2.69575 4.34225 2.71956 4.36312C2.73833 4.37955 2.79477 4.35336 2.8212 4.35586C2.8663 4.2433 2.8775 4.27771 2.85621 4.35914C2.87295 4.36201 2.88816 4.37286 2.90713 4.36761C2.91367 4.36584 2.92254 4.33167 2.92452 4.32836C2.95506 4.27623 2.93359 4.355 2.9358 4.35921C2.96133 4.40157 3.01151 4.35384 3.026 4.42256C3.02651 4.42502 3.00117 4.5054 3.03045 4.45041C3.03241 4.4466 3.03334 4.40641 3.05066 4.4092C3.06762 4.41186 3.11273 4.37941 3.12258 4.42384C3.12498 4.43454 3.11747 4.50412 3.14512 4.45699C3.14886 4.45058 3.15486 4.42712 3.1612 4.41506C3.18146 4.37664 3.15845 4.45871 3.18922 4.3927C3.22014 4.32674 3.25341 4.28067 3.26045 4.33553C3.26071 4.33715 3.245 4.40303 3.25247 4.40436C3.26417 4.40636 3.28459 4.39828 3.29639 4.40264C3.30204 4.40474 3.28525 4.44334 3.28601 4.44439C3.31645 4.47916 3.35508 4.45258 3.40117 4.45089C3.4095 4.45046 3.41253 4.51175 3.44155 4.47387C3.47338 4.43243 3.52274 4.23191 3.54384 4.29085C3.55273 4.3146 3.48621 4.56769 3.55669 4.449C3.56146 4.45482 3.56666 4.4593 3.5722 4.46277C3.61252 4.5018 3.67515 4.48448 3.69306 4.54455C3.69397 4.54757 3.66322 4.61407 3.66896 4.61629C3.67737 4.61935 3.69853 4.59225 3.70491 4.59331C3.73197 4.59693 3.73894 4.6337 3.76373 4.64079C3.77301 4.64346 3.78531 4.61034 3.79599 4.61319C3.80647 4.61592 3.7946 4.66145 3.81752 4.64684C3.83506 4.63569 3.87981 4.55154 3.89514 4.54539C3.86341 4.63327 3.87318 4.63497 3.88291 4.66406C3.88484 4.6697 3.87124 4.6995 3.87168 4.70378C3.87354 4.72198 3.88781 4.69815 3.88918 4.71755C3.88956 4.72223 3.88079 4.75292 3.88069 4.75849C3.88014 4.80731 3.91863 4.74296 3.92419 4.73139C3.9472 4.68806 3.94351 4.7297 3.95678 4.71334C3.96954 4.69683 3.96079 4.67127 3.97319 4.66215C3.983 4.65479 3.99262 4.65163 4.00214 4.65055C4.01514 4.64784 4.03024 4.65071 4.04351 4.65074C4.05214 4.65094 4.04342 4.69305 4.04458 4.69406C4.06254 4.70611 4.08273 4.66163 4.08983 4.74682C4.11041 4.52796 4.10028 4.76858 4.12857 4.72528C4.13079 4.72177 4.13524 4.61807 4.12792 4.60268C4.12068 4.5873 4.10817 4.61942 4.09848 4.59531C4.09598 4.58965 4.08637 4.49193 4.0851 4.48596C4.07379 4.43932 4.06304 4.59397 4.0616 4.60243C4.04673 4.69365 4.03608 4.58782 4.03283 4.58026C4.02514 4.56477 4.01746 4.56016 4.00992 4.55752C4.00805 4.55475 3.99943 4.55405 3.99391 4.53958C3.98721 4.52261 4.00824 4.42319 4.00176 4.42491C3.98175 4.43078 3.93044 4.56346 3.94788 4.43985C3.95193 4.41352 3.99297 4.31038 3.95036 4.38777C3.94812 4.39284 3.90785 4.46296 3.92025 4.4134C3.92189 4.40718 3.93429 4.3773 3.93437 4.37439C3.93479 4.35551 3.92019 4.37727 3.91794 4.36267C3.91576 4.34811 3.91545 4.32754 3.90215 4.33308C3.89425 4.33644 3.85932 4.38617 3.84947 4.39764C3.82137 4.43083 3.84655 4.36508 3.81642 4.40718C3.78559 4.44917 3.75784 4.52382 3.72622 4.54425C3.76761 4.47108 3.80957 4.39568 3.85121 4.3221C3.82275 4.30904 3.77949 4.3139 3.75102 4.29073C3.74756 4.28781 3.77625 4.25259 3.77322 4.24849C3.76477 4.23729 3.74784 4.24061 3.73387 4.23769C3.71905 4.23073 3.67912 4.20513 3.66301 4.20219C3.65482 4.20235 3.64714 4.20068 3.64084 4.19381C3.62678 4.17825 3.62365 4.12658 3.60908 4.10887C3.56685 4.19609 3.55096 4.15622 3.52844 4.15793C3.52066 4.15851 3.51294 4.18302 3.50546 4.18935C3.47753 4.21268 3.51301 4.13493 3.5123 4.12058C3.50879 4.05921 3.44592 4.24106 3.42259 4.2283C3.42146 4.22773 3.43724 4.12491 3.437 4.11811C3.43577 4.07384 3.42341 4.15121 3.41211 4.15546C3.39158 4.16325 3.37271 4.18282 3.36302 4.148C3.36022 4.13771 3.3672 4.07271 3.34095 4.11612C3.3375 4.1218 3.32768 4.15426 3.32592 4.15577C3.29492 4.1804 3.32779 4.07908 3.32752 4.04101C3.32733 4.00297 3.28609 4.06678 3.27586 4.08572C3.24913 4.13461 3.27579 4.11037 3.27464 4.11565C3.26064 4.17846 3.25093 4.16364 3.23933 4.16549C3.20505 4.26416 3.19302 4.25356 3.22742 4.16701C3.23126 4.15758 3.23582 4.16936 3.23933 4.16549C3.26303 4.0654 3.25168 4.0478 3.20467 4.13304C3.18254 4.17296 3.1736 4.22517 3.15545 4.19886C3.14731 4.18699 3.17453 4.12028 3.17138 4.09852C3.16429 4.04888 3.11489 4.10283 3.09624 4.08504C3.08961 4.07864 3.11039 4.04423 3.10635 4.03858C3.09593 4.02357 3.07325 4.04681 3.06445 4.02751C3.06368 4.02571 3.08085 3.98811 3.07675 3.98606C3.04579 3.96963 3.00883 3.98383 2.97606 3.97139C2.96027 3.96541 2.94204 3.93307 2.92511 3.93052C2.89614 3.92618 2.83815 3.96485 2.82304 3.9406C2.81336 3.92507 2.83574 3.89022 2.8434 3.86249C2.85896 3.80915 2.79367 3.88419 2.78301 3.89543C2.78263 3.8958 2.78915 3.91073 2.77258 3.92562C2.747 3.96177 2.78299 3.89564 2.78301 3.89543C2.77644 3.90298 2.74928 3.89765 2.74916 3.88819C2.74909 3.88307 2.7711 3.85078 2.77072 3.84876C2.76151 3.80172 2.74381 3.77713 2.70787 3.77205C2.70694 3.77233 2.68054 3.80713 2.67866 3.80732C2.65138 3.81045 2.67574 3.76103 2.68581 3.72766C2.69572 3.69411 2.68114 3.69498 2.62241 3.74258C2.62048 3.72771 2.58476 3.73886 2.56295 3.74517C2.54102 3.75139 2.60182 3.69187 2.60248 3.69013C2.6039 3.68618 2.60501 3.68261 2.60583 3.67938C2.61294 3.63206 2.56871 3.64693 2.54157 3.62736C2.52761 3.61751 2.51504 3.58476 2.51033 3.56517C2.50681 3.54974 2.48619 3.55636 2.4874 3.53819C2.48755 3.53575 2.51745 3.51247 2.51821 3.51112C2.54344 3.47093 2.47747 3.53618 2.46297 3.54464C2.41024 3.57541 2.38111 3.5906 2.39074 3.55803C2.39286 3.55048 2.48744 3.45581 2.4887 3.44507C2.49005 3.43115 2.45549 3.46433 2.45789 3.44899C2.45807 3.44771 2.48101 3.42922 2.476 3.42512C2.45291 3.40568 2.41954 3.39116 2.40306 3.3649C2.40073 3.36139 2.44105 3.33716 2.43832 3.33166C2.42566 3.30606 2.40605 3.2827 2.37207 3.27317C2.36365 3.27099 2.33964 3.29362 2.33092 3.29814C2.27792 3.32523 2.33958 3.26462 2.33972 3.26202C2.34401 3.19736 2.25819 3.2089 2.25999 3.14474C2.26008 3.14096 2.32528 3.07332 2.25403 3.10772C2.24933 3.11007 2.17631 3.14509 2.21801 3.10829C2.22063 3.10601 2.2587 3.08877 2.24959 3.08231C2.24045 3.07578 2.25492 3.04692 2.20867 3.05858C2.19416 3.06236 2.12012 3.09504 2.16735 3.04979C2.17058 3.04653 2.28323 2.95371 2.1941 2.99887C2.17941 3.00629 2.08961 3.06169 2.1275 3.01964C2.13489 3.01155 2.15803 3.00444 2.16642 2.98979C2.17936 2.96724 2.14659 2.96724 2.17941 2.93017C2.18523 2.92361 2.24154 2.87798 2.18984 2.89705C2.18175 2.90004 2.15254 2.9199 2.14671 2.91765C2.11885 2.90701 2.12715 2.87368 2.09448 2.86488C2.0829 2.8616 2.03512 2.89286 2.01741 2.89232C1.99969 2.89173 1.97807 2.88266 1.99656 2.86212C2.01506 2.84155 2.09977 2.80752 2.09966 2.79194C2.09935 2.72455 2.02483 2.69587 1.99091 2.64474C1.98586 2.63713 2.0183 2.62953 2.01297 2.61728C1.99362 2.57267 1.98494 2.48286 1.9047 2.47299C1.84 2.46427 1.81994 2.52172 1.78835 2.50659C1.77309 2.49893 1.86369 2.4432 1.86546 2.43904C1.88404 2.39805 1.83262 2.39732 1.83499 2.36697C1.83548 2.36065 1.87685 2.34856 1.87684 2.34339C1.87711 2.32856 1.86028 2.32041 1.85288 2.30887C1.85135 2.30644 1.85019 2.30388 1.84964 2.30111C1.84824 2.29365 1.87878 2.282 1.87378 2.27675C1.86215 2.26404 1.84388 2.25629 1.80954 2.2539C1.80641 2.25368 1.77291 2.27862 1.7668 2.26823C1.75702 2.25137 1.71984 2.24132 1.7398 2.20877C1.74584 2.19908 1.81431 2.16936 1.7613 2.17654C1.75022 2.17803 1.66937 2.21688 1.73396 2.17104C1.74468 2.16338 1.82966 2.09657 1.76243 2.11062C1.74473 2.1143 1.67372 2.13479 1.6812 2.12298C1.68247 2.12127 1.721 2.10941 1.72201 2.10185C1.72495 2.0755 1.71155 2.05508 1.71358 2.02795C1.71422 2.02072 1.7561 2.01314 1.75583 2.00289C1.75515 1.97466 1.73266 1.94897 1.7108 1.93087C1.70267 1.92423 1.6736 1.94366 1.6699 1.94451C1.60971 1.95846 1.68261 1.92013 1.68556 1.91485C1.7029 1.8825 1.66062 1.8817 1.66179 1.85846C1.66202 1.85209 1.69962 1.84047 1.70238 1.83804C1.72907 1.81371 1.6679 1.84947 1.65782 1.84559C1.62931 1.83471 1.62327 1.81255 1.61928 1.79045C1.61791 1.78242 1.66316 1.7728 1.66145 1.7658C1.65208 1.72391 1.63145 1.68657 1.59237 1.65866C1.58493 1.65343 1.55468 1.67159 1.5467 1.67324C1.49096 1.68489 1.55472 1.64015 1.55994 1.6339C1.58382 1.60538 1.55282 1.61147 1.55233 1.59558C1.55033 1.51748 1.4965 1.443 1.45794 1.38433C1.40824 1.30866 1.35051 1.25737 1.32535 1.17534C1.32373 1.17019 1.36869 1.15715 1.36785 1.15248C1.3547 1.09234 1.31542 1.0457 1.30408 0.983837C1.30311 0.978869 1.34653 0.968438 1.34633 0.959901C1.34621 0.942236 1.33619 0.924486 1.31688 0.914778C1.30747 0.909841 1.2768 0.934548 1.26804 0.929283C1.24756 0.917065 1.23684 0.899527 1.23597 0.87907C1.23569 0.870334 1.28204 0.86436 1.27844 0.854368C1.25457 0.78547 1.23407 0.715839 1.15239 0.670999C1.14672 0.667776 1.0603 0.698551 1.0724 0.681812C1.0956 0.671359 1.12326 0.659993 1.14825 0.6493C1.12146 0.54595 1.05245 0.461217 1.00833 0.364977C1.00647 0.360879 1.05439 0.349921 1.05102 0.341917C1.03199 0.296602 1.02665 0.247069 0.963038 0.217373C0.956855 0.214561 0.878293 0.248161 0.885075 0.230137C0.886251 0.226702 0.888514 0.201302 0.903762 0.189374C0.906088 0.187642 0.944664 0.176831 0.943181 0.169846C0.933935 0.129561 0.909833 0.0923431 0.873264 0.0640552C0.867235 0.0593636 0.829882 0.0806916 0.825242 0.0774729C0.793128 0.0558579 0.811135 0.0107939 0.76737 0.000744462C0.738374 -0.00477086 0.669803 0.0217228 0.59833 0.0346993C0.588086 0.0360446 0.585043 0.0306475 0.544182 0.0402308C0.440077 0.0587925 0.328996 0.0925566 0.218117 0.112824C0.194744 0.144249 0.20766 -0.0192851 0.155976 0.0849279C0.153724 0.105548 0.143729 0.147437 0.126315 0.158349C0.11447 0.167213 0.0706396 0.16896 0.0565681 0.18421C0.042017 0.197496 0.0788717 0.195933 0.0630288 0.214572C0.0465546 0.231873 -0.00151443 0.24146 8.58307e-06 0.264414ZM2.46055 3.76721C2.42244 3.78607 2.53162 3.68386 2.51372 3.71728C2.51273 3.71902 2.46244 3.7663 2.46055 3.76721ZM3.71856 4.40854C3.67025 4.45596 3.71422 4.36882 3.7507 4.33176C3.78679 4.2945 3.73304 4.39405 3.71856 4.40854ZM3.82542 4.5248C3.78693 4.56388 3.88078 4.37367 3.87522 4.41872C3.87491 4.42126 3.82758 4.52249 3.82542 4.5248ZM0.593072 0.085156C0.591116 0.0855929 0.586413 0.0778657 0.588241 0.0771101C0.631723 0.0574927 0.640897 0.0723918 0.593072 0.085156ZM3.94581 4.62433C3.93348 4.65089 3.92671 4.61477 3.94246 4.58207C3.95454 4.55565 3.96041 4.59117 3.94581 4.62433ZM1.9505 3.37782C1.94854 3.3789 1.94296 3.37413 1.95354 3.36728C1.98762 3.34526 1.98345 3.35967 1.9505 3.37782ZM4.21036 4.64626C4.16976 4.65419 4.14236 4.82908 4.18856 4.8096C4.19681 4.80606 4.171 4.75366 4.18158 4.73792C4.20069 4.70923 4.21328 4.81921 4.23268 4.76028C4.23618 4.74949 4.21267 4.64542 4.21029 4.64601C4.21031 4.6461 4.21034 4.64618 4.21036 4.64626ZM2.32354 3.88358C2.32192 3.88475 2.31393 3.87879 2.31522 3.87729C2.34673 3.8414 2.36273 3.85324 2.32354 3.88358ZM1.65738 3.06904C1.65337 3.07051 1.63905 3.05231 1.6421 3.04977C1.70487 3.00263 1.73377 3.03886 1.65738 3.06904ZM2.82279 4.35301C2.81523 4.40148 2.82618 4.41187 2.85614 4.35917C2.84483 4.35817 2.83422 4.35446 2.82279 4.35301Z" fill="black"/>
</svg>
