<svg width="8" height="6" viewBox="0 0 8 6" fill="none" xmlns="http://www.w3.org/2000/svg">
<path d="M0.589775 1.59659C0.654518 1.64256 0.717896 1.72467 0.760365 1.79307C0.773697 1.81444 0.746291 1.82469 0.754689 1.84031C0.771211 1.87092 0.802251 1.88307 0.817155 1.91473C0.821996 1.92531 0.783025 1.94596 0.788772 1.95636C0.820508 2.01317 0.870312 2.04657 0.909591 2.09687C1.10297 2.34417 1.31497 2.56721 1.53375 2.78542C1.60525 2.8564 1.6781 2.96881 1.75799 3.00492C1.76644 3.00839 1.78302 2.97503 1.7861 2.97347C1.80826 2.96246 1.80708 2.96691 1.8024 2.97821C1.79863 2.99217 1.78776 3.01342 1.79445 3.02373C1.84408 3.10023 1.93438 3.14878 2.02199 3.17311C2.05951 3.18345 2.0546 3.10083 2.07296 3.15423C2.07427 3.15786 2.04931 3.18954 2.05721 3.19768C2.07538 3.21618 2.12044 3.22845 2.13681 3.23902C2.16796 3.25943 2.17384 3.26156 2.20576 3.276C2.24941 3.2961 2.29444 3.33701 2.3458 3.35011C2.35687 3.35282 2.3597 3.31018 2.37864 3.31113C2.39766 3.31211 2.43974 3.3347 2.45034 3.3499C2.46097 3.3651 2.44177 3.39102 2.44135 3.39877C2.43739 3.4639 2.52203 3.40985 2.52945 3.41102C2.6028 3.42323 2.66026 3.45734 2.7149 3.49442C2.76092 3.52524 2.80445 3.55854 2.85365 3.58567C2.93781 3.63184 3.03423 3.67263 3.10932 3.72667C3.19856 3.79118 3.25937 3.86507 3.34253 3.93028C3.3513 3.93725 3.37176 3.89275 3.38262 3.9013C3.49839 3.99253 3.5992 4.10001 3.67104 4.22356C3.67826 4.23601 3.63571 4.25114 3.64104 4.2652C3.64953 4.2873 3.65802 4.31435 3.66827 4.34006C3.68273 4.39806 3.74614 4.45637 3.8454 4.36247C3.8804 4.39512 3.92878 4.43281 3.95185 4.48738C3.96687 4.52255 3.91905 4.54768 3.96175 4.54915C3.97121 4.5494 3.98044 4.50947 3.99311 4.5124C4.04701 4.52507 4.09327 4.56271 4.15058 4.56747C4.16217 4.5683 4.17472 4.53506 4.1802 4.53061C4.22533 4.49495 4.22784 4.59001 4.2343 4.5997C4.28081 4.67146 4.33755 4.67591 4.39961 4.70264C4.41407 4.70886 4.41492 4.65784 4.42934 4.66217C4.50406 4.68526 4.57775 4.71794 4.64268 4.76403C4.65711 4.7744 4.62849 4.80709 4.63472 4.814C4.66254 4.84402 4.69575 4.77462 4.72282 4.80163C4.72859 4.80723 4.71329 4.83862 4.7133 4.84266C4.71353 4.90605 4.75844 4.83188 4.76403 4.83181C4.83627 4.82938 4.84991 4.92685 4.91705 4.93474C4.92502 4.93556 4.9212 4.88843 4.94272 4.89325C5.0635 4.91999 5.18532 4.96113 5.2995 5.01178C5.3133 5.01957 5.33014 5.02729 5.34814 5.03466C5.36599 5.04167 5.35026 5.07336 5.3509 5.07751C5.36717 5.14256 5.38634 5.05797 5.39208 5.05492C5.44127 5.03327 5.49906 5.10009 5.52379 4.99524C5.58499 4.99793 5.64759 4.98878 5.70579 4.97371C5.83883 4.93896 5.94127 4.84192 6.09435 4.75102C6.09699 4.74932 6.12687 4.77918 6.13208 4.77556C6.19475 4.73111 6.13424 4.70247 6.09318 4.62108C6.08251 4.60114 6.18264 4.6226 6.19053 4.62306C6.2189 4.62651 6.26551 4.6697 6.27192 4.66888C6.32378 4.65949 6.1441 4.55866 6.16505 4.52187C6.16603 4.52085 6.19622 4.54452 6.20132 4.54318C6.21729 4.53899 6.20973 4.52154 6.22654 4.518C6.26521 4.51004 6.35894 4.54735 6.32572 4.4842C6.32125 4.47618 6.21367 4.43029 6.23602 4.3975C6.24514 4.38462 6.27316 4.32034 6.28804 4.30529C6.30307 4.29033 6.33188 4.31813 6.33393 4.31754C6.40148 4.28826 6.41201 4.3153 6.49079 4.3191C6.56944 4.32219 6.40516 4.26053 6.3915 4.24267C6.37789 4.22488 6.43118 4.20379 6.44818 4.19989C6.46517 4.19611 6.48263 4.21667 6.49348 4.21151C6.56466 4.17663 6.42251 4.15501 6.40384 4.12689C6.35928 4.06091 6.49297 4.07567 6.51992 4.04096C6.52716 4.03166 6.49623 4.02967 6.49722 4.01933C6.50157 3.97824 6.54792 3.97024 6.52911 3.91449C6.52601 3.90549 6.46575 3.84351 6.5278 3.84128C6.53672 3.84103 6.56372 3.86131 6.57646 3.84792C6.59567 3.82761 6.61833 3.7873 6.61806 3.75745C6.61777 3.73562 6.55962 3.73844 6.58419 3.72043C6.59515 3.71247 6.61682 3.74326 6.63501 3.7273C6.65321 3.71117 6.67158 3.66008 6.67833 3.64037C6.68492 3.62088 6.64317 3.61627 6.64125 3.61372C6.63046 3.5985 6.62786 3.55325 6.62927 3.5501C6.63689 3.53021 6.64584 3.51026 6.65527 3.49169C6.71735 3.3715 6.80103 3.24552 6.80618 3.09752C6.80666 3.08438 6.76311 3.0859 6.76275 3.08383C6.75219 3.0374 6.8587 3.08999 6.90116 3.06434C6.81481 3.05572 6.83322 3.03999 6.82813 3.00719C6.82559 2.99138 6.79121 2.99521 6.788 2.99336C6.74046 2.96453 6.80751 2.95787 6.8214 2.95526C6.87237 2.94623 6.81608 2.9232 6.85008 2.91663C6.88384 2.90984 6.92975 2.93885 6.93238 2.9079C6.90241 2.89622 6.81951 2.91024 6.80877 2.88616C6.76873 2.79627 6.8408 2.63993 6.84852 2.56876C6.85671 2.49864 6.85089 2.47594 6.86214 2.43488C6.88206 2.36057 6.82204 2.38814 6.79386 2.34305C6.76545 2.29801 6.91376 2.31681 6.94542 2.30946C6.97705 2.30208 6.94416 2.29564 6.9614 2.28695C6.97864 2.27823 7.00075 2.29553 7.00677 2.27589C7.01282 2.25608 6.95433 2.20488 6.92078 2.19965C6.84976 2.18828 6.77701 2.21493 6.80064 2.16377C6.80204 2.16081 6.84135 2.16831 6.84473 2.15704C6.87033 2.06754 6.86571 1.97576 6.88396 1.88499C6.88653 1.87254 6.93063 1.8794 6.9326 1.87207C6.95303 1.79511 6.88288 1.82846 6.79815 1.79728C6.90634 1.795 6.96976 1.76518 6.96376 1.70858C6.96012 1.67458 6.914 1.68587 6.87834 1.66833C6.8676 1.66308 6.89661 1.6353 6.87407 1.63396C6.80036 1.62938 6.7231 1.66201 6.74727 1.60139C6.74844 1.59871 6.78881 1.60103 6.78998 1.59215C6.7975 1.53426 6.72168 1.53926 6.70299 1.48149C6.68853 1.43721 6.71891 1.3465 6.71513 1.29269C6.83416 1.26908 6.79603 1.22368 6.70982 1.22255C6.7088 1.2147 6.70733 1.2069 6.70571 1.19919C6.70093 1.17599 6.693 1.15366 6.69303 1.12942C6.69295 1.11859 6.72795 1.11156 6.73101 1.10899C6.77769 1.06574 6.69662 1.08504 6.69118 1.0812C6.63256 1.03242 6.64359 0.94525 6.54881 0.93114C6.54524 0.930542 6.48193 0.985949 6.51309 0.929833C6.51507 0.925825 6.5597 0.916471 6.53739 0.889682C6.51583 0.863425 6.49423 0.783433 6.42995 0.782297C6.41437 0.78179 6.34911 0.817466 6.36186 0.760238C6.36361 0.752471 6.38102 0.735337 6.38526 0.721708C6.39831 0.67796 6.34096 0.74144 6.3688 0.672223C6.39651 0.60292 6.39492 0.535053 6.32282 0.546086C6.32058 0.546308 6.27213 0.594888 6.25919 0.584798C6.23842 0.568521 6.21533 0.536068 6.19217 0.521109C6.18111 0.514001 6.16481 0.553514 6.16249 0.552883C6.11149 0.535445 6.07935 0.505279 6.04745 0.469642L6.05992 0.475047C6.03065 0.46009 6.00019 0.443111 5.9634 0.429107C5.94675 0.422662 5.88812 0.469848 5.86289 0.41988C5.83453 0.365176 5.90586 0.16784 5.81041 0.202916C5.77107 0.216981 5.69464 0.469846 5.65012 0.328472C5.52744 0.347897 5.42309 0.269815 5.29962 0.308189C5.29409 0.309884 5.27149 0.381199 5.25897 0.379243C5.24037 0.376194 5.23269 0.34146 5.21948 0.338195C5.18773 0.329848 5.15656 0.334569 5.12555 0.338379C5.10378 0.342287 5.08086 0.345792 5.05805 0.343282C5.03753 0.341127 5.04565 0.306101 5.02105 0.30358C4.99651 0.301116 4.97918 0.347137 4.94647 0.324195C4.92181 0.30672 4.89782 0.211602 4.86451 0.200146C4.86206 0.29359 4.83915 0.291364 4.79824 0.315637C4.79037 0.320348 4.79845 0.352958 4.79471 0.356864C4.77932 0.373483 4.76597 0.346403 4.75137 0.364534C4.74782 0.368888 4.74742 0.400805 4.74456 0.406167C4.7202 0.452972 4.6809 0.380914 4.67413 0.368374C4.6483 0.32074 4.63577 0.362189 4.61577 0.343393C4.5957 0.324602 4.62592 0.301379 4.60249 0.289923C4.55397 0.266229 4.49147 0.271183 4.44208 0.269608C4.42237 0.269177 4.43573 0.311812 4.4329 0.31274C4.39217 0.323458 4.351 0.278081 4.32833 0.362924C4.30033 0.143456 4.30376 0.384176 4.2456 0.340208C4.24101 0.336652 4.23525 0.232878 4.25285 0.217654C4.2705 0.202446 4.29711 0.234904 4.32165 0.211183C4.32741 0.205615 4.36075 0.108418 4.36529 0.102536C4.40082 0.0565546 4.40562 0.21164 4.40746 0.22016C4.42852 0.312112 4.46927 0.207452 4.48001 0.200244C4.52897 0.167211 4.57044 0.189175 4.61141 0.165697C4.63837 0.150528 4.64135 0.0489676 4.66253 0.0521987C4.73263 0.0629112 4.75569 0.20479 4.82303 0.0826006C4.83762 0.0565587 4.82455 -0.0546464 4.8747 0.0332682C4.87772 0.0388052 4.91457 0.119161 4.93728 0.0690085C4.94012 0.0626834 4.94055 0.0303306 4.9442 0.0276709C4.96911 0.0104946 4.98486 0.0365543 5.01183 0.0247575C5.03859 0.0129601 5.07178 -0.00466982 5.10248 0.00721556C5.11332 0.011476 5.12628 0.0352204 5.13589 0.0567606C5.13828 0.0570119 5.14551 0.0570831 5.14789 0.057442C5.15348 0.0720253 5.15812 0.0855869 5.16105 0.0917302C5.18174 0.136008 5.21303 0.0685044 5.22405 0.120989C5.23521 0.173742 5.19957 0.249817 5.23675 0.286203C5.24465 0.202501 5.25464 0.116732 5.26347 0.032623C5.35045 0.0422719 5.43557 0.0760815 5.52608 0.0808361C5.53733 0.0813491 5.5301 0.0352716 5.54233 0.0346753C5.5941 0.0324165 5.63555 0.0691186 5.69048 0.0626926C5.73302 0.0575555 5.7852 0.0160853 5.83148 0.0106442C5.84465 0.109674 5.91404 0.0874251 5.96015 0.104728C5.97626 0.110713 5.97046 0.135783 5.98062 0.146187C6.01885 0.184954 6.01425 0.0976114 6.02907 0.0868369C6.09131 0.0428767 6.06118 0.218984 6.11376 0.238016C6.12933 0.242728 6.17084 0.258265 6.18364 0.268308C6.18492 0.269454 6.18634 0.270476 6.18792 0.271362C6.19057 0.272941 6.27826 0.208334 6.28605 0.205846C6.33606 0.18922 6.2706 0.238468 6.28327 0.256063C6.30656 0.288296 6.31468 0.323101 6.36861 0.323124C6.38439 0.323004 6.44659 0.287827 6.44028 0.343416C6.43945 0.350687 6.41876 0.377608 6.41989 0.380788C6.44209 0.436166 6.50387 0.349515 6.54895 0.337125C6.59429 0.324913 6.58923 0.412321 6.58404 0.434957C6.57113 0.493705 6.55485 0.442435 6.55064 0.446102C6.50038 0.488669 6.53361 0.499209 6.55057 0.518878C6.49064 0.604416 6.52151 0.620282 6.56847 0.539082C6.57352 0.530126 6.55177 0.525739 6.55057 0.518878C6.62994 0.450412 6.67278 0.466769 6.64661 0.569582C6.63388 0.617654 6.5853 0.644224 6.64457 0.670845C6.67139 0.683436 6.71178 0.622899 6.74485 0.627004C6.82173 0.637757 6.83131 0.746407 6.87958 0.794341C6.89769 0.812436 6.91471 0.769083 6.92844 0.78119C6.9655 0.814572 6.9635 0.866791 7.00004 0.903839C7.00346 0.907346 7.03465 0.877928 7.04266 0.892329C7.07965 0.958523 7.09707 1.03025 7.10698 1.10297C7.1102 1.137 7.11387 1.17308 7.12113 1.20923C7.13031 1.25395 7.16746 1.32847 7.17071 1.3755C7.17695 1.45692 7.13145 1.5611 7.15432 1.62601C7.16906 1.66842 7.20875 1.6541 7.23891 1.66959C7.2974 1.69957 7.20745 1.77553 7.1932 1.78519C7.19275 1.78545 7.17915 1.74908 7.16021 1.77123C7.11758 1.78735 7.19297 1.78476 7.1932 1.78519C7.18419 1.79188 7.18211 1.86789 7.19115 1.88208C7.19615 1.88983 7.23465 1.88188 7.23652 1.88602C7.28012 1.98418 7.29669 2.08655 7.28267 2.19096C7.28195 2.19281 7.2382 2.19185 7.23706 2.19616C7.22 2.25639 7.27439 2.29275 7.30699 2.3422C7.33952 2.39153 7.32898 2.43202 7.2539 2.46113C7.26327 2.49863 7.22929 2.55212 7.20834 2.58223C7.18743 2.61226 7.27219 2.61937 7.2738 2.62219C7.32452 2.71008 7.2733 2.75825 7.25879 2.84715C7.25184 2.88937 7.25562 2.97568 7.25874 3.02383C7.26151 3.06173 7.23858 3.08191 7.24603 3.11783C7.24701 3.12271 7.28514 3.12376 7.28637 3.12539C7.32502 3.17154 7.23651 3.13827 7.21894 3.14359C7.15481 3.163 7.12083 3.17305 7.1392 3.22719C7.14346 3.23934 7.26738 3.29872 7.26994 3.32301C7.27324 3.35348 7.22914 3.33218 7.23352 3.3639C7.23383 3.36662 7.26267 3.37295 7.2569 3.39085C7.23013 3.47507 7.18546 3.56376 7.15121 3.65639C7.14634 3.66912 7.19633 3.67038 7.18978 3.68945C7.18616 3.69986 7.1823 3.71032 7.17818 3.72079C7.16001 3.77029 7.13409 3.82546 7.09544 3.87194C7.08454 3.88484 7.0576 3.86376 7.04728 3.86351C6.98457 3.86276 7.05355 3.92179 7.05327 3.92716C7.04845 4.05609 6.943 4.1201 6.92904 4.25768C6.92858 4.26493 6.99291 4.35162 6.91041 4.34608C6.90488 4.34584 6.82111 4.33873 6.86346 4.38017C6.86609 4.38279 6.91041 4.38385 6.89595 4.40783C6.88156 4.43167 6.88934 4.48429 6.83205 4.50161C6.81392 4.50727 6.72935 4.50047 6.77214 4.56028C6.7756 4.56366 6.88129 4.67863 6.78213 4.65427C6.76581 4.65019 6.67293 4.60052 6.70143 4.66444C6.70691 4.67684 6.73504 4.6734 6.73779 4.70045C6.7419 4.74232 6.69517 4.77028 6.71384 4.83265C6.71736 4.84339 6.76227 4.90911 6.70096 4.90553C6.69143 4.90485 6.66548 4.87972 6.65464 4.89003C6.60331 4.93822 6.5816 5.01344 6.51718 5.05798C6.49439 5.07365 6.45747 5.02839 6.4292 5.03961C6.40104 5.05086 6.35579 5.08153 6.35553 5.11994C6.35474 5.15898 6.44382 5.19693 6.41671 5.23579C6.30213 5.39837 6.0808 5.49663 5.86068 5.54257C5.85164 5.54444 5.84243 5.54636 5.83352 5.54825C5.80582 5.55392 5.83644 5.58004 5.79576 5.59016C5.65018 5.62802 5.38516 5.68818 5.20436 5.58098C5.19042 5.57249 5.17942 5.56431 5.17178 5.55692C5.13912 5.50092 5.22591 5.48457 5.17351 5.45146C5.14539 5.43373 5.08654 5.52765 5.07806 5.52891C4.9961 5.54276 4.95794 5.48372 4.88959 5.47892C4.87542 5.47791 4.8766 5.52278 4.8646 5.52143C4.82326 5.51709 4.78811 5.48653 4.75031 5.47842C4.73331 5.47485 4.72657 5.50697 4.71204 5.49974C4.67723 5.48281 4.64922 5.45928 4.62381 5.41858C4.62152 5.41488 4.65576 5.38346 4.62978 5.37322C4.58751 5.35666 4.54477 5.31002 4.48549 5.32192C4.46787 5.32556 4.44186 5.39558 4.42811 5.33571C4.42521 5.32317 4.46449 5.24219 4.40151 5.30147C4.39123 5.31144 4.29265 5.38599 4.28667 5.31136C4.28507 5.29174 4.29177 5.21564 4.27042 5.21957C4.26738 5.22035 4.26209 5.26138 4.24621 5.25928C4.19046 5.2512 4.13919 5.22548 4.08194 5.21459C4.06665 5.21175 4.07108 5.25882 4.04871 5.25331C3.98677 5.23806 3.91943 5.196 3.86834 5.15708C3.84981 5.1428 3.87897 5.11868 3.87907 5.11458C3.8816 5.0483 3.83127 5.11498 3.82104 5.11527C3.75807 5.11602 3.73672 5.06152 3.68583 5.04543C3.6714 5.04063 3.66188 5.08004 3.65758 5.08167C3.61374 5.09643 3.66806 5.04614 3.65484 5.02991C3.61825 4.98431 3.56389 4.95574 3.51145 4.92744C3.49215 4.91704 3.48783 4.96854 3.47057 4.95854C3.39246 4.91276 3.31069 4.85497 3.22592 4.74779C3.21377 4.72904 3.20269 4.70987 3.19306 4.69057C3.18568 4.67564 3.21805 4.6591 3.22161 4.65121C3.24657 4.59609 3.16838 4.62442 3.15802 4.62413C3.11071 4.62271 3.12383 4.59194 3.0991 4.57525C2.97895 4.49428 2.86801 4.37307 2.76911 4.28876C2.65843 4.19389 2.56761 4.11046 2.4437 4.04799C2.42305 4.03768 2.4024 4.02812 2.38032 4.01878C2.36977 4.01428 2.36007 4.06119 2.35077 4.05789C2.23123 4.01308 2.12444 3.94518 1.99779 3.90443C1.98748 3.90103 1.98414 3.94769 1.96689 3.94354C1.93153 3.93538 1.8902 3.91475 1.86148 3.88677C1.84754 3.87324 1.88509 3.84843 1.87078 3.83552C1.8372 3.80527 1.79564 3.7834 1.7505 3.7705C1.73114 3.76503 1.73965 3.81856 1.71584 3.80818C1.61209 3.76336 1.49889 3.71245 1.39134 3.62984C1.3097 3.56861 1.26931 3.51829 1.22997 3.45969C1.223 3.44882 1.27308 3.37143 1.24166 3.36811C1.22392 3.38643 1.20482 3.40945 1.18676 3.42978C0.982291 3.27679 0.830573 3.09213 0.658472 2.92399C0.651233 2.9169 0.630715 2.96427 0.616504 2.9507C0.534231 2.8722 0.445112 2.8058 0.395157 2.69075C0.390166 2.6794 0.453651 2.62198 0.420405 2.60786C0.414484 2.60544 0.369982 2.57828 0.34766 2.58246C0.34443 2.58323 0.323374 2.61833 0.310781 2.60775C0.23807 2.54576 0.172905 2.46945 0.122197 2.38547C0.11405 2.37185 0.15547 2.35303 0.149934 2.34307C0.110631 2.27284 0.0279835 2.23651 0.00269462 2.157C-0.0140499 2.10374 0.0508488 2.06478 0.0831401 1.99499C0.0876764 1.98513 0.0672173 1.96242 0.0958336 1.9316C0.167682 1.854 0.259819 1.78247 0.335167 1.69852C0.35138 1.68043 0.304547 1.67056 0.362787 1.64588C0.366716 1.64426 0.401114 1.65112 0.420298 1.64215C0.43357 1.63597 0.457342 1.59931 0.477034 1.59409C0.496711 1.58888 0.47946 1.62227 0.505965 1.61947C0.532715 1.61655 0.561684 1.57679 0.589775 1.59659ZM7.11313 2.7163C7.07082 2.74198 7.21986 2.75506 7.18586 2.72207C7.18404 2.72046 7.1152 2.71496 7.11313 2.7163ZM5.42597 0.188918C5.45591 0.257644 5.48895 0.163263 5.46808 0.110267C5.44697 0.0573345 5.41673 0.16808 5.42597 0.188918ZM5.05008 0.211757C5.09035 0.264805 5.10308 0.0530199 5.05653 0.0946929C5.05387 0.0970505 5.04773 0.20868 5.05008 0.211757ZM0.183721 2.06597C0.184845 2.06429 0.170692 2.04753 0.168945 2.04857C0.127222 2.07408 0.155574 2.1076 0.183721 2.06597ZM4.68427 0.259306C4.69708 0.28807 4.73439 0.255227 4.71859 0.21944C4.70596 0.190645 4.66833 0.223519 4.68427 0.259306ZM6.58849 4.06601C6.58626 4.06561 6.57878 4.07952 6.59064 4.08375C6.6289 4.09732 6.62605 4.07277 6.58849 4.06601ZM4.06605 0.260451C4.15736 0.268436 4.21265 0.44363 4.11327 0.423844C4.09527 0.420266 4.15205 0.367988 4.12916 0.352191C4.08721 0.323413 4.05941 0.433402 4.0166 0.374464C4.00887 0.363676 4.06082 0.259606 4.06621 0.260207C4.06616 0.260288 4.06611 0.260369 4.06605 0.260451ZM6.9329 2.72228C6.93091 2.72272 6.92775 2.74421 6.92966 2.74484C6.97634 2.75961 6.98277 2.71582 6.9329 2.72228ZM6.09224 4.81868C6.08836 4.8171 6.05446 4.84947 6.05603 4.85312C6.09548 4.92561 6.16942 4.85472 6.09224 4.81868ZM6.71812 1.2912C6.66667 1.27849 6.6555 1.25407 6.70978 1.22267C6.71184 1.24573 6.71628 1.26811 6.71812 1.2912Z" fill="black"/>
</svg>
