<svg width="9" height="11" viewBox="0 0 9 11" fill="none" xmlns="http://www.w3.org/2000/svg">
<path d="M8.12697 0.000665155C8.04316 0.0167432 7.94531 0.0685447 7.87526 0.116782C7.85332 0.131813 7.87528 0.151636 7.86062 0.16314C7.83174 0.185711 7.79715 0.185662 7.76984 0.210108C7.76087 0.218323 7.78993 0.251782 7.78019 0.259496C7.72704 0.301388 7.66618 0.315454 7.60954 0.349653C7.32999 0.518623 7.05455 0.669751 6.77732 0.836572C6.68572 0.891618 6.59043 0.986236 6.48664 1.02465C6.4745 1.0291 6.46332 0.993172 6.45972 0.991693C6.40366 0.969605 6.45089 1.02849 6.43386 1.04928C6.36674 1.13135 6.27306 1.18867 6.18403 1.22399C6.146 1.239 6.14421 1.15533 6.12964 1.2114C6.12859 1.21523 6.15721 1.24383 6.14972 1.25304C6.13261 1.27389 6.08835 1.29182 6.07311 1.30446C6.04398 1.32888 6.03832 1.3318 6.00827 1.35025C5.96725 1.37586 5.92783 1.42234 5.87902 1.4417C5.86851 1.44576 5.86019 1.40384 5.84149 1.40725C5.82276 1.41068 5.78447 1.43815 5.77605 1.45446C5.76757 1.4708 5.78985 1.4941 5.79127 1.50172C5.80385 1.5656 5.71326 1.52241 5.70624 1.52434C5.57956 1.56135 5.51313 1.66069 5.4132 1.72526C5.33725 1.77422 5.24776 1.81409 5.17717 1.86382C5.17571 1.86485 5.17426 1.86589 5.17281 1.86693C5.09124 1.9254 5.03265 1.98991 4.94981 2.0416C4.94091 2.04721 4.92464 2.00126 4.91372 2.00804C4.79806 2.07985 4.68923 2.16097 4.59615 2.26561C4.58692 2.27609 4.62509 2.29983 4.61732 2.31231C4.56835 2.38839 4.51079 2.53083 4.36409 2.41501C4.32238 2.4543 4.27126 2.50146 4.25271 2.56107C4.24077 2.59945 4.29334 2.61619 4.24977 2.62512C4.23997 2.62719 4.2254 2.58863 4.21249 2.59414C4.15812 2.61741 4.11653 2.66592 4.05929 2.68511C4.04759 2.68894 4.02811 2.65922 4.02157 2.65626C3.96773 2.63299 3.9849 2.72857 3.9811 2.73961C3.95087 2.82335 3.89661 2.84445 3.84307 2.89082C3.83065 2.90163 3.81497 2.85269 3.80188 2.86182C3.73432 2.90978 3.67222 2.96893 3.62591 3.03834C3.61566 3.05389 3.65495 3.07315 3.65145 3.08212C3.63587 3.12118 3.57873 3.06969 3.56286 3.10634C3.55948 3.11399 3.58597 3.13677 3.5875 3.14052C3.61167 3.19932 3.54062 3.14954 3.53519 3.15198C3.46593 3.1809 3.49289 3.27679 3.4354 3.31424C3.4284 3.31873 3.41146 3.27424 3.39358 3.28886C3.27451 3.38587 3.16841 3.50959 3.08985 3.64286C3.07761 3.66353 3.11301 3.67416 3.11493 3.67803C3.14445 3.73909 3.07206 3.69185 3.06441 3.69528C3.00626 3.72326 3.02061 3.81271 2.91818 3.77446C2.77223 3.9852 2.5621 4.14194 2.47224 4.39342C2.47103 4.39655 2.50697 4.41882 2.50441 4.42493C2.47402 4.49886 2.43255 4.44684 2.3389 4.43566C2.31536 4.43288 2.36554 4.52362 2.36887 4.53072C2.38118 4.55679 2.4378 4.5859 2.43907 4.59232C2.44803 4.64406 2.29124 4.51011 2.26132 4.54724C2.26065 4.54862 2.29416 4.56749 2.29459 4.57297C2.29482 4.57556 2.29456 4.57776 2.29397 4.5797C2.29035 4.59091 2.27637 4.5938 2.2785 4.60909C2.28438 4.65088 2.3591 4.71777 2.28707 4.71767C2.27778 4.71775 2.18781 4.64206 2.16627 4.68239C2.15777 4.69799 2.11202 4.76384 2.10722 4.78683C2.1021 4.80964 2.14221 4.81631 2.14274 4.81855C2.15526 4.89428 2.18455 4.88589 2.23454 4.9467C2.28524 5.00633 2.13601 4.91428 2.11311 4.91526C2.0901 4.91639 2.1064 4.97356 2.11472 4.98897C2.12284 5.00455 2.14992 5.00408 2.15309 5.01573C2.17433 5.09182 2.0634 5.00085 2.02943 5.0071C1.94859 5.02377 2.05185 5.11213 2.0479 5.1556C2.04674 5.16764 2.02284 5.14775 2.01638 5.15642C1.99116 5.19136 2.02064 5.22813 1.97013 5.26024C1.96199 5.26509 1.87535 5.2776 1.92256 5.319C1.92941 5.32481 1.96324 5.32507 1.96497 5.34397C1.9676 5.37205 1.96155 5.41854 1.94389 5.44286C1.93088 5.46058 1.88533 5.42405 1.89471 5.45356C1.89897 5.46663 1.93454 5.45381 1.94009 5.47752C1.94558 5.50107 1.93151 5.55396 1.92605 5.57388C1.92046 5.59387 1.8834 5.57407 1.88038 5.5751C1.86286 5.58162 1.83525 5.61775 1.83468 5.62105C1.79351 5.79775 1.83883 5.97064 1.79638 6.13754C1.79313 6.1506 1.75175 6.13683 1.75082 6.13877C1.72777 6.18247 1.84467 6.15938 1.8788 6.19551C1.79324 6.18116 1.80666 6.20179 1.79365 6.23338C1.78736 6.2482 1.75492 6.23623 1.75135 6.23726C1.69822 6.2546 1.76194 6.27775 1.77489 6.28327C1.82252 6.30371 1.76259 6.3143 1.79442 6.32824C1.82601 6.3421 1.87694 6.32303 1.87311 6.35414C1.84138 6.3595 1.7631 6.32856 1.74765 6.35039C1.68908 6.43372 1.73651 6.60527 1.7363 6.67672C1.73603 6.74856 1.72823 6.76985 1.73532 6.8128C1.74822 6.88936 1.69109 6.85574 1.65915 6.89924C1.62716 6.94296 1.7766 6.93508 1.80758 6.94492C1.83855 6.95469 1.80527 6.95867 1.82183 6.96869C1.83839 6.97866 1.86169 6.96304 1.86628 6.98298C1.87093 7.00237 1.80936 7.04874 1.77557 7.05217C1.704 7.05934 1.63292 7.02803 1.65349 7.08152C1.65471 7.08462 1.6944 7.07912 1.69713 7.09077C1.71781 7.18119 1.70961 7.2734 1.72574 7.36454C1.728 7.3772 1.77226 7.37123 1.77406 7.37867C1.79291 7.45585 1.72357 7.42043 1.63832 7.45085C1.74647 7.45478 1.80945 7.48449 1.8031 7.54118C1.79926 7.57552 1.7533 7.56325 1.71765 7.58063C1.70692 7.58577 1.73601 7.61337 1.71348 7.61485C1.63982 7.61977 1.56234 7.58706 1.58691 7.64845C1.5881 7.65117 1.62846 7.64827 1.6297 7.65731C1.63776 7.71643 1.56196 7.71181 1.54461 7.77079C1.53097 7.81739 1.5648 7.90731 1.56417 7.96233C1.68434 7.97884 1.6491 8.02669 1.56327 8.03469C1.56141 8.06953 1.5509 8.10625 1.55692 8.14196C1.55895 8.15425 1.59485 8.15211 1.59836 8.15418C1.65351 8.18624 1.57069 8.18879 1.5663 8.1959C1.5642 8.19962 1.5623 8.20336 1.5606 8.20709C1.52889 8.27841 1.56831 8.35141 1.4947 8.40761C1.49187 8.4098 1.40951 8.39217 1.46371 8.42722C1.46742 8.42971 1.51108 8.41552 1.50443 8.45077C1.49804 8.48546 1.52025 8.56534 1.46601 8.59965C1.45296 8.60813 1.37862 8.61175 1.4194 8.65369C1.42493 8.6594 1.44871 8.66499 1.45943 8.67441C1.49332 8.70501 1.41141 8.68038 1.47115 8.725C1.53086 8.76964 1.56435 8.82935 1.49639 8.85668C1.49433 8.85766 1.42803 8.84012 1.4219 8.85529C1.4123 8.87933 1.4081 8.91911 1.3951 8.9431C1.38883 8.95464 1.35556 8.92779 1.35383 8.92945C1.29269 8.99527 1.29504 9.06679 1.25994 9.15604C1.25342 9.17271 1.17908 9.18421 1.19933 9.23627C1.22107 9.29377 1.41479 9.37371 1.32582 9.41986C1.28936 9.43936 1.04973 9.32808 1.12617 9.45497C1.03044 9.53367 1.0209 9.66328 0.910031 9.72982C0.905068 9.73283 0.83689 9.70207 0.829971 9.7127C0.820016 9.7283 0.840713 9.7572 0.834304 9.76914C0.807965 9.81989 0.753426 9.84211 0.723598 9.88689C0.713061 9.90256 0.739089 9.91757 0.73281 9.93577C0.73197 9.93769 0.731092 9.93935 0.729898 9.94103C0.715561 9.96108 0.669729 9.94353 0.665359 9.98317C0.662186 10.0132 0.717727 10.094 0.70395 10.1267C0.632535 10.0664 0.619026 10.085 0.573705 10.0992C0.564993 10.1018 0.546057 10.0741 0.540681 10.0742C0.518227 10.0744 0.529321 10.1025 0.506225 10.101C0.500653 10.1007 0.476686 10.0796 0.470797 10.0781C0.419953 10.0646 0.447174 10.1418 0.45187 10.1552C0.469695 10.2063 0.430727 10.1875 0.43113 10.2148C0.431521 10.2421 0.468901 10.2358 0.461547 10.2607C0.446175 10.3124 0.400018 10.3548 0.367547 10.3918C0.354437 10.4064 0.332401 10.3676 0.329801 10.369C0.294268 10.3913 0.299324 10.4522 0.222012 10.4106C0.362914 10.5811 0.18977 10.4138 0.182169 10.4862C0.181652 10.4919 0.253363 10.5672 0.276502 10.5648C0.299594 10.5624 0.294069 10.5208 0.328076 10.5193C0.336056 10.5189 0.429673 10.5612 0.437053 10.5619C0.494927 10.5675 0.385007 10.4579 0.380055 10.4508C0.327295 10.3726 0.431474 10.4144 0.444083 10.4114C0.501663 10.3981 0.51383 10.3527 0.558985 10.3383C0.588378 10.3287 0.665403 10.395 0.677452 10.377C0.717595 10.3172 0.627575 10.2051 0.763922 10.2361C0.793043 10.2425 0.8674 10.3263 0.835465 10.2299C0.833517 10.2238 0.797966 10.1428 0.850601 10.1589C0.85724 10.161 0.881778 10.1821 0.886231 10.181C0.915707 10.1736 0.906642 10.1444 0.933289 10.132C0.939952 10.1288 0.947141 10.1257 0.954372 10.1222C0.980354 10.1056 1.00168 10.0922 1.00931 10.0692C1.01537 10.051 0.982857 9.99485 0.976564 9.97896C0.958321 9.93335 1.0294 9.95555 0.998263 9.91169C0.966789 9.86783 0.886451 9.84324 0.884426 9.79123C0.951845 9.84146 1.02222 9.89149 1.09064 9.94121C1.14297 9.86853 1.17422 9.78184 1.23026 9.71111C1.23732 9.70232 1.26711 9.73822 1.27564 9.72944C1.31131 9.69243 1.31091 9.63746 1.35184 9.60106C1.38345 9.57326 1.44873 9.56242 1.48311 9.53243C1.41784 9.45695 1.48015 9.42127 1.49786 9.37635C1.50409 9.36068 1.48169 9.34803 1.48072 9.33371C1.4773 9.28022 1.53905 9.34196 1.55686 9.33851C1.63323 9.32257 1.47054 9.21994 1.50461 9.1704C1.50632 9.16788 1.61531 9.18349 1.62366 9.1815C1.67728 9.1706 1.59528 9.15912 1.5993 9.13606C1.60649 9.09391 1.59775 9.05821 1.64591 9.02967C1.6601 9.02137 1.73248 9.01937 1.69979 8.97296C1.69549 8.96692 1.66403 8.95415 1.66346 8.95071C1.65535 8.89025 1.75255 8.93326 1.79812 8.91967C1.8438 8.90575 1.79453 8.83263 1.77828 8.81609C1.73681 8.7724 1.7494 8.825 1.74388 8.82408C1.67878 8.81387 1.70183 8.7874 1.70613 8.76165C1.61043 8.71979 1.62844 8.69043 1.71082 8.73528C1.71979 8.7403 1.70358 8.75517 1.70613 8.76165C1.80948 8.77897 1.83739 8.74291 1.76139 8.66977C1.72554 8.6357 1.6702 8.63737 1.70705 8.58579C1.72352 8.56216 1.78901 8.5938 1.81513 8.57508C1.87495 8.53149 1.82889 8.44019 1.85082 8.38448C1.85889 8.36384 1.89329 8.39251 1.90015 8.37843C1.91845 8.34051 1.89524 8.30052 1.91586 8.26266C1.91762 8.25947 1.95105 8.27162 1.95833 8.26387C1.95781 8.27109 1.95826 8.27035 1.95845 8.26943C1.97707 8.1846 1.96183 8.11106 1.97438 8.02178C1.98039 7.97926 2.01355 7.90845 2.01523 7.86303C2.01821 7.78625 1.97117 7.68478 1.99368 7.62256C2.00818 7.58206 2.04789 7.59646 2.07805 7.58151C2.13653 7.55248 2.04715 7.47898 2.0331 7.46914C2.03264 7.46881 2.01868 7.50373 1.99998 7.48197C1.95754 7.46557 2.03286 7.46953 2.0331 7.46914C2.02405 7.46294 2.02328 7.38891 2.03273 7.37532C2.0379 7.36796 2.0762 7.37679 2.07816 7.37286C2.12387 7.28052 2.14422 7.18407 2.13623 7.08312C2.13562 7.08131 2.09191 7.07945 2.09102 7.07526C2.07748 7.01682 2.13427 6.98579 2.1705 6.94186C2.20665 6.89839 2.19966 6.86049 2.12773 6.82529C2.14057 6.7906 2.11228 6.73846 2.09512 6.70673C2.07789 6.67568 2.1629 6.67987 2.16482 6.67747C2.22588 6.6045 2.18192 6.55297 2.18245 6.47095C2.18257 6.43155 2.20262 6.35663 2.21634 6.31615C2.22725 6.28462 2.20963 6.26254 2.22568 6.23384C2.22783 6.22997 2.26499 6.23833 2.26657 6.23725C2.31536 6.20914 2.2216 6.21462 2.20596 6.20584C2.14912 6.17422 2.11913 6.15469 2.15249 6.11511C2.16015 6.10588 2.29591 6.09434 2.30589 6.07822C2.31872 6.0565 2.27022 6.05884 2.28492 6.03643C2.28614 6.03453 2.31527 6.03888 2.316 6.02414C2.31969 5.95624 2.31411 5.88015 2.32926 5.81321C2.33121 5.80413 2.37507 5.82413 2.37863 5.8113C2.39551 5.74994 2.40749 5.68477 2.40031 5.62255C2.39842 5.60714 2.36448 5.60806 2.35581 5.60264C2.30358 5.56896 2.39336 5.56376 2.39604 5.56018C2.46334 5.47 2.4155 5.37031 2.49055 5.28887C2.49499 5.28383 2.59495 5.28495 2.53235 5.23445C2.52807 5.23128 2.46458 5.17816 2.5213 5.18805C2.52481 5.18877 2.55633 5.21783 2.56179 5.19814C2.5675 5.17804 2.60657 5.16416 2.5815 5.1173C2.57344 5.10277 2.51634 5.04194 2.58504 5.05306C2.59021 5.05307 2.73224 5.09984 2.65785 5.0324C2.64566 5.02125 2.55736 4.96306 2.62078 4.96722C2.63294 4.96827 2.64548 4.99108 2.6669 4.98655C2.69798 4.98046 2.69688 4.94106 2.74545 4.94193C2.748 4.94174 2.75066 4.94165 2.75344 4.94166C2.76402 4.94176 2.83701 4.96524 2.80845 4.91412C2.80398 4.90611 2.77249 4.88905 2.7767 4.87757C2.79644 4.82307 2.85096 4.7935 2.86768 4.7349C2.87359 4.71428 2.82328 4.68579 2.82459 4.66026C2.82574 4.63492 2.84129 4.59325 2.87524 4.59323C2.9091 4.59332 2.96358 4.66958 2.98979 4.64961C3.10336 4.56332 3.15271 4.42453 3.23946 4.31549C3.25225 4.29941 3.26518 4.33365 3.28567 4.31169C3.36197 4.2296 3.51391 4.11088 3.53086 3.99442C3.54525 3.90003 3.44672 3.94137 3.47219 3.88274C3.48472 3.85443 3.58165 3.90629 3.58873 3.90383C3.66001 3.87954 3.65931 3.8143 3.71291 3.78179C3.7239 3.7752 3.74508 3.81429 3.75407 3.80838C3.78497 3.78855 3.79872 3.74875 3.8262 3.72736C3.83852 3.7179 3.85897 3.74353 3.86747 3.73198C3.88796 3.70477 3.90052 3.67416 3.90398 3.62919C3.90432 3.62508 3.86168 3.60922 3.87918 3.59093C3.90731 3.56168 3.92502 3.50463 3.98075 3.49655C3.99739 3.49424 4.04742 3.54958 4.03555 3.49117C4.03308 3.47898 3.96771 3.41711 4.0452 3.452C4.05825 3.4576 4.17051 3.49812 4.14819 3.42856C4.14231 3.41024 4.10927 3.34193 4.12957 3.33977C4.13248 3.3397 4.1516 3.37608 4.16467 3.37008C4.21045 3.34826 4.2468 3.31224 4.29368 3.28992C4.30621 3.28406 4.31717 3.32875 4.33495 3.31905C4.38377 3.29251 4.43032 3.24153 4.46445 3.19809C4.47698 3.18201 4.44497 3.16349 4.44378 3.15967C4.42449 3.09743 4.48608 3.15351 4.49506 3.15258C4.55046 3.14571 4.55576 3.09298 4.59733 3.07415C4.60873 3.0689 4.6255 3.10532 4.62955 3.10663C4.67021 3.11858 4.61278 3.07391 4.62083 3.05808C4.64327 3.01358 4.68557 2.98592 4.72509 2.96299C4.73968 2.95459 4.75149 3.00227 4.76425 2.99434C4.84032 2.94804 4.91241 2.89084 4.96954 2.81981C4.98014 2.80646 4.95157 2.78385 4.94975 2.77535C4.93684 2.71609 5.00921 2.75838 5.01991 2.75975C5.06888 2.76592 5.06252 2.73269 5.09225 2.71908C5.23748 2.65317 5.38782 2.52691 5.50585 2.43287C5.51568 2.42505 5.52537 2.41725 5.53494 2.40947C5.67208 2.29756 5.77642 2.19562 5.92684 2.11C5.93699 2.10418 5.95184 2.1498 5.96094 2.14528C6.07706 2.08524 6.17664 2.00245 6.29516 1.94676C6.30486 1.94211 6.31438 1.98782 6.33068 1.98166C6.36428 1.96928 6.40091 1.94463 6.42445 1.91434C6.43591 1.89968 6.39662 1.87898 6.40858 1.86487C6.43636 1.83197 6.47239 1.80719 6.51214 1.79226C6.52905 1.78603 6.52856 1.83845 6.54874 1.82733C6.68685 1.75238 6.82423 1.68409 6.93571 1.55732C6.94334 1.54863 6.90805 1.46355 6.93701 1.46792C6.9506 1.48948 6.96468 1.51587 6.97822 1.53945C7.18617 1.44434 7.3721 1.31417 7.57633 1.21204C7.58489 1.20777 7.59072 1.25872 7.60737 1.2507C7.70417 1.20424 7.80353 1.17371 7.88422 1.08577C7.89223 1.07714 7.85305 1.00101 7.88785 1.00001C7.89407 0.999854 7.94292 0.991272 7.96162 1.00351C7.96428 1.00542 7.97175 1.04556 7.98654 1.04054C8.07171 1.01101 8.15535 0.967126 8.22975 0.912101C8.24186 0.903102 8.21205 0.869132 8.22057 0.86237C8.28111 0.814728 8.36678 0.817325 8.41982 0.757611C8.45507 0.717628 8.41472 0.654069 8.41496 0.57749C8.41505 0.566655 8.44256 0.555489 8.43044 0.515232C8.40015 0.413904 8.34873 0.309186 8.31803 0.200638C8.31143 0.177227 8.35934 0.18858 8.31711 0.140984C8.31424 0.137801 8.27909 0.129242 8.2654 0.112946C8.2559 0.101676 8.251 0.0581477 8.23498 0.0450602C8.21893 0.0320072 8.21938 0.0697801 8.1955 0.0562557C8.17169 0.0424598 8.16296 -0.00607663 8.12697 0.000665155ZM2.01814 6.56803C1.9801 6.53726 2.12933 6.54781 2.09091 6.57329C2.08888 6.57451 2.02 6.56961 2.01814 6.56803ZM1.08298 9.7147C1.05147 9.64652 1.14392 9.6844 1.16992 9.73503C1.19561 9.78594 1.09245 9.73546 1.08298 9.7147ZM0.81933 9.97743C0.804395 9.91267 0.974721 10.0392 0.913241 10.0476C0.909713 10.0482 0.820173 9.98122 0.81933 9.97743ZM8.2964 0.597823C8.29608 0.595821 8.31568 0.586649 8.31683 0.588337C8.34368 0.629121 8.30473 0.647325 8.2964 0.597823ZM0.539262 10.2212C0.526606 10.1924 0.575951 10.1869 0.591872 10.2226C0.604626 10.2514 0.554994 10.2571 0.539262 10.2212ZM2.11511 5.18411C2.11318 5.18289 2.11721 5.1678 2.12873 5.17292C2.16579 5.18942 2.14726 5.20455 2.11511 5.18411ZM0.1185 10.6711C0.174314 10.5994 0.0843289 10.4393 0.0309319 10.5254C0.0213004 10.541 0.0982282 10.5351 0.0941677 10.5627C0.086766 10.6128 -0.0127835 10.5583 0.00138059 10.6298C0.00412286 10.6427 0.11557 10.6755 0.118789 10.6712C0.118693 10.6712 0.118596 10.6711 0.1185 10.6711ZM1.84085 6.53523C1.83894 6.53449 1.83916 6.51284 1.84116 6.51253C1.88954 6.50553 1.88913 6.54909 1.84085 6.53523ZM2.54046 4.37516C2.53801 4.37148 2.56753 4.32992 2.57154 4.33121C2.64798 4.36076 2.58884 4.44449 2.54046 4.37516ZM1.56725 7.96366C1.51656 7.97982 1.50675 8.0071 1.56322 8.03458C1.5636 8.01106 1.56671 7.98727 1.56725 7.96366Z" fill="#963076"/>
</svg>
