<svg width="3" height="2" viewBox="0 0 3 2" fill="none" xmlns="http://www.w3.org/2000/svg">
<path d="M1.34963 0.855434C1.32749 0.848307 1.30698 0.868718 1.29377 0.892371C1.2896 0.899727 1.29981 0.924375 1.29725 0.930604C1.29219 0.942762 1.28131 0.93234 1.27693 0.94634C1.2755 0.951107 1.29015 0.990595 1.28838 0.994671C1.27853 1.01674 1.26167 1.01037 1.24898 1.02318C1.18676 1.08625 1.1177 1.12119 1.04762 1.1587C1.02466 1.171 1.00353 1.21548 0.974282 1.20535C0.97084 1.20414 0.964034 1.16787 0.962761 1.16506C0.943165 1.12193 0.96337 1.19359 0.959884 1.20458C0.946071 1.24797 0.920957 1.25722 0.896135 1.24812C0.885476 1.24416 0.879123 1.17062 0.878634 1.21278C0.878577 1.21563 0.889253 1.25335 0.887598 1.25799C0.883846 1.26841 0.871414 1.26392 0.867565 1.2679C0.860203 1.27575 0.858846 1.27563 0.850766 1.27775C0.839781 1.28097 0.830536 1.30263 0.817018 1.29617C0.814165 1.29467 0.80994 1.25464 0.804796 1.24867C0.799777 1.24268 0.789939 1.24795 0.788232 1.25786C0.786474 1.26778 0.793449 1.29856 0.794103 1.30579C0.799654 1.36677 0.772817 1.28564 0.771253 1.28377C0.738557 1.25311 0.723234 1.30378 0.702017 1.30547C0.691003 1.3063 0.68014 1.29836 0.679347 1.29437C0.678742 1.29279 0.678796 1.2919 0.67904 1.29256C0.681044 1.29567 0.680225 1.31754 0.688098 1.31821C0.689128 1.31845 0.712876 1.27766 0.714861 1.2783C0.738047 1.28588 0.746025 1.31152 0.714278 1.3201C0.711103 1.32092 0.673702 1.33873 0.668077 1.34013C0.634736 1.35117 0.546466 1.33989 0.721925 1.29617C0.713654 1.29117 0.705069 1.28383 0.667939 1.27929C0.644061 1.27638 0.599841 1.28702 0.618168 1.27731C0.622262 1.27516 0.661786 1.27336 0.664977 1.27063C0.678398 1.25937 0.664864 1.24859 0.684894 1.23708C0.689063 1.23475 0.724467 1.23423 0.73082 1.23345C0.782267 1.22741 0.696834 1.22115 0.690624 1.2189C0.644294 1.20424 0.662743 1.19205 0.662199 1.17734C0.662062 1.17386 0.709401 1.1799 0.710974 1.17672C0.718502 1.16038 0.715607 1.14278 0.696098 1.12366C0.691649 1.11938 0.650986 1.11938 0.6468 1.11711C0.628869 1.1069 0.705209 1.11227 0.689546 1.10276C0.686346 1.10074 0.651752 1.09819 0.647995 1.09749C0.589034 1.08639 0.673742 1.09089 0.675727 1.08992C0.70281 1.07721 0.616247 1.05641 0.630731 1.04195C0.63255 1.04027 0.675511 1.05013 0.677957 1.04513C0.694517 1.01188 0.688333 0.973114 0.659807 0.931315C0.655431 0.924825 0.622261 0.923305 0.618313 0.922282C0.55671 0.905839 0.641209 0.916372 0.644673 0.915123C0.669834 0.904866 0.602061 0.878514 0.70354 0.886605C0.679784 0.819567 0.748251 0.766454 0.669911 0.686073C0.669018 0.685052 0.627459 0.679559 0.625852 0.677569C0.605988 0.653734 0.669483 0.668764 0.750328 0.667321C0.770695 0.666539 0.677251 0.641363 0.670375 0.63962C0.645158 0.63257 0.582983 0.627033 0.578165 0.625219C0.5403 0.610979 0.744133 0.641937 0.746127 0.627213C0.745841 0.626739 0.707978 0.623739 0.704385 0.622103C0.693089 0.617073 0.708482 0.615413 0.695915 0.610451C0.66681 0.598959 0.567476 0.58655 0.626536 0.580557C0.634184 0.579636 0.750541 0.592456 0.746049 0.577793C0.7459 0.577351 0.745784 0.576798 0.745693 0.576148C0.744191 0.576855 0.744245 0.583876 0.736583 0.584775C0.728549 0.585205 0.693174 0.57203 0.691494 0.571952C0.644436 0.555855 0.624946 0.548103 0.560843 0.511221C0.500145 0.468459 0.65341 0.553892 0.670068 0.564081C0.686385 0.574783 0.652137 0.551924 0.642642 0.540896C0.632477 0.53077 0.612929 0.516813 0.607858 0.510284C0.578917 0.463684 0.67388 0.567056 0.693239 0.586873C0.732365 0.640211 0.651761 0.537408 0.655395 0.520383C0.655327 0.516507 0.668184 0.543204 0.67053 0.545093C0.678399 0.552861 0.667598 0.513382 0.686633 0.546142C0.690642 0.551197 0.715532 0.625234 0.703551 0.56914C0.702045 0.560993 0.692349 0.530028 0.693586 0.522245C0.695301 0.51056 0.703973 0.501601 0.711457 0.511434C0.716624 0.518749 0.720233 0.572167 0.722216 0.555126C0.723293 0.547504 0.714862 0.517145 0.717695 0.505354C0.720487 0.493521 0.733558 0.493596 0.737962 0.494418C0.74261 0.495199 0.742749 0.535772 0.743323 0.538464C0.746441 0.553893 0.754898 0.573021 0.755539 0.572965C0.787711 0.576595 0.830082 0.511145 0.868047 0.538696C0.870921 0.540792 0.8634 0.582867 0.863783 0.583623C0.871678 0.602703 0.878314 0.489083 0.891364 0.452516C0.878423 0.538185 0.885059 0.523244 0.891409 0.533784C0.894444 0.538935 0.887446 0.571807 0.887283 0.575254C0.884773 0.626395 0.898298 0.561913 0.901451 0.548781C0.912823 0.500443 0.907437 0.558849 0.915249 0.526594C0.923189 0.494612 0.925195 0.445565 0.932913 0.447493C0.929831 0.478424 0.910873 0.557403 0.91416 0.571284C0.925689 0.623519 0.975268 0.568674 0.994118 0.566191C1.0125 0.563538 1.01643 0.570381 1.02889 0.561829C1.05148 0.546454 1.03078 0.603308 1.03475 0.632659C1.03862 0.662024 1.07 0.51737 1.07944 0.486953C1.08894 0.45657 1.08259 0.488724 1.08896 0.472321C1.09537 0.455931 1.09633 0.433847 1.10281 0.428745C1.10938 0.423666 1.10811 0.481831 1.10106 0.514377C1.08625 0.58335 1.0615 0.653241 1.08001 0.631344C1.0811 0.630043 1.0891 0.591906 1.09277 0.588831C1.12166 0.565676 1.14426 0.570247 1.17306 0.551263C1.17705 0.548599 1.18693 0.506379 1.18941 0.504366C1.21555 0.483376 1.18793 0.551254 1.17344 0.63161C1.20323 0.527918 1.22825 0.466551 1.24235 0.47035C1.25076 0.472584 1.23505 0.517025 1.23015 0.550326C1.22864 0.560356 1.24438 0.53145 1.23857 0.552862C1.21953 0.622835 1.18916 0.698185 1.21248 0.671868C1.21355 0.670605 1.2241 0.63234 1.22689 0.630733C1.245 0.620185 1.22266 0.69259 1.23358 0.706002C1.242 0.716475 1.27678 0.679707 1.29193 0.677193C1.3327 0.562971 1.33549 0.593507 1.31165 0.673836C1.3211 0.673658 1.32822 0.681352 1.34005 0.673465C1.34411 0.670787 1.35478 0.637282 1.35645 0.63386C1.38272 0.580166 1.35767 0.657682 1.35823 0.661312C1.36608 0.697518 1.40454 0.646433 1.39964 0.709516C1.39949 0.7118 1.36839 0.790091 1.39646 0.735128C1.39841 0.731349 1.40692 0.693397 1.41671 0.694229C1.42652 0.695067 1.45952 0.659973 1.45614 0.70111C1.45532 0.711004 1.43432 0.776482 1.46136 0.730055C1.46505 0.72376 1.47413 0.701353 1.48078 0.6896C1.50215 0.652243 1.46886 0.730636 1.50313 0.66677C1.53748 0.602954 1.56968 0.558119 1.56122 0.609478C1.56103 0.610996 1.53436 0.673068 1.5383 0.673826C1.5399 0.674129 1.54196 0.673822 1.54423 0.673238C1.5481 0.671899 1.55837 0.671743 1.56154 0.675886C1.56353 0.678538 1.53056 0.704481 1.53036 0.705419C1.52766 0.738016 1.56652 0.72547 1.59462 0.732137C1.59976 0.733228 1.56664 0.781589 1.60553 0.756986C1.64793 0.729853 1.79122 0.582009 1.7691 0.629837C1.75993 0.648606 1.58079 0.838857 1.68811 0.755033C1.68556 0.800002 1.7529 0.768787 1.74201 0.82362C1.74153 0.826052 1.69576 0.882891 1.6989 0.884392C1.70363 0.886483 1.7283 0.862858 1.73231 0.863429C1.74968 0.865146 1.74048 0.895698 1.75412 0.901244C1.7562 0.902114 1.76097 0.897916 1.76628 0.892812C1.77409 0.885879 1.78471 0.878641 1.78809 0.881179C1.79413 0.886126 1.75745 0.914507 1.78038 0.909401C1.79762 0.905098 1.88671 0.870801 1.90266 0.880167C1.81674 0.916979 1.82126 0.922581 1.80121 0.940418C1.79728 0.94376 1.76576 0.952059 1.76228 0.9541C1.74731 0.962225 1.77393 0.957092 1.75729 0.965275C1.75328 0.967199 1.7226 0.975971 1.71755 0.977925C1.67333 0.994161 1.74457 0.983338 1.75725 0.982705C1.80487 0.977956 1.76498 0.989949 1.78421 0.990738C1.80352 0.991939 1.82496 0.979964 1.83725 0.983646C1.86278 0.991772 1.86045 1.00939 1.86373 1.02185C1.86486 1.02693 1.82217 1.02948 1.82136 1.03035C1.81209 1.04182 1.8584 1.04661 1.77488 1.06272C1.99353 1.04286 1.75454 1.07142 1.79978 1.08035C1.80343 1.08107 1.90673 1.07106 1.92134 1.06465C1.93593 1.05824 1.9029 1.0551 1.92567 1.04577C1.93105 1.04379 2.02634 1.02229 2.03199 1.02014C2.07628 1.00384 1.9224 1.02326 1.91391 1.02406C1.82214 1.03133 1.92428 1.00595 1.9309 1.00142C1.96153 0.982556 1.93794 0.974173 1.95871 0.957238C1.97203 0.945942 2.07119 0.923899 2.06634 0.916387C2.04923 0.889021 1.91243 0.924164 2.01886 0.856104C2.04098 0.840687 2.14794 0.807977 2.05472 0.811022C2.04842 0.810161 1.96769 0.825222 2.00569 0.789856C2.01042 0.785239 2.03876 0.769629 2.03985 0.766C2.04629 0.741723 2.01787 0.744867 2.01717 0.722543C2.0167 0.712422 2.01646 0.700991 2.01441 0.69085C2.00424 0.683601 1.98287 0.652282 1.97149 0.647159C1.97285 0.640567 1.97223 0.636192 1.96583 0.638733C1.95895 0.641496 1.91608 0.684134 1.90499 0.694049C1.87313 0.722707 1.91489 0.666604 1.87841 0.703068C1.8415 0.739486 1.79467 0.803006 1.76522 0.821547C1.82094 0.758601 1.87786 0.693762 1.9339 0.630456C1.9188 0.620917 1.88703 0.628455 1.87608 0.612677C1.8748 0.610677 1.90795 0.579872 1.90743 0.576931C1.90521 0.564755 1.8761 0.581264 1.87755 0.564492C1.87878 0.551382 1.90674 0.51151 1.9096 0.497081C1.83655 0.559898 1.85091 0.527594 1.838 0.526607C1.83347 0.526193 1.81479 0.543836 1.80697 0.547727C1.77787 0.561899 1.84336 0.507523 1.85153 0.496652C1.88662 0.450433 1.74373 0.579288 1.73818 0.566004C1.73778 0.565283 1.80866 0.490682 1.81275 0.485658C1.83914 0.452647 1.78525 0.508455 1.77653 0.51003C1.76059 0.512904 1.73814 0.52444 1.75429 0.497202C1.75696 0.492753 1.77164 0.476325 1.77722 0.467374C1.75602 0.453244 1.70904 0.399456 1.68403 0.394598C1.68445 0.385759 1.68106 0.38354 1.66818 0.401763C1.66439 0.407117 1.64999 0.437809 1.64838 0.439234C1.62095 0.462685 1.66578 0.366109 1.67366 0.329942C1.68118 0.293616 1.63821 0.354834 1.6272 0.373121C1.59835 0.420247 1.62233 0.396631 1.62042 0.401683C1.59773 0.461706 1.59389 0.447826 1.58556 0.450029C1.542 0.544944 1.53676 0.535756 1.57734 0.452039C1.58181 0.44291 1.58245 0.453859 1.58556 0.450029C1.62242 0.354252 1.61729 0.337617 1.56863 0.420911C1.54594 0.46001 1.52968 0.509941 1.52339 0.486465C1.52041 0.475824 1.55082 0.410602 1.55249 0.390044C1.55553 0.342825 1.51348 0.398133 1.50341 0.382771C1.49973 0.377184 1.51921 0.342563 1.51715 0.337466C1.51207 0.323972 1.49336 0.348378 1.48958 0.330713C1.48925 0.329062 1.50611 0.291398 1.50338 0.289786C1.48303 0.276859 1.4546 0.294449 1.43191 0.287056C1.42094 0.283448 1.40844 0.254951 1.39559 0.255372C1.37296 0.255679 1.32992 0.304517 1.31756 0.285249C1.30933 0.272812 1.32431 0.234344 1.32802 0.206051C1.33506 0.151156 1.28921 0.239014 1.28272 0.252822C1.28252 0.25328 1.28923 0.265527 1.27786 0.284157C1.26191 0.325365 1.28278 0.253043 1.28272 0.252822C1.27837 0.261672 1.25651 0.264805 1.25497 0.25614C1.25413 0.251396 1.26645 0.214324 1.26579 0.212553C1.24967 0.171285 1.22513 0.153999 1.19307 0.164327C1.19238 0.16496 1.18182 0.207349 1.18037 0.208316C1.15985 0.222947 1.1634 0.168689 1.15774 0.134556C1.15209 0.100447 1.13831 0.108056 1.11323 0.179172C1.10539 0.167604 1.08352 0.19661 1.07096 0.21444C1.05847 0.23228 1.07536 0.148957 1.07495 0.147146C1.06287 0.0895256 1.03847 0.134223 1.01253 0.137104C1.0003 0.13862 0.977975 0.122279 0.966063 0.111065C0.956716 0.102041 0.947055 0.120764 0.938817 0.106759C0.93768 0.104885 0.944227 0.0675731 0.944006 0.0660714C0.938432 0.019605 0.931736 0.112097 0.927245 0.128169C0.910954 0.186662 0.902964 0.217881 0.892123 0.188188C0.889838 0.181407 0.893891 0.0478209 0.887636 0.039391C0.879843 0.028715 0.878724 0.0765754 0.870819 0.064261C0.870132 0.0632539 0.872838 0.0339017 0.867038 0.0347266C0.839096 0.0381138 0.80884 0.0536635 0.77726 0.0505622C0.77297 0.050258 0.778724 0.0035308 0.772294 0.00233388C0.742188 -0.00322813 0.70514 -3.92497e-05 0.67071 0.0258522C0.662466 0.032363 0.671852 0.064229 0.671102 0.0740966C0.667606 0.133657 0.640288 0.051401 0.636539 0.0503778C0.554836 0.0246577 0.51355 0.107155 0.38759 0.146092C0.383148 0.14541 0.270987 0.116228 0.302687 0.197141C0.303805 0.203423 0.344807 0.276014 0.287242 0.260576C0.283371 0.260074 0.263171 0.21834 0.24536 0.248499C0.228615 0.276763 0.172621 0.317961 0.198754 0.37694C0.206248 0.396943 0.272584 0.448019 0.203691 0.465151C0.198914 0.462118 0.0456222 0.503599 0.144256 0.533748C0.150846 0.535507 0.172303 0.537258 0.191571 0.540964C0.219749 0.542755 0.243563 0.54488 0.211515 0.544027C0.201023 0.543668 0.177649 0.540859 0.162908 0.540787C0.140209 0.540477 0.167827 0.547954 0.120531 0.54734C0.112151 0.547295 0.0407208 0.541363 0.0940835 0.552084C0.102433 0.553821 0.137454 0.557689 0.141083 0.560162C0.158427 0.572402 0.133369 0.580044 0.155362 0.596166C0.163072 0.601925 0.219555 0.609362 0.233824 0.61644C0.248093 0.623495 0.260854 0.635701 0.234311 0.636353C0.207767 0.636956 0.119444 0.615414 0.110928 0.621787C0.0741097 0.648419 0.119783 0.693323 0.120622 0.731665C0.120768 0.73728 0.0896698 0.72688 0.0875835 0.734806C0.0796881 0.764108 0.0401193 0.812809 0.103589 0.852236C0.154499 0.883186 0.200528 0.86248 0.220003 0.882693C0.229307 0.892283 0.123741 0.884451 0.120136 0.885997C0.0837142 0.900419 0.127849 0.921173 0.111094 0.937055C0.107617 0.940369 0.0658089 0.930677 0.0633135 0.933605C0.0544075 0.943616 0.0717249 0.957912 0.0668776 0.968143C0.0646054 0.972734 0.0323296 0.967693 0.0342577 0.972508C0.03851 0.983937 0.0509559 0.995361 0.0801556 1.00937C0.0828199 1.01062 0.123904 1.0089 0.124508 1.01692C0.125365 1.02999 0.153747 1.0487 0.121304 1.0608C0.111557 1.06435 0.0371861 1.05791 0.0876663 1.07231C0.0982147 1.07534 0.187723 1.08018 0.109628 1.08506C0.0966617 1.08549 -0.00907016 1.09833 0.0574887 1.11294C0.0749969 1.11678 0.147798 1.12767 0.135992 1.13249C0.134113 1.13316 0.0942559 1.12784 0.0900928 1.13237C0.0761098 1.14866 0.0796614 1.16719 0.0667486 1.18512C0.0632221 1.19006 0.0218854 1.18167 0.0179579 1.18932C0.00709116 1.21063 0.017807 1.23757 0.0316069 1.25986C0.036769 1.26791 0.0709 1.26091 0.074659 1.2614C0.135781 1.26814 0.0540483 1.27714 0.0494423 1.28078C0.0218852 1.30222 0.0616508 1.31653 0.0534867 1.33684C0.0513651 1.3426 0.0120295 1.34285 0.0086745 1.34432C-0.0239285 1.35992 0.0449755 1.34341 0.0534986 1.34977C0.0777338 1.36825 0.0779791 1.39144 0.0774636 1.41533C0.0772808 1.42434 0.0307983 1.42315 0.0312366 1.43146C0.0330459 1.48056 0.0527196 1.53678 0.101359 1.58595C0.110514 1.59487 0.139448 1.57383 0.147715 1.57279C0.204502 1.56334 0.146881 1.61799 0.144095 1.62798C0.128969 1.66931 0.161849 1.66387 0.172098 1.68948C0.216997 1.82587 0.441754 1.94078 0.562309 1.93783C0.594532 1.94026 0.624416 1.93908 0.652173 1.93594C0.748494 1.92154 0.780277 1.89458 0.832741 1.89492C0.836616 1.89486 0.839474 1.94143 0.842971 1.94197C0.888831 1.94651 0.924539 1.92144 0.965434 1.92701C0.968768 1.92738 0.972851 1.97152 0.978547 1.97356C0.990359 1.97804 1.00311 1.97297 1.01045 1.95704C1.01408 1.94934 0.999567 1.91375 1.00334 1.90676C1.01223 1.89039 1.02348 1.88475 1.03683 1.88904C1.04253 1.89096 1.04463 1.93667 1.05133 1.93572C1.09668 1.93027 1.14127 1.9277 1.17012 1.86049C1.17209 1.85588 1.15269 1.7663 1.16302 1.78184C1.16959 1.80641 1.17676 1.83545 1.1835 1.86178C1.24855 1.86074 1.30029 1.81439 1.35876 1.79352C1.36123 1.79265 1.36952 1.8407 1.37439 1.83924C1.40255 1.83089 1.43362 1.83631 1.44948 1.78181C1.45106 1.77647 1.42669 1.6946 1.43848 1.70472C1.4406 1.70658 1.45625 1.71403 1.46451 1.73097C1.4657 1.73354 1.47417 1.77256 1.47855 1.77254C1.50378 1.77175 1.52617 1.75593 1.54279 1.72583C1.54547 1.7209 1.52973 1.68125 1.53155 1.67737C1.54443 1.65023 1.57414 1.67524 1.58138 1.63299C1.58636 1.60451 1.56128 1.53538 1.54743 1.46417C1.54548 1.45413 1.55241 1.45041 1.54097 1.40997C1.51224 1.30827 1.47621 1.19824 1.44601 1.08971C1.4395 1.06633 1.45641 1.08861 1.43426 1.034C1.43277 1.03035 1.42036 1.01371 1.41306 0.995119C1.40801 0.982268 1.39816 0.940617 1.39079 0.92443C1.38344 0.908257 1.39081 0.94343 1.38096 0.924757C1.37108 0.905828 1.35914 0.858663 1.34963 0.855434ZM1.01594 0.294668C1.00055 0.333221 1.02851 0.186304 1.0299 0.223079C1.02993 0.225031 1.01672 0.292783 1.01594 0.294668ZM1.80961 0.710327C1.75823 0.752529 1.82124 0.678557 1.86045 0.645572C1.89937 0.612369 1.82505 0.697408 1.80961 0.710327ZM1.84055 0.802389C1.79951 0.835835 1.93581 0.673359 1.91517 0.712028C1.91401 0.714216 1.84291 0.800427 1.84055 0.802389ZM1.51213 1.45302C1.51167 1.45109 1.51646 1.44768 1.51713 1.44954C1.53322 1.49433 1.52361 1.50111 1.51213 1.45302ZM1.86293 0.955375C1.83429 0.958743 1.86369 0.940304 1.89937 0.935762C1.92831 0.932879 1.8988 0.951973 1.86293 0.955375ZM0.620533 0.456247C0.621485 0.458251 0.618721 0.462118 0.612382 0.451248C0.592277 0.415965 0.604746 0.422144 0.620533 0.456247ZM1.88376 1.11727C1.87351 1.09441 1.69787 1.0996 1.72 1.12149C1.724 1.12549 1.77463 1.1065 1.79091 1.11047C1.82059 1.118 1.71177 1.13536 1.77144 1.14046C1.78237 1.14145 1.88474 1.11852 1.884 1.1172C1.88392 1.11722 1.88384 1.11724 1.88376 1.11727ZM0.97641 0.469941C0.975884 0.47185 0.970138 0.472622 0.970388 0.470675C0.976545 0.423496 0.988451 0.421975 0.97641 0.469941ZM0.627083 0.693828C0.631193 0.694819 0.632814 0.708324 0.628906 0.708095C0.551314 0.701042 0.54772 0.674227 0.627083 0.693828ZM1.29322 0.67422C1.28247 0.72111 1.28648 0.728554 1.3116 0.673885C1.30495 0.674838 1.29964 0.673407 1.29322 0.67422Z" fill="black"/>
</svg>
