<svg width="7" height="8" viewBox="0 0 7 8" fill="none" xmlns="http://www.w3.org/2000/svg">
<path d="M1.53534 6.14572C1.62263 6.13263 1.73684 6.14637 1.82377 6.16527C1.85104 6.17113 1.83731 6.19766 1.85613 6.2029C1.89293 6.21311 1.9269 6.2 1.96346 6.21215C1.97553 6.21631 1.96067 6.25834 1.97332 6.26174C2.04242 6.28005 2.10821 6.26908 2.17796 6.27766C2.52321 6.31992 2.86279 6.33284 3.21173 6.34596C3.32669 6.35024 3.46707 6.38543 3.5849 6.36554C3.59876 6.36318 3.58946 6.32657 3.59202 6.32346C3.63183 6.27584 3.62022 6.35058 3.64691 6.3597C3.75499 6.39557 3.87304 6.39476 3.97419 6.37546C4.01745 6.36708 3.97056 6.29623 4.01531 6.33499C4.01838 6.3376 4.00994 6.37725 4.0216 6.38079C4.0494 6.3887 4.09819 6.37864 4.11933 6.38018C4.15686 6.38361 4.16549 6.38256 4.20049 6.37972C4.22802 6.38003 4.31456 6.37352 4.27197 6.38803C4.27655 6.38608 4.28008 6.38346 4.28268 6.37973C4.28486 6.376 4.26019 6.34417 4.25954 6.33643C4.2584 6.32915 4.26647 6.32653 4.27791 6.32738C4.28883 6.32897 4.31232 6.35 4.31876 6.35352C4.37649 6.37971 4.32532 6.29946 4.3242 6.29565C4.33258 6.19833 4.40902 6.09275 4.44939 5.96515C4.47953 5.86764 4.50229 5.75406 4.54367 5.66078C4.59235 5.55131 4.65537 5.47025 4.70996 5.36934C4.71127 5.36692 4.71257 5.36449 4.71386 5.36205C4.71947 5.35157 4.67162 5.34019 4.67841 5.32731C4.7503 5.19119 4.83512 5.06255 4.94552 4.95191C4.95665 4.94081 4.98047 4.98003 4.99361 4.97038C5.07319 4.9105 5.22252 4.83795 5.10701 4.6892C5.14912 4.64156 5.19943 4.58398 5.26148 4.56023C5.30149 4.54484 5.31761 4.5995 5.32778 4.55265C5.33013 4.5421 5.29058 4.52935 5.29652 4.51529C5.32149 4.45622 5.37182 4.40884 5.39068 4.34751C5.39443 4.33499 5.36368 4.31712 5.36053 4.31058C5.3356 4.25676 5.43309 4.26672 5.4443 4.2615C5.46432 4.25214 5.48059 4.24166 5.49436 4.23026C5.53372 4.20039 5.54561 4.15953 5.56747 4.11615C5.57408 4.10286 5.52375 4.09812 5.52824 4.08514C5.55172 4.01847 5.57868 3.94842 5.61687 3.87837C5.62549 3.86264 5.66132 3.88736 5.66748 3.88013C5.69405 3.84758 5.62072 3.82399 5.64343 3.79249C5.6481 3.78573 5.68147 3.79604 5.68547 3.79536C5.74832 3.78371 5.6678 3.7507 5.6668 3.74502C5.65233 3.67148 5.7454 3.63619 5.73972 3.56311C5.73891 3.55448 5.6935 3.56958 5.69386 3.54567C5.69547 3.40709 5.70847 3.26092 5.73571 3.11806C5.73971 3.1024 5.7432 3.08612 5.7462 3.06931C5.74952 3.04906 5.78373 3.05937 5.78767 3.05788C5.84817 3.02746 5.76112 3.02432 5.75692 3.01924C5.72533 2.97356 5.77444 2.89758 5.66568 2.89846C5.62404 2.72644 5.48972 2.57496 5.38911 2.4041C5.35934 2.35141 5.326 2.29656 5.29155 2.23458C5.28982 2.23167 5.32178 2.20395 5.31808 2.19819C5.27189 2.12848 5.2408 2.18826 5.15415 2.22277C5.13298 2.2319 5.15605 2.13093 5.15652 2.12287C5.16016 2.09403 5.20624 2.0499 5.20535 2.04325C5.19493 1.98899 5.08786 2.165 5.04848 2.14069C5.04738 2.13961 5.07255 2.11054 5.07108 2.10522C5.06637 2.08845 5.04803 2.09504 5.04396 2.07751C5.03489 2.03727 5.07405 1.94413 5.00647 1.97375C4.99793 1.97781 4.94974 2.08434 4.91449 2.05967C4.90041 2.04945 4.83085 2.01736 4.81436 2.00156C4.79797 1.98557 4.82729 1.95767 4.82661 1.95555C4.79339 1.88542 4.82254 1.87616 4.8243 1.79615C4.82561 1.71645 4.76327 1.88053 4.74435 1.89364C4.72526 1.90658 4.70127 1.8519 4.69628 1.83447C4.69171 1.81714 4.71332 1.80012 4.70743 1.78896C4.66701 1.71556 4.64846 1.85895 4.61889 1.87707C4.5495 1.92045 4.56026 1.78558 4.52128 1.75775C4.51074 1.75025 4.51017 1.78155 4.49881 1.78037C4.45464 1.77566 4.44313 1.72861 4.38394 1.74774C4.37666 1.75012 4.33896 1.78605 4.31822 1.77595C4.31173 1.77278 4.30698 1.76497 4.30535 1.74991C4.3044 1.74093 4.3243 1.71329 4.30881 1.70071C4.28562 1.6818 4.24031 1.66076 4.20879 1.66321C4.18536 1.66498 4.19528 1.72311 4.17329 1.69985C4.16347 1.68951 4.1936 1.66533 4.17425 1.64839C4.15472 1.63128 4.09853 1.61861 4.07575 1.61457C4.0536 1.61059 4.05661 1.65284 4.05421 1.65508C4.04006 1.66779 3.99524 1.67807 3.99175 1.67737C3.81136 1.645 3.64464 1.55814 3.45952 1.57858C3.44517 1.58016 3.4544 1.62294 3.45221 1.62362C3.40397 1.64137 3.44249 1.52788 3.40726 1.49005C3.41309 1.57667 3.39219 1.56098 3.35765 1.5714C3.34107 1.57653 3.35123 1.6098 3.34979 1.61328C3.32725 1.66494 3.30824 1.6 3.30286 1.58677C3.28378 1.53809 3.26901 1.59757 3.25586 1.56525C3.24238 1.53322 3.26557 1.48284 3.23136 1.48579C3.2242 1.5174 3.25448 1.59646 3.23052 1.61137C3.14127 1.66639 2.96105 1.62846 2.88348 1.63854C2.80742 1.64736 2.78434 1.65918 2.73856 1.65894C2.65501 1.65962 2.69883 1.71045 2.65927 1.75006C2.61954 1.79025 2.60054 1.64178 2.58455 1.61331C2.56841 1.58495 2.57015 1.61859 2.55638 1.60453C2.54255 1.5905 2.55517 1.564 2.53261 1.56407C2.51008 1.56402 2.47083 1.63636 2.47488 1.67021C2.4826 1.74203 2.53056 1.80359 2.47096 1.79679C2.46746 1.79639 2.46426 1.75627 2.45149 1.7566C2.35106 1.76027 2.25649 1.79611 2.15672 1.8112C2.14306 1.81319 2.13645 1.76879 2.12826 1.76953C2.04146 1.77811 2.09854 1.83257 2.09277 1.92454C2.05637 1.82255 2.00521 1.77326 1.94853 1.80001C1.91406 1.81635 1.94079 1.85576 1.93414 1.8961C1.93255 1.90805 1.89372 1.89133 1.89954 1.91322C1.91811 1.98502 1.97677 2.04603 1.90604 2.04591C1.90284 2.04582 1.89272 2.00646 1.88297 2.00876C1.82061 2.02321 1.84894 2.09395 1.7933 2.13349C1.75264 2.16243 1.65641 2.16762 1.5947 2.18535C1.59107 2.18634 1.58757 2.18741 1.58423 2.18855C1.532 2.07901 1.49263 2.12966 1.51072 2.21449C1.47481 2.22906 1.43996 2.25276 1.40132 2.26029C1.38803 2.26292 1.37899 2.22794 1.37576 2.22536C1.32545 2.18478 1.3489 2.26456 1.34303 2.27135C1.27729 2.34207 1.18238 2.324 1.13323 2.41888C1.13156 2.42224 1.16677 2.49897 1.11684 2.45591C1.11348 2.4529 1.12123 2.40533 1.08306 2.42232C1.04467 2.43941 0.954891 2.43548 0.918817 2.49582C0.91043 2.51028 0.904555 2.58855 0.854868 2.55144C0.848351 2.54631 0.84298 2.52237 0.832608 2.51213C0.830152 2.50971 0.828021 2.50792 0.826157 2.50665C0.801438 2.49124 0.807234 2.56108 0.769233 2.49942C0.720053 2.42415 0.772009 2.39328 0.712225 2.39686C0.711206 2.39802 0.644703 2.41832 0.638225 2.39915C0.627967 2.36897 0.633134 2.32644 0.628236 2.29623C0.625931 2.28221 0.585772 2.29711 0.584651 2.29475C0.548114 2.19434 0.585848 2.12189 0.603239 2.01747C0.606545 1.99871 0.550875 1.94147 0.597443 1.9057C0.648416 1.86682 0.852258 1.91664 0.807122 1.82191C0.789096 1.78339 0.530529 1.7248 0.668097 1.66216C0.637894 1.53048 0.714588 1.40436 0.641237 1.2706C0.637822 1.26448 0.56261 1.26341 0.560261 1.25382C0.559832 1.25194 0.55983 1.25007 0.560151 1.24818C0.561962 1.22646 0.585373 1.20963 0.583931 1.19651C0.577781 1.13392 0.533376 1.08823 0.519026 1.03083C0.513401 1.00892 0.549329 1.00517 0.54231 0.978788C0.535164 0.952429 0.485551 0.951221 0.493902 0.909315C0.500316 0.877621 0.578846 0.817575 0.575228 0.77835C0.487754 0.81136 0.480297 0.786952 0.440435 0.754833C0.432726 0.748678 0.40616 0.769604 0.400966 0.767343C0.379177 0.758462 0.398248 0.734141 0.375327 0.726727C0.369818 0.724939 0.340337 0.737175 0.334178 0.736432C0.280712 0.73055 0.329622 0.662736 0.338013 0.650739C0.370051 0.605397 0.326527 0.60961 0.334755 0.58203C0.342864 0.554244 0.377675 0.575023 0.377498 0.546713C0.377047 0.487976 0.343763 0.427371 0.322207 0.377262C0.313404 0.357299 0.280982 0.388699 0.278825 0.386256C0.250238 0.350193 0.271972 0.289696 0.184617 0.303305C0.324501 0.21155 0.235809 0.249668 0.189106 0.240654C0.173889 0.237346 0.163504 0.229893 0.166503 0.211449C0.167638 0.205733 0.257399 0.152919 0.280394 0.16545C0.289882 0.1706 0.292659 0.181069 0.29487 0.192471C0.297289 0.206438 0.299497 0.223584 0.318764 0.231994C0.326569 0.235493 0.430107 0.227314 0.437636 0.229533C0.495978 0.245689 0.357762 0.3163 0.35089 0.32171C0.277336 0.381509 0.391203 0.378271 0.402759 0.386132C0.455509 0.421569 0.454669 0.472664 0.494804 0.504669C0.52082 0.52558 0.615078 0.487612 0.621726 0.510542C0.644172 0.587954 0.523882 0.66718 0.665893 0.68989C0.696216 0.69508 0.793355 0.63857 0.733956 0.725659C0.730287 0.731282 0.671508 0.800375 0.727502 0.805952C0.734584 0.806694 0.764846 0.79524 0.768877 0.798258C0.795271 0.818725 0.77755 0.845327 0.799564 0.870561C0.821556 0.895776 0.851219 0.925885 0.85185 0.963853C0.85234 0.986792 0.802886 1.03116 0.791645 1.04511C0.759172 1.08468 0.834649 1.09551 0.789747 1.12662C0.744398 1.15721 0.659882 1.14521 0.639077 1.19712C0.720822 1.17745 0.805325 1.15957 0.887915 1.14129C0.88937 1.14764 0.890714 1.15402 0.89196 1.16041L0.883301 1.13196C0.932472 1.30888 0.897457 1.39573 0.90472 1.4996C0.905273 1.51289 0.950471 1.49921 0.9522 1.51366C0.959165 1.57359 0.925493 1.62334 0.93625 1.68158C0.944723 1.72678 0.99042 1.77728 1.00055 1.82292C0.90327 1.84649 0.933099 1.91413 0.922949 1.96027C0.919433 1.97636 0.893786 1.97472 0.885104 1.98611C0.853097 2.029 0.938587 2.0102 0.951719 2.02217C1.00816 2.07223 0.815458 2.07506 0.821261 2.13412C0.82145 2.13791 0.92521 2.16969 0.931906 2.17324C0.975108 2.19907 0.896484 2.18012 0.890095 2.19846C0.878656 2.23154 0.85716 2.25914 0.892048 2.27937C0.902635 2.28687 0.966992 2.27651 0.917505 2.28589C0.911163 2.28762 0.880842 2.3028 0.878842 2.30322C0.84324 2.31095 0.92253 2.21912 0.852024 2.14388C0.744001 2.06563 0.680346 2.17503 0.699215 2.19005C0.711913 2.24386 0.711891 2.21023 0.718163 2.21445C0.737455 2.26376 0.724235 2.26927 0.728662 2.27015C0.732371 2.2691 0.736265 2.26795 0.740281 2.2673C0.783938 2.36234 0.812629 2.34267 0.76341 2.26282C0.758052 2.25412 0.74618 2.27001 0.740281 2.2673C0.717484 2.16564 0.738484 2.14174 0.817593 2.20945C0.854663 2.24108 0.861691 2.29639 0.906641 2.25191C0.927213 2.23153 0.884454 2.17271 0.896683 2.14417C0.924238 2.07921 1.02004 2.10356 1.0668 2.06605C1.08371 2.05248 1.04661 2.02785 1.05754 2.01737C1.0865 1.98944 1.13087 1.99889 1.15846 1.96676C1.16094 1.9638 1.13361 1.93174 1.14422 1.9254C1.2246 1.87663 1.31003 1.86085 1.40273 1.81591C1.40567 1.81449 1.40871 1.81291 1.41185 1.8112C1.44773 1.79124 1.50286 1.74038 1.54495 1.72308C1.62166 1.69138 1.7429 1.69566 1.80283 1.64969C1.84137 1.62015 1.81406 1.58776 1.82067 1.55325C1.83353 1.48628 1.9417 1.54332 1.95608 1.55343C1.95649 1.55376 1.92275 1.58016 1.95187 1.58995C1.98202 1.62455 1.9557 1.55382 1.95608 1.55343C1.96572 1.55955 2.04678 1.53338 2.05906 1.5197C2.06577 1.5121 2.04556 1.4783 2.0494 1.475C2.14069 1.39756 2.24756 1.34538 2.36619 1.32491C2.36842 1.325 2.37933 1.3674 2.38435 1.36711C2.45533 1.36401 2.48013 1.30066 2.52719 1.25421C2.57346 1.20813 2.62254 1.20666 2.67253 1.2717C2.71232 1.25222 2.77947 1.2715 2.81781 1.2845C2.85621 1.29742 2.84509 1.21317 2.84797 1.21089C2.93536 1.1404 3.00131 1.17981 3.10275 1.17639C3.15166 1.1747 3.24636 1.15523 3.29942 1.14404C3.34078 1.13487 3.36649 1.15419 3.40523 1.14106C3.4105 1.13931 3.40485 1.1015 3.40645 1.10003C3.44971 1.05452 3.42899 1.14721 3.43779 1.16371C3.46952 1.22397 3.48769 1.25599 3.54222 1.22951C3.55427 1.22342 3.59693 1.09189 3.62161 1.08558C3.65305 1.07761 3.63855 1.12451 3.67107 1.11524C3.67384 1.11451 3.67545 1.08503 3.69504 1.08791C3.78658 1.10095 3.88388 1.1304 3.97728 1.14338C3.9901 1.14528 3.98154 1.09637 4.0004 1.09844C4.08981 1.10834 4.18525 1.13096 4.26233 1.17349C4.28132 1.18411 4.26029 1.21248 4.26224 1.22302C4.27381 1.28674 4.33418 1.2149 4.34133 1.21527C4.39745 1.2162 4.44562 1.2313 4.49135 1.25136C4.56962 1.28643 4.63827 1.33575 4.7388 1.34816C4.74693 1.34883 4.84065 1.28676 4.83837 1.37058C4.83849 1.37625 4.83432 1.46115 4.87829 1.41992C4.88109 1.41736 4.88028 1.37221 4.90766 1.38817C4.93458 1.40394 4.99245 1.39873 5.01362 1.45826C5.0203 1.47702 5.01549 1.56286 5.07985 1.52292C5.08348 1.51958 5.20669 1.41911 5.1824 1.51892C5.17832 1.53536 5.12642 1.62693 5.19523 1.60222C5.20869 1.59755 5.20428 1.56844 5.23381 1.56768C5.27922 1.56652 5.31082 1.61687 5.37797 1.60293C5.38942 1.60013 5.46073 1.56007 5.45705 1.62273C5.45644 1.63252 5.42947 1.65691 5.44083 1.66914C5.49375 1.72688 5.57441 1.75695 5.6222 1.82996C5.63868 1.85554 5.5902 1.88871 5.60201 1.91974C5.61397 1.95076 5.64565 2.00211 5.68634 2.00798C5.72746 2.01427 5.76953 1.92531 5.81013 1.95999C5.83575 1.98233 5.85989 2.00754 5.88196 2.03467C5.97528 2.14592 6.03019 2.29076 6.10625 2.43561C6.11937 2.461 6.13594 2.42404 6.15744 2.46152C6.23762 2.58665 6.39017 2.90617 6.30991 3.1142C6.30842 3.1183 6.30691 3.12215 6.30539 3.12574C6.2511 3.20491 6.21239 3.09555 6.18941 3.16384C6.17811 3.19688 6.28261 3.23705 6.2857 3.24521C6.31712 3.32772 6.26804 3.38326 6.27801 3.45849C6.28005 3.47401 6.32365 3.46154 6.3249 3.47477C6.32946 3.5211 6.30686 3.56719 6.30629 3.61201C6.30612 3.63201 6.33901 3.63104 6.33465 3.64963C6.32462 3.69327 6.30639 3.73158 6.27016 3.77126C6.26687 3.77475 6.23018 3.74305 6.22426 3.7753C6.21458 3.82848 6.17416 3.88887 6.19133 3.95835C6.19643 3.97919 6.26944 3.99595 6.2093 4.02633C6.19656 4.03283 6.11293 3.99927 6.17545 4.06667C6.18662 4.07631 6.26232 4.192 6.18286 4.21366C6.16214 4.2194 6.0836 4.22114 6.08516 4.24844C6.08557 4.25235 6.12806 4.25406 6.12377 4.27535C6.10759 4.35076 6.06739 4.42333 6.03571 4.49952C6.02715 4.52005 6.07996 4.51348 6.06547 4.54403C6.05616 4.56341 6.04479 4.58308 6.03196 4.60232C6.0008 4.64976 5.95858 4.69445 5.92172 4.72869C5.90399 4.74505 5.88561 4.71173 5.88156 4.71095C5.8161 4.69782 5.87332 4.75881 5.87184 4.76903C5.86203 4.83154 5.80592 4.8431 5.78448 4.89009C5.77849 4.90296 5.81599 4.91793 5.81719 4.92222C5.828 4.96545 5.78359 4.90691 5.76665 4.9171C5.71906 4.94543 5.68886 4.99281 5.66386 5.03674C5.65474 5.05289 5.70373 5.06225 5.69519 5.07636C5.64515 5.16062 5.58548 5.24 5.51325 5.30446C5.49957 5.31657 5.47641 5.28815 5.46772 5.28685C5.40691 5.27771 5.45047 5.35076 5.45215 5.36162C5.4591 5.41225 5.42509 5.40825 5.41175 5.44047C5.37773 5.52369 5.32806 5.60942 5.27593 5.69283C5.23555 5.75636 5.19613 5.81903 5.16451 5.87658C5.07565 6.03858 5.01163 6.16091 4.94489 6.39378C4.94015 6.4091 4.98942 6.4089 4.98577 6.42254C4.94923 6.55438 4.83439 6.83151 4.54224 6.96935C4.38665 7.03017 4.39813 7.01253 4.35057 7.02565C4.33445 7.02891 4.36425 7.06936 4.33794 7.07602C4.28215 7.08995 4.22561 7.09216 4.1795 7.08146C4.15764 7.07625 4.18357 7.03646 4.16165 7.03196C4.1095 7.02142 4.05888 7.02114 4.00919 7.03071C3.98776 7.03489 4.02235 7.07832 3.99471 7.08019C3.80961 7.09351 3.6308 7.10619 3.44757 7.05199C3.43504 7.04826 3.42217 6.9569 3.39576 6.97504C3.39427 7.00051 3.39502 7.03041 3.3947 7.0576C3.13281 7.07773 2.8727 7.0492 2.61143 7.04663C2.60035 7.04653 2.61995 7.09491 2.59846 7.09496C2.47512 7.09532 2.35418 7.10959 2.22806 7.06202C2.21546 7.05736 2.22141 6.97193 2.18446 6.98503C2.17804 6.98742 2.12261 6.99908 2.10825 7.01768C2.1063 7.02049 2.11665 7.06031 2.09869 7.06155C1.99445 7.06806 1.88541 7.0593 1.78119 7.03518C1.76445 7.03121 1.78218 6.98872 1.77025 6.98552C1.68555 6.96317 1.59343 6.99556 1.51236 6.95707C1.45823 6.93115 1.47823 6.85776 1.44944 6.78553C1.44537 6.77534 1.41184 6.77374 1.4101 6.73171C1.40564 6.62603 1.42185 6.51031 1.41517 6.39767C1.41377 6.3734 1.36892 6.39954 1.39547 6.3409C1.39733 6.33698 1.42982 6.31752 1.43781 6.29762C1.44337 6.28387 1.43333 6.24113 1.44468 6.22353C1.45603 6.20594 1.46852 6.24176 1.48731 6.22107C1.50611 6.20012 1.49776 6.1515 1.53534 6.14572ZM2.98666 1.34636C3.0234 1.38226 3.00762 1.23346 2.97802 1.2739C2.97662 1.27604 2.98475 1.34462 2.98666 1.34636ZM0.785611 1.39479C0.72186 1.44046 0.818942 1.46566 0.869223 1.43426C0.919235 1.40186 0.804779 1.37962 0.785611 1.39479ZM0.639508 0.977197C0.60485 1.03762 0.809083 0.979985 0.751875 0.943678C0.748599 0.941535 0.641483 0.973609 0.639508 0.977197ZM1.58282 6.76487C1.58241 6.76289 1.5583 6.76098 1.55772 6.76294C1.54493 6.81045 1.59315 6.81424 1.58282 6.76487ZM0.442264 0.616831C0.421611 0.641235 0.468217 0.666047 0.494046 0.63571C0.514789 0.611143 0.467887 0.58622 0.442264 0.616831ZM4.54513 1.68875C4.54483 1.69101 4.56041 1.69886 4.56443 1.68692C4.57739 1.64845 4.55053 1.65082 4.54513 1.68875ZM0.124509 0.000933995C0.186448 0.0927595 0.0625755 0.229863 0.0260805 0.140821C0.0181446 0.123789 0.0942893 0.139945 0.0935896 0.111855C0.0901018 0.057804 -0.0145991 0.103563 0.00170728 0.0307958C0.00451482 0.0171781 0.121219 -0.00481467 0.124813 0.000923345C0.124712 0.000926913 0.12461 0.000930462 0.124509 0.000933995ZM3.02999 1.52156C3.03084 1.52342 3.05474 1.522 3.05507 1.52C3.06178 1.47115 3.01279 1.47407 3.02999 1.52156ZM5.3627 2.24453C5.36098 2.24831 5.39409 2.28786 5.39777 2.2866C5.47508 2.25477 5.4024 2.16821 5.3627 2.24453ZM1.58197 2.18606C1.5803 2.24011 1.55644 2.2585 1.51085 2.21449C1.53496 2.2057 1.55789 2.19464 1.58197 2.18606Z" fill="black"/>
</svg>
