<svg width="5" height="7" viewBox="0 0 5 7" fill="none" xmlns="http://www.w3.org/2000/svg">
<path d="M7.67708e-05 0.229965C0.00256109 0.287613 0.0342741 0.342928 0.0668645 0.382862C0.0770206 0.395366 0.0999517 0.379953 0.107968 0.387775C0.123468 0.402597 0.117108 0.425405 0.134563 0.439575C0.140445 0.444149 0.178061 0.423992 0.183314 0.429081C0.211975 0.457543 0.212585 0.493909 0.23251 0.525943C0.330594 0.683094 0.402184 0.844515 0.478718 1.00847C0.504392 1.0639 0.563526 1.11844 0.567989 1.18222C0.568429 1.18955 0.53223 1.19763 0.5298 1.1999C0.492798 1.23512 0.560786 1.20412 0.574679 1.21402C0.629973 1.25435 0.652923 1.31 0.657333 1.36584C0.659093 1.38959 0.582419 1.39201 0.628793 1.40022C0.631926 1.40077 0.667016 1.38255 0.672965 1.38693C0.686373 1.39687 0.688498 1.42417 0.695028 1.43346C0.70779 1.45126 0.708574 1.4547 0.71563 1.47352C0.725773 1.49964 0.754499 1.52281 0.755798 1.55331C0.75596 1.55984 0.715378 1.56534 0.712222 1.57697C0.709072 1.58859 0.72105 1.61245 0.732956 1.61782C0.74486 1.62316 0.773342 1.60911 0.780688 1.60821C0.842689 1.60068 0.772842 1.65674 0.77218 1.66116C0.762099 1.73983 0.828082 1.78228 0.85012 1.84514C0.86712 1.89393 0.869912 1.94951 0.888206 1.99467C0.910367 2.04904 0.946708 2.0865 0.962069 2.14096C0.963729 2.14668 0.916949 2.15589 0.918888 2.16291C0.939616 2.23772 0.969679 2.30692 1.02541 2.36851C1.031 2.37457 1.06673 2.35146 1.07465 2.35669C1.12221 2.38879 1.22445 2.43208 1.0639 2.51863C1.08107 2.54581 1.10084 2.57954 1.14466 2.59417C1.17288 2.60361 1.20934 2.57159 1.19883 2.59938C1.19651 2.60563 1.15707 2.61267 1.15641 2.62105C1.15381 2.65674 1.17733 2.68437 1.16881 2.72114C1.16698 2.72862 1.13306 2.7389 1.12767 2.74276C1.08422 2.77458 1.17321 2.76993 1.18094 2.77312C1.23892 2.79787 1.23212 2.83283 1.24644 2.86943C1.24979 2.87793 1.20139 2.88382 1.203 2.89258C1.21191 2.9376 1.23219 2.98203 1.26694 3.01635C1.27481 3.02403 1.30986 3.00178 1.31556 3.00475C1.34028 3.01802 1.26985 3.04825 1.2922 3.06156C1.29682 3.0644 1.32864 3.05043 1.33249 3.04987C1.39284 3.04103 1.31669 3.07961 1.31599 3.08318C1.30526 3.12885 1.39731 3.12352 1.39819 3.16294C1.39823 3.16774 1.35349 3.173 1.35612 3.18556C1.3661 3.23391 1.38435 3.28148 1.40998 3.3264C1.42903 3.36005 1.45171 3.39085 1.4782 3.41961C1.48793 3.43031 1.5155 3.40986 1.5196 3.40925C1.58387 3.39996 1.50722 3.43784 1.50575 3.44305C1.49613 3.4832 1.57396 3.48726 1.48773 3.5454C1.57231 3.66813 1.57399 3.82385 1.71496 3.92062C1.71666 3.92189 1.75377 3.90219 1.75698 3.90477C1.79605 3.9355 1.73288 3.95349 1.67192 4.01252C1.65671 4.02756 1.75368 4.00891 1.76088 4.00774C1.78751 4.00364 1.84133 3.97134 1.8469 3.97147C1.89094 3.97311 1.70168 4.05486 1.7128 4.07947C1.71347 4.0801 1.7465 4.06111 1.75089 4.06163C1.76461 4.06319 1.75381 4.07584 1.76856 4.07667C1.80264 4.07845 1.89581 4.04136 1.85286 4.08723C1.84732 4.09323 1.73918 4.13804 1.75461 4.15795C1.76084 4.16587 1.77728 4.20517 1.78924 4.2125C1.8013 4.22011 1.83165 4.19629 1.8335 4.19636C1.89235 4.20369 1.90563 4.18367 1.97884 4.16558C2.0517 4.14733 1.89238 4.22046 1.87767 4.23489C1.86296 4.24921 1.91028 4.25218 1.92562 4.25091C1.94097 4.24967 1.95922 4.23262 1.96872 4.23355C2.03093 4.2398 1.89752 4.28565 1.87765 4.3081C1.83058 4.36106 1.9562 4.3213 1.97828 4.33628C1.98429 4.34042 1.95559 4.34936 1.95577 4.35573C1.95686 4.38078 1.99937 4.37455 1.97864 4.4148C1.97521 4.42127 1.91635 4.47696 1.97347 4.46204C1.98167 4.45982 2.00756 4.43959 2.01859 4.44475C2.03515 4.4525 2.05371 4.47167 2.05197 4.49086C2.0506 4.5049 1.99746 4.51914 2.01909 4.52393C2.02872 4.526 2.05015 4.50032 2.06594 4.50542C2.08162 4.51039 2.09558 4.5379 2.10052 4.54868C2.10538 4.55939 2.06707 4.57395 2.06517 4.57612C2.05447 4.58891 2.04883 4.6182 2.04992 4.61996C2.09706 4.71101 2.20405 4.75439 2.23868 4.84839C2.24147 4.85577 2.20298 4.87493 2.20304 4.8763C2.20286 4.90853 2.28602 4.82848 2.32778 4.82274C2.25414 4.86842 2.27321 4.86885 2.27559 4.88944C2.2767 4.89943 2.24617 4.91414 2.24377 4.91672C2.20908 4.95643 2.26887 4.92732 2.28132 4.92169C2.3272 4.9011 2.28424 4.94193 2.31491 4.92812C2.34534 4.9144 2.37778 4.87563 2.38723 4.89046C2.36454 4.91218 2.29026 4.94721 2.28721 4.96592C2.27551 5.03678 2.38364 5.07813 2.41336 5.10679C2.44314 5.13579 2.44644 5.14954 2.46987 5.16186C2.51204 5.18368 2.45471 5.20766 2.44941 5.24586C2.44422 5.28408 2.55297 5.18289 2.58044 5.16642C2.6046 5.15177 2.58924 5.16821 2.59675 5.16738C2.59775 5.16727 2.59915 5.16686 2.6011 5.16602C2.61768 5.15886 2.62866 5.13782 2.64036 5.14211C2.65189 5.14628 2.62594 5.20398 2.60312 5.22847C2.55442 5.28001 2.48843 5.31658 2.52855 5.32371C2.53087 5.32404 2.55672 5.29443 2.56406 5.29696C2.62123 5.31763 2.65997 5.35573 2.71581 5.37204C2.72345 5.37416 2.74858 5.33838 2.75332 5.3392C2.80252 5.34702 2.74183 5.39023 2.70672 5.46744C2.77381 5.38273 2.82675 5.34177 2.85005 5.36022C2.86441 5.37143 2.8323 5.406 2.82141 5.43977C2.81819 5.45001 2.84875 5.4328 2.83719 5.45183C2.79981 5.51435 2.73976 5.57083 2.78801 5.5665C2.79017 5.56618 2.80973 5.53136 2.81542 5.53256C2.85209 5.53976 2.81169 5.60402 2.83876 5.63322C2.86019 5.65625 2.92946 5.64472 2.96154 5.65425C3.02154 5.5489 3.03255 5.58706 3.00378 5.66653C3.02383 5.67358 3.04213 5.68851 3.06529 5.68731C3.07328 5.68694 3.08506 5.65355 3.08756 5.65057C3.12605 5.60334 3.09762 5.68003 3.10036 5.68493C3.13064 5.73436 3.19211 5.69475 3.20958 5.76834C3.21015 5.77097 3.1789 5.84927 3.21483 5.79784C3.21722 5.79425 3.21876 5.75312 3.23962 5.75897C3.26078 5.76495 3.31527 5.73901 3.32775 5.78638C3.33068 5.79776 3.32168 5.86801 3.3556 5.82412C3.36013 5.81813 3.36728 5.79496 3.37491 5.78355C3.39928 5.74721 3.37188 5.82798 3.40879 5.76487C3.44578 5.7018 3.48589 5.65954 3.49489 5.71682C3.49521 5.71851 3.47691 5.78386 3.48599 5.78631C3.5003 5.79009 3.52511 5.78477 3.5396 5.79095C3.54637 5.79386 3.52663 5.83113 3.52754 5.83231C3.56523 5.87239 3.61245 5.85076 3.66791 5.8552C3.67821 5.85598 3.68347 5.9195 3.71763 5.88446C3.75526 5.84621 3.81153 5.64714 3.83826 5.7106C3.84911 5.73606 3.77469 5.98743 3.85731 5.87503C3.88247 5.90313 3.91463 5.90713 3.94768 5.9132C3.9499 5.91381 3.95523 5.91763 3.95719 5.91884C3.98724 5.93371 4.01603 5.94919 4.02816 5.98889C4.02918 5.99234 3.99293 6.05628 3.99938 6.05987C4.00908 6.06513 4.03404 6.04124 4.0415 6.04394C4.07314 6.05443 4.08029 6.09501 4.10913 6.1084C4.12 6.11347 4.13549 6.08161 4.14814 6.08726C4.16051 6.0927 4.14473 6.13742 4.1725 6.12761C4.19377 6.12013 4.2509 6.04342 4.26996 6.04074C4.22805 6.12422 4.23975 6.12829 4.25021 6.16018C4.25229 6.16638 4.23451 6.19404 4.23485 6.19852C4.23627 6.21755 4.25458 6.19609 4.25538 6.21618C4.25563 6.22102 4.2436 6.25059 4.24324 6.25626C4.24031 6.30595 4.29017 6.24765 4.29747 6.23685C4.3275 6.19696 4.32128 6.23846 4.33827 6.22402C4.35461 6.20931 4.34484 6.18216 4.36044 6.17484C4.38331 6.1638 4.40512 6.16686 4.42578 6.17033C4.43141 6.17082 4.43942 6.17184 4.44695 6.17222C4.45764 6.17292 4.44613 6.21457 4.44756 6.21566C4.46982 6.22876 4.4954 6.18502 4.5035 6.27047C4.53109 6.05216 4.51637 6.29262 4.55216 6.24988C4.55497 6.24641 4.56097 6.14278 4.552 6.12726C4.54313 6.11175 4.52741 6.1436 4.51564 6.11918C4.51256 6.11346 4.50186 6.01536 4.50046 6.00933C4.48747 5.96223 4.47201 6.11644 4.47008 6.12484C4.45027 6.21542 4.43883 6.10878 4.43514 6.10097C4.43425 6.0994 4.43335 6.09794 4.43246 6.09657C4.42345 6.06686 4.40164 6.08096 4.39071 6.05425C4.3833 6.03611 4.41317 5.93895 4.40531 5.93965C4.38083 5.94222 4.31257 6.06738 4.33857 5.94403C4.34444 5.91774 4.39869 5.82087 4.34298 5.89051C4.33994 5.89518 4.28806 5.95811 4.30441 5.90928C4.30655 5.90317 4.32253 5.87504 4.32263 5.87197C4.32314 5.85201 4.30446 5.87091 4.30143 5.85455C4.29852 5.83826 4.29751 5.81574 4.28052 5.81754C4.27045 5.8187 4.22735 5.86219 4.21539 5.87183C4.18106 5.89972 4.2111 5.83545 4.17483 5.87271C4.13787 5.90978 4.10454 5.98281 4.06706 5.99674C4.11638 5.92866 4.16631 5.85827 4.21577 5.78971C4.18341 5.76899 4.13813 5.76159 4.10397 5.73646C4.09031 5.72802 4.05307 5.70131 4.03759 5.69703C4.03265 5.69521 4.02782 5.69314 4.02312 5.69078C4.01748 5.68785 4.04075 5.64858 4.03514 5.64436C4.01141 5.62678 3.97639 5.64725 3.95381 5.62423C3.93677 5.60641 3.9311 5.55254 3.91356 5.53253C3.86466 5.61656 3.84354 5.57298 3.81701 5.57194C3.80775 5.57154 3.79872 5.5956 3.78972 5.60105C3.75601 5.62106 3.79771 5.54614 3.79651 5.53129C3.79142 5.46791 3.71874 5.64607 3.68984 5.6296C3.68826 5.62878 3.7062 5.52563 3.70585 5.51863C3.70364 5.47302 3.68989 5.55071 3.67624 5.55349C3.65132 5.55857 3.62917 5.57618 3.61694 5.53907C3.61343 5.52812 3.62122 5.46246 3.59009 5.5033C3.58599 5.50864 3.57443 5.54053 3.57232 5.54183C3.53522 5.56269 3.5741 5.46351 3.57375 5.42452C3.57317 5.38544 3.52447 5.44507 3.51219 5.46295C3.48029 5.50916 3.51203 5.48817 3.51066 5.49341C3.49392 5.5557 3.48242 5.53917 3.46845 5.53931C3.42727 5.63532 3.41259 5.62254 3.454 5.53902C3.45853 5.5299 3.4642 5.54274 3.46845 5.53931C3.49636 5.44004 3.4839 5.42076 3.4271 5.50083C3.40043 5.53831 3.38896 5.5903 3.3678 5.56059C3.35834 5.54718 3.39138 5.48309 3.38789 5.46027C3.38026 5.40833 3.32094 5.45546 3.29964 5.43399C3.29204 5.42626 3.31747 5.39465 3.31294 5.38817C3.30126 5.37098 3.27414 5.39079 3.26476 5.36938C3.26396 5.3674 3.28551 5.33208 3.2809 5.32923C3.24629 5.30688 3.20326 5.31417 3.16711 5.29433C3.14945 5.28468 3.13188 5.2474 3.11328 5.24065C3.08121 5.22916 3.01167 5.25295 2.99699 5.22277C2.98773 5.20356 3.01697 5.17407 3.02874 5.14746C3.05249 5.09667 2.96968 5.15376 2.95634 5.16202C2.95585 5.16228 2.96171 5.1804 2.94113 5.19046C2.90799 5.22001 2.95631 5.16224 2.95634 5.16202C2.9481 5.16789 2.91742 5.15229 2.91832 5.14203C2.91877 5.13647 2.94734 5.10978 2.94711 5.10746C2.9412 5.053 2.92183 5.01723 2.87983 4.99513C2.87873 4.99505 2.84581 5.02378 2.84363 5.02319C2.82586 5.01886 2.82779 5.00166 2.83527 4.9813C2.84022 4.96447 2.84832 4.94564 2.85257 4.92851C2.86226 4.88919 2.84219 4.88037 2.77335 4.91368C2.76951 4.893 2.72658 4.89098 2.70114 4.8904C2.6756 4.88972 2.74277 4.83751 2.74332 4.83543C2.76155 4.76935 2.70814 4.77849 2.67641 4.74661C2.66136 4.7318 2.64786 4.69056 2.64302 4.66676C2.63918 4.64772 2.61677 4.65007 2.61828 4.62932C2.61848 4.62654 2.65126 4.60747 2.6521 4.6061C2.67985 4.56598 2.60746 4.62427 2.59157 4.6302C2.53372 4.65164 2.50223 4.66205 2.51294 4.62655C2.51531 4.61829 2.61887 4.53295 2.62036 4.52077C2.62195 4.50484 2.58417 4.53445 2.58681 4.51698C2.58701 4.5155 2.61206 4.5 2.60659 4.49374C2.58174 4.46478 2.54548 4.43834 2.52764 4.40249C2.52516 4.39773 2.56885 4.37977 2.56595 4.37255C2.55221 4.3385 2.5309 4.30499 2.49428 4.28448C2.48519 4.27958 2.45932 4.30036 2.44992 4.30346C2.39284 4.32189 2.45925 4.26551 2.45938 4.26237C2.4639 4.1856 2.37169 4.17678 2.37368 4.09992C2.37382 4.09546 2.44288 4.02921 2.36713 4.05333C2.3621 4.05496 2.28458 4.07961 2.32878 4.04509C2.33156 4.04295 2.37208 4.03156 2.36223 4.02119C2.3523 4.01062 2.36778 3.97947 2.31865 3.9823C2.30323 3.98332 2.2246 4.00485 2.27468 3.96145C2.27814 3.95836 2.39708 3.87205 2.30276 3.90569C2.28726 3.91126 2.19243 3.95755 2.23232 3.91516C2.24012 3.90708 2.26452 3.90374 2.27337 3.88795C2.28708 3.86375 2.25231 3.85582 2.28662 3.81778C2.29268 3.81101 2.35191 3.7683 2.2975 3.77982C2.28897 3.78161 2.25832 3.79932 2.25213 3.79517C2.22245 3.77525 2.23127 3.73698 2.19665 3.71849C2.18443 3.71185 2.13445 3.73971 2.11585 3.73514C2.09715 3.73036 2.07472 3.71531 2.0939 3.69393C2.11314 3.67268 2.20175 3.6492 2.20146 3.62993C2.20047 3.54678 2.12215 3.49567 2.08633 3.426C2.08101 3.41565 2.11474 3.41271 2.10908 3.39659C2.08827 3.33723 2.07858 3.22551 1.99494 3.19761C1.92796 3.17546 1.90751 3.24192 1.87479 3.21796C1.85908 3.20623 1.95216 3.15346 1.95394 3.14863C1.9568 3.14124 1.95796 3.13475 1.95787 3.12892C1.9571 3.0962 1.91913 3.08388 1.92032 3.0514C1.92063 3.04346 1.9633 3.03577 1.96311 3.02918C1.96284 3.00654 1.93731 2.99194 1.93372 2.97167C1.93221 2.96255 1.9635 2.95307 1.9583 2.94606C1.94629 2.92937 1.92712 2.91664 1.89166 2.90847C1.88842 2.90771 1.85431 2.93291 1.84781 2.91928C1.83739 2.8972 1.79882 2.87915 1.81881 2.84257C1.82486 2.83167 1.89499 2.80613 1.84053 2.80699C1.82915 2.80716 1.74639 2.84187 1.81236 2.79644C1.82338 2.78905 1.90976 2.72057 1.84064 2.72727C1.82243 2.729 1.74952 2.74293 1.75701 2.72968C1.75828 2.72779 1.79784 2.71934 1.79874 2.71027C1.80126 2.67854 1.78703 2.65153 1.78892 2.61957C1.7895 2.61102 1.8325 2.60804 1.83211 2.59574C1.83089 2.56124 1.80715 2.52627 1.78422 2.50076C1.7757 2.49137 1.74607 2.51057 1.74226 2.51103C1.68038 2.51863 1.75496 2.48337 1.75794 2.47749C1.77548 2.44141 1.7319 2.43409 1.73261 2.40575C1.73272 2.39799 1.77132 2.38967 1.77412 2.38713C1.80119 2.36155 1.73875 2.39571 1.72826 2.3894C1.69867 2.37179 1.69174 2.34305 1.68755 2.31642C1.68606 2.30662 1.73248 2.30165 1.73066 2.29304C1.72069 2.24185 1.69799 2.19112 1.65758 2.15225C1.64988 2.14492 1.61896 2.16227 1.61078 2.16308C1.55359 2.16898 1.61869 2.12469 1.6239 2.11769C1.64796 2.08648 1.61608 2.08908 1.61525 2.06952C1.61197 1.97461 1.55498 1.87525 1.51447 1.79871C1.46176 1.69858 1.40156 1.62797 1.37425 1.5244C1.37246 1.5178 1.41861 1.50885 1.41763 1.50296C1.4033 1.42848 1.36118 1.36338 1.34932 1.28886C1.34826 1.28276 1.3928 1.27658 1.39246 1.26617C1.39192 1.24432 1.38105 1.22052 1.36098 1.20574C1.35127 1.1985 1.32 1.22369 1.31096 1.21615C1.28974 1.19841 1.27892 1.17694 1.2773 1.15085C1.27679 1.13996 1.32455 1.14 1.32057 1.12702C1.29467 1.03911 1.27304 0.953157 1.18748 0.88427C1.18164 0.879618 1.09321 0.90427 1.10548 0.88596C1.1292 0.876721 1.15749 0.867017 1.18304 0.857741C1.15361 0.727513 1.08112 0.613837 1.03421 0.490053C1.03226 0.484884 1.0813 0.478406 1.07777 0.468345C1.05731 0.409851 1.0505 0.34706 0.985261 0.303345C0.978858 0.298997 0.898664 0.328539 0.904995 0.306457C0.906147 0.302428 0.908249 0.27229 0.923747 0.260009C0.926113 0.258243 0.965531 0.250533 0.963939 0.241916C0.953191 0.189464 0.928416 0.142205 0.889892 0.10047C0.883659 0.0939281 0.845685 0.114772 0.840895 0.110223C0.807144 0.0775467 0.825192 0.0257401 0.779382 0.00391568C0.748955 -0.00963852 0.679811 0.0158819 0.607088 0.0225335C0.59655 0.0224565 0.592924 0.0129176 0.551716 0.0207487C0.446993 0.0354287 0.334845 0.0656971 0.223229 0.0814747C0.198983 0.104803 0.216148 -0.0337366 0.162221 0.0539355C0.159195 0.0705928 0.147485 0.113041 0.12962 0.123199C0.117452 0.131811 0.07338 0.130652 0.0589166 0.146511C0.0440583 0.16034 0.0808892 0.160261 0.0644851 0.179445C0.0479984 0.199071 -0.00103378 0.204155 7.67708e-05 0.229965ZM2.58649 4.88592C2.54464 4.89768 2.66493 4.80879 2.64509 4.84248C2.64399 4.84422 2.58856 4.88537 2.58649 4.88592ZM4.05726 5.84799C4.0009 5.88747 4.05132 5.80353 4.0937 5.77222C4.13583 5.74076 4.0742 5.83591 4.05726 5.84799ZM4.18562 6.00152C4.13866 6.03302 4.25424 5.85516 4.24768 5.9021C4.24731 5.90475 4.18829 5.99965 4.18562 6.00152ZM0.603015 0.0865935C0.600997 0.0867794 0.596234 0.0771712 0.597909 0.0758403C0.641987 0.0572243 0.651752 0.0774336 0.603015 0.0865935ZM4.32847 6.13208C4.31225 6.15685 4.30559 6.1188 4.32623 6.08852C4.34211 6.06396 4.34773 6.10104 4.32847 6.13208ZM2.04342 4.30333C2.04133 4.30414 2.03552 4.29725 2.0468 4.29164C2.08314 4.27359 2.07853 4.28961 2.04342 4.30333ZM4.65444 6.17147C4.60391 6.17936 4.56911 6.35399 4.6271 6.33477C4.63744 6.33126 4.60517 6.27876 4.61844 6.26306C4.64234 6.23445 4.65806 6.34443 4.6823 6.28549C4.68666 6.27471 4.65731 6.17063 4.65435 6.17122C4.65438 6.17131 4.65441 6.17139 4.65444 6.17147ZM2.43563 4.98381C2.43383 4.9847 2.42518 4.97585 2.42662 4.97448C2.46141 4.94153 2.47873 4.95917 2.43563 4.98381ZM1.73933 3.87391C1.73519 3.875 1.72034 3.8503 1.72355 3.84788C1.78918 3.8039 1.8192 3.85326 1.73933 3.87391ZM2.9636 5.6517C2.95207 5.70015 2.96511 5.71385 3.00369 5.66656C2.98984 5.66263 2.97728 5.65615 2.9636 5.6517Z" fill="black"/>
</svg>
