<svg width="8" height="6" viewBox="0 0 8 6" fill="none" xmlns="http://www.w3.org/2000/svg">
<path d="M6.73457 1.59659C6.66982 1.64256 6.60644 1.72467 6.56398 1.79307C6.55064 1.81444 6.57805 1.82469 6.56965 1.84031C6.55313 1.87092 6.52209 1.88307 6.50719 1.91473C6.50234 1.92531 6.54132 1.94596 6.53557 1.95636C6.50383 2.01317 6.45403 2.04657 6.41475 2.09687C6.22137 2.34417 6.00937 2.56721 5.79059 2.78542C5.71909 2.8564 5.64624 2.96881 5.56635 3.00492C5.5579 3.00839 5.54132 2.97503 5.53824 2.97347C5.51609 2.96246 5.51726 2.96691 5.52194 2.97821C5.52571 2.99217 5.53658 3.01342 5.52989 3.02373C5.48027 3.10023 5.38996 3.14878 5.30235 3.17311C5.26484 3.18345 5.26974 3.10083 5.25138 3.15423C5.25007 3.15786 5.27503 3.18954 5.26713 3.19768C5.24896 3.21618 5.20391 3.22845 5.18753 3.23902C5.15638 3.25943 5.1505 3.26156 5.11858 3.276C5.07493 3.2961 5.0299 3.33701 4.97854 3.35011C4.96747 3.35282 4.96464 3.31018 4.9457 3.31113C4.92668 3.31211 4.8846 3.3347 4.874 3.3499C4.86337 3.3651 4.88257 3.39102 4.88299 3.39877C4.88695 3.4639 4.80231 3.40985 4.79489 3.41102C4.72154 3.42323 4.66408 3.45734 4.60944 3.49442C4.56342 3.52524 4.51989 3.55854 4.47069 3.58567C4.38654 3.63184 4.29011 3.67263 4.21502 3.72667C4.12578 3.79118 4.06497 3.86507 3.98181 3.93028C3.97304 3.93725 3.95258 3.89275 3.94172 3.9013C3.82595 3.99253 3.72514 4.10001 3.65331 4.22356C3.64608 4.23601 3.68863 4.25114 3.6833 4.2652C3.67481 4.2873 3.66633 4.31435 3.65607 4.34006C3.64161 4.39806 3.5782 4.45637 3.47894 4.36247C3.44394 4.39512 3.39556 4.43281 3.37249 4.48738C3.35747 4.52255 3.40529 4.54768 3.36259 4.54915C3.35313 4.5494 3.3439 4.50947 3.33123 4.5124C3.27733 4.52507 3.23107 4.56271 3.17376 4.56747C3.16217 4.5683 3.14963 4.53506 3.14414 4.53061C3.09901 4.49495 3.0965 4.59001 3.09004 4.5997C3.04353 4.67146 2.98679 4.67591 2.92473 4.70264C2.91027 4.70886 2.90942 4.65784 2.895 4.66217C2.82028 4.68526 2.74659 4.71794 2.68166 4.76403C2.66723 4.7744 2.69585 4.80709 2.68963 4.814C2.6618 4.84402 2.62859 4.77462 2.60152 4.80163C2.59575 4.80723 2.61105 4.83862 2.61104 4.84266C2.61082 4.90605 2.5659 4.83188 2.56031 4.83181C2.48807 4.82938 2.47443 4.92685 2.40729 4.93474C2.39932 4.93556 2.40314 4.88843 2.38162 4.89325C2.26084 4.91999 2.13903 4.96113 2.02484 5.01178C2.01104 5.01957 1.9942 5.02729 1.9762 5.03466C1.95835 5.04167 1.97408 5.07336 1.97344 5.07751C1.95717 5.14256 1.938 5.05797 1.93226 5.05492C1.88308 5.03327 1.82528 5.10009 1.80055 4.99524C1.73935 4.99793 1.67675 4.98878 1.61855 4.97371C1.48551 4.93896 1.38307 4.84192 1.22999 4.75102C1.22735 4.74932 1.19747 4.77918 1.19226 4.77556C1.12959 4.73111 1.1901 4.70247 1.23116 4.62108C1.24183 4.60114 1.1417 4.6226 1.13381 4.62306C1.10544 4.62651 1.05883 4.6697 1.05242 4.66888C1.00056 4.65949 1.18024 4.55866 1.15929 4.52187C1.15831 4.52085 1.12812 4.54452 1.12302 4.54318C1.10705 4.53899 1.11461 4.52154 1.0978 4.518C1.05913 4.51004 0.965404 4.54735 0.998626 4.4842C1.00309 4.47618 1.11068 4.43029 1.08832 4.3975C1.0792 4.38462 1.05118 4.32034 1.0363 4.30529C1.02128 4.29033 0.992465 4.31813 0.990407 4.31754C0.922863 4.28826 0.912332 4.3153 0.833549 4.3191C0.754905 4.32219 0.919179 4.26053 0.932844 4.24267C0.946446 4.22488 0.893159 4.20379 0.876164 4.19989C0.859169 4.19611 0.841712 4.21667 0.830864 4.21151C0.75968 4.17663 0.901834 4.15501 0.920499 4.12689C0.965063 4.06091 0.831369 4.07567 0.804421 4.04096C0.797177 4.03166 0.828109 4.02967 0.827121 4.01933C0.822767 3.97824 0.776421 3.97024 0.795234 3.91449C0.798331 3.90549 0.858588 3.84351 0.796543 3.84128C0.787619 3.84103 0.760621 3.86131 0.747877 3.84792C0.72867 3.82761 0.706014 3.7873 0.706277 3.75745C0.706568 3.73562 0.764725 3.73844 0.740147 3.72043C0.72919 3.71247 0.707518 3.74326 0.689334 3.7273C0.671126 3.71117 0.652764 3.66008 0.646014 3.64037C0.639422 3.62088 0.681168 3.61627 0.683088 3.61372C0.693881 3.5985 0.696479 3.55325 0.695067 3.5501C0.687446 3.53021 0.678497 3.51026 0.669075 3.49169C0.60699 3.3715 0.523306 3.24552 0.518156 3.09752C0.517681 3.08438 0.561229 3.0859 0.56159 3.08383C0.572152 3.0374 0.465639 3.08999 0.423184 3.06434C0.509527 3.05572 0.491118 3.03999 0.496207 3.00719C0.498755 2.99138 0.533127 2.99521 0.53634 2.99336C0.583885 2.96453 0.516826 2.95787 0.502945 2.95526C0.451972 2.94623 0.508262 2.9232 0.474264 2.91663C0.4405 2.90984 0.394589 2.93885 0.391958 2.9079C0.421931 2.89622 0.504831 2.91024 0.515573 2.88616C0.555608 2.79627 0.483543 2.63993 0.475816 2.56876C0.467633 2.49864 0.473455 2.47594 0.462198 2.43488C0.44228 2.36057 0.502297 2.38814 0.530476 2.34305C0.558895 2.29801 0.410579 2.31681 0.378917 2.30946C0.347292 2.30208 0.380184 2.29564 0.362938 2.28695C0.3457 2.27823 0.323588 2.29553 0.317574 2.27589C0.311516 2.25608 0.370007 2.20488 0.403559 2.19965C0.474578 2.18828 0.547332 2.21493 0.523703 2.16377C0.522304 2.16081 0.482993 2.16831 0.479606 2.15704C0.454011 2.06754 0.45863 1.97576 0.440377 1.88499C0.437807 1.87254 0.393715 1.8794 0.391738 1.87207C0.371311 1.79511 0.441459 1.82846 0.526189 1.79728C0.417999 1.795 0.35458 1.76518 0.360581 1.70858C0.364224 1.67458 0.410342 1.68587 0.446 1.66833C0.45674 1.66308 0.427728 1.6353 0.450267 1.63396C0.523979 1.62938 0.601241 1.66201 0.577067 1.60139C0.575897 1.59871 0.53553 1.60103 0.534361 1.59215C0.526845 1.53426 0.602657 1.53926 0.621348 1.48149C0.635812 1.43721 0.605427 1.3465 0.609214 1.29269C0.490185 1.26908 0.528314 1.22368 0.614525 1.22255C0.615537 1.2147 0.617007 1.2069 0.618628 1.19919C0.623409 1.17599 0.631337 1.15366 0.631313 1.12942C0.631386 1.11859 0.596389 1.11156 0.593331 1.10899C0.546653 1.06574 0.627719 1.08504 0.633163 1.0812C0.691786 1.03242 0.680749 0.94525 0.775532 0.93114C0.7791 0.930542 0.842412 0.985949 0.811246 0.929833C0.809268 0.925825 0.764642 0.916471 0.786949 0.889682C0.808507 0.863425 0.830109 0.783433 0.894387 0.782297C0.909966 0.78179 0.975227 0.817466 0.962481 0.760238C0.960735 0.752471 0.943319 0.735337 0.939078 0.721708C0.926031 0.67796 0.983379 0.74144 0.955543 0.672223C0.927831 0.60292 0.92942 0.535053 1.00152 0.546086C1.00376 0.546308 1.05221 0.594888 1.06515 0.584798C1.08592 0.568521 1.10901 0.536068 1.13217 0.521109C1.14323 0.514001 1.15953 0.553514 1.16185 0.552883C1.21285 0.535445 1.245 0.505279 1.27689 0.469642L1.26442 0.475047C1.29369 0.46009 1.32415 0.443111 1.36094 0.429107C1.37759 0.422662 1.43622 0.469848 1.46145 0.41988C1.48981 0.365176 1.41848 0.16784 1.51393 0.202916C1.55327 0.216981 1.6297 0.469846 1.67422 0.328472C1.79691 0.347897 1.90125 0.269815 2.02472 0.308189C2.03025 0.309884 2.05285 0.381199 2.06537 0.379243C2.08397 0.376194 2.09165 0.34146 2.10486 0.338195C2.13661 0.329848 2.16778 0.334569 2.19879 0.338379C2.22056 0.342287 2.24348 0.345792 2.26629 0.343282C2.28681 0.341127 2.27869 0.306101 2.30329 0.30358C2.32783 0.301116 2.34516 0.347137 2.37787 0.324195C2.40253 0.30672 2.42652 0.211602 2.45983 0.200146C2.46228 0.29359 2.48519 0.291364 2.5261 0.315637C2.53398 0.320348 2.52589 0.352958 2.52963 0.356864C2.54502 0.373483 2.55837 0.346403 2.57298 0.364534C2.57652 0.368888 2.57692 0.400805 2.57978 0.406167C2.60414 0.452972 2.64344 0.380914 2.65021 0.368374C2.67604 0.32074 2.68857 0.362189 2.70858 0.343393C2.72865 0.324602 2.69842 0.301379 2.72185 0.289923C2.77037 0.266229 2.83287 0.271183 2.88226 0.269608C2.90197 0.269177 2.88861 0.311812 2.89144 0.31274C2.93217 0.323458 2.97334 0.278081 2.99601 0.362924C3.02401 0.143456 3.02058 0.384176 3.07875 0.340208C3.08333 0.336652 3.08909 0.232878 3.07149 0.217654C3.05384 0.202446 3.02723 0.234904 3.00269 0.211183C2.99693 0.205615 2.96359 0.108418 2.95905 0.102536C2.92352 0.0565546 2.91872 0.21164 2.91688 0.22016C2.89582 0.312112 2.85507 0.207452 2.84434 0.200244C2.79537 0.167211 2.7539 0.189175 2.71293 0.165697C2.68597 0.150528 2.68299 0.0489676 2.66181 0.0521987C2.59171 0.0629112 2.56865 0.20479 2.50131 0.0826006C2.48672 0.0565587 2.49979 -0.0546464 2.44964 0.0332682C2.44662 0.0388052 2.40977 0.119161 2.38706 0.0690085C2.38422 0.0626834 2.38379 0.0303306 2.38015 0.0276709C2.35523 0.0104946 2.33948 0.0365543 2.31251 0.0247575C2.28575 0.0129601 2.25257 -0.00466982 2.22186 0.00721556C2.21102 0.011476 2.19806 0.0352204 2.18845 0.0567606C2.18606 0.0570119 2.17883 0.0570831 2.17645 0.057442C2.17086 0.0720253 2.16622 0.0855869 2.16329 0.0917302C2.1426 0.136008 2.11131 0.0685044 2.10029 0.120989C2.08913 0.173742 2.12477 0.249817 2.08759 0.286203C2.07969 0.202501 2.0697 0.116732 2.06087 0.032623C1.97389 0.0422719 1.88877 0.0760815 1.79826 0.0808361C1.78701 0.0813491 1.79424 0.0352716 1.78201 0.0346753C1.73024 0.0324165 1.68879 0.0691186 1.63386 0.0626926C1.59132 0.0575555 1.53914 0.0160853 1.49286 0.0106442C1.47969 0.109674 1.4103 0.0874251 1.36419 0.104728C1.34808 0.110713 1.35388 0.135783 1.34372 0.146187C1.30549 0.184954 1.31009 0.0976114 1.29527 0.0868369C1.23303 0.0428767 1.26316 0.218984 1.21058 0.238016C1.19501 0.242728 1.15351 0.258265 1.1407 0.268308C1.13942 0.269454 1.138 0.270476 1.13642 0.271362C1.13378 0.272941 1.04608 0.208334 1.0383 0.205846C0.988279 0.18922 1.05374 0.238468 1.04107 0.256063C1.01778 0.288296 1.00966 0.323101 0.955736 0.323124C0.939951 0.323004 0.877756 0.287827 0.884058 0.343416C0.884893 0.350687 0.905581 0.377608 0.904447 0.380788C0.882249 0.436166 0.820472 0.349515 0.775393 0.337125C0.730048 0.324913 0.735107 0.412321 0.740301 0.434957C0.753207 0.493705 0.769495 0.442435 0.773701 0.446102C0.823959 0.488669 0.790736 0.499209 0.773766 0.518878C0.833703 0.604416 0.802831 0.620282 0.755872 0.539082C0.750823 0.530126 0.772568 0.525739 0.773766 0.518878C0.694398 0.450412 0.651565 0.466769 0.677727 0.569582C0.690459 0.617654 0.73904 0.644224 0.679776 0.670845C0.652954 0.683436 0.612566 0.622899 0.579494 0.627004C0.502613 0.637757 0.493033 0.746407 0.444757 0.794341C0.426647 0.812436 0.409627 0.769083 0.395896 0.78119C0.358845 0.814572 0.360839 0.866791 0.324304 0.903839C0.320886 0.907346 0.289696 0.877928 0.281681 0.892329C0.244687 0.958523 0.227275 1.03025 0.217366 1.10297C0.214141 1.137 0.210474 1.17308 0.203211 1.20923C0.194036 1.25395 0.156886 1.32847 0.153629 1.3755C0.147394 1.45692 0.19289 1.5611 0.170022 1.62601C0.155277 1.66842 0.115593 1.6541 0.0854287 1.66959C0.026938 1.69957 0.116887 1.77553 0.131137 1.78519C0.13159 1.78545 0.145186 1.74908 0.164126 1.77123C0.20676 1.78735 0.131374 1.78476 0.131137 1.78519C0.140152 1.79188 0.142231 1.86789 0.133193 1.88208C0.128192 1.88983 0.0896902 1.88188 0.0878177 1.88602C0.0442228 1.98418 0.0276518 2.08655 0.0416727 2.19096C0.0423875 2.19281 0.0861397 2.19185 0.0872765 2.19616C0.104344 2.25639 0.0499539 2.29275 0.017354 2.3422C-0.0151787 2.39153 -0.00463533 2.43202 0.0704422 2.46113C0.0610709 2.49863 0.0950532 2.55212 0.115996 2.58223C0.136909 2.61226 0.0521479 2.61937 0.0505428 2.62219C-0.000182152 2.71008 0.0510445 2.75825 0.0655532 2.84715C0.0725021 2.88937 0.0687232 2.97568 0.0656004 3.02383C0.0628295 3.06173 0.0857596 3.08191 0.0783086 3.11783C0.0773344 3.12271 0.0391974 3.12376 0.0379734 3.12539C-0.000674725 3.17154 0.0878334 3.13827 0.105404 3.14359C0.169529 3.163 0.203513 3.17305 0.185143 3.22719C0.180878 3.23934 0.0569639 3.29872 0.054399 3.32301C0.0510998 3.35348 0.0951982 3.33218 0.0908179 3.3639C0.0905099 3.36662 0.0616689 3.37295 0.0674391 3.39085C0.094214 3.47507 0.138882 3.56376 0.173132 3.65639C0.177997 3.66912 0.128008 3.67038 0.134561 3.68945C0.138178 3.69986 0.142039 3.71032 0.146159 3.72079C0.164326 3.77029 0.190247 3.82546 0.228898 3.87194C0.239796 3.88484 0.266744 3.86376 0.277061 3.86351C0.339774 3.86276 0.270787 3.92179 0.271074 3.92716C0.275895 4.05609 0.381342 4.1201 0.395304 4.25768C0.395764 4.26493 0.331431 4.35162 0.413931 4.34608C0.419464 4.34584 0.503226 4.33873 0.460882 4.38017C0.458248 4.38279 0.413928 4.38385 0.428386 4.40783C0.442783 4.43167 0.435005 4.48429 0.49229 4.50161C0.510419 4.50727 0.59499 4.50047 0.5522 4.56028C0.548745 4.56366 0.443053 4.67863 0.542213 4.65427C0.558535 4.65019 0.651413 4.60052 0.622912 4.66444C0.617431 4.67684 0.589303 4.6734 0.58655 4.70045C0.582445 4.74232 0.629173 4.77028 0.6105 4.83265C0.60698 4.84339 0.562067 4.90911 0.623378 4.90553C0.632908 4.90485 0.658858 4.87972 0.669705 4.89003C0.721028 4.93822 0.742744 5.01344 0.80716 5.05798C0.829947 5.07365 0.866875 5.02839 0.895136 5.03961C0.923304 5.05086 0.968549 5.08153 0.968807 5.11994C0.969598 5.15898 0.880518 5.19693 0.907628 5.23579C1.02221 5.39837 1.24354 5.49663 1.46366 5.54257C1.4727 5.54444 1.48191 5.54636 1.49082 5.54825C1.51852 5.55392 1.48791 5.58004 1.52858 5.59016C1.67416 5.62802 1.93918 5.68818 2.11998 5.58098C2.13392 5.57249 2.14492 5.56431 2.15256 5.55692C2.18523 5.50092 2.09843 5.48457 2.15083 5.45146C2.17895 5.43373 2.2378 5.52765 2.24628 5.52891C2.32824 5.54276 2.3664 5.48372 2.43475 5.47892C2.44892 5.47791 2.44774 5.52278 2.45974 5.52143C2.50108 5.51709 2.53623 5.48653 2.57403 5.47842C2.59103 5.47485 2.59777 5.50697 2.6123 5.49974C2.64711 5.48281 2.67512 5.45928 2.70053 5.41858C2.70282 5.41488 2.66858 5.38346 2.69456 5.37322C2.73683 5.35666 2.77957 5.31002 2.83885 5.32192C2.85647 5.32556 2.88248 5.39558 2.89623 5.33571C2.89913 5.32317 2.85985 5.24219 2.92284 5.30147C2.93311 5.31144 3.03169 5.38599 3.03767 5.31136C3.03927 5.29174 3.03257 5.21564 3.05392 5.21957C3.05696 5.22035 3.06225 5.26138 3.07813 5.25928C3.13388 5.2512 3.18515 5.22548 3.2424 5.21459C3.25769 5.21175 3.25326 5.25882 3.27563 5.25331C3.33757 5.23806 3.40491 5.196 3.456 5.15708C3.47453 5.1428 3.44537 5.11868 3.44527 5.11458C3.44274 5.0483 3.49307 5.11498 3.50331 5.11527C3.56627 5.11602 3.58762 5.06152 3.63851 5.04543C3.65294 5.04063 3.66246 5.08004 3.66676 5.08167C3.7106 5.09643 3.65628 5.04614 3.6695 5.02991C3.70609 4.98431 3.76045 4.95574 3.81289 4.92744C3.83219 4.91704 3.83651 4.96854 3.85378 4.95854C3.93188 4.91276 4.01365 4.85497 4.09842 4.74779C4.11057 4.72904 4.12165 4.70987 4.13128 4.69057C4.13866 4.67564 4.10629 4.6591 4.10273 4.65121C4.07777 4.59609 4.15596 4.62442 4.16632 4.62413C4.21363 4.62271 4.20051 4.59194 4.22524 4.57525C4.34539 4.49428 4.45634 4.37307 4.55523 4.28876C4.66591 4.19389 4.75673 4.11046 4.88064 4.04799C4.90129 4.03768 4.92194 4.02812 4.94402 4.01878C4.95457 4.01428 4.96427 4.06119 4.97357 4.05789C5.09311 4.01308 5.1999 3.94518 5.32655 3.90443C5.33686 3.90103 5.3402 3.94769 5.35745 3.94354C5.39281 3.93538 5.43414 3.91475 5.46286 3.88677C5.4768 3.87324 5.43925 3.84843 5.45356 3.83552C5.48714 3.80527 5.5287 3.7834 5.57385 3.7705C5.5932 3.76503 5.58469 3.81856 5.6085 3.80818C5.71225 3.76336 5.82545 3.71245 5.93301 3.62984C6.01464 3.56861 6.05503 3.51829 6.09437 3.45969C6.10134 3.44882 6.05126 3.37143 6.08268 3.36811C6.10042 3.38643 6.11952 3.40945 6.13758 3.42978C6.34205 3.27679 6.49377 3.09213 6.66587 2.92399C6.67311 2.9169 6.69363 2.96427 6.70784 2.9507C6.79011 2.8722 6.87923 2.8058 6.92918 2.69075C6.93417 2.6794 6.87069 2.62198 6.90394 2.60786C6.90986 2.60544 6.95436 2.57828 6.97668 2.58246C6.97991 2.58323 7.00097 2.61833 7.01356 2.60775C7.08627 2.54576 7.15144 2.46945 7.20214 2.38547C7.21029 2.37185 7.16887 2.35303 7.17441 2.34307C7.21371 2.27284 7.29636 2.23651 7.32165 2.157C7.33839 2.10374 7.27349 2.06478 7.2412 1.99499C7.23666 1.98513 7.25712 1.96242 7.22851 1.9316C7.15666 1.854 7.06452 1.78247 6.98917 1.69852C6.97296 1.68043 7.01979 1.67056 6.96155 1.64588C6.95763 1.64426 6.92323 1.65112 6.90404 1.64215C6.89077 1.63597 6.867 1.59931 6.84731 1.59409C6.82763 1.58888 6.84488 1.62227 6.81838 1.61947C6.79163 1.61655 6.76266 1.57679 6.73457 1.59659ZM0.211214 2.7163C0.253518 2.74198 0.104483 2.75506 0.138481 2.72207C0.140305 2.72046 0.209136 2.71496 0.211214 2.7163ZM1.89837 0.188918C1.86843 0.257644 1.83539 0.163263 1.85626 0.110267C1.87737 0.0573345 1.90761 0.16808 1.89837 0.188918ZM2.27426 0.211757C2.23399 0.264805 2.22126 0.0530199 2.26781 0.0946929C2.27047 0.0970505 2.27661 0.20868 2.27426 0.211757ZM7.14062 2.06597C7.1395 2.06429 7.15365 2.04753 7.1554 2.04857C7.19712 2.07408 7.16877 2.1076 7.14062 2.06597ZM2.64007 0.259306C2.62726 0.28807 2.58995 0.255227 2.60575 0.21944C2.61838 0.190645 2.65601 0.223519 2.64007 0.259306ZM0.735847 4.06601C0.738076 4.06561 0.745564 4.07952 0.733697 4.08375C0.695439 4.09732 0.698295 4.07277 0.735847 4.06601ZM3.25829 0.260451C3.16698 0.268436 3.11169 0.44363 3.21107 0.423844C3.22907 0.420266 3.1723 0.367988 3.19519 0.352191C3.23713 0.323413 3.26493 0.433402 3.30774 0.374464C3.31547 0.363676 3.26352 0.259606 3.25813 0.260207C3.25818 0.260288 3.25824 0.260369 3.25829 0.260451ZM0.391441 2.72228C0.393434 2.72272 0.396591 2.74421 0.394679 2.74484C0.348 2.75961 0.341571 2.71582 0.391441 2.72228ZM1.2321 4.81868C1.23598 4.8171 1.26988 4.84947 1.26831 4.85312C1.22887 4.92561 1.15492 4.85472 1.2321 4.81868ZM0.606221 1.2912C0.657674 1.27849 0.668844 1.25407 0.614562 1.22267C0.612496 1.24573 0.608062 1.26811 0.606221 1.2912Z" fill="black"/>
</svg>
