<svg width="8" height="7" viewBox="0 0 8 7" fill="none" xmlns="http://www.w3.org/2000/svg">
<path d="M0.756556 0.0277373C0.79144 0.0774075 0.812054 0.157007 0.821734 0.222261C0.824821 0.242703 0.796564 0.244935 0.797766 0.259808C0.799838 0.288181 0.822856 0.305994 0.823373 0.335043C0.823522 0.344915 0.780902 0.353317 0.781952 0.363301C0.787987 0.417849 0.819569 0.457077 0.835566 0.508165C0.914801 0.760407 1.02701 0.996881 1.1435 1.2405C1.18164 1.32027 1.20343 1.43443 1.26367 1.50473C1.27083 1.51309 1.29943 1.48897 1.30309 1.48922C1.35957 1.49379 1.28988 1.52196 1.29179 1.54484C1.2998 1.63594 1.34455 1.71854 1.39715 1.77927C1.41991 1.80553 1.46528 1.73861 1.44762 1.7893C1.44647 1.79279 1.40837 1.80528 1.40961 1.81553C1.41269 1.83908 1.43875 1.86912 1.44465 1.88503C1.45558 1.91536 1.45892 1.92017 1.47381 1.94588C1.49009 1.97455 1.49876 2.01434 1.51814 2.04649C1.52249 2.0537 1.52737 2.06048 1.53299 2.0666C1.53958 2.07359 1.56745 2.04219 1.58103 2.05141C1.5946 2.06066 1.61216 2.09591 1.61102 2.11207C1.60987 2.12826 1.58009 2.14002 1.57516 2.1458C1.5334 2.19434 1.62906 2.18817 1.63383 2.19183C1.71878 2.26055 1.72954 2.36607 1.7835 2.4472C1.82546 2.51014 1.88466 2.56894 1.9231 2.62797C1.96941 2.69931 1.99485 2.77232 2.04605 2.83594C2.05143 2.84269 2.0835 2.80667 2.09013 2.81482C2.16277 2.90447 2.22472 2.99426 2.2708 3.10375C2.2753 3.11462 2.23378 3.12891 2.23635 3.14134C2.25184 3.21591 2.26079 3.35579 2.4254 3.27134C2.4497 3.31144 2.48081 3.35921 2.48122 3.41519C2.4814 3.4511 2.42998 3.46071 2.46653 3.47337C2.47472 3.47623 2.49804 3.44288 2.50804 3.44909C2.55002 3.47513 2.57434 3.52177 2.6215 3.54339C2.63108 3.54763 2.65553 3.52189 2.66206 3.5196C2.7154 3.50157 2.6777 3.58663 2.67876 3.5969C2.68638 3.67321 2.73284 3.69587 2.77213 3.73826C2.78129 3.74815 2.80444 3.70368 2.81445 3.71196C2.86496 3.75441 2.91281 3.80837 2.94432 3.86876C2.95133 3.88235 2.91346 3.90195 2.91537 3.90994C2.9241 3.9447 2.9828 3.89504 2.9928 3.9276C2.99501 3.93442 2.96844 3.95698 2.96663 3.96052C2.9384 4.01628 3.00826 3.96581 3.01283 3.96757C3.07241 3.98883 3.03898 4.07848 3.08997 4.10807C3.09605 4.11146 3.11431 4.06876 3.12955 4.08021C3.22974 4.15495 3.3238 4.25186 3.39808 4.35763C3.40957 4.37395 3.37814 4.39086 3.3765 4.39477C3.35168 4.45642 3.41604 4.39904 3.42289 4.40044C3.4768 4.41424 3.46923 4.49897 3.55825 4.4398C3.70484 4.59799 3.90927 4.6727 4.03605 4.86373C4.03771 4.86607 4.0108 4.89853 4.01423 4.90306C4.05565 4.95802 4.0815 4.89711 4.16005 4.85285C4.17977 4.84173 4.15555 4.94019 4.15425 4.94769C4.14949 4.9754 4.10676 5.02213 4.10714 5.02831C4.11168 5.07784 4.21727 4.90079 4.25071 4.92158C4.25157 4.92252 4.22711 4.95199 4.22793 4.95694C4.23042 4.97244 4.24701 4.965 4.24861 4.98135C4.25177 5.01884 4.2072 5.10904 4.26812 5.07802C4.27589 5.07389 4.33123 4.97073 4.35832 4.99372C4.36851 5.00266 4.42406 5.03397 4.43496 5.04935C4.446 5.06483 4.41631 5.09093 4.41653 5.09297C4.43096 5.15979 4.40506 5.1683 4.38783 5.24399C4.37077 5.31944 4.45511 5.16566 4.47353 5.1539C4.49198 5.14221 4.50049 5.19522 4.5003 5.21175C4.50029 5.22841 4.47873 5.24341 4.48124 5.25434C4.4982 5.3261 4.54529 5.1913 4.57405 5.1761C4.6416 5.13981 4.60105 5.26708 4.62545 5.29675C4.63199 5.30474 4.64055 5.27531 4.64939 5.27744C4.68363 5.28588 4.68133 5.33199 4.73401 5.32093C4.7424 5.319 4.81137 5.26995 4.79869 5.32987C4.79674 5.33844 4.77231 5.36127 4.78094 5.37538C4.79355 5.39631 4.82316 5.42404 4.8491 5.42847C4.86817 5.43165 4.88127 5.37609 4.89043 5.40232C4.89437 5.41397 4.86189 5.42959 4.87056 5.4492C4.87915 5.468 4.91558 5.49287 4.93136 5.50338C4.93219 5.50393 4.93296 5.50443 4.93369 5.5049C4.94848 5.51441 4.96467 5.47606 4.96743 5.47471C4.98361 5.46724 5.02147 5.47057 5.02394 5.47237C5.14541 5.55357 5.22271 5.68513 5.35897 5.74148C5.36954 5.74588 5.38521 5.70546 5.38706 5.70576C5.42951 5.71051 5.34462 5.79186 5.34855 5.83855C5.38974 5.76223 5.39545 5.78399 5.424 5.7899C5.43773 5.79264 5.44864 5.76011 5.45143 5.75777C5.49422 5.7239 5.47255 5.78749 5.46877 5.80088C5.45483 5.85013 5.49688 5.80695 5.48777 5.83996C5.47889 5.87281 5.43662 5.90454 5.4599 5.91739C5.48197 5.89436 5.50567 5.81439 5.52973 5.8132C5.61971 5.80811 5.71218 5.93444 5.76207 5.97213C5.81206 6.00972 5.83219 6.0156 5.85719 6.04464C5.90179 6.09743 5.91404 6.03379 5.96479 6.03473C6.01599 6.03659 5.91389 6.14596 5.90059 6.17541C5.8869 6.20464 5.91079 6.18147 5.90627 6.19973C5.90158 6.21789 5.8771 6.22689 5.88608 6.24147C5.88937 6.24681 5.90044 6.24751 5.91442 6.2453C5.94101 6.24317 5.97514 6.22888 5.98926 6.21274C6.03587 6.15856 6.06155 6.08852 6.07338 6.12467C6.07428 6.12687 6.05109 6.15871 6.05574 6.16548C6.09415 6.21925 6.16085 6.22875 6.2359 6.23763C6.2465 6.23896 6.24763 6.28315 6.25423 6.28429C6.32567 6.29353 6.28326 6.22881 6.28431 6.14274C6.31467 6.24629 6.35689 6.3023 6.4051 6.28133C6.4101 6.27913 6.41348 6.27599 6.41564 6.27215C6.42503 6.25455 6.40866 6.22164 6.4106 6.19034C6.41122 6.17893 6.44381 6.19888 6.43725 6.17736C6.41539 6.10719 6.36238 6.0435 6.41855 6.05065C6.4211 6.05104 6.43373 6.0892 6.44121 6.08797C6.49025 6.07953 6.45849 6.01056 6.49581 5.97808C6.52497 5.95272 6.6073 5.95494 6.64852 5.93499C6.71675 6.03537 6.7382 5.98608 6.7016 5.90891C6.72716 5.89418 6.74886 5.87125 6.77785 5.86249C6.78779 5.85944 6.80518 5.89058 6.80852 5.89275C6.86152 5.92624 6.81935 5.85529 6.82188 5.84894C6.8529 5.78155 6.93663 5.78701 6.93834 5.69791C6.93844 5.69464 6.87949 5.63447 6.93587 5.6641C6.93981 5.66607 6.95348 5.70783 6.9762 5.68749C6.99876 5.66745 7.07192 5.65138 7.06692 5.59331C7.06607 5.57901 7.02558 5.51898 7.08055 5.53355C7.08803 5.5355 7.10612 5.5518 7.11943 5.55622C7.16233 5.56953 7.09573 5.51607 7.16442 5.54326C7.23318 5.57024 7.29995 5.56692 7.2792 5.50053C7.27871 5.49837 7.22434 5.45712 7.23149 5.44536C7.24295 5.42686 7.26923 5.40316 7.27722 5.3811C7.28111 5.37031 7.23929 5.3623 7.23928 5.36019C7.24063 5.3268 7.24937 5.30255 7.2605 5.27801L7.26006 5.29069C7.26405 5.25339 7.27535 5.21561 7.2791 5.16998C7.28043 5.15483 7.21872 5.11915 7.26011 5.08527C7.30535 5.04776 7.51367 5.05556 7.45587 4.98823C7.43263 4.96081 7.16915 4.95803 7.29606 4.88785C7.249 4.7913 7.30316 4.68638 7.23807 4.59266C7.23516 4.5884 7.16093 4.58702 7.15996 4.57623C7.15868 4.5602 7.19057 4.54555 7.19062 4.5337C7.19173 4.48444 7.15443 4.44721 7.14893 4.40128C7.14672 4.38376 7.18243 4.38202 7.17967 4.36106C7.17676 4.33989 7.12854 4.33724 7.14346 4.30433C7.15489 4.27962 7.2412 4.23467 7.24399 4.20289C7.1535 4.22644 7.15024 4.20662 7.11672 4.18005C7.11023 4.175 7.08106 4.19108 7.07639 4.18918C7.05676 4.18192 7.07911 4.16276 7.05811 4.1567C7.05305 4.15522 7.02255 4.16464 7.01672 4.16403C6.96606 4.15939 7.02398 4.10633 7.03378 4.09655C7.06123 4.07022 7.04596 4.06478 7.04029 4.05566C7.03893 4.05499 7.03776 4.05104 7.0404 4.04472C7.04989 4.02128 7.08212 4.03437 7.08351 4.01114C7.08604 3.96248 7.05537 3.9169 7.03745 3.87943C7.0301 3.86449 6.99755 3.8942 6.99562 3.89252C6.96965 3.86612 6.99553 3.81566 6.91035 3.83346C7.10013 3.72046 6.88176 3.82324 6.90233 3.75774C6.90408 3.75253 6.99888 3.7102 7.01819 3.71734C7.03747 3.72441 7.01604 3.75688 7.04586 3.76496C7.05293 3.76718 7.15182 3.74885 7.15845 3.74888C7.21124 3.75205 7.07494 3.82573 7.06806 3.83108C6.99421 3.88873 7.10321 3.87082 7.11377 3.87526C7.16252 3.89641 7.16072 3.93948 7.19869 3.96388C7.207 3.96933 7.22297 3.96843 7.24086 3.96577C7.24196 3.96877 7.24608 3.97738 7.24692 3.98045C7.28242 3.97758 7.32592 3.96806 7.32845 3.98149C7.34091 4.04934 7.21147 4.11071 7.3463 4.13414C7.37498 4.13932 7.47863 4.09705 7.40706 4.16617C7.40263 4.17078 7.33422 4.2242 7.38798 4.23104C7.39477 4.2319 7.42613 4.22393 7.42957 4.22649C7.45204 4.24392 7.43052 4.26452 7.44804 4.28522C7.46556 4.30593 7.4899 4.33042 7.48491 4.35968C7.48198 4.37734 7.42717 4.41004 7.41425 4.42062C7.37688 4.45018 7.44979 4.45988 7.40174 4.48277C7.35341 4.50563 7.27142 4.49488 7.24498 4.5351C7.32784 4.52089 7.4132 4.508 7.49671 4.49467C7.50822 4.57293 7.49383 4.65296 7.50906 4.72902C7.51103 4.7385 7.55425 4.72199 7.55752 4.73203C7.57106 4.77409 7.54454 4.81647 7.5633 4.85907C7.57799 4.89209 7.63038 4.92364 7.64692 4.95834C7.55429 4.99229 7.59328 5.04151 7.58909 5.08099C7.58767 5.09487 7.56205 5.09698 7.55486 5.10759C7.52827 5.1471 7.61073 5.12048 7.62517 5.12884C7.68681 5.16507 7.49606 5.1905 7.5063 5.23954C7.50658 5.24108 7.54339 5.24902 7.57495 5.25617C7.57539 5.27244 7.57643 5.31854 7.57224 5.33426C7.59107 5.34985 7.60702 5.36506 7.60888 5.36875C7.63817 5.42571 7.57245 5.36871 7.55813 5.39391C7.53125 5.4383 7.49825 5.45712 7.50593 5.51523C7.50871 5.53136 7.55069 5.59256 7.49351 5.59498C7.48606 5.59526 7.45698 5.57772 7.45388 5.57935C7.40106 5.60774 7.49292 5.66057 7.50772 5.7062C7.52248 5.75167 7.43495 5.75041 7.41266 5.74522C7.35418 5.73353 7.40346 5.71723 7.39957 5.71315C7.35429 5.66559 7.34629 5.69779 7.32855 5.71342C7.2413 5.65606 7.22865 5.68417 7.31034 5.72993C7.31938 5.73481 7.32204 5.71443 7.32855 5.71342C7.40084 5.78881 7.38682 5.83028 7.28731 5.80148C7.24082 5.78758 7.21085 5.74216 7.19182 5.7948C7.18263 5.81888 7.24336 5.85857 7.24342 5.88826C7.24264 5.95701 7.1475 5.95919 7.11834 6.00159C7.10731 6.01744 7.14784 6.03318 7.14114 6.04505C7.12324 6.07669 7.08084 6.07525 7.06465 6.10932C7.06317 6.11247 7.09606 6.13851 7.08806 6.14611C7.02786 6.20405 6.95476 6.22741 6.88484 6.27551C6.85121 6.2989 6.80166 6.35833 6.76239 6.37653C6.6944 6.40907 6.58734 6.39864 6.5387 6.43839C6.51337 6.4589 6.52368 6.48392 6.52728 6.50982C6.52795 6.51689 6.52803 6.52406 6.52655 6.53128C6.51273 6.59837 6.40368 6.53547 6.39046 6.5233C6.39031 6.52303 6.42741 6.49932 6.39886 6.48715C6.3719 6.44999 6.39106 6.52288 6.39046 6.5233C6.38187 6.51704 6.29158 6.53274 6.27171 6.54279C6.26182 6.54893 6.27445 6.58634 6.26885 6.58883C6.13789 6.65615 5.89527 6.61703 5.78775 6.51347C5.78606 6.51142 5.81301 6.47686 5.80895 6.47264C5.79502 6.45767 5.78163 6.44762 5.76759 6.44049C5.74265 6.43207 5.7049 6.4496 5.671 6.4554C5.62584 6.46312 5.60922 6.44003 5.63057 6.36492C5.60252 6.35845 5.58518 6.30922 5.57466 6.27958C5.56443 6.2501 5.51811 6.32154 5.51548 6.32193C5.43166 6.33505 5.42225 6.27358 5.36398 6.23113C5.33652 6.21095 5.27107 6.1872 5.23373 6.17593C5.20396 6.16708 5.19873 6.14079 5.16837 6.13744C5.16428 6.13697 5.14805 6.17138 5.14632 6.17204C5.09618 6.19475 5.1568 6.1232 5.15983 6.10573C5.17109 6.04229 5.17559 6.00763 5.12722 6.01101C5.11607 6.01174 5.02294 6.11075 5.00409 6.10809C4.97984 6.10449 5.01266 6.06874 4.98684 6.06603C4.98464 6.06575 4.96918 6.09086 4.95765 6.08194C4.90418 6.041 4.85269 5.98624 4.7935 5.94876C4.7855 5.94356 4.76892 5.98896 4.75684 5.982C4.71639 5.9586 4.67626 5.93024 4.64233 5.89542C4.63333 5.88472 4.62455 5.87266 4.61645 5.85914C4.60967 5.84766 4.63459 5.82515 4.63796 5.81565C4.65734 5.75749 4.5901 5.81521 4.58592 5.81439C4.48566 5.79696 4.4592 5.69037 4.34834 5.66644C4.34205 5.66516 4.2572 5.72102 4.27975 5.64298C4.28138 5.63787 4.30464 5.55814 4.26145 5.59631C4.25874 5.5987 4.24814 5.64057 4.23173 5.62583C4.21539 5.61114 4.17021 5.61628 4.16712 5.5614C4.16632 5.54421 4.18844 5.46399 4.13042 5.5036C4.12674 5.50659 4.01224 5.60616 4.05083 5.51294C4.05711 5.49754 4.11447 5.40901 4.05662 5.43703C4.04544 5.44248 4.04355 5.46892 4.02079 5.47221C3.98557 5.47718 3.96991 5.43434 3.91692 5.45669C3.90764 5.46071 3.84839 5.50813 3.85999 5.45123C3.86183 5.44232 3.8857 5.41574 3.87871 5.40669C3.84676 5.36422 3.78927 5.35543 3.75952 5.30698C3.74919 5.29003 3.78796 5.24736 3.78074 5.2244C3.7735 5.20145 3.75001 5.16835 3.71891 5.17885C3.68784 5.18939 3.65539 5.27686 3.62687 5.26648C3.50116 5.22004 3.42545 5.10166 3.32579 5.01806C3.31084 5.0055 3.30424 5.04108 3.28101 5.02451C3.19644 4.96497 3.03164 4.87373 3.00661 4.76293C2.98589 4.67396 3.08302 4.69992 3.05491 4.64732C3.04147 4.62217 2.95106 4.68385 2.94386 4.6821C2.87445 4.66743 2.87163 4.60311 2.81893 4.57569C2.80803 4.57001 2.78836 4.60971 2.77952 4.60462C2.74928 4.58772 2.73532 4.54952 2.70866 4.52995C2.69661 4.52123 2.6766 4.54718 2.66819 4.53606C2.64771 4.50961 2.63587 4.47991 2.63417 4.43635C2.63402 4.43239 2.67573 4.41582 2.65957 4.39858C2.63327 4.37069 2.61965 4.31599 2.5657 4.30704C2.54986 4.30472 2.49738 4.35783 2.51339 4.30136C2.5167 4.28951 2.58495 4.231 2.50735 4.2632C2.49456 4.26871 2.38117 4.30324 2.40943 4.23601C2.41695 4.21842 2.45586 4.15345 2.43695 4.15061C2.43416 4.15039 2.41145 4.1845 2.39963 4.17801C2.35842 4.15461 2.32799 4.11682 2.28589 4.09057C2.27457 4.08358 2.25759 4.12603 2.24163 4.11463C2.19752 4.08318 2.16214 4.02931 2.13707 3.98228C2.12796 3.96498 2.16224 3.95163 2.16408 3.9481C2.19444 3.89099 2.12472 3.9362 2.11617 3.93385C2.06436 3.91896 2.07108 3.86829 2.03592 3.8435C2.0263 3.8366 2.00215 3.86846 1.99801 3.86902C1.95655 3.87333 2.02131 3.84067 2.01727 3.82419C2.00614 3.77785 1.97279 3.74362 1.94218 3.715C1.93076 3.70436 1.90723 3.74691 1.89735 3.73698C1.83822 3.67871 1.78545 3.60712 1.75548 3.52913C1.74977 3.51423 1.78311 3.50001 1.7874 3.49257C1.8177 3.44092 1.7381 3.4629 1.72775 3.46143C1.68089 3.4553 1.69675 3.42529 1.67438 3.40573C1.56396 3.30977 1.47477 3.15336 1.40638 3.03338C1.31924 2.88034 1.27089 2.74778 1.17287 2.61057C1.16663 2.60173 1.13329 2.63593 1.1274 2.6286C1.0661 2.54977 1.0247 2.46185 0.969234 2.37738C0.958579 2.36119 0.947481 2.34539 0.935695 2.33009C0.929917 2.32246 0.899203 2.35692 0.888662 2.34543C0.866857 2.32217 0.848538 2.28694 0.844188 2.25222C0.84206 2.23544 0.885185 2.23387 0.882392 2.21739C0.876056 2.17913 0.858985 2.14434 0.833748 2.11567C0.82299 2.10362 0.796424 2.14719 0.785466 2.12975C0.709985 2.01127 0.633281 1.8958 0.612704 1.74336C0.611299 1.7329 0.686402 1.67973 0.660983 1.67078C0.638174 1.68213 0.612288 1.69712 0.588394 1.71009C0.473089 1.53895 0.401492 1.34682 0.307067 1.16168C0.303143 1.15399 0.267499 1.19017 0.259687 1.17541C0.213633 1.08844 0.156902 1.00993 0.153334 0.897336C0.15289 0.886119 0.231169 0.851654 0.206288 0.83131C0.201921 0.827979 0.171509 0.793166 0.149791 0.791184C0.146591 0.791041 0.114619 0.816209 0.107137 0.803897C0.0639933 0.731414 0.0333702 0.647788 0.0192461 0.559548C0.0170401 0.545271 0.0617554 0.540787 0.060553 0.530527C0.0519476 0.458355 -0.00832529 0.402106 0.000964678 0.323822C0.00760756 0.271768 0.0820134 0.259683 0.140262 0.210937C0.148518 0.204208 0.140061 0.178237 0.178776 0.161751C0.276122 0.120487 0.388457 0.0901 0.491631 0.0446078C0.513746 0.0346397 0.478375 0.0152393 0.539627 0.0113064C0.54364 0.0108835 0.570176 0.0254973 0.590602 0.0229866C0.604778 0.0214356 0.642036 -0.000561911 0.661205 2.41081e-05C0.68029 0.000426601 0.650476 0.0223554 0.674358 0.0261286C0.698592 0.0300101 0.741477 0.00660296 0.756556 0.0277373ZM5.52539 6.14651C5.52598 6.09967 5.44815 6.22741 5.48751 6.20886C5.4895 6.2078 5.5254 6.14883 5.52539 6.14651ZM7.382 4.67032C7.32172 4.71095 7.42076 4.71706 7.46772 4.68745C7.51456 4.65768 7.40022 4.65774 7.382 4.67032ZM7.27499 4.36331C7.23195 4.4096 7.44055 4.37096 7.39006 4.34093C7.38718 4.33914 7.27747 4.36057 7.27499 4.36331ZM0.200408 0.302172C0.202139 0.301196 0.196324 0.282682 0.194316 0.282963C0.146523 0.291994 0.158328 0.329374 0.200408 0.302172ZM7.13966 4.06891C7.11618 4.08875 7.15761 4.10915 7.18721 4.08481C7.211 4.06496 7.16881 4.04378 7.13966 4.06891ZM4.58844 5.35968C4.58929 5.35759 4.57886 5.34893 4.57256 5.35984C4.55237 5.39504 4.57416 5.39486 4.58844 5.35968ZM6.92853 3.58781C6.94129 3.66009 6.79414 3.76765 6.78383 3.67413C6.78236 3.65771 6.84769 3.69042 6.85644 3.66601C6.87292 3.62316 6.76026 3.62948 6.80737 3.57696C6.81615 3.56824 6.92822 3.58424 6.9288 3.58787C6.92871 3.58785 6.92862 3.58783 6.92853 3.58781ZM5.60396 5.98444C5.60454 5.98249 5.58935 5.97153 5.58803 5.97303C5.55557 6.0091 5.58602 6.03112 5.60396 5.98444ZM3.97264 4.87102C3.97414 4.867 3.94035 4.83983 3.93698 4.84221C3.8749 4.89417 3.94383 4.94982 3.97264 4.87102ZM6.65094 5.93724C6.63933 5.88709 6.65349 5.86988 6.70149 5.90891C6.68437 5.91768 6.66834 5.92866 6.65094 5.93724Z" fill="#963076"/>
</svg>
