<svg width="3" height="12" viewBox="0 0 3 12" fill="none" xmlns="http://www.w3.org/2000/svg">
<path d="M2.8638 11.2254C2.87667 11.1584 2.86187 11.0688 2.84166 11.0025C2.83539 10.9814 2.80907 10.9926 2.80354 10.9781C2.79273 10.9492 2.80524 10.9235 2.79236 10.8957C2.78797 10.8866 2.74624 10.899 2.74259 10.8894C2.72288 10.8364 2.73228 10.7863 2.72178 10.7329C2.66989 10.469 2.64192 10.2128 2.60591 9.9477C2.5941 9.86072 2.54869 9.75691 2.55844 9.66537C2.55961 9.65466 2.59683 9.65816 2.59971 9.65592C2.64366 9.6208 2.57029 9.63701 2.55884 9.61724C2.5136 9.53879 2.50267 9.44867 2.50984 9.36908C2.513 9.3352 2.5889 9.3621 2.54495 9.33215C2.54198 9.33007 2.50377 9.34207 2.49878 9.3333C2.48756 9.3134 2.49088 9.27344 2.48627 9.25768C2.4772 9.22733 2.4771 9.22219 2.47382 9.19302C2.46897 9.15301 2.44484 9.1074 2.44921 9.06373C2.45026 9.05438 2.49142 9.06234 2.49669 9.04703C2.50196 9.03175 2.49444 8.99315 2.48362 8.98113C2.4728 8.96908 2.44205 8.97805 2.43462 8.97651C2.37194 8.96415 2.45098 8.91039 2.45239 8.90437C2.47594 8.7951 2.41726 8.71054 2.40475 8.61248C2.39526 8.53734 2.40021 8.45613 2.38766 8.38459C2.37274 8.30067 2.34014 8.23147 2.33049 8.14909C2.32941 8.14028 2.37763 8.14294 2.37639 8.13213C2.36324 8.01818 2.33811 7.90676 2.28444 7.80004C2.27905 7.78951 2.2413 7.81196 2.23349 7.80197C2.18644 7.73925 2.08364 7.65139 2.24964 7.56966C2.23226 7.52541 2.21091 7.46847 2.16518 7.4367C2.13568 7.41604 2.09884 7.45358 2.10881 7.41568C2.11098 7.40708 2.15177 7.40677 2.1521 7.39457C2.15338 7.34306 2.12695 7.29654 2.13218 7.24328C2.13338 7.23259 2.16802 7.22487 2.1733 7.22031C2.21582 7.18252 2.12211 7.16961 2.11348 7.16332C2.05087 7.1169 2.04982 7.06615 2.02824 7.0117C2.02767 7.01025 2.02708 7.00881 2.02647 7.00736C2.02112 6.9946 2.07136 6.9923 2.06777 6.97936C2.0487 6.91284 2.01783 6.84845 1.97223 6.79505C1.96193 6.78311 1.93005 6.81165 1.92323 6.80679C1.89368 6.78534 1.96122 6.74876 1.93414 6.72788C1.92853 6.72347 1.89814 6.74055 1.89419 6.74101C1.83213 6.74823 1.90341 6.69991 1.90321 6.69483C1.90284 6.63074 1.80647 6.63222 1.79446 6.57627C1.79303 6.56939 1.83934 6.56501 1.83286 6.54677C1.7903 6.426 1.71973 6.30971 1.63114 6.21446C1.61743 6.19964 1.5945 6.2271 1.59033 6.22787C1.52483 6.23937 1.59454 6.18908 1.59437 6.18182C1.59152 6.12641 1.50683 6.11903 1.5801 6.04123C1.4491 5.87094 1.3947 5.66108 1.21369 5.52568C1.21147 5.5239 1.17735 5.54865 1.17309 5.54502C1.12146 5.50154 1.18408 5.48 1.23298 5.40459C1.24526 5.38565 1.14581 5.40493 1.13827 5.40587C1.11057 5.40958 1.06145 5.4494 1.05537 5.44884C1.00689 5.4431 1.18899 5.34648 1.17041 5.31301C1.16952 5.31213 1.13883 5.335 1.13397 5.33402C1.11875 5.33102 1.12709 5.31501 1.11092 5.31277C1.07362 5.3078 0.982021 5.34916 1.01649 5.29086C1.02103 5.28341 1.12666 5.23293 1.10543 5.20562C1.09689 5.19487 1.06993 5.14091 1.05538 5.12972C1.04077 5.1185 1.01301 5.14644 1.01101 5.14617C0.945603 5.12948 0.935523 5.15441 0.85953 5.16857C0.783754 5.18246 0.941758 5.10633 0.954742 5.08901C0.967678 5.07174 0.915785 5.0612 0.899277 5.06038C0.882778 5.05962 0.866285 5.07981 0.855711 5.077C0.7864 5.05802 0.923237 5.01818 0.940703 4.99134C0.982278 4.92809 0.853414 4.96125 0.826462 4.93573C0.819207 4.92887 0.849113 4.92253 0.847888 4.91385C0.842829 4.87984 0.797713 4.87997 0.814858 4.82996C0.817633 4.82179 0.875281 4.7613 0.815167 4.76828C0.806507 4.76931 0.780598 4.7903 0.768038 4.78068C0.749169 4.76624 0.726988 4.73531 0.7274 4.71013C0.727733 4.69251 0.778954 4.68734 0.763345 4.67638L0.771251 4.70176C0.770626 4.70103 0.769841 4.70023 0.768882 4.69938C0.759944 4.69144 0.732269 4.71407 0.71804 4.69867C0.703817 4.68335 0.697398 4.63896 0.695566 4.62204C0.693749 4.60513 0.735227 4.60738 0.737679 4.60556C0.751647 4.59471 0.765403 4.55951 0.764884 4.55672C0.745471 4.41368 0.657013 4.29195 0.658731 4.14957C0.658818 4.13845 0.70212 4.13945 0.702569 4.13769C0.714714 4.0974 0.606793 4.14366 0.565331 4.12272C0.651611 4.11402 0.633798 4.1007 0.639389 4.07286C0.642157 4.05945 0.67636 4.06163 0.679591 4.05998C0.72732 4.03391 0.660325 4.03013 0.646513 4.02861C0.595711 4.02305 0.651747 4.00133 0.617784 3.99745C0.584064 3.99351 0.538552 4.0198 0.535642 3.99438C0.565376 3.98304 0.648239 3.99059 0.658597 3.96968C0.69756 3.88981 0.617007 3.76391 0.603199 3.70538C0.589415 3.6477 0.592941 3.62869 0.577748 3.5958C0.55035 3.53619 0.612737 3.55192 0.635697 3.51064C0.65871 3.46942 0.513817 3.50454 0.48159 3.50261C0.449391 3.50075 0.481245 3.49118 0.463127 3.48639C0.445015 3.48162 0.425147 3.49856 0.416865 3.48348C0.40859 3.46851 0.460048 3.41873 0.49251 3.40949C0.561277 3.39004 0.636863 3.40164 0.606578 3.36258C0.60479 3.36033 0.566934 3.37224 0.562049 3.36344C0.524561 3.29375 0.515075 3.21738 0.481869 3.14686C0.477244 3.13719 0.434997 3.15018 0.431818 3.14459C0.398642 3.08649 0.473284 3.10112 0.550992 3.06039C0.444244 3.07761 0.376775 3.06467 0.372106 3.01809C0.369284 2.99016 0.416644 2.99097 0.448216 2.97025C0.457736 2.96404 0.423873 2.94716 0.445664 2.94179C0.516873 2.92394 0.599168 2.93596 0.563118 2.89062C0.56142 2.88864 0.52244 2.89851 0.519464 2.89143C0.500071 2.84572 0.575156 2.83422 0.580568 2.78369C0.584784 2.74369 0.533719 2.67601 0.523344 2.6321C0.402405 2.64134 0.427296 2.59597 0.509694 2.57348C0.504446 2.54425 0.507292 2.51247 0.494163 2.48517C0.489682 2.47577 0.454985 2.48408 0.451128 2.48308C0.390647 2.46771 0.471147 2.44991 0.473989 2.44346C0.501202 2.3727 0.436951 2.32073 0.494286 2.25193C0.496356 2.2495 0.580352 2.24217 0.518174 2.22741C0.513892 2.22646 0.476486 2.24953 0.47226 2.21908C0.468055 2.1895 0.420663 2.13115 0.45833 2.08766C0.467379 2.07688 0.53494 2.04965 0.480913 2.02955C0.473579 2.02692 0.449517 2.03072 0.435961 2.02701C0.392761 2.01495 0.477678 2.00543 0.404961 1.99192C0.332247 1.9782 0.277275 1.94804 0.326288 1.90297C0.327711 1.90153 0.394974 1.88976 0.393658 1.87608C0.391492 1.8542 0.376955 1.82367 0.377113 1.80135C0.377213 1.79066 0.419203 1.79698 0.419946 1.79512C0.442552 1.7205 0.404902 1.67042 0.388898 1.59137C0.385877 1.57727 0.443248 1.53642 0.398384 1.50791C0.349302 1.47683 0.143086 1.50573 0.193171 1.43572C0.213293 1.40581 0.474886 1.37686 0.341128 1.32233C0.377423 1.22527 0.312272 1.12873 0.366585 1.03247C0.369002 1.02803 0.442636 1.01892 0.442376 1.00877C0.441854 0.99359 0.408509 0.983109 0.407188 0.971225C0.400663 0.923547 0.433627 0.883604 0.434006 0.839927C0.434373 0.822388 0.398693 0.824178 0.39922 0.803769C0.399723 0.784404 0.44763 0.775422 0.429481 0.746102C0.415671 0.724119 0.325726 0.686512 0.321694 0.65237C0.383423 0.664813 0.404691 0.659047 0.421632 0.647892C0.429971 0.64203 0.437356 0.634201 0.447874 0.625543C0.454109 0.620453 0.483922 0.635204 0.488498 0.633207C0.507824 0.625251 0.484529 0.607437 0.505129 0.600399C0.510087 0.598664 0.541068 0.606345 0.546868 0.605365C0.597401 0.597268 0.53576 0.547463 0.524929 0.539075C0.483988 0.506639 0.526699 0.506553 0.512389 0.485908C0.498026 0.465413 0.469575 0.484213 0.462984 0.462747C0.449318 0.418516 0.465455 0.369742 0.472236 0.329829C0.475151 0.31388 0.514626 0.333337 0.516012 0.331254C0.533459 0.300328 0.495401 0.258559 0.582282 0.255874C0.370915 0.192414 0.607065 0.239867 0.572438 0.184013C0.569608 0.179604 0.468256 0.156869 0.450729 0.168424C0.43325 0.179779 0.461279 0.206936 0.434234 0.222169C0.427895 0.225807 0.327382 0.233575 0.320904 0.235918C0.270368 0.254348 0.421516 0.288936 0.429572 0.29214C0.516204 0.327595 0.406786 0.338832 0.397929 0.34547C0.357233 0.376953 0.37111 0.414121 0.340473 0.440848C0.32061 0.458288 0.22136 0.436505 0.220465 0.453389C0.217312 0.509525 0.349649 0.563806 0.217265 0.58582C0.203103 0.588215 0.169743 0.579712 0.149327 0.578427C0.128713 0.578472 0.119934 0.588533 0.156522 0.626312C0.160554 0.633562 0.232662 0.681255 0.179365 0.695179C0.172689 0.69657 0.140754 0.691368 0.137548 0.694218C0.116753 0.71324 0.139818 0.734032 0.124514 0.75584C0.109325 0.776683 0.0873026 0.806724 0.0956433 0.832742C0.100493 0.849354 0.158478 0.876153 0.172454 0.885341C0.212858 0.909935 0.141555 0.925922 0.191787 0.943564C0.242314 0.960938 0.322655 0.941508 0.353305 0.978483C0.269383 0.973451 0.183145 0.969609 0.0986925 0.965292C0.0960264 1.04017 0.118944 1.11868 0.112181 1.19116C0.111246 1.2005 0.0664917 1.18901 0.0643276 1.19905C0.0553635 1.24301 0.0864287 1.2776 0.0723477 1.32235C0.0613221 1.35574 0.0126784 1.3906 -1.47675e-06 1.42675C0.0957725 1.45051 0.0624214 1.5002 0.0709416 1.5392C0.0738806 1.55269 0.0995786 1.55213 0.107905 1.56129C0.138726 1.59615 0.0538122 1.57955 0.0403938 1.5891C-0.0168036 1.63048 0.175576 1.63489 0.170974 1.68351C0.170787 1.68594 0.0683968 1.71777 0.0620508 1.72228C0.0206104 1.75036 0.0977747 1.7266 0.105491 1.74392C0.119616 1.77561 0.144359 1.79793 0.114858 1.8347C0.106117 1.8455 0.0426233 1.87259 0.0924682 1.89297C0.0989948 1.89564 0.132858 1.89345 0.134886 1.89565C0.168782 1.93596 0.0623293 1.9385 0.0267927 1.9624C-0.00873491 1.98618 0.0657308 2.02018 0.0871252 2.02687C0.142461 2.04443 0.110136 2.0116 0.115495 2.01045C0.179175 1.99669 0.168836 2.02287 0.174831 2.04273C0.279307 2.04272 0.273867 2.07023 0.180629 2.06318C0.170447 2.06253 0.179714 2.04659 0.174831 2.04273C0.0729293 2.06375 0.0607063 2.09367 0.157559 2.12405C0.202964 2.1382 0.254692 2.12139 0.237309 2.16983C0.22949 2.19184 0.157323 2.18649 0.138468 2.20616C0.0954405 2.25079 0.164948 2.30508 0.15657 2.35065C0.153513 2.36691 0.113437 2.35314 0.109997 2.36435C0.100756 2.39417 0.131584 2.41868 0.118077 2.44936C0.116804 2.45215 0.0753004 2.44772 0.0752782 2.45708C0.0743553 2.5284 0.104263 2.58656 0.109823 2.66042C0.112416 2.69521 0.0941182 2.75997 0.101415 2.79678C0.113642 2.85913 0.179579 2.93287 0.169595 2.98779C0.163249 3.02351 0.121552 3.01937 0.094862 3.03685C0.0431178 3.0707 0.144905 3.11424 0.160586 3.11983C0.161096 3.11998 0.168027 3.08858 0.190563 3.10297C0.235319 3.10847 0.160745 3.11946 0.160586 3.11983C0.170735 3.12401 0.185555 3.18267 0.178888 3.19555C0.175219 3.20246 0.136 3.20251 0.134824 3.20606C0.107791 3.29085 0.106114 3.37258 0.133208 3.45339C0.13415 3.45476 0.177338 3.44788 0.17901 3.45115C0.203514 3.49698 0.153711 3.53232 0.126694 3.57538C0.099676 3.61819 0.113982 3.64878 0.191183 3.66293C0.18529 3.69331 0.223355 3.73154 0.24635 3.75338C0.269338 3.77522 0.185424 3.78925 0.184026 3.79162C0.139231 3.8662 0.192378 3.89744 0.209266 3.96613C0.217454 3.99893 0.214235 4.06557 0.210126 4.10252C0.206724 4.13176 0.228902 4.14593 0.220098 4.17385C0.21893 4.17763 0.18095 4.17953 0.179665 4.18082C0.13913 4.21661 0.228642 4.18913 0.245877 4.19274C0.308572 4.20589 0.342123 4.21401 0.319719 4.25508C0.314587 4.26448 0.186624 4.30938 0.181341 4.32628C0.174705 4.34815 0.220719 4.33317 0.212593 4.35626C0.211943 4.35823 0.182763 4.36238 0.186107 4.37538C0.20127 4.43589 0.228752 4.49866 0.236438 4.56279C0.237598 4.57151 0.189638 4.56806 0.190562 4.58082C0.194918 4.64057 0.207592 4.70405 0.239286 4.75762C0.247228 4.77075 0.277887 4.75621 0.287996 4.75757C0.317996 4.76172 0.314226 4.77379 0.302502 4.78562C0.307423 4.80396 0.320579 4.85697 0.32988 4.87352C0.321235 4.88876 0.304177 4.90582 0.304404 4.90831C0.313034 5.02538 0.419141 5.06733 0.435889 5.18242C0.436527 5.18853 0.376228 5.27201 0.455573 5.25446C0.460911 5.25342 0.541496 5.23438 0.501092 5.27574C0.498567 5.27833 0.455965 5.2861 0.470001 5.30391C0.484015 5.3217 0.476159 5.3661 0.530633 5.37168C0.547834 5.37352 0.629032 5.35544 0.586272 5.41076C0.583156 5.41441 0.477242 5.52224 0.572312 5.48832C0.587946 5.48271 0.679211 5.42981 0.648012 5.48541C0.641928 5.49611 0.615649 5.49714 0.610978 5.51916C0.60372 5.55297 0.645129 5.56946 0.619606 5.62021C0.615035 5.6291 0.564093 5.68476 0.620807 5.67481C0.629685 5.67324 0.657657 5.65112 0.665983 5.65792C0.705699 5.69012 0.709508 5.7448 0.75422 5.77433C0.769991 5.7848 0.81528 5.74924 0.837215 5.75701C0.859157 5.76481 0.889327 5.78827 0.875719 5.81701C0.862108 5.84577 0.773321 5.87314 0.780523 5.90057C0.811802 6.01966 0.915163 6.09434 0.977913 6.19224C0.987209 6.20674 0.951903 6.20988 0.963527 6.23236C1.00654 6.31539 1.0536 6.46921 1.15093 6.5089C1.22904 6.5407 1.23017 6.44992 1.27241 6.48354C1.29276 6.50001 1.21001 6.57046 1.20947 6.57683C1.20379 6.64123 1.26264 6.6554 1.27129 6.70676C1.27305 6.71739 1.23009 6.72662 1.232 6.73543C1.23808 6.76546 1.2685 6.7854 1.27741 6.813C1.28128 6.82535 1.25058 6.83677 1.25773 6.84629C1.27444 6.86914 1.2973 6.88635 1.33638 6.89878C1.33995 6.89992 1.37017 6.86799 1.38002 6.88633C1.3958 6.91596 1.44069 6.94313 1.42728 6.99098C1.42323 7.00535 1.35474 7.03494 1.41191 7.03771C1.42381 7.03822 1.50397 6.99761 1.44372 7.05407C1.4338 7.06363 1.35578 7.14791 1.4271 7.14458C1.44585 7.14362 1.51978 7.1307 1.51432 7.14798C1.51332 7.15041 1.47333 7.15844 1.474 7.17054C1.47534 7.18961 1.48006 7.20785 1.4852 7.22622C1.48988 7.24464 1.49525 7.264 1.49572 7.28571C1.49586 7.29626 1.45184 7.29636 1.45322 7.31149C1.45625 7.35109 1.48248 7.39769 1.50645 7.43241C1.51548 7.44554 1.54538 7.42564 1.54927 7.4256C1.61277 7.42559 1.53711 7.4595 1.53417 7.46657C1.51688 7.51005 1.56139 7.52657 1.5607 7.56397C1.56058 7.57421 1.52094 7.57735 1.51806 7.58014C1.48999 7.60768 1.55435 7.57584 1.56497 7.58596C1.59488 7.61399 1.60181 7.65539 1.6051 7.69128C1.60628 7.70461 1.55869 7.70049 1.56025 7.71229C1.56875 7.78313 1.58844 7.85425 1.6269 7.91891C1.63419 7.93088 1.66684 7.91593 1.67521 7.91706C1.73373 7.92489 1.66438 7.96742 1.65847 7.97511C1.6315 8.01041 1.66404 8.01624 1.66305 8.04255C1.6582 8.17361 1.70348 8.32505 1.73371 8.44452C1.77285 8.59973 1.82176 8.71846 1.83125 8.87167C1.83189 8.88138 1.78456 8.87709 1.78451 8.88551C1.78601 8.99438 1.81548 9.09804 1.81292 9.20738C1.81279 9.21635 1.76766 9.20796 1.76597 9.22247C1.7622 9.25232 1.76815 9.28888 1.78495 9.31702C1.79306 9.33076 1.8289 9.3079 1.83629 9.32183C1.85359 9.35426 1.86005 9.39037 1.8561 9.42571C1.85433 9.44076 1.80744 9.42247 1.80863 9.4417C1.81574 9.5728 1.8182 9.70169 1.88582 9.8301C1.89046 9.83889 1.98243 9.84044 1.96625 9.86115C1.94099 9.86437 1.91114 9.86636 1.88407 9.86887C1.88266 10.0609 1.92514 10.2484 1.93856 10.4403C1.93911 10.4485 1.88999 10.4365 1.89082 10.4523C1.8955 10.543 1.88538 10.6313 1.93649 10.722C1.94149 10.7312 2.02672 10.7238 2.01463 10.7515C2.01243 10.7564 2.00221 10.7976 1.98394 10.8086C1.98118 10.8101 1.94114 10.8038 1.94032 10.8168C1.9363 10.8937 1.94703 10.9727 1.97245 11.049C1.97662 11.0611 2.01889 11.0475 2.02224 11.0562C2.04561 11.1176 2.01387 11.186 2.0525 11.2453C2.0785 11.2853 2.15186 11.2704 2.22408 11.2918C2.23427 11.2949 2.23582 11.3195 2.27784 11.321C2.3835 11.3246 2.49926 11.3129 2.61189 11.3183C2.63616 11.3195 2.60987 11.353 2.6686 11.3334C2.67253 11.332 2.69208 11.3075 2.71197 11.3014C2.72573 11.2971 2.76846 11.3049 2.78608 11.2962C2.80368 11.2875 2.76787 11.2778 2.78854 11.2632C2.80947 11.2485 2.85812 11.255 2.8638 11.2254ZM0.349436 3.85129C0.392824 3.86824 0.244983 3.89102 0.277301 3.86218C0.27904 3.86076 0.347301 3.8504 0.349436 3.85129ZM0.232063 1.12195C0.296343 1.15637 0.198667 1.17015 0.148723 1.14747C0.0988854 1.12422 0.212596 1.11136 0.232063 1.12195ZM0.304692 0.815256C0.352308 0.85687 0.140856 0.839965 0.187917 0.804926C0.190601 0.802808 0.301941 0.812782 0.304692 0.815256ZM2.24446 11.1924C2.24645 11.1927 2.24847 11.2104 2.2465 11.2108C2.19905 11.2204 2.19505 11.1851 2.24446 11.1924ZM0.417086 0.52063C0.442412 0.537822 0.402875 0.559445 0.371457 0.538028C0.346187 0.520843 0.385561 0.4994 0.417086 0.52063ZM0.7607 4.96743C0.762853 4.96676 0.770459 4.97751 0.759076 4.98291C0.722392 5.00027 0.724503 4.97884 0.7607 4.96743ZM0.51797 0.0248271C0.514425 0.0994642 0.679259 0.174746 0.673301 0.0888818C0.672156 0.0734727 0.612975 0.112103 0.600442 0.0906432C0.577545 0.0519001 0.68982 0.045625 0.636841 0.00139764C0.62711 -0.00635292 0.517816 0.0204991 0.517708 0.0249216C0.517795 0.0248901 0.517883 0.0248586 0.51797 0.0248271ZM0.529218 3.84082C0.531234 3.841 0.535421 3.85848 0.533536 3.85917C0.48773 3.875 0.479254 3.83968 0.529218 3.84082ZM1.20176 5.58757C1.20591 5.58635 1.22985 5.62058 1.22715 5.62369C1.17032 5.68086 1.1217 5.61174 1.20176 5.58757ZM0.52007 2.63161C0.566474 2.60936 0.570581 2.58531 0.50976 2.57356C0.514138 2.59267 0.515886 2.6127 0.52007 2.63161Z" fill="#3C8634"/>
</svg>
