<svg width="13" height="23" viewBox="0 0 13 23" fill="none" xmlns="http://www.w3.org/2000/svg">
<path d="M5.99341 8.78463C5.84844 8.6147 5.68488 8.37236 5.56824 8.18254C5.53185 8.12339 5.57405 8.13588 5.54987 8.09426C5.50209 8.01224 5.44031 7.95027 5.39524 7.86817C5.38055 7.84107 5.4369 7.84688 5.42071 7.81901C5.33123 7.66574 5.22458 7.5378 5.12691 7.38821C4.64622 6.65137 4.15922 5.93934 3.66804 5.19791C3.56689 5.04518 3.46242 4.86492 3.35362 4.69231C3.28638 4.58589 3.21998 4.4836 3.15211 4.39041C3.1307 4.361 3.11153 4.39919 3.10522 4.39503C3.00757 4.32915 3.09049 4.32056 3.06077 4.25519C2.94475 3.99853 2.79289 3.73059 2.65747 3.49515C2.60019 3.39509 2.58672 3.53201 2.5714 3.40838C2.57033 3.39986 2.6184 3.40913 2.6082 3.37873C2.58544 3.31142 2.5216 3.18929 2.50253 3.13686C2.46554 3.03544 2.45845 3.01917 2.42159 2.92413C2.37179 2.79372 2.33633 2.62937 2.28755 2.48715C2.27704 2.4568 2.2497 2.50867 2.22951 2.46075C2.20871 2.41218 2.17989 2.278 2.17996 2.23067C2.17968 2.18383 2.21463 2.1964 2.22003 2.18702C2.26572 2.1106 2.1565 1.97242 2.15177 1.95219C2.11184 1.79576 2.09653 1.64692 2.08873 1.50359C2.08221 1.35694 2.05099 1.21101 1.97025 1.0779C1.90559 0.971199 1.81274 0.87495 1.70951 0.794814C1.65495 0.752998 1.59075 0.723843 1.52076 0.702208C1.33616 0.646171 1.14671 0.64519 0.895665 0.654384C0.868328 0.654675 0.844319 0.657198 0.823793 0.661473C0.805995 0.665401 0.834884 0.707441 0.816435 0.712167C0.687892 0.694311 0.659712 1.05795 0.715811 1.40589C0.720459 1.44096 0.669915 1.40564 0.672327 1.44165C0.686253 1.6636 0.725461 2.03778 0.941544 2.10345C0.986215 2.24993 1.04644 2.42799 1.06332 2.57039C1.07444 2.66262 1.00046 2.598 1.05894 2.69357C1.07208 2.71508 1.0969 2.67052 1.11383 2.70381C1.18544 2.84489 1.23797 3.00877 1.31515 3.1469C1.3307 3.17439 1.3606 3.15382 1.36986 3.15983C1.44648 3.21234 1.41349 3.36206 1.4176 3.3902C1.45029 3.6059 1.52201 3.74022 1.57679 3.94653C1.5889 3.99567 1.62056 3.92594 1.63362 3.97325C1.64363 4.01024 1.65489 4.06117 1.66087 4.10494C1.68878 4.30135 1.69759 4.5054 1.68094 4.69894C1.6763 4.75034 1.63567 4.70325 1.63134 4.72763C1.612 4.83421 1.68773 4.86021 1.66641 4.96331C1.66188 4.98492 1.6279 4.97077 1.62389 4.97453C1.56091 5.03244 1.64117 5.09118 1.64172 5.10759C1.64995 5.31167 1.54456 5.42706 1.52677 5.61644C1.52462 5.63918 1.57635 5.59548 1.56756 5.6592C1.54931 5.79028 1.52589 5.92176 1.49907 6.05311C1.43284 6.37268 1.29524 6.65585 1.15701 6.91129C1.12571 6.96863 1.11441 6.91276 1.10903 6.91487C1.02396 6.95011 1.08398 7.02402 1.07831 7.04453C1.03102 7.20605 0.902482 7.3187 0.951394 7.46158C0.837117 7.69354 0.743389 7.93133 0.666364 8.17345C0.570132 8.52013 0.672529 8.97101 0.717863 9.39811C0.719026 9.40695 0.674501 9.40187 0.677022 9.41952C0.707799 9.63029 0.761199 9.57497 0.875591 9.68676C0.904698 9.71597 0.842405 9.84384 0.838741 9.85579C0.823979 9.89675 0.75383 9.88005 0.752407 9.89273C0.743156 9.99792 0.934714 9.92021 0.973957 10.0447C0.974868 10.0487 0.933499 10.0438 0.933224 10.0554C0.932046 10.0909 0.956496 10.1179 0.954239 10.1535C0.949 10.2354 0.861877 10.2916 0.954053 10.384C0.965855 10.3954 1.06987 10.3383 1.10125 10.4487C1.11376 10.4934 1.18193 10.6855 1.19416 10.7429C1.20577 10.7991 1.15733 10.7747 1.15713 10.779C1.16112 10.9409 1.12245 10.893 1.07888 10.991C1.03545 11.0884 1.19347 11.0095 1.22246 11.0327C1.25142 11.0559 1.25117 11.177 1.24709 11.2078C1.24307 11.2389 1.20878 11.2143 1.20956 11.2403C1.21585 11.4134 1.31607 11.2792 1.3606 11.3205C1.46576 11.4174 1.37792 11.5558 1.40618 11.6701C1.41388 11.7012 1.43275 11.6666 1.4451 11.6923C1.49326 11.7931 1.4787 11.871 1.55721 11.9769C1.56996 11.994 1.6791 12.0645 1.64802 12.1461C1.6435 12.1578 1.60389 12.1439 1.61347 12.191C1.6278 12.2616 1.66536 12.3844 1.70184 12.4524C1.72883 12.5028 1.75661 12.4235 1.76558 12.4962C1.76952 12.5285 1.72006 12.4842 1.72983 12.5438C1.73936 12.6027 1.79269 12.7448 1.81314 12.798C1.83374 12.8514 1.86108 12.8081 1.86523 12.8116C1.88946 12.8325 1.9455 12.9298 1.94868 12.9388C1.97282 13.0035 1.99533 13.0683 2.01669 13.133C2.14325 13.5182 2.2638 13.8905 2.47611 14.239C2.49543 14.2708 2.52101 14.2286 2.52434 14.2332C2.60122 14.3356 2.45333 14.3028 2.46374 14.3995C2.53307 14.3459 2.54484 14.3995 2.59777 14.4728C2.62337 14.508 2.6407 14.4708 2.64564 14.4726C2.72172 14.5026 2.68731 14.574 2.68161 14.5909C2.66024 14.6524 2.73452 14.6631 2.72067 14.7046C2.70724 14.7464 2.63113 14.7137 2.67604 14.7879C2.71513 14.7929 2.75181 14.6962 2.79673 14.7459C2.96549 14.9321 3.15393 15.3598 3.25171 15.5347C3.33445 15.6821 3.37373 15.7416 3.4147 15.8214C3.42217 15.8359 3.42964 15.8511 3.43736 15.8674C3.5271 16.0592 3.53894 15.961 3.62921 16.0612C3.7188 16.1609 3.55859 16.1796 3.54048 16.2118C3.52211 16.2435 3.56026 16.2442 3.55657 16.2729C3.55287 16.3016 3.50935 16.2691 3.53054 16.3193C3.55204 16.3699 3.67239 16.4678 3.71125 16.4692C3.79244 16.4701 3.82472 16.3761 3.87156 16.5134C3.87418 16.5212 3.82732 16.517 3.83906 16.5462C3.93419 16.779 4.0552 17.0079 4.14674 17.2407C4.15924 17.2727 4.10676 17.2656 4.11358 17.2844C4.18397 17.4803 4.21516 17.3821 4.33883 17.4457C4.23096 17.4718 4.20167 17.5588 4.27102 17.698C4.31323 17.7831 4.34801 17.7474 4.4049 17.7871C4.42191 17.7988 4.4227 17.8732 4.44798 17.8744C4.53058 17.8782 4.57577 17.7861 4.61808 17.9457C4.61987 17.9528 4.57419 17.9497 4.58296 17.973C4.63874 18.1232 4.71525 18.1074 4.79791 18.2585C4.86262 18.3767 4.92369 18.6139 4.98194 18.7557C4.87071 18.8042 4.95757 18.9239 5.05792 18.941C5.0972 19.0328 5.14717 19.1281 5.17733 19.2191C5.18803 19.2509 5.14691 19.2461 5.14528 19.2515C5.11908 19.3354 5.21071 19.3387 5.22288 19.3568C5.35085 19.5533 5.37779 19.7502 5.53286 19.9186C5.53844 19.9246 5.61894 19.8971 5.59157 19.977C5.58971 19.9825 5.52177 19.9362 5.56763 20.029C5.60955 20.1138 5.66033 20.2853 5.75421 20.3905C5.76224 20.3996 5.77054 20.4082 5.77913 20.4161C5.80589 20.4414 5.90901 20.4756 5.90426 20.563C5.90357 20.5748 5.87781 20.58 5.87445 20.5988C5.86445 20.6597 5.94754 20.6299 5.91894 20.7136C5.89047 20.7973 5.91396 20.9208 6.04831 21.0031C6.05255 21.0059 6.12641 20.989 6.15539 21.0237C6.20234 21.0803 6.26221 21.1655 6.31709 21.2202C6.34318 21.2461 6.35627 21.1998 6.3613 21.2038C6.55091 21.3584 6.65678 21.4992 6.86132 21.6676C6.89916 21.699 7.0445 21.729 7.0995 21.8155C7.16229 21.9107 6.96206 22.0347 7.202 22.1135C7.30167 22.1453 7.5225 21.9664 7.62292 22.1584C7.94144 22.2612 8.21784 22.4219 8.55754 22.4513C8.57276 22.4526 8.63494 22.3919 8.66883 22.4001C8.71935 22.4124 8.74044 22.4512 8.77698 22.4605C8.92893 22.4999 9.07555 22.4928 9.22397 22.5154C9.2807 22.5238 9.25679 22.5566 9.32465 22.5659C9.39272 22.5749 9.44231 22.5332 9.53262 22.5629C9.60092 22.5853 9.66509 22.6846 9.75889 22.7003C9.76679 22.607 9.83149 22.6126 9.94504 22.5911C9.9671 22.5869 9.94447 22.5537 9.95493 22.5501C9.99733 22.5344 10.0354 22.5621 10.0751 22.5444C10.0847 22.5401 10.0856 22.5082 10.0936 22.5029C10.1314 22.4771 10.1818 22.4881 10.2223 22.5049L10.2114 22.5056C10.2458 22.5146 10.2736 22.5283 10.2827 22.5327C10.3613 22.5704 10.3897 22.5249 10.4478 22.5361C10.5057 22.5474 10.4254 22.5815 10.4921 22.5842C10.6296 22.5898 10.8014 22.5612 10.9381 22.5438C10.9925 22.5367 10.9496 22.4996 10.9572 22.4976C11.0682 22.4713 11.1881 22.5005 11.239 22.4079C11.3465 22.615 11.3039 22.3771 11.4713 22.4007C11.4845 22.4028 11.5123 22.5039 11.4661 22.5248C11.4201 22.5457 11.3424 22.5231 11.2783 22.5557C11.263 22.5634 11.1848 22.6723 11.1735 22.6798C11.0819 22.7389 11.0471 22.5872 11.0407 22.5795C10.9693 22.4966 10.872 22.6157 10.8432 22.627C10.7126 22.6783 10.5955 22.672 10.4851 22.7104C10.4135 22.7353 10.4191 22.8369 10.3605 22.8414C10.3207 22.8444 10.2859 22.8412 10.2533 22.8356C10.2472 22.8362 10.2292 22.8377 10.2232 22.8376C10.0987 22.7998 10.0269 22.7293 9.87484 22.8223C9.83387 22.8468 9.86883 22.96 9.72763 22.8659C9.71857 22.86 9.61602 22.7743 9.55084 22.82C9.54258 22.8258 9.54043 22.8581 9.52987 22.86C9.45861 22.8722 9.41547 22.8426 9.33843 22.8474C9.26208 22.8522 9.16821 22.8599 9.08359 22.8373C9.03217 22.8238 8.97469 22.7542 8.9526 22.7358C8.89012 22.6831 8.80417 22.7387 8.77052 22.68C8.73739 22.6211 8.83438 22.5597 8.73043 22.5056C8.7101 22.5873 8.68378 22.67 8.6603 22.7515C8.41007 22.6981 8.17322 22.6075 7.9288 22.5278C7.89835 22.5178 7.91465 22.5713 7.8814 22.5616C7.7414 22.52 7.63439 22.4434 7.49126 22.3939C7.38016 22.3556 7.24234 22.3415 7.12676 22.2926C7.10514 22.1723 6.93212 22.1102 6.82561 22.0288C6.78832 22.0006 6.80505 21.9808 6.78273 21.9555C6.69877 21.8599 6.69764 21.9622 6.66174 21.9533C6.50744 21.9116 6.61254 21.7506 6.4799 21.6481C6.47326 21.6433 6.3216 21.6483 6.30584 21.6423C6.20479 21.6076 6.31746 21.605 6.27736 21.5583C6.20417 21.4716 6.16749 21.4018 6.05609 21.3279C6.02417 21.3073 5.91296 21.2805 5.9026 21.1923C5.90118 21.1807 5.9304 21.1627 5.92686 21.1556C5.86151 21.0269 5.77776 21.0908 5.69843 21.0483C5.61838 21.0045 5.60408 20.8584 5.60734 20.8255C5.61424 20.7396 5.65568 20.8539 5.66234 20.8534C5.73872 20.8499 5.67724 20.784 5.64294 20.7235C5.72316 20.6562 5.6671 20.5827 5.60797 20.6619C5.60169 20.671 5.63877 20.709 5.64294 20.7235C5.54385 20.7302 5.4779 20.6728 5.47091 20.5646C5.46986 20.5439 5.47107 20.5213 5.47475 20.497C5.48568 20.4272 5.55569 20.4451 5.45849 20.314C5.41532 20.2549 5.3663 20.3146 5.31736 20.2663C5.20594 20.1564 5.178 19.9544 5.10186 19.8238C5.07435 19.7766 5.06251 19.8417 5.04244 19.8099C4.98859 19.7245 4.97722 19.6329 4.921 19.5502C4.91582 19.5427 4.88816 19.5804 4.8743 19.5525C4.76875 19.342 4.70751 19.1481 4.60505 18.9283C4.55537 18.8216 4.44595 18.6431 4.39799 18.5321C4.31494 18.3399 4.25641 18.0825 4.16359 17.9287C4.10363 17.8291 4.07791 17.8701 4.03038 17.8379C3.93927 17.7774 3.94863 17.5813 3.95161 17.5543C3.95182 17.5535 4.00578 17.6377 4.00044 17.5808C4.02559 17.5332 3.95228 17.5552 3.95161 17.5543C3.95339 17.5361 3.87008 17.3549 3.8442 17.323C3.83028 17.3057 3.80136 17.3346 3.79476 17.3253C3.63969 17.1053 3.50393 16.8761 3.38746 16.6319C3.38579 16.6273 3.42741 16.6122 3.423 16.6017C3.3635 16.4566 3.26662 16.3952 3.17457 16.3C3.08959 16.2117 3.04749 16.1278 3.05965 16.0329C3.06077 16.0243 3.06236 16.0156 3.06443 16.0069C3.00643 15.928 2.962 15.79 2.93749 15.7109C2.91238 15.6306 2.83411 15.6656 2.82896 15.6604C2.66721 15.4979 2.64157 15.3635 2.52695 15.1599C2.47265 15.0634 2.34843 14.8801 2.27927 14.7793C2.22449 14.7 2.21278 14.6394 2.15808 14.568C2.15068 14.5582 2.12363 14.5874 2.12055 14.5849C2.03216 14.5193 2.1366 14.5165 2.14106 14.4905C2.15769 14.3959 2.16394 14.3413 2.07972 14.2414C2.06047 14.2186 1.9023 14.2023 1.87084 14.1563C1.83036 14.0968 1.88508 14.1 1.84226 14.038C1.83868 14.0326 1.81256 14.0465 1.79399 14.0043C1.70717 13.8077 1.63166 13.5852 1.55187 13.3771C1.54109 13.3486 1.51071 13.4015 1.49438 13.3604C1.48981 13.3488 1.48526 13.3371 1.48073 13.3253C1.41402 13.1521 1.34877 12.9644 1.30655 12.7889C1.29569 12.743 1.33649 12.7593 1.34214 12.7465C1.37604 12.6679 1.26519 12.6137 1.25865 12.6006C1.1001 12.2873 1.07982 12.0097 0.922967 11.6872C0.914146 11.6694 0.776863 11.5599 0.82798 11.4702C0.83131 11.464 0.884262 11.3742 0.81287 11.3379C0.808417 11.3357 0.783363 11.3883 0.763109 11.3195C0.742408 11.2494 0.677901 11.1508 0.687306 11.0407C0.690211 11.0058 0.741664 10.9106 0.650222 10.8419C0.64396 10.8377 0.460069 10.7475 0.537619 10.6655C0.550475 10.6521 0.653068 10.6268 0.566166 10.5378C0.549343 10.5205 0.539492 10.5654 0.507469 10.5158C0.458518 10.4405 0.449171 10.3211 0.372277 10.2338C0.358582 10.2181 0.265858 10.162 0.299211 10.0851C0.304395 10.0729 0.343777 10.0814 0.337486 10.0472C0.308482 9.88693 0.238499 9.72864 0.220435 9.56119C0.213875 9.50107 0.276476 9.51644 0.276473 9.4534C0.276467 9.39077 0.262992 9.26761 0.224119 9.20776C0.18544 9.14898 0.110654 9.2375 0.0843024 9.14198C0.00327127 8.80619 -0.0486565 8.45464 0.0967003 7.99181C0.129085 7.90532 0.162348 7.81979 0.195054 7.73456C0.217903 7.67558 0.169108 7.71353 0.20119 7.62613C0.317504 7.30103 0.533691 6.76926 0.699804 6.55444C0.833752 6.37843 0.768339 6.64371 0.85231 6.50058C0.892789 6.43065 0.823546 6.31508 0.826327 6.29754C0.850896 6.14584 0.908948 6.05466 0.932233 5.94099C0.936857 5.91779 0.940636 5.89438 0.943329 5.86975C0.94719 5.83417 0.898588 5.86031 0.902282 5.83029C0.914435 5.72801 0.952437 5.62594 0.964569 5.5307C0.96987 5.48794 0.936367 5.49058 0.944925 5.45226C0.964854 5.36038 0.989419 5.28157 1.02974 5.19561C1.03342 5.18767 1.06772 5.24754 1.07669 5.17931C1.09087 5.06944 1.13092 4.93385 1.10208 4.807C1.09326 4.76925 1.01916 4.76777 1.07024 4.68836C1.08066 4.67176 1.17128 4.69131 1.09135 4.59965C1.07854 4.58312 0.966792 4.43593 1.02605 4.35459C1.04193 4.33321 1.10975 4.27354 1.09285 4.2291C1.0903 4.22323 1.05341 4.25227 1.04507 4.21558C1.0428 4.20538 1.04058 4.19508 1.03842 4.18469C1.02116 4.12262 0.985283 3.99264 0.933498 3.88007C0.918521 3.84768 0.896988 3.9115 0.875697 3.86252C0.816043 3.72543 0.753957 3.53904 0.707908 3.38889C0.691295 3.33424 0.737805 3.358 0.739747 3.35278C0.771399 3.26818 0.679684 3.26019 0.667058 3.2416C0.588494 3.12301 0.583794 3.00815 0.526211 2.8905C0.510393 2.85789 0.483417 2.89611 0.477523 2.8907C0.418295 2.83352 0.504176 2.85968 0.494005 2.81266C0.465923 2.68119 0.409644 2.5434 0.358036 2.41688C0.339048 2.37039 0.315736 2.43898 0.299195 2.39695C0.200804 2.14807 0.114933 1.87684 0.0743753 1.59749C0.0670832 1.5451 0.108686 1.56957 0.113996 1.55714C0.151644 1.47359 0.0561926 1.37672 0.0449899 1.35086C-0.0069676 1.23333 0.017806 1.17881 0.00609382 1.06399C-0.0042527 0.893404 -0.01953 0.682519 0.13116 0.409254C0.284617 0.118175 0.672631 -0.00837976 0.882388 0.00410424C1.04423 0.00145137 1.30993 -0.0130148 1.54226 0.0351184C1.73977 0.0728892 1.95021 0.158791 2.11627 0.305517C2.43808 0.590959 2.66278 0.98329 2.70808 1.44655C2.71094 1.47506 2.71402 1.50364 2.71738 1.5323C2.72111 1.5642 2.76411 1.52737 2.76793 1.55464C2.81404 1.90536 2.85804 2.22434 2.98258 2.54012C2.99264 2.56583 3.02109 2.51383 3.03871 2.55442C3.07502 2.63712 3.11493 2.74466 3.13927 2.83621C3.15096 2.8802 3.09209 2.83964 3.10481 2.884C3.13511 2.98862 3.18263 3.09587 3.2399 3.19284C3.26458 3.23436 3.27161 3.14912 3.30064 3.20462C3.49343 3.56827 3.72126 3.9174 3.92045 4.30454C3.9255 4.31428 3.93053 4.32406 3.93554 4.33388C3.94977 4.36175 3.88956 4.43601 3.94178 4.48102C3.96559 4.47077 3.99009 4.45361 4.01373 4.44003C4.39635 4.97103 4.74319 5.5203 5.12093 6.05856C5.13687 6.08125 5.14857 6.01406 5.17963 6.05782C5.35937 6.31091 5.5464 6.54801 5.69361 6.83327C5.7082 6.86142 5.62962 6.89858 5.69477 6.96631C5.70626 6.97815 5.79785 7.08468 5.83415 7.10294C5.83929 7.10525 5.85651 7.06121 5.88393 7.09683C6.04278 7.30433 6.19852 7.53159 6.33433 7.7554C6.35605 7.79137 6.29543 7.78094 6.31058 7.80675C6.41951 7.99122 6.58455 8.15768 6.67654 8.34279C6.73743 8.46593 6.64958 8.47154 6.63567 8.57246C6.63337 8.58629 6.68405 8.65519 6.65324 8.68405C6.57624 8.75731 6.45934 8.795 6.38021 8.87695C6.36337 8.89491 6.45264 8.96819 6.36557 8.95111C6.35979 8.95006 6.29377 8.89592 6.26534 8.89144C6.24591 8.88866 6.22729 8.93469 6.19592 8.92262C6.1645 8.91045 6.17373 8.86347 6.12768 8.83706C6.08222 8.81181 6.05653 8.85847 5.99341 8.78463ZM2.82409 15.3517C2.81982 15.2663 2.68644 15.3348 2.75924 15.3855C2.76292 15.3878 2.8244 15.3561 2.82409 15.3517ZM8.20784 22.4938C8.13007 22.4024 8.03474 22.4731 8.08845 22.5435C8.14356 22.6139 8.23221 22.5216 8.20784 22.4938ZM9.23972 22.6495C9.13046 22.5839 9.08388 22.7916 9.21595 22.7647C9.22366 22.7632 9.24619 22.6533 9.23972 22.6495ZM6.41603 8.31673C6.41513 8.31884 6.45025 8.36863 6.45263 8.36851C6.51003 8.36575 6.4399 8.26637 6.41603 8.31673ZM10.2705 22.6442C10.2597 22.6376 10.2441 22.6363 10.2283 22.6387C10.1819 22.64 10.1364 22.6641 10.1688 22.69C10.1816 22.7001 10.2028 22.7026 10.2228 22.6999C10.2255 22.7 10.2333 22.6993 10.2359 22.6991C10.2724 22.6895 10.302 22.6635 10.2705 22.6442ZM1.33872 11.6982C1.34039 11.6963 1.32724 11.6545 1.31572 11.6597C1.27862 11.6764 1.31033 11.7297 1.33872 11.6982ZM11.9748 22.4224C11.7276 22.4328 11.5427 22.2869 11.829 22.2706C11.8804 22.2687 11.7251 22.3382 11.7918 22.3467C11.9109 22.3624 11.9825 22.2475 12.1066 22.3015C12.128 22.3111 11.9882 22.4217 11.9744 22.4227C11.9745 22.4226 11.9747 22.4225 11.9748 22.4224ZM2.95489 15.2212C2.95594 15.2191 2.92577 15.1661 2.92341 15.166C2.86577 15.1627 2.92617 15.269 2.95489 15.2212ZM0.64034 9.25239C0.643343 9.24825 0.617448 9.11225 0.613085 9.10839C0.521382 9.05258 0.574045 9.33165 0.64034 9.25239ZM4.98003 18.7593C5.05096 18.798 5.09017 18.8683 5.05785 18.9407C5.03325 18.8807 5.00506 18.8195 4.98003 18.7593Z" fill="#963076"/>
</svg>
