<svg width="5" height="15" viewBox="0 0 5 15" fill="none" xmlns="http://www.w3.org/2000/svg">
<path d="M0.00743899 0.143338C-0.00843238 0.233243 0.00337241 0.351592 0.0217349 0.439314C0.0274157 0.467193 0.0540419 0.453319 0.0591768 0.472593C0.0692031 0.510491 0.0560617 0.544135 0.0682762 0.581227C0.072457 0.593455 0.114459 0.578306 0.117885 0.591112C0.136368 0.661179 0.125941 0.72685 0.135433 0.797037C0.182397 1.14327 0.207437 1.47975 0.237801 1.82602C0.247785 1.94003 0.290679 2.07774 0.278202 2.19586C0.27671 2.20973 0.239591 2.20281 0.236648 2.20555C0.191644 2.24834 0.265503 2.23202 0.276336 2.25846C0.319115 2.36302 0.326787 2.48152 0.316174 2.58386C0.311545 2.62728 0.236862 2.58633 0.279467 2.62885C0.282349 2.6318 0.321067 2.61934 0.325659 2.63118C0.335998 2.65806 0.330785 2.70943 0.334593 2.73003C0.342147 2.77015 0.341991 2.77715 0.343716 2.81519C0.346396 2.86664 0.367896 2.92908 0.36075 2.98456C0.359108 2.99642 0.31853 2.98206 0.312287 3.00105C0.306077 3.02052 0.310995 3.07099 0.320929 3.08748C0.330876 3.10405 0.362183 3.09596 0.369493 3.09873C0.431172 3.12096 0.348351 3.18269 0.346444 3.18992C0.314456 3.32731 0.36505 3.44153 0.366329 3.56956C0.36717 3.66716 0.351435 3.76785 0.3521 3.859C0.352644 3.92044 0.358654 3.97687 0.361646 4.02992C0.363652 4.0752 0.365013 4.12145 0.362209 4.1692C0.361576 4.18095 0.314753 4.16598 0.313894 4.18044C0.30491 4.33444 0.312903 4.48794 0.3527 4.63789C0.35674 4.65289 0.397045 4.63117 0.403558 4.64595C0.442246 4.73742 0.535436 4.87204 0.361667 4.94458C0.374709 5.0063 0.390526 5.08178 0.433543 5.13272C0.461264 5.16561 0.50159 5.12527 0.488125 5.17138C0.485156 5.18174 0.444303 5.17409 0.442833 5.18931C0.436722 5.25363 0.459323 5.31996 0.448878 5.38476C0.446668 5.398 0.411168 5.40012 0.405439 5.4047C0.359234 5.44314 0.451768 5.47905 0.459742 5.48873C0.519439 5.56329 0.51258 5.62597 0.528645 5.70171C0.532421 5.7193 0.48163 5.70767 0.483612 5.725C0.494615 5.81508 0.518394 5.90572 0.558811 5.98671C0.567927 6.00473 0.603306 5.97801 0.609677 5.98612C0.637325 6.02192 0.56497 6.0483 0.590355 6.08292C0.595615 6.09021 0.628196 6.07745 0.632255 6.07802C0.695914 6.08677 0.618641 6.127 0.618329 6.13348C0.612333 6.21473 0.7105 6.24059 0.717696 6.31498C0.718504 6.32398 0.670879 6.31612 0.675767 6.34078C0.708132 6.50521 0.771096 6.6717 0.856023 6.81708C0.86917 6.83969 0.894734 6.81199 0.899099 6.81226C0.967548 6.81706 0.892227 6.85994 0.89187 6.86894C0.891031 6.93886 0.978511 6.9731 0.897972 7.04908C1.02418 7.29983 1.07544 7.58068 1.27076 7.7966C1.27314 7.79936 1.30888 7.77663 1.31345 7.7822C1.3634 7.8422 1.31541 7.85789 1.26942 7.92138C1.26416 7.92851 1.25893 7.93624 1.25387 7.94472C1.24143 7.9656 1.34642 7.96397 1.35439 7.96444C1.38368 7.96601 1.43444 7.92718 1.44091 7.92923C1.49255 7.94707 1.30268 8.02752 1.32401 8.07408C1.32499 8.07538 1.35667 8.05348 1.36188 8.05577C1.37815 8.06281 1.36995 8.08104 1.38723 8.08735C1.42712 8.1017 1.52246 8.06929 1.48867 8.13512C1.4842 8.14349 1.37446 8.18474 1.39856 8.22367C1.4082 8.23905 1.44019 8.31277 1.45663 8.33013C1.47302 8.34742 1.50064 8.31746 1.5028 8.31824C1.57353 8.35213 1.58252 8.32251 1.66216 8.31879C1.74153 8.31513 1.57917 8.38164 1.56668 8.40112C1.55424 8.42059 1.61032 8.44351 1.62791 8.44737C1.6455 8.45122 1.6614 8.42873 1.67284 8.43408C1.74786 8.46963 1.60599 8.49645 1.58978 8.5274C1.55133 8.60053 1.68565 8.58076 1.71658 8.61653C1.72496 8.62623 1.69388 8.62973 1.69607 8.64086C1.70509 8.68478 1.75295 8.69117 1.74061 8.75202C1.73861 8.76197 1.68514 8.83164 1.7481 8.83054C1.75715 8.83032 1.78193 8.807 1.79646 8.82067C1.81819 8.84107 1.8461 8.88329 1.84915 8.91484C1.8514 8.93817 1.79235 8.93834 1.81926 8.95625C1.83125 8.96419 1.84959 8.93013 1.86976 8.94616C1.88987 8.96208 1.91403 9.0158 1.92274 9.03648C1.93141 9.05713 1.88961 9.06358 1.88793 9.06638C1.87857 9.083 1.87955 9.13019 1.88124 9.1336C1.95975 9.30855 2.09805 9.43741 2.15978 9.61483C2.16466 9.62869 2.12205 9.63874 2.1224 9.64105C2.12833 9.69377 2.21289 9.60843 2.26242 9.62314C2.18242 9.65675 2.20563 9.66846 2.21268 9.70432C2.21601 9.72163 2.18183 9.72813 2.17943 9.73104C2.14486 9.77617 2.21164 9.76281 2.2257 9.76089C2.27748 9.75393 2.23299 9.79599 2.26775 9.79163C2.30225 9.7873 2.33432 9.74224 2.34878 9.77292C2.32519 9.79519 2.24138 9.80851 2.24102 9.83743C2.23945 9.9465 2.37697 10.0798 2.41815 10.1469C2.4588 10.2131 2.46523 10.2385 2.49569 10.2739C2.55074 10.3378 2.48325 10.3376 2.48204 10.3959C2.48081 10.4542 2.60129 10.3648 2.63297 10.3569C2.66456 10.3489 2.63897 10.3707 2.65859 10.3707C2.67819 10.3707 2.68872 10.3437 2.70405 10.3593C2.71934 10.3749 2.69498 10.4514 2.66893 10.4734C2.61347 10.5196 2.53585 10.5304 2.58444 10.5681C2.58727 10.5702 2.61712 10.5432 2.62621 10.5523C2.69702 10.6244 2.74531 10.7134 2.81406 10.7873C2.82351 10.7973 2.8563 10.7667 2.86223 10.7723C2.92385 10.8299 2.8464 10.8394 2.79548 10.9165C2.8861 10.8571 2.95607 10.8483 2.98492 10.9011C3.00284 10.9338 2.95828 10.9503 2.94033 10.9871C2.93491 10.9982 2.97571 11.0058 2.95841 11.0204C2.90204 11.0685 2.81876 11.0849 2.87746 11.1256C2.88015 11.1274 2.91074 11.1006 2.9175 11.1081C2.96143 11.1561 2.89744 11.197 2.92249 11.2617C2.94163 11.3116 3.02818 11.372 3.06394 11.4197C3.16889 11.359 3.17294 11.4223 3.11172 11.4834C3.13373 11.5148 3.15204 11.5556 3.18044 11.5809C3.19055 11.5902 3.21634 11.5649 3.22045 11.5644C3.2848 11.5562 3.22358 11.6123 3.22522 11.6212C3.24629 11.7162 3.33711 11.7457 3.33695 11.8534C3.33686 11.8567 3.28457 11.8976 3.31692 11.8962C3.32107 11.8959 3.32665 11.895 3.33394 11.8931C3.33591 11.8926 3.34023 11.883 3.3467 11.8757C3.35002 11.8719 3.35391 11.8688 3.35833 11.8677C3.36428 11.8662 3.37122 11.8686 3.37907 11.8784C3.40409 11.9096 3.48417 11.9483 3.4802 12.0162C3.47947 12.0328 3.438 12.096 3.49734 12.0918C3.5054 12.0912 3.52431 12.0757 3.53855 12.0734C3.58423 12.0668 3.51464 12.1167 3.58746 12.0988C3.66015 12.0809 3.73014 12.0956 3.71074 12.1708C3.71028 12.1732 3.65517 12.2144 3.66338 12.2299C3.67674 12.2549 3.70542 12.2868 3.71562 12.3151C3.72048 12.3286 3.678 12.3347 3.67816 12.3373C3.68804 12.4325 3.7418 12.4838 3.77547 12.5825C3.78189 12.6015 3.73225 12.6598 3.77976 12.6912C3.81997 12.7191 3.94955 12.6923 3.98701 12.7276C3.98749 12.7319 3.98672 12.7449 3.98668 12.7493C3.99642 12.7612 3.99727 12.778 3.98337 12.8012C3.95824 12.8465 3.69502 12.8458 3.81162 12.9388C3.74823 13.0576 3.76501 13.1976 3.66249 13.296C3.65789 13.3005 3.58461 13.2839 3.57935 13.2961C3.57148 13.3147 3.59634 13.3404 3.59131 13.3544C3.5885 13.3626 3.58495 13.3705 3.58087 13.378C3.55647 13.423 3.51405 13.454 3.49106 13.4986C3.48082 13.5181 3.51464 13.5305 3.50206 13.554C3.48908 13.5779 3.44085 13.5672 3.43941 13.6096C3.43862 13.6413 3.50085 13.7182 3.48823 13.7551C3.41107 13.7023 3.39823 13.7241 3.35213 13.7451C3.34323 13.7491 3.32245 13.7225 3.3169 13.7234C3.29369 13.7266 3.30655 13.7544 3.28258 13.7559C3.2768 13.7562 3.25124 13.7371 3.24514 13.7363C3.19244 13.7281 3.22333 13.8052 3.22837 13.819C3.24831 13.8704 3.20732 13.8552 3.20836 13.8836C3.20912 13.9124 3.24796 13.9016 3.24054 13.9287C3.22525 13.9848 3.17696 14.0341 3.14264 14.0757C3.12881 14.0922 3.10635 14.0531 3.10362 14.0548C3.06655 14.0809 3.07006 14.1449 2.99085 14.1059C3.13247 14.2763 2.95735 14.1113 2.94702 14.1871C2.94627 14.1931 3.01781 14.2686 3.04212 14.2648C3.0665 14.2609 3.06247 14.2174 3.09822 14.2134C3.10664 14.2124 3.20337 14.2503 3.21136 14.2502C3.27236 14.251 3.15975 14.144 3.15472 14.1369C3.10111 14.0588 3.20916 14.094 3.22237 14.0897C3.28293 14.0699 3.29583 14.0203 3.34286 13.9999C3.37352 13.9863 3.4547 14.0474 3.46731 14.0265C3.50922 13.9565 3.41185 13.8504 3.55516 13.8627C3.58586 13.8649 3.66671 13.943 3.62992 13.844C3.6277 13.8377 3.58675 13.7569 3.64256 13.7644C3.6496 13.7654 3.67635 13.7836 3.68095 13.7816C3.7114 13.7679 3.70039 13.7378 3.72741 13.7187C3.75459 13.6993 3.79024 13.677 3.79929 13.6407C3.80493 13.6187 3.76681 13.5645 3.75895 13.5486C3.74145 13.513 3.78292 13.5099 3.78535 13.4911C3.78607 13.4857 3.78351 13.479 3.7753 13.4701C3.73816 13.43 3.65341 13.4216 3.645 13.3668C3.71986 13.4051 3.79779 13.4423 3.87377 13.4795C3.92064 13.3849 3.94122 13.278 3.98308 13.1749C3.98834 13.162 4.02592 13.191 4.03274 13.1772C4.06127 13.1184 4.04722 13.0543 4.07546 12.9906C4.09747 12.9414 4.15544 12.89 4.17439 12.8321C4.13536 12.8118 4.12041 12.7864 4.11511 12.7588C4.11518 12.7514 4.11647 12.7293 4.11567 12.722C4.10437 12.6867 4.10962 12.6449 4.10068 12.6112C4.09525 12.5908 4.06986 12.5954 4.05965 12.582C4.02123 12.5326 4.10875 12.5449 4.1196 12.5274C4.16395 12.4499 3.97429 12.4816 3.96176 12.4118C3.96133 12.4086 4.04713 12.3344 4.05088 12.3253C4.07782 12.2712 4.01469 12.3288 3.99942 12.3056C3.97109 12.2633 3.93731 12.2417 3.94421 12.1789C3.94654 12.1609 3.98925 12.0982 3.93082 12.0899C3.9232 12.0889 3.89343 12.1053 3.89025 12.1031C3.83528 12.0644 3.92981 12.0164 3.9457 11.9684C3.96131 11.92 3.87079 11.909 3.84738 11.911C3.78628 11.9147 3.8374 11.9407 3.8334 11.9447C3.78591 11.991 3.77765 11.9534 3.75895 11.9323C3.6668 11.9815 3.65324 11.9466 3.7399 11.9104C3.74945 11.9065 3.75204 11.9299 3.75895 11.9323C3.83523 11.8597 3.82259 11.8132 3.71683 11.8255C3.66733 11.8315 3.63445 11.8766 3.61541 11.8126C3.6066 11.7837 3.67265 11.7531 3.67444 11.7206C3.67565 11.6979 3.66716 11.6798 3.65417 11.6641C3.62938 11.6355 3.57909 11.6134 3.56465 11.5769C3.55683 11.5573 3.60089 11.5534 3.5967 11.5393C3.58744 11.5045 3.54412 11.4905 3.53856 11.452C3.53808 11.4485 3.57748 11.434 3.57213 11.4241C3.53063 11.3459 3.47077 11.2953 3.42368 11.2138C3.40188 11.1762 3.38175 11.0936 3.35584 11.056C3.30956 10.9882 3.2096 10.9295 3.1899 10.8619C3.17664 10.8175 3.21766 10.8067 3.23319 10.7762C3.26387 10.7181 3.14683 10.7055 3.12916 10.7043C3.1286 10.7044 3.13837 10.7436 3.10988 10.735C3.06521 10.7448 3.1292 10.7048 3.12916 10.7043C3.1175 10.7032 3.07337 10.6395 3.07307 10.6219C3.07297 10.6124 3.10975 10.5985 3.10904 10.5939C3.09142 10.4849 3.05263 10.3884 2.98793 10.3023C2.98638 10.301 2.9488 10.3235 2.94562 10.3201C2.90027 10.2743 2.9303 10.2155 2.93544 10.1557C2.94075 10.0961 2.91346 10.0657 2.83292 10.0726C2.82395 10.0339 2.76992 10.0003 2.73776 9.9811C2.70561 9.96189 2.77962 9.91979 2.77988 9.91656C2.78914 9.81493 2.72343 9.79221 2.67666 9.71504C2.65446 9.67875 2.62765 9.5967 2.61576 9.55149C2.60636 9.51546 2.57876 9.50447 2.57531 9.46853C2.57482 9.46367 2.61084 9.45114 2.61153 9.44925C2.63558 9.39543 2.5605 9.45251 2.54224 9.4528C2.47592 9.45407 2.43951 9.45253 2.44375 9.39678C2.44468 9.38394 2.5502 9.29634 2.54835 9.27474C2.54575 9.24684 2.50714 9.27665 2.50551 9.24686C2.50533 9.24433 2.53204 9.23188 2.52345 9.21718C2.48386 9.14865 2.43099 9.07878 2.39801 9.00352C2.39341 8.99329 2.44175 8.98595 2.4358 8.97085C2.40788 8.90013 2.37034 8.82583 2.31872 8.76852C2.30588 8.75447 2.28127 8.77887 2.2708 8.77949C2.20727 8.7829 2.26956 8.71504 2.26859 8.70923C2.24741 8.56926 2.13317 8.50862 2.10769 8.36797C2.10642 8.36021 2.16472 8.26894 2.0827 8.27899C2.07721 8.27958 1.9937 8.29073 2.03382 8.24685C2.03634 8.24412 2.08057 8.24104 2.06495 8.2176C2.04934 8.19415 2.05547 8.14199 1.99822 8.12673C1.9802 8.12195 1.89538 8.12968 1.93811 8.06998C1.94113 8.06592 2.0488 7.95471 1.95008 7.97872C1.93382 7.98265 1.8396 8.03026 1.87054 7.96832C1.87659 7.95642 1.90424 7.96015 1.90845 7.93424C1.91504 7.89452 1.87098 7.86645 1.89676 7.81004C1.90139 7.80021 1.95368 7.74255 1.89418 7.74318C1.88486 7.74327 1.85586 7.76453 1.84693 7.75451C1.82661 7.73182 1.81486 7.70462 1.80301 7.67751C1.79031 7.64841 1.77756 7.61927 1.75316 7.59588C1.73672 7.57999 1.68911 7.61305 1.66615 7.5989C1.64316 7.5847 1.61161 7.54917 1.62627 7.51744C1.64096 7.48576 1.73427 7.47309 1.72733 7.43851C1.69731 7.28832 1.5926 7.17082 1.53218 7.0327C1.52325 7.01225 1.5601 7.01809 1.54922 6.98723C1.50871 6.87316 1.46977 6.66766 1.37247 6.58927C1.29405 6.52577 1.28649 6.64004 1.2453 6.58507C1.2255 6.55826 1.31618 6.49461 1.31717 6.48659C1.32776 6.40662 1.26864 6.37178 1.26406 6.30422C1.26317 6.29035 1.30794 6.29133 1.30674 6.2797C1.30309 6.24003 1.27358 6.20529 1.26707 6.16811C1.26426 6.15142 1.29659 6.14588 1.29015 6.13166C1.27515 6.09764 1.25351 6.06925 1.2149 6.0419C1.21138 6.03937 1.17756 6.07109 1.16927 6.04476C1.15604 6.00238 1.11323 5.95503 1.13181 5.89807C1.13742 5.881 1.20993 5.86347 1.15237 5.84335C1.14036 5.83914 1.05489 5.86759 1.12195 5.81323C1.133 5.80398 1.22121 5.71961 1.14898 5.70341C1.12995 5.69913 1.05381 5.6936 1.06138 5.67331C1.06268 5.67052 1.10394 5.67207 1.10471 5.6565C1.1067 5.60145 1.09187 5.54812 1.09425 5.49197C1.09498 5.47707 1.13969 5.49075 1.13952 5.46888C1.13916 5.40904 1.11635 5.33803 1.09458 5.28291C1.08646 5.26255 1.0548 5.28244 1.05086 5.28149C0.98687 5.26591 1.06583 5.23877 1.06935 5.22997C1.09016 5.17513 1.04652 5.1413 1.05054 5.09314C1.05155 5.07982 1.09157 5.08402 1.09469 5.08099C1.12511 5.04995 1.05791 5.07876 1.04807 5.06272C1.02032 5.01784 1.01735 4.96431 1.01738 4.91565C1.01747 4.89783 1.06464 4.91298 1.06421 4.89714C1.06255 4.80305 1.05067 4.70738 1.02068 4.61776C1.01495 4.6009 0.980641 4.61355 0.972474 4.6104C0.915331 4.58841 0.989799 4.54846 0.996725 4.53988C1.02829 4.50072 0.99694 4.48738 1.00178 4.45402C1.01994 4.33154 1.01482 4.19009 1.01166 4.06291C1.01094 4.01328 1.00892 3.96301 1.00678 3.91954C0.995161 3.68977 0.958613 3.51983 0.962962 3.31166C0.96317 3.29845 1.00996 3.31073 1.01073 3.2993C1.01856 3.15131 0.99604 3.00685 1.00468 2.85995C1.0053 2.84779 1.04993 2.86373 1.05241 2.84431C1.05782 2.80492 1.05374 2.7548 1.03828 2.7149C1.03084 2.69581 0.99393 2.72303 0.987212 2.70378C0.971484 2.65907 0.966614 2.60969 0.972025 2.56277C0.974425 2.54284 1.02054 2.57116 1.02015 2.54536C1.01836 2.3687 1.01981 2.19563 0.95532 2.02026C0.950894 2.00826 0.858953 2.00078 0.875628 1.97433C0.900974 1.97151 0.930873 1.97059 0.958007 1.96881C0.963904 1.71289 0.924259 1.46173 0.913779 1.20732C0.91335 1.19662 0.962287 1.21405 0.961706 1.19336C0.958413 1.07304 0.969891 0.957042 0.920413 0.835103C0.91558 0.823023 0.830218 0.83001 0.842828 0.794157C0.845118 0.787906 0.856131 0.733936 0.874618 0.719762C0.877405 0.717856 0.917317 0.727485 0.918394 0.710109C0.923973 0.610048 0.915101 0.504704 0.891966 0.404664C0.888156 0.388653 0.845495 0.405126 0.842416 0.393703C0.820912 0.311466 0.855095 0.223578 0.819103 0.145931C0.794936 0.0930353 0.720961 0.109527 0.64983 0.0788454C0.639788 0.0744404 0.639506 0.0420547 0.597604 0.038603C0.492209 0.0296604 0.375913 0.0406831 0.26365 0.029325C0.239449 0.0268238 0.267571 -0.0167279 0.207803 0.00712124C0.203789 0.00875048 0.18294 0.0406672 0.162751 0.0481022C0.148782 0.0532518 0.106486 0.0412354 0.0884316 0.0522238C0.0703965 0.0632667 0.105703 0.0775006 0.0843418 0.0963831C0.0627423 0.115339 0.0144009 0.105104 0.00743899 0.143338ZM2.59369 9.8941C2.54408 9.88612 2.67601 9.81557 2.65809 9.85982C2.65707 9.86204 2.59615 9.89456 2.59369 9.8941ZM3.83493 13.2317C3.79033 13.1685 3.89061 13.1778 3.92661 13.225C3.96185 13.2734 3.84807 13.2516 3.83493 13.2317ZM3.59608 13.5783C3.57595 13.512 3.76142 13.6151 3.69768 13.6368C3.69402 13.6381 3.59719 13.5822 3.59608 13.5783ZM0.625039 0.208028C0.623059 0.207552 0.621777 0.183955 0.623765 0.183472C0.671588 0.17236 0.674122 0.219317 0.625039 0.208028ZM3.32062 13.8782C3.30679 13.8494 3.3578 13.8374 3.37532 13.8731C3.38935 13.902 3.33768 13.9143 3.32062 13.8782ZM1.78314 8.58653C1.78093 8.58706 1.77188 8.57255 1.78342 8.56749C1.82062 8.55125 1.82033 8.5775 1.78314 8.58653ZM2.86958 14.3836C2.93419 14.306 2.84744 14.1425 2.78816 14.233C2.77726 14.2494 2.85744 14.2416 2.85165 14.2704C2.84072 14.3232 2.74131 14.2676 2.75065 14.3419C2.75235 14.3555 2.86627 14.3883 2.86987 14.3837C2.86977 14.3837 2.86967 14.3836 2.86958 14.3836ZM2.4254 9.95916C2.42337 9.95952 2.41117 9.93923 2.41267 9.93784C2.44947 9.90524 2.47407 9.94608 2.4254 9.95916ZM1.28249 7.72188C1.27807 7.72238 1.2525 7.6734 1.25539 7.67021C1.31531 7.6133 1.36686 7.71143 1.28249 7.72188ZM3.06723 11.419C3.03881 11.4657 3.0495 11.4957 3.1116 11.4833C3.09621 11.463 3.08288 11.4406 3.06723 11.419Z" fill="#963076"/>
</svg>
