<svg width="10" height="10" viewBox="0 0 10 10" fill="none" xmlns="http://www.w3.org/2000/svg">
<path d="M0.765061 2.88297C0.845821 2.73009 0.922603 2.53568 0.983614 2.38777C1.00256 2.34166 0.967359 2.35027 0.979683 2.3179C1.00436 2.25412 1.0479 2.2073 1.07324 2.14493C1.08157 2.1242 1.0314 2.12457 1.04111 2.10317C1.0856 2.00645 1.14711 1.92711 1.20847 1.84284C1.2218 1.82456 1.2349 1.80636 1.24814 1.78736C1.44921 1.49775 1.69326 1.2611 1.99273 1.00622C2.09298 0.904786 2.43425 0.832476 2.72433 0.798656C2.94594 0.771095 3.22229 0.721672 3.46108 0.734264C3.48842 0.735768 3.47277 0.772899 3.47802 0.775845C3.56063 0.821051 3.53352 0.747087 3.58675 0.736577C3.6521 0.723991 3.71928 0.715052 3.78905 0.709246C3.9321 0.69595 4.07651 0.709016 4.14081 0.75358C4.14272 0.754676 4.14461 0.755777 4.14647 0.756884C4.19969 0.791037 4.11093 0.826139 4.1814 0.819405C4.18649 0.819324 4.19395 0.777805 4.21058 0.783336C4.24903 0.795117 4.30286 0.851632 4.32814 0.875531C4.37755 0.920521 4.38487 0.931001 4.42641 0.986034C4.4832 1.06208 4.56418 1.15607 4.61288 1.25716C4.623 1.27843 4.57413 1.27178 4.5853 1.30639C4.5854 1.30682 4.58552 1.30724 4.58564 1.30768C4.59473 1.33474 4.62801 1.4011 4.64468 1.42387C4.66201 1.44594 4.68849 1.42595 4.69688 1.42835C4.76965 1.45131 4.70651 1.57149 4.70467 1.58224C4.70107 1.77161 4.70689 1.95249 4.6881 2.15569C4.6866 2.18344 4.67974 2.2126 4.6659 2.2427C4.61129 2.36465 4.45551 2.48369 4.31507 2.58579C4.14582 2.70931 3.99204 2.82036 3.79827 2.92794C3.77779 2.93935 3.778 2.88477 3.75295 2.89863C3.60006 2.9854 3.44499 3.06812 3.28447 3.21459C3.24135 3.25501 3.20382 3.30005 3.17179 3.35099C3.15584 3.3765 3.14109 3.40345 3.12745 3.43502C3.12059 3.45107 3.11394 3.46793 3.10714 3.49069C3.10365 3.50279 3.10009 3.51515 3.09643 3.53715C3.09475 3.54924 3.09235 3.56063 3.09281 3.59016C3.09379 3.60415 3.09266 3.62313 3.10675 3.66538C3.1102 3.69607 3.19475 3.82296 3.31823 3.82142C3.38563 3.82017 3.45593 3.81099 3.52498 3.79039C3.56535 3.77766 3.50363 3.74987 3.54185 3.73456C3.80241 3.64018 3.91349 3.30572 4.11788 3.34797C4.16928 3.27523 4.21837 3.21863 4.25233 3.18279C4.27482 3.16528 4.29674 3.14711 4.31588 3.12874C4.36894 3.07888 4.28888 3.06526 4.37519 3.04817C4.39456 3.04446 4.38731 3.09061 4.41506 3.08243C4.53164 3.04818 4.65168 2.98938 4.77299 2.96979C4.7975 2.96597 4.80248 3.00168 4.81104 3.00552C4.88196 3.03597 4.94819 2.9259 4.96722 2.91379C5.10944 2.8226 5.23042 2.80932 5.37773 2.77285C5.41202 2.76446 5.38245 2.82028 5.41562 2.81396C5.58759 2.7807 5.76414 2.74188 5.93023 2.69409C5.96721 2.68338 5.92618 2.64885 5.94361 2.64169C6.02097 2.6108 6.04958 2.68401 6.12361 2.65748C6.13927 2.65204 6.12577 2.61882 6.12823 2.61467C6.15115 2.57607 6.17857 2.58801 6.19922 2.6044C6.21389 2.61568 6.22531 2.62907 6.23033 2.62926C6.38237 2.63791 6.47315 2.54101 6.62065 2.54443C6.6384 2.54499 6.60136 2.59106 6.65074 2.59003C6.97791 2.58407 7.31852 2.57915 7.6371 2.59928C7.68697 2.60269 7.65798 2.56403 7.66165 2.56055C7.72456 2.50742 7.74066 2.59793 7.7554 2.60438C7.87196 2.65281 8.00924 2.6204 8.05484 2.74498C8.1846 2.78189 8.2988 2.83631 8.4346 2.90412C8.39086 2.81046 8.4284 3.04249 8.38278 3.18479C8.34932 3.35774 8.19152 3.5632 8.05381 3.7658C8.04975 3.77153 8.0886 3.79159 8.08029 3.80297C7.97869 3.94024 7.95474 3.87056 7.81927 3.89199C7.78526 3.89716 7.78956 4.02732 7.78896 4.03798C7.78735 4.07612 7.85179 4.10001 7.84871 4.11013C7.83122 4.16365 7.76765 4.11771 7.70322 4.10156C7.67084 4.0901 7.64085 4.08443 7.6186 4.10425C7.61671 4.1064 7.65079 4.12682 7.64764 4.13469C7.63806 4.15911 7.60952 4.16307 7.59903 4.18761C7.57424 4.24405 7.61109 4.34156 7.50276 4.33992C7.48888 4.33911 7.44368 4.23144 7.37194 4.27811C7.34383 4.29771 7.20426 4.3642 7.16643 4.38804C7.1293 4.41263 7.17193 4.43505 7.16973 4.4378C7.07892 4.53086 7.12784 4.53214 7.0984 4.62367C7.06631 4.7152 7.01983 4.54506 6.98955 4.53571C6.95942 4.5265 6.89021 4.59525 6.87337 4.61602C6.85687 4.63688 6.89111 4.65035 6.87498 4.66449C6.76704 4.75689 6.79309 4.60033 6.74392 4.58736C6.62904 4.55545 6.59267 4.70204 6.50575 4.74003C6.48273 4.75011 6.49427 4.7161 6.47214 4.71944C6.38981 4.73218 6.34952 4.77842 6.25737 4.77618C6.25058 4.77594 6.24369 4.77532 6.23649 4.77433C6.21838 4.77274 6.1314 4.71151 6.09258 4.77382C6.08665 4.78287 6.11109 4.81264 6.07613 4.82406C6.06338 4.82829 6.04454 4.83265 6.03133 4.83507C6.03139 4.83515 6.03066 4.83516 6.03282 4.83531C6.03341 4.83535 6.03418 4.8354 6.03567 4.83557C6.03605 4.83561 6.03647 4.83566 6.03698 4.83573C6.03653 4.83575 6.03871 4.83564 6.04569 4.83751C6.03811 4.83179 6.11993 4.86388 6.07528 4.93239C6.01279 4.9733 6.05264 4.94606 6.04206 4.95264C6.03811 4.95341 6.03763 4.95332 6.03702 4.95338C6.03606 4.95335 6.03729 4.95311 6.03786 4.95296C6.03967 4.95261 6.04149 4.95228 6.04398 4.95196C6.04813 4.95134 6.05294 4.95079 6.05793 4.95031C6.06777 4.94936 6.07734 4.94869 6.08791 4.94828C6.12761 4.94673 6.16604 4.94795 6.19548 4.9534C6.24075 4.96177 6.18861 5.01468 6.24526 4.99864C6.27029 4.99152 6.22442 4.95977 6.27138 4.94901C6.319 4.93816 6.43892 4.94197 6.48464 4.94449C6.53047 4.94694 6.50409 4.98667 6.50774 4.9895C6.52914 5.00569 6.61614 5.02838 6.62333 5.02869C7.01047 5.04864 7.37226 5.01667 7.74828 5.08865C7.77771 5.09415 7.75253 5.13396 7.75696 5.13524C7.85633 5.16604 7.79068 5.04317 7.86658 5.01462C7.84528 5.09921 7.8892 5.0891 7.95989 5.10759C7.99396 5.11654 7.97094 5.14746 7.97367 5.15127C8.01893 5.20827 8.06299 5.14726 8.07378 5.13499C8.11371 5.0899 8.14421 5.1523 8.17115 5.12201C8.19798 5.09193 8.15013 5.03766 8.21894 5.04585C8.23496 5.07877 8.17482 5.1538 8.22611 5.17252C8.2363 5.17623 8.24703 5.17966 8.25827 5.18284C8.43364 5.22002 8.70001 5.33125 8.79751 5.4504C8.88025 5.53969 8.90991 5.59028 8.95306 5.64102C8.96202 5.65154 8.97116 5.66243 8.98113 5.67467C9.06879 5.79759 8.98752 5.77548 8.98874 5.86597C8.9834 5.95855 9.11721 5.8863 9.15158 5.89289C9.18582 5.90156 9.15664 5.9233 9.17696 5.9388C9.19724 5.95464 9.21205 5.91051 9.22556 5.9536C9.24002 5.99815 9.19424 6.12312 9.16144 6.13981C9.09293 6.17592 9.0169 6.12877 9.04802 6.23721C9.04982 6.24354 9.08786 6.22128 9.09275 6.24545C9.12976 6.44008 9.12897 6.64784 9.15734 6.84669C9.16126 6.8741 9.20434 6.8493 9.20711 6.86505C9.23654 7.02988 9.163 6.97186 9.08354 7.06446C9.19109 7.04188 9.25754 7.09085 9.26197 7.21561C9.26487 7.29112 9.21738 7.279 9.18612 7.32981C9.18539 7.33101 9.18492 7.33244 9.18468 7.33406C9.18204 7.35251 9.20801 7.39838 9.18717 7.407C9.11291 7.43555 9.03768 7.3868 9.05879 7.50132C9.05966 7.50656 9.10108 7.49538 9.10117 7.51335C9.09742 7.63182 9.02023 7.62744 8.96921 7.73112C8.9301 7.81176 8.8745 7.98316 8.80468 8.08221C8.84467 8.11191 8.85275 8.14179 8.84138 8.1657C8.82508 8.20019 8.76909 8.22009 8.71472 8.20704C8.66704 8.26634 8.60634 8.32084 8.55949 8.37813C8.54326 8.39785 8.57888 8.41315 8.57903 8.4181C8.58029 8.49636 8.50106 8.4555 8.48661 8.46294C8.32958 8.54743 8.23214 8.6752 8.05031 8.69126C8.0436 8.69179 8.00186 8.61855 7.98459 8.6924C7.98326 8.69748 8.0505 8.71131 7.977 8.74465C7.90453 8.77791 7.77086 8.87044 7.6498 8.86132C7.62051 8.8595 7.5379 8.80982 7.49574 8.87392C7.49007 8.88263 7.50334 8.90442 7.4957 8.9199C7.4703 8.96939 7.43437 8.89001 7.40835 8.96912C7.38248 9.04817 7.305 9.11854 7.18041 9.08835C7.17632 9.08755 7.13834 9.02541 7.1022 9.03214C7.0981 9.03291 7.09389 9.03375 7.08958 9.03466C7.03325 9.04668 6.95954 9.06866 6.90291 9.07443C6.87356 9.07741 6.88785 9.03368 6.88268 9.03348C6.68638 9.03013 6.55034 9.07402 6.33891 9.09117C6.3001 9.09445 6.18997 9.03617 6.11432 9.07928C6.03082 9.12646 6.10904 9.33475 5.92095 9.27977C5.84635 9.2581 5.75484 8.9927 5.61705 9.12926C5.58822 9.12598 5.55921 9.12436 5.531 9.12427C5.29696 9.12364 5.07516 9.17836 4.83683 9.13154C4.82498 9.12921 4.78831 9.05557 4.76058 9.05576C4.71884 9.05617 4.69465 9.08934 4.66488 9.09039C4.53911 9.09537 4.42643 9.05905 4.3071 9.04996C4.26189 9.04608 4.27321 9.08333 4.21815 9.07719C4.18405 9.073 4.15955 9.05089 4.13037 9.03505C4.11189 9.02509 4.09115 9.01776 4.06223 9.017C4.00577 9.01587 3.91234 9.08072 3.83219 9.04755C3.87609 8.96459 3.82799 8.94123 3.77074 8.86594C3.75998 8.85152 3.79458 8.83723 3.79062 8.82914C3.77546 8.79603 3.73519 8.79739 3.72353 8.76288C3.72078 8.75462 3.74167 8.73048 3.7407 8.72242C3.73394 8.65391 3.62235 8.64569 3.60277 8.64385C3.52808 8.63701 3.53803 8.58801 3.49341 8.56953C3.4486 8.55076 3.47928 8.61511 3.4341 8.58547C3.34161 8.52497 3.24774 8.4214 3.16928 8.34491C3.13825 8.31436 3.18938 8.30527 3.18564 8.30021C3.14671 8.25079 3.08986 8.22095 3.06395 8.1755C3.05186 8.15476 3.04693 8.13084 3.05425 8.10044C2.85623 8.2138 3.02944 8.04746 2.90786 7.98725C2.89823 7.98252 2.81486 8.0458 2.83195 8.08481C2.84914 8.12387 2.91466 8.14334 2.93761 8.19869C2.94149 8.20796 2.93584 8.27123 2.9338 8.31198C2.93071 8.32713 2.92996 8.34002 2.93085 8.34334C2.95338 8.43013 3.07117 8.32879 3.07996 8.32547C3.1782 8.29345 3.16787 8.43168 3.17894 8.45323C3.23185 8.5539 3.31084 8.6038 3.35887 8.68616C3.39003 8.73941 3.32241 8.81547 3.35906 8.84749C3.4857 8.95575 3.61343 8.88701 3.67574 9.08586C3.69224 9.12785 3.59611 9.20319 3.76897 9.20364C3.78121 9.20503 3.90858 9.18041 3.94627 9.24649C3.95114 9.25506 3.93989 9.28541 3.94873 9.29144C3.98497 9.31543 4.01801 9.31979 4.053 9.32599C4.08267 9.33174 4.10782 9.33579 4.1356 9.3458C4.20483 9.37072 4.27867 9.39775 4.3522 9.39362C4.39615 9.39119 4.45461 9.33507 4.47582 9.3217C4.53491 9.28319 4.59091 9.35583 4.62816 9.30594C4.66491 9.2557 4.60148 9.17451 4.69226 9.14465C4.69246 9.22878 4.69712 9.31529 4.69979 9.39997C4.90223 9.4039 5.09944 9.37628 5.29943 9.37446C5.32426 9.3743 5.30011 9.42021 5.32694 9.42117C5.40302 9.42368 5.47197 9.40783 5.54462 9.39913C5.5735 9.39522 5.6047 9.3938 5.63842 9.39772C5.71836 9.40715 5.80977 9.4576 5.90029 9.47252C5.95894 9.37809 6.09561 9.41548 6.1989 9.40827C6.23464 9.40579 6.23292 9.38005 6.25839 9.37194C6.35507 9.3416 6.30948 9.42622 6.33625 9.43968C6.45253 9.49612 6.4598 9.30402 6.59305 9.3037C6.59973 9.30378 6.69302 9.40156 6.70611 9.40693C6.78679 9.44322 6.71669 9.37054 6.76443 9.35948C6.85176 9.33873 6.90966 9.30863 7.01636 9.32537C7.03975 9.32913 7.09169 9.3604 7.13855 9.35021C7.15323 9.34699 7.16721 9.33942 7.17922 9.32516C7.18563 9.31758 7.17617 9.28476 7.1818 9.28185C7.28439 9.23158 7.30507 9.33574 7.37478 9.35983C7.44462 9.38392 7.52922 9.29138 7.544 9.26629C7.58412 9.20145 7.49954 9.25197 7.4956 9.24711C7.45001 9.19112 7.52219 9.18775 7.57462 9.17015C7.5592 9.06672 7.63366 9.05536 7.62889 9.15211C7.62821 9.16278 7.58418 9.16314 7.57462 9.17015C7.64382 9.25953 7.73477 9.25139 7.80022 9.13285C7.83038 9.0769 7.77545 9.0404 7.90762 9.01786C7.96769 9.00657 7.96893 9.08229 8.02773 9.08186C8.16379 9.08016 8.29094 8.94899 8.40955 8.89168C8.45334 8.87058 8.43235 8.92852 8.46332 8.91484C8.54625 8.87762 8.59542 8.80877 8.67594 8.76636C8.68334 8.76247 8.69234 8.80757 8.71528 8.79052C8.87551 8.67077 8.98426 8.52965 9.10336 8.37399C9.11336 8.36081 9.12359 8.34744 9.13413 8.33375C9.19621 8.25562 9.32797 8.10534 9.37727 7.98927C9.472 7.79186 9.46221 7.50769 9.46569 7.33681C9.46593 7.33182 9.46622 7.32707 9.46656 7.32256C9.47489 7.24246 9.51454 7.25901 9.54009 7.2202C9.59187 7.14397 9.49177 7.0113 9.4765 6.99358C9.47595 6.99319 9.46768 7.07216 9.44575 7.03038C9.40123 7.00664 9.47633 6.99457 9.4765 6.99358C9.46638 6.9815 9.45533 6.8229 9.46318 6.79101C9.46739 6.77397 9.50649 6.78327 9.50795 6.77422C9.54098 6.55958 9.55586 6.34458 9.52153 6.10063C9.52043 6.09633 9.47734 6.10597 9.47529 6.09595C9.4445 5.95732 9.48597 5.85611 9.47687 5.70681C9.46771 5.56253 9.39047 5.43816 9.28069 5.40439C9.27743 5.40407 9.27412 5.4038 9.27076 5.40359C9.23327 5.33472 9.12901 5.2503 9.06206 5.20596C8.99617 5.16213 9.04726 5.09508 9.04341 5.08836C8.91319 4.88688 8.73858 4.8277 8.49184 4.76719C8.44308 4.75591 8.37568 4.74116 8.30475 4.73149C8.23054 4.7202 8.14976 4.70413 8.09541 4.69195C8.02304 4.67558 7.97606 4.68964 7.9091 4.66822C7.90004 4.66534 7.91423 4.62899 7.91159 4.62718C7.84058 4.57239 7.8657 4.66893 7.84773 4.68328C7.78224 4.73549 7.74288 4.7626 7.64672 4.72217C7.6245 4.71288 7.57339 4.57245 7.53128 4.55976C7.47718 4.5436 7.49239 4.59337 7.43579 4.57548C7.43089 4.57401 7.43531 4.54481 7.39884 4.54223C7.23082 4.52998 7.04587 4.53154 6.87117 4.5183C6.84732 4.5166 6.88079 4.47173 6.84613 4.46854C6.6838 4.45363 6.50489 4.44917 6.34773 4.46841C6.30895 4.47329 6.33268 4.50642 6.32412 4.516C6.27117 4.57392 6.20047 4.48792 6.18769 4.48623C6.15411 4.48114 6.1209 4.47783 6.08791 4.4759C6.07117 4.47509 6.05497 4.4746 6.03472 4.47482C6.02908 4.4749 6.02385 4.475 6.01661 4.47529C6.01314 4.47543 6.00856 4.47563 6.00147 4.47612C5.99452 4.47675 5.99899 4.47591 5.975 4.47879C5.96738 4.47992 5.95945 4.48059 5.93539 4.48595C5.93226 4.48667 5.9288 4.4875 5.92482 4.48853C5.91283 4.49472 5.94939 4.47156 5.83025 4.52559C5.80019 4.54437 5.75157 4.56316 5.68179 4.66007C5.60336 4.74494 5.58462 5.01011 5.67615 5.12063C5.84398 5.32688 5.89147 5.27802 5.92404 5.30055C5.98804 5.31495 5.97478 5.30965 5.9798 5.31108C5.98928 5.3122 5.99552 5.31269 6.00064 5.31305C6.01924 5.31429 6.02788 5.31405 6.02961 5.31412C6.06784 5.31376 6.06744 5.31295 6.0809 5.31222C6.12301 5.30908 6.15493 5.30433 6.18881 5.29828C6.25451 5.28628 6.31629 5.2695 6.37735 5.25005C6.4937 5.21119 6.61133 5.17107 6.75263 5.14684C6.76806 5.1447 6.91816 5.19409 6.94749 5.10124C6.95008 5.09489 6.97657 5.00141 7.04211 5.03652C7.04617 5.03871 7.02668 5.08954 7.08328 5.06498C7.1402 5.04028 7.24478 5.03051 7.30797 4.95493C7.3277 4.9312 7.35508 4.83305 7.45645 4.85617C7.46136 4.85938 7.64611 4.93014 7.64291 4.81763C7.64193 4.7991 7.58428 4.71221 7.70013 4.70734C7.72283 4.70595 7.70317 4.74539 7.75704 4.72987C7.8407 4.7049 7.91753 4.61975 8.03879 4.57456C8.05321 4.56904 8.10914 4.56391 8.15271 4.5266C8.16314 4.52002 8.17055 4.50665 8.16772 4.48347C8.16648 4.47264 8.13235 4.45699 8.14587 4.43784C8.21367 4.34359 8.33149 4.26466 8.40989 4.14895C8.43789 4.1077 8.37945 4.08641 8.40343 4.03903C8.42752 3.99175 8.48571 3.90529 8.54122 3.87881C8.59717 3.85179 8.6275 3.95873 8.68867 3.89389C8.81164 3.75519 8.93523 3.5897 8.9891 3.30431C8.99963 3.22224 9.01415 3.12838 9.01739 3.00102C9.01774 2.93587 9.01897 2.8624 8.9922 2.75263C8.97134 2.65115 8.87287 2.45567 8.69285 2.37518C8.69047 2.37413 8.68797 2.373 8.68538 2.37181C8.64719 2.35399 8.69617 2.34234 8.63367 2.3099C8.38929 2.16311 7.85642 1.97899 7.60342 2.02569C7.39891 2.05548 7.63993 2.12768 7.48931 2.13215C7.41764 2.13474 7.34864 2.02364 7.3315 2.01912C7.16252 1.97356 7.04307 2.01825 6.8926 2.00529C6.86153 2.00273 6.89147 1.95955 6.86478 1.9579C6.77252 1.95199 6.67875 1.97487 6.59281 1.97643C6.5538 1.9771 6.55845 1.9441 6.52371 1.94893C6.43923 1.96038 6.36631 1.98036 6.28656 2.01901C6.27947 2.02252 6.33361 2.05794 6.27197 2.06562C6.2313 2.07074 6.1864 2.08147 6.13873 2.09132C6.07283 2.10497 6.00349 2.11687 5.93427 2.10864C5.89908 2.1044 5.88621 2.03064 5.8211 2.0932C5.80744 2.10639 5.84158 2.1913 5.74429 2.12925C5.72844 2.11865 5.56606 2.04177 5.50919 2.12231C5.49419 2.14339 5.46253 2.22475 5.42022 2.22211C5.41437 2.2215 5.42782 2.17756 5.3936 2.18098C5.27299 2.19384 5.15122 2.22759 5.02787 2.24757C4.99482 2.25289 5.03203 2.1999 4.98298 2.20922C4.84799 2.23478 4.68586 2.29497 4.56213 2.35105C4.51628 2.37188 4.56025 2.39315 4.55798 2.39787C4.52323 2.47414 4.46353 2.40853 4.44354 2.41068C4.31956 2.42551 4.24664 2.49597 4.13832 2.53202C4.10809 2.54235 4.11294 2.49745 4.10572 2.49681C4.03123 2.49272 4.10515 2.53661 4.07036 2.56091C4.04028 2.58216 4.00808 2.60227 3.97515 2.62152C3.83735 2.69635 3.73981 2.79051 3.6717 2.86113C3.63591 2.89895 3.64 2.82523 3.60877 2.85953C3.43076 3.07325 3.38224 3.1198 3.38642 3.13668C3.38342 3.14245 3.3944 3.17568 3.39515 3.18373C3.39364 3.24209 3.35277 3.16827 3.34865 3.16022C3.3472 3.15866 3.34578 3.15722 3.34437 3.1559C3.55969 3.15053 3.72489 3.3763 3.73171 3.43109C3.76115 3.5119 3.75848 3.54131 3.76125 3.56631C3.76341 3.61592 3.76005 3.63216 3.75877 3.64722C3.75526 3.67582 3.75276 3.68619 3.75103 3.69543C3.74752 3.71258 3.74594 3.7184 3.74445 3.72344C3.74164 3.73257 3.73965 3.73391 3.73756 3.73459C3.73352 3.73543 3.73016 3.73005 3.73435 3.72953C3.73659 3.72927 3.73883 3.72896 3.74091 3.72877C3.90954 3.61133 4.32341 3.38865 4.60749 3.18078C4.87689 2.97002 5.19149 2.7595 5.28858 2.24455C5.30293 2.125 5.31938 1.99398 5.32767 1.84621C5.32928 1.81417 5.3747 1.84823 5.37657 1.82015C5.39205 1.55702 5.34842 1.24534 5.18321 0.959973C5.14062 0.886124 5.09761 0.811336 5.05058 0.731743C5.03621 0.70776 5.09556 0.718028 5.07294 0.677793C5.0271 0.595737 4.94931 0.490738 4.85873 0.412714C4.81463 0.375078 4.83922 0.456893 4.79574 0.419455C4.6951 0.332848 4.5628 0.234917 4.4332 0.16664C4.42342 0.161337 4.41868 0.157074 4.4171 0.153303C4.41508 0.148316 4.41859 0.144185 4.42314 0.140176C4.43078 0.133594 4.44152 0.127478 4.4335 0.117657C4.43 0.113244 4.42225 0.107873 4.40642 0.100963C4.13294 -0.00881323 3.95791 0.00376773 3.78884 -8.10623e-06C3.56993 0.0026527 3.35078 0.0169801 3.12767 0.0607391C3.10121 0.0658544 3.08326 0.158257 3.02734 0.143431C3.02187 0.118245 3.02059 0.0883605 3.01738 0.0613092C2.55709 0.101945 2.14324 0.0373221 1.5285 0.449991C1.46639 0.504342 1.38777 0.568906 1.31253 0.633378C1.29456 0.648751 1.29481 0.585058 1.25949 0.615023C1.05583 0.788032 0.849289 0.967843 0.702648 1.21578C0.688102 1.24054 0.762505 1.28388 0.701171 1.33873C0.695157 1.34409 0.666507 1.37324 0.636527 1.40157C0.612127 1.42454 0.587382 1.44611 0.572106 1.45273C0.567267 1.45458 0.548744 1.41254 0.523997 1.44409C0.381456 1.62711 0.260473 1.84045 0.176271 2.05206C0.162839 2.08609 0.218391 2.07174 0.209295 2.09595C0.1442 2.26777 0.0336294 2.43365 0.00303268 2.60042C-0.0169172 2.71067 0.066577 2.70307 0.109449 2.78467C0.115325 2.79679 0.0899963 2.85651 0.126353 2.87765C0.218176 2.93084 0.337523 2.94853 0.433855 3.00858C0.455125 3.02126 0.387595 3.10102 0.466526 3.07247C0.472466 3.06963 0.520242 3.01287 0.545146 3.00556C0.562593 3.00027 0.59271 3.03758 0.618849 3.02228C0.644897 3.00709 0.622749 2.96854 0.657232 2.94137C0.691786 2.91469 0.729777 2.949 0.765061 2.88297ZM8.73615 5.0393C8.65416 5.03721 8.71477 4.89982 8.77087 4.97496C8.77344 4.97883 8.74042 5.03964 8.73615 5.0393ZM5.09683 9.26171C5.17591 9.19499 5.2321 9.29064 5.17638 9.34266C5.12006 9.3945 5.07261 9.28189 5.09683 9.26171ZM4.26622 9.17726C4.36569 9.13653 4.36162 9.34915 4.26026 9.29461C4.25435 9.29144 4.26008 9.17953 4.26622 9.17726ZM0.237277 2.54585C0.238656 2.54755 0.220433 2.59313 0.218128 2.59354C0.163959 2.59838 0.200849 2.50627 0.237277 2.54585ZM3.5415 8.73655C3.58226 8.73656 3.62048 8.81746 3.56986 8.81901C3.528 8.81953 3.49064 8.73684 3.5415 8.73655ZM6.52326 4.81094C6.52329 4.80863 6.55692 4.79694 6.55965 4.80924C6.56852 4.84895 6.51816 4.85135 6.52326 4.81094ZM2.5738 7.77833C2.60107 7.79194 2.62708 7.80302 2.65271 7.81302C2.77951 7.88182 2.9037 7.83968 2.76437 7.71711C2.73406 7.69046 2.78362 7.81839 2.73691 7.79221C2.72181 7.78372 2.71054 7.77296 2.70157 7.7608C2.65109 7.70534 2.61562 7.61474 2.52334 7.62932C2.50381 7.63237 2.56924 7.77402 2.57397 7.7787C2.57391 7.77857 2.57386 7.77845 2.5738 7.77833ZM8.6102 5.17297C8.60829 5.17375 8.56498 5.15263 8.56459 5.15064C8.56128 5.09512 8.65419 5.14027 8.6102 5.17297ZM8.16991 3.70127C8.16899 3.69672 8.23747 3.61165 8.24218 3.61116C8.34032 3.61624 8.19815 3.79372 8.16991 3.70127ZM8.80609 8.08567C8.78847 8.0885 8.77266 8.09335 8.75909 8.10027C8.71998 8.11984 8.70117 8.15479 8.71482 8.20682C8.73746 8.17765 8.76031 8.149 8.78242 8.11882C8.7905 8.10782 8.79839 8.09683 8.80609 8.08567Z" fill="black"/>
</svg>
