<svg width="14" height="29" viewBox="0 0 14 29" fill="none" xmlns="http://www.w3.org/2000/svg">
<path d="M9.64749 28.0625C9.26251 27.8406 8.80409 27.5029 8.46962 27.236C8.3631 27.1512 8.4349 27.1707 8.36345 27.1119C8.22204 26.9954 8.0812 26.9068 7.94515 26.789C7.89995 26.7497 7.98426 26.7607 7.93693 26.7207C7.67768 26.5017 7.41735 26.3144 7.15295 26.0957C6.52657 25.5773 5.91082 25.0565 5.29935 24.5303C4.63416 23.956 3.9877 23.3446 3.42429 22.6285C3.06099 22.1762 2.72174 21.5483 2.43765 21.0441C2.40363 20.9855 2.39048 21.0386 2.38167 21.0287C2.32449 20.964 2.30828 20.9307 2.30486 20.905C2.29993 20.8689 2.31966 20.8475 2.28805 20.7776C2.07211 20.3007 1.79447 19.7906 1.53867 19.3572C1.42956 19.1725 1.46948 19.396 1.40115 19.1875C1.39632 19.173 1.45692 19.2017 1.4321 19.1482C1.37635 19.0279 1.24735 18.8089 1.20059 18.7177C1.10975 18.5403 1.09384 18.5122 1.00318 18.3465C0.880329 18.1212 0.749639 17.8421 0.610933 17.6038C0.580825 17.5522 0.5828 17.6404 0.532012 17.5605C0.481228 17.4809 0.366274 17.2579 0.336084 17.1794C0.304543 17.0988 0.349682 17.117 0.349069 17.1002C0.346021 16.9641 0.13992 16.7413 0.122008 16.7058C0.103665 16.6719 0.0844716 16.6346 0.0678554 16.6008C0.0449736 16.552 0.0259691 16.509 0.0110308 16.4431C0.00405569 16.385 -0.0424464 16.2405 0.127538 16.103C0.426059 15.9756 0.458426 16.0834 0.557654 16.0964C0.720686 16.1581 0.853093 16.234 0.982561 16.309C1.24014 16.4608 1.47896 16.622 1.73403 16.7742C1.92338 16.8858 2.14311 17.0159 2.30804 17.0723C2.32041 17.0737 2.23194 17.0476 2.16558 17.1242C2.12255 17.1868 2.14203 17.1801 2.13787 17.1681C2.13764 17.1398 2.12775 17.0821 2.11506 17.0302C2.08858 16.9207 2.05132 16.8067 2.01434 16.6962C1.84209 16.1952 1.67763 15.7604 1.47728 15.2689C1.45605 15.2169 1.43672 15.2955 1.41078 15.2321C1.35019 15.0837 1.29073 14.9343 1.23422 14.7828C1.21663 14.7319 1.19556 14.6819 1.19041 14.5853C1.18961 14.538 1.19233 14.4598 1.25011 14.376C1.3097 14.2912 1.39541 14.259 1.44073 14.2473C1.61312 14.2195 1.65925 14.2188 1.61586 14.233C1.82799 14.138 1.84151 13.7733 1.76305 13.4047C1.74961 13.3388 1.81146 13.4131 1.79984 13.3456C1.72986 12.9274 1.51446 12.2502 1.24261 12.0876C1.12616 11.8134 0.978056 11.4782 0.90307 11.2151C0.854705 11.0444 0.963421 11.1841 0.861622 10.9931C0.83908 10.95 0.826669 11.0233 0.795778 10.9576C0.75526 10.8708 0.717244 10.7797 0.682141 10.6875C0.641723 10.5713 0.594374 10.4506 0.618989 10.2698C0.633455 10.0602 0.901853 9.92621 1.02171 9.9273C1.0821 9.91982 1.08201 9.90031 1.08916 9.88706C1.09118 9.88295 1.09372 9.87968 1.09848 9.87811C1.29013 9.83271 1.29766 9.8963 1.35629 9.85853C1.3755 9.84502 1.3952 9.82627 1.4137 9.80495C1.62002 9.55356 1.71622 9.30725 1.81541 9.00253C1.83999 8.92397 1.76617 9.00275 1.78753 8.92714C1.89731 8.53422 1.95455 8.10866 1.9875 7.69903C1.99471 7.60764 2.03306 7.6928 2.03848 7.6491C2.06034 7.45525 1.98308 7.4126 1.99396 7.2271C1.99588 7.18781 2.03135 7.20853 2.03488 7.20122C2.09026 7.08602 1.99919 6.99255 1.99541 6.96425C1.94393 6.60296 2.00276 6.35948 1.93635 6.00819C1.92814 5.96647 1.89987 6.06792 1.87928 5.95026C1.74294 5.16487 1.53732 4.34404 1.39057 3.55208C1.36844 3.42487 1.4202 3.50788 1.42239 3.49893C1.4579 3.36284 1.35961 3.29625 1.34912 3.25275C1.34231 3.22399 1.33677 3.19633 1.33239 3.16982C1.28621 2.88881 1.28806 2.62121 1.15567 2.44944C1.03497 1.76611 0.787536 1.224 0.524606 0.479957C0.520193 0.373711 0.496825 0.304096 0.558177 0.143524C0.574848 0.0530881 0.784076 -0.0322777 0.853956 0.0121137C0.934378 0.0372688 0.971724 0.067092 1.01812 0.101007C1.17128 0.223634 1.27766 0.35799 1.38294 0.490009C1.59108 0.757738 1.77302 1.03734 1.94436 1.32345C1.95332 1.33826 1.90142 1.33685 1.91916 1.36589C2.13179 1.7177 2.14056 1.61652 2.35803 1.79825C2.413 1.84455 2.44744 2.07118 2.45157 2.09042C2.46683 2.16086 2.37644 2.13686 2.38461 2.15843C2.45354 2.33536 2.60952 2.19721 2.74643 2.40694C2.7504 2.41365 2.70074 2.40696 2.709 2.42653C2.73449 2.48733 2.78318 2.5345 2.80675 2.59469C2.86132 2.73399 2.80462 2.83071 2.97634 2.98758C2.99812 3.00708 3.07188 2.90648 3.18986 3.09698C3.2366 3.1733 3.45539 3.50022 3.51103 3.59236C3.56746 3.687 3.49357 3.64659 3.49675 3.65407C3.606 3.88305 3.56666 3.86006 3.56804 3.94674C3.56906 3.96189 3.57149 3.98022 3.57634 4.00362C3.60857 4.1655 3.72248 4.02713 3.77544 4.06517C3.82859 4.10299 3.92219 4.30638 3.94047 4.35886C3.95916 4.41115 3.90147 4.36962 3.92187 4.4135C4.05612 4.70414 4.07203 4.47947 4.15355 4.55021C4.34564 4.71774 4.3426 4.94865 4.45904 5.14079C4.49056 5.19266 4.48689 5.13518 4.51978 5.17794C4.65007 5.34665 4.69128 5.47581 4.86791 5.64491C4.8971 5.6734 5.07709 5.77516 5.11564 5.90552C5.12115 5.92429 5.06322 5.90771 5.11737 5.97997C5.13366 6.00154 5.15338 6.02637 5.1751 6.05236C5.25937 6.15583 5.39383 6.27134 5.49407 6.325C5.58637 6.37367 5.51342 6.26713 5.61516 6.34617C5.66189 6.38007 5.55232 6.3567 5.64373 6.41803C5.73342 6.48436 6.00435 6.56914 6.11117 6.57242C6.21675 6.58124 6.16135 6.535 6.17031 6.53333C6.18956 6.5287 6.22923 6.52416 6.27087 6.51698C6.32895 6.50627 6.40324 6.47843 6.41372 6.4759C6.5611 6.44003 6.72387 6.36327 6.93552 6.389C7.8662 6.57337 7.99421 7.55016 8.12377 8.25092C8.13509 8.32159 8.17099 8.26869 8.17315 8.27942C8.22265 8.5244 8.0851 8.34436 8.06891 8.51972C8.12227 8.49645 8.1394 8.53302 8.15519 8.59994C8.165 8.6395 8.1726 8.69099 8.19371 8.73296C8.22444 8.78308 8.23771 8.73419 8.2432 8.73814C8.29182 8.73411 8.32459 8.79329 8.35 8.81036C8.41997 8.8637 8.50042 8.79135 8.55704 8.81316C8.56176 8.81483 8.56547 8.81679 8.56832 8.819C8.57882 8.82758 8.57723 8.83977 8.57519 8.85119C8.57286 8.86297 8.57005 8.87394 8.58114 8.87907C8.59129 8.88422 8.6157 8.88381 8.66538 8.87092C8.70196 8.82932 8.56549 8.78137 8.68023 8.73743C9.09581 8.5738 9.91212 8.3041 10.3462 8.29558C10.3611 8.29503 10.3753 8.29473 10.3886 8.29462C10.8079 8.30022 10.9563 8.47855 11.0542 8.68771C11.1007 8.80035 11.1167 8.87066 11.134 8.91683C11.1739 9.03878 11.2075 9.00337 11.2537 9.19038C11.3069 9.45122 11.1452 9.33288 11.1172 9.37208C11.0876 9.40923 11.1219 9.4454 11.1056 9.49007C11.089 9.53362 11.0657 9.44105 11.0608 9.54209C11.0578 9.64224 11.1003 9.92398 11.1296 9.96347C11.1937 10.046 11.2791 9.92406 11.229 10.1971C11.226 10.2127 11.1921 10.158 11.1825 10.2178C11.1087 10.6924 11.0286 11.1796 11.0355 11.6519C11.0372 11.7169 10.9891 11.6626 10.9899 11.7011C10.9978 11.9184 11.0348 11.9735 11.0718 12.0053C11.1057 12.0301 11.1452 12.0373 11.2111 12.0305C11.1129 12.0955 11.2109 12.2608 11.5345 12.2344C11.72 12.2195 11.6824 12.1734 11.7938 12.125C11.8272 12.1103 11.9582 12.1216 11.9779 12.0955C12.0405 12.0107 11.9078 11.9534 12.2176 11.9287C12.2312 11.9277 12.1959 11.9747 12.2427 11.9684C12.516 11.9315 12.5596 11.8605 12.8075 11.7995C12.8385 11.7923 12.8717 11.7864 12.9073 11.7826C13.0503 11.7642 13.3026 11.7944 13.4725 11.9661C13.6416 12.1338 13.6907 12.3491 13.7215 12.5014C13.6065 12.5234 13.6755 12.7867 13.7582 12.9026C13.7619 13.0994 13.7546 13.3104 13.725 13.4954C13.7147 13.559 13.684 13.5134 13.6794 13.5211C13.6077 13.6373 13.6774 13.7289 13.675 13.771C13.6499 14.1606 13.5417 14.4735 13.5084 14.8248C13.5037 14.8783 13.5004 14.9369 13.5 14.9943C13.4999 15.0093 13.5794 15.0451 13.5024 15.1487C13.4971 15.1556 13.4787 15.0125 13.448 15.2079C13.417 15.4047 13.3262 15.7743 13.3345 16.0544C13.3363 16.1226 13.3857 16.2989 13.3182 16.4286C13.309 16.4459 13.2871 16.4236 13.271 16.4483C13.2194 16.5285 13.2992 16.5832 13.2169 16.675C13.1346 16.767 13.0594 16.9678 13.0805 17.252C13.0811 17.2611 13.1414 17.3341 13.1314 17.4217C13.1153 17.5615 13.0807 17.759 13.0658 17.9052C13.0586 17.975 13.105 17.9347 13.1045 17.9469C13.0775 18.4208 13.0045 18.7513 12.9221 19.2524C12.9068 19.3449 12.9264 19.6176 12.8521 19.7884C12.7691 19.9747 12.6064 19.7446 12.5682 20.1876C12.5619 20.2496 12.582 20.3251 12.6009 20.4059C12.6337 20.5652 12.6683 20.7513 12.5319 20.9383C12.419 21.5313 12.2426 22.0667 12.1611 22.6624C12.1563 22.6978 12.1518 22.733 12.1476 22.7686C12.1441 22.7974 12.1982 22.9007 12.1842 22.9668C12.1633 23.0652 12.1192 23.1125 12.1029 23.1826C12.0339 23.4751 12.0065 23.7508 11.9359 24.0323C11.9089 24.1393 11.8838 24.0936 11.8505 24.2204C11.8166 24.3465 11.8396 24.4438 11.7687 24.6084C11.7142 24.7332 11.5845 24.8317 11.5146 24.991C11.5572 25.0101 11.5679 25.048 11.5604 25.107C11.5487 25.1626 11.515 25.2409 11.4726 25.342C11.4562 25.3809 11.5066 25.3576 11.5003 25.3769C11.4749 25.4559 11.4134 25.5067 11.3885 25.5817C11.3824 25.5999 11.4091 25.6175 11.4055 25.6335C11.3761 25.7708 11.1937 25.9094 11.1622 25.9313C11.0419 26.0185 11.0359 26.0953 10.9552 26.1698C10.8746 26.2433 10.9546 26.1024 10.8687 26.194C10.691 26.3836 10.4768 26.6369 10.2924 26.824C10.2189 26.8988 10.2993 26.8774 10.2895 26.8888C10.1442 27.053 9.95321 27.1671 9.91691 27.3107C9.76612 27.2716 9.76307 27.3118 9.73143 27.3859C9.70451 27.4347 9.65838 27.5007 9.5359 27.5485C9.51237 27.5574 9.4361 27.4815 9.50884 27.423C9.55324 27.387 9.62159 27.3566 9.68839 27.3165L9.68012 27.3225C9.71919 27.293 9.75834 27.2592 9.79014 27.2197C9.81034 27.1959 9.87404 27.0083 9.88668 26.9878C9.98846 26.8297 10.1144 26.9206 10.1279 26.9199C10.2737 26.9063 10.3472 26.6773 10.3791 26.6311C10.5285 26.4198 10.6848 26.2667 10.7979 26.0828C10.8714 25.9624 10.7975 25.8908 10.8636 25.8054C11.0773 25.521 11.2692 25.4833 11.3238 25.1277C11.3315 25.0694 11.2559 25.0629 11.3083 24.9783L11.2966 25.0048C11.3097 24.9783 11.3332 24.9435 11.3718 24.8951C11.3826 24.883 11.5209 24.7258 11.5044 24.6027C11.5023 24.5874 11.4712 24.5786 11.4738 24.5601C11.492 24.4366 11.5389 24.3633 11.561 24.2284C11.5831 24.0933 11.6033 23.9292 11.6482 23.7784C11.6753 23.6876 11.7598 23.5806 11.7836 23.5391C11.852 23.4216 11.8113 23.2716 11.8775 23.2033C11.9442 23.1339 11.9902 23.3049 12.0646 23.1028C11.9837 23.0787 11.9025 23.0442 11.8221 23.0154C11.8496 22.8809 11.8787 22.747 11.9084 22.6133C11.9797 22.292 12.0579 21.9733 12.127 21.6477C12.1391 21.5904 12.0821 21.6391 12.094 21.5774C12.1447 21.3169 12.2289 21.0986 12.2821 20.8289C12.3123 20.6752 12.3264 20.5064 12.3499 20.3406C12.3561 20.2895 12.364 20.2314 12.3722 20.1793C12.4946 20.078 12.5201 19.7545 12.562 19.5264C12.5769 19.4465 12.6016 19.455 12.6182 19.3978C12.6793 19.1849 12.5809 19.274 12.5758 19.2128C12.553 18.9481 12.7466 18.9508 12.7781 18.6434C12.7799 18.6274 12.7007 18.417 12.6973 18.3892C12.6753 18.2104 12.7361 18.364 12.7555 18.2563C12.7911 18.0586 12.83 17.9235 12.8245 17.6864C12.8227 17.6174 12.776 17.4471 12.8388 17.3197C12.847 17.3029 12.8798 17.316 12.8832 17.3021C12.9421 17.0514 12.8368 17.0336 12.8159 16.8847C12.795 16.7353 12.8916 16.5184 12.9175 16.4746C12.9848 16.3603 12.9311 16.5692 12.9359 16.5758C12.9916 16.6585 12.9977 16.4935 13.0165 16.3689C13.1222 16.3625 13.135 16.1858 13.0356 16.2394C13.0248 16.2454 13.0239 16.3447 13.0165 16.3689C12.9264 16.248 12.9341 16.0533 13.0539 15.8509C13.1102 15.7568 13.1504 15.8566 13.1681 15.5522C13.1769 15.4128 13.0984 15.4595 13.095 15.3334C13.0903 15.1613 13.132 14.9639 13.1774 14.7696C13.2071 14.6433 13.2381 14.5219 13.254 14.4115C13.2687 14.3097 13.212 14.4012 13.2206 14.3314C13.2433 14.1458 13.3 13.9896 13.3112 13.8055C13.3121 13.7889 13.2657 13.8231 13.2731 13.7668C13.3237 13.3447 13.3896 12.9603 13.3152 12.5838C13.2971 12.4966 13.25 12.3843 13.1973 12.3324C13.1458 12.28 13.0994 12.2691 13.0331 12.2595C12.9937 12.2545 12.9441 12.2531 12.884 12.259C12.5433 12.2967 12.1618 12.3393 11.8732 12.3953C11.6406 12.4382 11.695 12.4705 11.59 12.5089C11.4859 12.5427 11.3303 12.5473 11.1448 12.4823C10.9457 12.4405 10.7678 12.1401 10.7887 12.0943C10.7862 12.091 10.8299 12.2147 10.9031 12.277C10.9718 12.3359 11.0166 12.3569 10.9307 12.2716C10.8635 12.1399 10.7952 12.1008 10.7887 12.0943C10.7883 12.0914 10.7874 12.0871 10.7863 12.0815C10.7673 12.0146 10.7247 11.6115 10.7227 11.5339C10.7171 11.4886 10.6788 11.5149 10.6768 11.491C10.6355 10.9245 10.721 10.4049 10.7706 9.90729C10.772 9.89857 10.8147 9.91467 10.8174 9.89404C10.854 9.60578 10.7985 9.42199 10.7397 9.21639C10.7195 9.14787 10.7012 9.08674 10.6868 9.03187C10.6574 8.92027 10.6513 8.86204 10.6638 8.79519C10.6164 8.73475 10.5164 8.66747 10.3798 8.65518C10.3757 8.65467 10.3716 8.65432 10.3676 8.6541C10.253 8.65047 10.2431 8.73669 10.2337 8.73904C9.87905 8.86223 9.6336 8.905 9.20895 9.03751C9.07906 9.07718 8.88021 9.15307 8.65172 9.20986C8.51348 9.24066 8.36456 9.27115 8.18101 9.23026C8.0271 9.20378 7.85508 9.04726 7.81065 8.9266C7.75803 8.80671 7.75435 8.72838 7.74232 8.67028C7.73541 8.63149 7.72941 8.59486 7.72215 8.55946C7.71752 8.53655 7.68294 8.56472 7.6806 8.55783C7.61229 8.37573 7.71559 8.45641 7.72711 8.41541C7.76905 8.27442 7.79183 8.18454 7.7214 7.96857C7.70523 7.91792 7.54298 7.80359 7.51121 7.72373C7.4694 7.6182 7.52811 7.64369 7.47843 7.53688C7.47397 7.52807 7.44768 7.53925 7.42303 7.47444C7.3065 7.16749 7.12766 6.93886 6.8906 6.90704C6.86141 6.90251 6.88434 6.9421 6.85963 6.94846C6.86021 6.95001 6.86107 6.95101 6.86158 6.9512C6.85391 6.93448 6.67527 7.03489 6.28849 7.07058C6.03711 7.0752 5.80904 7.01699 5.61443 6.93177C5.50968 6.8838 5.5894 6.88042 5.57026 6.86213C5.45742 6.75349 5.24213 6.7185 5.21096 6.69759C5.06023 6.6057 4.93203 6.49653 4.82285 6.37935C4.4625 5.98736 4.24426 5.593 3.91647 5.15991C3.89337 5.12971 3.65821 4.94253 3.65309 4.79498C3.65264 4.78502 3.64918 4.63631 3.54193 4.57842C3.53531 4.57503 3.54483 4.66076 3.47233 4.54972C3.41317 4.45959 3.30629 4.34101 3.2297 4.21706C3.20809 4.18351 3.18535 4.14362 3.16893 4.10695C3.14367 4.04909 3.11947 3.87641 2.96753 3.76473C2.9563 3.7567 2.68297 3.60666 2.71041 3.46619C2.7152 3.44348 2.81407 3.40232 2.65068 3.25094C2.61993 3.22296 2.64029 3.29731 2.5698 3.21602C2.45982 3.08868 2.36663 2.89318 2.21666 2.74914C2.19087 2.72479 2.0488 2.63801 2.02909 2.50891C2.02594 2.4886 2.07492 2.49903 2.04355 2.44406C1.89451 2.18269 1.70148 1.93481 1.55056 1.67247C1.49772 1.5808 1.57469 1.59189 1.52353 1.49167C1.47381 1.39325 1.35378 1.19967 1.26436 1.12318C1.17619 1.04839 1.17692 1.20022 1.06858 1.06892C0.94103 0.916233 0.810273 0.757934 0.699147 0.648346C0.672934 0.622444 0.646569 0.599792 0.637178 0.592662C0.643872 0.569488 0.590912 0.657965 0.907694 0.598573C1.0592 0.543513 1.11857 0.415119 1.12658 0.387993C1.14117 0.344358 1.13669 0.343123 1.13685 0.342938C1.13475 0.351581 1.13309 0.377856 1.13577 0.420524C1.11482 0.334807 1.15469 0.480295 1.18106 0.541603C1.2108 0.620102 1.24341 0.70397 1.27509 0.788079C1.3389 0.956988 1.40034 1.12936 1.45867 1.30416C1.49563 1.41682 1.49602 1.31394 1.55118 1.48131C1.69114 1.90149 1.85592 2.54017 1.9151 3.09032C1.93831 3.29323 1.98411 3.52931 2.00059 3.69748C2.04716 4.12666 1.87937 3.61096 1.93511 3.93702C1.96172 4.09175 2.10519 4.23586 2.11761 4.27358C2.23858 4.63368 2.25207 4.90239 2.33468 5.23697C2.35159 5.30607 2.3798 5.22919 2.3937 5.28838C2.44158 5.49124 2.46147 5.70951 2.49607 5.90691C2.5115 5.99499 2.54128 5.97379 2.55093 6.05624C2.57387 6.25331 2.58189 6.42996 2.57034 6.62629C2.56925 6.64405 2.5174 6.52972 2.52993 6.67594C2.54989 6.91304 2.53734 7.20917 2.56855 7.48539C2.57755 7.56746 2.65357 7.57172 2.5968 7.74905C2.5842 7.78633 2.49869 7.73439 2.56429 7.94503C2.57695 7.97896 2.65029 8.34418 2.5525 8.50898C2.5277 8.55275 2.43579 8.65416 2.42553 8.75555C2.42435 8.76952 2.47552 8.72347 2.46109 8.80737C2.40856 9.10265 2.30602 9.40669 2.17922 9.69892C2.14479 9.77718 2.23879 9.68074 2.18478 9.79748C2.12634 9.9212 2.05144 10.0523 1.96339 10.1794C1.88293 10.2965 1.74278 10.4568 1.52303 10.5348C1.30356 10.6091 1.15146 10.5785 1.09705 10.5801C1.08738 10.5795 1.08048 10.5791 1.0764 10.5787C1.07003 10.5743 1.06655 10.5404 1.06541 10.5367C1.04572 10.5035 1.22943 10.4373 1.22956 10.4002C1.25564 10.3051 1.24593 10.4043 1.27317 10.4698C1.30713 10.5757 1.34212 10.6847 1.3949 10.7965C1.42316 10.8565 1.44093 10.7979 1.44928 10.8087C1.53393 10.9201 1.42937 10.8546 1.45666 10.9373C1.53374 11.1699 1.65256 11.4194 1.76296 11.6489C1.80355 11.7333 1.80115 11.6187 1.83712 11.6947C2.04944 12.1457 2.26735 12.6296 2.38856 13.1562C2.41036 13.2563 2.35986 13.2028 2.35757 13.2254C2.34159 13.3773 2.45185 13.5829 2.46288 13.6412C2.51395 13.8903 2.48947 14.0046 2.4121 14.2779C2.3496 14.4876 2.17751 14.7146 1.96994 14.8334C1.69296 14.9728 1.53408 14.9237 1.61806 14.9264C1.64407 14.9196 1.73882 14.8937 1.81823 14.7891C1.89425 14.6845 1.89291 14.5973 1.89325 14.5664C1.88889 14.5016 1.88624 14.5228 1.89366 14.5371C2.11182 15.1133 2.36615 15.7261 2.55447 16.2592C2.61428 16.4292 2.67073 16.5978 2.71698 16.7786C2.73947 16.8706 2.76237 16.9629 2.77255 17.0938C2.77162 17.1693 2.79652 17.2268 2.72284 17.4171C2.68781 17.5132 2.54195 17.6632 2.39147 17.6882C2.24733 17.7158 2.17554 17.6891 2.11206 17.6707C1.38208 17.3373 0.976344 16.9676 0.411372 16.7127C0.365636 16.6935 0.393261 16.7557 0.354164 16.7406C0.326969 16.7302 0.301024 16.7222 0.290733 16.7202C0.287587 16.7122 0.26575 16.7437 0.424393 16.7037C0.507715 16.6875 0.647967 16.542 0.661209 16.4557C0.686386 16.3591 0.67398 16.3368 0.673065 16.3165C0.667917 16.2906 0.67057 16.3078 0.680656 16.3289C0.891001 16.7801 1.15534 17.27 1.42317 17.7418C1.45221 17.7927 1.45018 17.6972 1.49831 17.7786C1.59687 17.9446 1.71293 18.1603 1.79506 18.3383C1.83546 18.4255 1.74013 18.3311 1.78156 18.4187C1.8772 18.6213 1.99053 18.8328 2.10794 19.0307C2.15803 19.1149 2.1262 18.9641 2.18799 19.0748C2.45957 19.5604 2.7294 20.0408 2.98411 20.5346C3.1278 20.8138 3.25763 21.0845 3.39501 21.3502C3.42115 21.4007 3.36945 21.4924 3.45062 21.586C3.47695 21.5799 3.50177 21.5632 3.52674 21.5517C4.12582 22.4546 4.90611 23.2411 5.7652 23.973C5.85167 24.0464 5.93664 24.118 6.02304 24.1902C6.064 24.2244 6.02406 24.1283 6.10339 24.1942C6.56032 24.5736 7.01667 24.927 7.46317 25.3414C7.50679 25.3818 7.43073 25.4308 7.57828 25.5303C7.6035 25.5473 7.82228 25.7036 7.8882 25.731C7.89736 25.7346 7.88303 25.6731 7.95222 25.7252C8.35003 26.0251 8.76483 26.3488 9.15394 26.6571C9.21656 26.7067 9.12279 26.6919 9.16708 26.7275C9.48476 26.9815 9.86587 27.203 10.1686 27.43C10.3712 27.5796 10.2547 27.5959 10.3388 27.7247C10.3501 27.7433 10.4882 27.8143 10.4791 27.8552C10.4555 27.9609 10.3313 28.0304 10.3142 28.1468C10.3078 28.1738 10.5488 28.2445 10.3897 28.2429C10.3734 28.2419 10.2096 28.1867 10.1613 28.1826C10.1294 28.1815 10.1559 28.2436 10.0953 28.2317C10.0328 28.2185 9.99292 28.156 9.89829 28.1251C9.80432 28.0942 9.81547 28.1586 9.64749 28.0625ZM9.73417 8.70339C9.58649 8.70627 9.61236 8.85504 9.74657 8.77586C9.75299 8.77191 9.7417 8.7032 9.73417 8.70339ZM12.1421 22.1356C12.245 21.9635 12.1777 21.8164 12.0999 21.9369C12.0223 22.0577 12.1108 22.1883 12.1421 22.1356ZM11.7944 24.0601C11.8953 23.8579 11.6958 23.7782 11.6848 24.0147C11.684 24.0284 11.7885 24.0718 11.7944 24.0601ZM9.78289 27.4155C9.78412 27.4188 9.8793 27.482 9.88292 27.4818C9.95974 27.4745 9.76871 27.348 9.78289 27.4155ZM11.1019 25.8272C11.1653 25.7877 11.2459 25.6045 11.1694 25.656C11.109 25.6971 11.0242 25.8762 11.1019 25.8272ZM4.40231 5.18712C4.40282 5.18401 4.35714 5.11368 4.34771 5.12215C4.31732 5.14973 4.39292 5.2397 4.40231 5.18712ZM8.63764 27.8945C9.08422 27.7048 9.42889 27.7299 8.93523 27.94C8.84588 27.9771 9.10126 27.8021 8.98287 27.8393C8.76712 27.907 8.67502 28.0672 8.44175 28.1053C8.39955 28.1121 8.61207 27.9051 8.63833 27.8939C8.6381 27.8941 8.63787 27.8943 8.63764 27.8945ZM9.60249 8.5561C9.59911 8.55493 9.48805 8.58853 9.48605 8.59137C9.44116 8.65563 9.66393 8.58819 9.60249 8.5561ZM1.73132 1.09112C1.73203 1.08391 1.57498 0.861091 1.56716 0.858194C1.42242 0.791285 1.73519 1.23457 1.73132 1.09112ZM13.7194 12.507C13.7956 12.6299 13.815 12.796 13.7582 12.902C13.7566 12.7717 13.7449 12.6398 13.7194 12.507Z" fill="#3C8634"/>
</svg>
