<svg width="11" height="17" viewBox="0 0 11 17" fill="none" xmlns="http://www.w3.org/2000/svg">
<path d="M0.750494 3.99289C0.819412 3.87829 0.886237 3.71409 0.931702 3.58524C0.94606 3.54475 0.912596 3.55165 0.92162 3.52293C0.938685 3.46804 0.975889 3.4255 0.991449 3.37035C0.996621 3.35178 0.948541 3.35265 0.954843 3.33359C0.99005 3.2286 1.04842 3.14408 1.0945 3.04293C1.32082 2.54728 1.58434 2.07831 1.87632 1.61497C1.97264 1.46242 2.06883 1.26245 2.1957 1.12754C2.21045 1.11192 2.23158 1.14471 2.23647 1.14339C2.31171 1.12309 2.24054 1.09319 2.25902 1.05441C2.29348 0.981532 2.34132 0.908477 2.39229 0.846225C2.43755 0.789387 2.49145 0.751034 2.53646 0.738087C2.57291 0.729031 2.56736 0.810051 2.58199 0.761163C2.5835 0.757797 2.56334 0.723041 2.57155 0.716184C2.59064 0.699748 2.63548 0.70264 2.65644 0.701558C2.69758 0.698583 2.70545 0.700578 2.75377 0.711284C2.7715 0.715366 2.79161 0.719307 2.8145 0.72372C2.87202 0.734006 2.93668 0.74713 2.99005 0.776273C3.00523 0.784757 2.96895 0.81304 2.99126 0.829848C3.01383 0.846459 3.08005 0.873735 3.10668 0.876969C3.13286 0.879669 3.13802 0.84695 3.14524 0.842522C3.20694 0.805172 3.24329 0.922948 3.25097 0.930331C3.40687 1.06466 3.57706 1.13342 3.72944 1.26325C3.84436 1.36174 3.95119 1.48537 4.05399 1.58768C4.17654 1.70957 4.29137 1.80482 4.39825 1.93699C4.40955 1.95094 4.35996 1.96527 4.37359 1.98229C4.51765 2.16264 4.66107 2.3416 4.81922 2.51253C4.83506 2.52962 4.85185 2.48124 4.87 2.49735C4.91917 2.54133 4.9854 2.59477 5.03259 2.65585C5.09195 2.73292 5.1234 2.82018 5.06367 2.91209C5.12121 2.99091 5.18869 3.08809 5.26405 3.14395C5.31312 3.18093 5.3241 3.11077 5.34259 3.1801C5.34671 3.19559 5.30251 3.19831 5.31119 3.21993C5.34864 3.31246 5.41315 3.39942 5.44325 3.49458C5.44931 3.51401 5.41577 3.52659 5.41296 3.5346C5.3909 3.60069 5.50379 3.628 5.51778 3.64041C5.62217 3.73295 5.65245 3.82585 5.71522 3.93406C5.72988 3.9592 5.67152 3.95287 5.68417 3.97792C5.75017 4.10709 5.83354 4.23865 5.93694 4.34902C5.96002 4.37336 5.97548 4.32508 5.98813 4.33536C6.04347 4.38011 5.99168 4.43856 6.0472 4.48201C6.05885 4.49108 6.08074 4.46298 6.08534 4.46262C6.15669 4.45585 6.11449 4.53646 6.12037 4.54605C6.1745 4.63802 6.2641 4.65732 6.33947 4.70297C6.35985 4.71496 6.3794 4.72959 6.39741 4.74925C6.40718 4.76004 6.35358 4.77118 6.38297 4.79956C6.57726 4.98744 6.80457 5.15841 7.03317 5.29551C7.06864 5.31682 7.06622 5.27279 7.07077 5.27122C7.14314 5.24765 7.1119 5.33136 7.12026 5.34205C7.18877 5.42558 7.31068 5.43017 7.30474 5.55381C7.67953 5.80008 7.99951 6.11149 8.40608 6.30493C8.41119 6.30747 8.42841 6.26798 8.4385 6.2732C8.56045 6.33584 8.50011 6.37186 8.5235 6.48938C8.52919 6.51876 8.64161 6.48328 8.65073 6.48135C8.684 6.47397 8.70339 6.41047 8.71231 6.41093C8.78509 6.41652 8.65231 6.57449 8.71785 6.6243C8.72011 6.62559 8.73443 6.58883 8.74221 6.59C8.76645 6.59353 8.77447 6.61855 8.79898 6.62077C8.85536 6.62567 8.92964 6.55633 8.95291 6.64733C8.9557 6.65897 8.87353 6.74332 8.93515 6.78338C8.95993 6.79937 9.06134 6.87946 9.09486 6.89567C9.12832 6.9118 9.13145 6.86671 9.1345 6.86699C9.24223 6.88691 9.22543 6.84798 9.30929 6.81943C9.39306 6.7912 9.27533 6.92175 9.27922 6.94944C9.28303 6.977 9.36479 6.98822 9.38753 6.98776C9.41024 6.98726 9.40748 6.95485 9.42485 6.95806C9.53939 6.97995 9.40756 7.05472 9.41749 7.09763C9.44069 7.19903 9.56988 7.13494 9.636 7.1705C9.65388 7.18013 9.62277 7.19337 9.6351 7.20654C9.63896 7.21062 9.64289 7.21436 9.64686 7.2178C9.68991 7.25584 9.74239 7.25877 9.76734 7.33218C9.77284 7.34605 9.75335 7.43926 9.82021 7.4317C9.83006 7.43084 9.8456 7.39814 9.86867 7.41579C9.90352 7.44188 9.95233 7.50317 9.96395 7.54884C9.97249 7.58216 9.90782 7.57327 9.941 7.60195C9.95567 7.61512 9.96866 7.5703 9.9942 7.5973C10.0204 7.624 10.0523 7.71084 10.061 7.74489C10.0704 7.77873 10.0259 7.77207 10.0241 7.77561C10.0144 7.79609 10.0123 7.86392 10.0135 7.86962C10.017 7.88484 10.0206 7.90008 10.0242 7.91536C10.0696 8.15323 10.097 8.44654 10.0486 8.72187C10.0444 8.74447 10.0036 8.72468 10.0026 8.72808C9.97608 8.80476 10.0959 8.75487 10.1272 8.81545C10.0421 8.79712 10.0538 8.83338 10.0377 8.88728C10.0298 8.91375 9.99826 8.89494 9.99455 8.89699C9.93907 8.93071 10.0006 8.96799 10.0131 8.97631C10.0589 9.00877 9.99707 9.03015 10.0275 9.05273C10.0576 9.07541 10.1115 9.03946 10.1036 9.09431C10.0707 9.1056 9.99593 9.05398 9.97728 9.09392C9.90762 9.24128 9.9271 9.53772 9.91363 9.6631C9.90065 9.78683 9.88802 9.8282 9.8875 9.90071C9.886 10.0343 9.83437 9.97774 9.79389 10.0531C9.75317 10.1293 9.90563 10.1147 9.93504 10.1316C9.96444 10.1484 9.93005 10.1556 9.94484 10.1729C9.95963 10.1902 9.98623 10.1627 9.98696 10.1976C9.98778 10.232 9.91648 10.3135 9.88161 10.32C9.80786 10.3331 9.74205 10.2797 9.75244 10.3723C9.75309 10.3776 9.79424 10.3679 9.79479 10.3879C9.79761 10.5473 9.77106 10.7089 9.76981 10.8672C9.76966 10.8892 9.81566 10.8777 9.81605 10.8906C9.82031 11.0245 9.75678 10.965 9.66437 11.0213C9.77341 11.0243 9.83127 11.0757 9.81442 11.1731C9.80433 11.2316 9.75976 11.2132 9.72024 11.2453C9.70834 11.2549 9.73263 11.3025 9.70945 11.3061C9.63367 11.3183 9.56097 11.2647 9.57464 11.3705C9.57535 11.3752 9.6169 11.3683 9.61651 11.3839C9.61415 11.4852 9.53733 11.4842 9.50909 11.5884C9.48674 11.6712 9.50537 11.8269 9.49525 11.9244C9.61493 11.944 9.57135 12.0284 9.48242 12.05C9.47448 12.1126 9.45771 12.1783 9.45824 12.2398C9.45838 12.2611 9.49538 12.2539 9.49864 12.2572C9.54996 12.3075 9.46501 12.3199 9.45943 12.3328C9.42389 12.4197 9.42606 12.5019 9.41182 12.5837C9.40281 12.632 9.38802 12.6792 9.35576 12.7256C9.35272 12.7298 9.26847 12.7216 9.32143 12.7702C9.32511 12.7733 9.37175 12.7361 9.36175 12.8005C9.35162 12.8656 9.37054 12.9956 9.31167 13.0754C9.29742 13.0952 9.21839 13.1317 9.25917 13.1872C9.26471 13.1947 9.28973 13.1945 9.30058 13.2062C9.33501 13.2438 9.24892 13.2362 9.30993 13.2866C9.37076 13.3371 9.40316 13.4222 9.32425 13.4952C9.32185 13.4976 9.25097 13.4956 9.2418 13.5225C9.22718 13.5661 9.21454 13.6319 9.19336 13.6756C9.18324 13.6964 9.15175 13.665 9.14934 13.6683C9.06204 13.7948 9.03835 13.9058 8.96066 14.0545C8.94626 14.0821 8.85058 14.122 8.85397 14.1963C8.85649 14.2475 8.9394 14.2915 8.96873 14.3411C8.98636 14.3696 8.98476 14.4012 8.93794 14.436C8.88606 14.4754 8.63031 14.3846 8.67637 14.5516C8.52603 14.7019 8.46551 14.8998 8.30121 15.0396C8.29389 15.0458 8.21729 15.0266 8.20497 15.0447C8.18655 15.0719 8.20283 15.107 8.19033 15.1273C8.13938 15.2122 8.06126 15.2674 8.00752 15.3459C7.98682 15.376 8.0227 15.3869 7.99822 15.4225C7.97365 15.4581 7.91934 15.453 7.90183 15.5131C7.88844 15.5589 7.93756 15.6509 7.91053 15.7046C7.83482 15.6498 7.81214 15.6827 7.74896 15.7249C7.73685 15.7329 7.71989 15.7015 7.71282 15.7042C7.68351 15.715 7.69008 15.7509 7.66026 15.7598C7.65306 15.762 7.62751 15.7429 7.62019 15.7436C7.55711 15.7488 7.5716 15.848 7.57417 15.8653C7.58398 15.9306 7.53789 15.9225 7.53117 15.962C7.52456 16.0014 7.57514 15.9738 7.55915 16.0134C7.52588 16.0954 7.45473 16.1797 7.40317 16.2493C7.38236 16.2771 7.36297 16.2324 7.3592 16.2358C7.30703 16.286 7.29874 16.3712 7.20733 16.3509C7.35113 16.5239 7.16406 16.3723 7.13658 16.4802C7.13448 16.4887 7.2105 16.5601 7.24146 16.5448C7.27238 16.5296 7.27529 16.4725 7.32031 16.4529C7.33094 16.4482 7.44351 16.4613 7.45308 16.4585C7.5276 16.437 7.4099 16.3357 7.40516 16.3279C7.35499 16.2423 7.48154 16.2494 7.49862 16.239C7.57728 16.191 7.60436 16.1198 7.66669 16.0773C7.70747 16.0492 7.79095 16.1073 7.81086 16.0761C7.8773 15.9723 7.7906 15.8524 7.95839 15.835C7.99428 15.8311 8.0677 15.9179 8.05202 15.7944C8.05111 15.7866 8.02744 15.6858 8.09071 15.686C8.0987 15.686 8.12437 15.7057 8.13037 15.7023C8.17014 15.679 8.1663 15.6415 8.20428 15.6118C8.24196 15.5825 8.29025 15.5493 8.31318 15.5007C8.32693 15.4716 8.30369 15.4024 8.30094 15.3815C8.29251 15.3221 8.37637 15.3265 8.35099 15.2746C8.32569 15.2222 8.23135 15.2169 8.24692 15.1405C8.31571 15.1889 8.38832 15.2359 8.45845 15.2833C8.54886 15.1579 8.61742 15.0205 8.71281 14.8972C8.72469 14.882 8.74939 14.9247 8.76304 14.9091C8.8205 14.8431 8.83936 14.7627 8.90304 14.6966C8.9523 14.6458 9.03623 14.6109 9.08902 14.5572C9.06186 14.5098 9.07306 14.4673 9.09449 14.4288C9.11555 14.3912 9.14616 14.3565 9.16452 14.322C9.17806 14.2966 9.15579 14.2837 9.16004 14.2623C9.17661 14.1817 9.22764 14.2583 9.25045 14.2481C9.3487 14.2019 9.19124 14.092 9.25068 14.0027C9.25362 13.9985 9.37829 13.988 9.38886 13.9817C9.45671 13.9451 9.36298 13.955 9.37537 13.9164C9.39768 13.845 9.39811 13.7897 9.4604 13.7225C9.4785 13.7036 9.56184 13.6695 9.53266 13.6055C9.52884 13.5972 9.4958 13.5888 9.49572 13.5833C9.4957 13.4856 9.59649 13.5171 9.64729 13.4764C9.69813 13.4349 9.64899 13.336 9.63236 13.3156C9.59008 13.2611 9.60151 13.3405 9.59547 13.3417C9.52662 13.3504 9.55268 13.2981 9.55813 13.2546C9.45864 13.2225 9.47884 13.1671 9.56396 13.2102C9.57321 13.2152 9.55574 13.2449 9.55813 13.2546C9.6667 13.244 9.6962 13.1788 9.61847 13.0878C9.5821 13.0445 9.52427 13.065 9.56437 12.9698C9.58231 12.9269 9.64921 12.9581 9.67655 12.923C9.73409 12.8476 9.70308 12.7314 9.71932 12.6423C9.72121 12.6315 9.72299 12.6236 9.72528 12.616C9.73519 12.5829 9.76794 12.6229 9.77605 12.6005C9.79769 12.5412 9.77839 12.4823 9.80435 12.4242C9.80676 12.4188 9.84482 12.4399 9.84883 12.4208C9.87992 12.2768 9.8769 12.1461 9.90349 11.9961C9.91664 11.922 9.96235 11.7978 9.97179 11.7203C9.98798 11.5883 9.95817 11.4167 9.99272 11.3071C10.0151 11.2356 10.0527 11.259 10.086 11.2328C10.1502 11.1832 10.0737 11.0573 10.0613 11.0408C10.0609 11.0402 10.0401 11.1013 10.0253 11.0641C9.98536 11.0368 10.061 11.0415 10.0613 11.0408C10.0533 11.03 10.0666 10.9024 10.0788 10.8788C10.0854 10.866 10.1225 10.8804 10.1252 10.8736C10.1894 10.712 10.2288 10.5446 10.2401 10.3706C10.2399 10.3675 10.1961 10.3647 10.196 10.3573C10.1937 10.2555 10.2573 10.2004 10.3022 10.1242C10.347 10.0484 10.3475 9.97998 10.2813 9.92046C10.3008 9.85935 10.2822 9.76643 10.2705 9.71167C10.2587 9.65698 10.3438 9.66324 10.3462 9.65894C10.4211 9.52732 10.3856 9.43663 10.3989 9.29026C10.4055 9.2187 10.4365 9.08171 10.4552 9.00712C10.4705 8.94602 10.4547 8.91018 10.4741 8.85388C10.4767 8.84641 10.5134 8.85848 10.5151 8.85631C10.5673 8.79829 10.4718 8.81837 10.4569 8.80362C10.4021 8.75178 10.3738 8.71695 10.4095 8.64151C10.4177 8.6234 10.5555 8.57988 10.566 8.54657C10.5795 8.50172 10.5306 8.51472 10.5456 8.46819C10.5468 8.46425 10.5762 8.467 10.5768 8.43795C10.5796 8.29943 10.57 8.14588 10.5596 7.97628C10.5579 7.95291 10.6074 7.98063 10.6051 7.94358C10.6018 7.8969 10.5958 7.84507 10.5829 7.78767C10.5599 7.68338 10.5207 7.56333 10.4597 7.45903C10.4388 7.42398 10.4186 7.46027 10.4063 7.45614C10.3328 7.4329 10.3749 7.32948 10.3691 7.31625C10.2771 7.08475 10.1015 6.96482 9.94296 6.84C9.90921 6.81362 9.87615 6.78428 9.84426 6.74984C9.83613 6.74074 9.81702 6.60981 9.73561 6.64609C9.73015 6.64847 9.64789 6.68636 9.6522 6.62024C9.65249 6.61612 9.69843 6.59935 9.65984 6.57484C9.62138 6.55043 9.58011 6.48371 9.50293 6.48172C9.47859 6.48107 9.3927 6.51616 9.38475 6.42959C9.38444 6.42372 9.40001 6.25372 9.31353 6.31313C9.2994 6.32299 9.2397 6.41009 9.21677 6.32459C9.21247 6.30813 9.2461 6.30418 9.2269 6.27108C9.19714 6.21994 9.12349 6.19941 9.09846 6.12143C9.0942 6.10775 9.09814 6.02086 9.03377 6.04027C9.02366 6.04328 9.01182 6.0785 8.99269 6.06895C8.90182 6.02382 8.83309 5.94233 8.73783 5.90091C8.70411 5.88618 8.68438 5.94262 8.64551 5.93238C8.60688 5.92232 8.53773 5.8885 8.52254 5.84444C8.50721 5.80025 8.59595 5.75356 8.5536 5.71249C8.3702 5.53451 8.13824 5.42598 7.93392 5.2795C7.90368 5.25782 7.94785 5.25075 7.90455 5.21679C7.74488 5.09177 7.49029 4.85465 7.3119 4.79929C7.16907 4.75528 7.27888 4.89774 7.18192 4.84846C7.13453 4.82399 7.15883 4.70763 7.15109 4.69699C7.07943 4.59468 6.98497 4.57669 6.91243 4.49604C6.89734 4.47924 6.94178 4.46097 6.92871 4.44708C6.88471 4.39967 6.82129 4.36976 6.77792 4.32663C6.75846 4.30713 6.78396 4.28611 6.76365 4.27133C6.7564 4.26598 6.74918 4.26089 6.74193 4.25603C6.70717 4.23415 6.67139 4.21873 6.62391 4.20675C6.6187 4.20532 6.61056 4.25565 6.58333 4.22924C6.53978 4.18671 6.46574 4.14563 6.44638 4.06706C6.44074 4.04355 6.5009 3.99989 6.43171 3.99108C6.41729 3.98904 6.35041 4.05058 6.38266 3.9599C6.38739 3.94437 6.42416 3.80896 6.34187 3.80246C6.32005 3.80071 6.2401 3.8101 6.23496 3.77863C6.23453 3.77427 6.27714 3.76765 6.26821 3.74472C6.23643 3.66469 6.18774 3.58678 6.15403 3.50046C6.14523 3.47759 6.19909 3.48907 6.18475 3.4555C6.14512 3.36265 6.07373 3.25546 6.01273 3.17365C5.99004 3.14328 5.97286 3.1828 5.96827 3.18226C5.8937 3.17384 5.95274 3.1116 5.94954 3.09628C5.92975 3.00356 5.86154 2.96263 5.82795 2.8853C5.8186 2.86407 5.86062 2.85829 5.8613 2.85256C5.86625 2.79384 5.82394 2.86045 5.80172 2.83811C5.73994 2.77687 5.69339 2.69379 5.65272 2.61846C5.63778 2.59069 5.69503 2.59696 5.68109 2.5722C5.63552 2.49049 5.58595 2.4111 5.53039 2.33363C5.48489 2.27009 5.43494 2.20844 5.38323 2.15342C5.361 2.12978 5.34381 2.16633 5.33344 2.16539C5.26251 2.16111 5.28588 2.06265 5.28303 2.04632C5.269 1.9702 5.22856 1.96742 5.19621 1.91433C5.0412 1.65722 4.78597 1.38441 4.57882 1.18721C4.30778 0.929618 4.07046 0.757561 3.773 0.537319C3.75372 0.523368 3.79995 0.49878 3.78348 0.486187C3.569 0.326447 3.32072 0.207677 3.03906 0.106537C3.01567 0.0984197 3.0629 0.0664959 3.02507 0.0520493C3.01833 0.0494833 3.01139 0.0469692 3.00428 0.0445221C2.9461 0.0231516 2.8317 -0.00435303 2.72087 0.000543824C2.66233 0.00348833 2.73711 0.0458983 2.67957 0.0488007C2.54569 0.0556826 2.38681 0.0891219 2.25889 0.143485C2.2038 0.167015 2.26541 0.085841 2.19455 0.12125C2.0549 0.194668 1.95399 0.285055 1.87261 0.373703C1.7201 0.541539 1.59481 0.716681 1.50135 0.914039C1.49221 0.933344 1.55562 1.00182 1.51621 1.0265C1.49366 1.01431 1.46947 0.996711 1.44656 0.982018C1.18193 1.32633 0.983209 1.69791 0.768576 2.06448C0.75953 2.07995 0.733826 2.0284 0.716084 2.05827C0.613545 2.23108 0.503828 2.39351 0.445356 2.5962C0.439531 2.61626 0.519027 2.64899 0.478769 2.69465C0.471554 2.70266 0.417771 2.77626 0.390474 2.78756C0.386506 2.78897 0.359446 2.75542 0.344508 2.78022C0.25774 2.92583 0.182217 3.08694 0.12634 3.24915C0.11726 3.27564 0.168483 3.26878 0.16238 3.28775C0.119742 3.42039 0.0239649 3.54094 0.00179093 3.67813C-0.0130012 3.77058 0.0676438 3.77162 0.113863 3.84372C0.120431 3.85371 0.0989099 3.90492 0.136276 3.92441C0.229759 3.97418 0.345736 3.99851 0.444082 4.05443C0.465079 4.06672 0.413814 4.1175 0.483564 4.10506C0.488168 4.10427 0.52631 4.06703 0.549744 4.06372C0.565876 4.06152 0.598213 4.09356 0.621604 4.08477C0.64466 4.0767 0.619913 4.0448 0.650985 4.02718C0.682315 4.00974 0.720976 4.04156 0.750494 3.99289ZM10.2172 9.46766C10.1839 9.41478 10.3328 9.42993 10.2898 9.47542C10.2876 9.4776 10.2188 9.47038 10.2172 9.46766ZM8.52649 14.9532C8.5103 14.8644 8.61411 14.887 8.6287 14.953C8.64308 15.0191 8.53131 14.9803 8.52649 14.9532ZM8.10025 15.4409C8.10284 15.3513 8.27889 15.4701 8.1975 15.5066C8.19282 15.5088 8.10007 15.4462 8.10025 15.4409ZM0.224613 3.65775C0.226213 3.65896 0.210914 3.69507 0.208718 3.69514C0.156837 3.69335 0.187484 3.62107 0.224613 3.65775ZM7.67099 15.9183C7.66206 15.8828 7.72794 15.8511 7.73921 15.8951C7.74829 15.9305 7.68211 15.9625 7.67099 15.9183ZM9.68256 7.11425C9.68059 7.11554 9.65761 7.10011 9.66581 7.09053C9.69227 7.05971 9.71551 7.09244 9.68256 7.11425ZM7.00725 16.7792C7.09884 16.647 7.01924 16.4631 6.92837 16.6137C6.91191 16.641 7.01424 16.5937 7.0022 16.6352C6.98005 16.7113 6.86304 16.683 6.86384 16.7786C6.86409 16.796 7.00235 16.7869 7.00762 16.7791C7.0075 16.7791 7.00737 16.7791 7.00725 16.7792ZM10.0436 9.41408C10.0418 9.41296 10.0455 9.37515 10.0476 9.3743C10.0976 9.36079 10.0901 9.43748 10.0436 9.41408ZM8.34933 6.21084C8.34504 6.21288 8.27202 6.1627 8.27213 6.15791C8.28206 6.06813 8.42978 6.16937 8.34933 6.21084ZM9.49816 11.9264C9.44378 11.9585 9.42935 12.0063 9.48239 12.0498C9.48669 12.0084 9.49366 11.9675 9.49816 11.9264Z" fill="#963076"/>
</svg>
