<svg width="12" height="10" viewBox="0 0 12 10" fill="none" xmlns="http://www.w3.org/2000/svg">
<path d="M0.0134944 9.05417C0.0640507 8.99189 0.158739 8.92647 0.230603 8.88823C0.254267 8.87514 0.261845 8.90386 0.279186 8.89553C0.312953 8.87933 0.326496 8.84992 0.361221 8.8355C0.372714 8.83091 0.389742 8.87193 0.401177 8.86638C0.464315 8.83512 0.501009 8.78822 0.558322 8.74924C0.830737 8.56612 1.08464 8.36145 1.34419 8.15612C1.43099 8.08729 1.55373 8.02906 1.62901 7.93974C1.63777 7.92928 1.60726 7.90711 1.60715 7.90313C1.60547 7.84238 1.64505 7.90674 1.67059 7.89724C1.77152 7.85964 1.86079 7.7847 1.92333 7.70995C1.95045 7.67754 1.87042 7.65081 1.92928 7.6534C1.93332 7.65352 1.95138 7.68984 1.96277 7.68528C1.98844 7.67499 2.02146 7.63621 2.03853 7.62515C2.0711 7.60441 2.07558 7.59989 2.10308 7.57599C2.14092 7.54355 2.19867 7.51815 2.23374 7.47503C2.24112 7.46576 2.20296 7.44603 2.21221 7.42864C2.22109 7.41161 2.25913 7.38226 2.27759 7.37848C2.29602 7.37472 2.31183 7.40287 2.31879 7.40635C2.37702 7.43616 2.36285 7.33562 2.36693 7.32919C2.44389 7.21291 2.55637 7.17711 2.65092 7.09261C2.71987 7.03086 2.78398 6.95239 2.85317 6.89359C2.93389 6.82528 3.01498 6.78206 3.09079 6.7094C3.09882 6.70178 3.05774 6.67522 3.06748 6.66583C3.16749 6.56923 3.27914 6.47647 3.4035 6.40813C3.41615 6.40118 3.4302 6.44414 3.44449 6.43904C3.5309 6.40751 3.68985 6.37519 3.60668 6.20773C3.65465 6.17433 3.7125 6.13241 3.77606 6.12437C3.81702 6.11915 3.8224 6.17483 3.8408 6.13258C3.84499 6.12309 3.8095 6.10181 3.81779 6.0898C3.85312 6.03884 3.9083 6.00676 3.93848 5.95243C3.9445 5.94135 3.9185 5.91711 3.91676 5.91012C3.90344 5.85279 3.99558 5.8849 4.00743 5.88263C4.0972 5.86443 4.12751 5.81293 4.18221 5.76556C4.19495 5.75455 4.14842 5.73236 4.15955 5.72049C4.21757 5.65949 4.28648 5.60337 4.36213 5.56404C4.37891 5.55549 4.39342 5.59684 4.40282 5.5943C4.44396 5.5827 4.39933 5.51998 4.43793 5.50764C4.446 5.50497 4.46584 5.53375 4.46944 5.53564C4.5259 5.56535 4.48391 5.48926 4.48695 5.48403C4.52417 5.41648 4.61802 5.45117 4.66264 5.39447C4.66778 5.38774 4.62455 5.36754 4.64079 5.35063C4.74827 5.23824 4.88362 5.13333 5.02134 5.05718C5.04294 5.04509 5.05207 5.08115 5.05591 5.08317C5.11671 5.11394 5.07198 5.03983 5.07573 5.03218C5.1068 4.97342 5.19804 4.98749 5.16232 4.88349C5.38168 4.73432 5.53947 4.51665 5.79615 4.40855C5.79935 4.4071 5.82282 4.44231 5.82909 4.43927C5.90427 4.4035 5.8492 4.36542 5.83534 4.27092C5.83187 4.24718 5.92616 4.29179 5.93353 4.29464C5.96059 4.30527 5.99209 4.36072 5.99871 4.36155C6.05202 4.3668 5.91005 4.21726 5.94646 4.18454C5.94783 4.18377 5.96836 4.21632 5.97394 4.21638C5.99135 4.21668 5.99073 4.19699 6.00877 4.19837C6.05028 4.20174 6.12472 4.26951 6.11852 4.1968C6.11764 4.18773 6.03819 4.11085 6.06677 4.0832L6.05812 4.09151C6.05894 4.0906 6.05986 4.08973 6.06089 4.08891C6.07482 4.07788 6.1273 4.02098 6.14772 4.01082C6.16815 4.00064 6.18488 4.0375 6.18712 4.03753C6.26325 4.03064 6.26274 4.0608 6.33585 4.09138C6.40873 4.12179 6.27736 4.00551 6.27151 3.98344C6.26555 3.96158 6.32502 3.95931 6.34259 3.96171C6.36018 3.96411 6.36823 3.9902 6.38055 3.98911C6.46163 3.98142 6.33702 3.90904 6.33124 3.87504C6.31734 3.79476 6.43652 3.85854 6.47592 3.83617C6.48657 3.83011 6.45864 3.81641 6.46393 3.80697C6.48564 3.76936 6.53247 3.7793 6.53889 3.7192C6.53996 3.70938 6.51055 3.62741 6.56898 3.6495C6.57736 3.65273 6.5937 3.68242 6.61124 3.67472C6.63733 3.66343 6.67599 3.63365 6.68826 3.60539C6.69727 3.58456 6.64199 3.56494 6.67248 3.55727C6.68605 3.55389 6.69321 3.59139 6.71682 3.58324C6.74037 3.57515 6.77857 3.53367 6.79261 3.5176C6.80663 3.50152 6.76942 3.48176 6.76866 3.47863C6.76456 3.46039 6.77929 3.41707 6.78192 3.41443C6.90651 3.27845 7.0723 3.20508 7.18108 3.06012C7.1896 3.04884 7.15242 3.02588 7.15341 3.02385C7.17389 2.97695 7.2292 3.08302 7.27975 3.0854C7.21413 3.02865 7.23914 3.02535 7.25562 2.99465C7.26351 2.97981 7.23328 2.96281 7.23184 2.95936C7.21221 2.90638 7.2713 2.93995 7.28401 2.94618C7.3308 2.96903 7.30092 2.91577 7.3323 2.93095C7.36349 2.94596 7.38103 2.99786 7.40318 2.97409C7.38723 2.94599 7.31224 2.90693 7.31994 2.88009C7.34824 2.77942 7.51547 2.69826 7.57213 2.64941C7.62918 2.60014 7.64173 2.57903 7.67988 2.55586C7.74895 2.51393 7.68615 2.49226 7.70052 2.43804C7.71504 2.3837 7.80435 2.50404 7.83204 2.52118C7.85962 2.53843 7.84144 2.5102 7.85993 2.51627C7.87839 2.52236 7.88099 2.55066 7.89968 2.54089C7.91841 2.53106 7.91586 2.4527 7.89735 2.42406C7.85756 2.36397 7.78723 2.33016 7.84329 2.30995C7.84654 2.30882 7.86739 2.34315 7.87843 2.33747C7.9649 2.29183 8.03434 2.22359 8.11819 2.17609C8.12974 2.16962 8.15263 2.20806 8.1597 2.20464C8.23353 2.16906 8.16246 2.13726 8.13463 2.05001C8.20471 2.13259 8.2684 2.16195 8.30998 2.12075C8.33498 2.09605 8.29718 2.06728 8.28954 2.02778C8.28732 2.01579 8.32808 2.02059 8.31555 2.00176C8.27467 1.94012 8.20044 1.89983 8.26629 1.87928C8.26925 1.87846 8.29142 1.91241 8.29961 1.90756C8.35283 1.87626 8.30324 1.81868 8.34292 1.76585C8.37396 1.72449 8.46912 1.69467 8.51587 1.65876C8.6006 1.74553 8.61945 1.68762 8.57609 1.61287C8.60457 1.58944 8.63045 1.55719 8.66425 1.54009C8.67587 1.53417 8.6947 1.56491 8.69848 1.56651C8.75735 1.59205 8.71174 1.5228 8.71523 1.5149C8.7555 1.43183 8.84972 1.42598 8.86752 1.32477C8.86814 1.32115 8.81303 1.25725 8.87191 1.28585C8.87589 1.2879 8.88271 1.33464 8.91303 1.30943C8.94332 1.28426 9.02754 1.26588 9.0402 1.19983C9.04322 1.18395 9.02018 1.11142 9.0762 1.13191C9.08376 1.13474 9.0976 1.15492 9.11054 1.16117C9.1521 1.18078 9.10028 1.11258 9.16426 1.15164C9.22826 1.19068 9.29474 1.20238 9.30005 1.12905C9.30033 1.12679 9.2638 1.06855 9.27723 1.05748C9.2987 1.03984 9.33685 1.02359 9.35743 1.00397C9.36727 0.994551 9.33243 0.969688 9.33365 0.967519C9.3863 0.886984 9.45969 0.870565 9.54453 0.816156C9.55991 0.806442 9.56084 0.728983 9.61743 0.739277C9.67908 0.750855 9.78577 0.93088 9.81869 0.836857C9.83242 0.798837 9.69601 0.571541 9.83273 0.632591C9.90615 0.525881 10.0382 0.506327 10.1055 0.391507C10.1085 0.386435 10.0771 0.318355 10.0883 0.310752C10.1049 0.299691 10.1345 0.319803 10.1469 0.312943C10.1989 0.285287 10.2248 0.228859 10.2725 0.198817C10.2774 0.195674 10.2822 0.195857 10.2869 0.197496C10.3007 0.202347 10.3106 0.218456 10.3275 0.211415C10.3505 0.202066 10.3462 0.152454 10.3879 0.158709C10.4192 0.163881 10.4771 0.242926 10.5071 0.244942C10.4799 0.155753 10.5015 0.149775 10.5372 0.116869C10.5444 0.110502 10.5291 0.0804444 10.5323 0.0757671C10.546 0.0558946 10.5656 0.0800311 10.5793 0.0600508C10.5827 0.0552454 10.5794 0.0234995 10.5823 0.0177786C10.6094 -0.032916 10.6635 0.0394687 10.6685 0.0528611C10.6947 0.10215 10.7121 0.0630904 10.7316 0.0858293C10.7489 0.108629 10.7134 0.124826 10.734 0.141017C10.7746 0.174143 10.8291 0.193035 10.8707 0.219701C10.887 0.229962 10.8979 0.186802 10.9007 0.187414C10.9436 0.200823 10.9505 0.262216 11.0209 0.209208C10.9099 0.400906 11.0548 0.207834 11.0754 0.282197C11.0769 0.288117 11.0141 0.370808 10.991 0.371331C10.9678 0.371696 10.9676 0.329634 10.9342 0.33395C10.9257 0.334273 10.8435 0.39439 10.8374 0.397394C10.7877 0.418599 10.8699 0.287579 10.8727 0.279154C10.905 0.190111 10.816 0.25981 10.8065 0.263423C10.7553 0.274185 10.7339 0.244034 10.6999 0.260704C10.6779 0.271911 10.6632 0.372793 10.6557 0.368839C10.6353 0.356276 10.5895 0.217998 10.571 0.348418C10.5674 0.376588 10.6084 0.479734 10.5529 0.405665C10.5504 0.400523 10.496 0.334982 10.4982 0.388947C10.4987 0.395635 10.5112 0.425463 10.5099 0.428989C10.5003 0.452145 10.4786 0.433738 10.4643 0.454461C10.4579 0.464318 10.4511 0.476089 10.4424 0.486115L10.4829 0.460497C10.4738 0.473607 10.4626 0.484724 10.4469 0.489478C10.4287 0.49503 10.3735 0.461264 10.3575 0.454942C10.3116 0.436577 10.3339 0.507497 10.2901 0.476311C10.246 0.445087 10.2219 0.36418 10.1688 0.363318C10.2194 0.43043 10.2699 0.50047 10.3202 0.568442C10.249 0.620604 10.1644 0.654208 10.098 0.714226C10.0898 0.721768 10.1274 0.749224 10.1194 0.75819C10.0857 0.795628 10.0321 0.798727 10.0004 0.842711C9.97677 0.876229 9.97486 0.941108 9.95093 0.978005C9.86833 0.922387 9.84328 0.987868 9.80308 1.01191C9.789 1.02037 9.77279 1.00042 9.7588 1.00167C9.70641 1.00692 9.77797 1.05698 9.77822 1.07471C9.77927 1.15052 9.64673 1.01093 9.60575 1.05457C9.60353 1.05683 9.64424 1.1585 9.64467 1.16678C9.64793 1.22025 9.61646 1.14419 9.59573 1.15292C9.55771 1.16901 9.52133 1.16924 9.50867 1.22195C9.50503 1.23747 9.52541 1.3058 9.47274 1.28736C9.46583 1.28496 9.44406 1.2589 9.44069 1.25933C9.38193 1.269 9.45418 1.34731 9.45848 1.39279C9.46287 1.43818 9.38064 1.41478 9.35951 1.40562C9.30478 1.38197 9.35642 1.37625 9.35362 1.37151C9.32049 1.31472 9.30448 1.34503 9.28333 1.35767C9.20889 1.28432 9.1886 1.31229 9.26162 1.37116C9.26964 1.37754 9.27654 1.35753 9.28333 1.35767C9.33856 1.44654 9.32099 1.48137 9.22479 1.44092C9.17976 1.42192 9.15656 1.37162 9.12736 1.42622C9.11425 1.45083 9.17151 1.49552 9.16827 1.52588C9.16085 1.59517 9.06355 1.59612 9.03156 1.64212C9.01984 1.65892 9.06137 1.6734 9.05431 1.68585C9.03582 1.71884 8.99132 1.72109 8.97631 1.75705C8.97496 1.76037 9.00958 1.78412 9.00188 1.79242C8.94399 1.85605 8.87163 1.89052 8.80718 1.95362C8.77551 1.98465 8.73704 2.0552 8.70169 2.08418C8.64004 2.13508 8.53086 2.16002 8.49316 2.21882C8.46906 2.25644 8.50522 2.27849 8.51208 2.3115C8.52561 2.37524 8.41108 2.35255 8.39418 2.34821C8.39364 2.34803 8.41331 2.31423 8.38405 2.31378C8.3444 2.29122 8.39434 2.34777 8.39418 2.34821C8.38301 2.34563 8.32383 2.39244 8.31903 2.40858C8.31643 2.41738 8.34746 2.44151 8.34558 2.44558C8.29966 2.54219 8.23702 2.62038 8.15189 2.68145C8.15006 2.6822 8.12072 2.64973 8.11679 2.65187C8.06175 2.68046 8.0738 2.74466 8.06232 2.80191C8.05073 2.85927 8.01623 2.8795 7.94249 2.84778C7.92374 2.88061 7.86306 2.89551 7.82725 2.90352C7.79142 2.91154 7.84949 2.9738 7.84887 2.97685C7.82994 3.07361 7.76105 3.07475 7.69514 3.1319C7.6641 3.15856 7.61617 3.2258 7.59152 3.26464C7.57199 3.29559 7.54336 3.29652 7.52997 3.32869C7.52815 3.33302 7.55843 3.35616 7.55855 3.35814C7.56599 3.41559 7.51154 3.33878 7.49447 3.33265C7.43241 3.31035 7.39776 3.30013 7.38559 3.35339C7.38281 3.36559 7.45648 3.4811 7.4488 3.50025C7.4384 3.52524 7.41068 3.48519 7.40061 3.51225C7.39971 3.51454 7.42123 3.53467 7.40893 3.54554C7.35207 3.59623 7.28137 3.6447 7.22891 3.70322C7.22161 3.71119 7.26484 3.73371 7.25484 3.74577C7.20773 3.80248 7.1504 3.85928 7.08523 3.89519C7.06903 3.90399 7.05317 3.87331 7.04353 3.8693C6.98498 3.84528 7.02315 3.92868 7.02047 3.93379C6.9589 4.05647 6.83325 4.07513 6.76726 4.19613C6.7638 4.20281 6.79068 4.30665 6.71683 4.27C6.71188 4.26759 6.63695 4.22944 6.66107 4.28349C6.66258 4.28686 6.70308 4.30452 6.6812 4.32102C6.65907 4.3378 6.64949 4.38735 6.59113 4.38222C6.57273 4.38061 6.49604 4.34454 6.51751 4.41414C6.51915 4.41885 6.58508 4.55834 6.50004 4.50281C6.49073 4.49669 6.45503 4.46092 6.43507 4.45786C6.43146 4.4611 6.42144 4.47164 6.41761 4.47463C6.40778 4.47241 6.40131 4.47861 6.40294 4.50135C6.40398 4.5145 6.4305 4.52233 6.42461 4.54734C6.41568 4.58575 6.36503 4.59321 6.36699 4.65455C6.36741 4.66534 6.39337 4.73822 6.33965 4.71339C6.33123 4.7095 6.31293 4.67862 6.30107 4.68395C6.24459 4.70918 6.21472 4.76757 6.15415 4.78912C6.13251 4.79701 6.10266 4.74732 6.07589 4.75082C6.04912 4.75432 6.006 4.77326 6.00609 4.80811C6.00618 4.84297 6.08558 4.89366 6.06456 4.92223C5.97355 5.04609 5.82702 5.10586 5.70953 5.20061C5.69217 5.21459 5.72756 5.22648 5.70356 5.2488C5.6163 5.33016 5.47842 5.49442 5.35513 5.51217C5.25599 5.52673 5.3063 5.42526 5.24373 5.45107C5.2139 5.46338 5.25857 5.56495 5.25524 5.57239C5.22269 5.64678 5.15351 5.64597 5.11405 5.7005C5.10592 5.71177 5.14434 5.73476 5.13711 5.744C5.11266 5.77582 5.06916 5.78912 5.04361 5.81666C5.03205 5.82923 5.05609 5.85154 5.04267 5.86016C5.01077 5.8811 4.97683 5.89304 4.92919 5.89458C4.92485 5.89472 4.91451 5.84948 4.89284 5.86683C4.85784 5.895 4.7964 5.90944 4.7791 5.96673C4.77406 5.98382 4.82335 6.03987 4.76477 6.0231C4.75241 6.01971 4.69961 5.94671 4.72238 6.03022C4.72608 6.04416 4.74736 6.16524 4.67893 6.13611C4.66089 6.12846 4.59614 6.08798 4.59013 6.10882C4.5895 6.11185 4.62365 6.13508 4.61491 6.14814C4.58364 6.19364 4.53912 6.2277 4.50688 6.27335C4.4983 6.28562 4.5422 6.30202 4.52841 6.31943C4.48984 6.36797 4.42636 6.41053 4.37384 6.44003C4.35443 6.45086 4.34271 6.41524 4.33904 6.41351C4.2796 6.38505 4.32316 6.45623 4.32009 6.46539C4.30027 6.52153 4.24532 6.51891 4.21537 6.55934C4.20713 6.57035 4.24034 6.59317 4.24066 6.59757C4.24264 6.64152 4.21125 6.5753 4.19298 6.58123C4.14164 6.59767 4.10305 6.63635 4.06972 6.67283C4.05752 6.68626 4.10289 6.70661 4.09159 6.71827C4.02644 6.78694 3.94622 6.85275 3.86004 6.89615C3.84368 6.90433 3.82868 6.87086 3.82062 6.86735C3.76451 6.84257 3.78768 6.92401 3.78619 6.93507C3.77972 6.98527 3.74719 6.97287 3.72513 7.00029C3.61808 7.13435 3.44873 7.25803 3.32283 7.35338C3.1562 7.48021 3.01442 7.56209 2.87325 7.6995C2.86433 7.70813 2.9046 7.73452 2.89732 7.7424C2.79895 7.8451 2.68734 7.92023 2.58934 8.02553C2.58141 8.03396 2.62314 8.05582 2.61141 8.07045C2.58757 8.10067 2.55048 8.1305 2.51308 8.14497C2.49489 8.15208 2.48807 8.10751 2.47029 8.11524C2.42763 8.13425 2.39005 8.16352 2.36126 8.19862C2.34908 8.21363 2.40055 8.22815 2.38239 8.24503C2.26028 8.35976 2.14053 8.47678 1.97342 8.54736C1.96208 8.55208 1.89355 8.49042 1.88695 8.51981C1.90248 8.54003 1.92245 8.5623 1.93991 8.58314C1.76472 8.75866 1.56144 8.89696 1.37344 9.05753C1.36554 9.06429 1.41121 9.08864 1.3961 9.1019C1.30996 9.17751 1.23376 9.26323 1.11123 9.30755C1.09939 9.31176 1.04698 9.24407 1.03019 9.27627C1.02823 9.28116 0.994486 9.32638 0.996829 9.34909C0.997298 9.35242 1.03099 9.37581 1.01901 9.38801C0.951553 9.45602 0.86693 9.519 0.776687 9.56655C0.76251 9.57378 0.746572 9.53116 0.736257 9.53601C0.660468 9.57316 0.617092 9.65481 0.534301 9.67674C0.478218 9.69181 0.445121 9.62307 0.376616 9.58729C0.366358 9.58276 0.340998 9.6031 0.312236 9.57244C0.239025 9.49612 0.173446 9.3996 0.0940675 9.31944C0.076496 9.30259 0.0650069 9.34772 0.0431411 9.28874C0.0414599 9.28498 0.0508996 9.25059 0.0440442 9.23008C0.0391134 9.21608 0.00315114 9.19084 8.60849e-05 9.17003C-0.00193658 9.14831 0.0285116 9.16919 0.0281772 9.14184C0.0276835 9.11428 -0.0111532 9.08374 0.0134944 9.05417ZM7.66748 2.93908C7.61852 2.93092 7.72299 3.03801 7.71855 2.99119C7.71821 2.9888 7.66993 2.93943 7.66748 2.93908ZM10.0933 0.56709C10.0236 0.538878 10.0661 0.629664 10.1181 0.652774C10.1699 0.676066 10.1144 0.575711 10.0933 0.56709ZM10.3602 0.297135C10.2952 0.280837 10.4177 0.454056 10.4274 0.393217C10.4278 0.390923 10.4001 0.350249 10.3801 0.322555L10.3618 0.334094C10.3573 0.325122 10.3532 0.317367 10.3503 0.312278L10.3653 0.302759C10.3626 0.299332 10.3608 0.297274 10.3602 0.297135ZM0.456571 9.48883C0.454887 9.48767 0.436952 9.501 0.437945 9.50275C0.460624 9.54613 0.496395 9.51951 0.456571 9.48883ZM10.6536 0.161409C10.642 0.131897 10.6079 0.166638 10.6243 0.201617C10.6354 0.229458 10.6652 0.19756 10.6536 0.161409ZM6.52917 3.88611C6.52726 3.88488 6.51453 3.89513 6.5238 3.90367C6.55372 3.9311 6.5612 3.90692 6.52917 3.88611ZM11.1618 0.466385C11.0986 0.396856 11.1704 0.226604 11.2362 0.312675C11.2479 0.328157 11.1683 0.32631 11.1755 0.354258C11.1888 0.405308 11.2846 0.344255 11.2775 0.418352C11.2758 0.431601 11.1652 0.47063 11.1616 0.466448C11.1617 0.466427 11.1617 0.466406 11.1618 0.466385ZM7.5272 2.82572C7.52539 2.82474 7.50823 2.83975 7.50926 2.84151C7.53479 2.88339 7.56937 2.85318 7.5272 2.82572ZM5.77798 4.47974C5.77422 4.47745 5.73227 4.50973 5.7336 4.51376C5.76489 4.58996 5.84984 4.52487 5.77798 4.47974ZM8.5188 1.66042C8.50273 1.60902 8.51981 1.58413 8.57597 1.61291C8.55636 1.62787 8.53847 1.64498 8.5188 1.66042Z" fill="#3C8634"/>
</svg>
