<svg width="11" height="3" viewBox="0 0 11 3" fill="none" xmlns="http://www.w3.org/2000/svg">
<path d="M10.1536 0.00165372C10.0979 0.0260503 10.0422 0.0827763 10.0044 0.132332C9.99249 0.147871 10.0154 0.164225 10.0078 0.175945C9.99285 0.198846 9.96609 0.201492 9.95243 0.225696C9.94797 0.233831 9.98017 0.262681 9.97491 0.270432C9.94598 0.312631 9.90226 0.329148 9.86687 0.36329C9.6921 0.531759 9.49894 0.668706 9.29656 0.803889C9.23009 0.848324 9.16216 0.92842 9.08085 0.951965C9.07135 0.954681 9.05945 0.91933 9.05641 0.917486C9.00951 0.889459 9.05226 0.951082 9.04005 0.968509C8.99173 1.03734 8.91787 1.0779 8.84689 1.09622C8.81655 1.10395 8.81265 1.02467 8.80263 1.07499C8.80189 1.07842 8.82574 1.1104 8.81994 1.11778C8.80673 1.13449 8.77101 1.14356 8.75896 1.15257C8.73582 1.17013 8.7312 1.17182 8.70686 1.18345C8.67366 1.19966 8.64179 1.23525 8.60178 1.2431C8.59322 1.24465 8.58736 1.20343 8.57233 1.20255C8.55729 1.2017 8.52614 1.21886 8.51887 1.23223C8.5116 1.24562 8.52863 1.27263 8.52951 1.28011C8.53724 1.34315 8.46622 1.28132 8.46062 1.28136C8.35808 1.2854 8.29929 1.36027 8.21423 1.39194C8.14954 1.4159 8.07525 1.42549 8.01422 1.44849C7.9418 1.47594 7.88552 1.51684 7.81199 1.53525C7.80425 1.53722 7.79953 1.48938 7.79011 1.49168C7.69029 1.51602 7.5941 1.54781 7.5022 1.60332C7.493 1.60892 7.51579 1.64595 7.50714 1.65396C7.45446 1.7022 7.37145 1.80442 7.29778 1.63541C7.25756 1.65103 7.20899 1.66793 7.17774 1.71058C7.15764 1.73802 7.18931 1.77815 7.15585 1.76458C7.14834 1.76156 7.15022 1.72111 7.13954 1.71949C7.09483 1.71269 7.05026 1.73296 7.00526 1.71904C6.99611 1.71612 6.99325 1.68075 6.98992 1.6748C6.9625 1.6267 6.9411 1.71584 6.93432 1.72299C6.88405 1.77641 6.84037 1.76326 6.78773 1.76992C6.77554 1.77146 6.78507 1.72268 6.77325 1.72245C6.71229 1.72183 6.65008 1.73103 6.59219 1.75574C6.57924 1.76135 6.59391 1.80103 6.58779 1.80578C6.56051 1.8262 6.5502 1.75013 6.52433 1.76792C6.51884 1.77156 6.52361 1.80606 6.52275 1.80991C6.50906 1.87038 6.4913 1.7863 6.48719 1.78458C6.43408 1.76096 6.40221 1.8501 6.35052 1.83797C6.34531 1.83665 6.35431 1.8046 6.34655 1.79406C6.34526 1.79222 6.34349 1.79103 6.34107 1.79077C6.23124 1.77902 6.11123 1.78366 5.99376 1.80817C5.97534 1.81189 5.98509 1.84589 5.9836 1.84983C5.95887 1.9113 5.95555 1.8255 5.95005 1.82174C5.90676 1.79432 5.85582 1.86045 5.83614 1.75619C5.63793 1.76861 5.45229 1.68329 5.24391 1.74233C5.24128 1.74298 5.23916 1.78506 5.23395 1.78617C5.171 1.80002 5.19252 1.73749 5.16578 1.65257C5.15908 1.63125 5.11382 1.72134 5.11 1.72786C5.09615 1.75193 5.09629 1.81508 5.09224 1.81952C5.05897 1.85415 5.09627 1.6514 5.05994 1.64543C5.05875 1.64559 5.05742 1.68381 5.05378 1.68704C5.04245 1.6972 5.0355 1.68079 5.02415 1.69218C4.99811 1.71855 4.97444 1.81617 4.95132 1.75334C4.94844 1.7452 4.97349 1.63083 4.94023 1.631C4.92698 1.63116 4.86991 1.61981 4.85263 1.62467C4.83539 1.62952 4.84032 1.6685 4.83892 1.66992C4.78769 1.71204 4.80074 1.73509 4.76723 1.80436C4.73377 1.87336 4.76793 1.70136 4.76223 1.68061C4.75647 1.65991 4.7182 1.69534 4.70812 1.70819C4.69805 1.72104 4.70393 1.74624 4.69572 1.75311C4.64139 1.79786 4.68944 1.66397 4.67872 1.63407C4.65342 1.56327 4.60495 1.68713 4.5703 1.69451C4.56091 1.6965 4.57278 1.66842 4.56533 1.66443C4.53576 1.64903 4.51065 1.68612 4.48086 1.64383C4.476 1.63694 4.45922 1.55524 4.43175 1.60903C4.42785 1.6168 4.43041 1.64996 4.41597 1.65508C4.39438 1.66277 4.35753 1.66432 4.33774 1.6504C4.32309 1.6401 4.34918 1.59005 4.32675 1.60345C4.31679 1.60945 4.32859 1.64278 4.31029 1.65147C4.29206 1.66017 4.25011 1.65261 4.23417 1.64922C4.21823 1.6458 4.23283 1.60701 4.23192 1.60412C4.22627 1.58751 4.19805 1.56375 4.1953 1.56342C4.05756 1.5389 3.92145 1.59006 3.78901 1.55301C3.7786 1.55017 3.79021 1.50848 3.78866 1.50761C3.75417 1.48596 3.77087 1.60186 3.74178 1.63702C3.7544 1.55124 3.73767 1.56524 3.71296 1.55325C3.70106 1.5474 3.71106 1.51468 3.71027 1.51115C3.69676 1.45863 3.67766 1.52295 3.67318 1.53605C3.65661 1.58423 3.64859 1.52475 3.63731 1.55697C3.62616 1.58897 3.64073 1.63915 3.61637 1.63637C3.61217 1.60488 3.63755 1.52574 3.61988 1.51103C3.56205 1.46219 3.44729 1.49759 3.38265 1.51075C3.37322 1.51257 3.36473 1.51394 3.35744 1.51451C3.29876 1.51919 3.28048 1.5137 3.24655 1.52497C3.18593 1.54591 3.20768 1.48555 3.16823 1.45906C3.12824 1.43289 3.15298 1.5801 3.14872 1.61206C3.14486 1.64403 3.13793 1.61156 3.13228 1.62931C3.12674 1.64705 3.14136 1.66803 3.12687 1.67526C3.11268 1.68241 3.06819 1.62839 3.06067 1.59561C3.04456 1.52611 3.05874 1.45093 3.01906 1.47984C3.0168 1.48155 3.02738 1.51977 3.01862 1.52437C2.94922 1.55964 2.87618 1.5692 2.80922 1.60452C2.8001 1.60943 2.81422 1.65124 2.80902 1.65458C2.7551 1.68969 2.76597 1.61466 2.72214 1.53902C2.7447 1.64478 2.73678 1.71243 2.69372 1.71977C2.66771 1.7243 2.66478 1.67709 2.64242 1.64709C2.63566 1.63805 2.6224 1.67306 2.61533 1.6518C2.59197 1.58234 2.59616 1.49925 2.55534 1.53918C2.55358 1.54105 2.56693 1.57895 2.56038 1.58255C2.51858 1.60603 2.49936 1.53253 2.44861 1.53302C2.40884 1.53338 2.3504 1.59271 2.30922 1.60961C2.33616 1.72783 2.29061 1.70956 2.25536 1.63192C2.22836 1.64165 2.19727 1.64418 2.17329 1.66194C2.16503 1.66802 2.17943 1.70064 2.17917 1.70461C2.17577 1.76672 2.14436 1.69073 2.13758 1.68914C2.06531 1.67533 2.02902 1.74877 1.952 1.70764C1.94929 1.70615 1.92298 1.62601 1.92315 1.68987C1.92327 1.69424 1.95383 1.72544 1.9259 1.73641C1.89786 1.7474 1.85691 1.80635 1.80622 1.78095C1.79408 1.7748 1.74949 1.7169 1.74577 1.77403C1.74534 1.78176 1.75534 1.80395 1.75561 1.81795C1.75641 1.86257 1.72429 1.78341 1.73203 1.85683C1.73988 1.93022 1.72765 1.99094 1.67343 1.95628C1.67175 1.95531 1.64142 1.89425 1.62927 1.89943C1.61 1.90771 1.58666 1.93047 1.56623 1.93707C1.55633 1.94025 1.54891 1.89847 1.54695 1.89834C1.47268 1.89928 1.43831 1.95137 1.37406 1.99297C1.36236 2.00064 1.30507 1.96141 1.2965 2.01337C1.28759 2.07012 1.39095 2.25023 1.31265 2.22896C1.28163 2.22042 1.14934 1.99258 1.15753 2.13624C1.05789 2.1427 1.0091 2.24133 0.904975 2.24051C0.900926 2.2405 0.866337 2.19592 0.851852 2.18802C0.850904 2.18619 0.849236 2.18576 0.848153 2.18642C0.835869 2.19406 0.842956 2.22829 0.834283 2.23474C0.798265 2.2625 0.749549 2.25152 0.712131 2.2721C0.697856 2.27986 0.716631 2.31017 0.699556 2.31942C0.682509 2.32864 0.652706 2.29081 0.637243 2.32165C0.62558 2.34513 0.645007 2.43987 0.6268 2.46005C0.587955 2.37508 0.572538 2.38385 0.533171 2.37516C0.525545 2.37348 0.517576 2.34125 0.51322 2.33895C0.49498 2.32907 0.496702 2.35822 0.478253 2.34706C0.473769 2.3444 0.459292 2.31596 0.454741 2.31222C0.415006 2.27951 0.418594 2.35927 0.420371 2.37271C0.422453 2.39703 0.417536 2.40301 0.410913 2.40519C0.403446 2.40763 0.393831 2.40514 0.391666 2.41814C0.387912 2.44246 0.420273 2.44986 0.410829 2.46912C0.391758 2.50866 0.350637 2.53142 0.321468 2.55582C0.309773 2.56534 0.291793 2.52539 0.289517 2.52597C0.257212 2.53733 0.261723 2.59253 0.193223 2.53936C0.31865 2.72083 0.164461 2.53564 0.158222 2.59979C0.157811 2.60492 0.223673 2.68521 0.243804 2.6877C0.263854 2.69025 0.25786 2.65238 0.287359 2.65848C0.294506 2.65966 0.375477 2.71869 0.381442 2.72146C0.42943 2.74163 0.335329 2.61853 0.331261 2.61084C0.28692 2.52856 0.375807 2.59258 0.385739 2.59435C0.433515 2.60031 0.44519 2.56619 0.481769 2.57132C0.497563 2.57357 0.526596 2.61297 0.546642 2.63632C0.556665 2.64793 0.564486 2.65557 0.567628 2.65258C0.598098 2.62361 0.55291 2.48788 0.647099 2.57939C0.667246 2.599 0.703659 2.70423 0.699906 2.61031C0.699433 2.60447 0.692618 2.52028 0.727534 2.56035C0.731893 2.56542 0.744494 2.59522 0.747999 2.59669C0.771275 2.60591 0.772473 2.57747 0.795995 2.58102C0.8195 2.58459 0.849847 2.5919 0.868375 2.57216C0.87958 2.56031 0.873702 2.49724 0.874404 2.48085C0.875967 2.43387 0.924536 2.48855 0.915225 2.43623C0.905332 2.38387 0.850846 2.32242 0.866077 2.27862C0.902504 2.35439 0.94148 2.43142 0.979198 2.50711C0.986457 2.50338 0.993579 2.49938 1.00067 2.49513C1.05445 2.45999 1.09702 2.41554 1.15081 2.39455C1.1584 2.39168 1.16968 2.43621 1.17825 2.43422C1.21357 2.42602 1.23029 2.38341 1.26956 2.38053C1.30055 2.37824 1.34837 2.41012 1.38097 2.40985C1.36227 2.31357 1.41645 2.32703 1.44465 2.30672C1.45433 2.29971 1.44437 2.27603 1.4491 2.26523C1.46739 2.22504 1.48391 2.30974 1.49665 2.3192C1.55113 2.35967 1.48648 2.17841 1.52992 2.16758C1.53224 2.16692 1.59408 2.25363 1.59962 2.25845C1.63669 2.28944 1.59143 2.22346 1.60346 2.21115C1.62542 2.18869 1.6366 2.15884 1.67767 2.17657C1.6898 2.18183 1.73206 2.23501 1.73437 2.18215C1.7347 2.17522 1.72271 2.14349 1.72398 2.14097C1.74801 2.09818 1.78216 2.19914 1.81265 2.22718C1.84318 2.25521 1.8508 2.17571 1.8508 2.15352C1.85066 2.09613 1.83136 2.13505 1.82889 2.13021C1.79928 2.07241 1.8249 2.07587 1.84049 2.06538C1.81198 1.96486 1.83832 1.96331 1.8568 2.05491C1.85879 2.06492 1.84252 2.05975 1.84049 2.06538C1.88605 2.15853 1.91521 2.16328 1.91684 2.06286C1.91769 2.0158 1.88978 1.96941 1.93724 1.97544C1.95867 1.9782 1.97137 2.04939 1.99337 2.06345C2.04344 2.09558 2.07456 2.01734 2.11688 2.01702C2.13214 2.01693 2.12837 2.05866 2.13909 2.05993C2.16745 2.06347 2.18278 2.02899 2.21245 2.0371C2.21513 2.03789 2.21952 2.07928 2.22765 2.07777C2.28935 2.0672 2.33619 2.02893 2.39984 2.01407C2.43066 2.00685 2.49027 2.01752 2.52114 2.00676C2.57446 1.98823 2.63235 1.91684 2.68252 1.92336C2.71493 1.92749 2.71474 1.96931 2.73225 1.99496C2.76577 2.04472 2.79546 1.9419 2.79993 1.92607C2.80005 1.92553 2.77203 1.91973 2.78324 1.89675C2.78539 1.85191 2.79963 1.92592 2.79993 1.92607C2.80261 1.91577 2.85447 1.89939 2.86591 1.906C2.8722 1.90956 2.87376 1.94872 2.87692 1.94984C2.95139 1.97591 3.02052 1.97918 3.08859 1.9565C3.08975 1.95564 3.08512 1.91216 3.08792 1.91067C3.12803 1.88872 3.15616 1.941 3.18983 1.9717C3.22313 2.00245 3.247 1.99167 3.26651 1.9167C3.29075 1.92612 3.32638 1.89371 3.34744 1.87443C3.357 1.86562 3.36204 1.87853 3.3647 1.89534C3.36823 1.91543 3.36834 1.94107 3.36931 1.94203C3.42491 1.99867 3.46146 1.95223 3.5243 1.94939C3.55375 1.94784 3.61172 1.96523 3.64252 1.97756C3.66698 1.98742 3.68427 1.96913 3.70653 1.98423C3.70954 1.98625 3.70242 2.02357 3.70324 2.02512C3.72434 2.07287 3.72161 1.97954 3.72872 1.96366C3.75458 1.90597 3.77043 1.87546 3.80129 1.9074C3.80861 1.91474 3.81567 2.04969 3.82873 2.05909C3.8458 2.07107 3.84457 2.02282 3.86242 2.03662C3.86395 2.03776 3.86006 2.06697 3.87208 2.06713C3.92751 2.06822 3.99005 2.05908 4.04714 2.06989C4.05497 2.07126 4.03854 2.11618 4.04972 2.11891C4.10209 2.13171 4.16079 2.13839 4.21598 2.12444C4.22962 2.12087 4.22638 2.08731 4.23059 2.07811C4.2564 2.02249 4.2682 2.11065 4.27195 2.11286C4.3613 2.16786 4.44687 2.10305 4.53943 2.15512C4.54446 2.15811 4.5711 2.25514 4.60203 2.18058C4.60412 2.17563 4.63519 2.09925 4.64254 2.1561C4.64299 2.15966 4.62501 2.19865 4.64552 2.1977C4.66599 2.19676 4.69358 2.22924 4.72823 2.18884C4.7392 2.17612 4.7725 2.10034 4.78814 2.16763C4.78911 2.17231 4.80582 2.32143 4.83616 2.22539C4.84112 2.20957 4.8557 2.10507 4.87789 2.16349C4.88213 2.17481 4.86757 2.19627 4.88083 2.21332C4.90115 2.23958 4.93739 2.21686 4.95924 2.26802C4.96302 2.27706 4.97359 2.35131 4.99988 2.30051C5.00399 2.29255 5.00438 2.25694 5.0143 2.25455C5.06131 2.243 5.10426 2.27374 5.15299 2.25678C5.17025 2.25084 5.17093 2.19331 5.19001 2.18087C5.20911 2.16845 5.24488 2.15919 5.25825 2.18758C5.27168 2.21599 5.23871 2.30271 5.26387 2.31394C5.37349 2.36269 5.49595 2.32687 5.61343 2.33445C5.63082 2.33555 5.61233 2.3659 5.63767 2.36979C5.73139 2.38466 5.89519 2.43337 5.98705 2.37137C6.059 2.32177 5.97756 2.27302 6.03075 2.2547C6.05639 2.24595 6.07595 2.35301 6.08195 2.35673C6.14026 2.39432 6.18469 2.3497 6.23992 2.3657C6.25128 2.36899 6.23886 2.41142 6.24864 2.41374C6.28118 2.42184 6.31803 2.4042 6.3498 2.40644C6.35051 2.4065 6.35123 2.40656 6.35194 2.40664C6.36594 2.40821 6.36364 2.44088 6.3766 2.43823C6.40757 2.43224 6.43486 2.41796 6.46403 2.38651C6.46664 2.38364 6.4472 2.34357 6.46974 2.3414C6.50636 2.33798 6.54961 2.30598 6.5931 2.3348C6.60596 2.34346 6.61102 2.41797 6.63472 2.36487C6.63969 2.35375 6.62667 2.26485 6.66272 2.34003C6.66847 2.35258 6.72937 2.45285 6.74985 2.38347C6.75526 2.36523 6.76599 2.29069 6.78167 2.30081C6.78385 2.30246 6.77946 2.34313 6.79214 2.34587C6.83674 2.35485 6.88216 2.34574 6.92809 2.35292C6.94041 2.35491 6.92753 2.39823 6.94584 2.39985C6.99624 2.40436 7.05673 2.38549 7.10223 2.36549C7.11908 2.35804 7.10179 2.32589 7.10252 2.322C7.11371 2.25879 7.13821 2.33803 7.14585 2.34167C7.19293 2.36323 7.21859 2.31977 7.25902 2.32295C7.2702 2.32371 7.26951 2.3636 7.27226 2.36666C7.30058 2.39621 7.27152 2.33002 7.28413 2.31985C7.31945 2.29111 7.363 2.28589 7.40328 2.28278C7.41809 2.28168 7.41094 2.32948 7.4242 2.32796C7.50315 2.31972 7.58203 2.2974 7.65015 2.25493C7.66292 2.24686 7.64581 2.21507 7.6468 2.20661C7.65314 2.14754 7.7006 2.21411 7.70925 2.21937C7.74808 2.24362 7.75234 2.21054 7.78052 2.209C7.91968 2.20184 8.07463 2.13341 8.19133 2.08079C8.34374 2.01241 8.45139 1.93698 8.60009 1.88691C8.6095 1.88368 8.61751 1.93057 8.62588 1.92832C8.7335 1.8971 8.82729 1.83736 8.93413 1.80408C8.94289 1.80126 8.94893 1.84688 8.96364 1.84367C8.99394 1.83738 9.028 1.81915 9.04973 1.79352C9.06031 1.78112 9.02635 1.7552 9.03728 1.74344C9.06265 1.71598 9.09475 1.69731 9.12992 1.68823C9.14495 1.68444 9.14383 1.73502 9.1619 1.72689C9.28476 1.67257 9.40707 1.61886 9.49836 1.50358C9.50464 1.49565 9.46827 1.41118 9.49376 1.41735C9.50718 1.439 9.52137 1.46534 9.5349 1.48892C9.71301 1.40894 9.86339 1.28464 10.0254 1.17847C10.0322 1.17399 10.0458 1.22271 10.0592 1.21422C10.137 1.16503 10.2197 1.12814 10.2716 1.03625C10.2768 1.0272 10.2258 0.958503 10.2556 0.954315C10.2609 0.953659 10.3013 0.940469 10.3204 0.949934C10.3232 0.95145 10.3391 0.988771 10.3508 0.982334C10.4184 0.944347 10.48 0.891 10.5289 0.826954C10.5367 0.816566 10.5016 0.789386 10.5069 0.781699C10.5448 0.727557 10.6189 0.714203 10.6442 0.648076C10.661 0.603698 10.6058 0.553116 10.5799 0.482544C10.5762 0.472594 10.5948 0.456906 10.5708 0.422356C10.5106 0.335468 10.4326 0.249196 10.3695 0.155752C10.3559 0.135651 10.3966 0.138027 10.3468 0.101925C10.3435 0.099549 10.3137 0.0973288 10.2975 0.08458C10.2862 0.0757859 10.2665 0.0372493 10.2497 0.0277068C10.233 0.01816 10.2473 0.0521481 10.2246 0.0431098C10.2018 0.0338318 10.1777 -0.00877717 10.1536 0.00165372ZM3.44941 1.78974C3.47269 1.7503 3.46578 1.89971 3.44623 1.86261C3.44528 1.86065 3.44822 1.79167 3.44941 1.78974ZM1.04174 2.31695C1.03833 2.24549 1.09535 2.32599 1.10037 2.37987C1.10569 2.4336 1.04301 2.33852 1.04174 2.31695ZM0.754641 2.39663C0.764679 2.33605 0.851886 2.52942 0.802447 2.50366C0.799612 2.50222 0.754038 2.40016 0.754641 2.39663ZM10.4899 0.522603C10.489 0.520822 10.5019 0.509086 10.5034 0.510434C10.5388 0.543473 10.5127 0.567009 10.4899 0.522603ZM0.479882 2.46449C0.474661 2.4345 0.515195 2.45066 0.521034 2.48788C0.526172 2.51749 0.486979 2.50133 0.479882 2.46449ZM4.55794 1.76646C4.55863 1.76432 4.57111 1.76427 4.56888 1.77667C4.56167 1.81661 4.54656 1.80261 4.55794 1.76646ZM0.108276 2.75401C0.154501 2.69969 0.0689692 2.54057 0.0238566 2.60923C0.0158234 2.6216 0.0845103 2.62911 0.0819166 2.65309C0.0773247 2.69664 -0.0139941 2.63157 0.0018342 2.6976C0.00479738 2.70963 0.105904 2.75739 0.108536 2.7541C0.108449 2.75407 0.108362 2.75404 0.108276 2.75401ZM3.47281 1.61123C3.47334 1.60928 3.49039 1.60852 3.49067 1.61051C3.49656 1.65848 3.46251 1.66005 3.47281 1.61123ZM5.28266 1.78981C5.28426 1.78581 5.32382 1.78797 5.32447 1.79199C5.33299 1.87189 5.25273 1.86771 5.28266 1.78981ZM2.30924 1.61292C2.28037 1.57038 2.25665 1.57 2.25543 1.63184C2.27305 1.62451 2.29134 1.61989 2.30924 1.61292Z" fill="#963076"/>
</svg>
