<svg width="15" height="4" viewBox="0 0 15 4" fill="none" xmlns="http://www.w3.org/2000/svg">
<path d="M14.3376 3.69037C14.2484 3.70959 14.1297 3.70221 14.0413 3.68713C14.0133 3.6825 14.0261 3.65537 14.0067 3.65096C13.9684 3.64236 13.9353 3.65674 13.8978 3.64592C13.8854 3.6422 13.899 3.59966 13.886 3.59672C13.8153 3.58086 13.7501 3.59373 13.6796 3.58687C13.3319 3.55286 12.9947 3.5404 12.6475 3.52298C12.5332 3.51726 12.394 3.47954 12.2764 3.49642C12.2626 3.49843 12.2709 3.53526 12.2683 3.5383C12.2272 3.58487 12.2408 3.51046 12.2139 3.50062C12.1079 3.46177 11.9892 3.45853 11.8873 3.47296C11.8441 3.4792 11.8878 3.5523 11.8437 3.51132C11.8406 3.50855 11.8516 3.46939 11.8396 3.46524C11.8124 3.45592 11.7613 3.46304 11.7405 3.46001C11.7002 3.45395 11.6932 3.45437 11.6551 3.45407C11.6036 3.45331 11.5404 3.43416 11.4852 3.44337C11.4734 3.44545 11.4893 3.48547 11.4705 3.49241C11.4513 3.49935 11.4007 3.49632 11.3838 3.487C11.3669 3.47768 11.3738 3.4461 11.3708 3.43889C11.3463 3.37809 11.2877 3.46315 11.2805 3.46533C11.1444 3.50243 11.0284 3.45613 10.9004 3.45963C10.8028 3.46243 10.7028 3.48192 10.6117 3.48466C10.5503 3.48641 10.4937 3.48251 10.4405 3.4815C10.3952 3.48118 10.3489 3.48155 10.3013 3.48613C10.2896 3.4872 10.3063 3.53344 10.2919 3.53483C10.1383 3.54956 9.98466 3.5473 9.83332 3.51313C9.81818 3.50965 9.83839 3.46857 9.82337 3.46261C9.73052 3.42736 9.59252 3.33926 9.52651 3.51562C9.46435 3.50489 9.38833 3.4919 9.33582 3.45082C9.30192 3.42434 9.34073 3.38254 9.29515 3.39772C9.28491 3.40107 9.29408 3.44161 9.27892 3.44365C9.21488 3.45215 9.14775 3.43204 9.08338 3.4449C9.07024 3.4476 9.06944 3.48316 9.06508 3.48905C9.02839 3.53666 8.98905 3.44553 8.97908 3.43793C8.90234 3.38105 8.83997 3.39025 8.76368 3.37702C8.74596 3.3739 8.75948 3.42423 8.74209 3.42289C8.65166 3.41526 8.56019 3.39488 8.47775 3.35752C8.4594 3.34908 8.48479 3.31273 8.47644 3.30666C8.43963 3.28037 8.41598 3.35366 8.38043 3.32958C8.37294 3.3246 8.38449 3.29157 8.38376 3.28753C8.37264 3.22424 8.33532 3.30296 8.32886 3.30352C8.24789 3.31254 8.21839 3.21541 8.14378 3.211C8.13475 3.21052 8.14439 3.25782 8.11956 3.25386C7.95404 3.22765 7.78532 3.17095 7.63686 3.09151C7.61378 3.07921 7.6405 3.05263 7.64007 3.04828C7.63272 2.98006 7.59268 3.05693 7.5837 3.05762C7.51386 3.06107 7.47638 2.97493 7.40346 3.05825C7.14817 2.94149 6.86561 2.90075 6.64254 2.71363C6.63969 2.71135 6.66108 2.67479 6.65534 2.67042C6.59352 2.62275 6.57963 2.6713 6.5179 2.71962C6.51097 2.72514 6.50344 2.73066 6.49516 2.73603C6.47475 2.74925 6.47247 2.64426 6.4717 2.63632C6.46904 2.60711 6.50595 2.55493 6.50365 2.54854C6.4839 2.49761 6.41059 2.69035 6.36327 2.67077C6.36193 2.66984 6.38264 2.63736 6.38016 2.63225C6.37251 2.61624 6.3546 2.62512 6.34765 2.60808C6.33182 2.56876 6.36065 2.47228 6.29612 2.50851C6.28793 2.51328 6.25081 2.62449 6.211 2.60186C6.19527 2.5928 6.12041 2.56358 6.10245 2.5478C6.08456 2.53206 6.11346 2.50335 6.11261 2.50122C6.0761 2.43181 6.10536 2.42171 6.10611 2.34199C6.1068 2.26254 6.0464 2.42727 6.0274 2.44048C6.0084 2.45364 5.98341 2.39845 5.97889 2.38101C5.97439 2.36358 5.99627 2.34685 5.9905 2.33562C5.95217 2.26198 5.93067 2.40475 5.90035 2.42211C5.8287 2.46326 5.84344 2.32829 5.80654 2.29872C5.79654 2.29071 5.7942 2.3219 5.783 2.32013C5.73877 2.31275 5.73059 2.26516 5.67026 2.27977C5.66038 2.28213 5.59276 2.33817 5.5915 2.27521C5.59139 2.26616 5.61377 2.24053 5.59956 2.22652C5.57837 2.20557 5.53514 2.17925 5.50349 2.17738C5.48009 2.17601 5.48213 2.23502 5.46323 2.2088C5.45485 2.19712 5.4882 2.17751 5.47143 2.15795C5.45477 2.13845 5.40018 2.11632 5.37919 2.10838C5.35823 2.10049 5.35335 2.1425 5.35061 2.14428C5.33435 2.15426 5.28715 2.15504 5.28369 2.15348C5.10593 2.08156 4.972 1.94817 4.7924 1.8931C4.77837 1.88874 4.76991 1.93169 4.76759 1.93143C4.71468 1.92748 4.79681 1.83979 4.78026 1.79084C4.74966 1.87204 4.73709 1.84928 4.70099 1.84358C4.68357 1.84089 4.67835 1.8753 4.67554 1.8778C4.63173 1.91404 4.64258 1.8468 4.64397 1.83267C4.649 1.78067 4.60863 1.82671 4.61169 1.7918C4.61473 1.75716 4.65856 1.72344 4.62736 1.71013C4.60599 1.73453 4.59581 1.81879 4.56692 1.82022C4.45798 1.82586 4.31962 1.69342 4.25102 1.65477C4.18335 1.61662 4.15776 1.61114 4.12124 1.58203C4.05538 1.52939 4.05809 1.59684 3.9998 1.60022C3.94164 1.60362 4.02652 1.47989 4.0332 1.44794C4.04004 1.41607 4.01915 1.44246 4.01842 1.42285C4.01772 1.40326 4.04425 1.39174 4.02808 1.377C4.01198 1.36231 3.93644 1.3895 3.91539 1.41636C3.87127 1.4735 3.86343 1.55147 3.82396 1.50432C3.82172 1.50157 3.8476 1.47074 3.83819 1.46199C3.76346 1.39392 3.67278 1.34899 3.59634 1.28304C3.58597 1.27397 3.61535 1.24006 3.60954 1.23435C3.54965 1.17492 3.54306 1.25267 3.46791 1.30643C3.52388 1.21366 3.53003 1.14341 3.47622 1.11655C3.44289 1.09986 3.42803 1.14501 3.39191 1.16432C3.38103 1.17015 3.37192 1.12966 3.35798 1.1475C3.31206 1.20562 3.29873 1.28945 3.25584 1.23232C3.25398 1.22969 3.2796 1.19813 3.27191 1.19165C3.22227 1.14954 3.18375 1.21502 3.11816 1.1924C3.06764 1.17513 3.00399 1.0909 2.95501 1.05695C3.01177 0.949798 2.94841 0.948111 2.88958 1.01158C2.85738 0.990755 2.81593 0.973976 2.7896 0.946545C2.77989 0.936792 2.80426 0.910067 2.80462 0.905943C2.81036 0.841336 2.75663 0.904608 2.74765 0.903301C2.65194 0.885785 2.61909 0.796131 2.51147 0.800316C2.50818 0.800522 2.46919 0.854312 2.46943 0.821931C2.46953 0.817768 2.47028 0.812162 2.47186 0.804805C2.47233 0.802818 2.48171 0.79814 2.48881 0.791398C2.49244 0.787945 2.49546 0.78394 2.49637 0.779477C2.49758 0.773483 2.49497 0.76663 2.48484 0.759153C2.45276 0.735319 2.41114 0.656738 2.34345 0.663241C2.32689 0.664584 2.26524 0.708391 2.26723 0.648937C2.2675 0.640857 2.28233 0.621385 2.28405 0.607068C2.28891 0.561172 2.24173 0.632578 2.25684 0.559139C2.27208 0.485828 2.25471 0.416444 2.1803 0.438635C2.1779 0.439184 2.13884 0.495793 2.12301 0.488164C2.09756 0.475748 2.06454 0.448278 2.03596 0.439143C2.02229 0.434791 2.01773 0.477472 2.01514 0.47741C1.91968 0.471085 1.86639 0.419278 1.76645 0.389317C1.74729 0.383605 1.69089 0.435391 1.65774 0.389082C1.6283 0.349944 1.65025 0.219459 1.61359 0.183338C1.60923 0.183027 1.59629 0.184274 1.59192 0.184478C1.57969 0.175193 1.5628 0.174974 1.54021 0.189721C1.49588 0.216526 1.50639 0.479534 1.40912 0.366491C1.29272 0.434269 1.15217 0.42273 1.05767 0.528853C1.05338 0.533618 1.07268 0.606228 1.06067 0.611941C1.04242 0.620494 1.01583 0.596617 1.00203 0.602162C0.993888 0.605281 0.98618 0.609115 0.978797 0.61348C0.934751 0.639534 0.905334 0.683088 0.861684 0.707722C0.842494 0.718693 0.828862 0.685358 0.805826 0.698807C0.78243 0.712667 0.794993 0.760462 0.752669 0.763487C0.720949 0.765459 0.641834 0.706136 0.605374 0.720133C0.661033 0.795267 0.639793 0.808912 0.620492 0.855761C0.616817 0.864806 0.644212 0.884575 0.643533 0.890155C0.64118 0.913471 0.612896 0.901652 0.612325 0.925669C0.612174 0.93145 0.632225 0.956286 0.633327 0.962342C0.643477 1.0147 0.565209 0.986716 0.551271 0.982197C0.499149 0.964187 0.515917 1.00458 0.487421 1.0046C0.458657 1.00491 0.467992 0.965703 0.44114 0.974132C0.38568 0.991496 0.338211 1.0416 0.297912 1.07744C0.281975 1.09188 0.321858 1.11287 0.320252 1.11566C0.295563 1.15368 0.231532 1.15256 0.273446 1.23026C0.0978658 1.0951 0.269243 1.26394 0.193907 1.27709C0.187924 1.27806 0.109838 1.20939 0.112711 1.18495C0.115684 1.16045 0.159311 1.16285 0.162036 1.12698C0.162665 1.11853 0.121186 1.02327 0.121019 1.01529C0.117955 0.95436 0.229008 1.0629 0.23633 1.06766C0.316399 1.11832 0.277153 1.01166 0.281015 0.99829C0.298458 0.937039 0.347606 0.92229 0.366248 0.874535C0.378689 0.843386 0.314608 0.764549 0.335016 0.751166C0.403362 0.70667 0.51302 0.800014 0.495431 0.657265C0.492096 0.626666 0.410995 0.54879 0.511299 0.581854C0.517715 0.583834 0.599982 0.621741 0.590356 0.566255C0.589133 0.559255 0.569945 0.533201 0.571729 0.528532C0.584343 0.497588 0.614801 0.507475 0.632884 0.479761C0.651248 0.451868 0.672155 0.415415 0.708094 0.405021C0.729903 0.398556 0.785484 0.434633 0.801696 0.441887C0.837942 0.458051 0.839472 0.416493 0.858108 0.413364C0.863513 0.412439 0.870269 0.414745 0.879545 0.422622C0.920919 0.458234 0.93256 0.542615 0.987605 0.548971C0.946563 0.47559 0.906446 0.399104 0.866446 0.324572C0.95922 0.274197 1.06532 0.249644 1.16676 0.203967C1.1794 0.198232 1.14907 0.161759 1.16257 0.154429C1.22029 0.123717 1.28485 0.135372 1.34742 0.104776C1.39582 0.0809385 1.44501 0.0210871 1.5022 -7.62675e-06C1.52389 0.0382408 1.54985 0.0522277 1.57758 0.0565004C1.585 0.0561533 1.60701 0.0540318 1.61442 0.054561C1.65008 0.0645318 1.6916 0.0577329 1.72562 0.0654076C1.7462 0.0700755 1.74265 0.0956073 1.75633 0.105314C1.80722 0.141866 1.7916 0.0548624 1.80868 0.0433712C1.8845 -0.00384128 1.85985 0.186867 1.93013 0.196784C1.93327 0.197096 2.00422 0.108586 2.01317 0.104503C2.06632 0.0755511 2.0111 0.140792 2.03488 0.155185C2.07811 0.181917 2.10102 0.214866 2.16353 0.205629C2.1814 0.20263 2.24249 0.157608 2.25292 0.215688C2.25423 0.223262 2.23898 0.253623 2.24122 0.256722C2.28195 0.310211 2.32645 0.213952 2.37384 0.196283C2.42155 0.178873 2.43595 0.268925 2.43486 0.29239C2.43344 0.35358 2.40556 0.303465 2.40166 0.307617C2.35721 0.356802 2.39505 0.363649 2.41683 0.381556C2.37111 0.475474 2.40648 0.487724 2.43948 0.399769C2.44299 0.390087 2.41948 0.388366 2.41683 0.381556C2.48651 0.302614 2.53346 0.313517 2.52514 0.419658C2.52098 0.469348 2.47719 0.503884 2.54181 0.520529C2.57103 0.528252 2.5991 0.46111 2.6315 0.458102C2.65415 0.456043 2.67263 0.463856 2.68875 0.476252C2.7183 0.49995 2.74224 0.549385 2.77926 0.562448C2.79909 0.569538 2.8014 0.525357 2.81564 0.529016C2.85073 0.536978 2.8664 0.579741 2.90504 0.583863C2.9086 0.584208 2.92157 0.544291 2.93165 0.549274C3.0114 0.587825 3.06418 0.645753 3.14732 0.68977C3.18576 0.710147 3.26904 0.727178 3.30755 0.751668C3.3771 0.795386 3.43945 0.893084 3.50771 0.910254C3.55264 0.921844 3.56184 0.880451 3.59176 0.863793C3.64864 0.830964 3.66566 0.947447 3.66747 0.965062C3.66747 0.96562 3.62792 0.957329 3.63757 0.985478C3.62941 1.03048 3.667 0.965045 3.66747 0.965062C3.66905 0.976675 3.73438 1.01839 3.75197 1.01803C3.76143 1.01778 3.774 0.980511 3.77861 0.981043C3.88813 0.994589 3.986 1.02975 4.07446 1.09118C4.07583 1.09269 4.05479 1.13108 4.05824 1.13413C4.10579 1.17774 4.16335 1.14554 4.22298 1.13816C4.28227 1.13064 4.31368 1.15678 4.30981 1.23751C4.34881 1.24504 4.38438 1.29777 4.40481 1.32919C4.4252 1.3606 4.46451 1.28507 4.46772 1.28469C4.56894 1.27165 4.5941 1.33646 4.67296 1.38032C4.71005 1.40115 4.79305 1.42488 4.83867 1.43507C4.87502 1.44312 4.88704 1.47029 4.92309 1.4724C4.92795 1.47271 4.93913 1.43624 4.941 1.43548C4.99388 1.40944 4.93964 1.4866 4.94003 1.50486C4.94124 1.57118 4.94414 1.6075 4.99969 1.60119C5.01249 1.59978 5.09609 1.49106 5.11774 1.49211C5.14572 1.49366 5.11737 1.53335 5.1472 1.53387C5.14974 1.53396 5.16118 1.5068 5.17619 1.51484C5.24615 1.55184 5.31794 1.60206 5.39438 1.63221C5.40478 1.63643 5.41031 1.58785 5.42562 1.59323C5.49734 1.61849 5.57298 1.65324 5.63219 1.70268C5.6467 1.71498 5.62324 1.74049 5.62301 1.75098C5.62198 1.81459 5.68746 1.74981 5.6933 1.75055C5.83396 1.7665 5.89882 1.87839 6.04033 1.89861C6.04814 1.89959 6.13717 1.83792 6.13018 1.92025C6.1298 1.92577 6.12177 2.00964 6.16412 1.9679C6.16676 1.96528 6.16818 1.92097 6.19219 1.9357C6.2162 1.95043 6.2681 1.94236 6.28549 1.99899C6.29094 2.01682 6.28638 2.10187 6.34444 2.05695C6.34839 2.05377 6.4555 1.94203 6.43519 2.04158C6.43187 2.05798 6.38781 2.1539 6.44856 2.12067C6.46022 2.11418 6.45547 2.08669 6.48119 2.08152C6.52064 2.07345 6.55034 2.11643 6.60574 2.08857C6.6154 2.08357 6.67106 2.02916 6.67266 2.08865C6.67291 2.09796 6.65275 2.12773 6.6631 2.13628C6.68653 2.15575 6.71415 2.16647 6.74168 2.1773C6.77124 2.18891 6.80083 2.20056 6.82512 2.22406C6.8416 2.23991 6.81034 2.28872 6.82535 2.31113C6.84039 2.33357 6.87708 2.36377 6.90824 2.34794C6.93935 2.33208 6.94853 2.23836 6.98334 2.24401C7.13454 2.2684 7.25587 2.36865 7.39616 2.42387C7.41693 2.43204 7.40971 2.39542 7.44095 2.40514C7.55646 2.44137 7.76327 2.47261 7.84524 2.56692C7.91162 2.64291 7.79771 2.65473 7.85418 2.69384C7.88171 2.71263 7.94193 2.61964 7.94991 2.61834C8.02943 2.60478 8.06645 2.66255 8.13413 2.66461C8.14803 2.66498 8.14538 2.62028 8.15704 2.62104C8.19682 2.62321 8.23264 2.65141 8.27004 2.65652C8.28682 2.65871 8.29115 2.62619 8.3056 2.6321C8.34016 2.64582 8.36934 2.66638 8.39811 2.70394C8.40076 2.70737 8.37033 2.74234 8.39695 2.74965C8.43979 2.76129 8.48871 2.8023 8.54494 2.78161C8.56179 2.77536 8.5766 2.70225 8.59885 2.75902C8.60351 2.77086 8.57827 2.85733 8.63009 2.7883C8.63892 2.77691 8.71993 2.68561 8.73882 2.75718C8.74381 2.77604 8.75218 2.85192 8.77217 2.8436C8.77491 2.8422 8.77182 2.80102 8.78735 2.79967C8.84229 2.79563 8.89614 2.80845 8.95216 2.80398C8.96702 2.80269 8.95168 2.75853 8.97354 2.75788C9.03335 2.75601 9.10516 2.77615 9.16106 2.79585C9.18171 2.8032 9.16302 2.83559 9.16411 2.83948C9.18207 2.90285 9.20624 2.82293 9.21491 2.81908C9.26893 2.79624 9.30436 2.83858 9.35234 2.83277C9.36562 2.83126 9.35993 2.79143 9.36284 2.7882C9.39272 2.75664 9.36644 2.82487 9.38283 2.8341C9.42872 2.86016 9.48232 2.86113 9.53095 2.85928C9.54875 2.85853 9.53185 2.81196 9.5477 2.8118C9.64178 2.80994 9.73783 2.81824 9.8285 2.84487C9.84557 2.84996 9.8342 2.88472 9.83766 2.89276C9.86177 2.94905 9.8989 2.87314 9.90722 2.8659C9.94518 2.83289 9.95968 2.86372 9.99284 2.85764C10.1146 2.83492 10.2561 2.83476 10.3833 2.83316C10.4329 2.83203 10.4832 2.83217 10.5268 2.83269C10.7568 2.83573 10.928 2.8659 11.1358 2.85379C11.149 2.85309 11.135 2.80679 11.1464 2.80559C11.294 2.79224 11.4392 2.80935 11.5857 2.79524C11.5978 2.79416 11.5802 2.75016 11.5995 2.74696C11.6387 2.74007 11.6889 2.74229 11.7294 2.75624C11.7487 2.76297 11.7229 2.80087 11.7424 2.80686C11.7877 2.82091 11.8372 2.82393 11.8839 2.81677C11.9037 2.81363 11.8737 2.76861 11.8995 2.76804C12.0761 2.76323 12.249 2.75532 12.4266 2.81322C12.4388 2.81719 12.4497 2.90879 12.4755 2.89114C12.4774 2.8657 12.4772 2.83579 12.4779 2.80861C12.7335 2.79316 12.9859 2.82341 13.2406 2.82438C13.2513 2.82441 13.232 2.77616 13.2527 2.77597C13.3731 2.77477 13.4886 2.75897 13.6123 2.80386C13.6245 2.80824 13.6207 2.8938 13.6561 2.87986C13.6622 2.87734 13.7158 2.86432 13.7292 2.84532C13.731 2.84246 13.7199 2.80293 13.7373 2.80121C13.837 2.7919 13.9426 2.79683 14.0435 2.81622C14.0596 2.81943 14.0447 2.86267 14.0563 2.86532C14.1393 2.88374 14.2258 2.8463 14.3047 2.87937C14.3585 2.90155 14.3448 2.97609 14.3781 3.04602C14.3829 3.05589 14.4152 3.05496 14.4203 3.09671C14.4331 3.2017 14.4265 3.31832 14.442 3.43008C14.4454 3.45417 14.4879 3.42445 14.4663 3.48506C14.4648 3.48913 14.4337 3.51116 14.427 3.53161C14.4224 3.54576 14.436 3.58758 14.4257 3.60603C14.4153 3.62447 14.3998 3.58972 14.3817 3.61177C14.3635 3.63406 14.3756 3.68199 14.3376 3.69037ZM4.49712 1.46992C4.50694 1.51919 4.57253 1.38473 4.52897 1.40428C4.52679 1.40539 4.49657 1.46747 4.49712 1.46992ZM1.11547 0.354132C1.18031 0.39634 1.16726 0.296483 1.11874 0.262264C1.06906 0.228858 1.09511 0.341746 1.11547 0.354132ZM0.778077 0.605758C0.845064 0.623397 0.735093 0.441909 0.715786 0.506413C0.714627 0.51012 0.774123 0.60479 0.778077 0.605758ZM14.2499 3.07562C14.2505 3.07758 14.2741 3.07798 14.2745 3.07597C14.2838 3.02777 14.2368 3.02699 14.2499 3.07562ZM0.488655 0.892221C0.517948 0.904959 0.528069 0.853539 0.491707 0.837362C0.462279 0.824426 0.451945 0.876521 0.488655 0.892221ZM5.83404 2.23108C5.83359 2.23332 5.84843 2.24182 5.85305 2.2301C5.86789 2.19232 5.84167 2.19359 5.83404 2.23108ZM0.000428783 1.36181C0.0756225 1.29434 0.242182 1.37493 0.153985 1.43755C0.137959 1.44905 0.142796 1.36864 0.114249 1.3755C0.0618952 1.3884 0.121207 1.48566 0.0465879 1.47909C0.0328816 1.47791 -0.00409963 1.36529 0.000372452 1.36152C0.000391462 1.36162 0.000409753 1.36172 0.000428783 1.36181ZM4.43839 1.64051C4.4381 1.64255 4.45884 1.65399 4.46017 1.65244C4.49137 1.61445 4.44964 1.59139 4.43839 1.64051ZM6.71677 2.69911C6.71644 2.70354 6.76634 2.72728 6.76942 2.72427C6.82406 2.66226 6.72406 2.61441 6.71677 2.69911ZM2.95563 1.05363C2.91003 1.08378 2.87962 1.07421 2.88965 1.01169C2.91057 1.02631 2.93343 1.03879 2.95563 1.05363Z" fill="#963076"/>
</svg>
