<svg width="11" height="13" viewBox="0 0 11 13" fill="none" xmlns="http://www.w3.org/2000/svg">
<path d="M9.82768 3.62066C9.74416 3.42933 9.66328 3.18287 9.59976 2.99633C9.57993 2.93793 9.61694 2.95542 9.60391 2.91434C9.57832 2.83441 9.53293 2.77069 9.50669 2.69242C9.49799 2.66629 9.55088 2.67734 9.54078 2.6502C9.48511 2.50225 9.40227 2.37826 9.32552 2.24002C9.31744 2.22549 9.30925 2.21096 9.30094 2.19642C9.06821 1.78653 8.77184 1.44293 8.41005 1.08228C8.30669 0.961468 7.99905 0.87318 7.71053 0.82796C7.45283 0.785255 7.12319 0.72808 6.84005 0.737492C6.8071 0.738612 6.82576 0.775966 6.81943 0.778839C6.71873 0.822966 6.75494 0.749421 6.69019 0.738344C6.59528 0.722312 6.49768 0.711967 6.39669 0.706336C6.23917 0.696132 6.0826 0.714668 6.01494 0.765713C6.01246 0.767317 6.01003 0.769058 6.00785 0.770795C5.95989 0.811713 6.05037 0.832481 5.97119 0.837411C5.96525 0.838227 5.95853 0.794998 5.93889 0.803861C5.89344 0.822906 5.82971 0.896836 5.80108 0.929006C5.74496 0.989707 5.73693 1.00302 5.69094 1.07352C5.62828 1.17087 5.54241 1.29141 5.49054 1.41565C5.47971 1.44197 5.53238 1.42602 5.51835 1.46978C5.51362 1.48435 5.50509 1.50432 5.49403 1.52758C5.47538 1.56634 5.45274 1.6147 5.43912 1.6347C5.41896 1.66418 5.39384 1.64061 5.38497 1.64422C5.3084 1.67658 5.3625 1.82316 5.36333 1.83758C5.34945 2.1312 5.32447 2.4011 5.36137 2.70858C5.36232 2.71625 5.36329 2.72391 5.36427 2.73155C5.38415 2.90013 5.51028 3.06599 5.64503 3.2075C5.81159 3.38272 5.97877 3.53146 6.19249 3.67687C6.21513 3.69222 6.21581 3.63523 6.24346 3.65382C6.47567 3.81413 6.72 3.95691 6.949 4.21105C7.01804 4.29176 7.068 4.37734 7.1027 4.48232C7.11856 4.53564 7.05606 4.48239 7.06804 4.53576C7.07042 4.54757 7.07263 4.55974 7.07463 4.57676C7.07555 4.58545 7.07665 4.59465 7.07688 4.61126C7.07676 4.62035 7.07732 4.62887 7.07368 4.65088C7.06395 4.65875 7.08548 4.75526 6.92002 4.7881C6.60807 4.78838 6.38443 4.46449 6.18535 4.45705C6.09219 4.31594 6.01337 4.16533 5.96958 4.0683C5.94027 4.00644 6.01719 4.01449 5.94279 3.97738C5.92655 3.97088 5.92024 4.01475 5.89982 4.00486C5.8956 4.00293 5.89145 4.00111 5.88737 3.9994C5.76467 3.94002 5.63593 3.8629 5.50401 3.82416C5.47558 3.8159 5.4684 3.85155 5.45832 3.854C5.37511 3.87285 5.30299 3.75051 5.28112 3.73523C5.11909 3.62058 4.97768 3.59039 4.80575 3.53485C4.76578 3.52209 4.79892 3.5822 4.7601 3.57166C4.55902 3.51671 4.35163 3.45859 4.15613 3.39527C4.11261 3.38111 4.16197 3.35017 4.1415 3.34138C4.05058 3.30339 4.01499 3.37445 3.92781 3.34183C3.90934 3.33511 3.9261 3.30287 3.92328 3.2985C3.87847 3.22988 3.81655 3.3058 3.80245 3.30547C3.76481 3.3049 3.73047 3.30021 3.69843 3.29308C3.57327 3.26569 3.48016 3.20063 3.33957 3.19796C3.31864 3.19774 3.36149 3.24544 3.30328 3.24227C2.91501 3.22201 2.50651 3.21327 2.12914 3.25237C2.07098 3.25862 2.10501 3.2181 2.10067 3.21482C2.0268 3.16519 2.00771 3.2576 1.98962 3.26537C1.85068 3.32321 1.69072 3.30549 1.63756 3.43906C1.48956 3.49246 1.36063 3.56691 1.2091 3.65743C1.23855 3.61364 1.19325 3.70891 1.20697 3.8C1.21252 3.89409 1.22967 3.99721 1.24591 4.10387C1.28176 4.32952 1.42751 4.57225 1.56454 4.8141C1.56878 4.82129 1.52652 4.83515 1.5352 4.84948C1.64175 5.022 1.66949 4.95054 1.81525 5.00047C1.85192 5.01288 1.84604 5.1535 1.84665 5.165C1.84878 5.20729 1.77883 5.22154 1.78236 5.23336C1.81277 5.3297 1.95878 5.18177 2.04201 5.28229C2.04425 5.28558 2.00426 5.29658 2.00809 5.30724C2.01284 5.3201 2.02043 5.33055 2.0283 5.34013C2.03926 5.35334 2.05256 5.36476 2.05829 5.38345C2.0782 5.4498 2.0293 5.54439 2.1498 5.57017C2.16547 5.57268 2.22299 5.47141 2.29997 5.53671C2.32942 5.56394 2.48402 5.66189 2.52675 5.69315C2.56816 5.72545 2.51866 5.74062 2.52104 5.74386C2.62208 5.8566 2.56522 5.84841 2.59729 5.94819C2.63101 6.04729 2.69075 5.88099 2.72543 5.87614C2.75969 5.87138 2.83994 5.95329 2.85802 5.97647C2.87651 6.00015 2.83663 6.00887 2.8551 6.02574C2.97869 6.13582 2.95246 5.97254 3.0094 5.96613C3.1436 5.9496 3.18407 6.10334 3.28538 6.15251C3.31236 6.16557 3.29912 6.12962 3.32513 6.13571C3.42806 6.15988 3.47638 6.2184 3.60208 6.21833C3.60899 6.21833 3.62666 6.21313 3.6489 6.20896C3.69055 6.20013 3.74437 6.19144 3.77439 6.23617C3.78108 6.24585 3.75101 6.27324 3.79197 6.28826C3.81248 6.29564 3.83974 6.30324 3.86835 6.30831C3.87544 6.30956 3.8826 6.31066 3.88903 6.3114C3.89038 6.31158 3.89255 6.31171 3.89134 6.31181C3.89098 6.31183 3.89041 6.31185 3.88903 6.31196C3.88832 6.31203 3.88742 6.31211 3.88593 6.31232C3.88468 6.31255 3.88816 6.3118 3.88111 6.31321C3.89043 6.31234 3.81186 6.3192 3.84932 6.40178C3.89777 6.43923 3.8714 6.41598 3.87866 6.42166C3.88579 6.42342 3.88524 6.4229 3.88557 6.42301C3.88599 6.423 3.88518 6.42287 3.88472 6.42279C3.88213 6.4224 3.87803 6.42202 3.87478 6.42174C3.85962 6.42055 3.84409 6.42013 3.82848 6.42024C3.79756 6.42046 3.76877 6.42219 3.74541 6.42584C3.6923 6.43423 3.75425 6.48709 3.6862 6.47112C3.65609 6.46404 3.7114 6.4322 3.65489 6.42154C3.59943 6.41072 3.45476 6.41531 3.40112 6.41837C3.34623 6.42132 3.37777 6.46077 3.37339 6.46365C3.34753 6.48005 3.2443 6.50397 3.23556 6.50446C2.77484 6.53017 2.34408 6.5166 1.89726 6.60997C1.86214 6.61709 1.89218 6.65567 1.88689 6.65719C1.76855 6.6934 1.84676 6.56664 1.75663 6.54191C1.78179 6.62569 1.72958 6.6179 1.64531 6.63977C1.60471 6.65033 1.63194 6.68028 1.62867 6.68423C1.57433 6.74351 1.5221 6.6841 1.50945 6.67222C1.46494 6.63114 1.42989 6.68521 1.39906 6.66704C1.39729 6.6659 1.39554 6.6645 1.39379 6.66278C1.36269 6.6341 1.41935 6.57601 1.3367 6.58973C1.32081 6.62425 1.3901 6.6936 1.33789 6.71703C1.14322 6.77941 0.832399 7.01473 0.729683 7.18358C0.682732 7.25094 0.652367 7.30129 0.626267 7.34299C0.597164 7.39019 0.578313 7.42748 0.552113 7.47828C0.474255 7.64991 0.554604 7.60231 0.557919 7.71811C0.566737 7.83564 0.429548 7.76051 0.395333 7.77289C0.361474 7.78594 0.391507 7.80927 0.371664 7.82937C0.351917 7.84917 0.335553 7.7994 0.323486 7.85039C0.310708 7.90269 0.358342 8.04807 0.391173 8.0672C0.459947 8.1091 0.535852 8.04924 0.505259 8.18129C0.503489 8.18891 0.465349 8.16281 0.460548 8.19213C0.424154 8.42682 0.424235 8.67329 0.3963 8.91039C0.392428 8.94281 0.349308 8.91355 0.346561 8.93245C0.317531 9.12968 0.390949 9.05933 0.470765 9.16929C0.363132 9.14355 0.296811 9.20251 0.293152 9.35167C0.29074 9.44217 0.338169 9.42661 0.369816 9.4864C0.379351 9.50487 0.345143 9.56644 0.36688 9.57905C0.415592 9.60694 0.469889 9.58849 0.487225 9.62421C0.4953 9.63948 0.4954 9.6645 0.485838 9.70959C0.484411 9.71605 0.444426 9.69609 0.442412 9.7185C0.432849 9.8637 0.509429 9.8744 0.547654 10.0152C0.576567 10.1247 0.610368 10.3355 0.675285 10.462C0.566674 10.5177 0.66129 10.6252 0.761636 10.6251C0.77621 10.6498 0.792135 10.6746 0.8085 10.6996C0.844586 10.7547 0.882442 10.8078 0.913523 10.8612C0.929104 10.8878 0.889139 10.8935 0.888494 10.8989C0.878648 10.983 0.968821 10.9633 0.983542 10.9756C1.14541 11.1158 1.23796 11.2807 1.44139 11.3468C1.44895 11.3491 1.50388 11.2852 1.51558 11.3653C1.51659 11.3709 1.43881 11.3677 1.51872 11.4207C1.59718 11.4736 1.74275 11.5983 1.8843 11.6105C1.91864 11.6142 2.01733 11.578 2.06276 11.6488C2.06889 11.6584 2.05217 11.6784 2.06025 11.6952C2.08721 11.7488 2.13361 11.674 2.16019 11.7571C2.18696 11.8402 2.27666 11.9215 2.42533 11.9035C2.43003 11.9031 2.47717 11.8445 2.51942 11.8545C2.57353 11.8673 2.64388 11.8905 2.70714 11.9058C2.72372 11.9098 2.73967 11.9131 2.75454 11.9156C2.78892 11.9213 2.77391 11.8762 2.77999 11.8764C3.01317 11.8906 3.17319 11.9427 3.42488 11.9657C3.47121 11.9702 3.60316 11.9138 3.69267 11.9569C3.79179 12.004 3.69624 12.2132 3.92286 12.1564C4.0133 12.1338 4.12008 11.8665 4.28602 12.0003C4.34164 11.9941 4.39659 11.9923 4.45063 11.9948C4.70637 12.0065 4.95254 12.0526 5.2154 12.008C5.22971 12.0056 5.27339 11.9317 5.30632 11.9315C5.35623 11.9315 5.38486 11.9643 5.42046 11.9648C5.57054 11.9674 5.70446 11.928 5.846 11.9117C5.89957 11.9048 5.88691 11.9432 5.95206 11.9323C5.97803 11.9275 5.99857 11.9154 6.01863 11.9017C6.04945 11.8803 6.07895 11.858 6.13262 11.8487C6.19793 11.8376 6.30916 11.8845 6.39584 11.8326C6.3421 11.7556 6.39461 11.7203 6.45485 11.6268C6.46635 11.6087 6.42763 11.6012 6.43182 11.5915C6.44762 11.5523 6.49223 11.5446 6.50427 11.5046C6.50717 11.4949 6.48391 11.4731 6.4849 11.464C6.4919 11.3869 6.6136 11.3547 6.6349 11.3487C6.71617 11.3259 6.70454 11.2748 6.75336 11.245C6.80131 11.2163 6.76903 11.2922 6.81722 11.2515C6.91768 11.1664 7.01875 11.0349 7.10385 10.9357C7.13794 10.8956 7.08225 10.8958 7.08636 10.8894C7.12402 10.8342 7.17824 10.7928 7.2093 10.7448C7.22869 10.7155 7.23856 10.6837 7.22888 10.6451C7.44413 10.731 7.25571 10.5822 7.38748 10.4921C7.39789 10.485 7.48814 10.5387 7.4698 10.5849C7.45136 10.6311 7.3805 10.6651 7.35576 10.7302C7.35083 10.7434 7.36108 10.8427 7.36136 10.8784C7.36337 10.882 7.36328 10.8861 7.36281 10.8879C7.33729 10.9888 7.21065 10.8987 7.2008 10.8971C7.09476 10.8801 7.10535 11.0309 7.0933 11.0569C7.03691 11.1767 6.94978 11.2489 6.89907 11.3476C6.86543 11.4124 6.93891 11.4829 6.90031 11.5242C6.76638 11.6653 6.62549 11.6174 6.56904 11.8399C6.55345 11.8873 6.66367 11.946 6.47571 11.9814C6.46286 11.9851 6.31933 11.9869 6.27817 12.0617C6.27283 12.0715 6.28734 12.1004 6.27733 12.1083C6.22014 12.1516 6.16686 12.155 6.10587 12.1766C6.09101 12.1816 6.07521 12.1871 6.06097 12.1928C5.97112 12.2282 5.88332 12.259 5.79512 12.2586C5.74225 12.2583 5.67105 12.2043 5.6466 12.1915C5.57586 12.155 5.50891 12.2289 5.46431 12.1797C5.42047 12.1302 5.49609 12.0478 5.38779 12.0195C5.38755 12.1037 5.38198 12.1903 5.37877 12.275C5.13635 12.2818 4.90204 12.2534 4.66257 12.2481C4.63302 12.2475 4.66152 12.2939 4.62967 12.2944C4.56107 12.2952 4.49829 12.2856 4.43398 12.2762C4.38337 12.2677 4.32798 12.2621 4.26583 12.2691C4.16838 12.2801 4.05766 12.3327 3.94764 12.3489C3.87663 12.2554 3.71143 12.2939 3.58697 12.2853C3.54389 12.2824 3.5463 12.2567 3.5159 12.2482C3.40021 12.2159 3.45331 12.3014 3.42074 12.3142C3.27942 12.3673 3.27519 12.1752 3.11574 12.168C3.10757 12.1678 2.9929 12.2599 2.97705 12.2643C2.87886 12.2949 2.96563 12.2272 2.90882 12.2126C2.81999 12.1893 2.75716 12.1597 2.66083 12.1558C2.64519 12.1552 2.62864 12.1554 2.61092 12.1564C2.57524 12.1587 2.47852 12.2048 2.42108 12.1418C2.4135 12.1335 2.42563 12.1014 2.4189 12.0979C2.29741 12.037 2.26966 12.1392 2.185 12.155C2.09964 12.1707 2.00194 12.0651 1.98546 12.0373C1.94075 11.9657 2.03926 12.0296 2.04431 12.0252C2.10126 11.9752 2.01506 11.9617 1.95374 11.9354C1.97732 11.8335 1.89038 11.8097 1.89029 11.9082C1.89051 11.9192 1.94267 11.9268 1.95374 11.9354C1.86698 12.0147 1.75754 11.9903 1.68898 11.8565C1.65784 11.7932 1.7243 11.7687 1.57246 11.7163C1.50381 11.6908 1.49557 11.7677 1.42753 11.7529C1.26987 11.7175 1.14031 11.5461 1.01724 11.4517C0.971627 11.4168 0.987695 11.4834 0.955314 11.46C0.86925 11.3971 0.825116 11.3105 0.744526 11.2427C0.737134 11.2365 0.721832 11.2815 0.699573 11.257C0.603946 11.1517 0.531349 11.0423 0.464105 10.929C0.415288 10.846 0.365173 10.7582 0.310829 10.6595C0.248726 10.5523 0.132197 10.3436 0.101989 10.2052C0.0542149 10.0168 0.0711184 9.7871 0.0873683 9.61054C0.0909828 9.56986 0.0923149 9.53188 0.0902879 9.49741C0.0839937 9.38561 0.0419932 9.41059 0.0150386 9.3619C-0.0372559 9.27071 0.0622925 9.10945 0.0775201 9.08825C0.0780638 9.08731 0.0866404 9.18293 0.108408 9.13218C0.152837 9.10305 0.0776979 9.08931 0.0775201 9.08825C0.0875646 9.07368 0.0982248 8.88358 0.0903722 8.84491C0.0861435 8.82422 0.0470526 8.83564 0.045584 8.82489C0.0120784 8.56886 -0.00107732 8.31009 0.0305036 8.03264C0.0315436 8.02779 0.0747815 8.03736 0.0766855 8.02602C0.105203 7.86708 0.0614749 7.75762 0.0572937 7.6037C0.0534406 7.4498 0.11001 7.31589 0.219762 7.25795C0.234014 7.21934 0.25731 7.17727 0.286338 7.13728C0.331469 7.07868 0.39184 7.01731 0.434437 6.97717C0.497679 6.91774 0.436661 6.85864 0.439712 6.85106C0.545392 6.61886 0.699177 6.50882 0.975218 6.37446C1.06149 6.33332 1.21156 6.27789 1.34866 6.25698C1.40048 6.24741 1.44914 6.23726 1.48702 6.22876C1.57234 6.20939 1.6277 6.22129 1.7067 6.1965C1.71741 6.19316 1.70067 6.1574 1.70379 6.15546C1.78732 6.09695 1.75796 6.19501 1.77914 6.2085C1.85637 6.25751 1.90325 6.28253 2.01704 6.23677C2.04335 6.22624 2.10334 6.08263 2.15333 6.06769C2.21742 6.04868 2.19965 6.09934 2.26681 6.07854C2.27254 6.07683 2.26771 6.04768 2.31046 6.04338C2.51026 6.02278 2.73127 6.01693 2.93995 5.9991C2.96833 5.99679 2.92844 5.95274 2.9697 5.94866C3.16388 5.92956 3.37689 5.9227 3.56513 5.94119C3.61184 5.94589 3.58317 5.97914 3.59345 5.98868C3.65498 6.04638 3.74176 5.96033 3.75576 5.95868C3.78013 5.95563 3.80436 5.95324 3.82848 5.95143C3.84766 5.95025 3.86594 5.9494 3.88974 5.94949C3.89608 5.94954 3.90265 5.94964 3.91102 5.94999C3.91675 5.95029 3.91908 5.95027 3.93167 5.95137C3.94636 5.95444 3.9153 5.94409 4.00916 5.96591C4.01314 5.96705 4.01757 5.96838 4.02265 5.97003C4.01813 5.96889 4.04348 5.97528 4.08143 5.99415C4.11339 6.02282 4.21443 6.02072 4.29986 6.26816C4.3363 6.39416 4.28441 6.55445 4.22551 6.62226C4.16674 6.69621 4.11976 6.72009 4.08834 6.73783C4.0251 6.76941 4.00114 6.7714 3.98114 6.77663C3.93431 6.78534 3.96052 6.78028 3.95107 6.78193C3.94017 6.78343 3.93294 6.78408 3.92699 6.78458C3.91533 6.7855 3.90881 6.78569 3.90334 6.78586C3.89143 6.78612 3.89243 6.78603 3.88805 6.78604C3.84948 6.78548 3.84712 6.78467 3.8325 6.78381C3.78444 6.78022 3.74769 6.77467 3.70938 6.76752C3.6346 6.75332 3.56528 6.73317 3.49774 6.70915C3.33773 6.65006 3.18372 6.58506 2.991 6.53486C2.97301 6.53084 2.79582 6.56067 2.7627 6.46123C2.75988 6.45443 2.72986 6.35485 2.65338 6.38092C2.64839 6.38242 2.67078 6.43781 2.60441 6.40346C2.539 6.3695 2.41649 6.34169 2.34509 6.25183C2.32227 6.22335 2.29407 6.11748 2.1762 6.12032C2.17051 6.12307 1.954 6.156 1.96328 6.03802C1.96508 6.01833 2.03538 5.94233 1.9039 5.90729C1.87845 5.89997 1.89845 5.94718 1.83817 5.91614C1.75645 5.87316 1.68279 5.77809 1.58148 5.69415C1.57289 5.68919 1.56314 5.68424 1.55232 5.67973C1.53699 5.67387 1.43951 5.66884 1.4425 5.58902C1.443 5.57654 1.4809 5.56662 1.46393 5.54081C1.38155 5.41608 1.25531 5.30605 1.17271 5.16108C1.14348 5.1096 1.20678 5.09852 1.18224 5.04109C1.15751 4.98377 1.09825 4.87553 1.04081 4.83424C0.982946 4.79231 0.946157 4.90445 0.884988 4.81973C0.772304 4.65739 0.672319 4.46447 0.634397 4.20487C0.621996 4.0973 0.607777 3.97924 0.605353 3.83461C0.605054 3.76106 0.605208 3.68181 0.626457 3.5726C0.648297 3.47389 0.696779 3.27835 0.912841 3.14901C0.9132 3.14882 0.913563 3.14862 0.913927 3.14842C0.956066 3.12476 0.901046 3.11995 0.971127 3.07675C1.24308 2.87913 1.8722 2.63271 2.17661 2.67411C2.42027 2.69622 2.12979 2.77775 2.31096 2.77671C2.39603 2.77703 2.47901 2.66481 2.50103 2.65998C2.70346 2.61238 2.84553 2.65853 3.0254 2.64916C3.06202 2.64739 3.0275 2.60344 3.05896 2.60248C3.16817 2.599 3.28178 2.62556 3.38259 2.63089C3.4287 2.63331 3.42323 2.60002 3.46606 2.6067C3.56482 2.62215 3.65325 2.64649 3.746 2.68997C3.75448 2.69395 3.68912 2.72602 3.76293 2.73765C3.76733 2.73835 3.77178 2.73909 3.77627 2.73988C3.89297 2.76033 4.02886 2.81039 4.16472 2.8068C4.20654 2.80564 4.22352 2.7326 4.29928 2.8015C4.31516 2.81607 4.27276 2.89807 4.38945 2.8451C4.40848 2.83586 4.6026 2.775 4.66785 2.86269C4.68505 2.88559 4.72041 2.97118 4.77049 2.9735C4.77742 2.97357 4.76266 2.92764 4.80299 2.93512C4.94493 2.96231 5.08794 3.01222 5.23225 3.04985C5.27105 3.05997 5.22875 3.00088 5.28631 3.01739C5.4444 3.06259 5.6329 3.1497 5.77583 3.22967C5.82856 3.25925 5.77628 3.27304 5.77875 3.27828C5.81633 3.36265 5.88853 3.30675 5.91224 3.31305C6.03097 3.34543 6.10777 3.4117 6.19992 3.46911C6.23556 3.49083 6.26927 3.51387 6.30183 3.53725C6.35127 3.57397 6.34257 3.51641 6.35434 3.52154C6.4721 3.58093 6.35583 3.57004 6.40333 3.62705C6.5248 3.78558 6.60207 3.91782 6.67144 4.00869C6.69596 4.04136 6.70797 3.97846 6.72898 4.00701C6.86993 4.18104 6.83267 4.14374 6.89129 4.17531C6.60219 4.1907 6.49308 4.44415 6.48664 4.47706C6.4628 4.55217 6.46587 4.56968 6.46317 4.59609C6.46147 4.63691 6.4643 4.65284 6.46583 4.66627C6.46947 4.69126 6.47225 4.69862 6.47447 4.70591C6.48774 4.7352 6.51514 4.7037 6.52411 4.70608C6.57609 4.68192 6.48322 4.67397 6.47642 4.67983C6.46662 4.67912 6.4602 4.67819 6.45574 4.67662C6.4266 4.65724 6.4182 4.62489 6.37438 4.59378C6.08706 4.39208 5.60316 4.09299 5.26838 3.75693C5.02684 3.51573 4.80251 3.20958 4.75996 2.80647C4.74184 2.59796 4.72193 2.3772 4.72265 2.12333C4.72299 2.08651 4.67558 2.12269 4.67542 2.09046C4.67662 1.81332 4.72829 1.51309 4.86888 1.2241C4.9228 1.11386 4.9776 1.00209 5.0378 0.884262C5.05283 0.855265 4.99104 0.87526 5.01456 0.827153C5.06242 0.728802 5.14305 0.602583 5.23784 0.506325C5.28422 0.459634 5.25867 0.551048 5.30439 0.504763C5.40816 0.399919 5.54684 0.280065 5.69158 0.195077C5.69446 0.193345 5.69746 0.191547 5.7006 0.189694C5.77141 0.149733 5.63679 0.16692 5.73846 0.11632C6.02386 -0.0063777 6.21446 0.00487894 6.39694 9.98378e-06C6.67672 0.00172973 6.95565 0.0170901 7.24259 0.0709189C7.27444 0.0768463 7.2944 0.16974 7.36219 0.156946C7.36903 0.131944 7.37092 0.102093 7.37509 0.075145C7.85178 0.128998 8.33402 0.0793233 8.92071 0.569627C9.03084 0.683368 9.16759 0.817742 9.29295 0.952746C9.3123 0.973497 9.31381 0.904343 9.35159 0.944648C9.56907 1.17743 9.7804 1.41717 9.92338 1.71984C9.93423 1.74289 9.88873 1.76776 9.89634 1.81153C9.89854 1.8244 9.9053 1.83889 9.91931 1.85548C9.93042 1.8678 10.015 1.98355 10.0491 2.00611C10.0541 2.00909 10.0752 1.9661 10.0997 2.00565C10.2409 2.23557 10.3575 2.49265 10.4391 2.74449C10.4521 2.785 10.3953 2.76016 10.4043 2.78926C10.4673 2.99376 10.5781 3.19758 10.6089 3.39429C10.6294 3.52559 10.5437 3.50528 10.5 3.59476C10.4938 3.60766 10.5203 3.68168 10.4829 3.70096C10.3885 3.74982 10.2661 3.75439 10.1671 3.81065C10.1453 3.8225 10.2133 3.92082 10.133 3.87884C10.1271 3.875 10.0788 3.80485 10.0531 3.79275C10.0354 3.78459 10.0043 3.82328 9.97771 3.80271C9.95097 3.78152 9.97378 3.74005 9.93849 3.70399C9.90305 3.66826 9.86412 3.70321 9.82768 3.62066ZM0.750276 6.72322C0.837521 6.69636 0.749495 6.57458 0.703147 6.66727C0.70111 6.67193 0.745799 6.72484 0.750276 6.72322ZM4.90507 12.1379C4.81107 12.0706 4.74347 12.1654 4.8096 12.2181C4.87673 12.2706 4.93408 12.1583 4.90507 12.1379ZM5.89636 12.0367C5.77702 12.0022 5.78271 12.2151 5.90501 12.154C5.91189 12.1505 5.90384 12.0385 5.89636 12.0367ZM10.3694 3.30035C10.3678 3.30174 10.3865 3.35765 10.3887 3.35804C10.4441 3.37081 10.407 3.25964 10.3694 3.30035ZM6.70201 11.4383C6.65792 11.4463 6.61761 11.5424 6.67256 11.5339C6.71753 11.5264 6.75729 11.4283 6.70201 11.4383ZM3.26406 6.22239C3.26388 6.21999 3.22506 6.20414 3.22156 6.21624C3.21084 6.25555 3.2695 6.26402 3.26406 6.22239ZM7.75203 10.1967C7.72215 10.2153 7.69388 10.2321 7.66649 10.2478C7.52815 10.3514 7.39093 10.3295 7.54232 10.1662C7.57498 10.1309 7.52163 10.2817 7.57199 10.2439C7.58946 10.2307 7.60218 10.2155 7.61216 10.1991C7.6642 10.1301 7.70449 10.0324 7.80972 10.0343C7.8322 10.0344 7.75695 10.1905 7.75184 10.1972C7.75191 10.197 7.75197 10.1969 7.75203 10.1967ZM0.906516 6.82245C0.908691 6.82261 0.953448 6.78643 0.953518 6.78436C0.948367 6.72627 0.853578 6.80257 0.906516 6.82245ZM1.44169 4.71757C1.44267 4.71281 1.37252 4.60292 1.36764 4.60114C1.26314 4.58541 1.40842 4.81428 1.44169 4.71757ZM0.673525 10.4655C0.744361 10.4948 0.785528 10.5511 0.761536 10.6248C0.73138 10.5717 0.7002 10.5195 0.673525 10.4655Z" fill="black"/>
</svg>
