<svg width="4" height="12" viewBox="0 0 4 12" fill="none" xmlns="http://www.w3.org/2000/svg">
<path d="M0.753949 0.0340912C0.792404 0.0904557 0.814428 0.178514 0.822272 0.247423C0.82489 0.26923 0.796302 0.26947 0.797001 0.284995C0.798555 0.315747 0.820238 0.33434 0.819478 0.364961C0.819085 0.375109 0.775867 0.380314 0.776338 0.390581C0.77931 0.447024 0.807869 0.489271 0.819486 0.542486C0.876778 0.8052 0.952979 1.05139 1.02536 1.30898C1.04912 1.39348 1.04873 1.50679 1.09407 1.5869C1.0994 1.59626 1.13216 1.57825 1.13569 1.57916C1.18998 1.59391 1.11622 1.60822 1.11357 1.63091C1.10326 1.72088 1.12906 1.80792 1.16729 1.87809C1.18366 1.90792 1.24261 1.85306 1.21419 1.89801C1.21229 1.90111 1.17246 1.90529 1.17137 1.91532C1.16899 1.93804 1.18792 1.97338 1.18996 1.98968C1.1937 2.02113 1.19566 2.02589 1.20424 2.05395C1.21571 2.0926 1.2117 2.14404 1.23308 2.18238C1.23776 2.19053 1.27236 2.16687 1.28328 2.17881C1.29419 2.19074 1.30263 2.22915 1.29748 2.24448C1.29235 2.25984 1.26058 2.26384 1.25436 2.2682C1.20177 2.30446 1.29567 2.32237 1.29936 2.32733C1.36441 2.41823 1.34419 2.51914 1.37171 2.6141C1.39288 2.68681 1.4297 2.75936 1.44664 2.82999C1.46631 2.91293 1.46392 2.98939 1.48783 3.0688C1.49033 3.07732 1.53353 3.05571 1.53668 3.06612C1.56993 3.1759 1.59117 3.28812 1.58436 3.40738C1.5836 3.41919 1.54004 3.4136 1.53684 3.42587C1.51862 3.50213 1.45923 3.62362 1.64404 3.63261C1.64569 3.68012 1.64873 3.74086 1.61941 3.78819C1.60055 3.81888 1.55182 3.79908 1.57605 3.82989C1.58145 3.83692 1.619 3.82099 1.62415 3.83205C1.64582 3.8788 1.64006 3.93199 1.66603 3.97878C1.67139 3.98812 1.70625 3.98142 1.7129 3.98351C1.76694 4.00127 1.68609 4.05038 1.68067 4.05959C1.64169 4.12707 1.6609 4.17406 1.66275 4.2326C1.6628 4.23415 1.66283 4.23572 1.66285 4.23729C1.66301 4.25112 1.71002 4.23325 1.71188 4.24655C1.72083 4.31518 1.71811 4.38653 1.6975 4.45366C1.6928 4.46871 1.6522 4.45519 1.64788 4.46237C1.62929 4.4938 1.7058 4.50051 1.68926 4.53043C1.68586 4.53671 1.65119 4.53312 1.64738 4.53427C1.58757 4.55232 1.67218 4.56832 1.67402 4.57306C1.69917 4.63201 1.61015 4.66897 1.62138 4.72508C1.6228 4.73196 1.66704 4.71756 1.66835 4.73688C1.67732 4.86462 1.65881 4.99938 1.61539 5.122C1.6087 5.14105 1.57675 5.12497 1.57261 5.12592C1.50794 5.14141 1.5919 5.15984 1.59463 5.16656C1.61405 5.21854 1.53928 5.25899 1.63744 5.30124C1.58495 5.50958 1.61849 5.72377 1.50624 5.91998C1.50491 5.92249 1.46376 5.91335 1.46129 5.91837C1.43121 5.9788 1.49723 5.97367 1.57208 6.02342C1.59088 6.03591 1.49197 6.05777 1.48467 6.05989C1.45779 6.06751 1.39688 6.0505 1.39152 6.05343C1.34932 6.07798 1.55483 6.09423 1.55109 6.13232C1.55062 6.13348 1.51337 6.1247 1.5093 6.12754C1.49652 6.13634 1.51055 6.14771 1.4966 6.1562C1.46435 6.17559 1.36386 6.17406 1.41866 6.21385C1.4258 6.21888 1.54279 6.2232 1.53416 6.2567C1.53061 6.26995 1.52732 6.33018 1.51842 6.34624C1.50948 6.36235 1.47289 6.34774 1.47117 6.34879C1.41779 6.39011 1.39863 6.37124 1.32328 6.38847C1.24822 6.40586 1.42347 6.41288 1.44227 6.42361C1.46101 6.43431 1.41758 6.46462 1.40276 6.47193C1.38793 6.47919 1.36476 6.46722 1.35618 6.474C1.30013 6.51898 1.44153 6.50112 1.46822 6.5188C1.53152 6.56031 1.4001 6.58112 1.38551 6.61526C1.38158 6.62443 1.41155 6.61836 1.41388 6.62682C1.42276 6.66003 1.38131 6.67785 1.41692 6.71692C1.42272 6.72331 1.49967 6.75589 1.44173 6.77339C1.43338 6.77589 1.40126 6.76693 1.39356 6.78075C1.38199 6.80151 1.37393 6.83871 1.38432 6.86164C1.39164 6.87768 1.44069 6.86206 1.43073 6.87832L1.42789 6.85189C1.42761 6.85281 1.4272 6.85385 1.42666 6.85502C1.42162 6.86585 1.38723 6.85609 1.38029 6.87588C1.37333 6.8956 1.3851 6.93888 1.39014 6.95513C1.3952 6.97136 1.43236 6.95281 1.43534 6.95351C1.45246 6.9579 1.47908 6.98473 1.47972 6.9875C1.51878 7.12647 1.48602 7.27334 1.54421 7.40329C1.54871 7.41346 1.58805 7.39533 1.58916 7.39676C1.61632 7.4289 1.4989 7.42937 1.46919 7.46506C1.55181 7.43874 1.54076 7.45804 1.55696 7.48136C1.56484 7.49257 1.59535 7.47697 1.59897 7.4772C1.65313 7.48214 1.59317 7.51225 1.5811 7.51913C1.53669 7.54444 1.59675 7.54209 1.56712 7.55915C1.53775 7.57617 1.48554 7.57015 1.49298 7.59462C1.52477 7.59321 1.5978 7.55334 1.61562 7.5684C1.68312 7.62619 1.65927 7.77374 1.66988 7.83294C1.68017 7.89134 1.69096 7.90738 1.6901 7.9436C1.68866 8.00919 1.73965 7.96995 1.77713 7.99869C1.81464 8.02737 1.66772 8.05275 1.63892 8.06734C1.61012 8.08186 1.64315 8.07797 1.62843 8.08956C1.61371 8.10115 1.58874 8.0935 1.58714 8.11063C1.5855 8.12766 1.65251 8.15288 1.68597 8.14844C1.7568 8.13895 1.82154 8.09825 1.80928 8.14613C1.80853 8.1489 1.76906 8.15303 1.76808 8.16305C1.7614 8.2419 1.78306 8.31574 1.78063 8.39365C1.78023 8.40436 1.7363 8.40924 1.73561 8.41564C1.72827 8.48213 1.79094 8.43903 1.87844 8.44551C1.77365 8.47215 1.71688 8.51085 1.73112 8.55545C1.73964 8.5822 1.78277 8.56262 1.81998 8.56908C1.83118 8.57099 1.80682 8.59995 1.82895 8.59621C1.90139 8.58427 1.97212 8.54052 1.95707 8.59645C1.9563 8.59895 1.91661 8.60539 1.91669 8.61307C1.91707 8.66272 1.99054 8.64342 2.0156 8.68763C2.03537 8.72265 2.01543 8.80506 2.02337 8.84947C1.90873 8.88909 1.94961 8.92082 2.03415 8.90869C2.04096 8.9376 2.05621 8.96562 2.05502 8.9959C2.05464 9.0063 2.0195 9.01247 2.01636 9.01492C1.96698 9.05307 2.04792 9.0374 2.05309 9.04218C2.10619 9.09629 2.0679 9.16952 2.14787 9.20986C2.15073 9.21126 2.23072 9.18458 2.17954 9.22285C2.17599 9.22543 2.13249 9.21913 2.14072 9.24876C2.14863 9.27757 2.12834 9.34995 2.1802 9.37488C2.19279 9.38117 2.2656 9.37929 2.22402 9.41922C2.21834 9.42454 2.19475 9.43062 2.18379 9.43942C2.14895 9.46767 2.23064 9.44263 2.1693 9.48394C2.10803 9.52545 2.06959 9.57498 2.13248 9.59684C2.13436 9.5976 2.20076 9.58166 2.20499 9.59473C2.2117 9.61567 2.2105 9.64946 2.21952 9.66987C2.22386 9.67964 2.25988 9.65715 2.2613 9.65856C2.31171 9.71804 2.29708 9.77896 2.31383 9.85786C2.31666 9.87199 2.38554 9.88666 2.35572 9.93066C2.32304 9.9787 2.12233 10.0342 2.19613 10.0785C2.22648 10.0979 2.47802 10.0205 2.37697 10.1237C2.44887 10.1983 2.42747 10.3128 2.51558 10.3795C2.51957 10.3827 2.59075 10.3617 2.59455 10.3712C2.60011 10.3853 2.57368 10.4082 2.57719 10.4196C2.59016 10.4659 2.63629 10.4895 2.65401 10.5294C2.66132 10.5454 2.62787 10.5579 2.63647 10.5764C2.64463 10.594 2.69216 10.5832 2.68716 10.6173C2.68323 10.643 2.61566 10.7132 2.62553 10.7462C2.67722 10.7102 2.69903 10.707 2.71901 10.7105C2.72899 10.7126 2.73888 10.7168 2.75198 10.7206C2.75972 10.7228 2.78121 10.6974 2.7862 10.6974C2.8071 10.697 2.79281 10.7226 2.81451 10.7209C2.81975 10.7205 2.84512 10.7012 2.85083 10.6997C2.90042 10.6871 2.86366 10.7573 2.85706 10.7693C2.83239 10.8153 2.87161 10.7984 2.86669 10.8231C2.86166 10.8476 2.82808 10.8416 2.83057 10.864C2.83562 10.91 2.86982 10.9483 2.89191 10.9822C2.90093 10.9957 2.92941 10.9622 2.93151 10.9635C2.95982 10.985 2.94151 11.0384 3.02229 11.0063C2.85358 11.1486 3.0514 11.0112 3.04183 11.0762C3.04099 11.0814 2.95703 11.1425 2.93636 11.1389C2.9158 11.1354 2.93072 11.0994 2.89985 11.0961C2.89259 11.0953 2.79727 11.1282 2.7904 11.1286C2.7367 11.1318 2.86163 11.0399 2.86775 11.0338C2.93314 10.9668 2.82828 11 2.81751 10.9974C2.76765 10.9847 2.76561 10.9451 2.72687 10.9328C2.70171 10.9247 2.6193 10.9841 2.61177 10.969C2.58656 10.9187 2.6864 10.8163 2.55618 10.8487C2.54223 10.8522 2.515 10.8732 2.49678 10.8825C2.47785 10.8907 2.46579 10.885 2.48434 10.8357C2.48516 10.8275 2.53236 10.7551 2.47792 10.7635C2.47124 10.7648 2.444 10.7823 2.43993 10.781C2.41329 10.7718 2.42618 10.7435 2.40347 10.7296C2.38124 10.7165 2.34909 10.6977 2.3464 10.6705C2.34424 10.6534 2.38679 10.6057 2.39596 10.5917C2.42326 10.5531 2.35148 10.5668 2.39055 10.5306C2.43 10.4946 2.51145 10.4805 2.52487 10.4344C2.44986 10.4723 2.37227 10.5102 2.29649 10.5477C2.26427 10.4801 2.25408 10.3989 2.21906 10.3351C2.21449 10.3269 2.17799 10.3552 2.17201 10.3469C2.14631 10.3101 2.16106 10.266 2.13035 10.2306C2.10695 10.2043 2.04846 10.1917 2.02245 10.1635C2.10088 10.1037 2.05052 10.0713 2.04283 10.0322C2.04016 10.0186 2.06396 10.0089 2.06796 9.99718C2.08238 9.95295 2.01107 10.0019 1.99496 9.99851C1.92603 9.98329 2.10079 9.90275 2.07723 9.85996C2.07609 9.85781 1.96949 9.86932 1.96187 9.8677C1.91269 9.85841 1.99294 9.84954 1.99313 9.83057C1.99349 9.79588 2.00732 9.76556 1.96563 9.74355C1.95331 9.73712 1.88428 9.73751 1.92192 9.69899C1.92684 9.69395 1.95878 9.68249 1.95977 9.67966C1.97484 9.6292 1.87616 9.6692 1.83405 9.6614C1.79199 9.65371 1.8468 9.5929 1.86377 9.57825C1.90756 9.54014 1.89096 9.58312 1.89633 9.58204C1.96023 9.56934 1.94033 9.54943 1.93794 9.52883C2.03381 9.4873 2.01788 9.46422 1.93513 9.50776C1.92604 9.5124 1.94089 9.52335 1.93794 9.52883C1.83608 9.55006 1.81297 9.52747 1.88976 9.46108C1.92579 9.43004 1.97994 9.4249 1.94473 9.38737C1.9288 9.37028 1.86471 9.40388 1.83959 9.39333C1.78236 9.36949 1.82456 9.29204 1.79874 9.25355C1.78948 9.23986 1.75818 9.26842 1.75057 9.25951C1.73023 9.23582 1.74877 9.20107 1.72418 9.17829C1.7219 9.17624 1.68558 9.1968 1.68184 9.18823C1.65263 9.12315 1.65695 9.05789 1.63268 8.98792C1.62123 8.95496 1.57869 8.90282 1.57075 8.86615C1.55717 8.80407 1.58835 8.7102 1.55735 8.66377C1.53733 8.63352 1.50072 8.6539 1.46928 8.64847C1.40834 8.63799 1.48442 8.55757 1.49659 8.5462C1.497 8.54586 1.51584 8.57192 1.5308 8.54975C1.56968 8.52691 1.49688 8.54648 1.49659 8.5462C1.50424 8.53833 1.49451 8.47862 1.48327 8.46945C1.47716 8.46457 1.44115 8.48011 1.43866 8.47733C1.38014 8.41028 1.34611 8.33595 1.33884 8.25103C1.33915 8.2494 1.38152 8.23854 1.38175 8.23487C1.38601 8.18308 1.32626 8.17045 1.28435 8.14169C1.24254 8.11315 1.2435 8.07939 1.30871 8.03572C1.29122 8.01018 1.31095 7.95997 1.32336 7.93078C1.33578 7.90161 1.2532 7.9221 1.25098 7.92048C1.18022 7.86986 1.21656 7.82007 1.20475 7.75033C1.19921 7.71697 1.16976 7.65711 1.1513 7.62484C1.13655 7.59936 1.15127 7.57754 1.13209 7.55542C1.12951 7.55242 1.09391 7.56578 1.09222 7.5651C1.04079 7.54838 1.13385 7.53801 1.14823 7.52784C1.20053 7.49085 1.22808 7.47006 1.1912 7.44128C1.18275 7.43469 1.04749 7.44438 1.03592 7.43098C1.02113 7.41354 1.06931 7.40899 1.05267 7.39104C1.05129 7.38949 1.02287 7.39729 1.02077 7.38403C1.01062 7.32247 1.01088 7.25395 0.99243 7.19206C0.990024 7.18359 0.947393 7.20583 0.943166 7.19375C0.923405 7.1372 0.909792 7.07391 0.917572 7.01215C0.919638 6.99695 0.953553 6.9981 0.962287 6.99283C0.988161 6.97709 0.979906 6.96752 0.964444 6.96133C0.961668 6.94255 0.952659 6.88867 0.954612 6.86979C0.940623 6.85925 0.918185 6.85037 0.917404 6.848C0.878773 6.73715 0.959452 6.65647 0.929057 6.54421C0.92721 6.53835 0.838689 6.48573 0.918471 6.47028C0.923783 6.46911 1.00529 6.45454 0.951774 6.43265C0.948428 6.43128 0.906251 6.4411 0.912046 6.41917C0.917832 6.39728 0.892968 6.35966 0.940734 6.33288C0.955785 6.32435 1.03748 6.30865 0.976246 6.2749C0.971933 6.27279 0.831876 6.21596 0.932595 6.20928C0.949174 6.20822 1.05395 6.22047 1.00321 6.18186C0.993374 6.17445 0.968852 6.18396 0.955813 6.16562C0.93571 6.13748 0.967145 6.10588 0.923551 6.06947C0.915819 6.06312 0.846948 6.03231 0.902942 6.01889C0.91171 6.0168 0.946173 6.02598 0.951109 6.01642C0.974744 5.97108 0.956498 5.9194 0.985784 5.87453C0.996088 5.85864 1.05178 5.87326 1.06882 5.85741C1.08585 5.84154 1.10421 5.80802 1.08029 5.78705C1.05637 5.76607 0.964017 5.77626 0.959721 5.74824C0.941067 5.62653 1.00621 5.51691 1.02486 5.40213C1.02763 5.38513 0.993979 5.39628 0.995705 5.37103C1.00216 5.27774 0.984182 5.1179 1.0577 5.04278C1.11672 4.98255 1.15386 5.06539 1.17925 5.01775C1.19137 4.99455 1.08743 4.96281 1.0844 4.95717C1.05359 4.90035 1.10195 4.86394 1.08946 4.81337C1.08685 4.80292 1.04376 4.81154 1.04201 4.80269C1.03565 4.77272 1.05563 4.74233 1.05283 4.71346C1.05147 4.7006 1.01877 4.70232 1.02154 4.69074C1.02778 4.66313 1.04192 4.63825 1.07284 4.61131C1.07565 4.60884 1.11608 4.62612 1.11783 4.60538C1.12052 4.57192 1.1509 4.52914 1.11958 4.49057C1.11015 4.47899 1.03554 4.47907 1.08689 4.4538C1.09761 4.4486 1.18731 4.45399 1.10957 4.42614C1.09667 4.42132 0.991573 4.37501 1.05834 4.34971C1.07593 4.34313 1.14889 4.32559 1.13702 4.3119C1.13513 4.31007 1.09525 4.3186 1.09104 4.30723C1.08469 4.28921 1.08177 4.27059 1.07918 4.25169C1.07616 4.23293 1.07338 4.21303 1.06518 4.19292C1.06112 4.18319 1.02069 4.2006 1.01593 4.18617C1.00297 4.14862 1.00851 4.09544 1.0167 4.05406C1.01976 4.03841 1.05511 4.04479 1.0587 4.04327C1.11696 4.01803 1.03406 4.017 1.02855 4.01169C0.995399 3.97867 1.02967 3.94581 1.01416 3.91177C1.00998 3.90242 0.972355 3.9153 0.968607 3.91389C0.931901 3.89977 1.00362 3.90341 1.00934 3.8899C1.02563 3.85228 1.01553 3.81154 1.00428 3.7773C1.00006 3.7646 0.958036 3.7873 0.954768 3.77585C0.93441 3.70748 0.924192 3.63439 0.933774 3.55976C0.935696 3.54589 0.971604 3.54663 0.97883 3.54226C1.02942 3.51181 0.948878 3.50036 0.940388 3.49565C0.901613 3.47398 0.929151 3.4557 0.91778 3.43195C0.86122 3.31363 0.842542 3.15667 0.822777 3.03503C0.796974 2.87706 0.794645 2.74866 0.742432 2.60431C0.739154 2.59515 0.697439 2.6179 0.694044 2.61019C0.652128 2.50971 0.637958 2.40288 0.592127 2.30357C0.588442 2.2954 0.550366 2.32104 0.543045 2.30839C0.527722 2.28251 0.518647 2.24659 0.522869 2.2141C0.524846 2.19826 0.566815 2.20499 0.568061 2.18927C0.571038 2.15263 0.562612 2.11693 0.544938 2.08607C0.537322 2.07297 0.501574 2.10839 0.495016 2.09028C0.449413 1.96716 0.400417 1.84792 0.411411 1.7032C0.412176 1.6933 0.495941 1.6553 0.472862 1.64273C0.448398 1.64982 0.420224 1.65987 0.394387 1.66833C0.316732 1.49268 0.281173 1.30379 0.217156 1.12233C0.21443 1.11464 0.174101 1.14511 0.168602 1.13035C0.136833 1.04527 0.0924313 0.968253 0.103243 0.864663C0.10421 0.854316 0.185337 0.827166 0.163224 0.806557C0.159247 0.802918 0.133476 0.769158 0.112368 0.766387C0.109243 0.766112 0.0750082 0.787826 0.0690646 0.776159C0.034806 0.707211 0.0132439 0.630472 0.00624576 0.550399C0.0052346 0.537565 0.0494318 0.533247 0.0490462 0.523954C0.0460993 0.458369 -0.0102271 0.40821 0.00164185 0.338441C0.00956804 0.291359 0.0827996 0.275844 0.140555 0.2275C0.148694 0.220647 0.140311 0.197404 0.178303 0.179405C0.273788 0.133996 0.384656 0.0987032 0.485874 0.0490195C0.507673 0.0382921 0.470203 0.0179311 0.531913 0.0126489C0.536061 0.0123244 0.563751 0.0270667 0.584437 0.0247608C0.598748 0.0231771 0.634853 -0.000960845 0.654479 1.38558e-05C0.674099 0.00102127 0.645073 0.0241153 0.669859 0.0293109C0.694895 0.0344585 0.736952 0.00916562 0.753949 0.0340912ZM1.37902 7.79996C1.41209 7.76715 1.26738 7.80504 1.3085 7.81865C1.31066 7.81926 1.37741 7.80162 1.37902 7.79996ZM2.35657 10.3509C2.40187 10.2938 2.30677 10.32 2.26996 10.3607C2.23348 10.4018 2.34292 10.3684 2.35657 10.3509ZM2.54517 10.6035C2.57231 10.5463 2.38501 10.6459 2.44213 10.6594C2.44543 10.6602 2.54363 10.6068 2.54517 10.6035ZM0.198795 0.310621C0.2005 0.309551 0.195313 0.292514 0.19334 0.292914C0.14599 0.302992 0.156344 0.33693 0.198795 0.310621ZM2.76544 10.8291C2.78184 10.8033 2.73697 10.7991 2.71666 10.8313C2.7003 10.8571 2.74496 10.8611 2.76544 10.8291ZM1.31257 6.61232C1.31481 6.61207 1.31752 6.59919 1.30493 6.59876C1.26436 6.59742 1.27482 6.61625 1.31257 6.61232ZM3.05515 11.2439C3.02222 11.1768 3.14353 11.0422 3.17221 11.1234C3.17728 11.138 3.10762 11.1261 3.10465 11.1507C3.09905 11.1954 3.20456 11.1565 3.17354 11.2181C3.16769 11.2291 3.05673 11.2479 3.05487 11.2439C3.05497 11.2439 3.05506 11.2439 3.05515 11.2439ZM1.54814 7.73808C1.54992 7.73711 1.54681 7.71941 1.54481 7.71953C1.49648 7.72322 1.50275 7.75899 1.54814 7.73808ZM1.47068 5.86793C1.47497 5.86741 1.48333 5.82648 1.47961 5.8247C1.40474 5.79484 1.38761 5.87759 1.47068 5.86793ZM2.02056 8.85122C2.07199 8.8532 2.08532 8.87363 2.03418 8.90859C2.0306 8.88931 2.02424 8.87024 2.02056 8.85122Z" fill="#3C8634"/>
</svg>
