<svg width="5" height="7" viewBox="0 0 5 7" fill="none" xmlns="http://www.w3.org/2000/svg">
<path d="M4.68266 0.229965C4.68018 0.287613 4.64847 0.342928 4.61587 0.382862C4.60572 0.395366 4.58279 0.379953 4.57477 0.387775C4.55927 0.402597 4.56563 0.425405 4.54818 0.439575C4.54229 0.444149 4.50468 0.423992 4.49943 0.429081C4.47076 0.457543 4.47015 0.493909 4.45023 0.525943C4.35215 0.683094 4.28055 0.844515 4.20402 1.00847C4.17835 1.0639 4.11921 1.11844 4.11475 1.18222C4.11431 1.18955 4.15051 1.19763 4.15294 1.1999C4.18994 1.23512 4.12195 1.20412 4.10806 1.21402C4.05277 1.25435 4.02982 1.31 4.02541 1.36584C4.02365 1.38959 4.10032 1.39201 4.05395 1.40022C4.05081 1.40077 4.01572 1.38255 4.00977 1.38693C3.99637 1.39687 3.99424 1.42417 3.98771 1.43346C3.97495 1.45126 3.97416 1.4547 3.96711 1.47352C3.95697 1.49964 3.92824 1.52281 3.92694 1.55331C3.92678 1.55984 3.96736 1.56534 3.97052 1.57697C3.97367 1.58859 3.96169 1.61245 3.94978 1.61782C3.93788 1.62316 3.9094 1.60911 3.90205 1.60821C3.84005 1.60068 3.9099 1.65674 3.91056 1.66116C3.92064 1.73983 3.85466 1.78228 3.83262 1.84514C3.81562 1.89393 3.81283 1.94951 3.79453 1.99467C3.77237 2.04904 3.73603 2.0865 3.72067 2.14096C3.71901 2.14668 3.76579 2.15589 3.76385 2.16291C3.74312 2.23772 3.71306 2.30692 3.65733 2.36851C3.65174 2.37457 3.61601 2.35146 3.60809 2.35669C3.56053 2.38879 3.45829 2.43208 3.61884 2.51863C3.60167 2.54581 3.5819 2.57954 3.53808 2.59417C3.50986 2.60361 3.47339 2.57159 3.48391 2.59938C3.48623 2.60563 3.52567 2.61267 3.52633 2.62105C3.52893 2.65674 3.50541 2.68437 3.51393 2.72114C3.51576 2.72862 3.54968 2.7389 3.55507 2.74276C3.59852 2.77458 3.50953 2.76993 3.5018 2.77312C3.44382 2.79787 3.45062 2.83283 3.4363 2.86943C3.43295 2.87793 3.48135 2.88382 3.47974 2.89258C3.47083 2.9376 3.45054 2.98203 3.4158 3.01635C3.40793 3.02403 3.37288 3.00178 3.36717 3.00475C3.34246 3.01802 3.41289 3.04825 3.39054 3.06156C3.38592 3.0644 3.35409 3.05043 3.35025 3.04987C3.2899 3.04103 3.36605 3.07961 3.36675 3.08318C3.37748 3.12885 3.28543 3.12352 3.28455 3.16294C3.28451 3.16774 3.32925 3.173 3.32662 3.18556C3.31664 3.23391 3.29839 3.28148 3.27276 3.3264C3.25371 3.36005 3.23103 3.39085 3.20454 3.41961C3.19481 3.43031 3.16724 3.40986 3.16314 3.40925C3.09887 3.39996 3.17552 3.43784 3.17699 3.44305C3.18661 3.4832 3.10878 3.48726 3.19501 3.5454C3.11043 3.66813 3.10875 3.82385 2.96778 3.92062C2.96608 3.92189 2.92897 3.90219 2.92575 3.90477C2.88669 3.9355 2.94985 3.95349 3.01082 4.01252C3.02603 4.02756 2.92906 4.00891 2.92185 4.00774C2.89523 4.00364 2.84141 3.97134 2.83584 3.97147C2.7918 3.97311 2.98105 4.05486 2.96994 4.07947C2.96927 4.0801 2.93624 4.06111 2.93185 4.06163C2.91813 4.06319 2.92893 4.07584 2.91418 4.07667C2.8801 4.07845 2.78693 4.04136 2.82988 4.08723C2.83542 4.09323 2.94356 4.13804 2.92812 4.15795C2.9219 4.16587 2.90546 4.20517 2.8935 4.2125C2.88144 4.22011 2.85109 4.19629 2.84924 4.19636C2.79039 4.20369 2.77711 4.18367 2.7039 4.16558C2.63104 4.14733 2.79036 4.22046 2.80507 4.23489C2.81978 4.24921 2.77246 4.25218 2.75712 4.25091C2.74177 4.24967 2.72352 4.23262 2.71402 4.23355C2.65181 4.2398 2.78522 4.28565 2.80509 4.3081C2.85216 4.36106 2.72654 4.3213 2.70446 4.33628C2.69844 4.34042 2.72715 4.34936 2.72697 4.35573C2.72588 4.38078 2.68337 4.37455 2.7041 4.4148C2.70753 4.42127 2.76639 4.47696 2.70927 4.46204C2.70107 4.45982 2.67518 4.43959 2.66414 4.44475C2.64759 4.4525 2.62903 4.47167 2.63077 4.49086C2.63214 4.5049 2.68528 4.51914 2.66365 4.52393C2.65402 4.526 2.63259 4.50032 2.6168 4.50542C2.60112 4.51039 2.58716 4.5379 2.58222 4.54868C2.57736 4.55939 2.61567 4.57395 2.61757 4.57612C2.62827 4.58891 2.63391 4.6182 2.63282 4.61996C2.58568 4.71101 2.47869 4.75439 2.44406 4.84839C2.44127 4.85577 2.47976 4.87493 2.4797 4.8763C2.47988 4.90853 2.39671 4.82848 2.35496 4.82274C2.4286 4.86842 2.40953 4.86885 2.40715 4.88944C2.40604 4.89943 2.43656 4.91414 2.43897 4.91672C2.47366 4.95643 2.41387 4.92732 2.40142 4.92169C2.35554 4.9011 2.3985 4.94193 2.36783 4.92812C2.3374 4.9144 2.30496 4.87563 2.29551 4.89046C2.3182 4.91218 2.39248 4.94721 2.39553 4.96592C2.40723 5.03678 2.2991 5.07813 2.26938 5.10679C2.2396 5.13579 2.2363 5.14954 2.21287 5.16186C2.1707 5.18368 2.22803 5.20766 2.23333 5.24586C2.23852 5.28408 2.12977 5.18289 2.1023 5.16642C2.07814 5.15177 2.0935 5.16821 2.08599 5.16738C2.08499 5.16727 2.08359 5.16686 2.08164 5.16602C2.06506 5.15886 2.05408 5.13782 2.04238 5.14211C2.03085 5.14628 2.0568 5.20398 2.07962 5.22847C2.12832 5.28001 2.19431 5.31658 2.15419 5.32371C2.15187 5.32404 2.12602 5.29443 2.11867 5.29696C2.06151 5.31763 2.02277 5.35573 1.96693 5.37204C1.95928 5.37416 1.93416 5.33838 1.92942 5.3392C1.88022 5.34702 1.94091 5.39023 1.97602 5.46744C1.90893 5.38273 1.85599 5.34177 1.83269 5.36022C1.81833 5.37143 1.85044 5.406 1.86133 5.43977C1.86455 5.45001 1.83399 5.4328 1.84555 5.45183C1.88293 5.51435 1.94298 5.57083 1.89473 5.5665C1.89257 5.56618 1.873 5.53136 1.86732 5.53256C1.83065 5.53976 1.87105 5.60402 1.84398 5.63322C1.82255 5.65625 1.75328 5.64472 1.7212 5.65425C1.66119 5.5489 1.65019 5.58706 1.67896 5.66653C1.65891 5.67358 1.64061 5.68851 1.61745 5.68731C1.60946 5.68694 1.59768 5.65355 1.59517 5.65057C1.55669 5.60334 1.58512 5.68003 1.58238 5.68493C1.5521 5.73436 1.49063 5.69475 1.47316 5.76834C1.47259 5.77097 1.50384 5.84927 1.46791 5.79784C1.46552 5.79425 1.46398 5.75312 1.44312 5.75897C1.42196 5.76495 1.36747 5.73901 1.35499 5.78638C1.35206 5.79776 1.36106 5.86801 1.32714 5.82412C1.32261 5.81813 1.31546 5.79496 1.30783 5.78355C1.28346 5.74721 1.31086 5.82798 1.27395 5.76487C1.23696 5.7018 1.19685 5.65954 1.18785 5.71682C1.18753 5.71851 1.20583 5.78386 1.19674 5.78631C1.18244 5.79009 1.15763 5.78477 1.14314 5.79095C1.13637 5.79386 1.15611 5.83113 1.1552 5.83231C1.11751 5.87239 1.07029 5.85076 1.01483 5.8552C1.00453 5.85598 0.999267 5.9195 0.965109 5.88446C0.927476 5.84621 0.871209 5.64714 0.844482 5.7106C0.833634 5.73606 0.90805 5.98743 0.825429 5.87503C0.800268 5.90313 0.768105 5.90713 0.735056 5.9132C0.73284 5.91381 0.727509 5.91763 0.725553 5.91884C0.695496 5.93371 0.666708 5.94919 0.654578 5.98889C0.653556 5.99234 0.689807 6.05628 0.683364 6.05987C0.673662 6.06513 0.648703 6.04124 0.641244 6.04394C0.609603 6.05443 0.602446 6.09501 0.573605 6.1084C0.562742 6.11347 0.54725 6.08161 0.534603 6.08726C0.522226 6.0927 0.53801 6.13742 0.510242 6.12761C0.488964 6.12013 0.431841 6.04342 0.412774 6.04074C0.454692 6.12422 0.442987 6.12829 0.432524 6.16018C0.430449 6.16638 0.448229 6.19404 0.44789 6.19852C0.446473 6.21755 0.428155 6.19609 0.427357 6.21618C0.427108 6.22102 0.439137 6.25059 0.439504 6.25626C0.442428 6.30595 0.392566 6.24765 0.385274 6.23685C0.355237 6.19696 0.361463 6.23846 0.344471 6.22402C0.328132 6.20931 0.337901 6.18216 0.322297 6.17484C0.299427 6.1638 0.27762 6.16686 0.256958 6.17033C0.251332 6.17082 0.243318 6.17184 0.23579 6.17222C0.2251 6.17292 0.236607 6.21457 0.235182 6.21566C0.212917 6.22876 0.187343 6.18502 0.179241 6.27047C0.151647 6.05216 0.166372 6.29262 0.130578 6.24988C0.127768 6.24641 0.121765 6.14278 0.130741 6.12726C0.139605 6.11175 0.155327 6.1436 0.167094 6.11918C0.170181 6.11346 0.180876 6.01536 0.182276 6.00933C0.19527 5.96223 0.210731 6.11644 0.212658 6.12484C0.232465 6.21542 0.243914 6.10878 0.247603 6.10097C0.248494 6.0994 0.249386 6.09794 0.250279 6.09657C0.259285 6.06686 0.281096 6.08096 0.292033 6.05425C0.299439 6.03611 0.269567 5.93895 0.277427 5.93965C0.301908 5.94222 0.370166 6.06738 0.344165 5.94403C0.338301 5.91774 0.284054 5.82087 0.339759 5.89051C0.342804 5.89518 0.394678 5.95811 0.378325 5.90928C0.376193 5.90317 0.360211 5.87504 0.360108 5.87197C0.359596 5.85201 0.378278 5.87091 0.381314 5.85455C0.38422 5.83826 0.385231 5.81574 0.402219 5.81754C0.412292 5.8187 0.455388 5.86219 0.467349 5.87183C0.501679 5.89972 0.471636 5.83545 0.507909 5.87271C0.544868 5.90978 0.5782 5.98281 0.615677 5.99674C0.566359 5.92866 0.516432 5.85827 0.466966 5.78971C0.49933 5.76899 0.544609 5.76159 0.578766 5.73646C0.592428 5.72802 0.629673 5.70131 0.64515 5.69703C0.650091 5.69521 0.654921 5.69314 0.65962 5.69078C0.665264 5.68785 0.641987 5.64858 0.647604 5.64436C0.67133 5.62678 0.70635 5.64725 0.72893 5.62423C0.745969 5.60641 0.751641 5.55254 0.769182 5.53253C0.818082 5.61656 0.839198 5.57298 0.86573 5.57194C0.874989 5.57154 0.884023 5.5956 0.893016 5.60105C0.926729 5.62106 0.885031 5.54614 0.886231 5.53129C0.891315 5.46791 0.964002 5.64607 0.992897 5.6296C0.994475 5.62878 0.976543 5.52563 0.976889 5.51863C0.979094 5.47302 0.99285 5.55071 1.0065 5.55349C1.03142 5.55857 1.05357 5.57618 1.0658 5.53907C1.06931 5.52812 1.06152 5.46246 1.09265 5.5033C1.09675 5.50864 1.10831 5.54053 1.11042 5.54183C1.14752 5.56269 1.10864 5.46351 1.10899 5.42452C1.10957 5.38544 1.15827 5.44507 1.17055 5.46295C1.20245 5.50916 1.17071 5.48817 1.17208 5.49341C1.18882 5.5557 1.20032 5.53917 1.21429 5.53931C1.25547 5.63532 1.27015 5.62254 1.22874 5.53902C1.22421 5.5299 1.21854 5.54274 1.21429 5.53931C1.18638 5.44004 1.19884 5.42076 1.25564 5.50083C1.28231 5.53831 1.29378 5.5903 1.31494 5.56059C1.3244 5.54718 1.29136 5.48309 1.29485 5.46027C1.30248 5.40833 1.3618 5.45546 1.3831 5.43399C1.3907 5.42626 1.36526 5.39465 1.3698 5.38817C1.38148 5.37098 1.4086 5.39079 1.41798 5.36938C1.41878 5.3674 1.39723 5.33208 1.40184 5.32923C1.43645 5.30688 1.47948 5.31417 1.51563 5.29433C1.53329 5.28468 1.55085 5.2474 1.56946 5.24065C1.60153 5.22916 1.67107 5.25295 1.68575 5.22277C1.69501 5.20356 1.66577 5.17407 1.654 5.14746C1.63025 5.09667 1.71306 5.15376 1.72639 5.16202C1.72689 5.16228 1.72103 5.1804 1.74161 5.19046C1.77475 5.22001 1.72643 5.16224 1.72639 5.16202C1.73464 5.16789 1.76532 5.15229 1.76442 5.14203C1.76397 5.13647 1.7354 5.10978 1.73563 5.10746C1.74154 5.053 1.76091 5.01723 1.80291 4.99513C1.80401 4.99505 1.83693 5.02378 1.83911 5.02319C1.85688 5.01886 1.85495 5.00166 1.84747 4.9813C1.84252 4.96447 1.83441 4.94564 1.83017 4.92851C1.82048 4.88919 1.84055 4.88037 1.90939 4.91368C1.91323 4.893 1.95616 4.89098 1.9816 4.8904C2.00713 4.88972 1.93997 4.83751 1.93942 4.83543C1.92119 4.76935 1.9746 4.77849 2.00633 4.74661C2.02137 4.7318 2.03488 4.69056 2.03972 4.66676C2.04356 4.64772 2.06597 4.65007 2.06446 4.62932C2.06426 4.62654 2.03148 4.60747 2.03064 4.6061C2.00289 4.56598 2.07528 4.62427 2.09117 4.6302C2.14902 4.65164 2.18051 4.66205 2.16979 4.62655C2.16743 4.61829 2.06387 4.53295 2.06238 4.52077C2.06079 4.50484 2.09857 4.53445 2.09592 4.51698C2.09573 4.5155 2.07068 4.5 2.07615 4.49374C2.101 4.46478 2.13726 4.43834 2.1551 4.40249C2.15758 4.39773 2.11389 4.37977 2.11679 4.37255C2.13053 4.3385 2.15184 4.30499 2.18846 4.28448C2.19755 4.27958 2.22342 4.30036 2.23282 4.30346C2.2899 4.32189 2.22349 4.26551 2.22336 4.26237C2.21884 4.1856 2.31105 4.17678 2.30906 4.09992C2.30892 4.09546 2.23986 4.02921 2.31561 4.05333C2.32064 4.05496 2.39816 4.07961 2.35396 4.04509C2.35118 4.04295 2.31066 4.03156 2.32051 4.02119C2.33044 4.01062 2.31496 3.97947 2.36409 3.9823C2.37951 3.98332 2.45813 4.00485 2.40805 3.96145C2.4046 3.95836 2.28566 3.87205 2.37998 3.90569C2.39548 3.91126 2.49031 3.95755 2.45042 3.91516C2.44262 3.90708 2.41822 3.90374 2.40937 3.88795C2.39566 3.86375 2.43043 3.85582 2.39612 3.81778C2.39006 3.81101 2.33083 3.7683 2.38524 3.77982C2.39377 3.78161 2.42442 3.79932 2.43061 3.79517C2.46029 3.77525 2.45147 3.73698 2.48609 3.71849C2.49831 3.71185 2.54828 3.73971 2.56689 3.73514C2.58559 3.73036 2.60802 3.71531 2.58884 3.69393C2.5696 3.67268 2.48099 3.6492 2.48128 3.62993C2.48227 3.54678 2.56059 3.49567 2.59641 3.426C2.60173 3.41565 2.568 3.41271 2.57366 3.39659C2.59447 3.33723 2.60415 3.22551 2.6878 3.19761C2.75478 3.17546 2.77523 3.24192 2.80795 3.21796C2.82366 3.20623 2.73058 3.15346 2.7288 3.14863C2.72594 3.14124 2.72478 3.13475 2.72487 3.12892C2.72564 3.0962 2.7636 3.08388 2.76242 3.0514C2.76211 3.04346 2.71944 3.03577 2.71962 3.02918C2.71989 3.00654 2.74543 2.99194 2.74902 2.97167C2.75053 2.96255 2.71924 2.95307 2.72444 2.94606C2.73645 2.92937 2.75562 2.91664 2.79108 2.90847C2.79432 2.90771 2.82843 2.93291 2.83493 2.91928C2.84535 2.8972 2.88392 2.87915 2.86393 2.84257C2.85788 2.83167 2.78775 2.80613 2.84221 2.80699C2.85359 2.80716 2.93635 2.84187 2.87038 2.79644C2.85936 2.78905 2.77298 2.72057 2.8421 2.72727C2.86031 2.729 2.93322 2.74293 2.92573 2.72968C2.92445 2.72779 2.8849 2.71934 2.884 2.71027C2.88148 2.67854 2.89571 2.65153 2.89382 2.61957C2.89324 2.61102 2.85024 2.60804 2.85063 2.59574C2.85185 2.56124 2.87559 2.52627 2.89851 2.50076C2.90704 2.49137 2.93667 2.51057 2.94048 2.51103C3.00236 2.51863 2.92778 2.48337 2.9248 2.47749C2.90726 2.44141 2.95084 2.43409 2.95013 2.40575C2.95002 2.39799 2.91142 2.38967 2.90862 2.38713C2.88155 2.36155 2.94399 2.39571 2.95448 2.3894C2.98407 2.37179 2.991 2.34305 2.99519 2.31642C2.99668 2.30662 2.95026 2.30165 2.95208 2.29304C2.96205 2.24185 2.98475 2.19112 3.02515 2.15225C3.03286 2.14492 3.06378 2.16227 3.07196 2.16308C3.12915 2.16898 3.06405 2.12469 3.05884 2.11769C3.03478 2.08648 3.06666 2.08908 3.06749 2.06952C3.07077 1.97461 3.12776 1.87525 3.16827 1.79871C3.22098 1.69858 3.28117 1.62797 3.30848 1.5244C3.31027 1.5178 3.26413 1.50885 3.26511 1.50296C3.27944 1.42848 3.32155 1.36338 3.33342 1.28886C3.33448 1.28276 3.28993 1.27658 3.29028 1.26617C3.29082 1.24432 3.30169 1.22052 3.32176 1.20574C3.33147 1.1985 3.36274 1.22369 3.37178 1.21615C3.393 1.19841 3.40382 1.17694 3.40544 1.15085C3.40595 1.13996 3.35819 1.14 3.36217 1.12702C3.38807 1.03911 3.4097 0.953157 3.49525 0.88427C3.5011 0.879618 3.58953 0.90427 3.57726 0.88596C3.55354 0.876721 3.52525 0.867017 3.4997 0.857741C3.52913 0.727513 3.60162 0.613837 3.64853 0.490053C3.65048 0.484884 3.60144 0.478406 3.60497 0.468345C3.62543 0.409851 3.63224 0.34706 3.69748 0.303345C3.70388 0.298997 3.78408 0.328539 3.77774 0.306457C3.77659 0.302428 3.77449 0.27229 3.75899 0.260009C3.75663 0.258243 3.71721 0.250533 3.7188 0.241916C3.72955 0.189464 3.75432 0.142205 3.79285 0.10047C3.79908 0.0939281 3.83705 0.114772 3.84184 0.110223C3.8756 0.0775467 3.85755 0.0257401 3.90336 0.00391568C3.93378 -0.00963852 4.00293 0.0158819 4.07565 0.0225335C4.08619 0.0224565 4.08982 0.0129176 4.13102 0.0207487C4.23575 0.0354287 4.34789 0.0656971 4.45951 0.0814747C4.48376 0.104803 4.46659 -0.0337366 4.52052 0.0539355C4.52354 0.0705928 4.53525 0.113041 4.55312 0.123199C4.56529 0.131811 4.60936 0.130652 4.62382 0.146511C4.63868 0.16034 4.60185 0.160261 4.61825 0.179445C4.63474 0.199071 4.68377 0.204155 4.68266 0.229965ZM2.09625 4.88592C2.1381 4.89768 2.01781 4.80879 2.03765 4.84248C2.03875 4.84422 2.09418 4.88537 2.09625 4.88592ZM0.625483 5.84799C0.681836 5.88747 0.631418 5.80353 0.589037 5.77222C0.546911 5.74076 0.608536 5.83591 0.625483 5.84799ZM0.49712 6.00152C0.544074 6.03302 0.428503 5.85516 0.435062 5.9021C0.435425 5.90475 0.494454 5.99965 0.49712 6.00152ZM4.07972 0.0865935C4.08174 0.0867794 4.0865 0.0771712 4.08483 0.0758403C4.04075 0.0572243 4.03099 0.0774336 4.07972 0.0865935ZM0.354266 6.13208C0.370492 6.15685 0.377146 6.1188 0.356509 6.08852C0.340633 6.06396 0.335007 6.10104 0.354266 6.13208ZM2.63932 4.30333C2.64141 4.30414 2.64722 4.29725 2.63594 4.29164C2.5996 4.27359 2.60421 4.28961 2.63932 4.30333ZM0.0282997 6.17147C0.0788331 6.17936 0.113634 6.35399 0.0556389 6.33477C0.0452968 6.33126 0.0775644 6.27876 0.0643022 6.26306C0.0404001 6.23445 0.0246798 6.34443 0.000443912 6.28549C-0.00392412 6.27471 0.0254312 6.17063 0.0283905 6.17122C0.0283603 6.17131 0.02833 6.17139 0.0282997 6.17147ZM2.24711 4.98381C2.24891 4.9847 2.25756 4.97585 2.25612 4.97448C2.22133 4.94153 2.20401 4.95917 2.24711 4.98381ZM2.94341 3.87391C2.94755 3.875 2.9624 3.8503 2.95919 3.84788C2.89356 3.8039 2.86354 3.85326 2.94341 3.87391ZM1.71914 5.6517C1.73067 5.70015 1.71763 5.71385 1.67905 5.66656C1.6929 5.66263 1.70546 5.65615 1.71914 5.6517Z" fill="black"/>
</svg>
