<svg width="6" height="8" viewBox="0 0 6 8" fill="none" xmlns="http://www.w3.org/2000/svg">
<path d="M4.99399 6.12601C4.9075 6.12125 4.79732 6.14575 4.71428 6.1728C4.68821 6.18122 4.70418 6.20633 4.68632 6.21333C4.65137 6.22697 4.61694 6.21715 4.58242 6.23271C4.57104 6.23799 4.58961 6.27842 4.57758 6.283C4.51189 6.30778 4.44659 6.3031 4.37932 6.31825C4.04633 6.39306 3.71605 6.43814 3.37667 6.48437C3.26485 6.49957 3.13119 6.54794 3.01425 6.53937C3.0005 6.53834 3.00606 6.50101 3.00327 6.49816C2.95984 6.45456 2.97834 6.52785 2.95317 6.53946C2.85111 6.58547 2.73579 6.59593 2.63524 6.58639C2.59222 6.58219 2.63121 6.50719 2.59125 6.55004C2.5885 6.55294 2.60053 6.5916 2.58948 6.59624C2.56311 6.60678 2.51455 6.60144 2.49408 6.60501C2.4578 6.61203 2.44928 6.61181 2.4149 6.61236C2.38829 6.61534 2.30251 6.61718 2.34714 6.62773C2.34262 6.6263 2.33905 6.62412 2.3363 6.62076C2.33399 6.61736 2.35519 6.58315 2.35542 6.57556C2.35619 6.56836 2.34868 6.56713 2.33759 6.56933C2.32711 6.5722 2.30566 6.5953 2.29963 6.59946C2.24505 6.63145 2.28887 6.54755 2.28969 6.54378C2.27331 6.45 2.18775 6.35447 2.13623 6.23365C2.09755 6.14124 2.06477 6.03223 2.01543 5.94496C1.9574 5.84255 1.88776 5.76945 1.82486 5.67595C1.82335 5.67371 1.82184 5.67145 1.82035 5.66919C1.81388 5.65948 1.86026 5.64332 1.85241 5.63138C1.76936 5.50516 1.67422 5.38757 1.55542 5.29032C1.54345 5.28057 1.5233 5.32162 1.50946 5.3135C1.42556 5.26295 1.27169 5.20727 1.37297 5.04883C1.32722 5.00638 1.27252 4.955 1.20917 4.93815C1.16831 4.9272 1.15712 4.98267 1.14301 4.93764C1.13978 4.92751 1.17775 4.91081 1.17067 4.89761C1.14089 4.84211 1.08709 4.80079 1.06316 4.74245C1.05838 4.73053 1.08722 4.70973 1.08977 4.70296C1.10975 4.64741 1.0143 4.66746 1.00277 4.66351C0.982188 4.65641 0.965206 4.64781 0.950619 4.63806C0.909251 4.61295 0.89402 4.57419 0.868652 4.53407C0.860961 4.52178 0.910397 4.51185 0.90484 4.49965C0.875886 4.43702 0.842989 4.37152 0.79874 4.30707C0.788766 4.29259 0.755383 4.32034 0.748607 4.3139C0.719264 4.2848 0.790015 4.25441 0.764578 4.22597C0.759318 4.21985 0.727077 4.23324 0.723044 4.23298C0.659488 4.2279 0.736538 4.18763 0.737009 4.18199C0.744669 4.10882 0.648822 4.08359 0.647683 4.0117C0.647691 4.0032 0.694273 4.01347 0.691698 3.99017C0.677217 3.85511 0.650537 3.71374 0.609934 3.57693C0.60449 3.56214 0.599458 3.54668 0.594853 3.53065C0.589592 3.51131 0.556532 3.52452 0.552467 3.52345C0.489307 3.49951 0.57562 3.48831 0.579296 3.483C0.606215 3.43573 0.549719 3.366 0.657823 3.35719C0.68153 3.1857 0.798625 3.02537 0.880263 2.8489C0.904079 2.79478 0.931097 2.73805 0.958447 2.67404C0.959842 2.67103 0.925438 2.64645 0.928469 2.64045C0.966588 2.56775 1.00351 2.62403 1.0923 2.65072C1.11406 2.65795 1.08073 2.5602 1.07942 2.55227C1.07281 2.52408 1.0229 2.48444 1.02307 2.47778C1.02763 2.42324 1.1513 2.58801 1.18736 2.5606C1.18833 2.55944 1.16057 2.53286 1.16146 2.52747C1.16432 2.51048 1.18301 2.51542 1.18516 2.49773C1.18984 2.45714 1.14169 2.36834 1.2111 2.39178C1.2199 2.39505 1.2783 2.49634 1.31027 2.46886C1.323 2.45752 1.38782 2.41968 1.40234 2.40258C1.41673 2.38529 1.38511 2.36021 1.38555 2.35805C1.41084 2.28563 1.38131 2.279 1.37132 2.19983C1.36182 2.12091 1.43985 2.27812 1.45973 2.28946C1.47978 2.30061 1.49762 2.24428 1.50071 2.22654C1.5034 2.20895 1.48049 2.19398 1.48511 2.18239C1.51714 2.106 1.55008 2.24661 1.5809 2.26197C1.6533 2.29888 1.62889 2.16602 1.66421 2.13494C1.67376 2.12656 1.67752 2.15757 1.68852 2.15539C1.73127 2.1468 1.73773 2.09906 1.79761 2.11278C1.80498 2.11449 1.84554 2.14681 1.86481 2.13494C1.87082 2.13121 1.87468 2.12303 1.87473 2.10794C1.87474 2.09893 1.85245 2.07326 1.86632 2.05939C1.88708 2.03854 1.92926 2.01359 1.96034 2.01319C1.98342 2.01285 1.97963 2.07149 1.99876 2.04641C2.00732 2.03525 1.9754 2.01394 1.9926 1.99536C2.00997 1.97661 2.06363 1.95894 2.08549 1.95286C2.10674 1.9469 2.10805 1.98916 2.11062 1.99117C2.12573 2.00252 2.17055 2.00869 2.17388 2.00767C2.34679 1.95912 2.50098 1.85726 2.68364 1.86011C2.69779 1.86033 2.69292 1.90377 2.69512 1.90425C2.74389 1.91736 2.69536 1.80804 2.72609 1.76705C2.72875 1.85381 2.74764 1.83621 2.78234 1.8433C2.79902 1.84683 2.7923 1.88091 2.79403 1.88423C2.82098 1.93351 2.83329 1.86705 2.83728 1.85337C2.85124 1.8031 2.87134 1.86088 2.88109 1.82745C2.89119 1.79428 2.86374 1.74635 2.89744 1.74601C2.90743 1.77678 2.88541 1.85839 2.91021 1.87092C3.00248 1.91714 3.17471 1.86181 3.2514 1.86416C3.32646 1.86544 3.35009 1.87491 3.39477 1.87012C3.47644 1.86248 3.4383 1.91739 3.48055 1.95283C3.523 1.98881 3.52804 1.83928 3.54108 1.80937C3.55426 1.77956 3.55563 1.81319 3.56781 1.79783C3.58005 1.78249 3.5653 1.75741 3.58736 1.75522C3.60939 1.75292 3.65435 1.82089 3.65345 1.85494C3.65241 1.92709 3.61111 1.99311 3.66874 1.98034C3.67212 1.97959 3.67162 1.9394 3.68413 1.93844C3.78264 1.93194 3.87835 1.95793 3.97734 1.96273C3.99089 1.9633 3.99339 1.91855 4.00148 1.91844C4.08721 1.9181 4.0362 1.978 4.05002 2.0687C4.07657 1.96374 4.12227 1.90958 4.18017 1.93032C4.21539 1.943 4.19271 1.98486 4.2028 2.02421C4.20542 2.0359 4.24197 2.01532 4.2382 2.03764C4.22637 2.11078 4.17432 2.17736 4.24357 2.16995C4.2467 2.16954 4.25313 2.12945 4.26288 2.13073C4.32524 2.13864 4.30374 2.21173 4.36174 2.24522C4.40413 2.26975 4.49889 2.26499 4.56095 2.27628C4.56458 2.27689 4.5681 2.27758 4.57147 2.27838C4.61291 2.16431 4.65596 2.21053 4.64574 2.29654C4.68219 2.30731 4.71842 2.32722 4.75694 2.3307C4.77019 2.33194 4.77596 2.29632 4.7789 2.29343C4.82461 2.24799 4.80867 2.32954 4.81502 2.33567C4.88568 2.39903 4.97708 2.37131 5.03363 2.46035C5.03556 2.46351 5.00783 2.54325 5.05296 2.4954C5.05599 2.49206 5.04419 2.44567 5.0831 2.4586C5.12223 2.4716 5.20984 2.45846 5.25054 2.51466C5.26004 2.52815 5.27282 2.60527 5.31818 2.56338C5.3241 2.55762 5.32721 2.53329 5.33644 2.52207C5.33863 2.51942 5.34056 2.51742 5.34227 2.51597C5.36507 2.49816 5.36592 2.56819 5.3974 2.50313C5.43873 2.42341 5.38303 2.39787 5.44243 2.39672C5.44355 2.3978 5.51158 2.41184 5.51609 2.39245C5.52322 2.36196 5.51388 2.32089 5.51581 2.29093C5.51673 2.27703 5.55815 2.28781 5.55904 2.2854C5.58565 2.18381 5.54122 2.11664 5.51405 2.01638C5.50898 1.99838 5.55899 1.93707 5.50928 1.90667C5.4549 1.87366 5.25671 1.94215 5.29273 1.84526C5.30705 1.8059 5.55888 1.72351 5.41608 1.67574C5.43372 1.54424 5.34557 1.42842 5.40543 1.29072C5.40823 1.2844 5.48293 1.27644 5.48429 1.26692C5.48452 1.26505 5.48433 1.26323 5.48382 1.26141C5.47987 1.24028 5.45492 1.22599 5.45504 1.21304C5.45492 1.15131 5.4945 1.1026 5.50298 1.04519C5.50637 1.02327 5.47028 1.02285 5.4746 0.996421C5.47904 0.969994 5.52822 0.964334 5.51569 0.924105C5.5061 0.893688 5.422 0.842015 5.42162 0.803296C5.51187 0.827728 5.5168 0.803176 5.55313 0.768174C5.56016 0.761461 5.58867 0.779555 5.5936 0.776877C5.61434 0.766237 5.59292 0.744149 5.61493 0.734843C5.62022 0.7326 5.65075 0.741935 5.65679 0.740658C5.70928 0.730126 5.6538 0.668145 5.64424 0.657152C5.6078 0.61564 5.65145 0.615876 5.64047 0.589617C5.62958 0.563143 5.59713 0.58659 5.59442 0.558863C5.58887 0.501327 5.61572 0.439026 5.632 0.388048C5.63869 0.367718 5.67409 0.395573 5.67598 0.39299C5.70067 0.35514 5.6729 0.297842 5.76101 0.303395C5.61276 0.226004 5.7047 0.255433 5.75014 0.242454C5.76491 0.237855 5.77445 0.229644 5.76958 0.211856C5.76786 0.206367 5.67338 0.162585 5.65183 0.176931C5.64294 0.182829 5.64125 0.193341 5.64021 0.204711C5.63925 0.218577 5.63882 0.23556 5.62055 0.24551C5.61316 0.24963 5.50955 0.250838 5.5023 0.253682C5.44604 0.274699 5.59047 0.331528 5.59784 0.336212C5.67697 0.388211 5.56361 0.39518 5.55294 0.403909C5.50419 0.443308 5.51024 0.493259 5.47366 0.528179C5.44996 0.550977 5.35249 0.522234 5.34823 0.545284C5.33381 0.62311 5.46135 0.689861 5.32259 0.724862C5.29299 0.732672 5.19077 0.686094 5.25859 0.766021C5.26281 0.771199 5.3282 0.833534 5.27312 0.844056C5.26616 0.845423 5.23493 0.836948 5.23123 0.840268C5.20707 0.862702 5.22736 0.887144 5.20802 0.913851C5.1887 0.94054 5.16223 0.972732 5.1654 1.00997C5.16721 1.03248 5.22082 1.07139 5.23339 1.08401C5.26963 1.11975 5.19565 1.13729 5.2434 1.16361C5.29154 1.18936 5.3744 1.16987 5.40026 1.2187C5.317 1.20698 5.23118 1.19728 5.14721 1.18701C5.1464 1.19337 5.14569 1.19973 5.14509 1.2061L5.15096 1.17695C5.11948 1.35611 5.16255 1.43746 5.16521 1.53983C5.16592 1.55288 5.11964 1.54387 5.11929 1.55816C5.11804 1.61747 5.15625 1.66283 5.15103 1.72078C5.14685 1.76576 5.10612 1.81955 5.10032 1.8651C5.19935 1.87864 5.17602 1.94756 5.19046 1.99158C5.19547 2.00693 5.22084 2.00285 5.23056 2.01312C5.26645 2.05184 5.17959 2.04179 5.16765 2.05474C5.1162 2.10898 5.30826 2.09311 5.30809 2.15123C5.30826 2.15496 5.20801 2.19583 5.20168 2.1999C5.16115 2.22909 5.2376 2.20321 5.24571 2.22042C5.26028 2.25144 5.28434 2.27632 5.25166 2.29888C5.24188 2.30711 5.17692 2.30236 5.22726 2.30643C5.23376 2.30747 5.26539 2.31969 5.26745 2.31986C5.30403 2.3232 5.21634 2.23946 5.27971 2.15744C5.38018 2.0688 5.45502 2.17171 5.43786 2.18854C5.43089 2.24345 5.42682 2.20975 5.42098 2.21458C5.40631 2.2655 5.42035 2.26972 5.41646 2.27116C5.41276 2.2705 5.40886 2.26976 5.40489 2.26952C5.37068 2.36836 5.34088 2.35177 5.38192 2.26746C5.38639 2.25827 5.39937 2.27282 5.40489 2.26952C5.41817 2.16627 5.39568 2.14476 5.32426 2.22009C5.29078 2.25529 5.28879 2.31088 5.24086 2.27139C5.21892 2.2533 5.2556 2.19054 5.24112 2.1635C5.20843 2.10191 5.11673 2.13595 5.06759 2.10357C5.04983 2.09185 5.08401 2.06361 5.07237 2.05434C5.04154 2.02963 4.99888 2.04357 4.969 2.01455C4.96631 2.01187 4.99027 1.97725 4.9793 1.97206C4.89621 1.93196 4.81106 1.92509 4.71617 1.88996C4.71316 1.88885 4.71003 1.88759 4.7068 1.88621C4.67 1.87012 4.61154 1.82536 4.56878 1.81253C4.49083 1.78899 4.37238 1.80569 4.30956 1.76621C4.26916 1.74084 4.29304 1.70589 4.28348 1.67232C4.2649 1.60717 4.16397 1.67482 4.15079 1.68633C4.15042 1.68669 4.18584 1.70946 4.15818 1.72215C4.13173 1.75958 4.15119 1.68667 4.15079 1.68633C4.14189 1.69338 4.06013 1.67566 4.04687 1.66331C4.03961 1.65645 4.05637 1.62083 4.05231 1.61794C3.95591 1.55029 3.84645 1.50923 3.72841 1.50078C3.72623 1.50109 3.71942 1.54434 3.71448 1.54455C3.6447 1.54859 3.61464 1.48808 3.56428 1.44657C3.51474 1.40534 3.46652 1.40874 3.42362 1.47839C3.38287 1.46295 3.31895 1.48875 3.28266 1.50545C3.2463 1.52208 3.24931 1.43715 3.24628 1.43517C3.15416 1.37358 3.0933 1.41923 2.99374 1.42565C2.94574 1.4287 2.85123 1.41843 2.79825 1.41236C2.7569 1.40719 2.7336 1.42888 2.69443 1.41949C2.6891 1.41825 2.69098 1.38008 2.68927 1.37877C2.64254 1.33758 2.67177 1.42787 2.66475 1.44513C2.63953 1.50812 2.62488 1.5417 2.56897 1.5205C2.5566 1.51557 2.50206 1.38868 2.47728 1.38473C2.44572 1.37975 2.4645 1.42506 2.43176 1.41889C2.42897 1.41842 2.42452 1.38924 2.40562 1.39394C2.31727 1.41549 2.2249 1.45383 2.13472 1.47536C2.12236 1.47843 2.12589 1.429 2.10762 1.43279C2.02101 1.45088 1.92975 1.48213 1.85847 1.53141C1.84092 1.5437 1.86439 1.56998 1.86354 1.58063C1.85862 1.64501 1.79222 1.5791 1.78525 1.58011C1.73033 1.58613 1.68462 1.60548 1.64181 1.62952C1.56869 1.67137 1.50645 1.72648 1.40915 1.74777C1.40126 1.74916 1.30299 1.69593 1.31379 1.77891C1.31425 1.78455 1.32705 1.86842 1.27968 1.83142C1.27667 1.82914 1.27285 1.78427 1.24761 1.80254C1.22281 1.82058 1.16547 1.82057 1.1508 1.8815C1.14615 1.9007 1.15972 1.98539 1.09239 1.95149C1.0885 1.94849 0.957086 1.85983 0.991219 1.95662C0.996919 1.97255 1.05737 2.05871 0.987196 2.04031C0.973482 2.03687 0.974814 2.00763 0.945698 2.0095C0.900919 2.01237 0.875039 2.06504 0.807484 2.05717C0.79593 2.05541 0.721556 2.02207 0.731635 2.08379C0.733243 2.09343 0.762327 2.11518 0.752403 2.12829C0.706223 2.19013 0.629766 2.22702 0.59009 2.30344C0.576451 2.33019 0.62776 2.35867 0.619296 2.39038C0.610689 2.42208 0.584697 2.47556 0.545044 2.48496C0.505003 2.49483 0.454234 2.41076 0.417586 2.44864C0.394497 2.47299 0.373157 2.50004 0.354035 2.5288C0.273234 2.64634 0.233852 2.79358 0.173202 2.94275C0.16278 2.96888 0.142576 2.93403 0.125056 2.9728C0.0583759 3.10289 -0.0615556 3.4315 0.0380551 3.62868C0.0399356 3.63257 0.0418061 3.63621 0.0436595 3.6396C0.105178 3.7117 0.133365 3.60109 0.162698 3.66559C0.17706 3.69677 0.0768515 3.74617 0.074547 3.75445C0.0510492 3.83814 0.105128 3.88766 0.102267 3.9622C0.101688 3.97757 0.057137 3.96963 0.0571324 3.9827C0.0569378 4.02846 0.08374 4.07134 0.0885001 4.11514C0.0905398 4.1347 0.057721 4.13698 0.0637869 4.15474C0.0778432 4.19648 0.0995514 4.2322 0.139278 4.26748C0.142874 4.27057 0.176437 4.23591 0.185309 4.2669C0.199875 4.31802 0.245652 4.37315 0.234963 4.44298C0.231809 4.46392 0.160762 4.48764 0.223332 4.51144C0.236598 4.51655 0.316659 4.47524 0.260675 4.54764C0.250455 4.55819 0.185813 4.67945 0.266714 4.69276C0.287826 4.69631 0.365981 4.69008 0.3669 4.71707C0.36684 4.72097 0.324812 4.72694 0.330995 4.74745C0.353887 4.81999 0.400311 4.88738 0.438538 4.95926C0.448864 4.97863 0.395934 4.97754 0.41304 5.0062C0.424004 5.02437 0.437038 5.04262 0.451467 5.0603C0.486412 5.10373 0.532025 5.1433 0.57142 5.17313C0.590365 5.18738 0.60564 5.15266 0.609569 5.15148C0.673117 5.1317 0.621864 5.1977 0.624205 5.2076C0.639311 5.26809 0.695741 5.27357 0.72098 5.31754C0.728002 5.32958 0.69225 5.34824 0.691435 5.35259C0.68449 5.39624 0.723308 5.33399 0.740921 5.34223C0.790373 5.3651 0.824281 5.40852 0.852762 5.44908C0.86316 5.464 0.815568 5.47835 0.82522 5.49132C0.881899 5.56889 0.947664 5.6406 1.0246 5.6963C1.03916 5.70676 1.0596 5.6764 1.06809 5.67422C1.1274 5.65885 1.09064 5.73517 1.08991 5.74601C1.08739 5.79645 1.12067 5.78895 1.13664 5.81918C1.17745 5.89731 1.23397 5.97622 1.29278 6.05258C1.33808 6.11048 1.38246 6.16758 1.41876 6.22051C1.52082 6.36952 1.59527 6.48204 1.6826 6.70374C1.68869 6.7183 1.63974 6.72309 1.64459 6.73612C1.69273 6.86171 1.83249 7.12422 2.13428 7.23242C2.29459 7.27781 2.28106 7.26136 2.32919 7.26979C2.34533 7.27147 2.31989 7.31462 2.34637 7.3187C2.40247 7.32715 2.45801 7.3239 2.5021 7.30881C2.52298 7.30152 2.49382 7.26441 2.51483 7.25782C2.56483 7.24232 2.61427 7.23719 2.66374 7.24196C2.68507 7.24406 2.65543 7.2906 2.68262 7.28983C2.86475 7.28537 3.0406 7.28095 3.21432 7.20956C3.2262 7.20465 3.22998 7.1125 3.25752 7.12803C3.26142 7.15324 3.26357 7.18308 3.26649 7.21011C3.52418 7.20523 3.77541 7.15212 4.03027 7.12476C4.04109 7.12361 4.02662 7.17362 4.0476 7.17164C4.16806 7.16028 4.28754 7.16302 4.4061 7.1037C4.41794 7.09787 4.40389 7.0134 4.44123 7.02294C4.44774 7.02471 4.50298 7.03105 4.5188 7.04821C4.52097 7.05081 4.51471 7.09143 4.53236 7.09096C4.63478 7.08755 4.7404 7.06851 4.83983 7.03461C4.85579 7.02907 4.83438 6.98846 4.84572 6.98415C4.92626 6.95387 5.01933 6.97739 5.09477 6.93139C5.14512 6.90046 5.11851 6.82931 5.13964 6.75469C5.14263 6.74417 5.17522 6.73939 5.17286 6.69739C5.16701 6.59179 5.14 6.47814 5.13564 6.36539C5.13467 6.34111 5.18098 6.36287 5.14939 6.30703C5.1472 6.3033 5.1136 6.28701 5.10388 6.26796C5.09712 6.2548 5.10279 6.21131 5.09001 6.19486C5.07723 6.17843 5.0685 6.21527 5.04815 6.19645C5.02778 6.17738 5.03124 6.1282 4.99399 6.12601ZM3.12332 1.58353C3.09079 1.62284 3.09221 1.47322 3.12496 1.51059C3.12653 1.51258 3.12502 1.58162 3.12332 1.58353ZM5.27378 1.42585C5.3416 1.46439 5.24737 1.49836 5.19433 1.47249C5.14145 1.44557 5.25324 1.41284 5.27378 1.42585ZM5.37783 1.00368C5.41835 1.05963 5.20954 1.02185 5.26277 0.981097C5.26581 0.9787 5.37551 1.00035 5.37783 1.00368ZM5.00742 6.74677C5.00763 6.74475 5.03098 6.74057 5.03174 6.74247C5.04882 6.78855 5.0021 6.79689 5.00742 6.74677ZM5.53726 0.633283C5.56026 0.655322 5.5165 0.683777 5.48777 0.656396C5.46467 0.634205 5.5087 0.605611 5.53726 0.633283ZM1.63378 2.06857C1.6343 2.07078 1.61985 2.07996 1.61469 2.06847C1.59805 2.03144 1.62461 2.0314 1.63378 2.06857ZM5.78932 0.00160568C5.73757 0.0973736 5.8746 0.220814 5.90132 0.130492C5.90738 0.1131 5.83376 0.135505 5.8315 0.107895C5.82931 0.0545197 5.93761 0.0904384 5.91385 0.02033C5.90965 0.0071812 5.79198 -0.00434066 5.78901 0.00162163C5.78911 0.00161631 5.78922 0.00161102 5.78932 0.00160568ZM3.09745 1.76212C3.09678 1.76405 3.07331 1.76497 3.07281 1.76301C3.06165 1.71505 3.10978 1.71318 3.09745 1.76212ZM0.889398 2.68992C0.891494 2.6935 0.863027 2.73524 0.85926 2.73431C0.779576 2.70967 0.84222 2.61816 0.889398 2.68992ZM4.57346 2.27567C4.57988 2.32913 4.60486 2.34491 4.64561 2.29656C4.62123 2.29032 4.59779 2.28171 4.57346 2.27567Z" fill="#397C57"/>
</svg>
