<svg width="15" height="4" viewBox="0 0 15 4" fill="none" xmlns="http://www.w3.org/2000/svg">
<path d="M14.3376 3.69037C14.2484 3.70959 14.1297 3.70221 14.0413 3.68713C14.0133 3.6825 14.0261 3.65537 14.0067 3.65096C13.9684 3.64236 13.9353 3.65674 13.8978 3.64592C13.8854 3.6422 13.899 3.59966 13.8861 3.59672C13.8154 3.58086 13.7501 3.59373 13.6796 3.58687C13.3319 3.55286 12.9947 3.5404 12.6475 3.52298C12.5332 3.51726 12.394 3.47954 12.2764 3.49642C12.2626 3.49843 12.2709 3.53526 12.2683 3.5383C12.2272 3.58487 12.2408 3.51046 12.214 3.50062C12.1079 3.46177 11.9892 3.45853 11.8873 3.47296C11.8441 3.4792 11.8878 3.5523 11.8437 3.51132C11.8407 3.50855 11.8517 3.46939 11.8397 3.46524C11.8124 3.45592 11.7613 3.46304 11.7405 3.46001C11.7002 3.45395 11.6932 3.45437 11.6551 3.45407C11.6036 3.45331 11.5404 3.43416 11.4852 3.44337C11.4734 3.44545 11.4893 3.48547 11.4705 3.49241C11.4513 3.49935 11.4007 3.49632 11.3839 3.487C11.3669 3.47768 11.3738 3.4461 11.3708 3.43889C11.3463 3.37809 11.2877 3.46315 11.2805 3.46533C11.1444 3.50243 11.0284 3.45613 10.9004 3.45963C10.8028 3.46243 10.7028 3.48192 10.6117 3.48466C10.5503 3.48641 10.4937 3.48251 10.4406 3.4815C10.3952 3.48118 10.349 3.48155 10.3014 3.48613C10.2896 3.4872 10.3063 3.53344 10.2919 3.53483C10.1384 3.54956 9.98467 3.5473 9.83334 3.51313C9.81819 3.50965 9.8384 3.46857 9.82339 3.46261C9.73054 3.42736 9.59253 3.33926 9.52652 3.51562C9.46436 3.50489 9.38834 3.4919 9.33583 3.45082C9.30194 3.42434 9.34074 3.38254 9.29517 3.39772C9.28493 3.40107 9.2941 3.44161 9.27894 3.44365C9.21489 3.45215 9.14776 3.43204 9.0834 3.4449C9.07025 3.4476 9.06946 3.48316 9.06509 3.48905C9.0284 3.53666 8.98907 3.44553 8.9791 3.43793C8.90235 3.38105 8.83998 3.39025 8.76369 3.37702C8.74597 3.3739 8.7595 3.42423 8.7421 3.42289C8.65168 3.41526 8.56021 3.39488 8.47777 3.35752C8.45942 3.34908 8.4848 3.31273 8.47646 3.30666C8.43965 3.28037 8.41599 3.35366 8.38045 3.32958C8.37296 3.3246 8.3845 3.29157 8.38378 3.28753C8.37265 3.22424 8.33534 3.30296 8.32888 3.30352C8.24791 3.31254 8.2184 3.21541 8.14379 3.211C8.13477 3.21052 8.14441 3.25782 8.11958 3.25386C7.95405 3.22765 7.78533 3.17095 7.63687 3.09151C7.61379 3.07921 7.64052 3.05263 7.64009 3.04828C7.63274 2.98006 7.5927 3.05693 7.58372 3.05762C7.51388 3.06107 7.4764 2.97493 7.40348 3.05825C7.14819 2.94149 6.86562 2.90075 6.64256 2.71363C6.63971 2.71135 6.66109 2.67479 6.65535 2.67042C6.59353 2.62275 6.57965 2.6713 6.51792 2.71962C6.51099 2.72514 6.50345 2.73066 6.49517 2.73603C6.47477 2.74925 6.47248 2.64426 6.47172 2.63632C6.46906 2.60711 6.50596 2.55493 6.50367 2.54854C6.48392 2.49761 6.41061 2.69035 6.36328 2.67077C6.36195 2.66984 6.38265 2.63736 6.38017 2.63225C6.37252 2.61624 6.35462 2.62512 6.34766 2.60808C6.33184 2.56876 6.36066 2.47228 6.29614 2.50851C6.28794 2.51328 6.25082 2.62449 6.21102 2.60186C6.19529 2.5928 6.12043 2.56358 6.10247 2.5478C6.08457 2.53206 6.11348 2.50335 6.11262 2.50122C6.07611 2.43181 6.10537 2.42171 6.10613 2.34199C6.10682 2.26254 6.04642 2.42727 6.02741 2.44048C6.00842 2.45364 5.98343 2.39845 5.97891 2.38101C5.97441 2.36358 5.99629 2.34685 5.99051 2.33562C5.95219 2.26198 5.93069 2.40475 5.90036 2.42211C5.82872 2.46326 5.84346 2.32829 5.80656 2.29872C5.79656 2.29071 5.79421 2.3219 5.78301 2.32013C5.73878 2.31275 5.73061 2.26516 5.67027 2.27977C5.66039 2.28213 5.59278 2.33817 5.59152 2.27521C5.5914 2.26616 5.61379 2.24053 5.59957 2.22652C5.57838 2.20557 5.53515 2.17925 5.5035 2.17738C5.48011 2.17601 5.48214 2.23502 5.46325 2.2088C5.45487 2.19712 5.48821 2.17751 5.47144 2.15795C5.45478 2.13845 5.4002 2.11632 5.37921 2.10838C5.35825 2.10049 5.35337 2.1425 5.35062 2.14428C5.33436 2.15426 5.28717 2.15504 5.2837 2.15348C5.10594 2.08156 4.97201 1.94817 4.79241 1.8931C4.77838 1.88874 4.76993 1.93169 4.76761 1.93143C4.7147 1.92748 4.79683 1.83979 4.78028 1.79084C4.74968 1.87204 4.7371 1.84928 4.70101 1.84358C4.68359 1.84089 4.67837 1.8753 4.67555 1.8778C4.63174 1.91404 4.6426 1.8468 4.64399 1.83267C4.64901 1.78067 4.60865 1.82671 4.6117 1.7918C4.61474 1.75716 4.65857 1.72344 4.62737 1.71013C4.606 1.73453 4.59582 1.81879 4.56693 1.82022C4.458 1.82586 4.31964 1.69342 4.25103 1.65477C4.18336 1.61662 4.15777 1.61114 4.12126 1.58203C4.0554 1.52939 4.05811 1.59684 3.99982 1.60022C3.94166 1.60362 4.02653 1.47989 4.03321 1.44794C4.04005 1.41607 4.01917 1.44246 4.01843 1.42285C4.01773 1.40326 4.04427 1.39174 4.0281 1.377C4.01199 1.36231 3.93645 1.3895 3.9154 1.41636C3.87129 1.4735 3.86345 1.55147 3.82397 1.50432C3.82173 1.50157 3.84762 1.47074 3.83821 1.46199C3.76348 1.39392 3.67279 1.34899 3.59635 1.28304C3.58599 1.27397 3.61536 1.24006 3.60956 1.23435C3.54967 1.17492 3.54308 1.25267 3.46793 1.30643C3.5239 1.21366 3.53004 1.14341 3.47623 1.11655C3.44291 1.09986 3.42804 1.14501 3.39192 1.16432C3.38105 1.17015 3.37194 1.12966 3.358 1.1475C3.31207 1.20562 3.29874 1.28945 3.25585 1.23232C3.254 1.22969 3.27962 1.19813 3.27193 1.19165C3.22228 1.14954 3.18376 1.21502 3.11818 1.1924C3.06765 1.17513 3.004 1.0909 2.95502 1.05695C3.01179 0.949798 2.94842 0.948111 2.88959 1.01158C2.8574 0.990755 2.81594 0.973976 2.78962 0.946545C2.77991 0.936792 2.80428 0.910067 2.80463 0.905943C2.81038 0.841336 2.75665 0.904608 2.74766 0.903301C2.65196 0.885785 2.61911 0.796131 2.51148 0.800316C2.50819 0.800522 2.4692 0.854312 2.46945 0.821931C2.46954 0.817768 2.4703 0.812162 2.47187 0.804805C2.47234 0.802818 2.48173 0.79814 2.48882 0.791398C2.49246 0.787945 2.49547 0.78394 2.49639 0.779477C2.4976 0.773483 2.49499 0.76663 2.48486 0.759153C2.45278 0.735319 2.41116 0.656738 2.34346 0.663241C2.32691 0.664584 2.26526 0.708391 2.26724 0.648937C2.26751 0.640857 2.28235 0.621385 2.28406 0.607068C2.28893 0.561172 2.24174 0.632578 2.25686 0.559139C2.2721 0.485828 2.25473 0.416444 2.18032 0.438635C2.17792 0.439184 2.13885 0.495793 2.12303 0.488164C2.09757 0.475748 2.06456 0.448278 2.03597 0.439143C2.02231 0.434791 2.01774 0.477472 2.01515 0.47741C1.91969 0.471085 1.8664 0.419278 1.76647 0.389317C1.74731 0.383605 1.6909 0.435391 1.65776 0.389082C1.62831 0.349944 1.65026 0.219459 1.6136 0.183338C1.60925 0.183027 1.5963 0.184274 1.59194 0.184478C1.5797 0.175193 1.56281 0.174974 1.54022 0.189721C1.4959 0.216526 1.5064 0.479534 1.40913 0.366491C1.29274 0.434269 1.15219 0.42273 1.05768 0.528853C1.05339 0.533618 1.07269 0.606228 1.06069 0.611941C1.04244 0.620494 1.01585 0.596617 1.00204 0.602162C0.993903 0.605281 0.986196 0.609115 0.978812 0.61348C0.934767 0.639534 0.905349 0.683088 0.861699 0.707722C0.842509 0.718693 0.828877 0.685358 0.805842 0.698807C0.782445 0.712667 0.795008 0.760462 0.752685 0.763487C0.720964 0.765459 0.641849 0.706136 0.60539 0.720133C0.661048 0.795267 0.639809 0.808912 0.620507 0.855761C0.616832 0.864806 0.644227 0.884575 0.643549 0.890155C0.641195 0.913471 0.612911 0.901652 0.612341 0.925669C0.612189 0.93145 0.63224 0.956286 0.633342 0.962342C0.643493 1.0147 0.565224 0.986716 0.551286 0.982197C0.499164 0.964187 0.515932 1.00458 0.487437 1.0046C0.458672 1.00491 0.468007 0.965703 0.441155 0.974132C0.385696 0.991496 0.338227 1.0416 0.297928 1.07744C0.28199 1.09188 0.321873 1.11287 0.320267 1.11566C0.295578 1.15368 0.231547 1.15256 0.273461 1.23026C0.0978811 1.0951 0.269258 1.26394 0.193922 1.27709C0.18794 1.27806 0.109854 1.20939 0.112727 1.18495C0.115699 1.16045 0.159327 1.16285 0.162051 1.12698C0.16268 1.11853 0.121201 1.02327 0.121034 1.01529C0.117971 0.95436 0.229023 1.0629 0.236346 1.06766C0.316414 1.11832 0.277168 1.01166 0.28103 0.99829C0.298474 0.937039 0.347621 0.92229 0.366263 0.874535C0.378704 0.843386 0.314623 0.764549 0.335031 0.751166C0.403377 0.70667 0.513035 0.800014 0.495447 0.657265C0.492111 0.626666 0.41101 0.54879 0.511314 0.581854C0.51773 0.583834 0.599998 0.621741 0.590371 0.566255C0.589148 0.559255 0.569961 0.533201 0.571744 0.528532C0.584358 0.497588 0.614817 0.507475 0.6329 0.479761C0.651263 0.451868 0.67217 0.415415 0.70811 0.405021C0.729918 0.398556 0.785499 0.434633 0.801711 0.441887C0.837957 0.458051 0.839488 0.416493 0.858123 0.413364C0.863528 0.412439 0.870285 0.414745 0.87956 0.422622C0.920934 0.458234 0.932575 0.542615 0.98762 0.548971C0.946578 0.47559 0.906461 0.399104 0.866462 0.324572C0.959236 0.274197 1.06533 0.249644 1.16678 0.203967C1.17941 0.198232 1.14909 0.161759 1.16259 0.154429C1.22031 0.123717 1.28487 0.135372 1.34744 0.104776C1.39584 0.0809385 1.44503 0.0210871 1.50222 -7.62675e-06C1.5239 0.0382408 1.54987 0.0522277 1.57759 0.0565004C1.58502 0.0561533 1.60702 0.0540318 1.61443 0.054561C1.6501 0.0645318 1.69162 0.0577329 1.72564 0.0654076C1.74622 0.0700755 1.74266 0.0956073 1.75634 0.105314C1.80724 0.141866 1.79162 0.0548624 1.80869 0.0433712C1.88451 -0.00384128 1.85986 0.186867 1.93015 0.196784C1.93329 0.197096 2.00423 0.108586 2.01319 0.104503C2.06633 0.0755511 2.01112 0.140792 2.03489 0.155185C2.07813 0.181917 2.10104 0.214866 2.16355 0.205629C2.18141 0.20263 2.24251 0.157608 2.25293 0.215688C2.25424 0.223262 2.23899 0.253623 2.24124 0.256722C2.28196 0.310211 2.32646 0.213952 2.37385 0.196283C2.42157 0.178873 2.43597 0.268925 2.43488 0.29239C2.43345 0.35358 2.40558 0.303465 2.40168 0.307617C2.35723 0.356802 2.39507 0.363649 2.41684 0.381556C2.37113 0.475474 2.4065 0.487724 2.43949 0.399769C2.443 0.390087 2.41949 0.388366 2.41684 0.381556C2.48653 0.302614 2.53347 0.313517 2.52516 0.419658C2.52099 0.469348 2.47721 0.503884 2.54182 0.520529C2.57105 0.528252 2.59912 0.46111 2.63152 0.458102C2.65416 0.456043 2.67265 0.463856 2.68877 0.476252C2.71831 0.49995 2.74225 0.549385 2.77927 0.562448C2.79911 0.569538 2.80141 0.525357 2.81565 0.529016C2.85075 0.536978 2.86642 0.579741 2.90506 0.583863C2.90861 0.584208 2.92159 0.544291 2.93167 0.549274C3.01141 0.587825 3.0642 0.645753 3.14734 0.68977C3.18577 0.710147 3.26906 0.727178 3.30757 0.751668C3.37711 0.795386 3.43946 0.893084 3.50773 0.910254C3.55266 0.921844 3.56186 0.880451 3.59178 0.863793C3.64866 0.830964 3.66567 0.947447 3.66749 0.965062C3.66748 0.96562 3.62793 0.957329 3.63759 0.985478C3.62942 1.03048 3.66701 0.965045 3.66749 0.965062C3.66907 0.976675 3.73439 1.01839 3.75198 1.01803C3.76145 1.01778 3.77401 0.980511 3.77863 0.981043C3.88815 0.994589 3.98602 1.02975 4.07448 1.09118C4.07584 1.09269 4.05481 1.13108 4.05826 1.13413C4.1058 1.17774 4.16337 1.14554 4.223 1.13816C4.28229 1.13064 4.3137 1.15678 4.30982 1.23751C4.34882 1.24504 4.3844 1.29777 4.40482 1.32919C4.42521 1.3606 4.46452 1.28507 4.46774 1.28469C4.56896 1.27165 4.59412 1.33646 4.67298 1.38032C4.71007 1.40115 4.79306 1.42488 4.83869 1.43507C4.87504 1.44312 4.88706 1.47029 4.9231 1.4724C4.92797 1.47271 4.93915 1.43624 4.94101 1.43548C4.99389 1.40944 4.93966 1.4866 4.94005 1.50486C4.94125 1.57118 4.94415 1.6075 4.9997 1.60119C5.0125 1.59978 5.0961 1.49106 5.11775 1.49211C5.14574 1.49366 5.11738 1.53335 5.14722 1.53387C5.14976 1.53396 5.1612 1.5068 5.17621 1.51484C5.24617 1.55184 5.31796 1.60206 5.3944 1.63221C5.40479 1.63643 5.41032 1.58785 5.42563 1.59323C5.49735 1.61849 5.573 1.65324 5.6322 1.70268C5.64672 1.71498 5.62325 1.74049 5.62302 1.75098C5.62199 1.81459 5.68748 1.74981 5.69332 1.75055C5.83398 1.7665 5.89884 1.87839 6.04034 1.89861C6.04815 1.89959 6.13718 1.83792 6.1302 1.92025C6.12981 1.92577 6.12178 2.00964 6.16414 1.9679C6.16677 1.96528 6.1682 1.92097 6.1922 1.9357C6.21622 1.95043 6.26812 1.94236 6.28551 1.99899C6.29095 2.01682 6.28639 2.10187 6.34446 2.05695C6.3484 2.05377 6.45551 1.94203 6.43521 2.04158C6.43188 2.05798 6.38783 2.1539 6.44857 2.12067C6.46024 2.11418 6.45548 2.08669 6.48121 2.08152C6.52065 2.07345 6.55035 2.11643 6.60576 2.08857C6.61541 2.08357 6.67108 2.02916 6.67267 2.08865C6.67293 2.09796 6.65277 2.12773 6.66312 2.13628C6.68655 2.15575 6.71416 2.16647 6.7417 2.1773C6.77125 2.18891 6.80084 2.20056 6.82513 2.22406C6.84162 2.23991 6.81036 2.28872 6.82536 2.31113C6.84041 2.33357 6.87709 2.36377 6.90825 2.34794C6.93936 2.33208 6.94854 2.23836 6.98335 2.24401C7.13456 2.2684 7.25589 2.36865 7.39617 2.42387C7.41694 2.43204 7.40973 2.39542 7.44097 2.40514C7.55648 2.44137 7.76328 2.47261 7.84525 2.56692C7.91164 2.64291 7.79773 2.65473 7.8542 2.69384C7.88172 2.71263 7.94195 2.61964 7.94992 2.61834C8.02944 2.60478 8.06647 2.66255 8.13415 2.66461C8.14804 2.66498 8.14539 2.62028 8.15706 2.62104C8.19684 2.62321 8.23266 2.65141 8.27005 2.65652C8.28684 2.65871 8.29116 2.62619 8.30561 2.6321C8.34017 2.64582 8.36935 2.66638 8.39812 2.70394C8.40078 2.70737 8.37035 2.74234 8.39697 2.74965C8.43981 2.76129 8.48872 2.8023 8.54495 2.78161C8.5618 2.77536 8.57661 2.70225 8.59887 2.75902C8.60353 2.77086 8.57828 2.85733 8.6301 2.7883C8.63893 2.77691 8.71995 2.68561 8.73883 2.75718C8.74383 2.77604 8.7522 2.85192 8.77218 2.8436C8.77492 2.8422 8.77184 2.80102 8.78737 2.79967C8.84231 2.79563 8.89615 2.80845 8.95217 2.80398C8.96704 2.80269 8.9517 2.75853 8.97356 2.75788C9.03337 2.75601 9.10518 2.77615 9.16107 2.79585C9.18172 2.8032 9.16303 2.83559 9.16413 2.83948C9.18208 2.90285 9.20626 2.82293 9.21492 2.81908C9.26895 2.79624 9.30438 2.83858 9.35235 2.83277C9.36563 2.83126 9.35994 2.79143 9.36285 2.7882C9.39274 2.75664 9.36646 2.82487 9.38284 2.8341C9.42873 2.86016 9.48234 2.86113 9.53096 2.85928C9.54877 2.85853 9.53186 2.81196 9.54771 2.8118C9.6418 2.80994 9.73785 2.81824 9.82852 2.84487C9.84559 2.84996 9.83422 2.88472 9.83767 2.89276C9.86178 2.94905 9.89892 2.87314 9.90724 2.8659C9.9452 2.83289 9.9597 2.86372 9.99285 2.85764C10.1146 2.83492 10.2561 2.83476 10.3833 2.83316C10.4329 2.83203 10.4833 2.83217 10.5268 2.83269C10.7568 2.83573 10.928 2.8659 11.1359 2.85379C11.1491 2.85309 11.135 2.80679 11.1464 2.80559C11.294 2.79224 11.4392 2.80935 11.5857 2.79524C11.5978 2.79416 11.5802 2.75016 11.5995 2.74696C11.6387 2.74007 11.6889 2.74229 11.7294 2.75624C11.7488 2.76297 11.7229 2.80087 11.7424 2.80686C11.7877 2.82091 11.8372 2.82393 11.8839 2.81677C11.9037 2.81363 11.8737 2.76861 11.8995 2.76804C12.0761 2.76323 12.249 2.75532 12.4266 2.81322C12.4388 2.81719 12.4497 2.90879 12.4755 2.89114C12.4774 2.8657 12.4772 2.83579 12.478 2.80861C12.7335 2.79316 12.9859 2.82341 13.2406 2.82438C13.2513 2.82441 13.232 2.77616 13.2527 2.77597C13.3731 2.77477 13.4886 2.75897 13.6123 2.80386C13.6245 2.80824 13.6207 2.8938 13.6561 2.87986C13.6623 2.87734 13.7158 2.86432 13.7293 2.84532C13.7311 2.84246 13.7199 2.80293 13.7373 2.80121C13.837 2.7919 13.9427 2.79683 14.0435 2.81622C14.0596 2.81943 14.0448 2.86267 14.0563 2.86532C14.1393 2.88374 14.2258 2.8463 14.3048 2.87937C14.3585 2.90155 14.3448 2.97609 14.3781 3.04602C14.3829 3.05589 14.4153 3.05496 14.4203 3.09671C14.4331 3.2017 14.4265 3.31832 14.442 3.43008C14.4454 3.45417 14.4879 3.42445 14.4663 3.48506C14.4648 3.48913 14.4337 3.51116 14.427 3.53161C14.4224 3.54576 14.436 3.58758 14.4257 3.60603C14.4153 3.62447 14.3998 3.58972 14.3817 3.61177C14.3636 3.63406 14.3756 3.68199 14.3376 3.69037ZM4.49713 1.46992C4.50696 1.51919 4.57254 1.38473 4.52899 1.40428C4.52681 1.40539 4.49659 1.46747 4.49713 1.46992ZM1.11549 0.354132C1.18033 0.39634 1.16728 0.296483 1.11875 0.262264C1.06908 0.228858 1.09512 0.341746 1.11549 0.354132ZM0.778092 0.605758C0.845079 0.623397 0.735108 0.441909 0.715801 0.506413C0.714642 0.51012 0.774138 0.60479 0.778092 0.605758ZM14.2499 3.07562C14.2505 3.07758 14.2741 3.07798 14.2745 3.07597C14.2839 3.02777 14.2368 3.02699 14.2499 3.07562ZM0.48867 0.892221C0.517963 0.904959 0.528084 0.853539 0.491722 0.837362C0.462294 0.824426 0.45196 0.876521 0.48867 0.892221ZM5.83405 2.23108C5.8336 2.23332 5.84845 2.24182 5.85307 2.2301C5.86791 2.19232 5.84168 2.19359 5.83405 2.23108ZM0.000444042 1.36181C0.0756377 1.29434 0.242197 1.37493 0.154 1.43755C0.137974 1.44905 0.142811 1.36864 0.114265 1.3755C0.0619105 1.3884 0.121222 1.48566 0.0466032 1.47909C0.0328968 1.47791 -0.00408437 1.36529 0.00038771 1.36152C0.000406721 1.36162 0.000425012 1.36172 0.000444042 1.36181ZM4.4384 1.64051C4.43812 1.64255 4.45886 1.65399 4.46019 1.65244C4.49139 1.61445 4.44966 1.59139 4.4384 1.64051ZM6.71679 2.69911C6.71646 2.70354 6.76635 2.72728 6.76943 2.72427C6.82407 2.66226 6.72408 2.61441 6.71679 2.69911ZM2.95565 1.05363C2.91004 1.08378 2.87964 1.07421 2.88967 1.01169C2.91059 1.02631 2.93345 1.03879 2.95565 1.05363Z" fill="#963076"/>
</svg>
