<svg width="8" height="6" viewBox="0 0 8 6" fill="none" xmlns="http://www.w3.org/2000/svg">
<path d="M6.50132 1.15561C6.44229 1.20646 6.38841 1.29279 6.35371 1.36381C6.34281 1.38601 6.37092 1.39375 6.36428 1.40986C6.35121 1.44143 6.32187 1.45607 6.3105 1.48854C6.30684 1.49938 6.34745 1.51636 6.34288 1.52711C6.31755 1.5858 6.27194 1.62299 6.23849 1.67592C6.07379 1.93619 5.88818 2.17423 5.69564 2.40812C5.6327 2.48421 5.57272 2.60137 5.49825 2.64368C5.49036 2.6478 5.47053 2.61628 5.46734 2.615C5.44449 2.60596 5.44619 2.61021 5.452 2.62095C5.45718 2.63442 5.47009 2.65449 5.46463 2.66525C5.42411 2.74506 5.34068 2.80101 5.25738 2.8328C5.2217 2.84633 5.21794 2.764 5.20549 2.81854C5.20459 2.82226 5.23232 2.85147 5.22542 2.86023C5.20953 2.88016 5.16666 2.89629 5.1517 2.90821C5.12329 2.93119 5.11774 2.93382 5.08795 2.95094C5.04725 2.97473 5.00733 3.01927 4.95833 3.03678C4.94776 3.04044 4.94058 2.99841 4.92211 3.00102C4.90356 3.00367 4.86464 3.02978 4.85581 3.04579C4.84696 3.06179 4.86846 3.0858 4.86967 3.09344C4.88029 3.15767 4.7917 3.11153 4.78454 3.11335C4.71386 3.13191 4.66103 3.17078 4.61126 3.21232C4.56926 3.24693 4.52996 3.28375 4.48444 3.31494C4.40655 3.36806 4.31597 3.41685 4.2477 3.47686C4.16659 3.54843 4.11441 3.62672 4.03926 3.69832C4.03134 3.70596 4.00652 3.66381 3.99671 3.67319C3.89208 3.77333 3.80377 3.88806 3.74577 4.01593C3.73994 4.02881 3.78355 4.04003 3.77975 4.05434C3.77369 4.07683 3.76815 4.10419 3.76072 4.13038C3.75276 4.1884 3.69648 4.25154 3.58913 4.16723C3.55827 4.20241 3.5148 4.24383 3.4979 4.29983C3.48684 4.33593 3.53638 4.35666 3.49465 4.36182C3.48539 4.36289 3.47217 4.32416 3.46005 4.32817C3.40852 4.34537 3.36711 4.38668 3.31144 4.3964C3.30017 4.39824 3.28442 4.36639 3.27859 4.36246C3.23067 4.33106 3.23809 4.42548 3.23277 4.43566C3.19464 4.51087 3.13951 4.52028 3.0815 4.55225C3.06798 4.55969 3.06188 4.50917 3.04822 4.51473C2.97744 4.54422 2.90868 4.58314 2.84986 4.63464C2.8368 4.64621 2.86817 4.67612 2.86279 4.68353C2.83863 4.71579 2.79902 4.64986 2.7753 4.67907C2.77023 4.68514 2.78841 4.71494 2.78882 4.71895C2.79508 4.78189 2.74353 4.71227 2.73806 4.71269C2.66714 4.7167 2.66375 4.81469 2.59887 4.82853C2.59116 4.83006 2.59009 4.78291 2.56953 4.78962C2.45413 4.82697 2.33922 4.87876 2.23276 4.93943C2.22022 4.94837 2.20465 4.95757 2.18789 4.96655C2.17123 4.97517 2.18964 5.00526 2.18943 5.00944C2.17997 5.07568 2.15301 4.9933 2.14714 4.9908C2.09723 4.97387 2.04722 5.04594 2.01325 4.94399C1.95393 4.95259 1.89207 4.94966 1.83399 4.9405C1.70168 4.91934 1.59333 4.83476 1.43454 4.76159C1.43178 4.76019 1.40486 4.79272 1.3994 4.7897C1.33372 4.75259 1.39098 4.71804 1.42461 4.63381C1.43345 4.61312 1.33632 4.64474 1.32854 4.64601C1.30079 4.65237 1.25841 4.69966 1.25201 4.69953C1.19988 4.69573 1.36892 4.57793 1.34502 4.54406C1.34397 4.54316 1.31614 4.56954 1.31098 4.56876C1.29481 4.56632 1.30078 4.54842 1.28384 4.5467C1.24487 4.54294 1.15529 4.58929 1.18268 4.52389C1.18641 4.51556 1.28897 4.45936 1.26398 4.42957C1.25383 4.41789 1.22045 4.35784 1.20437 4.34463C1.18817 4.33154 1.16205 4.36176 1.15995 4.36139C1.09042 4.33969 1.08235 4.36728 1.00456 4.37913C0.926841 4.39027 1.08432 4.31289 1.0963 4.294C1.10822 4.27516 1.05352 4.26 1.03631 4.25793C1.01912 4.25598 1.00362 4.27792 0.992403 4.27398C0.918704 4.24714 1.05781 4.21133 1.07385 4.18187C1.11223 4.11267 0.980894 4.14088 0.951076 4.10965C0.943063 4.10128 0.973581 4.09616 0.971683 4.08613C0.963722 4.04634 0.917021 4.04327 0.930744 3.98674C0.933019 3.97761 0.987318 3.91074 0.925547 3.91492C0.916668 3.91558 0.891675 3.93821 0.877841 3.92642C0.856976 3.90849 0.830914 3.87134 0.828527 3.84207C0.826878 3.82066 0.884841 3.81746 0.858853 3.80234C0.847274 3.79567 0.828499 3.82805 0.809039 3.81429C0.78954 3.80035 0.766792 3.7522 0.75835 3.73358C0.750084 3.71516 0.791093 3.70636 0.792771 3.70366C0.802131 3.68764 0.800699 3.64301 0.79902 3.64007C0.789697 3.62135 0.779054 3.60271 0.768067 3.58547C0.696069 3.47438 0.601522 3.3597 0.582858 3.21565C0.581182 3.20286 0.62463 3.20001 0.624799 3.19794C0.631053 3.15157 0.529941 3.21353 0.48536 3.19269C0.570445 3.17569 0.550693 3.16215 0.552733 3.12962C0.55381 3.11393 0.588354 3.11426 0.59138 3.11213C0.63602 3.07929 0.568695 3.07943 0.554645 3.07825C0.5031 3.07447 0.556969 3.04642 0.522536 3.04336C0.488314 3.04006 0.445328 3.07292 0.439838 3.04295C0.468575 3.02859 0.552357 3.03411 0.56081 3.00955C0.592325 2.91787 0.505969 2.77235 0.491558 2.70362C0.476803 2.63596 0.480445 2.61325 0.465352 2.57425C0.438482 2.50364 0.500832 2.52476 0.524597 2.47805C0.548602 2.43137 0.402762 2.46397 0.370547 2.45984C0.338367 2.45567 0.370493 2.44623 0.352499 2.4394C0.33451 2.43254 0.31415 2.45156 0.306291 2.43295C0.298375 2.41419 0.351706 2.35858 0.384603 2.35027C0.454206 2.33237 0.529172 2.35141 0.500761 2.30375C0.499085 2.30099 0.460674 2.31207 0.456225 2.3014C0.422186 2.21648 0.417964 2.12645 0.391039 2.03957C0.387279 2.02766 0.344055 2.03853 0.34138 2.03157C0.313616 1.95835 0.386656 1.98426 0.467974 1.94583C0.36007 1.95382 0.294066 1.93071 0.294552 1.87486C0.294879 1.84131 0.341874 1.84799 0.37566 1.8275C0.385839 1.82137 0.354265 1.79697 0.376566 1.79354C0.449481 1.78214 0.529552 1.80673 0.49959 1.74983C0.498164 1.74732 0.458217 1.75338 0.456188 1.74482C0.443065 1.68901 0.519001 1.68679 0.531948 1.62866C0.54201 1.5841 0.502867 1.49839 0.50132 1.4455C0.380571 1.43349 0.414026 1.38559 0.49967 1.37654C0.499897 1.36878 0.500586 1.36103 0.501433 1.35335C0.503877 1.33033 0.509495 1.30788 0.50699 1.28424C0.505954 1.27367 0.470484 1.26992 0.467183 1.26768C0.416422 1.22956 0.498869 1.24122 0.503865 1.23701C0.556931 1.18427 0.536838 1.0997 0.6289 1.0777C0.632361 1.07681 0.700679 1.12591 0.663983 1.07338C0.66161 1.06961 0.616606 1.06422 0.635771 1.03595C0.654243 1.00829 0.667105 0.927577 0.73026 0.920925C0.745548 0.919084 0.81351 0.948709 0.794936 0.893308C0.792401 0.88579 0.773464 0.87037 0.767857 0.857278C0.750422 0.815197 0.81351 0.872954 0.778853 0.806984C0.744311 0.740919 0.738782 0.673703 0.810843 0.678363C0.81307 0.678388 0.86581 0.722213 0.87747 0.711121C0.896181 0.693237 0.915481 0.659156 0.936689 0.642363C0.94681 0.634379 0.966974 0.672031 0.96919 0.671206C1.0175 0.649553 1.04594 0.616945 1.07357 0.578955L1.06168 0.585539C1.08878 0.568019 1.11685 0.54837 1.15141 0.531091C1.16704 0.523164 1.22904 0.56473 1.24871 0.512724C1.27097 0.455716 1.18162 0.266016 1.27843 0.292106C1.31832 0.302461 1.41801 0.546955 1.44752 0.40219C1.56929 0.410155 1.66353 0.322735 1.78788 0.349401C1.79346 0.350571 1.82252 0.419425 1.83455 0.41631C1.85242 0.411541 1.85651 0.376262 1.86909 0.371781C1.89928 0.360512 1.93018 0.362302 1.96084 0.363201C1.98247 0.365043 2.00519 0.366372 2.02722 0.361725C2.04704 0.357646 2.03572 0.32355 2.05949 0.318721C2.08321 0.313954 2.1046 0.358122 2.13431 0.332199C2.1567 0.312478 2.17091 0.215542 2.20232 0.200991C2.21377 0.293763 2.23592 0.289383 2.27821 0.309674C2.28636 0.313617 2.28162 0.346839 2.28565 0.350373C2.30228 0.365459 2.3127 0.337243 2.32871 0.353908C2.33259 0.357907 2.33608 0.389635 2.33939 0.394701C2.3677 0.438983 2.39909 0.363545 2.40449 0.350423C2.42511 0.300567 2.44135 0.340637 2.45906 0.320035C2.47684 0.299433 2.44509 0.279179 2.46685 0.265559C2.51193 0.237383 2.57344 0.236396 2.62151 0.230151C2.64071 0.227855 2.63179 0.271556 2.63464 0.272212C2.67545 0.279022 2.71126 0.229958 2.74159 0.312257C2.74772 0.0911629 2.76763 0.331082 2.82017 0.281809C2.8243 0.277836 2.81991 0.174001 2.80125 0.160516C2.78255 0.14705 2.7597 0.181878 2.73345 0.160593C2.72729 0.155596 2.68534 0.0620128 2.68035 0.0565871C2.64122 0.0141864 2.65151 0.169001 2.65054 0.177655C2.63885 0.271172 2.58895 0.170861 2.57778 0.164704C2.52678 0.136461 2.48841 0.162249 2.44613 0.142759C2.41835 0.130213 2.40561 0.0294111 2.38524 0.034632C2.31783 0.0519284 2.30903 0.195323 2.23145 0.080076C2.21469 0.0555354 2.21669 -0.0563825 2.17622 0.0358602C2.1738 0.0416575 2.1456 0.125118 2.11856 0.0773471C2.11518 0.0713197 2.11162 0.03916 2.1078 0.0368572C2.0818 0.0221154 2.06894 0.0495403 2.04145 0.0403456C2.01417 0.0311297 1.98004 0.016715 1.95119 0.0314389C1.94101 0.0367012 1.93065 0.0615545 1.92335 0.0838971C1.921 0.0843815 1.91381 0.0851437 1.91148 0.0857339C1.90745 0.100767 1.90425 0.114694 1.90199 0.12108C1.88613 0.167069 1.84896 0.102817 1.84334 0.156071C1.83761 0.209606 1.87987 0.281981 1.84713 0.321656C1.83121 0.239104 1.81305 0.154689 1.79618 0.0718189C1.71218 0.089536 1.63233 0.131127 1.54434 0.144285C1.5334 0.145844 1.53594 0.099323 1.52393 0.0998687C1.4731 0.102442 1.43619 0.142813 1.38185 0.141516C1.33974 0.140352 1.2846 0.103931 1.23877 0.102798C1.2357 0.202523 1.16561 0.186791 1.1222 0.208235C1.10703 0.215668 1.11521 0.240065 1.1063 0.251345C1.07276 0.2934 1.06855 0.206125 1.05297 0.19677C0.987638 0.158765 1.03473 0.331109 0.985198 0.354816C0.970161 0.361031 0.930328 0.380467 0.918571 0.391716C0.917434 0.39296 0.916141 0.394092 0.914679 0.395105C0.912247 0.396893 0.819269 0.340605 0.81136 0.338818C0.760456 0.326704 0.829965 0.36973 0.819355 0.388218C0.799841 0.422097 0.795506 0.45721 0.742483 0.46191C0.726951 0.463159 0.6621 0.43378 0.674107 0.488196C0.675687 0.495313 0.698852 0.520131 0.698069 0.523374C0.682022 0.580051 0.612181 0.499756 0.56651 0.491438C0.520593 0.483324 0.534669 0.569301 0.542146 0.591218C0.560983 0.648156 0.571682 0.596063 0.576206 0.59932C0.630137 0.637015 0.598526 0.650325 0.583864 0.671238C0.651831 0.750544 0.623093 0.768889 0.568345 0.692759C0.562436 0.68435 0.5834 0.678122 0.583864 0.671238C0.498544 0.61049 0.457992 0.63044 0.494498 0.729705C0.51206 0.776067 0.562756 0.798068 0.507078 0.8295C0.481927 0.844262 0.435756 0.788048 0.403521 0.795004C0.328689 0.812392 0.33043 0.920431 0.287533 0.971929C0.271445 0.991371 0.250134 0.950174 0.237764 0.963333C0.204447 0.999557 0.21174 1.05081 0.179209 1.09059C0.176168 1.09435 0.142227 1.06822 0.135719 1.08314C0.105642 1.1517 0.0954658 1.22391 0.0927535 1.29634C0.0929121 1.32995 0.0928246 1.36558 0.0891581 1.40163C0.0844356 1.44622 0.0547839 1.52255 0.0561438 1.56885C0.0579088 1.64905 0.113337 1.74659 0.0968798 1.81217C0.0863237 1.855 0.0454368 1.84476 0.0169173 1.86274C-0.0383879 1.89758 0.058489 1.96332 0.0736046 1.9714C0.0740815 1.97161 0.084095 1.93478 0.105089 1.95463C0.149082 1.96634 0.0737994 1.97096 0.0736046 1.9714C0.0832261 1.97708 0.0926359 2.05115 0.0850062 2.06588C0.0807754 2.07392 0.041687 2.06982 0.0402214 2.07404C0.00629323 2.17411 -0.000371983 2.27575 0.0235636 2.37646C0.0244516 2.3782 0.0679091 2.37307 0.0694525 2.37717C0.092195 2.43438 0.0415223 2.47514 0.0137803 2.52661C-0.0139073 2.57797 0.000430988 2.61654 0.0779165 2.63774C0.072145 2.6753 0.111026 2.7243 0.134711 2.7517C0.158359 2.77901 0.0746683 2.7942 0.0733375 2.79711C0.0311375 2.88797 0.0866474 2.93011 0.109399 3.01562C0.120266 3.05624 0.124548 3.14104 0.125909 3.18848C0.12667 3.22584 0.151349 3.24332 0.147259 3.27922C0.146742 3.2841 0.108904 3.2889 0.107837 3.29063C0.0736625 3.33965 0.158622 3.29829 0.17659 3.30176C0.242161 3.3144 0.276883 3.32084 0.263585 3.37567C0.260457 3.38799 0.142695 3.45853 0.142375 3.48261C0.141888 3.51281 0.183779 3.48752 0.182327 3.51906C0.182269 3.52175 0.154178 3.53084 0.161551 3.54782C0.195871 3.62776 0.248313 3.7103 0.290681 3.79791C0.296662 3.80994 0.247147 3.81625 0.255377 3.83434C0.259909 3.84421 0.264688 3.85412 0.269723 3.864C0.292 3.91047 0.322545 3.96175 0.364987 4.00325C0.376936 4.01474 0.401812 3.99134 0.412026 3.99003C0.474179 3.98284 0.410951 4.04772 0.41171 4.05295C0.427902 4.17866 0.538258 4.23055 0.564344 4.36396C0.565443 4.37101 0.50932 4.46259 0.59069 4.44871C0.596159 4.44791 0.678636 4.43235 0.640305 4.47734C0.637925 4.48017 0.594047 4.48575 0.610524 4.50779C0.626927 4.5297 0.623892 4.58213 0.682253 4.59326C0.70074 4.59695 0.784012 4.58158 0.746879 4.64469C0.743747 4.64835 0.649153 4.77214 0.745312 4.73803C0.761134 4.73234 0.848814 4.67398 0.826217 4.73971C0.821882 4.75246 0.793694 4.75198 0.793362 4.77884C0.793006 4.82042 0.841791 4.84309 0.828814 4.90638C0.826275 4.91731 0.787614 4.98663 0.848036 4.9768C0.857416 4.97515 0.880893 4.94773 0.89255 4.95676C0.947647 4.99892 0.975809 5.0708 1.04349 5.10812C1.06742 5.12123 1.09994 5.07276 1.12887 5.08091C1.15772 5.08909 1.20513 5.11468 1.20878 5.15261C1.21302 5.1911 1.12837 5.23779 1.15863 5.27343C1.28639 5.42249 1.51383 5.49763 1.73477 5.52166C1.74382 5.52263 1.75304 5.52363 1.76196 5.52462C1.78967 5.52754 1.76206 5.55654 1.80293 5.56261C1.9493 5.5859 2.21503 5.62021 2.38279 5.49667C2.39569 5.48691 2.40573 5.47775 2.41254 5.46968C2.4389 5.41105 2.35229 5.40269 2.40025 5.36502C2.42599 5.34484 2.49306 5.43284 2.50149 5.43332C2.58315 5.43964 2.61456 5.37753 2.68101 5.3666C2.69478 5.36431 2.69817 5.40899 2.70979 5.40657C2.74985 5.39853 2.78118 5.365 2.81738 5.35354C2.83368 5.34848 2.84353 5.37976 2.85704 5.37128C2.88942 5.35133 2.91448 5.32545 2.93523 5.28275C2.93709 5.27888 2.90036 5.25074 2.92477 5.23825C2.96449 5.21802 3.0016 5.16789 3.06091 5.1744C3.07855 5.17645 3.11118 5.24362 3.11855 5.18297C3.12011 5.17027 3.07334 5.09339 3.14112 5.1466C3.15221 5.15559 3.25648 5.22079 3.25471 5.14619C3.25427 5.12658 3.2399 5.05165 3.26124 5.05366C3.26429 5.05415 3.27369 5.09439 3.28905 5.0909C3.34288 5.07792 3.39052 5.04785 3.44557 5.03196C3.46028 5.02779 3.46077 5.07488 3.48215 5.06743C3.54136 5.0468 3.60315 4.9991 3.64931 4.956C3.66604 4.94019 3.63491 4.91886 3.63439 4.91481C3.62508 4.84932 3.68138 4.91098 3.69146 4.91036C3.7534 4.90553 3.76876 4.84962 3.81714 4.82918C3.83083 4.82315 3.84426 4.86136 3.84865 4.86259C3.8933 4.87333 3.83468 4.82831 3.84601 4.81106C3.87729 4.76265 3.92784 4.72955 3.9766 4.69689C3.99455 4.68487 4.00411 4.73549 4.02009 4.72406C4.09239 4.67177 4.16716 4.6073 4.24038 4.49348C4.25041 4.47398 4.25932 4.45417 4.26679 4.43436C4.2725 4.41905 4.2388 4.40555 4.23446 4.3981C4.20401 4.34601 4.28415 4.3672 4.29433 4.36603C4.34084 4.36061 4.32464 4.33146 4.34724 4.31295C4.45708 4.22314 4.55315 4.09452 4.64123 4.00293C4.73973 3.89995 4.81991 3.80967 4.93465 3.73711C4.95382 3.72509 4.97306 3.71382 4.99373 3.70264C5.0036 3.69726 5.01799 3.7429 5.02675 3.73881C5.13923 3.68398 5.23678 3.60733 5.35667 3.55579C5.36642 3.55151 5.37452 3.59747 5.39099 3.59185C5.42479 3.58065 5.46317 3.55655 5.48845 3.52627C5.50072 3.51162 5.46135 3.49032 5.47405 3.47626C5.50385 3.4433 5.54236 3.41794 5.58534 3.40115C5.60377 3.39402 5.60093 3.44785 5.62323 3.43545C5.72046 3.38181 5.82656 3.32123 5.92408 3.22983C5.99857 3.16167 6.03308 3.10849 6.06578 3.04715C6.07152 3.0358 6.01408 2.96374 6.0447 2.95774C6.0641 2.97428 6.08533 2.99535 6.10526 3.01384C6.29087 2.84503 6.42107 2.64992 6.57316 2.46932C6.57956 2.46171 6.60477 2.50662 6.61736 2.49203C6.69027 2.40755 6.7712 2.33442 6.8084 2.21674C6.81213 2.20512 6.74346 2.15401 6.77478 2.13724C6.78036 2.13434 6.82141 2.10374 6.84387 2.10594C6.84714 2.10641 6.8716 2.13918 6.88291 2.12767C6.94813 2.06031 7.00441 1.9795 7.04562 1.8924C7.05223 1.87827 7.00938 1.86331 7.0138 1.85302C7.04519 1.78044 7.12293 1.73752 7.13953 1.65702C7.15045 1.6031 7.08232 1.57033 7.04312 1.50437C7.0376 1.49504 7.05541 1.47092 7.02393 1.44303C6.94487 1.37279 6.84643 1.31028 6.76326 1.23409C6.74536 1.21766 6.79053 1.20391 6.73047 1.18462C6.72642 1.18336 6.6932 1.19308 6.67333 1.1859C6.65958 1.18095 6.63227 1.1469 6.61229 1.14345C6.59233 1.14001 6.61286 1.17141 6.58642 1.17093C6.55972 1.17036 6.52695 1.1337 6.50132 1.15561ZM0.242093 2.87346C0.286602 2.89442 0.139515 2.92176 0.170254 2.8862C0.171917 2.88445 0.239899 2.87235 0.242093 2.87346ZM1.65278 0.242502C1.63028 0.313678 1.58872 0.222843 1.60391 0.168167C1.61935 0.113529 1.65976 0.220905 1.65278 0.242502ZM2.02223 0.230071C1.98805 0.286664 1.95506 0.0770829 2.00458 0.114168C2.00741 0.116264 2.02423 0.226786 2.02223 0.230071ZM6.95133 1.58296C6.95005 1.5814 6.96225 1.56367 6.96408 1.56454C7.00793 1.58608 6.98348 1.62154 6.95133 1.58296ZM2.38404 0.242826C2.37432 0.272666 2.33471 0.243508 2.34667 0.206394C2.35622 0.176539 2.39615 0.205698 2.38404 0.242826ZM0.885251 4.14123C0.887428 4.14061 0.896091 4.15346 0.884691 4.15882C0.847931 4.17604 0.848588 4.1517 0.885251 4.14123ZM2.98777 0.185415C2.89939 0.202014 2.86233 0.381627 2.95745 0.352518C2.97467 0.347251 2.9142 0.300596 2.93502 0.282705C2.9732 0.250087 3.01096 0.356928 3.04706 0.294209C3.05357 0.282739 2.99279 0.184078 2.98759 0.185187C2.98765 0.185263 2.98771 0.185339 2.98777 0.185415ZM0.422011 2.86171C0.424036 2.86195 0.429189 2.88262 0.427345 2.88343C0.382276 2.90241 0.371778 2.86027 0.422011 2.86171ZM1.4424 4.82793C1.44609 4.82596 1.48226 4.85426 1.48102 4.85802C1.4484 4.93364 1.36937 4.87155 1.4424 4.82793ZM0.498196 1.44432C0.548132 1.42715 0.556826 1.4023 0.499717 1.37665C0.499947 1.39935 0.497749 1.42161 0.498196 1.44432Z" fill="#397C57"/>
</svg>
