<svg width="15" height="4" viewBox="0 0 15 4" fill="none" xmlns="http://www.w3.org/2000/svg">
<path d="M0.134735 3.6904C0.223984 3.70962 0.342692 3.70224 0.431038 3.68716C0.45911 3.68253 0.44624 3.6554 0.465692 3.65099C0.503938 3.64239 0.537068 3.65678 0.57459 3.64595C0.586966 3.64223 0.573395 3.59969 0.586319 3.59675C0.657028 3.58089 0.722263 3.59376 0.792756 3.5869C1.14051 3.55289 1.47768 3.54043 1.82485 3.52301C1.93915 3.51729 2.07837 3.47957 2.19594 3.49645C2.20974 3.49846 2.20144 3.53529 2.20406 3.53833C2.24515 3.58491 2.23159 3.51049 2.25842 3.50065C2.3645 3.4618 2.4832 3.45856 2.58508 3.47299C2.6283 3.47923 2.58458 3.55233 2.62867 3.51135C2.63173 3.50858 2.62072 3.46942 2.63272 3.46527C2.65997 3.45595 2.71111 3.46307 2.73184 3.46004C2.77221 3.45399 2.7792 3.4544 2.81728 3.4541C2.86879 3.45334 2.93199 3.43419 2.98716 3.4434C2.99895 3.44548 2.9831 3.4855 3.00184 3.49244C3.02106 3.49938 3.07168 3.49635 3.08852 3.48703C3.10546 3.47771 3.09854 3.44613 3.10159 3.43892C3.1261 3.37812 3.1847 3.46319 3.19185 3.46536C3.32795 3.50246 3.44397 3.45616 3.57197 3.45966C3.66953 3.46247 3.76956 3.48195 3.86067 3.48469C3.9221 3.48644 3.97871 3.48254 4.03183 3.48153C4.07716 3.48121 4.12342 3.48158 4.17103 3.48616C4.18276 3.48724 4.16605 3.53347 4.18047 3.53486C4.33402 3.54959 4.48771 3.54733 4.63904 3.51316C4.65419 3.50969 4.63398 3.4686 4.64899 3.46264C4.74185 3.42739 4.87985 3.33929 4.94586 3.51565C5.00802 3.50492 5.08404 3.49193 5.13655 3.45085C5.17045 3.42437 5.13164 3.38257 5.17721 3.39775C5.18746 3.4011 5.17828 3.44164 5.19344 3.44368C5.25749 3.45218 5.32462 3.43207 5.38898 3.44493C5.40213 3.44763 5.40292 3.48319 5.40729 3.48908C5.44398 3.53669 5.48331 3.44556 5.49328 3.43796C5.57003 3.38108 5.6324 3.39028 5.70869 3.37705C5.72641 3.37393 5.71289 3.42426 5.73028 3.42292C5.82071 3.41529 5.91217 3.39491 5.99461 3.35755C6.01296 3.34911 5.98758 3.31276 5.99593 3.30669C6.03273 3.2804 6.05639 3.35369 6.09193 3.32961C6.09942 3.32463 6.08788 3.2916 6.0886 3.28756C6.09973 3.22427 6.13704 3.30299 6.1435 3.30355C6.22447 3.31257 6.25398 3.21544 6.32859 3.21103C6.33761 3.21055 6.32798 3.25785 6.3528 3.25389C6.51833 3.22768 6.68705 3.17098 6.83551 3.09154C6.85859 3.07924 6.83186 3.05266 6.83229 3.04831C6.83964 2.98009 6.87968 3.05696 6.88867 3.05765C6.9585 3.0611 6.99598 2.97496 7.0689 3.05828C7.3242 2.94152 7.60676 2.90078 7.82982 2.71366C7.83267 2.71138 7.81129 2.67482 7.81703 2.67045C7.87885 2.62279 7.89273 2.67133 7.95446 2.71965C7.96139 2.72517 7.96893 2.73069 7.97721 2.73607C7.99761 2.74928 7.9999 2.64429 8.00066 2.63635C8.00333 2.60714 7.96642 2.55496 7.96871 2.54857C7.98846 2.49764 8.06178 2.69038 8.1091 2.6708C8.11043 2.66987 8.08973 2.63739 8.09221 2.63228C8.09986 2.61627 8.11776 2.62516 8.12472 2.60812C8.14054 2.56879 8.11172 2.47231 8.17624 2.50854C8.18444 2.51331 8.22156 2.62452 8.26137 2.60189C8.27709 2.59283 8.35195 2.56361 8.36992 2.54783C8.38781 2.5321 8.3589 2.50338 8.35976 2.50125C8.39627 2.43184 8.36701 2.42175 8.36626 2.34202C8.36556 2.26257 8.42597 2.4273 8.44497 2.44051C8.46396 2.45367 8.48895 2.39848 8.49347 2.38104C8.49797 2.36361 8.47609 2.34688 8.48187 2.33565C8.52019 2.26202 8.5417 2.40478 8.57202 2.42214C8.64366 2.46329 8.62892 2.32832 8.66582 2.29875C8.67583 2.29075 8.67817 2.32193 8.68937 2.32016C8.7336 2.31279 8.74177 2.26519 8.80211 2.2798C8.81199 2.28216 8.87961 2.3382 8.88086 2.27524C8.88098 2.26619 8.8586 2.24056 8.87281 2.22655C8.894 2.2056 8.93723 2.17928 8.96888 2.17741C8.99227 2.17604 8.99024 2.23505 9.00914 2.20883C9.01752 2.19715 8.98417 2.17754 9.00094 2.15798C9.0176 2.13848 9.07218 2.11635 9.09317 2.10841C9.11413 2.10052 9.11902 2.14253 9.12176 2.14432C9.13802 2.15429 9.18521 2.15507 9.18868 2.15351C9.36644 2.08159 9.50037 1.9482 9.67997 1.89313C9.694 1.88877 9.70246 1.93172 9.70478 1.93146C9.75768 1.92751 9.67556 1.83982 9.6921 1.79087C9.7227 1.87207 9.73528 1.84931 9.77138 1.84361C9.7888 1.84092 9.79401 1.87533 9.79683 1.87783C9.84064 1.91407 9.82978 1.84683 9.8284 1.8327C9.82337 1.7807 9.86374 1.82674 9.86068 1.79183C9.85764 1.75719 9.81381 1.72347 9.84501 1.71016C9.86638 1.73456 9.87656 1.81882 9.90545 1.82025C10.0144 1.8259 10.1527 1.69345 10.2213 1.65481C10.289 1.61665 10.3146 1.61117 10.3511 1.58206C10.417 1.52942 10.4143 1.59687 10.4726 1.60025C10.5307 1.60365 10.4459 1.47992 10.4392 1.44797C10.4323 1.4161 10.4532 1.44249 10.4539 1.42288C10.4546 1.40329 10.4281 1.39177 10.4443 1.37703C10.4604 1.36234 10.5359 1.38953 10.557 1.41639C10.6011 1.47353 10.6089 1.5515 10.6484 1.50435C10.6506 1.5016 10.6248 1.47077 10.6342 1.46202C10.7089 1.39395 10.7996 1.34902 10.876 1.28307C10.8864 1.274 10.857 1.24009 10.8628 1.23438C10.9227 1.17495 10.9293 1.2527 11.0045 1.30646C10.9485 1.21369 10.9423 1.14344 10.9962 1.11658C11.0295 1.09989 11.0443 1.14504 11.0805 1.16435C11.0913 1.17018 11.1004 1.12969 11.1144 1.14753C11.1603 1.20565 11.1736 1.28949 11.2165 1.23235C11.2184 1.22972 11.1928 1.19816 11.2005 1.19168C11.2501 1.14957 11.2886 1.21505 11.3542 1.19243C11.4047 1.17516 11.4684 1.09093 11.5174 1.05698C11.4606 0.949829 11.524 0.948141 11.5828 1.01161C11.615 0.990785 11.6564 0.974006 11.6828 0.946575C11.6925 0.936823 11.6681 0.910097 11.6677 0.905973C11.662 0.841366 11.7157 0.904639 11.7247 0.903331C11.8204 0.885816 11.8533 0.796161 11.9609 0.800346C11.9642 0.800553 12.0032 0.854342 12.0029 0.821962C12.0028 0.817799 12.0021 0.812192 12.0005 0.804835C12 0.802849 11.9907 0.79817 11.9836 0.791428C11.9799 0.787976 11.9769 0.783971 11.976 0.779508C11.9748 0.773513 11.9774 0.766661 11.9875 0.759184C12.0196 0.735349 12.0612 0.656769 12.1289 0.663271C12.1455 0.664614 12.2071 0.708422 12.2051 0.648967C12.2049 0.640887 12.19 0.621416 12.1883 0.607098C12.1835 0.561203 12.2306 0.632609 12.2155 0.55917C12.2003 0.485858 12.2177 0.416474 12.2921 0.438666C12.2945 0.439215 12.3335 0.495823 12.3494 0.488194C12.3748 0.475778 12.4078 0.448308 12.4364 0.439174C12.4501 0.434822 12.4546 0.477503 12.4572 0.47744C12.5527 0.471115 12.606 0.419309 12.7059 0.389348C12.7251 0.383636 12.7815 0.435421 12.8146 0.389113C12.8441 0.349975 12.8221 0.21949 12.8588 0.183368C12.8631 0.183057 12.8761 0.184305 12.8804 0.184509C12.8927 0.175223 12.9096 0.175004 12.9322 0.189751C12.9765 0.216557 12.966 0.479565 13.0632 0.366521C13.1796 0.4343 13.3202 0.422761 13.4147 0.528883C13.419 0.533649 13.3997 0.606258 13.4117 0.611972C13.4299 0.620525 13.4565 0.596647 13.4703 0.602192C13.4785 0.605312 13.4862 0.609145 13.4936 0.613511C13.5376 0.639564 13.567 0.683118 13.6107 0.707752C13.6299 0.718723 13.6435 0.685389 13.6665 0.698838C13.6899 0.712697 13.6774 0.760492 13.7197 0.763518C13.7514 0.765489 13.8305 0.706166 13.867 0.720163C13.8113 0.795298 13.8326 0.808943 13.8519 0.855792C13.8555 0.864836 13.8282 0.884605 13.8288 0.890186C13.8312 0.913502 13.8595 0.901682 13.86 0.925699C13.8602 0.93148 13.8401 0.956317 13.839 0.962373C13.8289 1.01473 13.9072 0.986747 13.9211 0.982227C13.9732 0.964218 13.9564 1.00461 13.9849 1.00463C14.0137 1.00494 14.0044 0.965733 14.0312 0.974162C14.0867 0.991527 14.1342 1.04163 14.1745 1.07748C14.1904 1.09191 14.1505 1.1129 14.1521 1.11569C14.1768 1.15371 14.2408 1.15259 14.1989 1.23029C14.3745 1.09513 14.2031 1.26397 14.2785 1.27712C14.2844 1.27809 14.3625 1.20942 14.3597 1.18499C14.3567 1.16048 14.3131 1.16288 14.3103 1.12701C14.3097 1.11856 14.3512 1.0233 14.3513 1.01532C14.3544 0.954391 14.2434 1.06293 14.236 1.06769C14.156 1.11835 14.1952 1.01169 14.1914 0.998321C14.1739 0.93707 14.1248 0.922321 14.1061 0.874565C14.0937 0.843417 14.1578 0.764579 14.1374 0.751196C14.069 0.7067 13.9593 0.800045 13.9769 0.657295C13.9803 0.626697 14.0614 0.548821 13.9611 0.581885C13.9547 0.583865 13.8724 0.621772 13.882 0.566285C13.8832 0.559285 13.9024 0.533232 13.9006 0.528563C13.888 0.497618 13.8576 0.507505 13.8395 0.479791C13.8211 0.451898 13.8002 0.415446 13.7643 0.405051C13.7425 0.398587 13.6869 0.434663 13.6707 0.441917C13.6344 0.458081 13.6329 0.416523 13.6143 0.413394C13.6089 0.41247 13.6021 0.414776 13.5928 0.422653C13.5514 0.458265 13.5398 0.542645 13.4848 0.549001C13.5258 0.475621 13.5659 0.399134 13.6059 0.324603C13.5131 0.274227 13.407 0.249674 13.3056 0.203998C13.293 0.198263 13.3233 0.161789 13.3098 0.15446C13.2521 0.123748 13.1875 0.135402 13.1249 0.104806C13.0765 0.0809691 13.0274 0.0211176 12.9702 2.28908e-05C12.9485 0.0382713 12.9225 0.0522582 12.8948 0.0565309C12.8874 0.0561838 12.8654 0.0540624 12.858 0.0545915C12.8223 0.0645623 12.7808 0.0577634 12.7467 0.0654381C12.7262 0.070106 12.7297 0.0956378 12.716 0.105345C12.6651 0.141896 12.6808 0.0548929 12.6637 0.0434017C12.5879 -0.00381076 12.6125 0.186897 12.5422 0.196815C12.5391 0.197127 12.4681 0.108617 12.4592 0.104533C12.406 0.0755816 12.4613 0.140823 12.4375 0.155216C12.3943 0.181948 12.3713 0.214896 12.3088 0.205659C12.291 0.202661 12.2299 0.157638 12.2195 0.215718C12.2181 0.223292 12.2334 0.253653 12.2311 0.256752C12.1904 0.310241 12.1459 0.213982 12.0985 0.196314C12.0508 0.178903 12.0364 0.268955 12.0375 0.292421C12.0389 0.35361 12.0668 0.303496 12.0707 0.307648C12.1152 0.356833 12.0773 0.36368 12.0555 0.381586C12.1013 0.475505 12.0659 0.487755 12.0329 0.3998C12.0294 0.390117 12.0529 0.388397 12.0555 0.381586C11.9859 0.302645 11.9389 0.313548 11.9472 0.419688C11.9514 0.469379 11.9952 0.503915 11.9306 0.520559C11.9013 0.528283 11.8733 0.46114 11.8409 0.458132C11.8182 0.456074 11.7997 0.463886 11.7836 0.476283C11.7541 0.499981 11.7301 0.549415 11.6931 0.562479C11.6733 0.569568 11.671 0.525387 11.6567 0.529046C11.6216 0.537008 11.606 0.579772 11.5673 0.583893C11.5638 0.584239 11.5508 0.544322 11.5407 0.549304C11.461 0.587855 11.4082 0.645784 11.325 0.6898C11.2866 0.710177 11.2033 0.727209 11.1648 0.751698C11.0953 0.795416 11.0329 0.893115 10.9647 0.910284C10.9197 0.921874 10.9105 0.880482 10.8806 0.863824C10.8237 0.830994 10.8067 0.947478 10.8049 0.965092C10.8049 0.965651 10.8445 0.957359 10.8348 0.985508C10.843 1.03051 10.8054 0.965075 10.8049 0.965092C10.8033 0.976705 10.738 1.01842 10.7204 1.01807C10.7109 1.01781 10.6984 0.980542 10.6938 0.981074C10.5842 0.994619 10.4864 1.02978 10.3979 1.09122C10.3965 1.09272 10.4176 1.13111 10.4141 1.13416C10.3666 1.17777 10.309 1.14557 10.2494 1.13819C10.1901 1.13067 10.1587 1.15681 10.1626 1.23754C10.1236 1.24507 10.088 1.2978 10.0676 1.32922C10.0472 1.36063 10.0079 1.2851 10.0046 1.28472C9.90342 1.27168 9.87827 1.33649 9.7994 1.38035C9.76231 1.40118 9.67932 1.42491 9.63369 1.43511C9.59734 1.44315 9.58533 1.47033 9.54928 1.47243C9.54441 1.47274 9.53323 1.43627 9.53137 1.43551C9.47849 1.40947 9.53273 1.48663 9.53234 1.50489C9.53113 1.57121 9.52823 1.60753 9.47268 1.60122C9.45988 1.59981 9.37628 1.49109 9.35463 1.49214C9.32664 1.49369 9.355 1.53338 9.32516 1.5339C9.32263 1.53399 9.31119 1.50683 9.29617 1.51487C9.22621 1.55187 9.15442 1.60209 9.07798 1.63224C9.06759 1.63646 9.06206 1.58788 9.04675 1.59326C8.97503 1.61852 8.89939 1.65327 8.84018 1.70271C8.82567 1.71501 8.84913 1.74052 8.84936 1.75101C8.85039 1.81462 8.78491 1.74984 8.77906 1.75059C8.6384 1.76653 8.57354 1.87843 8.43204 1.89864C8.42423 1.89962 8.3352 1.83795 8.34218 1.92029C8.34257 1.9258 8.3506 2.00967 8.30824 1.96793C8.30561 1.96531 8.30419 1.921 8.28018 1.93573C8.25616 1.95046 8.20426 1.94239 8.18687 1.99902C8.18143 2.01685 8.18599 2.1019 8.12793 2.05698C8.12398 2.0538 8.01687 1.94206 8.03717 2.04161C8.0405 2.05801 8.08455 2.15393 8.02381 2.1207C8.01214 2.11421 8.0169 2.08673 7.99118 2.08155C7.95173 2.07348 7.92203 2.11646 7.86662 2.0886C7.85697 2.0836 7.8013 2.02919 7.79971 2.08868C7.79945 2.098 7.81961 2.12776 7.80927 2.13632C7.78584 2.15578 7.75822 2.1665 7.73068 2.17733C7.70113 2.18894 7.67154 2.20059 7.64725 2.2241C7.63076 2.23994 7.66202 2.28875 7.64702 2.31116C7.63197 2.3336 7.59529 2.3638 7.56413 2.34797C7.53302 2.33211 7.52384 2.23839 7.48903 2.24404C7.33782 2.26843 7.21649 2.36868 7.07621 2.4239C7.05544 2.43207 7.06265 2.39545 7.03141 2.40517C6.91591 2.4414 6.7091 2.47264 6.62713 2.56695C6.56074 2.64294 6.67465 2.65476 6.61818 2.69387C6.59066 2.71266 6.53043 2.61967 6.52246 2.61837C6.44294 2.60481 6.40592 2.66259 6.33823 2.66464C6.32434 2.66501 6.32699 2.62031 6.31532 2.62107C6.27554 2.62324 6.23973 2.65144 6.20233 2.65655C6.18555 2.65874 6.18122 2.62622 6.16677 2.63213C6.13221 2.64585 6.10303 2.66641 6.07426 2.70397C6.0716 2.7074 6.10203 2.74237 6.07541 2.74968C6.03257 2.76132 5.98366 2.80233 5.92743 2.78164C5.91058 2.77539 5.89577 2.70228 5.87351 2.75905C5.86886 2.77089 5.8941 2.85736 5.84228 2.78833C5.83345 2.77694 5.75243 2.68564 5.73355 2.75721C5.72855 2.77607 5.72019 2.85195 5.7002 2.84363C5.69746 2.84223 5.70055 2.80105 5.68501 2.7997C5.63008 2.79566 5.57623 2.80848 5.52021 2.80401C5.50534 2.80272 5.52069 2.75856 5.49882 2.75791C5.43902 2.75604 5.3672 2.77618 5.31131 2.79588C5.29066 2.80323 5.30935 2.83562 5.30826 2.83951C5.2903 2.90288 5.26613 2.82296 5.25746 2.81911C5.20343 2.79627 5.168 2.83861 5.12003 2.8328C5.10675 2.8313 5.11244 2.79146 5.10953 2.78823C5.07965 2.75667 5.10593 2.8249 5.08954 2.83413C5.04365 2.86019 4.99005 2.86116 4.94142 2.85931C4.92361 2.85856 4.94052 2.81199 4.92467 2.81183C4.83058 2.80997 4.73454 2.81827 4.64387 2.8449C4.6268 2.84999 4.63816 2.88475 4.63471 2.89279C4.6106 2.94908 4.57346 2.87317 4.56515 2.86593C4.52718 2.83292 4.51268 2.86375 4.47953 2.85767C4.35781 2.83495 4.21627 2.83479 4.08907 2.83319C4.03945 2.83206 3.98913 2.8322 3.94561 2.83272C3.71556 2.83576 3.54438 2.86593 3.33652 2.85382C3.32333 2.85312 3.33734 2.80682 3.32595 2.80562C3.17836 2.79227 3.03316 2.80938 2.88668 2.79527C2.87455 2.79419 2.89215 2.75019 2.87284 2.74699C2.83367 2.74011 2.78343 2.74232 2.74298 2.75627C2.72363 2.763 2.74945 2.8009 2.72997 2.80689C2.6847 2.82094 2.63518 2.82396 2.58849 2.8168C2.56866 2.81366 2.59869 2.76864 2.57289 2.76807C2.39628 2.76326 2.22338 2.75535 2.04573 2.81325C2.03358 2.81722 2.02267 2.90882 1.99686 2.89117C1.99499 2.86573 1.99518 2.83582 1.99442 2.80864C1.7389 2.79319 1.48644 2.82344 1.23181 2.82441C1.2211 2.82444 1.24034 2.77619 1.21964 2.776C1.09929 2.7748 0.983799 2.759 0.860098 2.80389C0.847847 2.80827 0.851643 2.89383 0.816285 2.87989C0.810124 2.87737 0.756602 2.86435 0.743128 2.84535C0.741328 2.84249 0.75244 2.80296 0.735116 2.80124C0.635334 2.79193 0.529731 2.79686 0.428898 2.81625C0.412756 2.81946 0.427625 2.8627 0.416095 2.86535C0.333113 2.88377 0.246561 2.84633 0.167625 2.8794C0.113864 2.90158 0.127583 2.97612 0.0942674 3.04605C0.0894907 3.05592 0.0571171 3.05499 0.0521036 3.09674C0.0392328 3.20173 0.0459066 3.31835 0.0303656 3.43011C0.0269628 3.4542 -0.0155088 3.42448 0.00609261 3.48509C0.00757088 3.48916 0.0386871 3.51119 0.0453632 3.53164C0.0499878 3.54579 0.0364008 3.58761 0.0467076 3.60606C0.0570696 3.6245 0.0726116 3.58975 0.0906835 3.6118C0.10882 3.63409 0.0967875 3.68202 0.134735 3.6904ZM9.97525 1.46995C9.96542 1.51923 9.89984 1.38476 9.94339 1.40431C9.94557 1.40542 9.9758 1.4675 9.97525 1.46995ZM13.3569 0.354163C13.2921 0.396371 13.3051 0.296513 13.3536 0.262295C13.4033 0.228888 13.3773 0.341776 13.3569 0.354163ZM13.6943 0.605788C13.6273 0.623428 13.7373 0.441939 13.7566 0.506444C13.7577 0.51015 13.6982 0.60482 13.6943 0.605788ZM0.222435 3.07565C0.221885 3.07761 0.198256 3.07801 0.197848 3.076C0.188529 3.0278 0.235548 3.02702 0.222435 3.07565ZM13.9837 0.892251C13.9544 0.904989 13.9443 0.85357 13.9807 0.837392C14.0101 0.824457 14.0204 0.876551 13.9837 0.892251ZM8.63833 2.23112C8.63878 2.23335 8.62394 2.24185 8.61931 2.23013C8.60447 2.19235 8.6307 2.19362 8.63833 2.23112ZM14.4719 1.36184C14.3967 1.29437 14.2302 1.37496 14.3184 1.43758C14.3344 1.44908 14.3296 1.36867 14.3581 1.37553C14.4105 1.38843 14.3512 1.48569 14.4258 1.47913C14.4395 1.47794 14.4765 1.36532 14.472 1.36155C14.472 1.36165 14.472 1.36175 14.4719 1.36184ZM10.034 1.64054C10.0343 1.64259 10.0135 1.65403 10.0122 1.65247C9.981 1.61448 10.0227 1.59142 10.034 1.64054ZM7.75559 2.69914C7.75592 2.70358 7.70603 2.72731 7.70295 2.7243C7.64831 2.66229 7.7483 2.61444 7.75559 2.69914ZM11.5167 1.05366C11.5623 1.08381 11.5927 1.07424 11.5827 1.01172C11.5618 1.02634 11.5389 1.03882 11.5167 1.05366Z" fill="#963076"/>
</svg>
