<svg width="12" height="9" viewBox="0 0 12 9" fill="none" xmlns="http://www.w3.org/2000/svg">
<path d="M11.0031 6.14213C10.9288 6.00157 10.8012 5.83297 10.6968 5.71313C10.6639 5.67527 10.6561 5.7109 10.6323 5.68538C10.5856 5.63515 10.562 5.57791 10.5133 5.52948C10.4973 5.51377 10.4785 5.56027 10.4625 5.54331C10.3755 5.45112 10.3153 5.34806 10.2327 5.24958C9.82809 4.76832 9.42758 4.29688 8.98501 3.84173C8.8383 3.69049 8.63567 3.53397 8.49442 3.36982C8.47799 3.35063 8.51464 3.33513 8.51339 3.3296C8.49354 3.24432 8.45769 3.31359 8.41625 3.28659C8.32443 3.22647 8.23496 3.15505 8.15294 3.08078C8.08893 3.02292 8.03124 2.9609 7.98161 2.89952C7.93422 2.84037 8.03905 2.84512 7.95804 2.81847C7.95246 2.81653 7.93658 2.857 7.9196 2.84478C7.88042 2.81642 7.82688 2.74564 7.80069 2.71985C7.7504 2.67084 7.74305 2.66142 7.70022 2.61028C7.64159 2.54059 7.55883 2.4666 7.50568 2.382C7.49451 2.36399 7.54346 2.36211 7.5283 2.33085C7.51337 2.29997 7.45633 2.22963 7.43028 2.21061C7.40434 2.19179 7.38685 2.22103 7.37782 2.22103C7.30245 2.22203 7.30488 2.08538 7.29785 2.07307C7.17817 1.86451 7.00086 1.70963 6.78123 1.57367C6.77507 1.57011 6.76806 1.56539 6.76053 1.55958C6.66481 1.48276 6.51263 1.28676 6.32476 1.19539C6.31427 1.18996 6.30394 1.18488 6.29333 1.17989C6.10324 1.09197 5.92581 1.05465 5.72994 1.01067C5.70805 1.00594 5.74317 0.964799 5.71604 0.958963C5.42734 0.897719 5.13442 0.89924 4.85883 0.955139C4.83124 0.960825 4.87069 0.998883 4.84359 1.00705C4.67573 1.05497 4.4364 1.17884 4.30368 1.02249C4.19321 1.05149 4.06114 1.08909 3.97243 1.14811C3.91548 1.18609 3.98683 1.215 3.90594 1.21517C3.88755 1.21534 3.90055 1.17137 3.87369 1.17453C3.76196 1.18757 3.64597 1.23129 3.5356 1.23867C3.51294 1.24012 3.51005 1.20431 3.50238 1.1997C3.43943 1.16265 3.37523 1.26667 3.35892 1.27694C3.2304 1.35553 3.12414 1.36087 3.00145 1.37846C2.97323 1.38223 3.00036 1.33105 2.97395 1.33273C2.89211 1.33834 2.813 1.33732 2.77177 1.33022C2.71457 1.31761 2.65761 1.30548 2.6008 1.29447C2.56862 1.28826 2.58331 1.33638 2.56712 1.33529C2.4953 1.32935 2.50827 1.25231 2.44131 1.24314C2.42716 1.24101 2.42122 1.27604 2.41742 1.2786C2.35715 1.31847 2.3578 1.22629 2.34949 1.22058C2.24182 1.14484 2.12765 1.18667 2.01919 1.11465C2.00641 1.10595 2.05761 1.08375 2.02062 1.06172C1.77498 0.915134 1.5108 0.755905 1.2392 0.630044C1.19711 0.610631 1.20798 0.655911 1.20337 0.657853C1.13018 0.687536 1.14807 0.599169 1.13656 0.588578C1.04479 0.506959 0.913598 0.516114 0.884408 0.38839C0.820558 0.361574 0.75598 0.335189 0.689535 0.310879C0.615311 0.28724 0.527804 0.213218 0.398165 0.147663C0.35406 0.126791 0.31573 0.108311 0.251142 0.0919076C0.23245 0.0884073 0.217993 0.0822443 0.169807 0.0845309C0.149794 0.0901134 0.0863615 0.0792074 0.0224282 0.178222C-0.0227892 0.282435 0.0135995 0.31956 0.0180954 0.340673C0.0556412 0.411919 0.0710772 0.415288 0.0911865 0.437972C0.260078 0.601917 0.435667 0.757747 0.634818 0.886842C0.640153 0.890438 0.660674 0.85219 0.671176 0.859479C0.796831 0.945667 0.731246 0.973213 0.749447 1.09941C0.754235 1.13129 0.875601 1.11309 0.885241 1.11244C0.92076 1.11007 0.94483 1.04728 0.954219 1.04916C1.03105 1.06685 0.882319 1.20995 0.949199 1.27247C0.951543 1.27419 0.96858 1.23819 0.976812 1.24072C1.00254 1.24854 1.00917 1.27537 1.03536 1.282C1.09494 1.2964 1.17748 1.23641 1.197 1.33499C1.19922 1.34753 1.10776 1.42179 1.1703 1.4736C1.19552 1.4942 1.29688 1.59469 1.33047 1.61739C1.36421 1.63997 1.37114 1.59394 1.37431 1.59476C1.48613 1.63535 1.47149 1.59187 1.56238 1.57856C1.65317 1.56585 1.51777 1.67824 1.51914 1.70755C1.52062 1.7368 1.60514 1.76511 1.62896 1.76951C1.65273 1.77373 1.6533 1.73962 1.67113 1.74661C1.78911 1.79444 1.64255 1.84304 1.64814 1.88962C1.65199 1.92297 1.66719 1.94234 1.68909 1.95543C1.73848 1.98449 1.82143 1.97846 1.86564 2.01573C1.88271 2.03015 1.84856 2.03594 1.85927 2.05257C1.90168 2.11809 1.9631 2.12817 1.98993 2.2203C1.99453 2.23552 1.97746 2.33927 2.05072 2.34025C2.06126 2.34035 2.07541 2.30573 2.10147 2.32752C2.14049 2.36003 2.20004 2.42737 2.22279 2.47695C2.23955 2.51349 2.16992 2.50852 2.21231 2.53866C2.23118 2.55212 2.2326 2.50076 2.26599 2.52772C2.29938 2.55446 2.359 2.64174 2.38069 2.67555C2.40244 2.70926 2.35659 2.71397 2.35617 2.71818C2.35439 2.7431 2.38079 2.81734 2.38448 2.82294C2.56822 3.10822 2.78739 3.34578 2.92859 3.64999C2.93966 3.67378 2.89383 3.67896 2.89513 3.6828C2.92221 3.76987 2.98816 3.65358 3.05157 3.69086C2.97102 3.72405 3.00255 3.7492 3.0239 3.80944C3.03411 3.83849 2.99669 3.83961 2.99497 3.84367C2.97115 3.9074 3.0439 3.9044 3.05962 3.90535C3.11741 3.90886 3.0806 3.96479 3.11938 3.96762C3.15796 3.97062 3.17946 3.90632 3.20703 3.9608C3.18733 3.99021 3.09464 3.98743 3.10415 4.03439C3.14007 4.21089 3.34107 4.47265 3.40831 4.59615C3.47553 4.71897 3.48981 4.76189 3.53552 4.83075C3.6176 4.95432 3.5402 4.93227 3.55502 5.02651C3.56987 5.12083 3.68398 5.0168 3.71833 5.01484C3.75262 5.01279 3.72929 5.03977 3.75203 5.04673C3.77474 5.05363 3.77914 5.01291 3.80144 5.04411C3.82363 5.07514 3.81768 5.19299 3.79355 5.21946C3.74246 5.27563 3.65549 5.2657 3.72259 5.34467C3.7265 5.3492 3.75332 5.31534 3.76652 5.33356C3.86988 5.4781 3.95183 5.64089 4.05494 5.7849C4.06924 5.80478 4.09795 5.76585 4.1067 5.77716C4.19769 5.89377 4.10909 5.88085 4.07454 5.9898C4.13555 5.94343 4.19266 5.93404 4.23901 5.96507C4.25861 5.97788 4.27624 5.99702 4.29289 6.02322C4.32718 6.07548 4.28244 6.09243 4.2813 6.1472C4.28114 6.16408 4.33584 6.18058 4.32447 6.20109C4.2887 6.26953 4.19421 6.28927 4.3045 6.35894C4.30938 6.36171 4.32565 6.32174 4.34034 6.33321C4.43585 6.40378 4.39698 6.4705 4.49807 6.55764C4.57813 6.62633 4.75724 6.67722 4.86098 6.71755C4.91241 6.60807 4.99105 6.67569 4.9978 6.76897C5.06553 6.79428 5.13588 6.82673 5.20486 6.83945C5.22852 6.84382 5.22575 6.80548 5.22986 6.80293C5.29234 6.76217 5.29444 6.84878 5.30806 6.85679C5.45606 6.93948 5.60279 6.91779 5.73772 7.01784C5.7425 7.0214 5.72886 7.10507 5.78572 7.05686C5.78943 7.05347 5.74953 7.00285 5.82155 7.01943C5.89349 7.036 6.03917 7.02793 6.12712 7.09223C6.1485 7.10775 6.19026 7.19002 6.25201 7.15191C6.26039 7.14673 6.25991 7.12149 6.27284 7.11117C6.31469 7.07849 6.30698 7.16482 6.36229 7.1056C6.38429 7.08218 6.41157 7.0633 6.44162 7.05398C6.48796 7.03994 6.53808 7.04645 6.58988 7.09145C6.59259 7.09367 6.59832 7.16509 6.63063 7.17215C6.68116 7.18318 6.75536 7.18599 6.80855 7.19751C6.8337 7.203 6.80907 7.24067 6.8133 7.24233C6.98055 7.30026 7.11145 7.28236 7.29772 7.28574C7.33146 7.28631 7.42514 7.35221 7.49459 7.31196C7.57028 7.26792 7.51064 7.05752 7.67307 7.11793C7.74038 7.14258 7.8029 7.40726 7.93684 7.28693C8.08158 7.32586 8.22695 7.33661 8.36396 7.40083C8.43996 7.43629 8.51438 7.47603 8.58426 7.53078C8.59263 7.53734 8.59021 7.61751 8.61293 7.62762C8.64691 7.64259 8.67994 7.62083 8.70464 7.63037C8.80816 7.66933 8.88694 7.7387 8.98593 7.77886C9.02321 7.794 9.02517 7.75627 9.06962 7.7741C9.11437 7.792 9.12482 7.84737 9.19371 7.85288C9.24559 7.85675 9.32808 7.78898 9.39172 7.80358C9.35804 7.89077 9.40002 7.90638 9.46452 7.95917C9.477 7.96938 9.44948 7.99334 9.45476 7.99973C9.47609 8.02644 9.51132 8.01151 9.53085 8.0389C9.53555 8.04548 9.52409 8.07527 9.5273 8.08233C9.55456 8.14375 9.65421 8.1053 9.67091 8.09827C9.73623 8.07246 9.74349 8.11956 9.78746 8.11609C9.83064 8.11227 9.78404 8.06992 9.83081 8.07526C9.91221 8.08467 10.0044 8.11856 10.0863 8.14719C10.1021 8.15251 10.118 8.15795 10.1332 8.16315C10.1702 8.17611 10.1305 8.20704 10.1354 8.20983C10.206 8.24673 10.3 8.23829 10.3031 8.33399C10.4487 8.16123 10.3377 8.37242 10.4541 8.38855C10.4632 8.38986 10.5272 8.30697 10.5035 8.27547C10.4794 8.24382 10.4158 8.24618 10.381 8.2031C10.3736 8.19293 10.35 8.0753 10.3425 8.066C10.289 7.99327 10.2223 8.13479 10.2159 8.14123C10.1607 8.1941 10.1259 8.13624 10.1021 8.09852C10.0962 8.08667 10.0906 8.07657 10.0864 8.07318C10.008 8.01019 9.92531 8.00319 9.85911 7.95319C9.8158 7.92063 9.84735 7.82393 9.80845 7.81246C9.68017 7.77424 9.58324 7.88826 9.51238 7.72678C9.49707 7.69212 9.56439 7.60003 9.44181 7.64352C9.4343 7.64639 9.33682 7.69198 9.31839 7.62896C9.31613 7.62105 9.3291 7.59141 9.32392 7.58621C9.28872 7.55183 9.25034 7.56316 9.20973 7.53159C9.16903 7.49997 9.122 7.45846 9.06575 7.44451C9.03185 7.43608 8.96614 7.47182 8.94492 7.4781C8.88414 7.49642 8.8692 7.41189 8.82055 7.44551C8.77145 7.47918 8.78923 7.57525 8.70462 7.57121C8.73895 7.49442 8.77098 7.41404 8.80411 7.33613C8.69486 7.28495 8.5814 7.24392 8.4703 7.19424C8.4128 7.16755 8.35436 7.1451 8.29658 7.12502C8.27098 7.1162 8.3114 7.0816 8.28349 7.07106C8.16441 7.02785 8.05876 7.04377 7.95043 7.01799C7.86607 6.99805 7.78066 6.9438 7.69948 6.92601C7.64239 7.0184 7.52669 6.97803 7.44285 6.97966C7.41335 6.98019 7.41333 7.00595 7.3917 7.01241C7.31048 7.03587 7.35561 6.95469 7.33573 6.9393C7.25246 6.87294 7.22231 7.06349 7.11456 7.04358C7.10815 7.04259 7.05575 6.93069 7.04764 6.92272C6.99608 6.87175 7.03213 6.95638 6.99356 6.95735C6.92342 6.95882 6.87043 6.97339 6.79766 6.92625C6.77607 6.91228 6.73722 6.83743 6.68036 6.87371C6.67283 6.87845 6.6675 6.91209 6.66232 6.91279C6.56837 6.92214 6.5941 6.8182 6.55701 6.76989C6.55045 6.76139 6.54215 6.75583 6.53274 6.75248C6.48275 6.73496 6.40896 6.76914 6.3906 6.78212C6.33195 6.82244 6.41761 6.81415 6.41839 6.82006C6.42808 6.88953 6.372 6.86171 6.32513 6.85426C6.2905 6.95297 6.22952 6.9296 6.27701 6.84626C6.28234 6.83719 6.31486 6.85632 6.32513 6.85426C6.31332 6.7445 6.24606 6.71242 6.14542 6.78455C6.09826 6.81835 6.11804 6.87782 6.01557 6.83056C5.96913 6.80916 6.00662 6.74477 5.9689 6.71432C5.88302 6.64491 5.74009 6.67515 5.64505 6.63587C5.6107 6.62165 5.65642 6.5942 5.63345 6.58318C5.57286 6.55384 5.50831 6.56458 5.45039 6.52937C5.44521 6.52615 5.47195 6.49164 5.45289 6.48471C5.3094 6.43114 5.17724 6.40905 5.03953 6.34348C4.97233 6.31212 4.87286 6.23004 4.81342 6.19395C4.70882 6.13432 4.55971 6.07772 4.5109 5.98804C4.48009 5.93112 4.52323 5.91883 4.53274 5.88265C4.54043 5.85574 4.52767 5.83757 4.50741 5.82244C4.46864 5.78611 4.41047 5.76167 4.3977 5.75718C4.39703 5.75706 4.42074 5.8233 4.38475 5.80018C4.33562 5.80138 4.39788 5.75794 4.3977 5.75718C4.3841 5.75252 4.31197 5.6326 4.30671 5.60439C4.30377 5.58905 4.34241 5.57893 4.34023 5.57127C4.28737 5.38911 4.2141 5.21601 4.11432 5.0514C4.11215 5.04871 4.07502 5.07227 4.07039 5.0657C4.00451 4.97387 4.0218 4.88645 4.01065 4.79014C3.99924 4.69328 3.95809 4.63238 3.86668 4.61557C3.84503 4.54902 3.77132 4.47312 3.72809 4.43047C3.68476 4.3876 3.75749 4.34288 3.75676 4.33757C3.73525 4.17177 3.65057 4.11056 3.56925 3.96691C3.53038 3.8984 3.46978 3.75417 3.43795 3.67425C3.41294 3.61085 3.37626 3.58448 3.35782 3.52349C3.3553 3.51525 3.39267 3.50476 3.39272 3.5018C3.39922 3.4187 3.33389 3.49244 3.31251 3.4877C3.23479 3.47076 3.19158 3.45829 3.17294 3.3669C3.16869 3.34598 3.25531 3.22821 3.24319 3.1913C3.22731 3.14364 3.19517 3.18355 3.17947 3.13321C3.17808 3.12893 3.20407 3.11496 3.18692 3.08806C3.10762 2.96299 3.00928 2.8337 2.92866 2.70183C2.91753 2.68386 2.97155 2.68159 2.95603 2.65512C2.88317 2.53097 2.79308 2.40002 2.69354 2.29757C2.66892 2.27245 2.65486 2.30918 2.64259 2.30869C2.5682 2.30547 2.59902 2.2028 2.59374 2.19292C2.47238 1.95963 2.28768 1.85238 2.13808 1.6299C2.13445 1.62442 2.13106 1.5924 2.11975 1.56008C2.10623 1.52068 2.08139 1.48154 2.0312 1.49145C2.0251 1.49258 1.93363 1.51259 1.94403 1.44407C1.94466 1.43977 1.99552 1.433 1.95587 1.39779C1.91647 1.36285 1.87666 1.28269 1.79347 1.26403C1.76711 1.25797 1.67302 1.27745 1.66947 1.18487C1.6697 1.17875 1.69474 1.00206 1.59912 1.04876C1.58344 1.05652 1.51523 1.13706 1.49486 1.04325C1.49103 1.02519 1.52719 1.02699 1.50832 0.988946C1.47931 0.930401 1.40107 0.895818 1.37894 0.81087C1.37514 0.795937 1.38351 0.705822 1.31453 0.715788C1.30368 0.717296 1.28927 0.752022 1.26951 0.738976C1.17569 0.677293 1.10833 0.582056 1.01078 0.523449C0.976077 0.502444 0.951672 0.557724 0.911514 0.540714C0.870962 0.523341 0.80078 0.476783 0.788102 0.428596C0.775067 0.380058 0.871364 0.346707 0.830434 0.297349C0.738978 0.18706 0.633052 0.0922622 0.524344 -2.46013e-05C0.524912 0.00938287 0.511926 -0.0317055 0.577022 0.0921173C0.581564 0.131951 0.670702 0.211333 0.559212 0.469102C0.399084 0.713013 0.253354 0.67913 0.218003 0.691957C0.127801 0.694704 0.125986 0.68474 0.11247 0.68274C0.0849103 0.671395 0.119459 0.678498 0.13573 0.684149C0.1557 0.688819 0.193219 0.708058 0.246552 0.740609C0.288119 0.76537 0.232395 0.769645 0.302463 0.81262C0.34149 0.835809 0.391839 0.864774 0.458142 0.892472C0.615451 0.959412 0.858136 1.12309 1.03093 1.16162C1.19236 1.19736 1.04789 1.05736 1.16141 1.10189C1.21607 1.12352 1.21378 1.24664 1.22421 1.25708C1.32429 1.35951 1.433 1.37185 1.53723 1.45C1.55892 1.4662 1.51446 1.48968 1.53331 1.50311C1.59735 1.54919 1.67967 1.57375 1.7454 1.61308C1.77498 1.63084 1.75395 1.65663 1.78342 1.66933C1.85388 1.69991 1.92122 1.71822 2.00238 1.72266C2.00967 1.723 1.98566 1.66682 2.03736 1.68944C2.12166 1.72629 2.2375 1.74332 2.32645 1.80992C2.35295 1.82974 2.32863 1.90077 2.41152 1.8751C2.42908 1.8696 2.43947 1.77911 2.49145 1.87752C2.49701 1.88773 2.53691 1.94611 2.58916 1.97689C2.64742 2.00336 2.71045 2.01147 2.74893 1.98969C2.77933 1.97529 2.84252 1.90545 2.88878 1.91578C2.89555 1.91745 2.86918 1.95823 2.91054 1.96109C3.05094 1.96909 3.17194 1.94328 3.28708 1.93304C3.31838 1.93011 3.28137 1.98014 3.32741 1.97443C3.45386 1.95858 3.59415 1.91204 3.69917 1.87156C3.73838 1.85641 3.70184 1.83035 3.70385 1.82597C3.73551 1.75497 3.78281 1.8275 3.79957 1.8281C3.9021 1.83113 3.9632 1.77551 4.05186 1.76399C4.07596 1.76081 4.06873 1.80293 4.07423 1.80516C4.13049 1.82643 4.07783 1.76698 4.10661 1.75197C4.18788 1.70956 4.28328 1.69081 4.36989 1.67783C4.40175 1.67313 4.37572 1.72489 4.40397 1.72025C4.5708 1.69386 4.73734 1.66255 4.89073 1.62307C4.91962 1.61559 4.89804 1.58248 4.90346 1.57397C4.9418 1.51431 5.01 1.58637 5.02393 1.59302C5.08945 1.62297 5.11256 1.59155 5.16854 1.59698C5.44065 1.62179 5.74807 1.65965 5.96463 1.7491C5.97825 1.75447 5.99171 1.75996 6.00504 1.76557C6.12307 1.80749 6.16605 1.87716 6.45392 2.08436C6.52479 2.12296 6.59671 2.18409 6.67265 2.27575C6.6853 2.29101 6.63716 2.30652 6.64747 2.31998C6.78148 2.49324 6.94835 2.70431 7.11061 2.92916C7.12405 2.9477 7.06901 2.94935 7.08942 2.97997C7.13161 3.04366 7.19527 3.117 7.25673 3.16674C7.28667 3.19107 7.28205 3.12784 7.31156 3.15273C7.37996 3.21002 7.44575 3.27802 7.50349 3.34897C7.52782 3.37897 7.45499 3.36801 7.48936 3.40469C7.54857 3.4679 7.60717 3.52813 7.66919 3.58793C7.83707 3.74972 8.00424 3.90463 8.19868 4.0428C8.21613 4.0551 8.29606 4.00595 8.31452 4.05071C8.29847 4.07073 8.2767 4.09125 8.25806 4.11108C8.5571 4.44574 8.87211 4.76043 9.15857 5.11217C9.17069 5.12709 9.11217 5.1315 9.13519 5.16024C9.26825 5.32675 9.38292 5.49913 9.55129 5.64689C9.56784 5.66149 9.63012 5.60186 9.65753 5.66141C9.66232 5.67188 9.7102 5.75756 9.70931 5.78828C9.709 5.79266 9.66638 5.8016 9.68347 5.82748C9.78383 5.97823 9.89881 6.12837 10.0197 6.26483C10.0393 6.28686 10.0572 6.23736 10.0715 6.25289C10.173 6.36388 10.2332 6.51522 10.3421 6.61452C10.4147 6.68047 10.4578 6.61145 10.5459 6.61577C10.5584 6.61636 10.5913 6.66582 10.6286 6.64623C10.7225 6.59702 10.8051 6.51094 10.907 6.46135C10.9289 6.45056 10.9499 6.53371 10.9741 6.46165C10.9756 6.45667 10.9608 6.39625 10.9699 6.37343C10.9762 6.35755 11.0221 6.35025 11.026 6.32339C11.0299 6.29654 10.9875 6.2965 10.9868 6.25676C10.9863 6.21695 11.0354 6.20338 11.0031 6.14213ZM3.53285 4.23755C3.4726 4.20817 3.60285 4.13427 3.59658 4.20192C3.59612 4.20527 3.53586 4.23912 3.53285 4.23755ZM8.44118 7.31359C8.42774 7.3176 8.41632 7.31867 8.40684 7.31753C8.34579 7.30811 8.34291 7.22463 8.4085 7.20586C8.43094 7.19997 8.44726 7.20684 8.45739 7.21932C8.47477 7.24612 8.46095 7.30776 8.44118 7.31359ZM9.06009 7.66836C8.96528 7.68231 9.04288 7.48455 9.10226 7.55881C9.10573 7.56305 9.06559 7.66755 9.06009 7.66836ZM10.4367 6.40613C10.4387 6.40563 10.4634 6.4403 10.4623 6.44224C10.4345 6.4869 10.3854 6.41772 10.4367 6.40613ZM9.69287 7.9898C9.65875 8.00746 9.6037 7.95035 9.64562 7.92844C9.67914 7.9108 9.73482 7.96772 9.69287 7.9898ZM1.92218 1.96951C1.91996 1.97033 1.89819 1.94845 1.90805 1.94061C1.93995 1.9154 1.95969 1.9555 1.92218 1.96951ZM10.7954 8.47622C10.6434 8.43219 10.4441 8.50898 10.6479 8.59456C10.684 8.60747 10.5968 8.5085 10.6476 8.51536C10.7331 8.52474 10.7569 8.64832 10.8597 8.61123C10.8752 8.60438 10.8016 8.47891 10.7952 8.47589C10.7952 8.476 10.7953 8.47611 10.7954 8.47622ZM3.35844 4.29028C3.35621 4.29022 3.33553 4.25303 3.33681 4.25124C3.36896 4.20935 3.41072 4.2844 3.35844 4.29028ZM0.580368 0.778835C0.57571 0.78027 0.501544 0.714909 0.501843 0.709765C0.518324 0.618153 0.668266 0.750018 0.580368 0.778835ZM4.86398 6.71541C4.88661 6.77954 4.93912 6.80925 4.99758 6.76894C4.95272 6.7532 4.90873 6.73381 4.86398 6.71541Z" fill="#963076"/>
</svg>
