<svg width="6" height="6" viewBox="0 0 6 6" fill="none" xmlns="http://www.w3.org/2000/svg">
<path d="M0.000162588 0.301976C0.00789743 0.358317 0.0443737 0.409279 0.0803311 0.445084C0.0915412 0.456298 0.112932 0.438872 0.121596 0.445717C0.13832 0.458657 0.134049 0.481638 0.152653 0.493738C0.158904 0.497618 0.194453 0.474051 0.200126 0.4785C0.231137 0.503449 0.234998 0.538991 0.257647 0.568322C0.369091 0.712177 0.454562 0.862886 0.545159 1.01558C0.575589 1.06722 0.639154 1.11457 0.649268 1.17656C0.650358 1.18369 0.615142 1.1953 0.612932 1.19777C0.579338 1.23604 0.644069 1.19873 0.658742 1.207C0.717228 1.24084 0.744967 1.29297 0.754319 1.34719C0.758181 1.37026 0.682283 1.38047 0.729049 1.38376C0.732208 1.38398 0.765419 1.36256 0.771714 1.36624C0.78591 1.3746 0.790452 1.40111 0.79776 1.40953C0.812015 1.42566 0.813099 1.42894 0.821779 1.44665C0.834174 1.47118 0.864753 1.49093 0.868758 1.52066C0.869501 1.52704 0.829706 1.53657 0.827608 1.54828C0.825516 1.55997 0.839531 1.58211 0.851827 1.58615C0.86412 1.59016 0.891143 1.57349 0.898355 1.57186C0.95923 1.55814 0.894886 1.62017 0.894623 1.62456C0.891619 1.70262 0.960898 1.73744 0.988369 1.79673C1.00959 1.84275 1.0173 1.89688 1.03948 1.93922C1.06632 1.99018 1.10573 2.02314 1.12582 2.07489C1.12798 2.08032 1.08236 2.09413 1.08491 2.1008C1.11214 2.17193 1.14814 2.23661 1.20894 2.2912C1.21503 2.29656 1.24844 2.27028 1.25677 2.27459C1.30683 2.30115 1.41216 2.33307 1.2605 2.43425C1.27996 2.4591 1.30259 2.4901 1.34739 2.49993C1.37624 2.5063 1.40958 2.47121 1.40162 2.49949C1.39987 2.50585 1.36135 2.51678 1.36144 2.52505C1.36203 2.56027 1.38783 2.5849 1.38265 2.62179C1.3815 2.6293 1.34874 2.64283 1.34374 2.64717C1.30344 2.68276 1.39136 2.66911 1.39931 2.67143C1.45906 2.68973 1.45542 2.72466 1.4729 2.75903C1.47698 2.76701 1.42945 2.77773 1.43184 2.78615C1.44468 2.82931 1.46877 2.87073 1.50631 2.90078C1.5148 2.90749 1.54761 2.88212 1.55354 2.88445C1.57925 2.89491 1.51203 2.93172 1.5354 2.94246C1.54024 2.94477 1.57058 2.92783 1.57435 2.92689C1.63346 2.91206 1.56131 2.95762 1.56093 2.96119C1.55434 3.00701 1.64524 2.99237 1.64962 3.03088C1.65008 3.03556 1.60615 3.0453 1.60987 3.05733C1.62407 3.10365 1.64642 3.14835 1.67585 3.18971C1.69776 3.22072 1.72301 3.24857 1.75186 3.27402C1.76246 3.2835 1.78801 3.26065 1.79202 3.25962C1.85498 3.24394 1.78228 3.2889 1.78128 3.29416C1.7753 3.33447 1.8529 3.33046 1.77249 3.39626C1.86731 3.5078 1.88277 3.66025 2.03112 3.74058C2.03291 3.74165 2.06798 3.71851 2.0714 3.72071C2.11284 3.7468 2.05179 3.77095 1.99655 3.83512C1.98279 3.85143 2.0773 3.82314 2.08434 3.82124C2.11037 3.81447 2.16089 3.77726 2.16642 3.7768C2.21024 3.77386 2.02979 3.87356 2.04298 3.89654C2.0437 3.8971 2.07478 3.87506 2.07917 3.87512C2.09291 3.87523 2.08333 3.88875 2.09802 3.88804C2.13196 3.88626 2.22106 3.84026 2.18252 3.88968C2.17755 3.89614 2.07429 3.95126 2.09135 3.9692C2.09822 3.97632 2.11796 4.01317 2.13047 4.01913C2.14309 4.02534 2.17107 3.99883 2.17291 3.99872C2.23188 3.99981 2.24328 3.9788 2.31425 3.95346C2.38485 3.92801 2.23338 4.01625 2.22007 4.03193C2.20675 4.0475 2.2539 4.04551 2.26899 4.04267C2.28409 4.03987 2.30068 4.02124 2.31018 4.02117C2.37236 4.02085 2.24419 4.07967 2.22648 4.10376C2.18448 4.16061 2.30546 4.10856 2.32864 4.12097C2.33496 4.1244 2.30731 4.13616 2.30805 4.14239C2.31132 4.16686 2.35288 4.15632 2.33586 4.19798C2.33303 4.2047 2.27961 4.26548 2.33487 4.24489C2.3428 4.24186 2.36667 4.21931 2.37805 4.22323C2.39512 4.22911 2.41517 4.246 2.41513 4.26502C2.41499 4.27895 2.36362 4.29846 2.38545 4.30091C2.39517 4.30194 2.41415 4.2745 2.43022 4.27787C2.44618 4.2811 2.4624 4.30666 2.46823 4.31673C2.47397 4.32675 2.43732 4.34503 2.43562 4.34736C2.42615 4.36103 2.42312 4.39039 2.42435 4.392C2.47896 4.47654 2.58858 4.50799 2.63098 4.59678C2.63438 4.60374 2.59798 4.6266 2.59816 4.62794C2.60078 4.65965 2.67607 4.57225 2.71686 4.56223C2.648 4.61485 2.6669 4.61327 2.67103 4.63327C2.673 4.64298 2.6441 4.66064 2.64194 4.66343C2.61109 4.70611 2.66768 4.67123 2.6795 4.66438C2.72306 4.63933 2.68414 4.68399 2.71326 4.6672C2.74215 4.65051 2.77086 4.60898 2.78149 4.62258C2.76094 4.64632 2.69054 4.68855 2.68915 4.70727C2.68374 4.77819 2.79417 4.80757 2.82601 4.83265C2.85793 4.85806 2.86238 4.87125 2.88658 4.88092C2.93011 4.89798 2.87556 4.9276 2.87364 4.96577C2.87182 5.00394 2.97045 4.8929 2.99615 4.8738C3.01874 4.85684 3.005 4.87463 3.01234 4.87303C3.01332 4.87282 3.01467 4.87226 3.01652 4.87124C3.03226 4.86244 3.0413 4.84058 3.05321 4.84357C3.06494 4.84645 3.04429 4.90599 3.02389 4.93251C2.98029 4.98841 2.91832 5.03136 2.95855 5.0342C2.96086 5.03429 2.98381 5.00239 2.99128 5.00411C3.04947 5.01849 3.09097 5.05202 3.14736 5.06228C3.15507 5.06357 3.17671 5.02559 3.18145 5.02591C3.23054 5.02845 3.17453 5.0775 3.14669 5.15748C3.20537 5.06674 3.25391 5.02072 3.27838 5.03649C3.29345 5.04606 3.26489 5.08361 3.2571 5.11814C3.25483 5.1286 3.28337 5.10838 3.27366 5.12842C3.24236 5.19418 3.18826 5.25631 3.23533 5.24703C3.23742 5.24649 3.25361 5.20998 3.2593 5.21058C3.29596 5.21389 3.2619 5.28171 3.29108 5.30785C3.31417 5.32846 3.38118 5.30988 3.41349 5.31603C3.46305 5.20538 3.47718 5.24207 3.45601 5.32386C3.4763 5.32879 3.49557 5.34173 3.51816 5.33816C3.52595 5.33698 3.53454 5.30263 3.53672 5.29942C3.57024 5.24861 3.54919 5.32762 3.55231 5.33221C3.58639 5.37816 3.64305 5.33256 3.66674 5.40386C3.66753 5.4064 3.64394 5.48734 3.67452 5.43261C3.67654 5.4288 3.67436 5.3878 3.69531 5.39149C3.71656 5.39527 3.76757 5.36396 3.78403 5.40974C3.78792 5.42075 3.78542 5.49144 3.81467 5.4444C3.81857 5.43799 3.82349 5.41424 3.82993 5.40213C3.85051 5.36356 3.83095 5.44657 3.8614 5.38014C3.89193 5.31373 3.92737 5.26768 3.94132 5.32367C3.94178 5.32532 3.92975 5.39209 3.93886 5.3936C3.9532 5.3959 3.97699 5.3881 3.99172 5.39277C3.9986 5.39498 3.98264 5.434 3.98364 5.43508C4.02412 5.47107 4.06836 5.44479 4.12301 5.44358C4.13316 5.44331 4.14402 5.50588 4.17429 5.4676C4.20767 5.42578 4.24483 5.22232 4.27669 5.28265C4.2896 5.30684 4.23935 5.56409 4.3101 5.44405C4.33724 5.46941 4.36907 5.47011 4.40195 5.47277C4.40422 5.47316 4.40989 5.47646 4.41196 5.47747C4.44279 5.48902 4.47241 5.50131 4.48776 5.53931C4.48907 5.54261 4.459 5.60966 4.46565 5.61254C4.47564 5.61673 4.49808 5.59049 4.50564 5.59238C4.53762 5.59945 4.54819 5.63888 4.57767 5.64916C4.58877 5.65305 4.60119 5.61988 4.61408 5.62416C4.62669 5.62826 4.61514 5.67422 4.64151 5.66162C4.66172 5.65201 4.71092 5.57004 4.7293 5.56539C4.69563 5.65254 4.70744 5.65536 4.72052 5.68595C4.72311 5.69189 4.70817 5.72116 4.7089 5.72558C4.712 5.74433 4.72801 5.72116 4.7306 5.74103C4.73128 5.74582 4.72216 5.7764 4.72231 5.78207C4.72396 5.83174 4.76754 5.76879 4.77368 5.75732C4.79945 5.71465 4.79713 5.75654 4.81244 5.74048C4.82707 5.72422 4.81504 5.69819 4.82962 5.68936C4.85094 5.67609 4.87249 5.67697 4.89297 5.6784C4.89846 5.67833 4.90637 5.67858 4.91375 5.67822C4.92425 5.67788 4.91696 5.72045 4.91845 5.72139C4.94144 5.73228 4.96223 5.6863 4.9783 5.77057C4.98438 5.55063 4.99299 5.79139 5.02386 5.74543C5.02627 5.7417 5.02218 5.63798 5.01193 5.62339C5.0018 5.6088 4.98951 5.642 4.97571 5.61881C4.97214 5.61342 4.95238 5.5168 4.95045 5.51093C4.93335 5.4653 4.93291 5.62028 4.93182 5.62883C4.92109 5.7209 4.89983 5.61586 4.89552 5.60845C4.8945 5.60698 4.89349 5.60561 4.8925 5.60433C4.88116 5.57567 4.86123 5.59188 4.84818 5.56642C4.83934 5.54914 4.85971 5.44956 4.85218 5.45106C4.82879 5.45615 4.77319 5.58741 4.78782 5.46235C4.79126 5.43567 4.83576 5.33396 4.78754 5.40885C4.785 5.4138 4.73982 5.48161 4.75159 5.43152C4.75315 5.42524 4.76634 5.39569 4.76618 5.39265C4.765 5.37284 4.74838 5.39353 4.74403 5.37767C4.73982 5.36186 4.73694 5.33969 4.72049 5.34328C4.71074 5.34549 4.67227 5.39307 4.66138 5.40386C4.63013 5.43507 4.65407 5.36834 4.6217 5.40901C4.58864 5.44956 4.56224 5.5253 4.52665 5.54301C4.56918 5.47049 4.6121 5.39563 4.65474 5.32262C4.62124 5.30555 4.57616 5.30301 4.54044 5.28176C4.52601 5.27472 4.48639 5.25166 4.47056 5.24893C4.46556 5.24762 4.46065 5.24606 4.45584 5.24419C4.45005 5.24186 4.46931 5.20048 4.46343 5.19687C4.43862 5.18181 4.40618 5.2057 4.38202 5.18513C4.36374 5.16916 4.35334 5.11621 4.33437 5.09812C4.29407 5.18655 4.26949 5.14541 4.24343 5.14706C4.23434 5.14761 4.22766 5.17242 4.21935 5.17875C4.18816 5.20205 4.22223 5.12339 4.21972 5.10875C4.20904 5.04631 4.15395 5.23067 4.1242 5.21724C4.12258 5.21658 4.13085 5.1123 4.12988 5.10538C4.12362 5.06029 4.11715 5.13887 4.10405 5.14301C4.08013 5.15059 4.06004 5.17033 4.04475 5.1347C4.04033 5.12418 4.04206 5.05817 4.01528 5.1019C4.01175 5.10762 4.0033 5.14047 4.00136 5.14197C3.96693 5.16647 3.99607 5.064 3.99223 5.0253C3.98816 4.98655 3.94589 5.05073 3.93548 5.06974C3.90842 5.11889 3.93758 5.0948 3.93671 5.10015C3.92592 5.16372 3.91319 5.14848 3.89954 5.15004C3.86787 5.24958 3.85236 5.23838 3.88538 5.15121C3.88899 5.1417 3.89569 5.15387 3.89954 5.15004C3.91795 5.0486 3.90405 5.03073 3.85566 5.11603C3.83293 5.15597 3.82635 5.20877 3.80301 5.18142C3.79256 5.16907 3.81915 5.10205 3.81371 5.07975C3.80163 5.02897 3.74782 5.08183 3.72509 5.06271C3.71698 5.05582 3.73905 5.02183 3.73405 5.01587C3.72112 5.00001 3.69635 5.02247 3.68531 5.00219C3.68435 5.00031 3.70232 4.96304 3.69756 4.9607C3.6618 4.94211 3.6204 4.95381 3.58335 4.93794C3.56525 4.93023 3.5449 4.89517 3.52614 4.89047C3.49384 4.8825 3.42778 4.9134 3.41084 4.88516C3.40015 4.86717 3.42632 4.83494 3.43563 4.80743C3.45467 4.75479 3.3783 4.82 3.3659 4.82956C3.36544 4.82987 3.3727 4.84711 3.35336 4.85924C3.32332 4.89192 3.36588 4.82978 3.3659 4.82956C3.35831 4.83623 3.32689 4.82414 3.32691 4.81394C3.32688 4.80842 3.35271 4.77906 3.35229 4.7768C3.34196 4.72382 3.32001 4.69078 3.27681 4.67359C3.27573 4.67362 3.24572 4.70538 3.24352 4.70503C3.22566 4.70268 3.22611 4.68558 3.23177 4.66479C3.23521 4.64771 3.2416 4.62832 3.24432 4.61102C3.25051 4.57132 3.22995 4.56477 3.16485 4.60479C3.15929 4.58486 3.11674 4.5874 3.09157 4.58951C3.0663 4.59154 3.12813 4.53311 3.1285 4.53101C3.14084 4.46412 3.08889 4.47875 3.05481 4.45077C3.03868 4.4378 3.0218 4.39869 3.01498 4.37583C3.00955 4.35753 2.98761 4.3622 2.98733 4.34167C2.98728 4.33891 3.01804 4.31673 3.01875 4.3153C3.04274 4.27298 2.97619 4.33784 2.961 4.34535C2.90567 4.37249 2.87544 4.38602 2.88297 4.35003C2.8846 4.34166 2.97963 4.24698 2.98006 4.23487C2.98027 4.21907 2.94546 4.25211 2.94658 4.23468C2.94664 4.23321 2.97008 4.21536 2.96413 4.20979C2.93708 4.18399 2.89895 4.16185 2.87822 4.12855C2.87535 4.12415 2.91702 4.10194 2.91353 4.09516C2.89701 4.0632 2.87304 4.03258 2.83504 4.01631C2.82561 4.01246 2.80182 4.03555 2.79278 4.03957C2.73788 4.06363 2.79873 4.00138 2.79859 3.99829C2.79643 3.92255 2.70438 3.92355 2.69967 3.84801C2.69942 3.84362 2.76207 3.77149 2.68914 3.80303C2.6843 3.80515 2.60966 3.8374 2.65044 3.79896C2.653 3.79657 2.69215 3.78119 2.6815 3.77205C2.67074 3.76273 2.68336 3.7306 2.63493 3.73849C2.61975 3.7411 2.54372 3.77037 2.58956 3.72263C2.59271 3.71925 2.70305 3.62233 2.61252 3.66509C2.59764 3.67216 2.50771 3.72736 2.54354 3.68169C2.55056 3.67296 2.57445 3.66716 2.58184 3.65076C2.59332 3.62564 2.55816 3.62148 2.58885 3.58067C2.59426 3.57341 2.64923 3.52542 2.59631 3.54235C2.58802 3.545 2.55919 3.56552 2.55269 3.5621C2.52152 3.54567 2.52692 3.50727 2.49097 3.49276C2.47827 3.48752 2.43117 3.51997 2.41232 3.51743C2.39336 3.51468 2.3698 3.50226 2.38694 3.47934C2.40415 3.45654 2.48995 3.42438 2.48797 3.40554C2.47969 3.32424 2.39753 3.28229 2.35585 3.21779C2.34966 3.2082 2.38285 3.20185 2.37582 3.18666C2.34994 3.13069 2.33046 3.02237 2.24498 3.00365C2.17655 2.98885 2.16215 3.056 2.12755 3.03591C2.11092 3.02604 2.19861 2.96484 2.19996 2.95993C2.20214 2.9524 2.20271 2.94594 2.20211 2.94024C2.19844 2.90828 2.15966 2.90011 2.15795 2.86818C2.15754 2.86038 2.19922 2.84848 2.19845 2.84204C2.19617 2.81991 2.16952 2.80823 2.16416 2.78875C2.16185 2.77997 2.19206 2.76749 2.18628 2.76115C2.17287 2.74604 2.15271 2.73554 2.11679 2.73118C2.11351 2.73077 2.08189 2.75893 2.07423 2.74626C2.06193 2.7257 2.02203 2.71198 2.03862 2.67412C2.04366 2.66283 2.11099 2.63064 2.05702 2.63706C2.04574 2.63839 1.96668 2.68084 2.02812 2.62961C2.0384 2.62125 2.11805 2.54535 2.05004 2.55899C2.03212 2.56255 1.96099 2.58365 1.96724 2.56992C1.96834 2.56793 2.00685 2.5556 2.00694 2.54663C2.00662 2.51531 1.99009 2.49032 1.98912 2.45884C1.98894 2.45041 2.03135 2.44309 2.02988 2.43108C2.0256 2.39743 1.99892 2.36562 1.9739 2.34299C1.9646 2.33468 1.9369 2.35651 1.93316 2.35735C1.87241 2.37112 1.94331 2.32896 1.94575 2.32291C1.95994 2.28578 1.91604 2.28307 1.91422 2.25526C1.91364 2.24766 1.95121 2.23555 1.95376 2.23278C1.97836 2.20496 1.91942 2.24481 1.90845 2.23969C1.87751 2.22549 1.86808 2.19805 1.86155 2.17241C1.8592 2.16297 1.90484 2.15335 1.90226 2.14511C1.88781 2.09601 1.86077 2.04867 1.8172 2.01475C1.80891 2.00836 1.77976 2.02851 1.77171 2.03015C1.71547 2.04178 1.77614 1.99175 1.78069 1.98436C1.8018 1.95134 1.77039 1.95715 1.76782 1.93809C1.75613 1.8455 1.69072 1.75406 1.6437 1.68328C1.58247 1.59064 1.51643 1.52767 1.4801 1.42907C1.47774 1.42279 1.52275 1.40931 1.52125 1.40364C1.5004 1.3322 1.4528 1.27278 1.43439 1.20104C1.4328 1.19517 1.47646 1.18457 1.4752 1.17441C1.47271 1.15308 1.45981 1.13089 1.43857 1.11848C1.42828 1.11239 1.39948 1.14024 1.38984 1.13378C1.36719 1.11859 1.35454 1.09868 1.35061 1.0733C1.34914 1.0627 1.39655 1.05784 1.39145 1.04554C1.35791 0.962145 1.32878 0.880215 1.23772 0.821534C1.2315 0.817579 1.14591 0.850752 1.15646 0.831574C1.17918 0.820106 1.2064 0.807714 1.23094 0.796021C1.19013 0.671556 1.10804 0.567701 1.05043 0.451349C1.04803 0.44649 1.09615 0.435137 1.09175 0.425652C1.06622 0.370497 1.05386 0.309748 0.985193 0.27364C0.978449 0.270039 0.901459 0.307137 0.905777 0.284882C0.90656 0.280822 0.90596 0.251119 0.920253 0.237521C0.922444 0.235551 0.960895 0.223982 0.958547 0.215714C0.943198 0.165496 0.914385 0.1218 0.87241 0.0849294C0.865637 0.0791699 0.829786 0.103425 0.824624 0.0994662C0.788194 0.0709617 0.801495 0.0184781 0.754072 0.0019248C0.722661 -0.00813465 0.656243 0.0237801 0.584586 0.037666C0.574106 0.0386479 0.569677 0.0298287 0.529414 0.0416011C0.426608 0.0663627 0.317872 0.107192 0.208317 0.13373C0.186452 0.159304 0.190224 0.0201576 0.144982 0.112406C0.14358 0.129256 0.135942 0.17234 0.119111 0.184092C0.107813 0.193782 0.0638705 0.19699 0.0509665 0.214051C0.0374796 0.229149 0.0740974 0.225417 0.0595542 0.245906C0.0449674 0.266836 -0.00330269 0.276742 0.000162588 0.301976ZM2.97797 4.59718C2.93764 4.61314 3.04881 4.51309 3.03211 4.5483C3.03117 4.55012 2.97997 4.59642 2.97797 4.59718ZM4.50417 5.39692C4.45221 5.44187 4.4945 5.35359 4.53343 5.31819C4.5721 5.28266 4.51977 5.3832 4.50417 5.39692ZM4.64337 5.53534C4.60007 5.57142 4.69798 5.38327 4.69556 5.4304C4.69544 5.43306 4.64582 5.5332 4.64337 5.53534ZM0.586267 0.10061C0.584278 0.100997 0.578687 0.0920894 0.580232 0.0906186C0.62235 0.0679443 0.633855 0.086696 0.586267 0.10061ZM4.79452 5.65007C4.7809 5.67633 4.77099 5.6392 4.78844 5.60702C4.80173 5.581 4.81053 5.61728 4.79452 5.65007ZM2.39028 4.08186C2.38829 4.08288 2.38193 4.07673 2.39261 4.07005C2.42703 4.04857 2.42386 4.06476 2.39028 4.08186ZM5.11616 5.65766C5.0676 5.67031 5.05043 5.84744 5.10523 5.8228C5.11499 5.81832 5.07841 5.76913 5.08985 5.75224C5.11043 5.7215 5.1364 5.82947 5.15437 5.76852C5.15759 5.75737 5.11888 5.65656 5.11605 5.65743C5.11609 5.65751 5.11612 5.65759 5.11616 5.65766ZM2.83738 4.70931C2.83568 4.71037 2.82636 4.70258 2.82766 4.70108C2.8592 4.66501 2.87783 4.68054 2.83738 4.70931ZM2.05117 3.69229C2.04716 3.69377 2.03025 3.6711 2.03322 3.6684C2.09443 3.61853 2.12855 3.66381 2.05117 3.69229ZM3.41528 5.31329C3.40825 5.36253 3.42228 5.37477 3.45593 5.3239C3.44199 5.32142 3.4291 5.3163 3.41528 5.31329Z" fill="#397C57"/>
</svg>
