<svg width="9" height="11" viewBox="0 0 9 11" fill="none" xmlns="http://www.w3.org/2000/svg">
<path d="M0.307309 0.000634638C0.391116 0.0167127 0.488969 0.0685142 0.559022 0.116752C0.580959 0.131783 0.558999 0.151605 0.573663 0.16311C0.602537 0.185681 0.637132 0.185632 0.664438 0.210078C0.67341 0.218292 0.644352 0.251751 0.654089 0.259465C0.707239 0.301357 0.768099 0.315423 0.824741 0.349623C1.10429 0.518593 1.37973 0.66972 1.65696 0.836542C1.74856 0.891588 1.84385 0.986205 1.94764 1.02462C1.95978 1.02907 1.97096 0.993141 1.97456 0.991662C2.03062 0.969574 1.98339 1.02846 2.00042 1.04925C2.06754 1.13132 2.16122 1.18864 2.25025 1.22396C2.28828 1.23897 2.29007 1.1553 2.30464 1.21137C2.30569 1.2152 2.27707 1.2438 2.28456 1.253C2.30167 1.27386 2.34593 1.29179 2.36117 1.30443C2.3903 1.32885 2.39596 1.33176 2.42601 1.35022C2.46703 1.37583 2.50645 1.42231 2.55526 1.44167C2.56578 1.44573 2.57409 1.40381 2.59279 1.40722C2.61152 1.41065 2.64982 1.43812 2.65823 1.45443C2.66671 1.47077 2.64443 1.49407 2.64301 1.50169C2.63043 1.56557 2.72102 1.52238 2.72804 1.52431C2.85472 1.56132 2.92115 1.66066 3.02108 1.72523C3.09703 1.77419 3.18652 1.81406 3.25711 1.86379C3.25857 1.86482 3.26003 1.86586 3.26147 1.8669C3.34304 1.92537 3.40163 1.98988 3.48447 2.04157C3.49337 2.04718 3.50964 2.00123 3.52056 2.00801C3.63622 2.07982 3.74505 2.16094 3.83813 2.26558C3.84736 2.27606 3.80919 2.2998 3.81696 2.31227C3.86593 2.38836 3.92349 2.5308 4.0702 2.41498C4.1119 2.45427 4.16302 2.50143 4.18157 2.56104C4.19351 2.59942 4.14094 2.61616 4.18451 2.62509C4.19431 2.62716 4.20888 2.58859 4.22179 2.59411C4.27616 2.61738 4.31775 2.66589 4.37499 2.68508C4.38669 2.68891 4.40617 2.65919 4.41271 2.65623C4.46655 2.63296 4.44938 2.72854 4.45318 2.73958C4.48341 2.82332 4.53767 2.84442 4.59121 2.89079C4.60363 2.9016 4.61931 2.85266 4.6324 2.86179C4.69996 2.90975 4.76206 2.9689 4.80837 3.03831C4.81862 3.05386 4.77933 3.07312 4.78283 3.08209C4.79841 3.12115 4.85555 3.06966 4.87142 3.10631C4.8748 3.11396 4.84831 3.13674 4.84678 3.14049C4.82261 3.19928 4.89366 3.1495 4.89909 3.15195C4.96835 3.18086 4.94139 3.27676 4.99888 3.31421C5.00588 3.3187 5.02282 3.27421 5.0407 3.28883C5.15977 3.38584 5.26587 3.50956 5.34443 3.64283C5.35667 3.6635 5.32127 3.67413 5.31935 3.678C5.28983 3.73905 5.36222 3.69182 5.36987 3.69525C5.42802 3.72323 5.41367 3.81268 5.5161 3.77443C5.66205 3.98517 5.87218 4.14191 5.96204 4.39339C5.96325 4.39652 5.92731 4.41879 5.92987 4.42489C5.96026 4.49883 6.00173 4.44681 6.09539 4.43563C6.11892 4.43285 6.06874 4.52359 6.06541 4.53069C6.0531 4.55676 5.99648 4.58587 5.99521 4.59229C5.98625 4.64403 6.14304 4.51008 6.17296 4.54721C6.17363 4.54859 6.14012 4.56746 6.13969 4.57294C6.13946 4.57553 6.13972 4.57773 6.14031 4.57966C6.14393 4.59088 6.15791 4.59377 6.15578 4.60906C6.1499 4.65085 6.07518 4.71774 6.14721 4.71764C6.1565 4.71772 6.24647 4.64203 6.26801 4.68236C6.27651 4.69796 6.32226 4.76381 6.32706 4.7868C6.33218 4.80961 6.29208 4.81628 6.29154 4.81852C6.27902 4.89425 6.24974 4.88586 6.19974 4.94667C6.14904 5.0063 6.29827 4.91425 6.32117 4.91522C6.34418 4.91635 6.32788 4.97352 6.31956 4.98894C6.31144 5.00452 6.28436 5.00405 6.28119 5.0157C6.25995 5.09179 6.37088 5.00082 6.40485 5.00707C6.48569 5.02374 6.38243 5.1121 6.38638 5.15557C6.38754 5.16761 6.41144 5.14772 6.4179 5.15638C6.44312 5.19133 6.41364 5.2281 6.46415 5.26021C6.47229 5.26506 6.55893 5.27757 6.51172 5.31897C6.50487 5.32478 6.47104 5.32504 6.46931 5.34394C6.46668 5.37202 6.47273 5.41851 6.49039 5.44283C6.50341 5.46055 6.54895 5.42402 6.53957 5.45353C6.53531 5.4666 6.49974 5.45378 6.49419 5.47749C6.4887 5.50104 6.50277 5.55393 6.50823 5.57385C6.51382 5.59384 6.55088 5.57404 6.5539 5.57507C6.57142 5.58159 6.59903 5.61772 6.5996 5.62102C6.64077 5.79772 6.59545 5.97061 6.6379 6.13751C6.64115 6.15057 6.68253 6.1368 6.68346 6.13874C6.70651 6.18244 6.58961 6.15935 6.55548 6.19548C6.64104 6.18113 6.62762 6.20176 6.64063 6.23335C6.64693 6.24817 6.67936 6.2362 6.68293 6.23722C6.73606 6.25457 6.67234 6.27772 6.65939 6.28324C6.61176 6.30368 6.67169 6.31427 6.63986 6.3282C6.60827 6.34207 6.55734 6.323 6.56117 6.35411C6.5929 6.35947 6.67118 6.32853 6.68663 6.35036C6.7452 6.43369 6.69777 6.60524 6.69798 6.67669C6.69825 6.74853 6.70605 6.76982 6.69896 6.81277C6.68606 6.88933 6.74319 6.85571 6.77513 6.89921C6.80712 6.94293 6.65768 6.93505 6.6267 6.94489C6.59573 6.95465 6.62901 6.95864 6.61245 6.96866C6.59589 6.97863 6.57259 6.963 6.568 6.98295C6.56335 7.00234 6.62492 7.04871 6.65871 7.05214C6.73028 7.05931 6.80136 7.028 6.78079 7.08149C6.77957 7.08459 6.73988 7.07909 6.73715 7.09074C6.71647 7.18116 6.72467 7.27337 6.70854 7.36451C6.70628 7.37717 6.66202 7.3712 6.66022 7.37864C6.64137 7.45582 6.71071 7.4204 6.79596 7.45082C6.68781 7.45475 6.62483 7.48446 6.63118 7.54115C6.63502 7.57549 6.68098 7.56321 6.71663 7.5806C6.72736 7.58574 6.69827 7.61334 6.7208 7.61482C6.79446 7.61974 6.87195 7.58703 6.84737 7.64842C6.84618 7.65114 6.80582 7.64824 6.80458 7.65728C6.79652 7.7164 6.87232 7.71178 6.88967 7.77076C6.90331 7.81736 6.86948 7.90728 6.87011 7.9623C6.74994 7.97881 6.78518 8.02666 6.87101 8.03466C6.87287 8.0695 6.88338 8.10622 6.87736 8.14193C6.87533 8.15422 6.83943 8.15208 6.83592 8.15415C6.78077 8.18621 6.86359 8.18876 6.86798 8.19587C6.87008 8.19959 6.87198 8.20332 6.87368 8.20706C6.9054 8.27838 6.86597 8.35138 6.93958 8.40757C6.94241 8.40977 7.02477 8.39214 6.97057 8.42719C6.96686 8.42967 6.9232 8.41549 6.92985 8.45074C6.93625 8.48543 6.91403 8.56531 6.96827 8.59962C6.98132 8.6081 7.05566 8.61172 7.01488 8.65366C7.00935 8.65937 6.98557 8.66496 6.97485 8.67438C6.94096 8.70498 7.02287 8.68035 6.96313 8.72497C6.90342 8.76961 6.86993 8.82931 6.93789 8.85665C6.93995 8.85763 7.00625 8.84009 7.01238 8.85526C7.02198 8.8793 7.02618 8.91908 7.03918 8.94307C7.04546 8.95461 7.07872 8.92776 7.08045 8.92942C7.14159 8.99524 7.13924 9.06676 7.17434 9.15601C7.18086 9.17268 7.2552 9.18418 7.23495 9.23624C7.21321 9.29374 7.01949 9.37368 7.10846 9.41983C7.14492 9.43933 7.38455 9.32805 7.30811 9.45494C7.40384 9.53364 7.41338 9.66325 7.52425 9.72979C7.52921 9.7328 7.59739 9.70204 7.60431 9.71267C7.61426 9.72827 7.59357 9.75717 7.59998 9.76911C7.62632 9.81986 7.68085 9.84208 7.71068 9.88686C7.72122 9.90252 7.69519 9.91754 7.70147 9.93574C7.70231 9.93766 7.70319 9.93932 7.70438 9.941C7.71872 9.96105 7.76455 9.9435 7.76892 9.98314C7.77209 10.0132 7.71655 10.0939 7.73033 10.1267C7.80175 10.0664 7.81525 10.0849 7.86058 10.0991C7.86929 10.1018 7.88822 10.0741 7.8936 10.0742C7.91605 10.0743 7.90496 10.1025 7.92805 10.101C7.93363 10.1007 7.95759 10.0796 7.96348 10.0781C8.01433 10.0646 7.98711 10.1417 7.98241 10.1552C7.96459 10.2063 8.00355 10.1874 8.00315 10.2148C8.00276 10.2421 7.96538 10.2358 7.97273 10.2607C7.98811 10.3124 8.03426 10.3547 8.06673 10.3917C8.07984 10.4064 8.10188 10.3675 8.10448 10.3689C8.14001 10.3912 8.13496 10.4521 8.21227 10.4105C8.07137 10.5811 8.24451 10.4138 8.25211 10.4862C8.25263 10.4919 8.18092 10.5671 8.15778 10.5647C8.13469 10.5623 8.14021 10.5208 8.1062 10.5193C8.09822 10.5189 8.00461 10.5612 7.99723 10.5619C7.93935 10.5674 8.04927 10.4579 8.05423 10.4507C8.10699 10.3726 8.00281 10.4144 7.9902 10.4114C7.93262 10.3981 7.92045 10.3527 7.8753 10.3383C7.8459 10.3287 7.76888 10.395 7.75683 10.377C7.71669 10.3171 7.80671 10.2051 7.67036 10.236C7.64124 10.2425 7.56688 10.3263 7.59882 10.2299C7.60076 10.2238 7.63631 10.1428 7.58368 10.1589C7.57704 10.1609 7.5525 10.182 7.54805 10.181C7.51857 10.1735 7.52764 10.1444 7.50099 10.1319C7.49433 10.1288 7.48714 10.1256 7.47991 10.1221C7.45393 10.1056 7.4326 10.0921 7.42497 10.0692C7.41891 10.051 7.45142 9.99482 7.45772 9.97893C7.47596 9.93332 7.40488 9.95552 7.43602 9.91166C7.46749 9.8678 7.54783 9.84321 7.54985 9.7912C7.48244 9.84143 7.41206 9.89146 7.34364 9.94118C7.29131 9.86849 7.26006 9.7818 7.20402 9.71108C7.19696 9.70229 7.16717 9.73818 7.15864 9.72941C7.12297 9.6924 7.12337 9.63743 7.08245 9.60103C7.05083 9.57323 6.98555 9.56239 6.95117 9.5324C7.01644 9.45692 6.95413 9.42124 6.93642 9.37632C6.93019 9.36065 6.95259 9.348 6.95356 9.33368C6.95698 9.28019 6.89523 9.34193 6.87742 9.33848C6.80105 9.32254 6.96374 9.21991 6.92968 9.17037C6.92796 9.16785 6.81897 9.18346 6.81062 9.18147C6.757 9.17057 6.839 9.15909 6.83498 9.13603C6.82779 9.09388 6.83653 9.05818 6.78838 9.02964C6.77418 9.02134 6.7018 9.01933 6.73449 8.97293C6.73879 8.96689 6.77025 8.95412 6.77082 8.95068C6.77893 8.89022 6.68173 8.93323 6.63616 8.91963C6.59048 8.90572 6.63975 8.8326 6.656 8.81606C6.69747 8.77237 6.68488 8.82497 6.6904 8.82405C6.7555 8.81384 6.73245 8.78737 6.72816 8.76162C6.82385 8.71976 6.80584 8.6904 6.72346 8.73525C6.71449 8.74027 6.7307 8.75514 6.72816 8.76162C6.6248 8.77894 6.59689 8.74288 6.67289 8.66974C6.70874 8.63566 6.76408 8.63734 6.72723 8.58576C6.71076 8.56213 6.64527 8.59377 6.61915 8.57505C6.55933 8.53146 6.60539 8.44016 6.58346 8.38445C6.57539 8.36381 6.54099 8.39248 6.53413 8.3784C6.51583 8.34048 6.53904 8.30049 6.51842 8.26263C6.51666 8.25944 6.48323 8.27159 6.47595 8.26383C6.47647 8.27106 6.47602 8.27032 6.47583 8.2694C6.45721 8.18457 6.47245 8.11103 6.4599 8.02175C6.45389 7.97923 6.42073 7.90842 6.41905 7.863C6.41607 7.78622 6.46311 7.68474 6.4406 7.62253C6.4261 7.58203 6.38639 7.59643 6.35623 7.58148C6.29775 7.55245 6.38713 7.47895 6.40118 7.46911C6.40164 7.46878 6.4156 7.5037 6.4343 7.48194C6.47674 7.46554 6.40142 7.4695 6.40118 7.46911C6.41024 7.4629 6.411 7.38888 6.40155 7.37529C6.39638 7.36793 6.35808 7.37675 6.35612 7.37283C6.31041 7.28049 6.29006 7.18404 6.29805 7.08309C6.29866 7.08128 6.34238 7.07942 6.34326 7.07522C6.3568 7.01679 6.30001 6.98576 6.26379 6.94183C6.22763 6.89836 6.23462 6.86045 6.30655 6.82526C6.29371 6.79057 6.322 6.73843 6.33916 6.7067C6.35639 6.67565 6.27138 6.67984 6.26946 6.67744C6.2084 6.60447 6.25236 6.55294 6.25184 6.47092C6.25171 6.43152 6.23166 6.3566 6.21794 6.31612C6.20703 6.28459 6.22465 6.26251 6.2086 6.23381C6.20645 6.22994 6.16929 6.2383 6.16771 6.23722C6.11892 6.20911 6.21268 6.21459 6.22832 6.20581C6.28516 6.17419 6.31515 6.15466 6.28179 6.11508C6.27413 6.10584 6.13837 6.09431 6.12839 6.07819C6.11556 6.05646 6.16406 6.05881 6.14936 6.0364C6.14814 6.0345 6.11901 6.03885 6.11828 6.02411C6.11459 5.95621 6.12017 5.88012 6.10502 5.81318C6.10307 5.8041 6.05921 5.8241 6.05565 5.81127C6.03877 5.74991 6.02679 5.68474 6.03397 5.62252C6.03586 5.60711 6.0698 5.60803 6.07847 5.60261C6.1307 5.56893 6.04092 5.56373 6.03824 5.56015C5.97094 5.46997 6.01878 5.37028 5.94373 5.28884C5.93929 5.2838 5.83933 5.28492 5.90193 5.23442C5.90621 5.23125 5.9697 5.17813 5.91298 5.18802C5.90947 5.18874 5.87795 5.2178 5.87249 5.19811C5.86678 5.17801 5.82771 5.16413 5.85278 5.11727C5.86084 5.10274 5.91794 5.04191 5.84924 5.05303C5.84407 5.05304 5.70204 5.09981 5.77643 5.03237C5.78862 5.02122 5.87692 4.96303 5.81351 4.96719C5.80134 4.96824 5.7888 4.99105 5.76738 4.98652C5.7363 4.98043 5.7374 4.94103 5.68883 4.94189C5.68628 4.94171 5.68362 4.94162 5.68084 4.94163C5.67026 4.94173 5.59727 4.96521 5.62583 4.91409C5.6303 4.90608 5.66179 4.88902 5.65758 4.87754C5.63784 4.82304 5.58332 4.79347 5.5666 4.73487C5.56069 4.71424 5.611 4.68576 5.60969 4.66023C5.60854 4.63489 5.59299 4.59322 5.55904 4.5932C5.52518 4.59329 5.4707 4.66955 5.44449 4.64958C5.33093 4.56329 5.28157 4.4245 5.19482 4.31545C5.18203 4.29938 5.1691 4.33362 5.14861 4.31166C5.07231 4.22957 4.92037 4.11085 4.90342 3.99439C4.88903 3.9 4.98756 3.94134 4.96209 3.88271C4.94956 3.8544 4.85263 3.90626 4.84555 3.9038C4.77427 3.87951 4.77497 3.81427 4.72137 3.78176C4.71038 3.77517 4.6892 3.81426 4.68021 3.80835C4.64931 3.78852 4.63556 3.74872 4.60808 3.72733C4.59576 3.71787 4.57531 3.7435 4.56681 3.73195C4.54633 3.70474 4.53376 3.67413 4.5303 3.62916C4.52996 3.62505 4.5726 3.60919 4.5551 3.5909C4.52697 3.56165 4.50927 3.5046 4.45353 3.49652C4.43689 3.49421 4.38686 3.54955 4.39873 3.49114C4.4012 3.47895 4.46657 3.41708 4.38908 3.45197C4.37603 3.45757 4.26377 3.49809 4.28609 3.42853C4.29197 3.41021 4.32501 3.3419 4.30471 3.33974C4.3018 3.33967 4.28268 3.37605 4.26961 3.37005C4.22383 3.34823 4.18748 3.3122 4.1406 3.28989C4.12807 3.28403 4.11711 3.32872 4.09933 3.31902C4.05051 3.29248 4.00396 3.2415 3.96983 3.19806C3.9573 3.18198 3.98931 3.16346 3.9905 3.15964C4.00979 3.0974 3.9482 3.15348 3.93923 3.15254C3.88382 3.14568 3.87852 3.09295 3.83695 3.07412C3.82555 3.06887 3.80878 3.10529 3.80473 3.1066C3.76407 3.11855 3.8215 3.07388 3.81345 3.05805C3.79101 3.01355 3.74871 2.98589 3.70919 2.96296C3.6946 2.95456 3.68279 3.00224 3.67003 2.99431C3.59396 2.94801 3.52187 2.89081 3.46474 2.81978C3.45414 2.80643 3.48271 2.78382 3.48453 2.77532C3.49744 2.71606 3.42507 2.75835 3.41437 2.75972C3.3654 2.76589 3.37176 2.73266 3.34203 2.71905C3.1968 2.65314 3.04646 2.52688 2.92843 2.43284C2.9186 2.42502 2.90891 2.41722 2.89934 2.40944C2.7622 2.29753 2.65786 2.19559 2.50744 2.10997C2.49729 2.10415 2.48244 2.14977 2.47335 2.14525C2.35722 2.08521 2.25764 2.00242 2.13912 1.94673C2.12942 1.94208 2.1199 1.98779 2.1036 1.98163C2.07 1.96925 2.03337 1.9446 2.00983 1.91431C1.99837 1.89965 2.03766 1.87895 2.0257 1.86484C1.99792 1.83194 1.96189 1.80716 1.92214 1.79223C1.90523 1.786 1.90572 1.83842 1.88555 1.8273C1.74743 1.75235 1.61006 1.68406 1.49857 1.55729C1.49094 1.5486 1.52623 1.46352 1.49727 1.46789C1.48368 1.48945 1.4696 1.51584 1.45606 1.53942C1.24811 1.44431 1.06218 1.31414 0.857955 1.21201C0.849385 1.20774 0.843556 1.25868 0.826911 1.25067C0.730112 1.20421 0.630751 1.17368 0.550055 1.08574C0.542049 1.07711 0.581227 1.00098 0.546433 0.999976C0.540214 0.999823 0.491359 0.991242 0.472657 1.00348C0.470003 1.00539 0.462535 1.04552 0.447738 1.04051C0.362575 1.01098 0.278929 0.967095 0.204534 0.912071C0.192423 0.903072 0.222234 0.869101 0.213708 0.862339C0.15317 0.814698 0.0675045 0.817295 0.0144567 0.757581C-0.0207861 0.717597 0.0195569 0.654039 0.0193209 0.577459C0.01923 0.566624 -0.00827845 0.555459 0.00383592 0.515202C0.0341313 0.413874 0.085546 0.309156 0.116253 0.200607C0.122853 0.177196 0.0749383 0.18855 0.11717 0.140954C0.120045 0.13777 0.155191 0.129212 0.168885 0.112915C0.178377 0.101645 0.183279 0.0581171 0.199298 0.0450297C0.215349 0.0319767 0.214903 0.0697496 0.238783 0.0562252C0.262591 0.0424293 0.271321 -0.00610715 0.307309 0.000634638ZM6.41614 6.568C6.45418 6.53723 6.30495 6.54778 6.34337 6.57326C6.3454 6.57448 6.41428 6.56958 6.41614 6.568ZM7.35131 9.71467C7.38281 9.64649 7.29036 9.68437 7.26436 9.735C7.23867 9.78591 7.34183 9.73543 7.35131 9.71467ZM7.61495 9.9774C7.62989 9.91264 7.45956 10.0391 7.52104 10.0476C7.52457 10.0481 7.61411 9.98119 7.61495 9.9774ZM0.137877 0.597792C0.138205 0.59579 0.118598 0.586619 0.117454 0.588306C0.0905989 0.629091 0.129548 0.647295 0.137877 0.597792ZM7.89502 10.2212C7.90767 10.1924 7.85833 10.1869 7.84241 10.2226C7.82965 10.2514 7.87929 10.2571 7.89502 10.2212ZM6.31917 5.18408C6.3211 5.18286 6.31707 5.16776 6.30555 5.17289C6.2685 5.18939 6.28702 5.20452 6.31917 5.18408ZM8.31578 10.6711C8.25997 10.5994 8.34995 10.4392 8.40335 10.5254C8.41298 10.5409 8.33605 10.5351 8.34011 10.5626C8.34751 10.6127 8.44706 10.5583 8.4329 10.6297C8.43016 10.6426 8.31871 10.6755 8.31549 10.6711C8.31559 10.6711 8.31568 10.6711 8.31578 10.6711ZM6.59343 6.5352C6.59534 6.53446 6.59512 6.51281 6.59312 6.5125C6.54474 6.5055 6.54515 6.54906 6.59343 6.5352ZM5.89382 4.37513C5.89627 4.37145 5.86675 4.32989 5.86274 4.33118C5.7863 4.36073 5.84544 4.44446 5.89382 4.37513ZM6.86703 7.96363C6.91772 7.97979 6.92753 8.00707 6.87106 8.03455C6.87068 8.01103 6.86757 7.98724 6.86703 7.96363Z" fill="#963076"/>
</svg>
