<svg width="3" height="11" viewBox="0 0 3 11" fill="none" xmlns="http://www.w3.org/2000/svg">
<path d="M2.37569 0.46992C2.35339 0.526503 2.29878 0.584281 2.25067 0.623833C2.23558 0.636342 2.21839 0.614071 2.20696 0.622108C2.18463 0.637879 2.18299 0.66472 2.15931 0.679274C2.15135 0.68404 2.12131 0.652942 2.11377 0.658478C2.07268 0.688964 2.0578 0.733272 2.02501 0.769912C1.86318 0.950849 1.73354 1.14899 1.606 1.35627C1.56408 1.42435 1.48658 1.49523 1.46608 1.57736C1.46372 1.58696 1.49949 1.59753 1.50145 1.60049C1.53121 1.64632 1.46803 1.6059 1.45107 1.61876C1.3841 1.6696 1.34632 1.74493 1.33066 1.81654C1.32407 1.84715 1.40344 1.84808 1.35353 1.85998C1.35013 1.86085 1.31729 1.8382 1.31012 1.84428C1.29392 1.8581 1.28619 1.89413 1.27764 1.90651C1.26095 1.93029 1.25944 1.93497 1.24872 1.95973C1.23376 1.99351 1.19938 2.02669 1.19304 2.06697C1.1918 2.07558 1.23321 2.07989 1.23465 2.09488C1.23606 2.10988 1.22008 2.14164 1.20699 2.14941C1.19388 2.15718 1.16626 2.14117 1.15875 2.14057C1.09546 2.1352 1.1599 2.20386 1.16007 2.20946C1.15986 2.31207 1.08723 2.37362 1.05876 2.4598C1.03723 2.52534 1.03043 2.59994 1.00972 2.66178C0.984991 2.73518 0.946219 2.79294 0.930571 2.86711C0.928885 2.87492 0.976872 2.87785 0.974926 2.88735C0.954333 2.98801 0.92615 3.08532 0.874111 3.17923C0.868858 3.18863 0.831 3.16723 0.82332 3.17618C0.77708 3.23062 0.678034 3.31739 0.849675 3.3847C0.835566 3.42547 0.820494 3.47465 0.779037 3.50746C0.752373 3.52857 0.711086 3.49842 0.72589 3.53135C0.729193 3.53875 0.769547 3.53536 0.771557 3.54597C0.780027 3.59039 0.761433 3.63569 0.777021 3.68014C0.780286 3.68917 0.815737 3.69071 0.821807 3.69382C0.870895 3.71942 0.78262 3.74413 0.775724 3.75118C0.724222 3.80341 0.738985 3.84657 0.734298 3.89941C0.733211 3.91166 0.781604 3.90032 0.782277 3.91212C0.785175 3.97301 0.778301 4.03552 0.755768 4.09429C0.750645 4.10744 0.710441 4.09427 0.705923 4.10056C0.68654 4.12858 0.76294 4.13604 0.746129 4.16256C0.742693 4.16818 0.708048 4.1647 0.70423 4.16571C0.644311 4.18164 0.729 4.19625 0.730868 4.20029C0.756456 4.25248 0.668568 4.28767 0.682616 4.33886C0.68413 4.34402 0.715818 4.33383 0.726642 4.34119C0.728532 4.34241 0.729785 4.34413 0.730132 4.34654C0.745981 4.45586 0.745826 4.57596 0.725716 4.69427C0.72268 4.71281 0.688344 4.70434 0.684458 4.70597C0.623958 4.73298 0.709823 4.73309 0.713782 4.73844C0.742798 4.78068 0.67862 4.83405 0.783542 4.84983C0.778525 5.04836 0.87072 5.23069 0.8195 5.44113C0.818949 5.44378 0.776981 5.44747 0.776059 5.45272C0.764576 5.51615 0.82625 5.4923 0.912113 5.51586C0.93367 5.52175 0.845335 5.57035 0.838962 5.57441C0.815425 5.58914 0.75231 5.59136 0.748025 5.59558C0.714662 5.63011 0.915882 5.58527 0.923196 5.62136C0.923085 5.62255 0.884943 5.6253 0.88185 5.62906C0.872123 5.64077 0.888774 5.6471 0.877821 5.65886C0.852434 5.68587 0.755769 5.71317 0.819419 5.73393C0.827657 5.7365 0.941014 5.7072 0.942092 5.74045C0.942419 5.75369 0.955897 5.81029 0.951689 5.82774C0.947484 5.84516 0.908347 5.84168 0.906977 5.84314C0.866798 5.8959 0.843276 5.88372 0.775306 5.91979C0.707603 5.9558 0.87821 5.91525 0.899155 5.92018C0.920055 5.92515 0.886078 5.96472 0.873619 5.97527C0.861153 5.98582 0.835746 5.98088 0.829193 5.98935C0.786497 6.04531 0.9185 5.99229 0.948787 6.00188C1.02048 6.02453 0.898511 6.07759 0.89243 6.11249C0.890791 6.12194 0.918415 6.10904 0.922677 6.11633C0.939167 6.1453 0.903041 6.17179 0.946415 6.19997C0.953486 6.20457 1.03575 6.21829 0.983021 6.24775C0.975406 6.25194 0.942169 6.25061 0.937595 6.26523C0.930716 6.2871 0.930545 6.32398 0.945191 6.34323C0.956032 6.3575 1.00507 6.32955 0.992518 6.35247C0.986898 6.36265 0.95315 6.35209 0.945144 6.37071C0.937137 6.38925 0.946256 6.43088 0.950239 6.44669C0.954254 6.46249 0.992471 6.44646 0.99539 6.44726C1.0122 6.45228 1.037 6.4796 1.03743 6.48233C1.06708 6.61906 1.02103 6.75699 1.063 6.88795C1.06623 6.89825 1.10745 6.88509 1.10838 6.8866C1.1313 6.92027 1.01486 6.9079 0.980813 6.93828C1.06606 6.92247 1.05269 6.93971 1.0656 6.96395C1.07189 6.97563 1.10421 6.96441 1.10777 6.96507C1.16075 6.97661 1.0972 6.9981 1.08428 7.00307C1.03675 7.02142 1.09648 7.02721 1.0647 7.03969C1.03315 7.05203 0.982458 7.03934 0.986137 7.06358C1.01777 7.06661 1.0959 7.03829 1.11127 7.05539C1.16223 7.11136 1.13114 7.22736 1.1204 7.29245C1.11893 7.30194 1.11787 7.31048 1.11759 7.31778C1.1151 7.3766 1.12126 7.39466 1.11127 7.42898C1.09261 7.49034 1.15211 7.46636 1.18006 7.50479C1.2077 7.54377 1.05967 7.52454 1.02789 7.53C0.996091 7.53504 1.02879 7.54077 1.01127 7.54707C0.993748 7.55327 0.97224 7.53945 0.965553 7.55419C0.958936 7.56864 1.01458 7.61108 1.04761 7.61738C1.11767 7.63088 1.19227 7.6139 1.16486 7.65463C1.16323 7.65695 1.12465 7.64781 1.12038 7.65673C1.08772 7.7274 1.0809 7.80074 1.0481 7.86898C1.04353 7.87827 1.00122 7.86573 0.998079 7.87105C0.965011 7.92625 1.03958 7.91258 1.11681 7.95356C1.01028 7.93496 0.942972 7.94539 0.937238 7.9887C0.933682 8.01487 0.980976 8.01602 1.01179 8.03725C1.02108 8.04367 0.986577 8.05823 1.00809 8.0645C1.07837 8.08525 1.16125 8.07796 1.12287 8.12024C1.12107 8.12207 1.0827 8.11014 1.07935 8.11683C1.05744 8.15947 1.13161 8.17594 1.13301 8.22666C1.13413 8.26642 1.07703 8.32704 1.06168 8.36882C0.942532 8.34632 0.962495 8.39115 1.0414 8.42348C1.03268 8.45082 1.03131 8.48198 1.01446 8.50661C1.00869 8.51509 0.975553 8.50192 0.971597 8.50233C0.909659 8.50804 0.986772 8.53659 0.988613 8.54331C1.00511 8.61502 0.933077 8.65402 0.977051 8.72945C0.978645 8.7321 1.05971 8.7554 0.99589 8.75762C0.991515 8.75766 0.959198 8.72829 0.949278 8.75661C0.939338 8.78503 0.881957 8.82816 0.90923 8.87786C0.91583 8.88977 0.975354 8.93216 0.918409 8.93801C0.910697 8.93874 0.888149 8.92957 0.874153 8.92982C0.829528 8.93069 0.909837 8.95983 0.836177 8.95484C0.762542 8.94973 0.702321 8.96422 0.738982 9.01711C0.740015 9.01876 0.802167 9.04678 0.797442 9.05912C0.78989 9.07868 0.76801 9.10286 0.762179 9.12351C0.759375 9.13353 0.801398 9.13938 0.801605 9.14134C0.803434 9.21559 0.752665 9.25188 0.713497 9.31764C0.706264 9.32962 0.747611 9.3854 0.696005 9.39591C0.63963 9.40693 0.45578 9.31037 0.479957 9.38782C0.48965 9.4185 0.722269 9.54219 0.57841 9.53936C0.575671 9.63918 0.478931 9.69162 0.483634 9.79564C0.483799 9.79968 0.529636 9.83258 0.538077 9.84676C0.539938 9.84764 0.540434 9.84929 0.539815 9.8504C0.53264 9.86296 0.498167 9.85716 0.492044 9.86607C0.465645 9.90309 0.478437 9.95137 0.459265 9.98953C0.452049 10.0041 0.421061 9.98645 0.412449 10.0039C0.403878 10.0212 0.442789 10.0496 0.412545 10.0662C0.389517 10.0787 0.294124 10.0629 0.274633 10.0818C0.360998 10.1175 0.352812 10.1332 0.362964 10.1722C0.364925 10.1798 0.39743 10.1865 0.399885 10.1908C0.410447 10.2087 0.381246 10.208 0.393096 10.226C0.395915 10.2304 0.424882 10.2438 0.428784 10.2482C0.462957 10.2867 0.383118 10.2861 0.369621 10.2848C0.345243 10.2837 0.339443 10.2888 0.337518 10.2955C0.335353 10.3031 0.338201 10.3126 0.32529 10.3152C0.301128 10.3199 0.292524 10.2878 0.273638 10.298C0.234833 10.3185 0.213624 10.3604 0.190332 10.3905C0.181251 10.4026 0.221842 10.419 0.22135 10.4213C0.211203 10.454 0.155871 10.4516 0.21157 10.518C0.0255438 10.3995 0.21636 10.5467 0.152481 10.5553C0.147372 10.5559 0.0646819 10.4931 0.0614418 10.473C0.0581445 10.4531 0.0962075 10.4577 0.0890191 10.4284C0.0875659 10.4213 0.0255577 10.3426 0.0225676 10.3368C0.000621811 10.2896 0.127149 10.379 0.134983 10.3828C0.218857 10.424 0.151568 10.3376 0.14943 10.3277C0.141689 10.2802 0.175344 10.2673 0.168855 10.2309C0.166021 10.2152 0.125561 10.1877 0.101478 10.1685C0.0895014 10.1589 0.0815823 10.1514 0.0844517 10.1481C0.112261 10.1166 0.249585 10.1567 0.154622 10.066C0.134267 10.0466 0.027754 10.0141 0.121755 10.0144C0.127608 10.0146 0.211991 10.0183 0.17064 9.9849C0.165414 9.98073 0.135163 9.96925 0.13357 9.9658C0.123482 9.94289 0.151862 9.94063 0.147431 9.91725C0.142991 9.8939 0.134549 9.86385 0.153586 9.84459C0.165008 9.83295 0.228252 9.83647 0.244608 9.83516C0.291499 9.83184 0.235037 9.78535 0.287668 9.7927C0.340364 9.80063 0.403806 9.85279 0.447006 9.83593C0.369931 9.80236 0.291499 9.76629 0.214456 9.73142C0.217911 9.72403 0.22164 9.71676 0.225627 9.70951C0.258728 9.65446 0.301563 9.61026 0.320529 9.55573C0.323118 9.54804 0.278197 9.53842 0.279866 9.52978C0.28674 9.49419 0.328689 9.47589 0.330105 9.43653C0.331236 9.40548 0.297599 9.35888 0.296645 9.3263C0.393563 9.34139 0.378087 9.28775 0.397332 9.25881C0.403968 9.24888 0.428011 9.25795 0.438628 9.25281C0.478101 9.23304 0.392843 9.21969 0.382911 9.20731C0.340437 9.15438 0.523991 9.21223 0.533186 9.16841C0.53376 9.16607 0.444804 9.1075 0.439782 9.10214C0.407426 9.06626 0.475049 9.10902 0.486908 9.09654C0.50853 9.07376 0.537936 9.06147 0.51869 9.0211C0.51298 9.00917 0.458256 8.96892 0.510991 8.96464C0.517904 8.96405 0.550067 8.97485 0.552531 8.97349C0.5944 8.94787 0.492238 8.91752 0.463074 8.8881C0.433925 8.85863 0.513082 8.84806 0.535259 8.84723C0.59262 8.84522 0.554439 8.86596 0.559376 8.86825C0.618232 8.89568 0.613822 8.87021 0.623724 8.85424C0.725237 8.87898 0.725801 8.8526 0.633576 8.83755C0.623498 8.83594 0.629276 8.852 0.623724 8.85424C0.52894 8.81219 0.5231 8.78322 0.623393 8.77784C0.670392 8.77524 0.717783 8.8014 0.709993 8.75419C0.706432 8.73289 0.634816 8.72285 0.619942 8.70139C0.585966 8.65256 0.662994 8.61854 0.661735 8.57624C0.661256 8.56098 0.619693 8.5663 0.618022 8.55564C0.613426 8.52743 0.647308 8.51083 0.6381 8.48149C0.637212 8.47883 0.595688 8.47599 0.596892 8.46781C0.60515 8.40576 0.641643 8.35752 0.654117 8.29336C0.660179 8.2623 0.647298 8.20313 0.65689 8.17187C0.673424 8.1179 0.742604 8.05739 0.734213 8.00749C0.728879 7.97526 0.687087 7.97701 0.660805 7.96048C0.609831 7.92883 0.711469 7.89532 0.727122 7.89027C0.727656 7.89012 0.734499 7.91791 0.757044 7.90585C0.801771 7.90203 0.727283 7.89056 0.727122 7.89027C0.737319 7.88721 0.751744 7.83476 0.74471 7.82358C0.740919 7.81743 0.701735 7.81733 0.700489 7.81422C0.671665 7.74077 0.665815 7.67182 0.685936 7.60295C0.686757 7.60175 0.73037 7.60476 0.731756 7.6019C0.752195 7.561 0.698907 7.53484 0.666971 7.50234C0.634998 7.47021 0.64488 7.44595 0.719062 7.42366C0.708747 7.39979 0.73981 7.36297 0.75829 7.34121C0.766738 7.33133 0.75364 7.32677 0.736747 7.32474C0.716538 7.32196 0.690913 7.32281 0.689915 7.32188C0.631243 7.26843 0.67628 7.23017 0.676775 7.16727C0.677224 7.13778 0.657685 7.0805 0.644213 7.05019C0.633445 7.02611 0.651081 7.00815 0.635158 6.98647C0.633025 6.98354 0.595995 6.99205 0.594415 6.99128C0.54592 6.97198 0.639284 6.97122 0.654882 6.96353C0.711565 6.93553 0.741465 6.91856 0.708394 6.8889C0.700784 6.88186 0.565669 6.87985 0.555793 6.86715C0.54318 6.85054 0.591445 6.84997 0.576981 6.83265C0.575785 6.83115 0.546746 6.83614 0.546137 6.82413C0.542974 6.76878 0.549772 6.70594 0.536843 6.6493C0.535185 6.64152 0.490908 6.65962 0.487756 6.64855C0.473019 6.59669 0.464153 6.53828 0.476029 6.48261C0.47909 6.46884 0.512749 6.47083 0.521784 6.46628C0.576394 6.43841 0.487862 6.42991 0.48551 6.42624C0.427213 6.33901 0.488789 6.25108 0.433293 6.16053C0.430118 6.15561 0.332163 6.13262 0.405512 6.09892C0.410387 6.09665 0.485549 6.06275 0.428466 6.05752C0.424896 6.05721 0.386603 6.07663 0.386783 6.05611C0.386959 6.03561 0.353476 6.00925 0.392556 5.97312C0.404855 5.96168 0.479341 5.92557 0.411508 5.91246C0.406796 5.91166 0.257156 5.90053 0.352002 5.86663C0.367622 5.86108 0.471505 5.84261 0.412295 5.82262C0.400828 5.8188 0.379923 5.83416 0.362388 5.82154C0.33539 5.80222 0.356738 5.76515 0.304806 5.74523C0.295629 5.74179 0.221038 5.734 0.27082 5.70583C0.278617 5.70142 0.314189 5.69971 0.316206 5.68971C0.325997 5.64229 0.293671 5.60052 0.3088 5.55119C0.314092 5.53372 0.371556 5.5309 0.383273 5.51136C0.39498 5.49182 0.402898 5.45573 0.374026 5.44342C0.345132 5.43106 0.259701 5.46725 0.247546 5.44253C0.19473 5.3348 0.225959 5.21109 0.213995 5.09397C0.212247 5.07664 0.182615 5.09625 0.177774 5.07107C0.159417 4.97797 0.104627 4.8161 0.163157 4.722C0.210033 4.64824 0.261798 4.7278 0.278113 4.67396C0.285901 4.64801 0.178187 4.63247 0.174248 4.62661C0.134502 4.56975 0.177429 4.52368 0.159386 4.46908C0.155674 4.45785 0.113733 4.47185 0.11105 4.46217C0.101741 4.42995 0.117994 4.39247 0.114568 4.36081C0.114488 4.36009 0.114398 4.35938 0.114295 4.35867C0.1122 4.34473 0.0796358 4.34826 0.0818001 4.33521C0.086634 4.30403 0.0998841 4.27623 0.130223 4.24591C0.13299 4.24319 0.173764 4.26112 0.175088 4.23852C0.177139 4.2018 0.207502 4.15739 0.177083 4.115C0.16794 4.10247 0.0932926 4.10019 0.145477 4.07453C0.1564 4.06914 0.245729 4.07884 0.169256 4.04562C0.156492 4.04035 0.0540204 3.98323 0.122591 3.96017C0.140613 3.95409 0.214702 3.94058 0.204003 3.92529C0.202278 3.92317 0.161802 3.92908 0.158581 3.91651C0.147947 3.87227 0.155358 3.82655 0.146464 3.78092C0.144019 3.76868 0.101207 3.78317 0.0989061 3.76494C0.0925131 3.71474 0.109121 3.65359 0.1274 3.60736C0.134222 3.59025 0.166993 3.60633 0.170854 3.60545C0.2336 3.59191 0.1535 3.57039 0.149575 3.56289C0.126275 3.51665 0.168747 3.48938 0.164058 3.4491C0.162882 3.43796 0.123047 3.44013 0.119892 3.4375C0.0893018 3.41031 0.156532 3.43687 0.166221 3.42389C0.193627 3.38752 0.197211 3.34381 0.198821 3.30344C0.199362 3.2886 0.151865 3.29753 0.152889 3.28423C0.158179 3.20502 0.177535 3.12536 0.217433 3.0557C0.225022 3.04264 0.257428 3.05855 0.265848 3.05725C0.324636 3.0487 0.256346 3.00376 0.250759 2.99532C0.22508 2.95741 0.257979 2.95193 0.25846 2.92371C0.260429 2.78438 0.323024 2.62698 0.371249 2.5084C0.433893 2.35355 0.505254 2.24315 0.549731 2.09269C0.552609 2.08317 0.505455 2.07691 0.507391 2.06846C0.53457 1.95975 0.590766 1.8638 0.620041 1.75578C0.622532 1.74693 0.576717 1.7426 0.579372 1.72778C0.584529 1.69727 0.601474 1.66254 0.626272 1.63988C0.63827 1.62884 0.665438 1.6618 0.676785 1.65045C0.703282 1.62407 0.720737 1.5913 0.728494 1.55581C0.731721 1.54065 0.681218 1.54366 0.688668 1.5253C0.73837 1.4005 0.787473 1.27626 0.89927 1.18074C0.906958 1.17416 0.992724 1.20736 0.985607 1.18211C0.963468 1.16951 0.936626 1.15631 0.912554 1.14368C0.985826 0.962697 1.10443 0.807785 1.20448 0.641963C1.2087 0.634953 1.1595 0.623227 1.16749 0.609493C1.21374 0.529912 1.24752 0.445914 1.33741 0.390585C1.34626 0.385094 1.41681 0.43342 1.41988 0.403528C1.42034 0.398211 1.43201 0.357342 1.42184 0.338557C1.42022 0.335855 1.38233 0.321342 1.38833 0.309413C1.42377 0.240485 1.47477 0.176874 1.53695 0.125658C1.54704 0.117453 1.57551 0.151581 1.583 0.14596C1.63569 0.106083 1.64627 0.0315545 1.7114 0.00379648C1.75512 -0.0146475 1.80773 0.0386156 1.87922 0.0618683C1.8893 0.0651504 1.90428 0.0460019 1.9397 0.0686664C2.02878 0.125619 2.1179 0.200322 2.21363 0.259873C2.23423 0.27272 2.23034 0.232119 2.26827 0.280515C2.27077 0.283802 2.2741 0.313456 2.28745 0.329217C2.29666 0.340134 2.3359 0.358422 2.34606 0.374793C2.35623 0.391135 2.32173 0.378169 2.33161 0.400502C2.34173 0.422948 2.38521 0.445403 2.37569 0.46992ZM0.839116 7.23615C0.877659 7.21141 0.728604 7.2239 0.766406 7.24205C0.768409 7.24292 0.837229 7.23742 0.839116 7.23615ZM0.402142 9.66182C0.473686 9.66256 0.391112 9.60859 0.337078 9.60558C0.283191 9.60228 0.380543 9.66136 0.402142 9.66182ZM0.333238 9.9517C0.393402 9.9394 0.196907 9.85948 0.224498 9.90792C0.226043 9.9107 0.329738 9.95243 0.333238 9.9517ZM1.84255 0.153296C1.84436 0.154148 1.85561 0.140779 1.8542 0.139341C1.81987 0.105228 1.79732 0.132109 1.84255 0.153296ZM0.275687 10.2288C0.305845 10.2329 0.288182 10.193 0.250774 10.1885C0.220993 10.1845 0.238601 10.2231 0.275687 10.2288ZM0.82099 6.12752C0.823111 6.12676 0.822689 6.11428 0.81038 6.11697C0.770743 6.12567 0.785298 6.14025 0.82099 6.12752ZM0.000234062 10.611C0.0527906 10.5627 0.214994 10.6423 0.148062 10.6899C0.136009 10.6984 0.125933 10.63 0.102074 10.6335C0.0587203 10.6397 0.127157 10.7286 0.0605753 10.7152C0.0484488 10.7127 -0.00304852 10.6134 0.000133217 10.6107C0.00016658 10.6108 0.000199943 10.6109 0.000234062 10.611ZM1.01662 7.20611C1.01855 7.2055 1.01867 7.18844 1.01667 7.18823C0.968516 7.18413 0.968226 7.21822 1.01662 7.20611ZM0.770603 5.40418C0.774548 5.40243 0.770908 5.36298 0.766865 5.36248C0.686708 5.35695 0.69388 5.43699 0.770603 5.40418ZM1.05837 8.36892C1.10196 8.39618 1.10323 8.41987 1.04148 8.42341C1.04814 8.40553 1.05207 8.38707 1.05837 8.36892Z" fill="#963076"/>
</svg>
