<svg width="5" height="7" viewBox="0 0 5 7" fill="none" xmlns="http://www.w3.org/2000/svg">
<path d="M4.56073 6.79151C4.56361 6.74691 4.53789 6.69481 4.51024 6.65568C4.50164 6.64347 4.47711 6.65565 4.47 6.64738C4.45611 6.63106 4.4654 6.6114 4.44971 6.59548C4.44439 6.59025 4.40471 6.60599 4.40007 6.60028C4.37489 6.5687 4.37895 6.53319 4.36337 6.4987C4.28659 6.32829 4.23978 6.14957 4.18692 5.96674C4.16956 5.90638 4.1183 5.83859 4.12275 5.77206C4.12331 5.76428 4.16035 5.76189 4.16307 5.75992C4.20459 5.72911 4.13281 5.74997 4.12042 5.73758C4.09086 5.7076 4.0735 5.673 4.06495 5.63706C4.05926 5.6131 4.05744 5.58888 4.05855 5.56552C4.05984 5.54055 4.13638 5.54999 4.09128 5.5341C4.08822 5.53299 4.05108 5.54676 4.04568 5.54108C4.03352 5.52825 4.03462 5.49884 4.02919 5.488C4.01856 5.4672 4.01818 5.46349 4.01333 5.4428C4.00638 5.41461 3.98006 5.38503 3.98196 5.35267C3.98248 5.34574 4.02355 5.34566 4.0279 5.33378C4.03225 5.32188 4.02273 5.29513 4.01141 5.28801C4.00008 5.28087 3.97023 5.29182 3.96282 5.2918C3.90034 5.29212 3.97532 5.24142 3.97638 5.23683C3.9937 5.15439 3.93129 5.10176 3.91394 5.03277C3.90074 4.9799 3.90148 4.92008 3.88585 4.87049C3.86719 4.81194 3.83218 4.76719 3.81947 4.70911C3.81807 4.70298 3.86545 4.69708 3.86383 4.68954C3.84641 4.60887 3.81813 4.53209 3.76365 4.46379C3.75813 4.45692 3.7217 4.47925 3.71383 4.47314C3.66653 4.43529 3.56509 4.38647 3.72735 4.30254C3.71025 4.27267 3.69038 4.23568 3.64633 4.2186C3.61798 4.20762 3.5812 4.23982 3.59188 4.21118C3.59424 4.20474 3.63391 4.19873 3.6346 4.19C3.63749 4.15332 3.61315 4.12186 3.62146 4.08356C3.62323 4.07571 3.65728 4.06585 3.66266 4.06193C3.7061 4.02963 3.61639 4.03172 3.6086 4.02828C3.54995 4.00101 3.55617 3.9644 3.5407 3.92507C3.53711 3.916 3.58574 3.9106 3.58388 3.90127C3.57372 3.8534 3.55209 3.80681 3.51565 3.76999C3.50744 3.76184 3.47296 3.78519 3.4671 3.78204C3.44166 3.76784 3.51138 3.73596 3.48829 3.7218C3.48351 3.71878 3.45203 3.73354 3.44818 3.73413C3.38776 3.74352 3.46287 3.70283 3.46342 3.69905C3.47233 3.6511 3.37994 3.65758 3.37697 3.6159C3.37669 3.61085 3.42148 3.60482 3.41817 3.5916C3.39596 3.50245 3.34879 3.41872 3.28157 3.3494C3.27123 3.33874 3.24468 3.36063 3.2406 3.36139C3.17662 3.37303 3.25146 3.33162 3.2526 3.32609C3.25972 3.28375 3.18122 3.2817 3.2646 3.21921C3.17213 3.09373 3.16176 2.93285 3.0152 2.83525C3.01344 2.83397 2.97703 2.85498 2.97367 2.85236C2.93281 2.82109 2.9957 2.80179 3.05419 2.73952C3.06884 2.72382 2.9721 2.74449 2.96489 2.74578C2.93827 2.75037 2.88549 2.7844 2.87988 2.78435C2.83539 2.78306 3.02261 2.69673 3.01015 2.67097C3.00946 2.67032 2.97697 2.69027 2.97254 2.68979C2.95867 2.68835 2.96904 2.67521 2.95417 2.67453C2.91979 2.67302 2.8276 2.71247 2.86881 2.66424C2.87419 2.65805 2.98118 2.61063 2.96506 2.5905C2.96127 2.58587 2.95367 2.57028 2.94562 2.55675C2.94378 2.55161 2.93435 2.53844 2.93173 2.53365C2.92433 2.52473 2.91685 2.51684 2.91126 2.51447C2.89791 2.50883 2.87222 2.53767 2.87038 2.5379C2.81058 2.53998 2.80113 2.56224 2.73163 2.5919C2.66241 2.6215 2.80735 2.52288 2.81932 2.50601C2.83127 2.48922 2.78353 2.49329 2.76849 2.49688C2.75341 2.50041 2.73835 2.52045 2.72869 2.5209C2.66536 2.52351 2.79018 2.45746 2.80593 2.43179C2.8434 2.37124 2.72545 2.43003 2.70053 2.41747C2.69378 2.41405 2.72093 2.40105 2.71963 2.39457C2.71414 2.36913 2.67309 2.3817 2.68686 2.33765C2.68912 2.33049 2.73898 2.2664 2.68444 2.28909C2.67661 2.2924 2.65392 2.31619 2.64209 2.3124C2.62447 2.30687 2.60223 2.28875 2.60126 2.26932C2.60051 2.25491 2.65154 2.23407 2.62921 2.23185C2.61927 2.2309 2.60165 2.25951 2.58508 2.25619C2.5687 2.25312 2.55024 2.22616 2.5438 2.21581C2.53735 2.2054 2.57372 2.18641 2.57531 2.18398C2.5842 2.1698 2.58571 2.13938 2.58443 2.13777C2.52492 2.05079 2.41187 2.0159 2.36635 1.92198C2.36276 1.91468 2.39951 1.89232 2.3993 1.89094C2.39627 1.85833 2.32079 1.94581 2.27913 1.95445C2.34865 1.90269 2.32928 1.90351 2.32465 1.88252C2.32247 1.87236 2.35181 1.85534 2.35397 1.85253C2.38507 1.80986 2.32776 1.84363 2.31574 1.85015C2.27137 1.874 2.31061 1.82947 2.28094 1.84542C2.25149 1.86126 2.22259 1.90296 2.21149 1.88827C2.23231 1.86471 2.30393 1.82436 2.30525 1.80514C2.31027 1.73227 2.19729 1.69578 2.16449 1.66759C2.13185 1.6394 2.12699 1.62508 2.10222 1.6136C2.05767 1.5933 2.1135 1.56586 2.11552 1.52649C2.11736 1.48703 2.01582 1.59554 1.98936 1.61362C1.96302 1.63183 1.98467 1.60694 1.96843 1.61498C1.95218 1.62301 1.94301 1.64521 1.93053 1.64107C1.91807 1.63692 1.93941 1.57614 1.9613 1.5508C2.00765 1.49707 2.07223 1.45813 2.03198 1.45256C2.02964 1.45229 2.00483 1.48279 1.99734 1.48043C1.93934 1.46142 1.89947 1.42179 1.84362 1.40248C1.83581 1.39979 1.80945 1.43473 1.80459 1.43353C1.75401 1.42154 1.81725 1.38182 1.85723 1.3071C1.78489 1.38734 1.7286 1.42421 1.705 1.40197C1.69074 1.38864 1.72583 1.35708 1.73954 1.32415C1.74363 1.31418 1.71102 1.32774 1.72447 1.30996C1.76814 1.25158 1.83429 1.20245 1.78582 1.20115C1.78363 1.20121 1.76013 1.23352 1.75457 1.2316C1.71873 1.21969 1.76686 1.16099 1.74456 1.12858C1.7268 1.10291 1.6561 1.10282 1.62537 1.08733C1.54842 1.18102 1.54284 1.14053 1.58476 1.06708C1.56525 1.05587 1.54958 1.03773 1.52543 1.03402C1.51722 1.03277 1.49998 1.06374 1.49696 1.06621C1.45037 1.10565 1.49144 1.03491 1.48931 1.0294C1.48377 1.01622 1.47552 1.00767 1.4662 1.00136C1.43807 0.982138 1.39708 0.983446 1.39488 0.925391C1.39483 0.922686 1.44138 0.852406 1.39553 0.895233C1.3924 0.898207 1.38261 0.938333 1.36305 0.927979C1.34327 0.917474 1.2827 0.929633 1.28073 0.880188C1.28009 0.868169 1.30461 0.801604 1.26125 0.836263C1.25539 0.840984 1.2431 0.861904 1.2329 0.871132C1.20031 0.90048 1.24553 0.828126 1.19452 0.880562C1.14361 0.933059 1.09287 0.963335 1.09703 0.90489C1.09707 0.903133 1.13046 0.844023 1.12182 0.839136C1.10808 0.831445 1.08212 0.830111 1.06893 0.820102C1.06276 0.815382 1.09124 0.784243 1.0906 0.782835C1.06185 0.733282 1.00964 0.741777 0.954597 0.72219C0.944363 0.718598 0.953966 0.655127 0.911197 0.680024C0.864633 0.707461 0.762908 0.887711 0.750535 0.81845C0.745576 0.790739 0.876932 0.563712 0.768524 0.652319C0.730693 0.583839 0.637077 0.601752 0.607524 0.521544C0.606128 0.517928 0.640556 0.452957 0.633904 0.449393C0.623954 0.44422 0.599106 0.468285 0.591334 0.465456C0.558237 0.454275 0.550573 0.412871 0.521892 0.397812C0.511056 0.392042 0.493951 0.423105 0.480996 0.416206C0.468056 0.409276 0.487231 0.365962 0.458231 0.372674C0.436229 0.377865 0.368716 0.446016 0.346281 0.443475C0.40027 0.367179 0.388196 0.36086 0.383023 0.326737C0.382054 0.320141 0.405097 0.296646 0.405618 0.292164C0.408157 0.273333 0.3857 0.290387 0.389519 0.270648C0.390413 0.265891 0.408982 0.23993 0.410764 0.234577C0.426638 0.188086 0.365519 0.232553 0.354914 0.240323C0.314563 0.269772 0.332977 0.231877 0.312386 0.24009C0.291816 0.248315 0.292591 0.277667 0.274691 0.278758C0.237539 0.280924 0.210654 0.255216 0.186012 0.239282C0.176336 0.232795 0.207676 0.202859 0.20687 0.201127C0.193653 0.178296 0.147302 0.20077 0.186067 0.124104C0.0442924 0.292425 0.186729 0.0983529 0.133054 0.113838C0.128771 0.115132 0.065331 0.197325 0.0649023 0.215789C0.0644808 0.23424 0.0962691 0.217157 0.0941176 0.24487C0.0936298 0.251386 0.0527439 0.341771 0.0514841 0.348121C0.0416255 0.397749 0.134632 0.273629 0.140511 0.267367C0.204416 0.200117 0.162656 0.299134 0.163572 0.308713C0.167661 0.352526 0.200272 0.349132 0.206087 0.38249C0.20997 0.404138 0.151873 0.487476 0.163736 0.492184C0.203327 0.508022 0.297621 0.401304 0.257505 0.523812C0.248954 0.549944 0.177405 0.635234 0.252582 0.581784C0.25728 0.578384 0.322037 0.526596 0.302906 0.575066C0.300491 0.581175 0.281548 0.607406 0.281682 0.610851C0.282954 0.633429 0.305625 0.617987 0.311064 0.637112C0.316473 0.656216 0.320777 0.681988 0.341542 0.683411C0.354069 0.684342 0.400394 0.643409 0.413152 0.634407C0.449679 0.608313 0.421416 0.673855 0.458803 0.63733C0.49635 0.600601 0.527938 0.526521 0.566656 0.513192C0.518268 0.581936 0.469504 0.653145 0.421269 0.722586C0.464896 0.750332 0.522276 0.758128 0.562132 0.791371C0.567064 0.79559 0.535308 0.828416 0.539912 0.833881C0.559384 0.856732 0.598828 0.845418 0.615833 0.873449C0.62873 0.895168 0.621917 0.949203 0.634531 0.973118C0.703013 0.903884 0.713048 0.951314 0.739801 0.959716C0.749069 0.962637 0.763558 0.941413 0.773758 0.938423C0.811805 0.927593 0.752878 0.989922 0.750591 1.00475C0.741156 1.06827 0.855024 0.913177 0.880396 0.937258C0.881789 0.938489 0.839974 1.03473 0.838693 1.04167C0.830163 1.08682 0.862104 1.01453 0.876472 1.01553C0.902787 1.01738 0.929266 1.00624 0.933178 1.04603C0.934241 1.05774 0.911473 1.12009 0.952542 1.0887C0.957905 1.08458 0.976794 1.05641 0.979228 1.05572C1.02159 1.04539 0.959828 1.13217 0.952155 1.17106C0.944399 1.20988 1.00732 1.16453 1.02397 1.15039C1.0668 1.11364 1.02928 1.12537 1.03179 1.12054C1.06211 1.0635 1.07077 1.08328 1.08521 1.08698C1.14773 1.0033 1.15974 1.01962 1.09989 1.09112C1.09333 1.09892 1.09027 1.08473 1.08521 1.08698C1.03527 1.17726 1.04534 1.20063 1.12016 1.13644C1.15514 1.10629 1.17733 1.05782 1.19352 1.09297C1.20084 1.10885 1.15399 1.16374 1.15373 1.18767C1.15277 1.242 1.22425 1.21066 1.24403 1.2378C1.25103 1.24752 1.21914 1.27311 1.22314 1.28086C1.22981 1.29345 1.24383 1.29375 1.25565 1.29698C1.26409 1.29942 1.27043 1.30249 1.27277 1.31174C1.27325 1.31385 1.24589 1.34491 1.25004 1.34857C1.2806 1.37676 1.32629 1.37887 1.36194 1.40734C1.37918 1.42106 1.39439 1.46402 1.41468 1.47598C1.44929 1.49628 1.52764 1.48733 1.54307 1.52244C1.55331 1.54526 1.52108 1.57147 1.50834 1.59826C1.48334 1.64987 1.57592 1.60455 1.58988 1.59721C1.59033 1.59695 1.58321 1.57605 1.60566 1.5686C1.64127 1.54187 1.58987 1.59694 1.58988 1.59721C1.59877 1.59225 1.63404 1.6148 1.63371 1.62585C1.63362 1.63195 1.60389 1.65738 1.60436 1.66003C1.61656 1.72291 1.64501 1.76796 1.69543 1.79641C1.69666 1.79659 1.72806 1.7662 1.73055 1.767C1.76637 1.77766 1.74035 1.82881 1.73378 1.86931C1.7275 1.91015 1.74865 1.91831 1.81573 1.88125C1.82185 1.90274 1.86544 1.90272 1.89168 1.90256C1.91789 1.90237 1.85448 1.95908 1.85413 1.96127C1.84196 2.03032 1.89615 2.01936 1.93215 2.05128C1.94952 2.06652 1.96797 2.10883 1.97614 2.13388C1.9823 2.1535 2.00514 2.15017 2.00637 2.17217C2.00656 2.17513 1.9754 2.19678 1.97473 2.19827C1.95171 2.24211 2.01822 2.17705 2.03373 2.17001C2.09001 2.14424 2.12091 2.13169 2.11468 2.1695C2.11329 2.17819 2.01926 2.27423 2.01953 2.28723C2.02024 2.30421 2.05468 2.2707 2.05452 2.28933C2.05455 2.2909 2.03113 2.30878 2.03769 2.3151C2.06802 2.34494 2.10937 2.37059 2.13341 2.40705C2.13678 2.41196 2.09497 2.4342 2.09922 2.44174C2.11939 2.47742 2.14705 2.51125 2.1885 2.53017C2.19876 2.53465 2.22132 2.51017 2.23037 2.50604C2.28518 2.48118 2.22769 2.54701 2.22818 2.55039C2.23862 2.63325 2.3335 2.63183 2.34758 2.71373C2.34835 2.71845 2.29225 2.79706 2.36397 2.76221C2.36875 2.7599 2.44192 2.72396 2.40454 2.76603C2.40219 2.76866 2.36362 2.7859 2.37582 2.7956C2.38813 2.80547 2.37951 2.84078 2.42841 2.83097C2.44381 2.82789 2.51798 2.79377 2.47742 2.8469C2.47646 2.84811 2.46479 2.86091 2.45283 2.87566L2.41906 2.81952C2.3905 2.84466 2.3594 2.87714 2.42215 2.85386C2.43761 2.84811 2.53131 2.79959 2.49307 2.8443C2.48563 2.8529 2.46098 2.85612 2.45295 2.87306C2.44047 2.89895 2.47591 2.90704 2.44324 2.94729C2.43743 2.95436 2.38009 3.00018 2.43447 2.9878C2.443 2.98589 2.47305 2.96713 2.47953 2.97149C2.51058 2.99229 2.50405 3.03322 2.54005 3.05231C2.55279 3.05921 2.60169 3.02945 2.62074 3.03406C2.63989 3.0389 2.66345 3.05455 2.64532 3.07721C2.62713 3.09979 2.53903 3.12554 2.54049 3.14586C2.54655 3.2336 2.62893 3.28635 2.66928 3.3584C2.67531 3.36918 2.64149 3.37295 2.64824 3.38979C2.67272 3.4511 2.68991 3.56868 2.77543 3.59478C2.84432 3.61648 2.86061 3.54612 2.89511 3.57051C2.91175 3.58263 2.82114 3.63961 2.81964 3.64471C2.80366 3.69456 2.8576 3.70321 2.85772 3.74196C2.85775 3.74999 2.81534 3.75912 2.81579 3.76578C2.81692 3.78853 2.84326 3.80312 2.8475 3.82336C2.84935 3.83257 2.81834 3.84296 2.8238 3.84994C2.8365 3.86681 2.85586 3.87864 2.89167 3.88633C2.89493 3.88704 2.92832 3.86078 2.93527 3.87453C2.94625 3.89642 2.9854 3.91417 2.96637 3.9519C2.96058 3.96312 2.89095 3.98995 2.94546 3.98843C2.95685 3.98814 3.03905 3.9521 2.97393 3.99895C2.96316 4.00684 2.87754 4.07612 2.94667 4.06901C2.96488 4.06716 3.03773 4.05276 3.03038 4.06618C3.02912 4.06809 2.98961 4.07679 2.9888 4.08594C2.98659 4.11789 3.0012 4.14565 2.99954 4.17828C2.99901 4.18697 2.95594 4.18973 2.95638 4.20222C2.95748 4.23645 2.98123 4.2721 3.00394 4.29798C3.01241 4.30755 3.0422 4.28858 3.04602 4.28817C3.10805 4.28142 3.03314 4.31604 3.03011 4.32193C3.01231 4.35834 3.05592 4.36679 3.05463 4.39495C3.05438 4.40271 3.01563 4.4103 3.01278 4.41278C2.98521 4.43782 3.04831 4.40487 3.05868 4.41143C3.08794 4.42971 3.09448 4.45947 3.09803 4.48645C3.0993 4.49644 3.0527 4.49997 3.05433 4.50875C3.06318 4.56111 3.08378 4.61155 3.12292 4.65323C3.13037 4.66107 3.16195 4.64489 3.17017 4.64446C3.22771 4.64141 3.16087 4.6833 3.15529 4.68985C3.12981 4.71984 3.16177 4.71872 3.16169 4.73844C3.16074 4.8346 3.21146 4.9374 3.24635 5.01779C3.29166 5.12265 3.34557 5.19925 3.36259 5.30653C3.36369 5.31329 3.31688 5.31746 3.31724 5.32341C3.32401 5.39969 3.35836 5.46851 3.36133 5.54582C3.36165 5.5521 3.31668 5.55268 3.31572 5.56304C3.31346 5.58436 3.32115 5.60909 3.33914 5.62649C3.34784 5.635 3.38211 5.61401 3.39011 5.62277C3.40885 5.64326 3.41698 5.6675 3.41483 5.69281C3.41381 5.70358 3.36655 5.69708 3.36866 5.71035C3.37158 5.73002 3.37428 5.74969 3.37746 5.76925C3.38935 5.84201 3.40797 5.91283 3.46657 5.97822C3.47172 5.98403 3.56289 5.97312 3.54816 5.99009C3.52334 5.99575 3.49392 6.00112 3.46727 6.0065C3.47796 6.14497 3.53315 6.27391 3.56282 6.41182C3.56406 6.41761 3.51447 6.41611 3.51662 6.42736C3.52904 6.49252 3.52749 6.55966 3.58764 6.61899C3.59354 6.62482 3.67685 6.60575 3.6679 6.62805C3.66623 6.63195 3.66074 6.66417 3.64403 6.67547C3.64149 6.67706 3.60128 6.67904 3.60201 6.689C3.60693 6.74679 3.62792 6.80553 3.66396 6.85803C3.66985 6.86647 3.70928 6.84778 3.71383 6.85369C3.74575 6.89548 3.72571 6.95365 3.77385 6.98963C3.80621 7.01349 3.87495 6.98534 3.94889 6.98381C3.95932 6.98358 3.96529 7.00113 4.00632 6.99193C4.10946 6.96881 4.21975 6.93273 4.32995 6.90913C4.35367 6.90402 4.33385 6.93255 4.38746 6.90522C4.39103 6.90335 4.40597 6.88269 4.42435 6.87408C4.43704 6.86811 4.47975 6.86281 4.49551 6.85316C4.51127 6.84355 4.47498 6.84593 4.49291 6.83199C4.51111 6.81803 4.55934 6.81077 4.56073 6.79151ZM2.00922 1.90269C2.05076 1.88878 1.93713 1.98603 1.95382 1.95014C1.95477 1.9483 2.00716 1.90334 2.00922 1.90269ZM0.587818 0.666318C0.643377 0.625031 0.598294 0.712076 0.556596 0.744834C0.514912 0.777534 0.570943 0.67881 0.587818 0.666318ZM0.439836 0.500509C0.490016 0.472547 0.369251 0.646908 0.373094 0.596856C0.373276 0.594002 0.436913 0.502126 0.439836 0.500509ZM3.95203 6.90767C3.95402 6.90745 3.95887 6.91989 3.95703 6.92064C3.91236 6.93829 3.90263 6.91319 3.95203 6.90767ZM0.295712 0.332171C0.318686 0.313363 0.317175 0.353078 0.288637 0.376488C0.265681 0.395321 0.26713 0.355564 0.295712 0.332171ZM2.64116 2.45995C2.64311 2.45884 2.6502 2.46515 2.63991 2.47242C2.60675 2.49581 2.60841 2.47866 2.64116 2.45995ZM0.000199795 0.116406C0.0486903 0.141483 0.177714 0.0185234 0.118355 0.000142775C0.107616 -0.00318259 0.104361 0.0589022 0.0841174 0.0637875C0.0471711 0.0726402 0.0980651 -0.0262476 0.043046 0.00676445C0.0330186 0.0128378 -0.00279284 0.115292 0.000134945 0.116661C0.000156879 0.116576 0.000178337 0.116491 0.000199795 0.116406ZM2.15322 1.79492C2.155 1.79396 2.16456 1.80256 2.16324 1.80404C2.13107 1.83962 2.1118 1.82234 2.15322 1.79492ZM2.99303 2.88412C2.99713 2.88292 3.01335 2.90826 3.01025 2.91082C2.94646 2.95767 2.91363 2.90687 2.99303 2.88412ZM1.6229 1.08948C1.64196 1.04326 1.63139 1.02746 1.58485 1.06707C1.59818 1.07363 1.60967 1.08236 1.6229 1.08948Z" fill="black"/>
</svg>
