<svg width="8" height="13" viewBox="0 0 8 13" fill="none" xmlns="http://www.w3.org/2000/svg">
<path d="M7.92026 11.9622C7.89221 11.887 7.82334 11.7948 7.76744 11.7357C7.74918 11.7157 7.73284 11.7405 7.71906 11.7271C7.69223 11.701 7.68878 11.6688 7.66047 11.644C7.65104 11.636 7.62181 11.6694 7.61275 11.6605C7.56288 11.6108 7.54307 11.5546 7.50118 11.4994C7.30143 11.2389 7.12609 10.9639 6.94561 10.6865C6.88531 10.5936 6.78756 10.4993 6.74471 10.3906C6.73974 10.3779 6.77573 10.3666 6.7771 10.3629C6.79808 10.3058 6.74003 10.3542 6.71886 10.3371C6.6352 10.2692 6.57451 10.1697 6.53908 10.0789C6.52371 10.0395 6.60809 10.0398 6.55148 10.0234C6.54761 10.0222 6.51891 10.0509 6.50957 10.043C6.48852 10.025 6.4696 9.97773 6.45695 9.9618C6.4327 9.93174 6.42989 9.92603 6.41146 9.89461C6.38595 9.8518 6.33932 9.8093 6.31984 9.75724C6.3158 9.7461 6.35826 9.73957 6.35504 9.72014C6.35206 9.70117 6.32537 9.66122 6.30908 9.65175C6.29281 9.64231 6.26885 9.66393 6.26114 9.66501C6.19644 9.67469 6.24195 9.58392 6.24014 9.57653C6.2043 9.44177 6.10912 9.37196 6.04646 9.26171C6.00082 9.18119 5.96509 9.08637 5.91828 9.00857C5.86357 8.91807 5.8005 8.85124 5.75183 8.75819C5.74666 8.74841 5.79407 8.73634 5.78783 8.72433C5.72386 8.60088 5.64764 8.47734 5.55158 8.3729C5.54182 8.36228 5.51479 8.39851 5.50288 8.38912C5.43104 8.33167 5.29071 8.25032 5.42296 8.11815C5.38815 8.07119 5.3467 8.01301 5.28903 7.98511C5.25187 7.96709 5.22901 8.01815 5.22505 7.97224C5.2241 7.9619 5.26452 7.95306 5.26051 7.93903C5.24328 7.87946 5.20121 7.83145 5.18995 7.77033C5.18777 7.75792 5.22015 7.74324 5.22403 7.73716C5.25495 7.68708 5.15737 7.68812 5.14687 7.68218C5.0676 7.6363 5.0553 7.57782 5.01857 7.51548C5.01001 7.50097 5.06119 7.49479 5.05443 7.47999C5.0189 7.40367 4.9715 7.32849 4.91235 7.26708C4.89917 7.25362 4.87222 7.28819 4.86413 7.28278C4.82884 7.25866 4.89114 7.21346 4.8585 7.18945C4.8517 7.18434 4.82372 7.20528 4.8197 7.20593C4.75672 7.21607 4.82078 7.15735 4.81957 7.15143C4.80585 7.07553 4.70584 7.07848 4.68164 7.0105C4.67891 7.00248 4.72633 6.99713 4.71633 6.97592C4.65032 6.83512 4.55552 6.69251 4.44929 6.5764C4.43268 6.55805 4.41252 6.58931 4.40824 6.59C4.34079 6.59977 4.40683 6.5438 4.40572 6.53535C4.39502 6.46975 4.30406 6.45398 4.37109 6.3668C4.21078 6.15545 4.13069 5.89882 3.9219 5.71447C3.91933 5.71207 3.88585 5.73796 3.88088 5.73307C3.82105 5.67519 3.88539 5.65667 3.92867 5.57153C3.93953 5.55014 3.83595 5.56233 3.82804 5.56268C3.79901 5.56412 3.75146 5.60663 3.74493 5.6053C3.69273 5.59327 3.87498 5.49683 3.85091 5.45421C3.84986 5.45305 3.82002 5.47734 3.81471 5.47563C3.79812 5.47035 3.80499 5.45189 3.78745 5.44744C3.74703 5.43739 3.65486 5.47787 3.68394 5.41094C3.68766 5.40262 3.78749 5.35511 3.76922 5.31979L3.77477 5.33042C3.77429 5.3293 3.77369 5.32818 3.77298 5.32707C3.76329 5.31217 3.73171 5.24151 3.7156 5.22537C3.69948 5.20919 3.67187 5.23879 3.66973 5.23811C3.59978 5.20728 3.59064 5.23603 3.5116 5.24169C3.43283 5.24726 3.59443 5.17897 3.60701 5.15992C3.61963 5.1411 3.564 5.11998 3.54658 5.11665C3.52914 5.11331 3.51319 5.13547 3.50186 5.13051C3.42747 5.09735 3.56866 5.06851 3.58499 5.03813C3.62378 4.96648 3.49048 4.9889 3.46027 4.95513C3.45211 4.94599 3.48295 4.94192 3.48095 4.93128C3.47237 4.88871 3.42482 4.88319 3.43791 4.82419C3.44002 4.81454 3.49404 4.74623 3.43163 4.74853C3.42265 4.74892 3.39769 4.77184 3.38352 4.75895C3.36241 4.73992 3.33526 4.69936 3.33265 4.66867C3.33076 4.64605 3.3894 4.64509 3.36296 4.6281C3.35118 4.62057 3.33243 4.65382 3.31265 4.63856C3.29291 4.62339 3.26994 4.57189 3.26176 4.55217C3.2536 4.53246 3.29517 4.5256 3.29689 4.52288C3.3066 4.5069 3.30645 4.46115 3.30481 4.45781C3.23011 4.28919 3.09639 4.16676 3.03954 3.99466C3.03506 3.98125 3.07763 3.97136 3.07734 3.96912C3.07289 3.91813 2.98663 4.00101 2.93796 3.98714C3.01827 3.95429 2.99561 3.94318 2.98979 3.90883C2.98705 3.89226 3.02111 3.88578 3.02358 3.88298C3.05909 3.83902 2.99238 3.85199 2.97835 3.85384C2.92671 3.86057 2.97202 3.81963 2.93744 3.824C2.90309 3.82828 2.8699 3.87187 2.8565 3.84228C2.88058 3.82073 2.96411 3.80763 2.96537 3.77974C2.97067 3.6753 2.83807 3.54503 2.79996 3.48066C2.76161 3.41576 2.75646 3.39175 2.72768 3.35762C2.6756 3.29584 2.74204 3.29535 2.74571 3.23937C2.74929 3.18324 2.62626 3.2688 2.59454 3.27621C2.5629 3.28375 2.58914 3.2628 2.56968 3.26266C2.55024 3.26254 2.53874 3.28853 2.52415 3.27331C2.50953 3.25802 2.53695 3.18457 2.56363 3.16333C2.62051 3.11907 2.69796 3.10947 2.65127 3.07242C2.64855 3.07032 2.61784 3.09621 2.60918 3.0873C2.5418 3.01645 2.49775 2.92963 2.43344 2.85786C2.42456 2.84804 2.3906 2.87717 2.38499 2.87168C2.32637 2.8144 2.40387 2.80693 2.45808 2.73313C2.36533 2.78903 2.2956 2.79654 2.26933 2.74423C2.25352 2.71284 2.29852 2.69763 2.31836 2.66263C2.32429 2.65198 2.28413 2.64352 2.30202 2.62968C2.36042 2.5843 2.44363 2.5698 2.38778 2.52931C2.38523 2.52759 2.35339 2.5527 2.34717 2.54548C2.30672 2.49883 2.37209 2.46009 2.35134 2.39737C2.33511 2.34826 2.25444 2.28964 2.22159 2.24069C2.11361 2.29589 2.11422 2.235 2.17916 2.17799C2.15964 2.14669 2.1454 2.10787 2.11882 2.08089C2.1097 2.07157 2.08204 2.09469 2.07795 2.095C2.01402 2.10043 2.07933 2.04935 2.07855 2.04075C2.06689 1.94917 1.97945 1.91356 1.99487 1.81197C1.99544 1.80834 2.06806 1.76536 2.00312 1.77368C1.9987 1.77435 1.97733 1.81647 1.95664 1.78291C1.93596 1.74939 1.86201 1.7051 1.87108 1.63847C1.87328 1.62245 1.91826 1.56106 1.85862 1.56261C1.85056 1.56288 1.83101 1.57759 1.81674 1.57938C1.7711 1.58471 1.84197 1.53661 1.76888 1.55322C1.69577 1.56979 1.62902 1.55967 1.64739 1.48848C1.64784 1.48625 1.70104 1.4427 1.69185 1.42793C1.67713 1.40436 1.64616 1.37679 1.63291 1.35163C1.62659 1.33956 1.66754 1.32711 1.66708 1.32467C1.64287 1.23155 1.57856 1.19257 1.51551 1.11394C1.50403 1.09983 1.52786 1.02612 1.47094 1.01782C1.40882 1.00912 1.25027 1.1457 1.24907 1.04609C1.24818 1.00568 1.44998 0.833778 1.30093 0.848021C1.26539 0.723464 1.14651 0.66281 1.11932 0.532508C1.11813 0.526755 1.16962 0.472255 1.16139 0.461464C1.14917 0.445678 1.11476 0.455315 1.10518 0.444853C1.06466 0.40203 1.05819 0.340313 1.02255 0.296617C1.01885 0.292058 1.01431 0.290722 1.00934 0.290779C0.994701 0.290968 0.980183 0.303078 0.966359 0.290996C0.947605 0.274818 0.967497 0.229167 0.925927 0.221773C0.89462 0.216692 0.814538 0.273137 0.785433 0.265467C0.839729 0.189637 0.821182 0.177087 0.797772 0.134485C0.79299 0.126158 0.817133 0.10257 0.815599 0.0971185C0.808953 0.0739128 0.782637 0.0905217 0.776062 0.0672263C0.774378 0.0615892 0.787624 0.0325518 0.786701 0.0262045C0.777196 -0.0304847 0.702829 0.0208573 0.693778 0.0319411C0.653242 0.0703022 0.649227 0.0277373 0.623469 0.0430594C0.599836 0.0591612 0.628247 0.0858144 0.603601 0.0946014C0.554552 0.113043 0.496858 0.113555 0.44896 0.125568C0.430213 0.130084 0.433661 0.0857054 0.430779 0.0853808C0.385904 0.0844224 0.359756 0.140398 0.309937 0.0676981C0.353926 0.284774 0.278266 0.0555863 0.234956 0.11947C0.231652 0.124605 0.26486 0.223034 0.286539 0.230883C0.308442 0.238642 0.322061 0.198845 0.352286 0.213574C0.360286 0.216607 0.418951 0.299787 0.423793 0.304587C0.464102 0.34053 0.42803 0.190143 0.428021 0.18125C0.42586 0.0865708 0.487994 0.181028 0.49587 0.187493C0.540961 0.214026 0.570793 0.192255 0.597751 0.218919C0.615001 0.236551 0.59677 0.336858 0.605089 0.335487C0.628498 0.330111 0.71596 0.213651 0.691915 0.343167C0.686325 0.371009 0.614579 0.45569 0.690819 0.403202C0.694759 0.399103 0.767224 0.354342 0.747967 0.4048C0.745357 0.410978 0.723963 0.435249 0.724138 0.439028C0.725775 0.464013 0.752287 0.453515 0.759181 0.477701C0.762154 0.489102 0.76482 0.50242 0.769844 0.51469L0.73963 0.477489C0.744041 0.492806 0.751154 0.50693 0.76449 0.516436C0.780017 0.527521 0.843038 0.513108 0.860228 0.512223C0.909642 0.509481 0.865894 0.569584 0.917297 0.553983C0.969049 0.538458 1.01769 0.469465 1.06836 0.485611C0.998955 0.53306 0.928742 0.583326 0.859363 0.631691C0.910212 0.703845 0.979704 0.762696 1.02347 0.840757C1.02885 0.850525 0.984405 0.864533 0.989157 0.875593C1.00914 0.921824 1.05896 0.941862 1.07497 0.993662C1.08669 1.03297 1.0678 1.09507 1.07871 1.13767C1.17474 1.11131 1.17759 1.18137 1.20802 1.21698C1.21866 1.22949 1.24039 1.21575 1.25325 1.2214C1.30122 1.24309 1.21744 1.2677 1.21154 1.28442C1.18636 1.35594 1.3565 1.26593 1.38142 1.32036C1.38281 1.32321 1.31178 1.40658 1.30874 1.41429C1.28859 1.46393 1.34268 1.40189 1.35955 1.41677C1.39044 1.44415 1.42485 1.45597 1.42003 1.50997C1.41853 1.52583 1.37741 1.5841 1.43322 1.58342C1.44053 1.58335 1.46948 1.5656 1.47253 1.56708C1.52514 1.59499 1.43168 1.64616 1.4131 1.6879C1.39445 1.72951 1.47985 1.73357 1.5028 1.73162C1.56222 1.72668 1.51509 1.70478 1.51926 1.70117C1.56878 1.65792 1.57428 1.69175 1.59029 1.71048C1.68424 1.66472 1.69455 1.6977 1.60657 1.73019C1.59693 1.73369 1.59677 1.71252 1.59029 1.71048C1.5096 1.77709 1.51513 1.81571 1.61922 1.80807C1.66796 1.80443 1.70599 1.76415 1.71624 1.82522C1.72082 1.85272 1.65229 1.87681 1.64568 1.90662C1.6306 1.97465 1.72252 2.00659 1.73816 2.0604C1.7439 2.08006 1.69993 2.08053 1.70265 2.09458C1.70965 2.13175 1.7511 2.14808 1.75385 2.18695C1.75408 2.19053 1.71369 2.20199 1.71833 2.21231C1.7529 2.29109 1.81048 2.34684 1.85143 2.4272C1.87155 2.46672 1.8855 2.54585 1.90976 2.58459C1.95195 2.6525 2.04747 2.71097 2.06443 2.77873C2.07527 2.82207 2.03397 2.83143 2.01694 2.86053C1.98377 2.91662 2.09956 2.93165 2.11697 2.93293C2.11753 2.93294 2.10968 2.89463 2.13755 2.90353C2.18233 2.8948 2.11695 2.93247 2.11697 2.93293C2.12837 2.93405 2.16952 2.9973 2.16892 3.01413C2.16858 3.02329 2.13148 3.03627 2.13196 3.04072C2.14466 3.14694 2.17908 3.24102 2.24027 3.32605C2.24177 3.32735 2.27994 3.30594 2.28297 3.30922C2.32602 3.35388 2.29412 3.41088 2.28673 3.4688C2.27942 3.52687 2.30566 3.55704 2.38566 3.55051C2.39296 3.5876 2.44572 3.62108 2.47711 3.6401C2.5085 3.65913 2.43361 3.69961 2.43322 3.7027C2.42029 3.80044 2.48522 3.8235 2.52945 3.89869C2.55036 3.93386 2.57434 4.01288 2.5853 4.05755C2.59394 4.09312 2.62077 4.10313 2.6232 4.13789C2.62355 4.14258 2.58746 4.15485 2.58672 4.15668C2.56134 4.20876 2.63745 4.15333 2.65559 4.15297C2.72151 4.15164 2.75761 4.15301 2.75215 4.20737C2.7509 4.21982 2.64423 4.30578 2.64539 4.32638C2.64728 4.35338 2.68633 4.32427 2.68724 4.35313C2.68736 4.35559 2.66054 4.3678 2.66874 4.38202C2.70645 4.4482 2.758 4.5167 2.78904 4.5889C2.79342 4.59878 2.74526 4.60633 2.75089 4.62095C2.77745 4.68973 2.81366 4.76185 2.86396 4.81667C2.87652 4.83018 2.90133 4.80617 2.91175 4.80544C2.97491 4.80135 2.91212 4.86822 2.91303 4.87392C2.93224 5.00983 3.04537 5.0676 3.06931 5.20333C3.07046 5.21076 3.01185 5.30061 3.09354 5.28943C3.099 5.28873 3.18219 5.27648 3.14209 5.32C3.13957 5.32272 3.09556 5.32654 3.11103 5.34915C3.12665 5.37211 3.11992 5.42213 3.17687 5.43589C3.19482 5.44023 3.27901 5.43051 3.23645 5.48962C3.2334 5.49357 3.12642 5.60474 3.22472 5.57924C3.2355 5.57641 3.28075 5.5539 3.30064 5.55736C3.30302 5.56159 3.30917 5.57478 3.31184 5.57883C3.32187 5.57986 3.32602 5.5878 3.31722 5.60884C3.31203 5.62096 3.28441 5.61992 3.28201 5.6455C3.27822 5.68476 3.32384 5.70798 3.30242 5.7655C3.29857 5.77559 3.25072 5.83637 3.30956 5.82999C3.31877 5.82899 3.34597 5.80556 3.3555 5.81439C3.40099 5.85632 3.41067 5.92119 3.4612 5.96094C3.47919 5.97532 3.52333 5.93775 3.54758 5.9496C3.57184 5.96147 3.60667 5.99317 3.59547 6.02617C3.58426 6.05918 3.49283 6.08189 3.50363 6.11567C3.55037 6.2621 3.67018 6.36549 3.75131 6.49277C3.7633 6.51156 3.72596 6.51154 3.74159 6.54035C3.79833 6.6453 3.8766 6.84497 3.98779 6.90112C4.0771 6.94655 4.06179 6.83433 4.11285 6.87875C4.13721 6.89994 4.06246 6.98195 4.06324 6.99007C4.07036 7.07095 4.13618 7.09226 4.15618 7.15653C4.16029 7.1698 4.11654 7.17933 4.12045 7.19039C4.13347 7.22835 4.17045 7.25483 4.18588 7.28908C4.19283 7.30468 4.16293 7.31816 4.17289 7.33061C4.19644 7.36064 4.2248 7.38278 4.26946 7.39944C4.27353 7.40096 4.29777 7.36137 4.31277 7.38474C4.33695 7.4226 4.39058 7.45588 4.38869 7.5157C4.38801 7.5335 4.32342 7.5709 4.38429 7.5737C4.39708 7.57442 4.47042 7.52208 4.4222 7.59397C4.41423 7.606 4.35544 7.71396 4.42959 7.70819C4.44912 7.70669 4.5234 7.68898 4.52246 7.71065C4.52209 7.71373 4.4823 7.72485 4.48642 7.74002C4.50154 7.79312 4.53287 7.8396 4.54886 7.89314C4.55308 7.90751 4.50624 7.90905 4.51376 7.92995C4.53483 7.98826 4.58141 8.04884 4.62177 8.09356C4.63672 8.11001 4.65919 8.08 4.66322 8.07952C4.72863 8.07152 4.66464 8.12508 4.66463 8.13474C4.6655 8.19428 4.71841 8.20932 4.73389 8.25719C4.7382 8.27025 4.69944 8.28129 4.69774 8.28535C4.68183 8.32638 4.73271 8.27363 4.74814 8.28509C4.79155 8.31705 4.81578 8.36601 4.83573 8.41121C4.84301 8.42784 4.79352 8.43265 4.80051 8.44731C4.84034 8.53317 4.89538 8.62114 4.96321 8.68976C4.97611 8.70273 5.00099 8.6758 5.00975 8.67504C5.07083 8.66946 5.02289 8.73925 5.02078 8.75021C5.0109 8.79985 5.04568 8.79848 5.05784 8.83151C5.11652 8.99271 5.23757 9.16396 5.32647 9.29449C5.44393 9.46786 5.55218 9.59069 5.64213 9.76596C5.64783 9.77698 5.60125 9.78914 5.60564 9.79893C5.6661 9.92765 5.74791 10.0345 5.80719 10.1655C5.81201 10.176 5.7655 10.1835 5.77194 10.2011C5.7849 10.2373 5.81053 10.2774 5.84136 10.3031C5.85633 10.3156 5.87702 10.2755 5.8914 10.2885C5.92577 10.3202 5.95205 10.3599 5.96813 10.4023C5.97489 10.4204 5.92147 10.4178 5.9333 10.4396C6.01242 10.5873 6.08858 10.7364 6.22445 10.8566C6.23368 10.8647 6.31831 10.8281 6.31518 10.8581C6.29401 10.8723 6.26798 10.887 6.24478 10.9012C6.35483 11.1234 6.50335 11.3194 6.63031 11.5315C6.63564 11.5404 6.58459 11.5489 6.59468 11.5663C6.65219 11.6655 6.69706 11.771 6.79905 11.8521C6.80893 11.8599 6.88019 11.8125 6.88583 11.8483C6.88613 11.8536 6.90369 11.9072 6.89422 11.928C6.89271 11.931 6.85332 11.9424 6.86078 11.9578C6.90301 12.0438 6.96312 12.1305 7.03348 12.2043C7.04461 12.2157 7.07331 12.1804 7.08154 12.1883C7.14152 12.2477 7.15658 12.3389 7.22804 12.3861C7.27639 12.4183 7.32969 12.3637 7.40603 12.3516C7.41719 12.3506 7.43474 12.378 7.47178 12.3581C7.56552 12.3091 7.65846 12.2385 7.75926 12.1879C7.78129 12.1775 7.77778 12.224 7.81732 12.175C7.82012 12.172 7.82214 12.1364 7.83518 12.1192C7.84432 12.1075 7.88646 12.095 7.896 12.0763C7.90485 12.0563 7.86933 12.0664 7.87837 12.0406C7.88763 12.0146 7.93418 11.9981 7.92026 11.9622ZM2.61718 3.72477C2.66618 3.73266 2.53301 3.80082 2.55215 3.75786C2.55324 3.75571 2.61474 3.72432 2.61718 3.72477ZM1.07484 0.7028C1.14992 0.698306 1.08073 0.770808 1.02403 0.776104C0.967522 0.781659 1.05213 0.704251 1.07484 0.7028ZM0.908007 0.361799C0.974849 0.367103 0.803471 0.492183 0.813679 0.431426C0.81403 0.429123 0.85331 0.399429 0.881093 0.379561L0.894702 0.396318C0.901913 0.389278 0.908262 0.383233 0.912621 0.37933L0.901394 0.365507C0.905059 0.363125 0.907443 0.361756 0.908007 0.361799ZM7.36166 12.2328C7.36363 12.2322 7.37637 12.2506 7.37487 12.2519C7.33954 12.2858 7.31413 12.2492 7.36166 12.2328ZM0.673281 0.139574C0.693682 0.115303 0.71489 0.159098 0.688211 0.187025C0.668794 0.209865 0.650714 0.170122 0.673281 0.139574ZM3.39387 4.98548C3.39607 4.98491 3.40486 4.9987 3.39335 5.00382C3.35625 5.02028 3.35687 4.99498 3.39387 4.98548ZM0.0942972 0.266465C0.176416 0.220746 0.162668 0.036478 0.0728589 0.0970632C0.0568753 0.108018 0.132911 0.131665 0.117148 0.155847C0.0882665 0.19999 0.0169513 0.111564 5.52271e-05 0.184059C-0.00263947 0.197132 0.0897364 0.269409 0.0945528 0.266618C0.0944675 0.266567 0.0943825 0.266516 0.0942972 0.266465ZM2.7863 3.66209C2.78832 3.66174 2.79979 3.68144 2.79826 3.68278C2.76071 3.71432 2.73757 3.67466 2.7863 3.66209ZM3.91642 5.78773C3.92071 5.78677 3.95016 5.83074 3.94762 5.83414C3.89366 5.89637 3.83391 5.80758 3.91642 5.78773ZM2.21829 2.24133C2.24991 2.19774 2.24167 2.16871 2.17926 2.17806C2.19307 2.1985 2.20456 2.22042 2.21829 2.24133Z" fill="#3C8634"/>
</svg>
