<svg width="3" height="11" viewBox="0 0 3 11" fill="none" xmlns="http://www.w3.org/2000/svg">
<path d="M0.00135734 0.46992C0.0236572 0.526503 0.0782645 0.584281 0.126377 0.623833C0.14146 0.636342 0.158657 0.614071 0.170085 0.622108C0.192413 0.637879 0.194058 0.66472 0.217736 0.679274C0.225698 0.68404 0.25573 0.652942 0.263279 0.658478C0.304369 0.688964 0.319242 0.733272 0.352039 0.769912C0.513867 0.950849 0.643508 1.14899 0.771041 1.35627C0.812964 1.42435 0.890469 1.49523 0.910963 1.57736C0.913322 1.58696 0.877551 1.59753 0.875595 1.60049C0.845836 1.64632 0.909012 1.6059 0.925972 1.61876C0.992947 1.6696 1.03073 1.74493 1.04639 1.81654C1.05298 1.84715 0.973601 1.84808 1.02351 1.85998C1.02691 1.86085 1.05976 1.8382 1.06692 1.84428C1.08313 1.8581 1.09085 1.89413 1.09941 1.90651C1.11609 1.93029 1.11761 1.93497 1.12832 1.95973C1.14328 1.99351 1.17766 2.02669 1.18401 2.06697C1.18524 2.07558 1.14383 2.07989 1.14239 2.09488C1.14098 2.10988 1.15696 2.14164 1.17005 2.14941C1.18316 2.15718 1.21079 2.14117 1.2183 2.14057C1.28159 2.1352 1.21715 2.20386 1.21698 2.20946C1.21719 2.31207 1.28981 2.37362 1.31828 2.4598C1.33981 2.52534 1.34661 2.59994 1.36732 2.66178C1.39205 2.73518 1.43083 2.79294 1.44647 2.86711C1.44816 2.87492 1.40017 2.87785 1.40212 2.88735C1.42271 2.98801 1.45089 3.08532 1.50293 3.17923C1.50819 3.18863 1.54604 3.16723 1.55373 3.17618C1.59996 3.23062 1.69901 3.31739 1.52737 3.3847C1.54148 3.42547 1.55655 3.47465 1.59801 3.50746C1.62467 3.52857 1.66596 3.49842 1.65116 3.53135C1.64785 3.53875 1.6075 3.53536 1.60549 3.54597C1.59702 3.59039 1.61561 3.63569 1.60002 3.68014C1.59676 3.68917 1.56131 3.69071 1.55524 3.69382C1.50615 3.71942 1.59443 3.74413 1.60132 3.75118C1.65282 3.80341 1.63806 3.84657 1.64275 3.89941C1.64383 3.91166 1.59544 3.90032 1.59477 3.91212C1.59187 3.97301 1.59874 4.03552 1.62128 4.09429C1.6264 4.10744 1.6666 4.09427 1.67112 4.10056C1.6905 4.12858 1.6141 4.13604 1.63092 4.16256C1.63435 4.16818 1.669 4.1647 1.67281 4.16571C1.73273 4.18164 1.64804 4.19625 1.64618 4.20029C1.62059 4.25248 1.70848 4.28767 1.69443 4.33886C1.69291 4.34402 1.66123 4.33383 1.6504 4.34119C1.64851 4.34241 1.64726 4.34413 1.64691 4.34654C1.63106 4.45586 1.63122 4.57596 1.65133 4.69427C1.65436 4.71281 1.6887 4.70434 1.69259 4.70597C1.75309 4.73298 1.66722 4.73309 1.66326 4.73844C1.63425 4.78068 1.69842 4.83405 1.5935 4.84983C1.59852 5.04836 1.50632 5.23069 1.55754 5.44113C1.5581 5.44378 1.60006 5.44747 1.60099 5.45272C1.61247 5.51615 1.55079 5.4923 1.46493 5.51586C1.44337 5.52175 1.53171 5.57035 1.53808 5.57441C1.56162 5.58914 1.62473 5.59136 1.62902 5.59558C1.66238 5.63011 1.46116 5.58527 1.45385 5.62136C1.45396 5.62255 1.4921 5.6253 1.49519 5.62906C1.50492 5.64077 1.48827 5.6471 1.49922 5.65886C1.52461 5.68587 1.62128 5.71317 1.55763 5.73393C1.54939 5.7365 1.43603 5.7072 1.43495 5.74045C1.43463 5.75369 1.42115 5.81029 1.42536 5.82774C1.42956 5.84516 1.4687 5.84168 1.47007 5.84314C1.51025 5.8959 1.53377 5.88372 1.60174 5.91979C1.66944 5.9558 1.49883 5.91525 1.47789 5.92018C1.45699 5.92515 1.49097 5.96472 1.50343 5.97527C1.51589 5.98582 1.5413 5.98088 1.54785 5.98935C1.59055 6.04531 1.45854 5.99229 1.42826 6.00188C1.35657 6.02453 1.47853 6.07759 1.48462 6.11249C1.48625 6.12194 1.45863 6.10904 1.45437 6.11633C1.43788 6.1453 1.474 6.17179 1.43063 6.19997C1.42356 6.20457 1.34129 6.21829 1.39402 6.24775C1.40164 6.25194 1.43488 6.25061 1.43945 6.26523C1.44633 6.2871 1.4465 6.32398 1.43185 6.34323C1.42101 6.3575 1.37197 6.32955 1.38453 6.35247C1.39015 6.36265 1.42389 6.35209 1.4319 6.37071C1.43991 6.38925 1.43079 6.43088 1.42681 6.44669C1.42279 6.46249 1.38457 6.44646 1.38165 6.44726C1.36484 6.45228 1.34005 6.4796 1.33961 6.48233C1.30997 6.61906 1.35601 6.75699 1.31405 6.88795C1.31082 6.89825 1.26959 6.88509 1.26867 6.8866C1.24574 6.92027 1.36218 6.9079 1.39623 6.93828C1.31098 6.92247 1.32435 6.93971 1.31144 6.96395C1.30516 6.97563 1.27283 6.96441 1.26928 6.96507C1.21629 6.97661 1.27985 6.9981 1.29277 7.00307C1.3403 7.02142 1.28056 7.02721 1.31234 7.03969C1.3439 7.05203 1.39459 7.03934 1.39091 7.06358C1.35928 7.06661 1.28114 7.03829 1.26578 7.05539C1.21481 7.11136 1.24591 7.22736 1.25664 7.29245C1.25812 7.30194 1.25917 7.31048 1.25946 7.31778C1.26195 7.3766 1.25578 7.39466 1.26577 7.42898C1.28443 7.49034 1.22494 7.46636 1.19698 7.50479C1.16935 7.54377 1.31737 7.52454 1.34916 7.53C1.38095 7.53504 1.34825 7.54077 1.36578 7.54707C1.3833 7.55327 1.4048 7.53945 1.41149 7.55419C1.41811 7.56864 1.36246 7.61108 1.32943 7.61738C1.25937 7.63088 1.18477 7.6139 1.21218 7.65463C1.21381 7.65695 1.25239 7.64781 1.25666 7.65673C1.28932 7.7274 1.29615 7.80074 1.32895 7.86898C1.33351 7.87827 1.37582 7.86573 1.37897 7.87105C1.41203 7.92625 1.33747 7.91258 1.26024 7.95356C1.36676 7.93496 1.43407 7.94539 1.43981 7.9887C1.44336 8.01487 1.39607 8.01602 1.36526 8.03725C1.35597 8.04367 1.39047 8.05823 1.36895 8.0645C1.29867 8.08525 1.2158 8.07796 1.25418 8.12024C1.25598 8.12207 1.29435 8.11014 1.2977 8.11683C1.31961 8.15947 1.24544 8.17594 1.24403 8.22666C1.24291 8.26642 1.30002 8.32704 1.31537 8.36882C1.43451 8.34632 1.41455 8.39115 1.33565 8.42348C1.34436 8.45082 1.34573 8.48198 1.36259 8.50661C1.36835 8.51509 1.40149 8.50192 1.40545 8.50233C1.46739 8.50804 1.39027 8.53659 1.38843 8.54331C1.37194 8.61502 1.44397 8.65402 1.39999 8.72945C1.3984 8.7321 1.31734 8.7554 1.38115 8.75762C1.38553 8.75766 1.41785 8.72829 1.42777 8.75661C1.43771 8.78503 1.49509 8.82816 1.46781 8.87786C1.46122 8.88977 1.40169 8.93216 1.45864 8.93801C1.46635 8.93874 1.4889 8.92957 1.50289 8.92982C1.54752 8.93069 1.46721 8.95983 1.54087 8.95484C1.6145 8.94973 1.67472 8.96422 1.63806 9.01711C1.63703 9.01876 1.57488 9.04678 1.5796 9.05912C1.58715 9.07868 1.60903 9.10286 1.61487 9.12351C1.61767 9.13353 1.57565 9.13938 1.57544 9.14134C1.57361 9.21559 1.62438 9.25188 1.66355 9.31764C1.67078 9.32962 1.62943 9.3854 1.68104 9.39591C1.73741 9.40693 1.92127 9.31037 1.89709 9.38782C1.88739 9.4185 1.65478 9.54219 1.79863 9.53936C1.80137 9.63918 1.89811 9.69162 1.89341 9.79564C1.89325 9.79968 1.84741 9.83258 1.83897 9.84676C1.83711 9.84764 1.83661 9.84929 1.83723 9.8504C1.8444 9.86296 1.87888 9.85716 1.885 9.86607C1.9114 9.90309 1.89861 9.95137 1.91778 9.98953C1.925 10.0041 1.95598 9.98645 1.9646 10.0039C1.97317 10.0212 1.93426 10.0496 1.9645 10.0662C1.98753 10.0787 2.08292 10.0629 2.10241 10.0818C2.01605 10.1175 2.02423 10.1332 2.01408 10.1722C2.01212 10.1798 1.97961 10.1865 1.97716 10.1908C1.9666 10.2087 1.9958 10.208 1.98395 10.226C1.98113 10.2304 1.95216 10.2438 1.94826 10.2482C1.91409 10.2867 1.99393 10.2861 2.00742 10.2848C2.0318 10.2837 2.0376 10.2888 2.03953 10.2955C2.04169 10.3031 2.03884 10.3126 2.05175 10.3152C2.07592 10.3199 2.08452 10.2878 2.10341 10.298C2.14221 10.3185 2.16342 10.3604 2.18671 10.3905C2.19579 10.4026 2.1552 10.419 2.15569 10.4213C2.16584 10.454 2.22117 10.4516 2.16547 10.518C2.3515 10.3995 2.16068 10.5467 2.22456 10.5553C2.22967 10.5559 2.31236 10.4931 2.3156 10.473C2.3189 10.4531 2.28084 10.4577 2.28803 10.4284C2.28948 10.4213 2.35149 10.3426 2.35448 10.3368C2.37642 10.2896 2.2499 10.379 2.24206 10.3828C2.15819 10.424 2.22548 10.3376 2.22761 10.3277C2.23536 10.2802 2.2017 10.2673 2.20819 10.2309C2.21102 10.2152 2.25148 10.1877 2.27557 10.1685C2.28754 10.1589 2.29546 10.1514 2.29259 10.1481C2.26478 10.1166 2.12746 10.1567 2.22242 10.066C2.24278 10.0466 2.34929 10.0141 2.25529 10.0144C2.24944 10.0146 2.16505 10.0183 2.2064 9.9849C2.21163 9.98073 2.24188 9.96925 2.24348 9.9658C2.25356 9.94289 2.22518 9.94063 2.22961 9.91725C2.23405 9.8939 2.2425 9.86385 2.22346 9.84459C2.21204 9.83295 2.14879 9.83647 2.13244 9.83516C2.08555 9.83184 2.14201 9.78535 2.08938 9.7927C2.03668 9.80063 1.97324 9.85279 1.93004 9.83593C2.00711 9.80236 2.08555 9.76629 2.16259 9.73142C2.15913 9.72403 2.1554 9.71676 2.15142 9.70951C2.11832 9.65446 2.07548 9.61026 2.05652 9.55573C2.05393 9.54804 2.09885 9.53842 2.09718 9.52978C2.0903 9.49419 2.04836 9.47589 2.04694 9.43653C2.04581 9.40548 2.07945 9.35888 2.0804 9.3263C1.98348 9.34139 1.99896 9.28775 1.97971 9.25881C1.97308 9.24888 1.94903 9.25795 1.93842 9.25281C1.89894 9.23304 1.9842 9.21969 1.99413 9.20731C2.03661 9.15438 1.85305 9.21223 1.84386 9.16841C1.84328 9.16607 1.93224 9.1075 1.93726 9.10214C1.96962 9.06626 1.902 9.10902 1.89014 9.09654C1.86851 9.07376 1.83911 9.06147 1.85836 9.0211C1.86406 9.00917 1.91879 8.96892 1.86605 8.96464C1.85914 8.96405 1.82698 8.97485 1.82451 8.97349C1.78265 8.94787 1.88481 8.91752 1.91397 8.8881C1.94312 8.85863 1.86396 8.84806 1.84179 8.84723C1.78442 8.84522 1.82261 8.86596 1.81767 8.86825C1.75881 8.89568 1.76322 8.87021 1.75332 8.85424C1.65181 8.87898 1.65124 8.8526 1.74347 8.83755C1.75355 8.83594 1.74777 8.852 1.75332 8.85424C1.84811 8.81219 1.85394 8.78322 1.75365 8.77784C1.70665 8.77524 1.65926 8.8014 1.66705 8.75419C1.67061 8.73289 1.74223 8.72285 1.7571 8.70139C1.79108 8.65256 1.71405 8.61854 1.71531 8.57624C1.71579 8.56098 1.75735 8.5663 1.75902 8.55564C1.76362 8.52743 1.72974 8.51083 1.73894 8.48149C1.73983 8.47883 1.78136 8.47599 1.78015 8.46781C1.7719 8.40576 1.7354 8.35752 1.72293 8.29336C1.71687 8.2623 1.72975 8.20313 1.72015 8.17187C1.70362 8.1179 1.63444 8.05739 1.64283 8.00749C1.64817 7.97526 1.68996 7.97701 1.71624 7.96048C1.76721 7.92883 1.66558 7.89532 1.64992 7.89027C1.64939 7.89012 1.64255 7.91791 1.62 7.90585C1.57527 7.90203 1.64976 7.89056 1.64992 7.89027C1.63973 7.88721 1.6253 7.83476 1.63233 7.82358C1.63613 7.81743 1.67531 7.81733 1.67656 7.81422C1.70538 7.74077 1.71123 7.67182 1.69111 7.60295C1.69029 7.60175 1.64667 7.60476 1.64529 7.6019C1.62485 7.561 1.67814 7.53484 1.71007 7.50234C1.74205 7.47021 1.73216 7.44595 1.65798 7.42366C1.6683 7.39979 1.63723 7.36297 1.61875 7.34121C1.61031 7.33133 1.6234 7.32677 1.6403 7.32474C1.66051 7.32196 1.68613 7.32281 1.68713 7.32188C1.7458 7.26843 1.70076 7.23017 1.70027 7.16727C1.69982 7.13778 1.71936 7.0805 1.73283 7.05019C1.7436 7.02611 1.72596 7.00815 1.74189 6.98647C1.74402 6.98354 1.78105 6.99205 1.78263 6.99128C1.83113 6.97198 1.73776 6.97122 1.72216 6.96353C1.66548 6.93553 1.63558 6.91856 1.66865 6.8889C1.67626 6.88186 1.81138 6.87985 1.82125 6.86715C1.83386 6.85054 1.7856 6.84997 1.80006 6.83265C1.80126 6.83115 1.8303 6.83614 1.83091 6.82413C1.83407 6.76878 1.82727 6.70594 1.8402 6.6493C1.84186 6.64152 1.88614 6.65962 1.88929 6.64855C1.90403 6.59669 1.91289 6.53828 1.90102 6.48261C1.89796 6.46884 1.8643 6.47083 1.85526 6.46628C1.80065 6.43841 1.88918 6.42991 1.89153 6.42624C1.94983 6.33901 1.88826 6.25108 1.94375 6.16053C1.94693 6.15561 2.04488 6.13262 1.97153 6.09892C1.96666 6.09665 1.8915 6.06275 1.94858 6.05752C1.95215 6.05721 1.99044 6.07663 1.99026 6.05611C1.99009 6.03561 2.02357 6.00925 1.98449 5.97312C1.97219 5.96168 1.8977 5.92557 1.96554 5.91246C1.97025 5.91166 2.11989 5.90053 2.02504 5.86663C2.00942 5.86108 1.90554 5.84261 1.96475 5.82262C1.97622 5.8188 1.99712 5.83416 2.01466 5.82154C2.04165 5.80222 2.02031 5.76515 2.07224 5.74523C2.08142 5.74179 2.15601 5.734 2.10622 5.70583C2.09843 5.70142 2.06286 5.69971 2.06084 5.68971C2.05105 5.64229 2.08337 5.60052 2.06824 5.55119C2.06295 5.53372 2.00549 5.5309 1.99377 5.51136C1.98206 5.49182 1.97415 5.45573 2.00302 5.44342C2.03191 5.43106 2.11734 5.46725 2.1295 5.44253C2.18231 5.3348 2.15109 5.21109 2.16305 5.09397C2.1648 5.07664 2.19443 5.09625 2.19927 5.07107C2.21763 4.97797 2.27242 4.8161 2.21389 4.722C2.16701 4.64824 2.11525 4.7278 2.09893 4.67396C2.09114 4.64801 2.19886 4.63247 2.2028 4.62661C2.24254 4.56975 2.19962 4.52368 2.21766 4.46908C2.22137 4.45785 2.26331 4.47185 2.26599 4.46217C2.2753 4.42995 2.25905 4.39247 2.26248 4.36081C2.26256 4.36009 2.26265 4.35938 2.26275 4.35867C2.26484 4.34473 2.29741 4.34826 2.29524 4.33521C2.29041 4.30403 2.27716 4.27623 2.24682 4.24591C2.24405 4.24319 2.20328 4.26112 2.20196 4.23852C2.19991 4.2018 2.16954 4.15739 2.19996 4.115C2.20911 4.10247 2.28375 4.10019 2.23157 4.07453C2.22064 4.06914 2.13132 4.07884 2.20779 4.04562C2.22055 4.04035 2.32302 3.98323 2.25445 3.96017C2.23643 3.95409 2.16234 3.94058 2.17304 3.92529C2.17477 3.92317 2.21524 3.92908 2.21846 3.91651C2.2291 3.87227 2.22169 3.82655 2.23058 3.78092C2.23303 3.76868 2.27584 3.78317 2.27814 3.76494C2.28453 3.71474 2.26792 3.65359 2.24964 3.60736C2.24282 3.59025 2.21005 3.60633 2.20619 3.60545C2.14344 3.59191 2.22355 3.57039 2.22747 3.56289C2.25077 3.51665 2.2083 3.48938 2.21299 3.4491C2.21416 3.43796 2.254 3.44013 2.25715 3.4375C2.28774 3.41031 2.22051 3.43687 2.21082 3.42389C2.18342 3.38752 2.17983 3.34381 2.17822 3.30344C2.17768 3.2886 2.22518 3.29753 2.22416 3.28423C2.21887 3.20502 2.19951 3.12536 2.15961 3.0557C2.15202 3.04264 2.11962 3.05855 2.1112 3.05725C2.05241 3.0487 2.1207 3.00376 2.12629 2.99532C2.15196 2.95741 2.11907 2.95193 2.11858 2.92371C2.11662 2.78438 2.05402 2.62698 2.0058 2.5084C1.94315 2.35355 1.87179 2.24315 1.82731 2.09269C1.82444 2.08317 1.87159 2.07691 1.86965 2.06846C1.84247 1.95975 1.78628 1.8638 1.757 1.75578C1.75451 1.74693 1.80033 1.7426 1.79767 1.72778C1.79252 1.69727 1.77557 1.66254 1.75077 1.63988C1.73878 1.62884 1.71161 1.6618 1.70026 1.65045C1.67376 1.62407 1.65631 1.5913 1.64855 1.55581C1.64532 1.54065 1.69583 1.54366 1.68838 1.5253C1.63867 1.4005 1.58957 1.27626 1.47777 1.18074C1.47009 1.17416 1.38432 1.20736 1.39144 1.18211C1.41358 1.16951 1.44042 1.15631 1.46449 1.14368C1.39122 0.962697 1.27262 0.807785 1.17256 0.641963C1.16834 0.634953 1.21754 0.623227 1.20956 0.609493C1.16331 0.529912 1.12953 0.445914 1.03964 0.390585C1.03079 0.385094 0.960237 0.43342 0.957163 0.403528C0.956705 0.398211 0.945033 0.357342 0.955206 0.338557C0.956824 0.335855 0.994713 0.321342 0.988717 0.309413C0.953279 0.240485 0.902271 0.176874 0.840093 0.125658C0.830005 0.117453 0.801531 0.151581 0.794049 0.14596C0.741358 0.106083 0.730779 0.0315545 0.665643 0.00379648C0.621922 -0.0146475 0.569316 0.0386156 0.497826 0.0618683C0.487746 0.0651504 0.472763 0.0460019 0.437342 0.0686664C0.348266 0.125619 0.259143 0.200322 0.16341 0.259873C0.142815 0.27272 0.146709 0.232119 0.108774 0.280515C0.106273 0.283802 0.102944 0.313456 0.0895975 0.329217C0.0803895 0.340134 0.0411428 0.358422 0.0309821 0.374793C0.0208182 0.391135 0.0553143 0.378169 0.0454355 0.400502C0.0353126 0.422948 -0.00816495 0.445403 0.00135734 0.46992ZM1.53793 7.23615C1.49939 7.21141 1.64844 7.2239 1.61064 7.24205C1.60864 7.24292 1.53982 7.23742 1.53793 7.23615ZM1.9749 9.66182C1.90336 9.66256 1.98593 9.60859 2.03997 9.60558C2.09385 9.60228 1.9965 9.66136 1.9749 9.66182ZM2.04381 9.9517C1.98364 9.9394 2.18014 9.85948 2.15255 9.90792C2.151 9.9107 2.04731 9.95243 2.04381 9.9517ZM0.534498 0.153296C0.532683 0.154148 0.521439 0.140779 0.522841 0.139341C0.557178 0.105228 0.579726 0.132109 0.534498 0.153296ZM2.10136 10.2288C2.0712 10.2329 2.08886 10.193 2.12627 10.1885C2.15605 10.1845 2.13844 10.2231 2.10136 10.2288ZM1.55605 6.12752C1.55393 6.12676 1.55436 6.11428 1.56667 6.11697C1.6063 6.12567 1.59175 6.14025 1.55605 6.12752ZM2.37681 10.611C2.32425 10.5627 2.16205 10.6423 2.22898 10.6899C2.24104 10.6984 2.25111 10.63 2.27497 10.6335C2.31832 10.6397 2.24989 10.7286 2.31647 10.7152C2.3286 10.7127 2.38009 10.6134 2.37691 10.6107C2.37688 10.6108 2.37684 10.6109 2.37681 10.611ZM1.36042 7.20611C1.35849 7.2055 1.35837 7.18844 1.36037 7.18823C1.40853 7.18413 1.40882 7.21822 1.36042 7.20611ZM1.60644 5.40418C1.6025 5.40243 1.60614 5.36298 1.61018 5.36248C1.69034 5.35695 1.68316 5.43699 1.60644 5.40418ZM1.31867 8.36892C1.27509 8.39618 1.27382 8.41987 1.33557 8.42341C1.3289 8.40553 1.32497 8.38707 1.31867 8.36892Z" fill="#963076"/>
</svg>
