<svg width="8" height="9" viewBox="0 0 8 9" fill="none" xmlns="http://www.w3.org/2000/svg">
<path d="M4.47128 0.659677C4.55478 0.743419 4.68396 0.832751 4.78728 0.895556C4.81947 0.915142 4.82226 0.882719 4.84534 0.895449C4.89084 0.920732 4.91779 0.96105 4.96412 0.984913C4.97955 0.992716 4.99132 0.94737 5.00675 0.956189C5.09114 1.00478 5.15275 1.07307 5.23138 1.13089C5.61943 1.41683 5.97775 1.72856 6.33671 2.05633C6.45491 2.16439 6.61896 2.27646 6.71909 2.40709C6.73056 2.42216 6.69603 2.43924 6.69627 2.44393C6.7016 2.51756 6.74286 2.45282 6.77516 2.47304C6.77777 2.47468 6.78037 2.47633 6.78296 2.47799C6.87586 2.52137 6.92581 2.63096 6.92161 2.73927C6.91956 2.78578 6.84312 2.74515 6.88687 2.78787C6.88978 2.79112 6.92837 2.77717 6.93308 2.79033C6.94409 2.81979 6.93489 2.88 6.93545 2.90487C6.93694 2.95448 6.93549 2.9614 6.92832 3.00898C6.91885 3.07205 6.91888 3.15598 6.8895 3.22365C6.8831 3.2381 6.85058 3.2069 6.83692 3.2286C6.82322 3.25096 6.80632 3.31286 6.80732 3.3379C6.80873 3.36227 6.84161 3.36381 6.84708 3.37002C6.89357 3.42192 6.78546 3.46706 6.77996 3.47464C6.67845 3.6314 6.65172 3.79687 6.56927 3.95577C6.50641 4.07629 6.42196 4.19596 6.35904 4.31023C6.28422 4.4464 6.23523 4.5715 6.15351 4.70021C6.14492 4.71381 6.11422 4.67335 6.10366 4.68989C5.99384 4.86183 5.89115 5.03819 5.81051 5.22947C5.80783 5.23519 5.80524 5.24091 5.80274 5.24664C5.79163 5.27303 5.84525 5.26185 5.83714 5.28838C5.77617 5.46143 5.85475 5.68273 5.68234 5.77616C5.69505 5.87569 5.71655 5.97915 5.75828 6.04684C5.78504 6.0908 5.82718 6.04341 5.81127 6.10107C5.80754 6.11376 5.76741 6.09957 5.76469 6.11783C5.76128 6.14007 5.75952 6.16185 5.75767 6.18287C5.75186 6.26597 5.76422 6.34989 5.76942 6.42881C5.7709 6.45156 5.73532 6.45497 5.73089 6.46304C5.69594 6.53376 5.81084 6.58974 5.82366 6.60124C5.92449 6.70867 5.9616 6.7926 6.03563 6.88715C6.05288 6.90855 5.99532 6.91248 6.01084 6.93431C6.09289 7.04767 6.19271 7.14481 6.29746 7.21842C6.32088 7.23469 6.33084 7.18769 6.34344 7.19394C6.39844 7.22144 6.35471 7.28545 6.40651 7.31218C6.41734 7.31785 6.43651 7.2882 6.44069 7.28693C6.50613 7.26677 6.4686 7.34796 6.4735 7.35521C6.53391 7.44803 6.64441 7.43079 6.70777 7.51182C6.71515 7.5215 6.66499 7.53324 6.68744 7.5584C6.75076 7.62981 6.81529 7.70049 6.87381 7.76978C6.99359 7.90966 7.11892 7.97059 7.19024 8.03444C7.20916 8.05107 7.22574 8.01796 7.22976 8.01652C7.24738 8.01287 7.25678 8.01525 7.26052 8.02018C7.27222 8.03597 7.2362 8.06953 7.23679 8.07591C7.24796 8.13384 7.31322 8.21526 7.21343 8.18515C7.21611 8.18299 7.22109 8.17758 7.22672 8.17419C7.24286 8.2029 7.08575 8.19265 6.95846 8.12597C6.82503 8.065 6.68891 7.98514 6.54061 7.91971C6.5018 7.90281 6.45612 7.88371 6.41635 7.87057C6.41158 7.86878 6.39668 7.90895 6.38722 7.90521C6.27437 7.86142 6.32907 7.81904 6.30446 7.70908C6.2981 7.68135 6.19734 7.7312 6.18823 7.73376C6.15737 7.74491 6.14147 7.80866 6.1331 7.8093C6.06604 7.81342 6.18639 7.64572 6.12325 7.60538C6.12108 7.6044 6.10903 7.64171 6.10167 7.64149C6.07959 7.64145 6.07264 7.61913 6.05002 7.62018C5.99813 7.62288 5.93035 7.69843 5.90845 7.61519C5.90548 7.6043 5.97982 7.51309 5.921 7.48193C5.8998 7.47108 5.80202 7.40584 5.77295 7.39609C5.74238 7.38539 5.74014 7.42877 5.73738 7.42893C5.63822 7.42427 5.6542 7.45914 5.57721 7.49722C5.50199 7.53609 5.60686 7.3952 5.60296 7.36938C5.59911 7.34366 5.52334 7.34356 5.50203 7.34677C5.48094 7.35013 5.48434 7.38087 5.46842 7.38018C5.36436 7.37566 5.4827 7.28574 5.47287 7.24619C5.44865 7.1519 5.33218 7.23114 5.27065 7.20619C5.25394 7.19938 5.28224 7.18251 5.27051 7.17155C5.22255 7.12758 5.17193 7.14293 5.1324 7.07254C5.12596 7.06108 5.1205 6.96402 5.05896 6.99218C5.05008 6.99624 5.04462 7.03141 5.01871 7.02306C4.98047 7.01094 4.91458 6.976 4.88669 6.94461C4.86524 6.92084 4.92434 6.89592 4.88256 6.88819C4.86393 6.88475 4.87371 6.92864 4.8401 6.91997C4.80689 6.91158 4.73605 6.86302 4.71121 6.84523C4.68556 6.82689 4.72231 6.80269 4.7217 6.79902C4.71756 6.77753 4.67745 6.72744 4.67283 6.72442C4.44918 6.56975 4.20304 6.48673 3.99604 6.31933C3.97987 6.30631 4.01522 6.27869 4.013 6.27634C3.96421 6.22169 3.94699 6.34712 3.88438 6.35058C3.93896 6.28292 3.90586 6.27943 3.86914 6.24301C3.85168 6.22553 3.88152 6.20524 3.88159 6.20114C3.88102 6.13916 3.82351 6.17962 3.81065 6.18715C3.76329 6.21482 3.77488 6.15192 3.74287 6.17016C3.71098 6.18818 3.71439 6.24945 3.6748 6.22171C3.68106 6.18844 3.7564 6.14173 3.73345 6.11018C3.64758 5.99157 3.40032 5.89896 3.30493 5.84108C3.20942 5.78319 3.18473 5.75911 3.12501 5.73137C3.01745 5.68144 3.08629 5.656 3.04334 5.59265C2.99999 5.52898 2.94417 5.67035 2.91751 5.69055C2.89098 5.71081 2.90053 5.67758 2.8801 5.68465C2.8597 5.69173 2.86989 5.72519 2.84164 5.7135C2.81342 5.70183 2.77827 5.60834 2.78852 5.57493C2.81072 5.50449 2.88298 5.4648 2.80393 5.44122C2.79935 5.4399 2.78905 5.48017 2.77264 5.47348C2.64245 5.41894 2.52424 5.33811 2.3959 5.2799C2.37817 5.27191 2.36715 5.3171 2.35655 5.31285C2.24612 5.26869 2.32247 5.2333 2.31797 5.13079C2.26708 5.22693 2.20077 5.26087 2.12891 5.21062C2.08564 5.1804 2.12032 5.14725 2.11167 5.10035C2.1091 5.08624 2.06045 5.09132 2.06782 5.06936C2.09186 4.99756 2.16732 4.9518 2.0756 4.92604C2.0715 4.925 2.05869 4.96456 2.04621 4.95861C1.9655 4.9203 2.00016 4.85196 1.92849 4.78934C1.87957 4.74656 1.77044 4.71067 1.6941 4.67264C1.68299 4.66709 1.67269 4.66157 1.66346 4.65605C1.59345 4.75514 1.54562 4.68599 1.56865 4.59894C1.52343 4.5698 1.47875 4.53035 1.42945 4.50713C1.41257 4.49915 1.4007 4.53429 1.39656 4.5359C1.33246 4.56171 1.36338 4.48262 1.35594 4.47275C1.27528 4.37 1.1546 4.35067 1.10667 4.22521C1.10522 4.22088 1.15713 4.15439 1.09259 4.17795C1.08809 4.17949 1.08988 4.23421 1.04785 4.19812C1.00634 4.16271 0.896851 4.11388 0.888353 4.03022C0.884661 4.00796 0.926505 3.94605 0.868685 3.94196C0.860566 3.94086 0.839348 3.9533 0.824622 3.95196C0.776676 3.94279 0.857017 3.91494 0.78222 3.90136C0.74122 3.89237 0.705754 3.86467 0.689673 3.8348C0.675745 3.8073 0.675554 3.77318 0.697915 3.73492C0.699338 3.73213 0.766552 3.71224 0.765633 3.68701C0.763999 3.64662 0.751703 3.58831 0.754465 3.54576C0.755795 3.52545 0.796937 3.54078 0.797893 3.5373C0.829273 3.40397 0.802793 3.30491 0.80498 3.15697C0.805288 3.1299 0.872006 3.06072 0.834019 3.00315C0.792301 2.94018 0.581142 2.97105 0.645895 2.84898C0.671451 2.80103 0.939258 2.76174 0.812708 2.65399C0.86104 2.47191 0.794394 2.30573 0.812639 2.12235C0.81349 2.11428 0.880599 2.07519 0.875497 2.05525C0.871704 2.04063 0.860377 2.03111 0.849226 2.0229C0.837233 2.01385 0.82599 2.00765 0.821925 1.99809C0.786844 1.91782 0.790812 1.83304 0.760427 1.75446C0.748938 1.72465 0.718918 1.74599 0.705188 1.71085C0.691313 1.67539 0.72713 1.63643 0.689112 1.59513C0.66009 1.56368 0.558099 1.55946 0.530228 1.51564C0.617271 1.48167 0.603559 1.44928 0.603874 1.38164C0.603998 1.36872 0.638984 1.36896 0.640599 1.36223C0.647601 1.33395 0.614705 1.32409 0.623184 1.29632C0.625212 1.28963 0.654701 1.27742 0.658009 1.27125C0.687202 1.21784 0.596137 1.18747 0.580414 1.18295C0.520508 1.16454 0.550541 1.13042 0.520145 1.10948C0.489977 1.08932 0.488572 1.14104 0.462975 1.1135C0.409807 1.05607 0.370358 0.970425 0.329165 0.908551C0.312872 0.883787 0.359545 0.877694 0.358052 0.873621C0.339902 0.831172 0.296508 0.807234 0.288869 0.768726C0.285569 0.753304 0.288061 0.735101 0.300273 0.71205C0.103884 0.818565 0.291065 0.669686 0.203948 0.627579C0.1972 0.624365 0.107223 0.677376 0.112545 0.710017C0.118047 0.742795 0.170619 0.756486 0.176906 0.801029C0.177881 0.807824 0.16128 0.852656 0.148858 0.885703C0.139175 0.900818 0.132294 0.914313 0.131855 0.917166C0.120635 0.97815 0.251064 0.895715 0.259938 0.893246C0.354089 0.867268 0.298154 0.976354 0.2986 0.992047C0.305127 1.06925 0.351611 1.11336 0.356018 1.17797C0.359015 1.22045 0.267839 1.26557 0.282896 1.29165C0.332136 1.37854 0.477628 1.36108 0.398237 1.49689C0.381132 1.5259 0.269988 1.54496 0.377608 1.58448C0.384364 1.5868 0.47868 1.6127 0.441684 1.66007C0.43702 1.66602 0.406438 1.67658 0.405638 1.68253C0.400821 1.72213 0.432989 1.73649 0.43374 1.77746C0.434561 1.81868 0.431671 1.86887 0.455886 1.90847C0.470326 1.93196 0.538389 1.94736 0.556349 1.95535C0.608088 1.97825 0.553067 2.03653 0.608992 2.04345C0.665249 2.05061 0.727142 1.9839 0.776988 2.03314C0.711425 2.0549 0.644997 2.07897 0.579072 2.1023L0.574633 2.08549C0.559964 2.08946 0.545317 2.09337 0.53071 2.09722C0.557296 2.20082 0.594342 2.30998 0.589928 2.43044C0.589266 2.44527 0.54422 2.4298 0.542297 2.44543C0.534164 2.51093 0.562932 2.57232 0.543908 2.64405C0.528974 2.69951 0.474573 2.75668 0.455216 2.81579C0.546299 2.86443 0.501866 2.95273 0.501498 3.02259C0.501345 3.04709 0.527036 3.04878 0.533106 3.06705C0.555428 3.13609 0.475076 3.09478 0.459502 3.11106C0.393128 3.18188 0.583038 3.21188 0.568377 3.30306C0.567629 3.30761 0.459553 3.35817 0.452476 3.36649C0.406191 3.41712 0.487185 3.37861 0.491879 3.41297C0.500737 3.47606 0.522265 3.51973 0.489485 3.59231C0.479785 3.61306 0.414521 3.66503 0.464143 3.70827C0.470632 3.71389 0.504522 3.71069 0.506524 3.71513C0.540213 3.79469 0.435896 3.79984 0.401392 3.84971C0.401178 3.84988 0.400967 3.85006 0.400758 3.85024C0.3625 3.87206 0.453843 4.02154 0.48453 4.03236C0.555354 4.07853 0.493457 3.97894 0.500203 3.97315C0.556964 3.92426 0.557538 4.00759 0.585939 4.06015C0.685596 4.03109 0.707736 4.08878 0.614494 4.11042C0.603818 4.1126 0.594202 4.06935 0.585939 4.06015C0.508014 4.14618 0.55219 4.2502 0.675931 4.25108C0.733284 4.25047 0.752959 4.19515 0.803083 4.28057C0.827178 4.31925 0.762327 4.35527 0.776703 4.39822C0.809897 4.49601 0.939596 4.52178 0.99896 4.58539C1.02132 4.60917 0.972202 4.61936 0.986035 4.63612C1.02322 4.68103 1.08163 4.69021 1.11659 4.73707C1.11974 4.74136 1.08433 4.76593 1.09793 4.7773C1.2014 4.86455 1.31016 4.91271 1.42214 4.99305C1.43023 4.99885 1.43904 5.00577 1.44843 5.01352C1.50047 5.05669 1.56715 5.12424 1.61608 5.15453C1.71491 5.21598 1.86904 5.25242 1.94099 5.32146C1.98915 5.36716 1.95358 5.39242 1.96027 5.43162C1.97315 5.50756 2.10737 5.48316 2.12647 5.47817C2.12709 5.478 2.08703 5.43773 2.12363 5.43772C2.16327 5.41178 2.12606 5.47765 2.12647 5.47817C2.13861 5.47484 2.23629 5.53243 2.25004 5.55175C2.2575 5.56228 2.22943 5.59027 2.23374 5.59515C2.33579 5.70991 2.4548 5.80558 2.58902 5.87706C2.5917 5.87797 2.61336 5.83982 2.61934 5.8424C2.70349 5.87748 2.71922 5.95354 2.76043 6.02083C2.80159 6.08806 2.85631 6.11306 2.93415 6.07576C2.97399 6.11484 3.05661 6.13163 3.10611 6.14134C3.15506 6.15066 3.11197 6.22421 3.11432 6.22787C3.18569 6.34234 3.27357 6.34364 3.38386 6.40993C3.4352 6.44053 3.5312 6.52094 3.57993 6.56531C3.61839 6.60052 3.65658 6.60238 3.68961 6.64017C3.6941 6.64527 3.66736 6.67288 3.6682 6.67521C3.68764 6.74311 3.71799 6.65187 3.7365 6.64445C3.80382 6.61745 3.84147 6.6043 3.88324 6.66664C3.893 6.68106 3.85729 6.81772 3.87704 6.84043C3.90284 6.86973 3.91774 6.82218 3.94387 6.85373C3.94612 6.85638 3.92912 6.88046 3.94987 6.89286C4.04841 6.95234 4.15889 7.00574 4.25655 7.07445C4.26975 7.08361 4.22669 7.11107 4.24532 7.12493C4.3319 7.18934 4.43345 7.25473 4.53473 7.29552C4.55979 7.30546 4.56405 7.26904 4.57419 7.2641C4.63593 7.23445 4.62968 7.3327 4.63548 7.33847C4.77691 7.48098 4.94163 7.49657 5.08893 7.63652C5.0955 7.64338 5.11791 7.76724 5.19102 7.72105C5.19631 7.71826 5.26917 7.66976 5.26752 7.73417C5.26737 7.73816 5.22531 7.7602 5.26175 7.77879C5.29876 7.79776 5.33458 7.85384 5.40751 7.84681C5.43029 7.84447 5.5075 7.7989 5.51631 7.88056C5.51707 7.88636 5.50705 8.05169 5.58385 7.98252C5.59648 7.97112 5.6493 7.8797 5.67308 7.95918C5.6774 7.9744 5.64665 7.98265 5.66491 8.0118C5.69107 8.05544 5.76281 8.06778 5.78473 8.1375C5.78935 8.15032 5.7887 8.23482 5.84619 8.20699C5.8552 8.20264 5.86573 8.16759 5.88274 8.17375C5.96868 8.20605 6.03246 8.27441 6.12012 8.30121C6.15187 8.31123 6.16906 8.2547 6.20349 8.25851C6.23104 8.26251 6.27405 8.27674 6.29632 8.2983C6.3052 8.30645 6.31228 8.31572 6.31627 8.32606C6.33227 8.36717 6.25023 8.42252 6.29217 8.45776C6.4862 8.60738 6.69125 8.70978 7.07941 8.77359C7.14453 8.77881 7.08222 8.80892 7.19036 8.8126C7.29905 8.81525 7.51004 8.78262 7.66693 8.63082C7.86547 8.4399 7.86895 8.19265 7.84513 8.06077C7.8196 7.91792 7.76575 7.81816 7.70706 7.7386C7.64852 7.65973 7.5927 7.6171 7.54794 7.59248C7.39068 7.51783 7.50711 7.68665 7.40653 7.62292C7.36 7.59508 7.39584 7.48629 7.39186 7.47797C7.36743 7.43115 7.34711 7.41689 7.3341 7.41074C7.29911 7.37476 7.26376 7.34214 7.23434 7.29902C7.22105 7.27959 7.26827 7.26831 7.25641 7.25196C7.21582 7.19562 7.15392 7.1589 7.11344 7.11329C7.09533 7.09278 7.12179 7.07307 7.10231 7.05732C7.05586 7.01937 7.00929 6.99365 6.94829 6.97769C6.94274 6.97625 6.93916 7.029 6.90789 7.00122C6.85755 6.9564 6.7773 6.92209 6.74632 6.84867C6.73728 6.82681 6.78867 6.77282 6.72006 6.77761C6.70584 6.77863 6.65095 6.85065 6.66837 6.7585C6.67051 6.74262 6.68625 6.60934 6.61083 6.62623C6.59068 6.6305 6.51776 6.65927 6.51086 6.63377C6.51021 6.63021 6.54859 6.61328 6.53911 6.59637C6.50564 6.53767 6.46222 6.48845 6.44222 6.4342C6.43723 6.42001 6.48356 6.41561 6.47568 6.39601C6.45389 6.34183 6.42336 6.29751 6.40321 6.26875C6.39562 6.25804 6.36409 6.27386 6.36027 6.27402C6.29695 6.27002 6.37646 6.24517 6.38083 6.24151C6.3934 6.22632 6.39069 6.21703 6.38626 6.20583C6.38326 6.15577 6.37526 6.11077 6.37795 6.06447C6.37925 6.03908 6.41933 6.05469 6.42253 6.04944C6.45318 5.99512 6.38562 6.03827 6.37557 6.00731C6.34679 5.92215 6.33951 5.8413 6.33959 5.78056C6.33971 5.75859 6.38687 5.77912 6.38658 5.76015C6.38613 5.64422 6.39162 5.61627 6.3799 5.58338C6.37833 5.57616 6.34607 5.56238 6.33971 5.55735C6.33199 5.55077 6.32823 5.54576 6.32726 5.54213C6.33425 5.50643 6.39941 5.50032 6.40992 5.49451C6.46823 5.46233 6.4533 5.42743 6.48482 5.38675C6.63898 5.18898 6.78422 4.91118 6.89427 4.69494C7.03796 4.4122 7.12775 4.17974 7.26627 3.89728C7.27491 3.87932 7.30898 3.91693 7.31712 3.90132C7.41949 3.69864 7.48603 3.47922 7.55526 3.23541C7.56087 3.21475 7.59729 3.25462 7.60771 3.22126C7.62923 3.15354 7.64207 3.06079 7.63511 2.98227C7.63174 2.94413 7.58966 2.99073 7.58683 2.95307C7.57967 2.86684 7.57763 2.77031 7.57447 2.67325C7.57283 2.6309 7.62514 2.69029 7.61889 2.6339C7.59583 2.41194 7.49441 2.15707 7.31755 1.98361C7.23866 1.90772 7.15466 1.83841 7.06128 1.77751C7.04597 1.76756 6.96903 1.8199 6.95554 1.78112C6.97168 1.76127 6.99311 1.7404 7.01161 1.72045C6.75845 1.44279 6.47151 1.21217 6.19565 0.96324C6.18401 0.952736 6.23689 0.935516 6.21449 0.914983C6.08499 0.796255 5.9674 0.671212 5.80103 0.587506C5.78455 0.579151 5.73472 0.6491 5.70403 0.604563C5.69856 0.596512 5.64725 0.535924 5.64393 0.508348C5.64368 0.504405 5.68092 0.484065 5.66244 0.466262C5.55494 0.363681 5.43085 0.268483 5.30137 0.191127C5.28053 0.178798 5.27259 0.227629 5.25755 0.219166C5.15049 0.158417 5.06895 0.0493214 4.95345 0.00633918C4.87598 -0.0222141 4.85275 0.0531449 4.7762 0.0847572C4.76586 0.0895456 4.72617 0.0606276 4.69874 0.092584C4.62912 0.172324 4.57595 0.277545 4.49956 0.36084C4.48294 0.378594 4.45171 0.321539 4.44383 0.389487C4.44328 0.393983 4.46602 0.436255 4.46259 0.458866C4.46012 0.474405 4.42304 0.499651 4.42426 0.522972C4.42514 0.546019 4.46036 0.528135 4.46767 0.560356C4.47496 0.592935 4.43544 0.623526 4.47128 0.659677ZM3.32467 6.18261C3.38273 6.17294 3.30327 6.29979 3.2857 6.24433C3.28494 6.24149 3.32174 6.18302 3.32467 6.18261ZM0.703213 2.30501C0.772022 2.35275 0.675273 2.39029 0.623534 2.35685C0.57164 2.3255 0.682296 2.29153 0.703213 2.30501ZM0.630284 1.77888C0.699399 1.82304 0.500474 1.89719 0.520632 1.82059C0.52172 1.81612 0.626257 1.7763 0.630284 1.77888ZM4.91125 0.219164C4.90945 0.220248 4.88231 0.20072 4.8826 0.19844C4.89839 0.150095 4.95368 0.18999 4.91125 0.219164ZM0.486158 1.23988C0.5204 1.24652 0.51174 1.31191 0.469393 1.30302C0.435599 1.29624 0.443838 1.23191 0.486158 1.23988ZM5.22927 7.26635C5.23106 7.26486 5.25253 7.27647 5.24522 7.28674C5.2217 7.31985 5.19953 7.2917 5.22927 7.26635ZM0.000391958 0.417315C0.0651285 0.563237 0.257607 0.529477 0.178194 0.422275C0.164108 0.400688 0.151102 0.495292 0.122882 0.473049C0.0688359 0.426045 0.159215 0.352935 0.0874469 0.311407C0.0731126 0.301367 -0.00497004 0.407435 0.000250513 0.417649C0.00029762 0.417538 0.000344718 0.417426 0.000391958 0.417315ZM3.44644 6.04833C3.44827 6.04718 3.47724 6.06478 3.47679 6.06685C3.46506 6.11638 3.40666 6.08093 3.44644 6.04833ZM6.46942 7.95284C6.47149 7.95163 6.49203 7.96229 6.50747 7.97106C6.52443 7.98084 6.54087 7.99137 6.54085 7.99363C6.5369 8.03804 6.49947 8.03973 6.4734 8.02387C6.45109 8.0104 6.4329 7.97699 6.46942 7.95284ZM1.66048 4.65788C1.65892 4.59777 1.62818 4.56829 1.56882 4.59899C1.6003 4.61829 1.62916 4.6388 1.66048 4.65788Z" fill="#963076"/>
</svg>
