<svg width="7" height="9" viewBox="0 0 7 9" fill="none" xmlns="http://www.w3.org/2000/svg">
<path d="M0.860189 0.0714058C0.881106 0.12768 0.878866 0.205551 0.869646 0.266616C0.866803 0.285694 0.839134 0.280882 0.836026 0.294314C0.830007 0.320623 0.846784 0.341308 0.839026 0.367755C0.83633 0.376538 0.793208 0.373883 0.791336 0.382963C0.781413 0.432759 0.80025 0.474976 0.800796 0.523673C0.803655 0.764314 0.844433 0.996156 0.895073 1.23282C0.911729 1.31078 0.904819 1.41503 0.94712 1.48809C0.952076 1.49657 0.98515 1.47933 0.988612 1.48009C1.0418 1.49215 0.968319 1.5071 0.965059 1.52807C0.95235 1.61123 0.97767 1.6911 1.0165 1.75316C1.03314 1.77954 1.09058 1.72481 1.06319 1.76812C1.06136 1.77111 1.02205 1.77791 1.02117 1.78725C1.01923 1.80839 1.03892 1.8395 1.04149 1.85435C1.04627 1.88307 1.0484 1.88733 1.05809 1.91242C1.07102 1.94682 1.06992 1.99488 1.0936 2.02779C1.09875 2.03475 1.13128 2.00878 1.14281 2.0184C1.15431 2.02802 1.16525 2.06182 1.1614 2.07654C1.15753 2.09127 1.12663 2.09931 1.12087 2.10416C1.0721 2.14488 1.1662 2.14837 1.17024 2.15218C1.24221 2.22511 1.234 2.31986 1.27464 2.40118C1.30554 2.46272 1.35346 2.52058 1.38243 2.57903C1.41684 2.64874 1.43016 2.71705 1.47144 2.78075C1.47575 2.78748 1.51183 2.7557 1.51716 2.76382C1.5738 2.85009 1.6226 2.9393 1.65187 3.04297C1.65478 3.0534 1.61277 3.06475 1.61364 3.07656C1.61541 3.0973 1.61567 3.12285 1.61939 3.14712C1.63001 3.20913 1.65909 3.2614 1.7814 3.21404C1.8005 3.25608 1.82391 3.3055 1.81455 3.35806C1.80906 3.39274 1.75742 3.39585 1.79089 3.41231C1.79838 3.41603 1.82657 3.38682 1.83529 3.39403C1.8721 3.42458 1.88687 3.47166 1.9285 3.49934C1.93696 3.50478 1.96556 3.48377 1.97233 3.48256C2.02765 3.47346 1.97438 3.54912 1.97316 3.55887C1.96616 3.63484 2.00377 3.66099 2.03231 3.7096C2.03889 3.72085 2.07136 3.68285 2.07915 3.6928C2.11856 3.74402 2.15031 3.80439 2.16401 3.86848C2.16718 3.88316 2.12568 3.89268 2.12542 3.90077C2.12463 3.93611 2.19377 3.90271 2.19398 3.93553C2.19409 3.94237 2.16253 3.95712 2.1598 3.95999C2.11693 4.00496 2.19722 3.9744 2.20109 3.97728C2.25201 4.01356 2.19233 4.08685 2.23047 4.12802C2.23506 4.13281 2.26586 4.09836 2.27642 4.11317C2.34685 4.21146 2.39853 4.3289 2.42426 4.4501C2.42834 4.46896 2.39305 4.47302 2.39004 4.47599C2.34319 4.52281 2.42374 4.49298 2.42939 4.49672C2.47251 4.52817 2.42972 4.59967 2.53471 4.58152C2.5977 4.77569 2.73779 4.9283 2.7467 5.14411C2.74691 5.1468 2.70763 5.16203 2.7082 5.16732C2.71495 5.23165 2.76745 5.19138 2.85628 5.18947C2.87858 5.18898 2.8075 5.26033 2.80255 5.26601C2.78414 5.28675 2.72434 5.30698 2.72142 5.31222C2.69942 5.35501 2.87932 5.25439 2.89629 5.28586C2.89652 5.28701 2.86088 5.30084 2.85899 5.30529C2.85306 5.31924 2.8708 5.32036 2.86373 5.3347C2.84726 5.36762 2.76317 5.42267 2.83006 5.42309C2.83867 5.42297 2.93782 5.36084 2.94855 5.39123C2.95277 5.40358 2.98238 5.45119 2.98387 5.46853C2.9853 5.48589 2.94738 5.49572 2.94653 5.4975C2.92543 5.5597 2.89944 5.55628 2.84751 5.6131C2.79614 5.67015 2.94278 5.57392 2.96401 5.57118C2.96758 5.57072 2.97002 5.57171 2.97158 5.57374C2.97947 5.58412 2.96577 5.62002 2.95906 5.63183C2.95098 5.64603 2.92541 5.65009 2.92217 5.66031C2.90126 5.72753 3.00708 5.63246 3.03882 5.6311C3.11398 5.62789 3.01767 5.71974 3.02381 5.7545C3.02548 5.76393 3.04705 5.74238 3.05353 5.74775C3.07903 5.76952 3.05413 5.80678 3.10448 5.81836C3.11263 5.82015 3.19477 5.80514 3.15526 5.85078C3.14954 5.85732 3.11787 5.86748 3.11858 5.88277C3.11957 5.9056 3.1321 5.94033 3.15252 5.95341C3.1676 5.96302 3.20402 5.91993 3.2001 5.94569C3.19832 5.95715 3.16304 5.95896 3.16193 5.97915C3.16073 5.99917 3.18386 6.03526 3.19308 6.04863C3.20233 6.06198 3.23256 6.03364 3.23557 6.03336C3.25306 6.03219 3.28567 6.04876 3.28708 6.05123C3.36233 6.1678 3.36909 6.31249 3.45816 6.41601C3.46509 6.42415 3.49796 6.39602 3.4994 6.39703C3.53337 6.41858 3.42158 6.45311 3.40221 6.49442C3.47435 6.44631 3.46871 6.46727 3.49008 6.48408C3.50044 6.49213 3.5256 6.46896 3.52911 6.46813C3.58205 6.45707 3.53247 6.50211 3.52269 6.51193C3.48672 6.54802 3.54351 6.52869 3.51959 6.55298C3.4959 6.57719 3.44449 6.58656 3.45787 6.60713C3.48787 6.59671 3.54739 6.5388 3.56828 6.54767C3.64697 6.58096 3.66196 6.72446 3.68687 6.77532C3.71146 6.82589 3.72619 6.83796 3.73458 6.87133C3.74989 6.93164 3.78835 6.88065 3.83131 6.89569C3.87432 6.91067 3.74149 6.97807 3.71795 7.0001C3.69441 7.02208 3.72478 7.00864 3.71388 7.02376C3.70298 7.03888 3.67718 7.03923 3.68025 7.05559C3.68337 7.07203 3.75365 7.07494 3.78412 7.06058C3.84872 7.03024 3.89933 6.97331 3.90027 7.02064C3.90029 7.0234 3.86402 7.0393 3.86574 7.04875C3.88053 7.12315 3.92085 7.18349 3.94058 7.25557C3.94326 7.26553 3.90321 7.28405 3.90439 7.29016C3.91676 7.35389 3.96328 7.29388 4.0472 7.27099C3.95639 7.3296 3.91394 7.38332 3.94056 7.41959C3.95654 7.44135 3.99124 7.40913 4.0281 7.40266C4.03918 7.40068 4.02506 7.43536 4.0447 7.42453C4.10886 7.38907 4.16212 7.32559 4.16423 7.38078C4.16425 7.38328 4.12914 7.40275 4.13147 7.40962C4.14659 7.45427 4.20915 7.41126 4.24595 7.44228C4.27468 7.46646 4.2812 7.54678 4.30316 7.58403C4.21009 7.66184 4.25815 7.6753 4.33188 7.63261C4.34735 7.65566 4.37076 7.67504 4.37987 7.70254C4.38306 7.71201 4.35289 7.73096 4.35084 7.73435C4.31856 7.7875 4.38718 7.74206 4.39351 7.74429C4.45983 7.77114 4.45131 7.85209 4.53771 7.85467C4.54083 7.85477 4.6036 7.79851 4.57105 7.85321C4.56906 7.85651 4.53651 7.8663 4.54117 7.88423L4.52534 7.87151C4.52657 7.87376 4.52852 7.876 4.53135 7.87818C4.55477 7.89628 4.57836 7.96389 4.63334 7.95158C4.6468 7.94877 4.70335 7.90306 4.69268 7.95895C4.69125 7.96656 4.6763 7.98576 4.67272 7.9993C4.66155 8.04254 4.71103 7.97292 4.68658 8.04254C4.66189 8.11201 4.66161 8.17485 4.72252 8.15253C4.72442 8.15196 4.76688 8.09858 4.77753 8.10596C4.79432 8.1177 4.81333 8.14475 4.8322 8.15488C4.84126 8.15972 4.8561 8.11998 4.85803 8.12018C4.92995 8.13364 4.95497 8.18996 5.01363 8.23891C5.02427 8.24793 5.08491 8.21486 5.08835 8.26703C5.09252 8.32424 4.9735 8.49525 5.05832 8.48185C5.09351 8.47692 5.23307 8.25424 5.22202 8.39715C5.32125 8.40412 5.38038 8.50147 5.48787 8.48391C5.4926 8.48313 5.52611 8.41705 5.53488 8.42052C5.54796 8.42585 5.54725 8.46087 5.55683 8.46565C5.59738 8.48658 5.64281 8.46624 5.68298 8.47678C5.69855 8.48067 5.6882 8.51484 5.70741 8.51919C5.71689 8.52126 5.72598 8.51169 5.7352 8.50407C5.74341 8.49457 5.75251 8.48722 5.76695 8.49743C5.78764 8.51262 5.8195 8.60437 5.8497 8.61116C5.8374 8.51847 5.85608 8.51788 5.88342 8.48794C5.8886 8.48215 5.87639 8.45129 5.87851 8.4469C5.88686 8.42836 5.90233 8.45284 5.90973 8.43275C5.91147 8.42793 5.90527 8.39662 5.90628 8.39092C5.91444 8.34136 5.95848 8.40505 5.96688 8.4159C5.99742 8.45755 5.99714 8.41486 6.01679 8.42921C6.0366 8.44348 6.01951 8.47193 6.04021 8.47837C6.0836 8.49155 6.13067 8.47296 6.16869 8.463C6.18389 8.45881 6.16123 8.42115 6.16312 8.4196C6.19048 8.40004 6.23558 8.43316 6.22609 8.34697C6.31564 8.5485 6.23782 8.32084 6.29465 8.3479C6.29912 8.35012 6.33738 8.44671 6.32891 8.46571C6.32029 8.48474 6.28963 8.46084 6.27849 8.48947C6.27581 8.49624 6.28015 8.59703 6.27806 8.60386C6.26375 8.6567 6.2136 8.5098 6.20975 8.50209C6.16663 8.41926 6.1659 8.52879 6.15925 8.53824C6.13013 8.58126 6.09128 8.5692 6.06434 8.60046C6.04649 8.62072 6.06835 8.71992 6.04961 8.72119C5.98611 8.72526 5.94059 8.59004 5.90473 8.72101C5.89673 8.74881 5.92661 8.85683 5.86627 8.77748C5.86208 8.77257 5.81809 8.69791 5.80335 8.75008C5.80143 8.75668 5.80477 8.78887 5.80155 8.79192C5.78508 8.80682 5.77038 8.79667 5.7536 8.79659C5.74447 8.79636 5.71745 8.79761 5.70847 8.79597C5.70291 8.79507 5.6969 8.7952 5.68995 8.79754C5.66191 8.80701 5.62717 8.82079 5.59904 8.80475C5.58223 8.79522 5.57142 8.7316 5.56699 8.71558C5.55383 8.66946 5.51502 8.73189 5.51353 8.67845C5.51341 8.62504 5.55639 8.55496 5.53324 8.51445C5.51066 8.59543 5.48564 8.67806 5.46154 8.75912C5.38211 8.7347 5.31759 8.68369 5.2448 8.65933C5.23563 8.65633 5.22838 8.70203 5.21797 8.69982C5.17467 8.69042 5.15204 8.64595 5.10687 8.64001C5.07164 8.63547 5.01775 8.66333 4.97988 8.6586C5.00193 8.56261 4.94127 8.56931 4.91182 8.54441C4.90158 8.53579 4.91404 8.5133 4.90962 8.50162C4.89274 8.45804 4.86837 8.54109 4.85364 8.54853C4.79027 8.57981 4.87733 8.40824 4.83335 8.38994C4.83124 8.38903 4.75521 8.46439 4.7482 8.46781C4.7041 8.49107 4.7613 8.43428 4.75024 8.41952C4.73021 8.39259 4.72348 8.36075 4.67754 8.36917C4.66392 8.37166 4.61033 8.41464 4.61736 8.36157C4.61828 8.35462 4.63655 8.32603 4.63568 8.32323C4.61854 8.275 4.56446 8.36671 4.52663 8.38632C4.48859 8.40579 4.497 8.32521 4.50177 8.30336C4.51417 8.24689 4.52585 8.29046 4.52943 8.28632C4.57213 8.23723 4.54511 8.23398 4.53156 8.21953C4.58302 8.12862 4.55751 8.12056 4.51758 8.20506C4.51327 8.21432 4.53082 8.21352 4.53156 8.21953C4.46494 8.29905 4.4321 8.29457 4.45487 8.19627C4.46546 8.15014 4.50501 8.11305 4.45608 8.10544C4.43423 8.10212 4.40316 8.16745 4.37735 8.17453C4.36208 8.17868 4.34997 8.17597 4.33965 8.16941C4.32926 8.16157 4.29853 8.13984 4.29029 8.12976C4.26544 8.10393 4.26377 8.05185 4.23571 8.03349C4.22193 8.02446 4.20398 8.06282 4.19354 8.05752C4.16565 8.04342 4.17002 8.00466 4.13906 7.99319C4.13622 7.99217 4.11018 8.02478 4.1036 8.01833C4.05317 7.97 4.03302 7.90721 3.98677 7.85181C3.96444 7.82516 3.90694 7.79164 3.8877 7.76069C3.8538 7.70704 3.85364 7.60996 3.81007 7.57702C3.78167 7.55526 3.75351 7.58623 3.72211 7.59132C3.66112 7.60108 3.70867 7.50164 3.71693 7.48736C3.7172 7.48691 3.7427 7.50495 3.75025 7.47963C3.78019 7.44601 3.71729 7.48753 3.71693 7.48736C3.72204 7.47796 3.69463 7.42474 3.68142 7.41981C3.67418 7.41716 3.64464 7.44294 3.64146 7.44112C3.56653 7.39711 3.51233 7.33698 3.48222 7.26026C3.48207 7.25865 3.51938 7.23583 3.5186 7.23236C3.50871 7.18324 3.44795 7.18851 3.40032 7.17411C3.35272 7.1597 3.34485 7.12824 3.39543 7.06851C3.37184 7.04961 3.37745 6.99712 3.38176 6.96651C3.38606 6.9359 3.3126 6.9788 3.31006 6.97794C3.22989 6.95212 3.25104 6.89429 3.22224 6.83361C3.20863 6.80464 3.16516 6.75757 3.13939 6.73321C3.11889 6.71403 3.12743 6.68974 3.10358 6.67503C3.10038 6.67304 3.06978 6.69559 3.06801 6.69547C3.01488 6.69524 3.10093 6.65864 3.11209 6.64518C3.15274 6.59629 3.17354 6.56884 3.13101 6.55308C3.12128 6.54949 2.99487 6.59789 2.98049 6.58909C2.96202 6.57755 3.00674 6.55924 2.98636 6.54777C2.98466 6.54678 2.95955 6.56221 2.95425 6.55084C2.92927 6.49823 2.91166 6.43529 2.87837 6.38523C2.87394 6.37837 2.83916 6.4113 2.8321 6.40178C2.79893 6.35698 2.76944 6.30411 2.7606 6.24661C2.7586 6.23246 2.79094 6.22278 2.79781 6.21534C2.83929 6.17012 2.75314 6.19247 2.74963 6.18978C2.66406 6.12664 2.69173 6.0225 2.60876 5.9566C2.60411 5.95309 2.50419 5.96497 2.56172 5.90848C2.56554 5.90469 2.62459 5.84719 2.56923 5.86196C2.56577 5.8629 2.53644 5.89422 2.52963 5.87501C2.52715 5.86802 2.52024 5.86186 2.51361 5.85458C2.50094 5.8401 2.48908 5.8218 2.50403 5.79036C2.51132 5.77461 2.56904 5.71485 2.49965 5.72255C2.49498 5.72346 2.3475 5.75679 2.42649 5.69385C2.43954 5.68356 2.53264 5.63405 2.46926 5.63152C2.457 5.63105 2.4421 5.65266 2.42106 5.64505C2.38858 5.63323 2.39718 5.59009 2.34083 5.58454C2.33095 5.58375 2.25673 5.59687 2.2959 5.55475C2.30204 5.54817 2.33574 5.53655 2.3346 5.52601C2.32957 5.47617 2.28645 5.4444 2.28681 5.39194C2.28697 5.37358 2.34138 5.35489 2.34721 5.33287C2.35298 5.31075 2.35057 5.27387 2.31943 5.2701C2.28822 5.26622 2.21621 5.32473 2.19766 5.30435C2.11749 5.21658 2.11478 5.09359 2.07038 4.99104C2.06378 4.97578 2.04119 5.00272 2.02951 4.98158C1.98611 4.90297 1.88776 4.78297 1.91109 4.68206C1.93014 4.60171 2.00423 4.64949 2.00127 4.59726C1.99967 4.57202 1.89494 4.60059 1.88955 4.59771C1.83441 4.56775 1.8565 4.51159 1.82037 4.47683C1.81284 4.46956 1.78049 4.49919 1.77449 4.49278C1.75342 4.47065 1.75537 4.43557 1.73842 4.41309C1.73075 4.40309 1.7036 4.42139 1.70002 4.41014C1.69085 4.38292 1.69128 4.35631 1.70407 4.31752C1.70524 4.31399 1.74866 4.30779 1.73966 4.28939C1.72467 4.25911 1.73049 4.2095 1.68404 4.19239C1.67019 4.18745 1.60575 4.22509 1.63762 4.17793C1.6443 4.16813 1.72452 4.12763 1.64374 4.14348C1.63029 4.14605 1.5166 4.15967 1.56189 4.10456C1.57383 4.09008 1.6286 4.03898 1.61172 4.03342C1.6092 4.03283 1.57876 4.05991 1.56963 4.05245C1.53809 4.02584 1.51944 3.98735 1.48781 3.96015C1.4792 3.95278 1.45242 3.9883 1.44072 3.97664C1.40825 3.94418 1.38812 3.89215 1.37581 3.84839C1.37131 3.83216 1.4063 3.82321 1.40884 3.82022C1.45011 3.77168 1.37467 3.80604 1.36724 3.80328C1.3226 3.78647 1.33936 3.74108 1.31122 3.71617C1.30354 3.70925 1.27444 3.73638 1.27043 3.73659C1.23061 3.73773 1.29803 3.71259 1.29745 3.69738C1.29653 3.65544 1.2722 3.62371 1.24775 3.59539C1.23873 3.58504 1.20908 3.62265 1.20142 3.61308C1.16834 3.57281 1.14031 3.52892 1.11958 3.47887C1.11098 3.45882 1.10376 3.43817 1.09816 3.417C1.09439 3.40241 1.1286 3.39091 1.13368 3.38407C1.16948 3.33667 1.08941 3.35291 1.07951 3.35086C1.03466 3.34213 1.05425 3.31521 1.03469 3.2948C0.938263 3.19499 0.871374 3.03905 0.821871 2.92102C0.756874 2.7669 0.729215 2.63768 0.654604 2.49904C0.64991 2.49019 0.612055 2.51902 0.607453 2.5116C0.549923 2.41466 0.522177 2.30637 0.466921 2.20801C0.462455 2.19988 0.426808 2.22904 0.418253 2.21648C0.400412 2.19084 0.388118 2.15409 0.389824 2.12024C0.390593 2.10379 0.433156 2.10851 0.43324 2.0923C0.433544 2.05456 0.422997 2.01871 0.403642 1.98766C0.395319 1.97447 0.361361 2.01207 0.353807 1.99361C0.301623 1.86827 0.249909 1.74375 0.263709 1.59588C0.264657 1.58571 0.349444 1.55008 0.326772 1.53667C0.302079 1.54292 0.27358 1.552 0.247466 1.55957C0.174243 1.37626 0.152966 1.17997 0.112264 0.988273C0.110535 0.980168 0.0666318 1.00538 0.0630367 0.98969C0.0422531 0.898961 0.00952829 0.81283 0.0379489 0.710096C0.0407136 0.699919 0.125356 0.687757 0.107324 0.663348C0.104044 0.659056 0.0849253 0.620627 0.064722 0.613535C0.0616998 0.612615 0.0239761 0.627609 0.0203075 0.614581C-0.000301593 0.538792 -0.00557219 0.456209 0.00609228 0.375471C0.00805286 0.362431 0.052088 0.368884 0.0538567 0.359573C0.0661334 0.293917 0.0241428 0.230643 0.0541837 0.165762C0.0744902 0.122407 0.149232 0.127395 0.218087 0.0971333C0.227796 0.0928703 0.226274 0.0685035 0.267815 0.0619586C0.372247 0.0454661 0.488485 0.0421465 0.59962 0.0231718C0.623548 0.0191127 0.593749 -0.0083273 0.654211 0.00251146C0.658258 0.0032954 0.680395 0.0230003 0.700833 0.0258523C0.714962 0.0278495 0.756461 0.0155507 0.774916 0.0209298C0.793353 0.0262759 0.758943 0.039396 0.781151 0.0493515C0.803619 0.0592187 0.851023 0.0471405 0.860189 0.0714058ZM3.40125 6.82939C3.42435 6.78942 3.29595 6.86614 3.33875 6.86701C3.34097 6.86696 3.40015 6.8314 3.40125 6.82939ZM5.35683 8.57674C5.35141 8.50482 5.2985 8.5884 5.30097 8.6437C5.30417 8.69913 5.35909 8.59873 5.35683 8.57674ZM5.67346 8.60805C5.6469 8.55156 5.60496 8.75957 5.65389 8.72363C5.65679 8.7216 5.67517 8.61133 5.67346 8.60805ZM0.251647 0.190388C0.253566 0.189809 0.253023 0.172242 0.251021 0.172104C0.202674 0.169472 0.203817 0.204808 0.251647 0.190388ZM5.98399 8.52394C5.96774 8.49828 5.94543 8.53692 5.96556 8.56909C5.98216 8.59493 6.00481 8.5558 5.98399 8.52394ZM2.9618 5.79303C2.96353 5.79159 2.95889 5.78003 2.94824 5.78676C2.91396 5.80848 2.93259 5.81717 2.9618 5.79303ZM6.45503 8.37516C6.38353 8.39311 6.28496 8.242 6.36376 8.23466C6.37812 8.23325 6.3546 8.29743 6.37666 8.30622C6.41765 8.32194 6.39945 8.21138 6.45145 8.25471C6.46101 8.26265 6.45948 8.37444 6.45499 8.37543C6.45501 8.37534 6.45502 8.37525 6.45503 8.37516ZM3.54676 6.72336C3.54821 6.72194 3.54071 6.70645 3.53884 6.70716C3.49367 6.72448 3.50879 6.75578 3.54676 6.72336ZM2.68947 5.12221C2.69277 5.11941 2.67839 5.08266 2.6743 5.08318C2.59579 5.10018 2.62484 5.17496 2.68947 5.12221ZM4.30113 7.58664C4.34937 7.56963 4.36762 7.58221 4.33188 7.63251C4.32239 7.61674 4.31075 7.60248 4.30113 7.58664Z" fill="#963076"/>
</svg>
