<svg width="14" height="6" viewBox="0 0 14 6" fill="none" xmlns="http://www.w3.org/2000/svg">
<path d="M12.4038 1.32283C12.2617 1.25148 12.0599 1.18823 11.9054 1.15124C11.8567 1.13945 11.8709 1.17303 11.8368 1.16603C11.7696 1.15223 11.7171 1.11933 11.6494 1.10813C11.6272 1.10466 11.6389 1.15342 11.616 1.1489C11.4917 1.12428 11.3829 1.07529 11.2584 1.04305C10.6496 0.885953 10.0499 0.734458 9.42529 0.620648C9.21805 0.58263 8.96219 0.572761 8.75191 0.521055C8.72739 0.514966 8.74824 0.481079 8.74401 0.477297C8.67835 0.419366 8.68936 0.496582 8.63995 0.498649C8.53028 0.502967 8.41597 0.496732 8.30607 0.483852C8.22036 0.473881 8.13739 0.456861 8.06135 0.435678C7.98843 0.415003 8.07656 0.358038 7.99512 0.383351C7.98945 0.385005 8.00001 0.42718 7.97908 0.427077C7.93072 0.426725 7.84604 0.400159 7.80974 0.394348C7.74034 0.383627 7.7289 0.380222 7.66434 0.36343C7.57615 0.340699 7.46581 0.328474 7.37342 0.290426C7.35387 0.282241 7.39265 0.252307 7.36216 0.235646C7.33209 0.219162 7.24481 0.194982 7.21255 0.194618C7.18051 0.194344 7.18324 0.228304 7.17588 0.233546C7.11508 0.278101 7.03776 0.165405 7.02489 0.159463C6.80638 0.0590793 6.5721 0.0358491 6.31434 0.0525914C6.30726 0.0532715 6.29881 0.0534867 6.28931 0.0531318C6.16677 0.0461221 5.92909 -0.0251742 5.72307 0.00944389C5.71138 0.0111159 5.70002 0.0129653 5.68848 0.0150607C5.48266 0.0537803 5.3165 0.126369 5.13147 0.204221C5.1109 0.213078 5.11562 0.15919 5.09014 0.170181C4.81949 0.287853 4.58183 0.459086 4.38984 0.664547C4.37067 0.68519 4.42489 0.693289 4.40756 0.715667C4.29866 0.852107 4.17565 1.09188 3.97683 1.04158C3.9037 1.12931 3.81797 1.23658 3.77998 1.33612C3.75564 1.4001 3.83053 1.38223 3.76475 1.42932C3.74987 1.44013 3.73494 1.39678 3.7149 1.41495C3.63148 1.4904 3.56239 1.59332 3.47679 1.66339C3.45918 1.67772 3.43605 1.65023 3.42713 1.65093C3.35436 1.65729 3.36245 1.77926 3.35513 1.79709C3.29607 1.93567 3.21264 2.0017 3.12293 2.08723C3.10214 2.10667 3.09453 2.04925 3.074 2.06594C3.0106 2.118 2.94559 2.16309 2.90789 2.18123C2.85399 2.20416 2.80056 2.22734 2.74791 2.25135C2.71811 2.26496 2.75799 2.29562 2.74417 2.30413C2.68224 2.34098 2.64809 2.27071 2.58824 2.3021C2.57547 2.30858 2.59097 2.34055 2.58936 2.34484C2.56342 2.41229 2.51045 2.33684 2.50037 2.33702C2.36873 2.33783 2.30003 2.43815 2.16991 2.44244C2.15445 2.44277 2.18326 2.39498 2.14035 2.39851C1.85524 2.42169 1.5477 2.44534 1.25347 2.50046C1.20792 2.50908 1.24306 2.53965 1.24043 2.5439C1.19805 2.61056 1.16134 2.52821 1.14581 2.52627C1.02371 2.51306 0.922191 2.59665 0.824295 2.50957C0.756735 2.52479 0.688831 2.54078 0.620612 2.55955C0.546448 2.58337 0.432227 2.57388 0.288608 2.59573C0.240577 2.60433 0.198638 2.61152 0.13652 2.63565C0.119267 2.64364 0.103916 2.64702 0.0660025 2.67684C0.0529442 2.693 -0.00504219 2.72093 0.000355971 2.83867C0.0240127 2.94978 0.0751924 2.9589 0.0911065 2.97348C0.16303 3.00971 0.177556 3.0035 0.207097 3.0103C0.439782 3.04579 0.673212 3.07079 0.910314 3.06035C0.916746 3.06018 0.911261 3.01712 0.924043 3.01696C1.07639 3.01423 1.03897 3.07472 1.12703 3.16693C1.14943 3.19011 1.2377 3.10485 1.24518 3.09873C1.27273 3.07619 1.25589 3.01108 1.26463 3.00717C1.33747 2.97698 1.29938 3.17983 1.39014 3.19194C1.39304 3.19198 1.38603 3.15277 1.3942 3.15005C1.41968 3.14149 1.44065 3.15949 1.46583 3.14969C1.52271 3.12684 1.55511 3.03009 1.62822 3.09903C1.6373 3.10796 1.60593 3.22152 1.68692 3.22742C1.71941 3.22956 1.86028 3.25257 1.90081 3.25156C1.94139 3.25037 1.92032 3.20885 1.92337 3.20769C2.03799 3.17584 2.00084 3.14894 2.06713 3.08534C2.13369 3.0223 2.08866 3.19241 2.10677 3.21548C2.12495 3.23845 2.21022 3.21245 2.23217 3.20221C2.25397 3.19185 2.23464 3.16374 2.25322 3.15909C2.37705 3.12956 2.28591 3.2542 2.3175 3.28889C2.33998 3.31382 2.36361 3.32077 2.38904 3.31872C2.44612 3.31371 2.51018 3.26067 2.5678 3.26536C2.59007 3.2672 2.56562 3.29174 2.584 3.29905C2.65656 3.32781 2.71243 3.30037 2.78774 3.35983C2.80033 3.36956 2.84664 3.46395 2.90686 3.42223C2.91551 3.4162 2.90694 3.37978 2.94081 3.38241C2.99145 3.38624 3.07903 3.40652 3.12633 3.43369C3.16118 3.45372 3.10159 3.49008 3.15361 3.49003C3.17678 3.49004 3.14813 3.44739 3.19097 3.44996C3.23368 3.45236 3.33289 3.48884 3.37017 3.50379C3.40745 3.51862 3.37284 3.54906 3.37495 3.55273C3.38796 3.57406 3.45254 3.6192 3.4588 3.62162C3.77399 3.74731 4.09034 3.81357 4.38188 3.97936C4.40471 3.99231 4.37039 4.02313 4.37368 4.0255C4.44626 4.08069 4.43248 3.94771 4.50576 3.94127C4.45942 4.01505 4.49969 4.01724 4.55204 4.0539C4.57721 4.07164 4.54739 4.09425 4.54834 4.09857C4.56594 4.16429 4.62344 4.11962 4.63679 4.11128C4.68589 4.0806 4.68837 4.1475 4.72159 4.1273C4.75475 4.10736 4.73494 4.04251 4.78901 4.07089C4.79004 4.10626 4.71295 4.15779 4.74794 4.19051C4.87963 4.3134 5.19523 4.40993 5.32166 4.47147C5.44768 4.53248 5.48421 4.55915 5.56141 4.5887C5.69996 4.6417 5.62413 4.66866 5.6909 4.7368C5.75772 4.805 5.79028 4.65405 5.81712 4.63252C5.84385 4.61095 5.8405 4.64646 5.86306 4.63893C5.88557 4.63137 5.86552 4.59566 5.90178 4.60813C5.93786 4.62051 6.00141 4.71995 5.99712 4.7555C5.98812 4.8309 5.91153 4.87328 6.012 4.89865C6.01782 4.90007 6.02 4.85693 6.04133 4.86411C6.20939 4.92183 6.3706 5.00684 6.53814 5.06428C6.56132 5.07218 6.56212 5.0238 6.5758 5.02794C6.71758 5.07009 6.63792 5.111 6.67302 5.21977C6.69579 5.1466 6.73685 5.10581 6.79261 5.10417C6.816 5.10323 6.84147 5.10859 6.87023 5.12026C6.92848 5.14292 6.90189 5.18269 6.93274 5.22796C6.94241 5.24179 6.99653 5.22348 6.99918 5.24679C7.00977 5.32329 6.94427 5.39419 7.07452 5.38693C7.0801 5.38635 7.07016 5.34436 7.08877 5.34517C7.20752 5.34721 7.21458 5.4241 7.34748 5.4364C7.45254 5.44588 7.62794 5.38337 7.73582 5.35601C7.71417 5.23701 7.81745 5.24644 7.87708 5.31848C7.94693 5.29978 8.02306 5.28538 8.08661 5.25571C8.10841 5.24554 8.08391 5.21592 8.08578 5.21146C8.113 5.14201 8.16497 5.21132 8.18071 5.20994C8.34923 5.19138 8.45614 5.08857 8.62408 5.09173C8.63004 5.09186 8.66749 5.16792 8.68581 5.09565C8.68687 5.09074 8.625 5.07268 8.69327 5.04438C8.76147 5.01612 8.87543 4.92501 8.98437 4.92633C9.01079 4.92656 9.09254 4.96932 9.12071 4.90245C9.12453 4.89337 9.10949 4.87309 9.11403 4.85718C9.12915 4.80628 9.17297 4.88106 9.18364 4.80074C9.18796 4.76889 9.19922 4.73769 9.21829 4.71266C9.24787 4.67433 9.29247 4.65055 9.36077 4.65713C9.36427 4.65736 9.41037 4.7122 9.44079 4.69919C9.48834 4.67886 9.55039 4.63808 9.6004 4.6166C9.62407 4.60647 9.62587 4.65144 9.63028 4.65034C9.8001 4.60045 9.89632 4.50991 10.05 4.40456C10.0778 4.38544 10.1923 4.38473 10.2255 4.31166C10.2616 4.23186 10.0909 4.09513 10.2583 4.05006C10.3274 4.03107 10.5319 4.21033 10.5711 4.03461C10.7116 3.98231 10.8362 3.9067 10.9851 3.87949C11.0675 3.86425 11.1512 3.85343 11.2399 3.85746C11.2505 3.85794 11.2951 3.92464 11.3194 3.91968C11.3558 3.91215 11.3701 3.87527 11.3957 3.8687C11.5026 3.84035 11.607 3.85112 11.711 3.82639C11.7501 3.81707 11.7298 3.78521 11.7764 3.77393C11.8232 3.76254 11.8638 3.80157 11.9231 3.76607C11.9676 3.73912 11.9955 3.63605 12.0558 3.61101C12.079 3.70156 12.1222 3.68991 12.2054 3.69546C12.2215 3.69654 12.2129 3.73202 12.221 3.73416C12.2538 3.74354 12.2738 3.71093 12.3057 3.7219C12.3133 3.72453 12.3213 3.75544 12.328 3.75933C12.3858 3.79352 12.4446 3.70438 12.4542 3.68897C12.4924 3.63004 12.5256 3.66418 12.5594 3.63584C12.5924 3.60766 12.5298 3.60022 12.571 3.57744C12.6428 3.53786 12.7376 3.51192 12.8208 3.48774C12.8368 3.48287 12.8529 3.47812 12.8683 3.4735C12.906 3.46256 12.8915 3.51084 12.8972 3.51022C12.9761 3.49934 13.0477 3.43792 13.1058 3.51404C13.1241 3.28886 13.1563 3.52526 13.2604 3.47084C13.2686 3.4666 13.2726 3.36198 13.235 3.35009C13.197 3.33832 13.1466 3.37711 13.0933 3.36221C13.0813 3.35825 12.9938 3.27618 12.9824 3.27292C12.8966 3.24474 12.9244 3.39872 12.9229 3.40766C12.9087 3.48272 12.8467 3.45585 12.8055 3.43891C12.7938 3.43272 12.7833 3.42773 12.7779 3.42742C12.6776 3.42159 12.6062 3.46389 12.5232 3.4616C12.4691 3.46022 12.4386 3.36316 12.4003 3.37639C12.2737 3.41972 12.2609 3.56882 12.1095 3.47844C12.0769 3.4591 12.0783 3.34503 12.0037 3.4516C11.9992 3.45829 11.9463 3.55199 11.8947 3.51136C11.8883 3.50623 11.8816 3.47457 11.8744 3.47334C11.8258 3.46577 11.8011 3.49727 11.7497 3.49513C11.6982 3.493 11.6358 3.48649 11.5819 3.50777C11.5494 3.52058 11.5167 3.58782 11.503 3.60525C11.4642 3.65545 11.4029 3.59527 11.3828 3.65089C11.3624 3.70681 11.4326 3.77472 11.3614 3.82053C11.3448 3.73808 11.3242 3.65403 11.306 3.57135C11.1873 3.59308 11.0711 3.62551 10.9518 3.64953C10.8895 3.66117 10.8288 3.6768 10.7701 3.69398C10.7442 3.70166 10.757 3.65001 10.7282 3.65763C10.6061 3.69155 10.5293 3.76583 10.4261 3.8077C10.3459 3.84043 10.2448 3.84581 10.1684 3.87844C10.1755 3.98681 10.0579 4.02108 9.99052 4.07106C9.9668 4.08862 9.98174 4.10961 9.96788 4.12743C9.91535 4.19366 9.90499 4.10136 9.87986 4.10037C9.77355 4.09465 9.85957 4.26733 9.76027 4.31364C9.75448 4.31656 9.64687 4.25585 9.63563 4.25406C9.56406 4.24247 9.64254 4.29047 9.61169 4.31365C9.55543 4.35555 9.52073 4.39817 9.4341 4.40201C9.40842 4.40316 9.33334 4.36476 9.30809 4.4273C9.30471 4.43553 9.31989 4.46602 9.31608 4.4696C9.24499 4.53173 9.20563 4.43216 9.14738 4.41434C9.13711 4.41122 9.12712 4.41151 9.11752 4.41425C9.06664 4.42899 9.02638 4.49965 9.01896 4.52087C8.9946 4.58775 9.05955 4.53129 9.06361 4.53564C9.11182 4.58659 9.05001 4.59649 9.00751 4.61762C9.0366 4.7181 8.97338 4.73446 8.96368 4.63903C8.96276 4.62855 9.00034 4.62526 9.00751 4.61762C8.93419 4.53509 8.8608 4.548 8.82071 4.66514C8.80192 4.72004 8.85254 4.75699 8.74166 4.77797C8.69142 4.7875 8.68458 4.7133 8.63619 4.71039C8.52597 4.70371 8.42713 4.81129 8.32694 4.83445C8.29071 4.84281 8.31201 4.79392 8.28692 4.79828C8.22054 4.80955 8.17421 4.85576 8.10661 4.8607C8.10052 4.86107 8.10227 4.81746 8.08272 4.82288C7.93477 4.86253 7.81434 4.92124 7.66413 4.94776C7.59121 4.96122 7.46257 4.9521 7.39322 4.95721C7.27343 4.96935 7.11915 5.0098 7.02735 4.96509C6.96923 4.93662 6.99723 4.90157 6.98398 4.86659C6.97462 4.84022 6.95368 4.83282 6.92841 4.83226C6.87575 4.82517 6.81419 4.83902 6.80119 4.84279C6.80057 4.84307 6.85833 4.88326 6.81559 4.88531C6.77629 4.9148 6.80178 4.8433 6.80119 4.84279C6.78741 4.84689 6.65907 4.79108 6.63842 4.77117C6.62712 4.76037 6.65271 4.72971 6.64649 4.72474C6.49773 4.60707 6.3376 4.50863 6.16081 4.43248C6.15748 4.43155 6.14092 4.47229 6.13334 4.46962C6.0264 4.43307 5.98974 4.35185 5.92476 4.27988C5.85926 4.20763 5.79041 4.18192 5.70621 4.22127C5.64996 4.17965 5.54588 4.16061 5.48593 4.15097C5.42576 4.1412 5.45903 4.06257 5.45536 4.05867C5.34161 3.93614 5.23713 3.93543 5.08754 3.86564C5.01613 3.83241 4.88307 3.75012 4.81077 3.70351C4.75361 3.6664 4.70843 3.66621 4.65802 3.62724C4.65118 3.62199 4.67552 3.59176 4.67385 3.58932C4.63092 3.51788 4.62051 3.61584 4.60035 3.62439C4.52723 3.6557 4.4848 3.67062 4.41658 3.60701C4.40098 3.59244 4.40317 3.44627 4.37188 3.42325C4.33129 3.39364 4.32827 3.4448 4.28628 3.41292C4.28266 3.41024 4.29572 3.38377 4.26614 3.37182C4.12898 3.316 3.97386 3.26778 3.83167 3.20718C3.81218 3.199 3.85485 3.1658 3.82686 3.15325C3.69547 3.09443 3.54611 3.04007 3.40558 3.01441C3.37096 3.00825 3.38083 3.04632 3.37054 3.05303C3.3081 3.09359 3.27361 2.99208 3.26357 2.9871C3.02935 2.86756 2.8167 2.8874 2.56575 2.79305C2.55962 2.79069 2.53828 2.76658 2.51031 2.74683C2.47644 2.72258 2.43349 2.70512 2.39837 2.74233C2.39405 2.74678 2.33117 2.81617 2.29988 2.75433C2.2979 2.75046 2.33539 2.71543 2.28266 2.70977C2.2303 2.70418 2.15135 2.662 2.07278 2.69509C2.0478 2.70545 1.98248 2.77592 1.92586 2.70259C1.9225 2.69747 1.84034 2.53905 1.78957 2.63257C1.78131 2.64799 1.7725 2.75316 1.70147 2.68859C1.68787 2.67611 1.71836 2.65659 1.68092 2.63656C1.62332 2.60572 1.53953 2.62296 1.47221 2.56663C1.46045 2.55667 1.41497 2.47842 1.36458 2.52657C1.35661 2.5341 1.36503 2.57074 1.34137 2.57158C1.22917 2.5758 1.11904 2.53734 1.00559 2.54622C0.965138 2.54926 0.977345 2.60844 0.93477 2.61789C0.891663 2.62728 0.807489 2.63009 0.7692 2.59821C0.730415 2.56624 0.789481 2.4832 0.727504 2.46676C0.589018 2.43002 0.44774 2.41429 0.305653 2.40223C0.311575 2.40956 0.277154 2.38363 0.402027 2.44669C0.428844 2.4765 0.547504 2.48941 0.606307 2.76403C0.617459 3.0556 0.479117 3.11258 0.457772 3.14354C0.385909 3.19812 0.378649 3.19106 0.366481 3.19728C0.337454 3.20403 0.369711 3.18977 0.386241 3.18493C0.405215 3.17714 0.446934 3.17103 0.509258 3.16659C0.557479 3.16263 0.51458 3.19845 0.596581 3.19279C0.641821 3.18902 0.699634 3.18339 0.769703 3.16747C0.936659 3.13068 1.22929 3.12314 1.39236 3.05423C1.54457 2.98965 1.34567 2.95949 1.46396 2.92987C1.52102 2.91576 1.59061 3.01736 1.60517 3.0198C1.74611 3.04513 1.84181 2.99209 1.97204 2.99525C1.9991 2.99585 1.97652 3.04077 1.99967 3.04077C2.07856 3.04113 2.15986 3.01335 2.23621 3.00724C2.2706 3.00454 2.26845 3.03775 2.29981 3.03098C2.37494 3.01499 2.44041 2.99083 2.50908 2.94734C2.51521 2.94339 2.46306 2.91157 2.51829 2.89999C2.60833 2.88107 2.71254 2.82771 2.82363 2.83033C2.85672 2.83109 2.87813 2.90304 2.93074 2.83404C2.94185 2.81936 2.89779 2.73964 2.99723 2.78962C3.00769 2.7947 3.07406 2.8191 3.13447 2.81384C3.19728 2.80158 3.25332 2.77161 3.27202 2.73154C3.28841 2.70217 3.29934 2.60862 3.34301 2.59019C3.34949 2.58762 3.35169 2.63613 3.38703 2.61446C3.506 2.53949 3.58957 2.44825 3.67739 2.37309C3.70118 2.35254 3.70007 2.41476 3.73425 2.38338C3.82803 2.29709 3.91527 2.17777 3.9773 2.08386C4.00044 2.04877 3.95556 2.04876 3.95465 2.04402C3.93923 1.96783 4.01984 1.99944 4.03384 1.9902C4.1191 1.93317 4.13657 1.85241 4.20209 1.79158C4.21987 1.775 4.23843 1.81349 4.24421 1.81212C4.30237 1.79679 4.22498 1.77894 4.2397 1.75001C4.28127 1.66831 4.34808 1.59768 4.41107 1.53684C4.4343 1.51453 4.44314 1.57178 4.46345 1.55161C4.584 1.4333 4.70145 1.31114 4.80345 1.18998C4.82264 1.16712 4.78585 1.15268 4.78533 1.1426C4.78192 1.07177 4.87929 1.09087 4.89449 1.0882C4.96523 1.07457 4.96582 1.03557 5.01455 1.0075C5.25054 0.869788 5.52287 0.72221 5.75114 0.669369C5.76535 0.665841 5.7795 0.662495 5.79361 0.659328C5.91406 0.624967 5.98949 0.656766 6.34417 0.658432C6.42428 0.648737 6.51833 0.656779 6.63337 0.687354C6.65253 0.692435 6.62232 0.733012 6.63854 0.737988C6.84822 0.801309 7.10661 0.876358 7.36924 0.965298C7.39094 0.972602 7.34708 1.00588 7.38147 1.01897C7.45279 1.04636 7.5472 1.06914 7.62611 1.07397C7.66461 1.07641 7.62416 1.0276 7.66264 1.03074C7.75159 1.0377 7.84462 1.0549 7.93282 1.07917C7.97005 1.08948 7.90438 1.12282 7.95366 1.13274C8.03856 1.14986 8.12123 1.1649 8.20644 1.17761C8.43706 1.21193 8.6631 1.24106 8.90163 1.24074C8.92298 1.24064 8.95955 1.15422 9.00055 1.17996C8.99911 1.20557 8.99329 1.23491 8.98961 1.26188C9.42736 1.36087 9.86652 1.43433 10.3039 1.55453C10.3225 1.55964 10.2774 1.59719 10.3128 1.60724C10.5178 1.66561 10.7112 1.73946 10.9341 1.76207C10.956 1.76436 10.9721 1.67965 11.029 1.71223C11.039 1.71798 11.1277 1.75997 11.1448 1.78551C11.1471 1.78925 11.1176 1.82127 11.1465 1.83242C11.3158 1.89694 11.4965 1.95249 11.6742 1.99347C11.7029 2.00003 11.6888 1.94932 11.7094 1.95368C11.8565 1.98516 11.9933 2.07348 12.1396 2.09114C12.2371 2.10268 12.2321 2.02148 12.3064 1.97384C12.3169 1.9671 12.3724 1.98827 12.3914 1.95068C12.4393 1.85613 12.4566 1.73806 12.5108 1.63857C12.5224 1.61707 12.5877 1.67259 12.5656 1.59987C12.564 1.59492 12.5168 1.55431 12.511 1.53043C12.5069 1.51387 12.54 1.48128 12.5276 1.45715C12.5152 1.43302 12.4807 1.45758 12.4571 1.42563C12.4336 1.39349 12.4656 1.35396 12.4038 1.32283ZM5.21496 4.10717C5.14884 4.1182 5.21203 3.98243 5.24619 4.04116C5.24776 4.04416 5.21832 4.10669 5.21496 4.10717ZM10.9973 3.76363C10.9887 3.77469 10.98 3.7822 10.9716 3.78676C10.9165 3.81452 10.8657 3.74822 10.9082 3.69486C10.923 3.67704 10.9403 3.67317 10.9558 3.67745C10.9855 3.68918 11.01 3.7474 10.9973 3.76363ZM11.7072 3.69336C11.6381 3.75974 11.5865 3.55365 11.678 3.57967C11.6833 3.58111 11.7112 3.6895 11.7072 3.69336ZM12.0957 1.86653C12.0971 1.86493 12.1373 1.87887 12.1375 1.88109C12.1409 1.93355 12.0607 1.90572 12.0957 1.86653ZM12.4091 3.58789C12.3916 3.62206 12.3136 3.60751 12.335 3.56534C12.3521 3.53152 12.4305 3.54556 12.4091 3.58789ZM2.58702 3.19491C2.5857 3.19686 2.55527 3.19169 2.55875 3.17958C2.57009 3.14053 2.60944 3.16174 2.58702 3.19491ZM13.5892 3.34417C13.4399 3.39654 13.3222 3.57473 13.5378 3.52615C13.5747 3.51568 13.4463 3.4857 13.4916 3.46181C13.5667 3.41984 13.6577 3.50668 13.72 3.41676C13.7286 3.4022 13.5958 3.34276 13.5889 3.34403C13.589 3.34408 13.5891 3.34412 13.5892 3.34417ZM5.10353 4.25133C5.10168 4.25258 5.06326 4.23429 5.06326 4.23209C5.06513 4.17932 5.14269 4.2162 5.10353 4.25133ZM0.80329 3.00399C0.80033 3.00786 0.701999 2.99768 0.699258 2.99331C0.659512 2.90914 0.858147 2.92951 0.80329 3.00399ZM7.73702 5.35252C7.79267 5.39161 7.85267 5.38534 7.87688 5.31859C7.83122 5.33181 7.78414 5.34154 7.73702 5.35252Z" fill="#963076"/>
</svg>
