<svg width="2" height="15" viewBox="0 0 2 15" fill="none" xmlns="http://www.w3.org/2000/svg">
<path d="M0.871945 14.008C0.892975 13.9306 0.889856 13.826 0.879125 13.7456C0.875825 13.7204 0.848152 13.73 0.844691 13.7125C0.83796 13.6782 0.854182 13.6485 0.84549 13.6143C0.842477 13.603 0.799287 13.6121 0.797083 13.6003C0.785307 13.536 0.802317 13.478 0.800343 13.4136C0.790519 13.0967 0.8096 12.7878 0.827261 12.4694C0.833101 12.3645 0.810109 12.2331 0.83933 12.1274C0.84278 12.1151 0.878494 12.1269 0.881792 12.1248C0.932391 12.0928 0.857039 12.0965 0.850116 12.0708C0.822876 11.9687 0.832283 11.8606 0.857595 11.7685C0.868467 11.7293 0.936374 11.778 0.900373 11.7329C0.89795 11.7298 0.857885 11.7353 0.855047 11.7239C0.848678 11.698 0.861232 11.6519 0.860451 11.6324C0.858747 11.5947 0.859871 11.5886 0.863625 11.5535C0.868416 11.5056 0.855964 11.4461 0.870924 11.396C0.874235 11.3853 0.912319 11.4046 0.921196 11.3879C0.930064 11.3713 0.932256 11.3246 0.924748 11.3079C0.917236 11.2912 0.885132 11.294 0.87829 11.2904C0.820467 11.2604 0.910806 11.2169 0.913713 11.2103C0.964202 11.089 0.92946 10.9755 0.943868 10.8576C0.954889 10.7683 0.982289 10.6743 0.990432 10.5889C0.99997 10.4873 0.988841 10.3984 1.00446 10.3003C1.00606 10.29 1.05141 10.3078 1.05347 10.2952C1.07523 10.1609 1.08633 10.0261 1.07088 9.8878C1.06929 9.87392 1.02609 9.88637 1.02204 9.87221C0.998203 9.78542 0.932624 9.64553 1.11751 9.61782C1.11721 9.56105 1.11809 9.49223 1.08793 9.43802C1.06854 9.40303 1.02002 9.42901 1.04384 9.39169C1.04916 9.38327 1.08701 9.39954 1.09202 9.38655C1.11308 9.33188 1.10764 9.26861 1.1345 9.21519C1.14005 9.20435 1.17485 9.2116 1.18156 9.20913C1.23602 9.18817 1.15656 9.13319 1.15155 9.12266C1.11441 9.04258 1.1389 8.98998 1.1459 8.92029C1.1475 8.90412 1.19251 8.92871 1.19575 8.91334C1.21191 8.83358 1.21756 8.74952 1.20572 8.66801C1.20297 8.64992 1.16087 8.66141 1.15749 8.65253C1.1431 8.61342 1.22005 8.61397 1.2077 8.5766C1.2052 8.56873 1.17027 8.56899 1.16664 8.56719C1.1097 8.53902 1.19598 8.53012 1.19847 8.52483C1.23181 8.45823 1.14904 8.40357 1.16909 8.33797C1.17158 8.33012 1.21312 8.35317 1.21745 8.3308C1.24654 8.18174 1.25238 8.02111 1.2339 7.86821C1.23109 7.84443 1.1965 7.85738 1.19263 7.85548C1.13214 7.82477 1.21838 7.81867 1.22239 7.81145C1.25184 7.75441 1.18698 7.69108 1.2921 7.66149C1.28452 7.40516 1.36758 7.15965 1.30274 6.89972C1.30202 6.89643 1.25976 6.8979 1.2585 6.89136C1.24284 6.81255 1.30612 6.8338 1.39045 6.79108C1.41163 6.7803 1.31985 6.73188 1.31318 6.72776C1.28858 6.71266 1.22527 6.71946 1.22069 6.71477C1.18484 6.67621 1.38938 6.70224 1.39409 6.65542C1.39389 6.65393 1.35553 6.65633 1.35216 6.65204C1.34158 6.63869 1.35778 6.62808 1.34596 6.61488C1.31857 6.5846 1.21986 6.56513 1.28194 6.52912C1.28998 6.52458 1.40556 6.54402 1.40414 6.50168C1.40347 6.4848 1.4126 6.41119 1.40704 6.38977C1.40149 6.36838 1.36262 6.37898 1.36114 6.37734C1.31687 6.31703 1.2943 6.33614 1.22352 6.30134C1.15302 6.26659 1.32675 6.29088 1.3473 6.28137C1.3678 6.27184 1.33073 6.22722 1.31744 6.21587C1.30415 6.20452 1.27914 6.21476 1.27193 6.2051C1.22484 6.14118 1.36097 6.18733 1.39049 6.17046C1.46035 6.13068 1.33427 6.0828 1.32544 6.03976C1.32306 6.0281 1.35168 6.04007 1.35537 6.03022C1.36957 5.99113 1.33139 5.96338 1.37255 5.92115C1.37926 5.91425 1.46042 5.88437 1.40544 5.85535C1.39751 5.85123 1.36439 5.85794 1.35869 5.84021C1.35014 5.81371 1.34718 5.76711 1.36037 5.74068C1.37014 5.72115 1.42126 5.74903 1.40699 5.72209C1.40061 5.71012 1.36766 5.72837 1.35827 5.70611C1.34888 5.68397 1.35496 5.62999 1.35782 5.60948C1.36069 5.58902 1.40005 5.60376 1.40291 5.60233C1.41935 5.59362 1.4422 5.55579 1.44245 5.55229C1.45585 5.43471 1.43579 5.32071 1.43186 5.2072C1.42717 5.14703 1.42623 5.09083 1.43521 5.03435C1.43728 5.02094 1.47972 5.03104 1.48047 5.029C1.49958 4.98338 1.38515 5.01672 1.34803 4.98349C1.4345 4.99044 1.41933 4.97102 1.42968 4.93869C1.43474 4.92312 1.46805 4.93255 1.47152 4.9312C1.52306 4.90928 1.45769 4.89148 1.44435 4.88695C1.39524 4.87031 1.45417 4.8551 1.42135 4.84377C1.38878 4.83245 1.33947 4.85527 1.3409 4.82411C1.37213 4.81616 1.45254 4.84142 1.46628 4.81807C1.51826 4.73004 1.45895 4.56189 1.45418 4.48981C1.44941 4.41813 1.45572 4.39509 1.44559 4.35301C1.42727 4.2772 1.48666 4.30634 1.51538 4.26025C1.54411 4.214 1.39563 4.233 1.36401 4.22542C1.33241 4.21796 1.36531 4.21156 1.34805 4.20286C1.3308 4.1942 1.30872 4.2114 1.30267 4.19194C1.29662 4.17247 1.35453 4.1211 1.38795 4.11512C1.45876 4.10248 1.53204 4.12825 1.50742 4.0764C1.50596 4.07342 1.46682 4.08194 1.46319 4.07057C1.43562 3.98041 1.43627 3.88741 1.41228 3.79735C1.40892 3.78496 1.36536 3.79474 1.36291 3.78751C1.33733 3.71225 1.40952 3.74093 1.4917 3.70245C1.38362 3.70854 1.31828 3.6841 1.31928 3.62751C1.31985 3.5935 1.36677 3.60073 1.40061 3.57974C1.4108 3.57344 1.37918 3.54845 1.40146 3.54475C1.47428 3.53254 1.55463 3.55758 1.52411 3.49841C1.52265 3.49581 1.48278 3.50275 1.48065 3.49385C1.46667 3.43631 1.54259 3.4318 1.55368 3.37047C1.56238 3.32241 1.51897 3.23502 1.51331 3.17976C1.39206 3.17689 1.42156 3.12575 1.50585 3.10754C1.50365 3.07172 1.50972 3.03335 1.49939 2.99842C1.49588 2.9864 1.46051 2.99295 1.45677 2.99132C1.39811 2.96621 1.47998 2.95359 1.48344 2.94601C1.51745 2.86368 1.45842 2.79325 1.52179 2.71591C1.52407 2.71317 1.60842 2.71194 1.54781 2.6882C1.54363 2.68665 1.50428 2.71143 1.50282 2.67383C1.50136 2.63628 1.45916 2.56363 1.50041 2.51326C1.51034 2.50104 1.58004 2.47233 1.52779 2.44436C1.5207 2.44063 1.49639 2.44329 1.48318 2.43777C1.44109 2.41994 1.52654 2.41507 1.45512 2.39312C1.38371 2.37114 1.33136 2.32981 1.3837 2.27942C1.38523 2.27781 1.45323 2.26855 1.45296 2.25199C1.45247 2.22551 1.44025 2.1875 1.44207 2.15995C1.44296 2.14675 1.48439 2.1573 1.48528 2.15505C1.51319 2.06761 1.47918 2.00269 1.46827 1.90693C1.46618 1.88948 1.52607 1.84254 1.48294 1.80633C1.43575 1.76645 1.22807 1.79252 1.28213 1.70994C1.30381 1.6764 1.56696 1.64953 1.43598 1.57928C1.47715 1.46188 1.4158 1.34667 1.47261 1.23006C1.47513 1.22482 1.54906 1.21338 1.54904 1.20074C1.54888 1.18191 1.51575 1.16884 1.51457 1.15524C1.50878 1.09809 1.54198 1.04935 1.54207 0.99467C1.54218 0.973986 1.50648 0.97817 1.50663 0.953501C1.50682 0.928866 1.55442 0.916642 1.53509 0.881351C1.52033 0.854741 1.42825 0.821025 1.42035 0.786655C1.51353 0.794095 1.51372 0.770916 1.54218 0.732571C1.5477 0.725218 1.57928 0.736701 1.58355 0.733386C1.60169 0.719989 1.5762 0.70352 1.59575 0.691094C1.60046 0.688069 1.63224 0.691028 1.63787 0.688739C1.65377 0.68248 1.65745 0.673408 1.65477 0.663715L1.65269 0.676509C1.64958 0.655877 1.61939 0.62892 1.61224 0.62245C1.57212 0.586073 1.61544 0.583932 1.60216 0.560124C1.589 0.536032 1.55889 0.55956 1.55376 0.533778C1.54314 0.480485 1.56523 0.420325 1.57833 0.372138C1.58378 0.352861 1.62057 0.378355 1.62229 0.37588C1.64439 0.340289 1.61431 0.286446 1.70196 0.291998C1.50305 0.195191 1.72977 0.275469 1.7074 0.206822C1.70557 0.201387 1.60985 0.160787 1.58946 0.172729C1.56907 0.184684 1.59076 0.221071 1.5603 0.237203C1.55316 0.240826 1.44997 0.243232 1.44288 0.246108C1.38747 0.26794 1.53396 0.319533 1.54153 0.323772C1.62282 0.37163 1.51085 0.380501 1.50077 0.389396C1.45475 0.428882 1.46464 0.476115 1.43124 0.511297C1.40965 0.53427 1.31037 0.512725 1.30809 0.535271C1.30563 0.560028 1.31876 0.582842 1.33239 0.603695C1.33153 0.609234 1.32808 0.625543 1.32792 0.631146C1.36045 0.667629 1.39368 0.696393 1.30782 0.732908C1.2804 0.744605 1.17114 0.720309 1.25332 0.779299C1.2585 0.783031 1.33456 0.827961 1.2823 0.845265C1.2757 0.84744 1.24349 0.844458 1.24045 0.847843C1.22077 0.870569 1.24499 0.889281 1.23041 0.914456C1.21582 0.939734 1.19476 0.970005 1.20317 1.00122C1.20818 1.02009 1.26635 1.04831 1.28036 1.05814C1.32074 1.08601 1.24916 1.10674 1.29928 1.12603C1.34966 1.1454 1.43034 1.12173 1.46053 1.16436C1.37661 1.1593 1.29032 1.15601 1.20585 1.15185C1.20194 1.24021 1.22269 1.32905 1.21288 1.41721C1.21158 1.42816 1.16727 1.41381 1.16472 1.42549C1.15414 1.47473 1.18342 1.51998 1.16729 1.57077C1.15465 1.60998 1.10417 1.65051 1.08959 1.69161C1.18404 1.7231 1.14778 1.78255 1.15399 1.82805C1.15612 1.84396 1.18183 1.84437 1.18956 1.85604C1.21813 1.89995 1.13438 1.87539 1.12037 1.8862C1.06061 1.93263 1.25249 1.9474 1.24462 2.0055C1.24426 2.00861 1.13986 2.04093 1.13321 2.04583C1.08991 2.07677 1.16857 2.05316 1.17507 2.07425C1.18696 2.11273 1.21009 2.14037 1.1779 2.18313C1.16838 2.19558 1.10302 2.22353 1.15121 2.25104C1.15752 2.25465 1.19147 2.25444 1.19332 2.2572C1.22409 2.3069 1.11765 2.30317 1.08034 2.32902C1.04304 2.35489 1.11457 2.40079 1.13536 2.41037C1.18912 2.43545 1.15954 2.39407 1.16497 2.39309C1.22958 2.38159 1.21717 2.41205 1.22153 2.43596C1.32571 2.44403 1.31801 2.47671 1.22564 2.4607C1.21555 2.45891 1.22609 2.44093 1.22153 2.43596C1.11824 2.45223 1.10354 2.48806 1.1975 2.53229C1.24155 2.55299 1.29456 2.53742 1.27306 2.59367C1.26335 2.61917 1.19192 2.60621 1.17139 2.62825C1.12456 2.67865 1.18891 2.74929 1.1763 2.80262C1.17172 2.82201 1.13311 2.80148 1.12863 2.81469C1.11661 2.84974 1.14496 2.88216 1.12854 2.91715C1.12701 2.92033 1.08611 2.91094 1.08519 2.922C1.07735 3.00579 1.10119 3.07979 1.099 3.16742C1.09792 3.20974 1.07275 3.28467 1.07594 3.32866C1.08121 3.40489 1.13827 3.50009 1.12182 3.56448C1.11127 3.60649 1.07034 3.59601 1.04175 3.61332C0.986316 3.64676 1.08202 3.71146 1.09687 3.7202C1.09737 3.72047 1.10811 3.68437 1.12871 3.70438C1.17245 3.71691 1.09708 3.7198 1.09687 3.7202C1.10647 3.72594 1.11378 3.79887 1.10551 3.81309C1.10099 3.82081 1.06208 3.81535 1.06046 3.81939C1.02284 3.91558 1.01032 4.01264 1.02598 4.11169C1.02672 4.11344 1.07046 4.11198 1.07166 4.11609C1.08958 4.1736 1.03522 4.20867 1.00229 4.25491C0.969377 4.30113 0.979041 4.33853 1.05328 4.36836C1.04294 4.40363 1.07478 4.4553 1.09414 4.485C1.1135 4.51483 1.0284 4.51674 1.02665 4.51927C0.970825 4.59822 1.01829 4.64584 1.02372 4.72928C1.02646 4.76875 1.01209 4.84726 1.00168 4.88967C0.993312 4.92318 1.01269 4.94431 0.999128 4.97513C0.997316 4.9793 0.959585 4.97404 0.958094 4.97529C0.911895 5.00887 1.00485 4.9946 1.02118 5.00222C1.08058 5.02986 1.11215 5.04666 1.08268 5.09062C1.07593 5.10075 0.941914 5.12708 0.933612 5.14554C0.923063 5.16956 0.97106 5.16171 0.958794 5.1868C0.958372 5.1877 0.952928 5.188 0.946822 5.18921L0.947976 5.16796C0.939473 5.16918 0.929619 5.17206 0.929633 5.18119C0.929359 5.25424 0.939892 5.33478 0.930585 5.40988C0.929426 5.42015 0.883968 5.40303 0.881527 5.41779C0.870111 5.48704 0.865242 5.56378 0.88109 5.63364C0.885137 5.65085 0.918655 5.64322 0.928016 5.6477C0.984631 5.67515 0.896744 5.69931 0.894662 5.70437C0.84276 5.82521 0.911117 5.92755 0.862725 6.05104C0.859934 6.05778 0.763809 6.10245 0.83978 6.13348C0.844831 6.13559 0.922631 6.16659 0.865977 6.18221C0.862433 6.18317 0.822627 6.16467 0.824418 6.19058C0.8262 6.2165 0.794808 6.25492 0.836704 6.29428C0.849898 6.30673 0.927176 6.34066 0.860377 6.36772C0.855729 6.36948 0.706985 6.40671 0.804423 6.43458C0.820466 6.43912 0.925763 6.44624 0.868076 6.48056C0.856903 6.4871 0.834825 6.4711 0.818258 6.48958C0.792744 6.51785 0.816893 6.56101 0.766426 6.59383C0.757504 6.59952 0.683499 6.6203 0.735352 6.64799C0.743473 6.65233 0.779178 6.64918 0.781925 6.66136C0.795149 6.71934 0.765812 6.77567 0.784286 6.835C0.79076 6.85602 0.848447 6.85146 0.861489 6.87402C0.87453 6.89655 0.884789 6.9405 0.856647 6.95987C0.828495 6.97924 0.740705 6.94593 0.730095 6.97814C0.684 7.11808 0.722044 7.26552 0.714509 7.40935C0.713399 7.43067 0.682996 7.40965 0.67904 7.44081C0.664313 7.55597 0.612392 7.75129 0.669858 7.85907C0.71591 7.94532 0.768891 7.84904 0.784456 7.9128C0.791839 7.94357 0.683439 7.96389 0.679345 7.97065C0.638069 8.0365 0.679064 8.09028 0.657754 8.15144C0.653338 8.16406 0.612282 8.14657 0.608994 8.15737C0.597383 8.19419 0.611873 8.2359 0.604327 8.27146C0.600843 8.2874 0.568734 8.28074 0.569553 8.29586C0.571137 8.33201 0.581185 8.36508 0.607634 8.40322C0.610044 8.40669 0.652839 8.38999 0.651332 8.41648C0.648779 8.45934 0.672713 8.51565 0.636101 8.56103C0.625109 8.57448 0.550906 8.56649 0.598506 8.60362C0.608442 8.61141 0.698436 8.61332 0.617303 8.64088C0.603812 8.64554 0.492983 8.69469 0.556371 8.73244C0.573053 8.7424 0.64355 8.77107 0.630068 8.78722C0.627965 8.78937 0.589251 8.77525 0.583682 8.78927C0.564747 8.83878 0.562756 8.8927 0.544128 8.94377C0.539077 8.95739 0.500322 8.93169 0.494109 8.95213C0.476963 9.00834 0.479024 9.08119 0.4853 9.13876C0.487692 9.16 0.523505 9.14974 0.527041 9.15169C0.584588 9.18302 0.501354 9.18777 0.49565 9.19524C0.461264 9.24191 0.495046 9.28452 0.479439 9.32938C0.475235 9.34178 0.437434 9.32814 0.433667 9.33026C0.396682 9.35247 0.468814 9.34123 0.474535 9.35875C0.490794 9.40785 0.481488 9.45934 0.47089 9.50591C0.466941 9.523 0.424194 9.49816 0.421171 9.51356C0.402419 9.6046 0.395325 9.70027 0.409363 9.79315C0.412092 9.81062 0.448072 9.80416 0.455575 9.80864C0.508109 9.83958 0.428193 9.86603 0.420004 9.87334C0.38263 9.90656 0.411578 9.92469 0.401895 9.95681C0.354025 10.114 0.350377 10.3145 0.344571 10.4676C0.336811 10.6671 0.351244 10.8243 0.319883 11.0118C0.317935 11.0237 0.273232 11.0061 0.27096 11.0163C0.243744 11.1481 0.245923 11.2818 0.216549 11.4138C0.214218 11.4246 0.172353 11.4035 0.167141 11.4208C0.156143 11.4562 0.153034 11.5022 0.162641 11.5404C0.167244 11.559 0.207657 11.5396 0.211524 11.5583C0.22061 11.6017 0.218401 11.6466 0.206254 11.6888C0.200993 11.7068 0.159515 11.6738 0.156166 11.6975C0.132462 11.8587 0.105927 12.0168 0.144807 12.1868C0.147474 12.1985 0.237325 12.219 0.217086 12.2408C0.191619 12.2397 0.161921 12.2361 0.134834 12.2337C0.0927797 12.4676 0.0975239 12.7045 0.0758789 12.9416C0.074958 12.9516 0.0286417 12.929 0.0266132 12.9483C0.0148062 13.0601 -0.0106025 13.1674 0.0248859 13.287C0.0283372 13.2989 0.113873 13.3023 0.097388 13.3344C0.0943991 13.34 0.0776073 13.3892 0.0577701 13.4002C0.0547987 13.4017 0.0161583 13.3882 0.0132485 13.4043C-0.00294914 13.4979 -0.00447717 13.5981 0.00985035 13.6948C0.0122392 13.7104 0.0561595 13.6987 0.0582281 13.7099C0.0726004 13.7888 0.0318058 13.8694 0.0626457 13.9467C0.0834468 13.9985 0.15831 13.9877 0.227523 14.0211C0.237286 14.0258 0.235819 14.0563 0.277476 14.0621C0.382213 14.0767 0.498826 14.0737 0.610291 14.0911C0.634299 14.0948 0.604222 14.1325 0.664971 14.1145C0.669043 14.1132 0.691366 14.0859 0.711887 14.0807C0.726078 14.0771 0.767683 14.0904 0.786236 14.082C0.804772 14.0735 0.770271 14.0587 0.792579 14.0438C0.815143 14.0289 0.862748 14.0413 0.871945 14.008ZM1.18065 4.61904C1.22078 4.64713 1.07118 4.64733 1.10769 4.61896C1.10964 4.61759 1.17869 4.61759 1.18065 4.61904ZM1.33536 1.33666C1.39862 1.37675 1.30017 1.39425 1.25112 1.36558C1.20214 1.33684 1.3162 1.32441 1.33536 1.33666ZM1.41221 0.972354C1.46052 1.01813 1.24864 1.00705 1.29514 0.965996C1.29777 0.963604 1.4094 0.969675 1.41221 0.972354ZM0.260349 13.9023C0.262285 13.9029 0.261963 13.9249 0.259952 13.9253C0.211508 13.932 0.212187 13.8879 0.260349 13.9023ZM1.50386 0.606529C1.52006 0.619263 1.50852 0.635663 1.48981 0.639483C1.47931 0.650129 1.46778 0.64995 1.45644 0.643952C1.4565 0.641579 1.45797 0.634672 1.45833 0.632325C1.45787 0.631998 1.45742 0.63166 1.45697 0.63131C1.43192 0.61184 1.47292 0.582307 1.50386 0.606529ZM1.25285 6.03194C1.25503 6.03257 1.25559 6.04838 1.24308 6.04691C1.20277 6.04213 1.21618 6.02144 1.25285 6.03194ZM1.69546 0.0101647C1.6699 0.099382 1.81539 0.211382 1.83133 0.11247C1.83432 0.0944392 1.76544 0.128831 1.75871 0.101926C1.74663 0.0524497 1.85932 0.065857 1.81967 0.00471799C1.81239 -0.00640058 1.69655 0.00491817 1.69517 0.0102296C1.69527 0.010208 1.69537 0.0101863 1.69546 0.0101647ZM1.35982 4.63921C1.36178 4.63981 1.3631 4.66164 1.36113 4.66211C1.31337 4.67269 1.31068 4.62871 1.35982 4.63921ZM1.25616 6.95349C1.26023 6.95512 1.25901 7.00581 1.25497 7.00705C1.17506 7.02533 1.1773 6.92292 1.25616 6.95349ZM1.5101 3.17878C1.55863 3.15668 1.5652 3.12858 1.50591 3.10765C1.50829 3.13129 1.50795 3.15501 1.5101 3.17878Z" fill="#397C57"/>
</svg>
