<svg width="11" height="5" viewBox="0 0 11 5" fill="none" xmlns="http://www.w3.org/2000/svg">
<path d="M10.5352 4.84263C10.467 4.84157 10.3823 4.80883 10.3215 4.77553C10.3021 4.76511 10.3184 4.7416 10.3053 4.73323C10.2793 4.71678 10.2516 4.72379 10.227 4.70552C10.219 4.69935 10.2396 4.66103 10.2309 4.6555C10.1831 4.6254 10.1321 4.6244 10.0819 4.60323C9.83421 4.49866 9.58909 4.41908 9.33685 4.3298C9.25411 4.30052 9.16173 4.23491 9.07013 4.2258C9.0594 4.22476 9.05524 4.26192 9.05246 4.26428C9.00913 4.30015 9.03994 4.23162 9.02292 4.21638C8.95533 4.15611 8.86933 4.12704 8.78995 4.11785C8.75614 4.11403 8.76701 4.19382 8.74664 4.14469C8.74521 4.14136 8.76474 4.1064 8.75717 4.09973C8.73998 4.08469 8.70018 4.0798 8.68569 4.07207C8.65783 4.05701 8.65281 4.05586 8.62493 4.04671C8.58674 4.03381 8.54701 4.00089 8.50336 3.99627C8.49399 3.99539 8.49339 4.03731 8.47734 4.03935C8.46131 4.04139 8.42505 4.02616 8.41549 4.01312C8.40589 4.00007 8.42093 3.9718 8.42095 3.96421C8.42162 3.90033 8.35287 3.96675 8.34669 3.96691C8.23492 3.96769 8.16409 3.89302 8.07063 3.86079C7.99901 3.83619 7.9185 3.82448 7.85101 3.79762C7.77189 3.76591 7.71078 3.7199 7.6321 3.69367C7.6237 3.69081 7.61647 3.73857 7.60614 3.73515C7.49726 3.69905 7.3933 3.65175 7.29976 3.57746C7.29055 3.57004 7.32022 3.53765 7.31203 3.52797C7.26021 3.46913 7.19514 3.35059 7.0813 3.49645C7.04152 3.47042 6.99013 3.43791 6.96834 3.38667C6.95412 3.35357 6.99839 3.32516 6.95925 3.3272C6.95038 3.32757 6.94177 3.36744 6.92976 3.36527C6.87907 3.35604 6.83891 3.32068 6.78571 3.31495C6.77499 3.31394 6.76038 3.34629 6.75484 3.35053C6.70918 3.38445 6.71563 3.29008 6.71123 3.28034C6.67854 3.20959 6.62907 3.19822 6.58016 3.166C6.57886 3.16514 6.57756 3.16427 6.57627 3.16339C6.56487 3.15554 6.55238 3.20426 6.54045 3.19811C6.4792 3.16588 6.42246 3.12254 6.37947 3.06702C6.36988 3.0545 6.40432 3.02911 6.40094 3.02144C6.38597 2.98814 6.33639 3.0468 6.32147 3.01604C6.3183 3.00965 6.34121 2.98338 6.34247 2.97961C6.36217 2.92032 6.30035 2.98025 6.29541 2.97903C6.23275 2.96561 6.25383 2.87156 6.2015 2.8484C6.19506 2.8456 6.18134 2.89005 6.16479 2.87998C6.05523 2.81371 5.95576 2.72093 5.88056 2.61478C5.86885 2.59834 5.9004 2.58149 5.902 2.57756C5.92661 2.51578 5.86317 2.57378 5.8561 2.57214C5.80243 2.55806 5.81246 2.47364 5.72137 2.52951C5.58134 2.36656 5.38696 2.27054 5.29129 2.06574C5.29 2.06321 5.32119 2.03484 5.3185 2.02993C5.28646 1.97053 5.2526 2.02745 5.16881 2.05995C5.14777 2.06812 5.1869 1.97468 5.18937 1.96749C5.19864 1.94113 5.24763 1.90115 5.24833 1.89509C5.25258 1.84645 5.12088 2.00504 5.09191 1.98004C5.09122 1.97899 5.11986 1.9536 5.11989 1.94864C5.12006 1.93313 5.10269 1.93804 5.10379 1.92174C5.10652 1.88421 5.16568 1.80296 5.10158 1.82483C5.09336 1.82776 5.02241 1.92088 5 1.89453C4.99122 1.88399 4.94389 1.8466 4.9359 1.83007C4.92788 1.81348 4.9609 1.792 4.96104 1.78998C4.95803 1.72255 4.98449 1.71776 5.01383 1.64625C5.04287 1.57489 4.93615 1.71407 4.91655 1.72325C4.89701 1.7324 4.89725 1.67944 4.89982 1.66311C4.90244 1.64681 4.92557 1.63477 4.92497 1.62385C4.92051 1.55213 4.85362 1.67797 4.82379 1.6896C4.75339 1.71742 4.81211 1.59801 4.79262 1.56643C4.78739 1.55793 4.77509 1.58592 4.76683 1.58295C4.73457 1.57106 4.74389 1.52692 4.69144 1.53352C4.68287 1.53457 4.61191 1.57868 4.63099 1.52125C4.63376 1.51298 4.65959 1.49189 4.65273 1.47764C4.64243 1.45622 4.61667 1.4282 4.59194 1.42348C4.57462 1.42021 4.55912 1.4693 4.55157 1.45179L4.57481 1.4647C4.57422 1.46394 4.5736 1.46301 4.57296 1.4619C4.56701 1.45153 4.59481 1.42905 4.58263 1.41198C4.57053 1.39493 4.52838 1.3796 4.51219 1.37436C4.496 1.36914 4.48975 1.4102 4.48747 1.41223C4.47401 1.4237 4.43674 1.42999 4.43411 1.42891C4.29803 1.38076 4.19687 1.26936 4.05713 1.24203C4.04623 1.23985 4.03838 1.28244 4.03657 1.28252C3.99465 1.2862 4.06193 1.18997 4.04988 1.14511C4.02378 1.22781 4.01437 1.20766 3.98598 1.20746C3.97228 1.20744 3.96745 1.24137 3.96517 1.24419C3.92992 1.28561 3.93987 1.21925 3.9412 1.20542C3.94611 1.15455 3.91342 1.20498 3.91655 1.17094C3.91956 1.13713 3.95457 1.09793 3.93028 1.0899C3.91312 1.1167 3.90362 1.19936 3.88104 1.20524C3.79491 1.22711 3.68807 1.12259 3.63357 1.09715C3.57991 1.0719 3.56059 1.07148 3.53148 1.0499C3.47871 1.01094 3.48139 1.07522 3.43631 1.08929C3.39125 1.10341 3.45517 0.968719 3.45984 0.936774C3.46458 0.904871 3.44872 0.934107 3.44773 0.915394C3.44674 0.896689 3.46738 0.88069 3.4543 0.86951C3.44133 0.858358 3.38211 0.898592 3.36645 0.928491C3.33339 0.991852 3.32935 1.06822 3.29728 1.03061C3.29545 1.0284 3.31482 0.993764 3.3072 0.987188C3.24661 0.936286 3.17377 0.911437 3.1115 0.86456C3.10297 0.85806 3.1243 0.819347 3.11947 0.815094C3.06936 0.770778 3.06847 0.846834 3.01275 0.914611C3.05136 0.813612 3.05245 0.744923 3.00779 0.730859C2.98103 0.722406 2.97217 0.768938 2.94545 0.795625C2.93743 0.80368 2.9278 0.767088 2.91811 0.787328C2.88613 0.853406 2.88112 0.936423 2.84408 0.891892C2.84249 0.889826 2.86009 0.853675 2.85377 0.849318C2.81297 0.821018 2.78641 0.892185 2.73583 0.887186C2.69582 0.883164 2.63997 0.81938 2.59909 0.800276C2.63277 0.683755 2.58328 0.698879 2.54447 0.774966C2.51693 0.763872 2.48524 0.760184 2.46118 0.741766C2.4529 0.735464 2.4681 0.703189 2.46791 0.699209C2.46519 0.636866 2.43136 0.71205 2.42446 0.713518C2.34964 0.725742 2.31186 0.652249 2.23281 0.694361C2.23002 0.695893 2.20572 0.776634 2.20394 0.712754C2.20388 0.708366 2.23409 0.676447 2.20514 0.666103C2.17703 0.655959 2.12956 0.597672 2.07931 0.625687C2.06692 0.63235 2.02649 0.692946 2.01782 0.635956C2.01675 0.628241 2.02537 0.605458 2.0245 0.591429C2.02149 0.546678 1.99487 0.627875 1.99646 0.55393C1.99784 0.479945 1.97951 0.419981 1.92541 0.458784C1.9237 0.459882 1.89847 0.523335 1.88535 0.51926C1.86437 0.512681 1.83745 0.492229 1.81556 0.487836C1.80508 0.485755 1.80271 0.528151 1.80073 0.528499C1.72307 0.535427 1.68171 0.488362 1.60758 0.456585C1.5944 0.450756 1.54271 0.4986 1.52394 0.448868C1.50352 0.394482 1.57383 0.198482 1.49509 0.233251C1.4617 0.246856 1.38005 0.497061 1.35393 0.354999C1.25151 0.370756 1.17027 0.2873 1.06496 0.320858C1.06012 0.32232 1.0362 0.392553 1.02631 0.39023C1.01156 0.386626 1.00809 0.351845 0.996725 0.34813C0.951376 0.332027 0.905555 0.356161 0.862717 0.347632C0.845471 0.344417 0.854493 0.30985 0.834405 0.306208C0.815344 0.302754 0.796789 0.347826 0.771782 0.324084C0.753074 0.306084 0.734583 0.210363 0.70198 0.199458C0.701584 0.262428 0.691605 0.282075 0.677232 0.296388C0.669794 0.303357 0.660624 0.308992 0.650005 0.317525C0.643751 0.322592 0.652117 0.354785 0.64923 0.358859C0.637503 0.376158 0.624809 0.349722 0.613722 0.368455C0.611013 0.372956 0.61222 0.404852 0.610079 0.410331C0.591854 0.458154 0.555654 0.387658 0.54965 0.375345C0.526236 0.328653 0.517449 0.37045 0.500153 0.352234C0.483015 0.333997 0.507218 0.309973 0.487545 0.299146C0.447027 0.276755 0.395988 0.282614 0.355531 0.28112C0.339322 0.280724 0.350328 0.323336 0.348006 0.324269C0.314174 0.335048 0.281035 0.289277 0.260704 0.373788C0.241644 0.153925 0.239983 0.39479 0.192356 0.349508C0.188616 0.34584 0.18701 0.241981 0.201894 0.227177C0.216573 0.212377 0.237448 0.245352 0.257873 0.221978C0.262726 0.216513 0.290812 0.119692 0.294426 0.113827C0.322767 0.0681077 0.32583 0.223132 0.327325 0.231672C0.344385 0.323711 0.377681 0.218878 0.385984 0.21156C0.425099 0.178132 0.45866 0.199291 0.491068 0.174743C0.51219 0.158851 0.511088 0.0572448 0.5278 0.0598086C0.583401 0.0681599 0.609578 0.208781 0.658105 0.0836601C0.663335 0.0702835 0.661808 0.035891 0.66471 0.0156413C0.668954 -0.0045308 0.680593 -0.0110755 0.710124 0.0324423C0.7164 0.037867 0.7484 0.11818 0.772892 0.0688388C0.775614 0.0625865 0.777029 0.0302608 0.780472 0.0277035C0.803332 0.011221 0.818988 0.0380379 0.843457 0.0274988C0.866958 0.0168755 0.900856 0.0014366 0.924629 0.0149038C0.939903 0.0230368 0.954326 0.0852657 0.960472 0.100821C0.976318 0.145388 1.0065 0.0788389 1.01353 0.131612C1.02025 0.184619 0.984856 0.259315 1.01481 0.296857C1.02698 0.21367 1.04079 0.128458 1.05378 0.0448977C1.12763 0.0575457 1.19982 0.0959789 1.27216 0.104127C1.28149 0.105115 1.27937 0.058959 1.28963 0.0588856C1.3345 0.0590675 1.36203 0.096529 1.40871 0.0918603C1.44365 0.0878704 1.48769 0.047351 1.52567 0.0423033C1.52941 0.140908 1.58486 0.118383 1.6213 0.13467C1.6339 0.140296 1.62813 0.165342 1.6354 0.17536C1.66324 0.212636 1.66429 0.126123 1.67638 0.114931C1.72854 0.0673651 1.69366 0.256607 1.7422 0.262009C1.74462 0.262322 1.79664 0.168565 1.80235 0.163271C1.83829 0.128423 1.7993 0.199125 1.81468 0.210209C1.84283 0.230495 1.85964 0.259267 1.90165 0.237878C1.91401 0.231521 1.95346 0.174878 1.96326 0.22783C1.96454 0.234764 1.9555 0.26747 1.95724 0.269905C1.9898 0.311303 2.01398 0.207602 2.04462 0.177681C2.07513 0.147743 2.09325 0.227576 2.09544 0.249884C2.10136 0.307637 2.0758 0.2693 2.07358 0.274313C2.04714 0.333853 2.07487 0.329066 2.09309 0.338981C2.07179 0.441263 2.09984 0.441543 2.11193 0.348824C2.11337 0.338724 2.09588 0.344548 2.09309 0.338981C2.13444 0.243501 2.16622 0.237631 2.17623 0.338641C2.18083 0.385977 2.15383 0.433195 2.2048 0.426047C2.22794 0.422876 2.23741 0.351135 2.2605 0.336682C2.31297 0.303652 2.35195 0.382762 2.39828 0.383847C2.41482 0.384166 2.4095 0.342126 2.42118 0.341041C2.45225 0.33807 2.46997 0.373247 2.50276 0.366274C2.50575 0.365597 2.50987 0.324061 2.51904 0.325946C2.58905 0.339576 2.6399 0.380707 2.71107 0.4012C2.74461 0.410828 2.81173 0.406109 2.84628 0.420752C2.90484 0.445429 2.96359 0.525007 3.0194 0.526425C3.05566 0.527489 3.0601 0.485824 3.08265 0.463255C3.12634 0.419494 3.14822 0.528017 3.1505 0.544509C3.15054 0.545039 3.11839 0.545425 3.12789 0.570421C3.12415 0.615358 3.15011 0.544589 3.1505 0.544509C3.15252 0.555296 3.20693 0.581758 3.2209 0.577855C3.22842 0.575672 3.23646 0.537286 3.24017 0.536857C3.32869 0.527668 3.40905 0.542681 3.48264 0.585672C3.48379 0.586874 3.46825 0.627753 3.47112 0.630058C3.51099 0.663385 3.55574 0.621829 3.6034 0.604152C3.65082 0.586425 3.67785 0.606663 3.67597 0.685128C3.70692 0.685549 3.73658 0.730604 3.75329 0.757568C3.76998 0.784523 3.80082 0.705229 3.80342 0.704342C3.88556 0.675685 3.90532 0.734081 3.96912 0.764611C3.99957 0.779312 4.06547 0.789739 4.10248 0.793246C4.1318 0.795873 4.14115 0.820473 4.17028 0.817543C4.17422 0.81717 4.18382 0.780374 4.18535 0.779379C4.22865 0.746987 4.1835 0.829021 4.18353 0.84663C4.18362 0.910689 4.18473 0.94519 4.2295 0.931624C4.23976 0.928517 4.30978 0.812387 4.32741 0.810657C4.35017 0.808618 4.32613 0.850614 4.3504 0.847364C4.35246 0.847129 4.36246 0.819405 4.37451 0.825329C4.43066 0.852504 4.48651 0.892199 4.54773 0.912791C4.55604 0.915705 4.56242 0.868046 4.57473 0.871552C4.63234 0.887992 4.69191 0.913335 4.7379 0.95528C4.74913 0.965731 4.72865 0.992783 4.72792 1.00296C4.72587 1.03317 4.73845 1.03194 4.75242 1.02287C4.76937 1.03143 4.8186 1.05511 4.8329 1.06759C4.84958 1.06223 4.86977 1.04901 4.87215 1.04974C4.98501 1.08204 5.00445 1.19447 5.11372 1.23432C5.11958 1.23619 5.21359 1.19416 5.18024 1.26827C5.17813 1.27328 5.14307 1.3483 5.1918 1.31717C5.19485 1.31522 5.21113 1.2751 5.22571 1.29247C5.24027 1.30981 5.28535 1.31117 5.2797 1.36564C5.278 1.38285 5.24376 1.45866 5.30663 1.42807C5.31084 1.42576 5.43799 1.34405 5.38541 1.43021C5.37672 1.44437 5.30634 1.52294 5.36713 1.50373C5.37885 1.49995 5.38521 1.47443 5.40772 1.47435C5.4423 1.47413 5.45001 1.51803 5.50489 1.50338C5.51453 1.50072 5.57939 1.46219 5.5581 1.51569C5.55476 1.52406 5.5274 1.54693 5.53236 1.55647C5.5558 1.60192 5.60855 1.61679 5.62834 1.66658C5.63539 1.68415 5.59135 1.72125 5.59448 1.7443C5.59764 1.76737 5.61446 1.80169 5.64538 1.79423C5.67631 1.78676 5.7212 1.70541 5.74658 1.71805C5.8568 1.77294 5.90885 1.88935 5.99191 1.97073C6.00421 1.98279 6.01448 1.94886 6.03412 1.96482C6.10665 2.02386 6.24764 2.10127 6.26668 2.20464C6.28189 2.28759 6.19279 2.27021 6.21709 2.31841C6.22907 2.34168 6.3149 2.27503 6.32125 2.2758C6.38545 2.28336 6.38733 2.34386 6.43586 2.36279C6.44591 2.36669 6.46369 2.32651 6.47193 2.33018C6.5001 2.34224 6.51342 2.37609 6.53862 2.39044C6.54992 2.39674 6.56736 2.36901 6.57522 2.37795C6.59419 2.39896 6.60638 2.42485 6.61058 2.46565C6.61098 2.46937 6.57356 2.49246 6.58951 2.50584C6.6153 2.52732 6.63275 2.5768 6.68233 2.57342C6.69723 2.57239 6.74015 2.51136 6.73121 2.5679C6.72929 2.57965 6.6732 2.64986 6.74075 2.60237C6.75212 2.59461 6.85053 2.5354 6.83274 2.60455C6.82798 2.62271 6.80027 2.69245 6.8183 2.69063C6.82088 2.69015 6.83689 2.65263 6.8486 2.65575C6.867 2.66095 6.88389 2.66929 6.90084 2.67806C6.91791 2.6864 6.93577 2.6956 6.95693 2.70049C6.96723 2.70277 6.9763 2.65969 6.99083 2.66413C7.02898 2.67517 7.06926 2.71034 7.09836 2.74088C7.10938 2.7524 7.0838 2.77761 7.08297 2.78142C7.07003 2.84358 7.11864 2.77642 7.12616 2.77499C7.17225 2.76692 7.17936 2.81386 7.21611 2.8208C7.22616 2.82277 7.23732 2.7846 7.24063 2.78235C7.27332 2.76048 7.22902 2.817 7.23677 2.82946C7.25812 2.86445 7.29724 2.87968 7.33171 2.89021C7.34452 2.89408 7.35018 2.84666 7.36142 2.85058C7.42903 2.87334 7.49465 2.90711 7.55012 2.95794C7.56035 2.96751 7.53906 2.99643 7.53846 3.00485C7.5342 3.06374 7.58997 3.00452 7.59871 3.00029C7.63876 2.98109 7.63783 3.01413 7.66379 3.01852C7.79309 3.04048 7.93213 3.11566 8.04294 3.1696C8.18691 3.23955 8.29319 3.31163 8.44125 3.35214C8.45062 3.35474 8.45607 3.30753 8.46433 3.3092C8.5706 3.33285 8.66608 3.38283 8.77365 3.4026C8.78246 3.4043 8.78344 3.3584 8.79799 3.3597C8.82798 3.3621 8.86256 3.37538 8.88669 3.39755C8.89849 3.40829 8.86881 3.43872 8.88094 3.4488C8.90916 3.47234 8.94319 3.48602 8.9786 3.48936C8.9937 3.49069 8.98535 3.44106 9.00393 3.44614C9.13083 3.47982 9.25652 3.50849 9.36845 3.60086C9.37611 3.60719 9.35889 3.69755 9.38246 3.68593C9.39077 3.66185 9.39879 3.63303 9.40676 3.60704C9.59507 3.6448 9.76993 3.72458 9.95513 3.77682C9.96298 3.77903 9.96132 3.72851 9.97655 3.73252C10.0644 3.75559 10.1529 3.76368 10.2314 3.83221C10.2393 3.83896 10.2147 3.92091 10.2443 3.91471C10.2495 3.91356 10.292 3.91195 10.3064 3.89629C10.3084 3.8939 10.3104 3.85341 10.3234 3.85527C10.3995 3.867 10.4746 3.8936 10.5441 3.93403C10.5552 3.94059 10.5332 3.9792 10.541 3.98424C10.5963 4.01963 10.6698 4.0025 10.72 4.0524C10.7539 4.08601 10.7244 4.1548 10.7306 4.22986C10.7315 4.24046 10.7553 4.247 10.7481 4.28843C10.7302 4.39263 10.6952 4.50358 10.6775 4.61493C10.6737 4.63893 10.7119 4.62004 10.6807 4.67352C10.6785 4.67709 10.6505 4.69123 10.6405 4.70946C10.6335 4.72207 10.6325 4.76549 10.6204 4.78097C10.6082 4.79642 10.6061 4.75939 10.5876 4.77666C10.5689 4.79415 10.5654 4.8431 10.5352 4.84263ZM3.82814 0.878443C3.83589 0.924374 3.88831 0.784275 3.85349 0.810039C3.85175 0.811452 3.8277 0.876171 3.82814 0.878443ZM1.17997 0.207392C1.20057 0.277336 1.23397 0.184518 1.22194 0.131C1.20933 0.0774701 1.17357 0.186175 1.17997 0.207392ZM0.864913 0.216004C0.895951 0.2711 0.922487 0.0606395 0.878593 0.099574C0.875973 0.10177 0.863051 0.212807 0.864913 0.216004ZM10.6291 4.22956C10.629 4.23157 10.6459 4.23715 10.6467 4.23531C10.6658 4.1908 10.6321 4.17971 10.6291 4.22956ZM0.553566 0.266005C0.565237 0.294304 0.594463 0.260002 0.579897 0.224879C0.568222 0.196638 0.539205 0.230816 0.553566 0.266005ZM4.83706 1.50851C4.83597 1.51048 4.84494 1.52011 4.85254 1.51007C4.87702 1.47769 4.8556 1.47539 4.83706 1.50851ZM0.0476086 0.263747C0.121402 0.275484 0.161517 0.4522 0.0786689 0.42887C0.0638162 0.42461 0.113695 0.374542 0.0952392 0.357899C0.0619745 0.327588 0.0329535 0.436229 0.000449107 0.37535C-0.00515587 0.364243 0.0434029 0.262714 0.0477545 0.26351C0.0477059 0.263589 0.0476573 0.263668 0.0476086 0.263747ZM3.78125 1.05232C3.78102 1.05433 3.79728 1.06199 3.79833 1.06028C3.82316 1.01866 3.79032 1.00317 3.78125 1.05232ZM5.35432 2.06667C5.35227 2.07048 5.38091 2.1009 5.3845 2.09889C5.45206 2.0549 5.39429 1.99322 5.35432 2.06667ZM2.59928 0.796971C2.56803 0.837866 2.54365 0.836986 2.54454 0.775048C2.56236 0.783227 2.58161 0.78902 2.59928 0.796971Z" fill="#3C8634"/>
</svg>
