<svg width="3" height="3" viewBox="0 0 3 3" fill="none" xmlns="http://www.w3.org/2000/svg">
<path d="M1.44685 1.15592C1.42054 1.15126 1.39604 1.17441 1.38031 1.19996C1.37531 1.20792 1.38735 1.23182 1.38425 1.23846C1.37814 1.25142 1.36541 1.242 1.36006 1.25676C1.35833 1.26177 1.37557 1.30027 1.37344 1.30462C1.36167 1.32816 1.34154 1.32362 1.3265 1.33801C1.25217 1.40906 1.16985 1.45192 1.08628 1.49678C1.05891 1.51148 1.03345 1.55852 0.998776 1.55086C0.994706 1.54994 0.986948 1.51385 0.985464 1.51111C0.962637 1.46919 0.985957 1.53992 0.981746 1.55133C0.964795 1.59646 0.935261 1.60776 0.905803 1.60044C0.893422 1.59717 0.886716 1.52342 0.885755 1.56597C0.885639 1.56886 0.897787 1.60617 0.895725 1.61098C0.890978 1.62181 0.876451 1.61809 0.872049 1.6223C0.863186 1.63071 0.861399 1.63072 0.852082 1.63327C0.839279 1.63712 0.828119 1.6594 0.812529 1.65346C0.809277 1.65205 0.805208 1.61197 0.799461 1.60614C0.793882 1.6003 0.782694 1.60587 0.780648 1.61582C0.77851 1.62581 0.785598 1.65657 0.78617 1.66381C0.790684 1.72498 0.762769 1.64392 0.761431 1.64198C0.731111 1.61418 0.712725 1.65175 0.70834 1.65842C0.708008 1.65914 0.707769 1.65953 0.70768 1.65951C0.705569 1.65874 0.720558 1.64556 0.728308 1.6532C0.73731 1.66253 0.721687 1.68068 0.721316 1.67296C0.721339 1.67232 0.761952 1.64833 0.76235 1.64799C0.766574 1.64475 0.755346 1.63324 0.719016 1.61424C0.715318 1.61232 0.675468 1.62413 0.669303 1.62248C0.632335 1.61352 0.546114 1.58331 0.724769 1.55488C0.716574 1.54307 0.708241 1.52671 0.671425 1.51567C0.64772 1.50821 0.602941 1.5182 0.621804 1.50671C0.626015 1.50414 0.665599 1.50602 0.668934 1.50237C0.682944 1.48695 0.669966 1.47103 0.6905 1.45597C0.69477 1.45294 0.730163 1.45412 0.736545 1.45333C0.788225 1.44695 0.703135 1.43401 0.697015 1.43096C0.651307 1.40947 0.670174 1.3942 0.670098 1.37489C0.67007 1.37034 0.717248 1.37832 0.718924 1.37411C0.727004 1.35213 0.724591 1.32921 0.705516 1.30485C0.701156 1.29948 0.660406 1.30054 0.656261 1.29777C0.638501 1.28542 0.714904 1.29003 0.699399 1.27842C0.696232 1.27597 0.6616 1.27386 0.657846 1.27311C0.598939 1.26113 0.683785 1.26394 0.685799 1.2626C0.713224 1.2453 0.626699 1.22303 0.641422 1.20453C0.64327 1.20237 0.686245 1.21267 0.688772 1.20631C0.705873 1.16403 0.700065 1.11639 0.671677 1.06708C0.667318 1.05946 0.633991 1.05967 0.630031 1.05866C0.568211 1.04253 0.653067 1.0501 0.656557 1.04835C0.681938 1.03405 0.613899 1.00669 0.715887 1.00981C0.692354 0.92977 0.761093 0.861919 0.682652 0.77118C0.681752 0.770059 0.640045 0.765752 0.638428 0.763553C0.618424 0.737493 0.682332 0.75044 0.76342 0.745405C0.78381 0.743939 0.690143 0.719052 0.683272 0.717213C0.65802 0.710058 0.595713 0.705846 0.590891 0.703939C0.553121 0.688121 0.757359 0.716068 0.759327 0.700598C0.759043 0.700087 0.721141 0.697493 0.71755 0.695777C0.706265 0.690467 0.72169 0.688412 0.709152 0.683158C0.680132 0.670937 0.580971 0.656728 0.640253 0.649849C0.647936 0.648918 0.764063 0.663182 0.759872 0.648506C0.758367 0.643071 0.761433 0.621085 0.756998 0.610937C0.756372 0.610602 0.755638 0.610312 0.754773 0.610065C0.747343 0.607917 0.709713 0.605923 0.708083 0.605819C0.659361 0.592517 0.638456 0.593244 0.56697 0.573272C0.496686 0.549378 0.667994 0.587018 0.687326 0.590081C0.7065 0.59349 0.668174 0.578079 0.655694 0.570622C0.642951 0.563853 0.619539 0.55814 0.612735 0.553229C0.5706 0.51672 0.695052 0.581903 0.720703 0.59245C0.777623 0.625755 0.665677 0.558382 0.664574 0.539661C0.663466 0.535793 0.684072 0.5571 0.686956 0.558083C0.696608 0.563167 0.675361 0.528145 0.702249 0.554914C0.707926 0.558536 0.746793 0.626201 0.722787 0.574163C0.719713 0.56647 0.703881 0.538122 0.703864 0.530113C0.703432 0.5182 0.711815 0.507419 0.721255 0.515967C0.727781 0.522391 0.738186 0.574936 0.738043 0.557747C0.73829 0.550012 0.725642 0.521078 0.727517 0.508882C0.729481 0.496572 0.744351 0.494919 0.749595 0.495281C0.755109 0.495538 0.758143 0.536038 0.759019 0.53866C0.76371 0.553715 0.774334 0.572082 0.775032 0.57199C0.810024 0.573043 0.859324 0.507465 0.905077 0.536512C0.908579 0.538729 0.900165 0.580659 0.900639 0.581434C0.910105 0.600863 0.916626 0.487113 0.931686 0.45095C0.91735 0.536401 0.925029 0.521668 0.932666 0.532557C0.936315 0.537877 0.928349 0.570557 0.928191 0.574011C0.925855 0.62528 0.941443 0.561226 0.945074 0.548199C0.958147 0.500232 0.952253 0.558652 0.961264 0.526673C0.970449 0.494981 0.972398 0.445761 0.981642 0.448175C0.978225 0.479102 0.956311 0.557395 0.960317 0.571557C0.974689 0.624799 1.03327 0.573376 1.05581 0.572628C1.07776 0.571623 1.08248 0.578947 1.09732 0.571512C1.12422 0.558203 1.09973 0.613714 1.1045 0.643854C1.10918 0.674024 1.14623 0.530679 1.1574 0.500833C1.16865 0.471031 1.16117 0.502965 1.16873 0.487011C1.17632 0.471073 1.17741 0.448774 1.18513 0.444297C1.19296 0.439848 1.19161 0.498761 1.18325 0.531017C1.16574 0.599398 1.1364 0.667597 1.15839 0.647439C1.15968 0.646241 1.16914 0.608407 1.1735 0.605699C1.20785 0.585456 1.23471 0.592802 1.26889 0.577057C1.27365 0.574848 1.28533 0.533048 1.28829 0.531313C1.31932 0.513214 1.28654 0.578921 1.26935 0.659022C1.30469 0.55708 1.33423 0.497625 1.35104 0.503389C1.36112 0.506815 1.34243 0.550108 1.3366 0.583468C1.33481 0.593509 1.35341 0.566059 1.34652 0.587161C1.32393 0.656113 1.28798 0.72905 1.3155 0.705265C1.31678 0.704122 1.32925 0.666415 1.33259 0.665163C1.35427 0.656944 1.32767 0.727904 1.34042 0.743104C1.35043 0.755029 1.39144 0.722276 1.4093 0.72192C1.45754 0.610641 1.46125 0.642617 1.43267 0.721447C1.44353 0.72255 1.45194 0.731553 1.46607 0.725345C1.47091 0.723237 1.48354 0.690393 1.48553 0.687133C1.51682 0.636027 1.48676 0.711776 1.48738 0.715591C1.49645 0.754073 1.54131 0.707296 1.53566 0.771889C1.53545 0.774213 1.49862 0.849976 1.53172 0.797799C1.53402 0.794212 1.54464 0.756614 1.55554 0.758835C1.5668 0.761229 1.60596 0.730719 1.60129 0.772653C1.60024 0.782779 1.57475 0.846805 1.60676 0.803521C1.61117 0.797681 1.62209 0.776099 1.63001 0.765132C1.6555 0.730337 1.61536 0.805463 1.6563 0.745584C1.67874 0.712935 1.70037 0.686086 1.7135 0.676845C1.71893 0.678594 1.72862 0.690922 1.73291 0.694679C1.7459 0.691844 1.74852 0.697542 1.73442 0.716661C1.73354 0.717909 1.68121 0.7607 1.68508 0.764173C1.69127 0.769656 1.70935 0.770466 1.714 0.777431C1.71622 0.780788 1.6811 0.803805 1.68091 0.804824C1.67853 0.840841 1.72026 0.833932 1.75087 0.846635C1.75647 0.848833 1.72143 0.896607 1.76319 0.876404C1.80874 0.854064 1.96153 0.715933 1.93868 0.765395C1.92927 0.784813 1.73775 0.962777 1.85319 0.889743C1.85136 0.939191 1.92467 0.917374 1.91411 0.97582C1.91364 0.97841 1.86446 1.0324 1.86797 1.03463C1.87321 1.03776 1.89992 1.0164 1.90437 1.01776C1.91441 1.02045 1.91662 1.03022 1.91862 1.04025C1.91669 1.04727 1.91533 1.05586 1.92052 1.06106C1.92452 1.06524 1.95512 1.04762 1.96037 1.05416C1.96566 1.0612 1.92436 1.08254 1.94857 1.08379C1.96692 1.08448 2.0603 1.06529 2.07457 1.07571C1.98451 1.10075 1.98839 1.10746 1.9671 1.1252C1.96294 1.12852 1.93065 1.1332 1.92703 1.1351C1.91156 1.14272 1.93876 1.14108 1.92167 1.1487C1.91757 1.15053 1.88627 1.15679 1.88113 1.15857C1.83618 1.17344 1.90861 1.17088 1.92133 1.17118C1.96941 1.17083 1.92903 1.18136 1.94837 1.18418C1.96775 1.18741 1.98951 1.17486 2.0018 1.18041C2.02724 1.19203 2.02464 1.21236 2.02783 1.22737C2.02892 1.23344 1.98611 1.23409 1.98528 1.23507C1.97594 1.24852 2.02232 1.25646 1.93857 1.27182C2.15779 1.25871 1.91815 1.28126 1.96351 1.29445C1.96717 1.29547 2.07067 1.28774 2.08533 1.28091C2.09998 1.27399 2.06688 1.2687 2.08976 1.25879C2.09513 1.25644 2.19078 1.23593 2.19647 1.23381C2.24099 1.21701 2.08664 1.23233 2.07812 1.23272C1.98605 1.23625 2.08869 1.21204 2.0954 1.20735C2.12642 1.18761 2.10295 1.17665 2.12432 1.15948C2.13811 1.14833 2.23826 1.13131 2.23389 1.1238C2.2189 1.0971 2.07891 1.11865 2.19245 1.06435C2.21642 1.05225 2.32596 1.03157 2.23469 1.02815C2.22881 1.02741 2.1473 1.03276 2.19151 1.00609C2.19705 1.00259 2.2277 0.992211 2.22955 0.989234C2.24126 0.96942 2.21344 0.968561 2.21781 0.947521C2.22213 0.92631 2.2273 0.895295 2.20604 0.881051C2.19596 0.874147 2.15661 0.88433 2.13358 0.891941C2.12646 0.885315 2.11144 0.860263 2.10318 0.855127C2.09823 0.859022 2.09413 0.862216 2.09159 0.864087C2.0569 0.889527 2.10168 0.835651 2.06212 0.868831C2.02213 0.901933 1.97191 0.963004 1.93974 0.977875C1.99982 0.919079 2.06118 0.858415 2.12158 0.799259C2.10421 0.78554 2.069 0.78749 2.05627 0.767576C2.05476 0.765062 2.0905 0.737242 2.08981 0.73383C2.08683 0.719638 2.05512 0.73225 2.05611 0.713624C2.05701 0.699098 2.08644 0.659714 2.08901 0.643882C2.01061 0.700013 2.02533 0.66639 2.01108 0.6626C2.00608 0.661215 1.98616 0.67743 1.9777 0.680258C1.94625 0.690473 2.01631 0.642012 2.0249 0.631314C2.06179 0.585849 1.90942 0.70335 1.90302 0.687257C1.90258 0.686386 1.97768 0.615768 1.98198 0.610861C2.00973 0.578543 1.95266 0.631281 1.94318 0.631319C1.92589 0.631409 1.90178 0.640089 1.91857 0.612286C1.92353 0.604036 1.97003 0.559393 1.92605 0.583013C1.92029 0.586096 1.89321 0.606499 1.89117 0.607069C1.8568 0.615481 1.94059 0.554093 1.96653 0.526513C1.94329 0.506157 1.89079 0.439364 1.86138 0.429882C1.8615 0.429473 1.8616 0.42907 1.8617 0.428674C1.87073 0.392016 1.81887 0.447002 1.80568 0.463895C1.77104 0.507263 1.79983 0.487525 1.79754 0.49243C1.77021 0.550579 1.7657 0.535229 1.75573 0.535846C1.70352 0.626293 1.69748 0.615758 1.74598 0.536338C1.75133 0.527688 1.75202 0.539231 1.75573 0.535846C1.80003 0.443187 1.79375 0.424691 1.73566 0.502194C1.70883 0.538747 1.6896 0.58774 1.68217 0.562183C1.67864 0.550586 1.71482 0.488352 1.71677 0.467283C1.7212 0.419209 1.67024 0.468717 1.6592 0.451605C1.6551 0.445347 1.67795 0.412685 1.67569 0.407163C1.66968 0.39238 1.64708 0.414323 1.64289 0.395633C1.64253 0.393893 1.66243 0.357715 1.65931 0.35567C1.63567 0.339311 1.60231 0.353164 1.57511 0.342041C1.562 0.336647 1.54795 0.305904 1.53229 0.30433C1.50592 0.301595 1.45454 0.345492 1.44019 0.32428C1.43052 0.310513 1.44824 0.273195 1.4526 0.244775C1.46075 0.189569 1.40662 0.273395 1.39889 0.286642C1.39866 0.287083 1.40658 0.300422 1.39313 0.317976C1.37423 0.357971 1.39897 0.286875 1.39889 0.286642C1.39378 0.295122 1.36778 0.295537 1.36594 0.286527C1.36494 0.28159 1.37955 0.245348 1.37876 0.243463C1.35964 0.199448 1.33034 0.178931 1.29214 0.185845C1.29133 0.186413 1.27884 0.228275 1.27711 0.229096C1.25263 0.241657 1.2567 0.186998 1.2498 0.151792C1.24292 0.116621 1.22636 0.122919 1.19663 0.192439C1.1872 0.179949 1.161 0.207185 1.14603 0.224065C1.13112 0.240956 1.15089 0.158273 1.15038 0.156403C1.13551 0.0971192 1.10605 0.140107 1.07478 0.141098C1.05935 0.141565 1.03268 0.123737 1.01759 0.111713C1.00548 0.101997 0.994256 0.120355 0.983894 0.105879C0.982472 0.103942 0.98985 0.0667715 0.989553 0.0652524C0.981895 0.0183132 0.975326 0.110914 0.970114 0.126851C0.951452 0.184912 0.941366 0.21578 0.927525 0.185662C0.924631 0.178791 0.926661 0.0449509 0.918654 0.0363647C0.908511 0.0254844 0.908315 0.0734134 0.897715 0.0609169C0.896789 0.0598968 0.899384 0.0305253 0.891841 0.0312619C0.857311 0.0343681 0.817488 0.0501037 0.776187 0.0487738C0.770355 0.0487225 0.776062 0.00169563 0.767236 0.000894666C0.726634 -0.00284535 0.674943 0.00434119 0.629028 0.0371853C0.617767 0.0454462 0.633092 0.075507 0.632668 0.0855783C0.631805 0.146055 0.587723 0.0699783 0.582205 0.0700385C0.467603 0.0652226 0.400936 0.179623 0.282877 0.282146C0.277024 0.284665 0.158839 0.302359 0.217857 0.365325C0.221022 0.370929 0.285336 0.423921 0.226911 0.425574C0.223174 0.426068 0.189373 0.396296 0.184088 0.425881C0.178977 0.454748 0.141682 0.495442 0.182827 0.534374C0.192783 0.54433 0.241651 0.564841 0.232769 0.583047C0.23046 0.583783 0.22333 0.584376 0.209077 0.584541C0.204582 0.585094 0.0600582 0.580845 0.159055 0.592787C0.175344 0.594785 0.280508 0.603436 0.225857 0.606764C0.215264 0.60734 0.192134 0.60217 0.177101 0.604856C0.153951 0.608795 0.180941 0.621687 0.133226 0.624785C0.124772 0.625408 0.0529375 0.62296 0.106102 0.635554C0.114425 0.63755 0.149578 0.640314 0.153083 0.64393C0.170024 0.660276 0.14437 0.673702 0.166252 0.692566C0.173916 0.699364 0.230673 0.70469 0.244894 0.712871C0.259123 0.720971 0.271729 0.735917 0.245055 0.73831C0.21837 0.740706 0.129693 0.720286 0.121093 0.728574C0.0835493 0.765734 0.129488 0.815959 0.130271 0.861834C0.130417 0.868506 0.099165 0.858135 0.0970689 0.867677C0.0891372 0.902994 0.049511 0.962205 0.113308 1.00434C0.164406 1.03791 0.210611 1.01123 0.230141 1.03398C0.239472 1.04476 0.13356 1.04074 0.129949 1.04267C0.093452 1.06087 0.137708 1.08294 0.120914 1.10174C0.117429 1.10566 0.0755215 1.09618 0.0730225 1.0996C0.0641059 1.11129 0.0814633 1.12685 0.076596 1.13858C0.0743151 1.14384 0.0419867 1.13912 0.043915 1.14448C0.0481616 1.15723 0.0606257 1.16954 0.0898263 1.18453C0.0924895 1.18588 0.13364 1.18296 0.134216 1.19197C0.135026 1.20665 0.163321 1.22737 0.130765 1.24121C0.12098 1.24531 0.0466052 1.23897 0.097013 1.25433C0.107544 1.25757 0.19708 1.26213 0.11887 1.26833C0.105875 1.26916 5.72205e-06 1.2831 0.0664123 1.29879C0.0838811 1.30294 0.156565 1.31487 0.144666 1.32029C0.142776 1.32102 0.102991 1.31501 0.0987543 1.31996C0.084519 1.33755 0.087745 1.35704 0.0743921 1.3758C0.0707455 1.38092 0.0296204 1.37131 0.0255103 1.37911C0.0141374 1.40079 0.0240065 1.42821 0.0368345 1.45096C0.0416443 1.45919 0.0760455 1.45372 0.0797803 1.45435C0.140549 1.46394 0.0584687 1.46923 0.0536894 1.47254C0.0250998 1.49242 0.0639366 1.50764 0.0543503 1.52682C0.0518179 1.53218 0.0125686 1.5298 0.00911605 1.53097C-0.0245595 1.54341 0.0453857 1.53251 0.0533983 1.53911C0.0760767 1.55715 0.0742341 1.57963 0.0709393 1.60053C0.0696808 1.60825 0.0237269 1.60345 0.0231454 1.61052C0.0189184 1.65289 0.0293175 1.70022 0.0633861 1.74275C0.0698617 1.75057 0.102984 1.73802 0.11117 1.73822C0.168104 1.73809 0.0980847 1.77326 0.0923043 1.78001C0.0653341 1.80881 0.0975686 1.8094 0.0975391 1.82945C0.0953782 1.92751 0.189394 2.08788 0.338115 2.18004C0.458482 2.25725 0.584555 2.26836 0.677731 2.26393C0.731233 2.26125 0.764004 2.25582 0.798129 2.25559C0.80398 2.25547 0.803057 2.30234 0.808328 2.3028C0.876597 2.30625 0.922266 2.27853 0.974122 2.28129C0.978355 2.28142 0.981809 2.32577 0.989008 2.3274C1.0042 2.33097 1.01968 2.32501 1.02973 2.30821C1.03455 2.30012 1.01748 2.26527 1.02235 2.25791C1.03324 2.24079 1.04817 2.23393 1.06395 2.23728C1.07083 2.23876 1.07247 2.28482 1.08063 2.28332C1.13641 2.27393 1.19062 2.26712 1.22623 2.19617C1.22866 2.1913 1.20634 2.10239 1.21858 2.11713C1.22621 2.1414 1.23451 2.17014 1.24231 2.19617C1.32069 2.1887 1.38293 2.13623 1.45288 2.10871C1.45584 2.10755 1.46541 2.15546 1.47123 2.15346C1.50491 2.14191 1.54201 2.14397 1.56117 2.08681C1.56309 2.0812 1.53453 2.0007 1.54853 2.00966C1.55103 2.01132 1.56957 2.01716 1.57935 2.03343C1.58077 2.03591 1.59063 2.07464 1.59586 2.07412C1.62591 2.07047 1.65257 2.05185 1.67262 2.01927C1.67581 2.01394 1.65732 1.9754 1.65946 1.97126C1.67488 1.94218 1.71011 1.96417 1.71894 1.9203C1.72493 1.89075 1.69546 1.8233 1.6793 1.75244C1.67702 1.74244 1.68529 1.73784 1.67186 1.69801C1.63815 1.59785 1.5958 1.49007 1.56036 1.38313C1.55273 1.36009 1.57273 1.38078 1.54664 1.32779C1.54488 1.32425 1.5302 1.30877 1.52161 1.2907C1.51566 1.27821 1.50413 1.23696 1.49545 1.22135C1.48677 1.20575 1.49538 1.24069 1.48376 1.22283C1.47206 1.20473 1.45817 1.15809 1.44685 1.15592ZM1.08028 0.300275C1.06207 0.337926 1.09456 0.191943 1.09654 0.229172C1.0966 0.231145 1.08121 0.298437 1.08028 0.300275ZM1.98576 0.863397C1.93015 0.900309 1.99766 0.830292 2.04007 0.80127C2.08217 0.771965 2.0025 0.852073 1.98576 0.863397ZM2.03908 1.00454C1.98541 1.01414 2.16637 0.90316 2.14265 0.949667C2.14133 0.952399 2.04231 1.00423 2.03908 1.00454ZM1.63738 1.74522C1.63685 1.7433 1.64256 1.73927 1.64336 1.74108C1.66229 1.78479 1.65081 1.79282 1.63738 1.74522ZM2.02842 1.14998C1.9995 1.15093 2.02988 1.13313 2.06591 1.13179C2.09502 1.13127 2.0645 1.14927 2.02842 1.14998ZM0.610908 0.490177C0.612406 0.491806 0.610396 0.497117 0.60086 0.48892C0.570144 0.462322 0.585423 0.462471 0.610908 0.490177ZM2.04764 1.34225C2.03738 1.31455 1.86142 1.31363 1.88362 1.3413C1.88764 1.34636 1.93832 1.32513 1.95463 1.33059C1.98437 1.34095 1.8754 1.35795 1.93518 1.36635C1.94612 1.3679 2.04861 1.34376 2.04788 1.34218C2.0478 1.3422 2.04772 1.34223 2.04764 1.34225ZM1.03406 0.473927C1.03344 0.47581 1.02658 0.476138 1.02686 0.474196C1.03391 0.427093 1.04817 0.426497 1.03406 0.473927ZM0.63957 0.78304C0.643688 0.784028 0.645243 0.800233 0.641352 0.799973C0.563389 0.796349 0.559911 0.764278 0.63957 0.78304ZM1.41083 0.71906C1.39813 0.765638 1.40311 0.773994 1.43262 0.72149C1.42504 0.721589 1.41846 0.719191 1.41083 0.71906Z" fill="black"/>
</svg>
