<svg width="13" height="23" viewBox="0 0 13 23" fill="none" xmlns="http://www.w3.org/2000/svg">
<path d="M6.11546 8.78463C6.26043 8.6147 6.42399 8.37236 6.54063 8.18254C6.57702 8.12339 6.53482 8.13588 6.559 8.09426C6.60679 8.01224 6.66857 7.95027 6.71363 7.86817C6.72832 7.84107 6.67198 7.84688 6.68817 7.81901C6.77764 7.66574 6.88429 7.5378 6.98196 7.38821C7.46265 6.65137 7.94965 5.93934 8.44083 5.19791C8.54198 5.04518 8.64645 4.86492 8.75526 4.69231C8.82249 4.58589 8.88889 4.4836 8.95676 4.39041C8.97817 4.361 8.99734 4.39919 9.00365 4.39503C9.10131 4.32915 9.01838 4.32056 9.0481 4.25519C9.16412 3.99853 9.31598 3.73059 9.4514 3.49515C9.50868 3.39509 9.52215 3.53201 9.53748 3.40838C9.53855 3.39986 9.49047 3.40913 9.50067 3.37873C9.52344 3.31142 9.58727 3.18929 9.60634 3.13686C9.64334 3.03544 9.65042 3.01917 9.68728 2.92413C9.73709 2.79372 9.77255 2.62937 9.82132 2.48715C9.83183 2.4568 9.85917 2.50867 9.87936 2.46075C9.90016 2.41218 9.92899 2.278 9.92891 2.23067C9.92919 2.18383 9.89424 2.1964 9.88884 2.18702C9.84316 2.1106 9.95237 1.97242 9.9571 1.95219C9.99703 1.79576 10.0123 1.64692 10.0201 1.50359C10.0267 1.35694 10.0579 1.21101 10.1386 1.0779C10.2033 0.971199 10.2961 0.87495 10.3994 0.794814C10.4539 0.752998 10.5181 0.723843 10.5881 0.702208C10.7727 0.646171 10.9622 0.64519 11.2132 0.654384C11.2405 0.654675 11.2646 0.657198 11.2851 0.661473C11.3029 0.665401 11.274 0.707441 11.2924 0.712167C11.421 0.694311 11.4492 1.05795 11.3931 1.40589C11.3884 1.44096 11.439 1.40564 11.4365 1.44165C11.4226 1.6636 11.3834 2.03778 11.1673 2.10345C11.1227 2.24993 11.0624 2.42799 11.0456 2.57039C11.0344 2.66262 11.1084 2.598 11.0499 2.69357C11.0368 2.71508 11.012 2.67052 10.995 2.70381C10.9234 2.84489 10.8709 3.00877 10.7937 3.1469C10.7782 3.17439 10.7483 3.15382 10.739 3.15983C10.6624 3.21234 10.6954 3.36206 10.6913 3.3902C10.6586 3.6059 10.5869 3.74022 10.5321 3.94653C10.52 3.99567 10.4883 3.92594 10.4753 3.97325C10.4652 4.01024 10.454 4.06117 10.448 4.10494C10.4201 4.30135 10.4113 4.5054 10.4279 4.69894C10.4326 4.75034 10.4732 4.70325 10.4775 4.72763C10.4969 4.83421 10.4211 4.86021 10.4425 4.96331C10.447 4.98492 10.481 4.97077 10.485 4.97453C10.548 5.03244 10.4677 5.09118 10.4672 5.10759C10.4589 5.31167 10.5643 5.42706 10.5821 5.61644C10.5843 5.63918 10.5325 5.59548 10.5413 5.6592C10.5596 5.79028 10.583 5.92176 10.6098 6.05311C10.676 6.37268 10.8136 6.65585 10.9519 6.91129C10.9832 6.96863 10.9945 6.91276 10.9998 6.91487C11.0849 6.95011 11.0249 7.02402 11.0306 7.04453C11.0779 7.20605 11.2064 7.3187 11.1575 7.46158C11.2718 7.69354 11.3655 7.93133 11.4425 8.17345C11.5387 8.52013 11.4363 8.97101 11.391 9.39811C11.3898 9.40695 11.4344 9.40187 11.4318 9.41952C11.4011 9.63029 11.3477 9.57497 11.2333 9.68676C11.2042 9.71597 11.2665 9.84384 11.2701 9.85579C11.2849 9.89675 11.355 9.88005 11.3565 9.89273C11.3657 9.99792 11.1742 9.92021 11.1349 10.0447C11.134 10.0487 11.1754 10.0438 11.1756 10.0554C11.1768 10.0909 11.1524 10.1179 11.1546 10.1535C11.1599 10.2354 11.247 10.2916 11.1548 10.384C11.143 10.3954 11.039 10.3383 11.0076 10.4487C10.9951 10.4934 10.9269 10.6855 10.9147 10.7429C10.9031 10.7991 10.9515 10.7747 10.9517 10.779C10.9477 10.9409 10.9864 10.893 11.03 10.991C11.0734 11.0884 10.9154 11.0095 10.8864 11.0327C10.8574 11.0559 10.8577 11.177 10.8618 11.2078C10.8658 11.2389 10.9001 11.2143 10.8993 11.2403C10.893 11.4134 10.7928 11.2792 10.7483 11.3205C10.6431 11.4174 10.731 11.5558 10.7027 11.6701C10.695 11.7012 10.6761 11.6666 10.6638 11.6923C10.6156 11.7931 10.6302 11.871 10.5517 11.9769C10.5389 11.994 10.4298 12.0645 10.4608 12.1461C10.4654 12.1578 10.505 12.1439 10.4954 12.191C10.4811 12.2616 10.4435 12.3844 10.407 12.4524C10.38 12.5028 10.3523 12.4235 10.3433 12.4962C10.3394 12.5285 10.3888 12.4842 10.379 12.5438C10.3695 12.6027 10.3162 12.7448 10.2957 12.798C10.2751 12.8514 10.2478 12.8081 10.2436 12.8116C10.2194 12.8325 10.1634 12.9298 10.1602 12.9388C10.1361 13.0035 10.1135 13.0683 10.0922 13.133C9.96562 13.5182 9.84507 13.8905 9.63277 14.239C9.61344 14.2708 9.58786 14.2286 9.58453 14.2332C9.50766 14.3356 9.65554 14.3028 9.64513 14.3995C9.5758 14.3459 9.56403 14.3995 9.5111 14.4728C9.4855 14.508 9.46817 14.4708 9.46323 14.4726C9.38715 14.5026 9.42156 14.574 9.42726 14.5909C9.44864 14.6524 9.37435 14.6631 9.3882 14.7046C9.40163 14.7464 9.47774 14.7137 9.43283 14.7879C9.39374 14.7929 9.35706 14.6962 9.31214 14.7459C9.14338 14.9321 8.95494 15.3598 8.85716 15.5347C8.77442 15.6821 8.73514 15.7416 8.69417 15.8214C8.6867 15.8359 8.67923 15.8511 8.67152 15.8674C8.58177 16.0592 8.56994 15.961 8.47966 16.0612C8.39007 16.1609 8.55028 16.1796 8.56839 16.2118C8.58677 16.2435 8.54861 16.2442 8.5523 16.2729C8.556 16.3016 8.59953 16.2691 8.57833 16.3193C8.55683 16.3699 8.43648 16.4678 8.39763 16.4692C8.31643 16.4701 8.28415 16.3761 8.23731 16.5134C8.23469 16.5212 8.28156 16.517 8.26981 16.5462C8.17468 16.779 8.05367 17.0079 7.96213 17.2407C7.94963 17.2727 8.00211 17.2656 7.99529 17.2844C7.9249 17.4803 7.89371 17.3821 7.77004 17.4457C7.87791 17.4718 7.9072 17.5588 7.83785 17.698C7.79564 17.7831 7.76087 17.7474 7.70397 17.7871C7.68696 17.7988 7.68617 17.8732 7.66089 17.8744C7.57829 17.8782 7.5331 17.7861 7.49079 17.9457C7.489 17.9528 7.53468 17.9497 7.52591 17.973C7.47013 18.1232 7.39362 18.1074 7.31097 18.2585C7.24625 18.3767 7.18519 18.6139 7.12694 18.7557C7.23817 18.8042 7.1513 18.9239 7.05095 18.941C7.01167 19.0328 6.9617 19.1281 6.93154 19.2191C6.92084 19.2509 6.96196 19.2461 6.96359 19.2515C6.98979 19.3354 6.89817 19.3387 6.88599 19.3568C6.75802 19.5533 6.73108 19.7502 6.57601 19.9186C6.57043 19.9246 6.48994 19.8971 6.5173 19.977C6.51916 19.9825 6.58711 19.9362 6.54124 20.029C6.49932 20.1138 6.44854 20.2853 6.35466 20.3905C6.34663 20.3996 6.33833 20.4082 6.32974 20.4161C6.30298 20.4414 6.19986 20.4756 6.20461 20.563C6.2053 20.5748 6.23106 20.58 6.23443 20.5988C6.24442 20.6597 6.16134 20.6299 6.18993 20.7136C6.2184 20.7973 6.19491 20.9208 6.06056 21.0031C6.05632 21.0059 5.98247 20.989 5.95348 21.0237C5.90653 21.0803 5.84666 21.1655 5.79178 21.2202C5.76569 21.2461 5.7526 21.1998 5.74757 21.2038C5.55796 21.3584 5.45209 21.4992 5.24756 21.6676C5.20971 21.699 5.06437 21.729 5.00938 21.8155C4.94658 21.9107 5.14681 22.0347 4.90687 22.1135C4.8072 22.1453 4.58637 21.9664 4.48595 22.1584C4.16743 22.2612 3.89103 22.4219 3.55133 22.4513C3.53611 22.4526 3.47393 22.3919 3.44005 22.4001C3.38952 22.4124 3.36844 22.4512 3.33189 22.4605C3.17994 22.4999 3.03332 22.4928 2.8849 22.5154C2.82817 22.5238 2.85208 22.5566 2.78422 22.5659C2.71615 22.5749 2.66656 22.5332 2.57625 22.5629C2.50795 22.5853 2.44378 22.6846 2.34998 22.7003C2.34208 22.607 2.27738 22.6126 2.16383 22.5911C2.14177 22.5869 2.1644 22.5537 2.15394 22.5501C2.11154 22.5344 2.07344 22.5621 2.03378 22.5444C2.02416 22.5401 2.02328 22.5082 2.01532 22.5029C1.97748 22.4771 1.92707 22.4881 1.88653 22.5049L1.89748 22.5056C1.86307 22.5146 1.8353 22.5283 1.82615 22.5327C1.74755 22.5704 1.71917 22.5249 1.6611 22.5361C1.60318 22.5474 1.68346 22.5815 1.61675 22.5842C1.47923 22.5898 1.30751 22.5612 1.17081 22.5438C1.11641 22.5367 1.15932 22.4996 1.15166 22.4976C1.04066 22.4713 0.920765 22.5005 0.869863 22.4079C0.762396 22.615 0.804991 22.3771 0.637561 22.4007C0.624366 22.4028 0.596554 22.5039 0.642813 22.5248C0.688751 22.5457 0.766429 22.5231 0.830565 22.5557C0.84583 22.5634 0.924062 22.6723 0.935393 22.6798C1.02693 22.7389 1.06181 22.5872 1.0682 22.5795C1.13958 22.4966 1.23687 22.6157 1.26567 22.627C1.39624 22.6783 1.51338 22.672 1.62373 22.7104C1.69541 22.7353 1.68978 22.8369 1.74833 22.8414C1.7882 22.8444 1.82294 22.8412 1.85559 22.8356C1.86164 22.8362 1.87963 22.8377 1.88571 22.8376C2.01017 22.7998 2.08197 22.7293 2.23403 22.8223C2.275 22.8468 2.24004 22.96 2.38124 22.8659C2.3903 22.86 2.49285 22.7743 2.55803 22.82C2.5663 22.8258 2.56844 22.8581 2.579 22.86C2.65026 22.8722 2.6934 22.8426 2.77044 22.8474C2.84679 22.8522 2.94066 22.8599 3.02528 22.8373C3.0767 22.8238 3.13419 22.7542 3.15627 22.7358C3.21875 22.6831 3.3047 22.7387 3.33835 22.68C3.37148 22.6211 3.2745 22.5597 3.37844 22.5056C3.39877 22.5873 3.42509 22.67 3.44858 22.7515C3.69881 22.6981 3.93565 22.6075 4.18007 22.5278C4.21052 22.5178 4.19422 22.5713 4.22747 22.5616C4.36747 22.52 4.47448 22.4434 4.61762 22.3939C4.72871 22.3556 4.86653 22.3415 4.98212 22.2926C5.00373 22.1723 5.17675 22.1102 5.28326 22.0288C5.32055 22.0006 5.30382 21.9808 5.32614 21.9555C5.4101 21.8599 5.41123 21.9622 5.44713 21.9533C5.60143 21.9116 5.49633 21.7506 5.62898 21.6481C5.63561 21.6433 5.78727 21.6483 5.80303 21.6423C5.90408 21.6076 5.79141 21.605 5.83152 21.5583C5.9047 21.4716 5.94138 21.4018 6.05278 21.3279C6.0847 21.3073 6.19591 21.2805 6.20627 21.1923C6.20769 21.1807 6.17847 21.1627 6.18201 21.1556C6.24736 21.0269 6.33111 21.0908 6.41044 21.0483C6.49049 21.0045 6.50479 20.8584 6.50154 20.8255C6.49463 20.7396 6.45319 20.8539 6.44653 20.8534C6.37015 20.8499 6.43163 20.784 6.46593 20.7235C6.38572 20.6562 6.44178 20.5827 6.5009 20.6619C6.50718 20.671 6.4701 20.709 6.46593 20.7235C6.56502 20.7302 6.63098 20.6728 6.63796 20.5646C6.63901 20.5439 6.6378 20.5213 6.63413 20.497C6.62319 20.4272 6.55318 20.4451 6.65038 20.314C6.69355 20.2549 6.74257 20.3146 6.79151 20.2663C6.90293 20.1564 6.93087 19.9544 7.00701 19.8238C7.03452 19.7766 7.04636 19.8417 7.06643 19.8099C7.12028 19.7245 7.13165 19.6329 7.18788 19.5502C7.19305 19.5427 7.22072 19.5804 7.23457 19.5525C7.34012 19.342 7.40137 19.1481 7.50382 18.9283C7.5535 18.8216 7.66292 18.6431 7.71088 18.5321C7.79393 18.3399 7.85246 18.0825 7.94528 17.9287C8.00524 17.8291 8.03096 17.8701 8.07849 17.8379C8.1696 17.7774 8.16024 17.5813 8.15726 17.5543C8.15705 17.5535 8.10309 17.6377 8.10843 17.5808C8.08328 17.5332 8.15659 17.5552 8.15726 17.5543C8.15549 17.5361 8.23879 17.3549 8.26467 17.323C8.27859 17.3057 8.30751 17.3346 8.31411 17.3253C8.46918 17.1053 8.60494 16.8761 8.72141 16.6319C8.72308 16.6273 8.68146 16.6122 8.68587 16.6017C8.74537 16.4566 8.84225 16.3952 8.9343 16.3C9.01928 16.2117 9.06138 16.1278 9.04922 16.0329C9.0481 16.0243 9.04651 16.0156 9.04444 16.0069C9.10244 15.928 9.14687 15.79 9.17138 15.7109C9.19649 15.6306 9.27476 15.6656 9.27991 15.6604C9.44166 15.4979 9.4673 15.3635 9.58192 15.1599C9.63622 15.0634 9.76044 14.8801 9.8296 14.7793C9.88438 14.7 9.89609 14.6394 9.95079 14.568C9.95819 14.5582 9.98525 14.5874 9.98832 14.5849C10.0767 14.5193 9.97227 14.5165 9.96781 14.4905C9.95118 14.3959 9.94494 14.3413 10.0292 14.2414C10.0484 14.2186 10.2066 14.2023 10.238 14.1563C10.2785 14.0968 10.2238 14.1 10.2666 14.038C10.2702 14.0326 10.2963 14.0465 10.3149 14.0043C10.4017 13.8077 10.4772 13.5852 10.557 13.3771C10.5678 13.3486 10.5982 13.4015 10.6145 13.3604C10.6191 13.3488 10.6236 13.3371 10.6281 13.3253C10.6949 13.1521 10.7601 12.9644 10.8023 12.7889C10.8132 12.743 10.7724 12.7593 10.7667 12.7465C10.7328 12.6679 10.8437 12.6137 10.8502 12.6006C11.0088 12.2873 11.029 12.0097 11.1859 11.6872C11.1947 11.6694 11.332 11.5599 11.2809 11.4702C11.2776 11.464 11.2246 11.3742 11.296 11.3379C11.3005 11.3357 11.3255 11.3883 11.3458 11.3195C11.3665 11.2494 11.431 11.1508 11.4216 11.0407C11.4187 11.0058 11.3672 10.9106 11.4586 10.8419C11.4649 10.8377 11.6488 10.7475 11.5713 10.6655C11.5584 10.6521 11.4558 10.6268 11.5427 10.5378C11.5595 10.5205 11.5694 10.5654 11.6014 10.5158C11.6504 10.4405 11.6597 10.3211 11.7366 10.2338C11.7503 10.2181 11.843 10.162 11.8097 10.0851C11.8045 10.0729 11.7651 10.0814 11.7714 10.0472C11.8004 9.88693 11.8704 9.72864 11.8884 9.56119C11.895 9.50107 11.8324 9.51644 11.8324 9.4534C11.8324 9.39077 11.8459 9.26761 11.8848 9.20776C11.9234 9.14898 11.9982 9.2375 12.0246 9.14198C12.1056 8.80619 12.1575 8.45464 12.0122 7.99181C11.9798 7.90532 11.9465 7.81979 11.9138 7.73456C11.891 7.67558 11.9398 7.71353 11.9077 7.62613C11.7914 7.30103 11.5752 6.76926 11.4091 6.55444C11.2751 6.37843 11.3405 6.64371 11.2566 6.50058C11.2161 6.43065 11.2853 6.31508 11.2825 6.29754C11.258 6.14584 11.1999 6.05466 11.1766 5.94099C11.172 5.91779 11.1682 5.89438 11.1655 5.86975C11.1617 5.83417 11.2103 5.86031 11.2066 5.83029C11.1944 5.72801 11.1564 5.62594 11.1443 5.5307C11.139 5.48794 11.1725 5.49058 11.1639 5.45226C11.144 5.36038 11.1195 5.28157 11.0791 5.19561C11.0755 5.18767 11.0412 5.24754 11.0322 5.17931C11.018 5.06944 10.978 4.93385 11.0068 4.807C11.0156 4.76925 11.0897 4.76777 11.0386 4.68836C11.0282 4.67176 10.9376 4.69131 11.0175 4.59965C11.0303 4.58312 11.1421 4.43593 11.0828 4.35459C11.0669 4.33321 10.9991 4.27354 11.016 4.2291C11.0186 4.22323 11.0555 4.25227 11.0638 4.21558C11.0661 4.20538 11.0683 4.19508 11.0705 4.18469C11.0877 4.12262 11.1236 3.99264 11.1754 3.88007C11.1904 3.84768 11.2119 3.9115 11.2332 3.86252C11.2928 3.72543 11.3549 3.53904 11.401 3.38889C11.4176 3.33424 11.3711 3.358 11.3691 3.35278C11.3375 3.26818 11.4292 3.26019 11.4418 3.2416C11.5204 3.12301 11.5251 3.00815 11.5827 2.8905C11.5985 2.85789 11.6255 2.89611 11.6313 2.8907C11.6906 2.83352 11.6047 2.85968 11.6149 2.81266C11.6429 2.68119 11.6992 2.5434 11.7508 2.41688C11.7698 2.37039 11.7931 2.43898 11.8097 2.39695C11.9081 2.14807 11.9939 1.87684 12.0345 1.59749C12.0418 1.5451 12.0002 1.56957 11.9949 1.55714C11.9572 1.47359 12.0527 1.37672 12.0639 1.35086C12.1158 1.23333 12.0911 1.17881 12.1028 1.06399C12.1131 0.893404 12.1284 0.682519 11.9777 0.409254C11.8243 0.118175 11.4362 -0.00837976 11.2265 0.00410424C11.0646 0.00145137 10.7989 -0.0130148 10.5666 0.0351184C10.3691 0.0728892 10.1587 0.158791 9.9926 0.305517C9.67079 0.590959 9.44609 0.98329 9.40079 1.44655C9.39793 1.47506 9.39485 1.50364 9.39149 1.5323C9.38776 1.5642 9.34476 1.52737 9.34094 1.55464C9.29483 1.90536 9.25083 2.22434 9.12629 2.54012C9.11623 2.56583 9.08779 2.51383 9.07017 2.55442C9.03385 2.63712 8.99394 2.74466 8.9696 2.83621C8.95791 2.8802 9.01678 2.83964 9.00406 2.884C8.97376 2.98862 8.92624 3.09587 8.86897 3.19284C8.84429 3.23436 8.83726 3.14912 8.80823 3.20462C8.61545 3.56827 8.38761 3.9174 8.18842 4.30454C8.18337 4.31428 8.17835 4.32406 8.17333 4.33388C8.15911 4.36175 8.21931 4.43601 8.16709 4.48102C8.14328 4.47077 8.11878 4.45361 8.09514 4.44003C7.71253 4.97103 7.36569 5.5203 6.98794 6.05856C6.972 6.08125 6.9603 6.01406 6.92924 6.05782C6.7495 6.31091 6.56247 6.54801 6.41526 6.83327C6.40067 6.86142 6.47925 6.89858 6.4141 6.96631C6.40262 6.97815 6.31102 7.08468 6.27472 7.10294C6.26958 7.10525 6.25236 7.06121 6.22494 7.09683C6.06609 7.30433 5.91035 7.53159 5.77454 7.7554C5.75282 7.79137 5.81345 7.78094 5.79829 7.80675C5.68936 7.99122 5.52433 8.15768 5.43233 8.34279C5.37144 8.46593 5.45929 8.47154 5.47321 8.57246C5.4755 8.58629 5.42482 8.65519 5.45563 8.68405C5.53263 8.75731 5.64954 8.795 5.72866 8.87695C5.7455 8.89491 5.65624 8.96819 5.7433 8.95111C5.74908 8.95006 5.8151 8.89592 5.84353 8.89144C5.86296 8.88866 5.88158 8.93469 5.91296 8.92262C5.94437 8.91045 5.93514 8.86347 5.98119 8.83706C6.02665 8.81181 6.05234 8.85847 6.11546 8.78463ZM9.28478 15.3517C9.28905 15.2663 9.42243 15.3348 9.34963 15.3855C9.34595 15.3878 9.28447 15.3561 9.28478 15.3517ZM3.90103 22.4938C3.97881 22.4024 4.07413 22.4731 4.02042 22.5435C3.96532 22.6139 3.87667 22.5216 3.90103 22.4938ZM2.86915 22.6495C2.97842 22.5839 3.02499 22.7916 2.89292 22.7647C2.88521 22.7632 2.86268 22.6533 2.86915 22.6495ZM5.69284 8.31673C5.69374 8.31884 5.65862 8.36863 5.65624 8.36851C5.59884 8.36575 5.66897 8.26637 5.69284 8.31673ZM1.83832 22.6442C1.84921 22.6376 1.86474 22.6363 1.88059 22.6387C1.92695 22.64 1.97245 22.6641 1.94005 22.69C1.92731 22.7001 1.90608 22.7026 1.88605 22.6999C1.8834 22.7 1.87556 22.6993 1.87292 22.6991C1.83652 22.6895 1.80685 22.6635 1.83832 22.6442ZM10.7702 11.6982C10.7685 11.6963 10.7816 11.6545 10.7932 11.6597C10.8303 11.6764 10.7985 11.7297 10.7702 11.6982ZM0.134077 22.4224C0.381276 22.4328 0.566196 22.2869 0.279832 22.2706C0.228436 22.2687 0.38374 22.3382 0.317111 22.3467C0.197989 22.3624 0.126324 22.2475 0.00222746 22.3015C-0.0191714 22.3111 0.120633 22.4217 0.134502 22.4227C0.134361 22.4226 0.134218 22.4225 0.134077 22.4224ZM9.15398 15.2212C9.15293 15.2191 9.1831 15.1661 9.18546 15.166C9.2431 15.1627 9.1827 15.269 9.15398 15.2212ZM11.4685 9.25239C11.4655 9.24825 11.4914 9.11225 11.4958 9.10839C11.5875 9.05258 11.5348 9.33165 11.4685 9.25239ZM7.12884 18.7593C7.05791 18.798 7.0187 18.8683 7.05102 18.9407C7.07563 18.8807 7.10381 18.8195 7.12884 18.7593Z" fill="#963076"/>
</svg>
