<svg width="12" height="2" viewBox="0 0 12 2" fill="none" xmlns="http://www.w3.org/2000/svg">
<path d="M11.4411 0.0258885C11.3771 0.0022486 11.2863 0.00223594 11.2175 0.0113361C11.1957 0.0140844 11.2024 0.0418777 11.1872 0.044964C11.157 0.0509142 11.1337 0.0343866 11.1042 0.0425489C11.0944 0.0453917 11.0999 0.0885817 11.0898 0.0906142C11.0343 0.101418 10.9864 0.0839565 10.932 0.0855909C10.6632 0.0937158 10.4059 0.0794879 10.1384 0.0717306C10.0507 0.0691758 9.94085 0.0970299 9.85213 0.0724731C9.84176 0.069565 9.85129 0.0334141 9.84954 0.0302112C9.82207 -0.0188803 9.82608 0.0561528 9.80471 0.0642182C9.71992 0.0960422 9.62923 0.0921159 9.55188 0.0720427C9.51897 0.0634027 9.5579 -0.00709191 9.52118 0.031379C9.51864 0.0339749 9.52424 0.0736262 9.51477 0.077113C9.49331 0.0849358 9.45443 0.0751379 9.43812 0.0771122C9.4067 0.0811088 9.40161 0.0803674 9.3723 0.0788416C9.33203 0.0770924 9.2831 0.0934522 9.24072 0.0820087C9.23167 0.0794497 9.24624 0.0401395 9.23201 0.0324447C9.21779 0.0247541 9.17848 0.0258738 9.16485 0.0345851C9.1512 0.0432911 9.15502 0.0750873 9.1523 0.0821722C9.12987 0.141994 9.08973 0.0552386 9.08402 0.0528594C8.98006 0.0117907 8.88706 0.0558759 8.78827 0.052206C8.7126 0.049302 8.63328 0.0311689 8.56065 0.0318657C8.47542 0.0328902 8.40182 0.0537541 8.31898 0.0498193C8.31011 0.0494547 8.3206 0.00230655 8.30974 0.00176922C8.19516 -0.00385974 8.08114 0.00274225 7.96709 0.0382673C7.95582 0.0418709 7.97181 0.0827814 7.96068 0.0888579C7.89112 0.125027 7.78765 0.212106 7.73412 0.0349935C7.68762 0.0449149 7.62796 0.0566853 7.58916 0.0966145C7.56395 0.122347 7.59498 0.16482 7.55921 0.148791C7.55108 0.145253 7.55744 0.104962 7.54545 0.102645C7.49484 0.0929657 7.44464 0.11145 7.39295 0.0975964C7.38259 0.0946678 7.38063 0.059226 7.37699 0.0532754C7.34665 0.00515766 7.31862 0.095503 7.311 0.10299C7.25498 0.157178 7.20474 0.149936 7.1475 0.16233C7.14598 0.162661 7.14446 0.163007 7.14293 0.163367C7.12947 0.166568 7.1354 0.116629 7.12205 0.118054C7.0533 0.126009 6.98474 0.145955 6.92461 0.182223C6.91115 0.190433 6.93411 0.226545 6.92819 0.232477C6.90221 0.258136 6.87714 0.185532 6.85212 0.208838C6.84686 0.213655 6.85875 0.24642 6.85856 0.250394C6.85555 0.312798 6.81951 0.234591 6.81447 0.233955C6.75118 0.223857 6.73691 0.319178 6.67975 0.321892C6.67273 0.322182 6.67597 0.275771 6.65691 0.279189C6.53081 0.301461 6.40456 0.352097 6.29613 0.423953C6.27927 0.435064 6.30262 0.462161 6.30269 0.466406C6.30335 0.532907 6.26511 0.45592 6.25793 0.454898C6.20279 0.448664 6.18168 0.531013 6.11689 0.44603C5.92749 0.547469 5.71157 0.566878 5.54843 0.723359C5.54632 0.725252 5.56517 0.762963 5.56089 0.766571C5.50957 0.810408 5.49853 0.74511 5.43212 0.684557C5.41544 0.669353 5.41822 0.77061 5.41793 0.778206C5.41706 0.806137 5.44833 0.861102 5.44679 0.867008C5.4332 0.913904 5.36761 0.718472 5.33156 0.731338C5.33054 0.732067 5.34809 0.766078 5.34633 0.770717C5.34089 0.785247 5.32646 0.774397 5.3216 0.789991C5.31061 0.825981 5.33646 0.923099 5.28458 0.879578C5.27797 0.873878 5.2454 0.761427 5.21499 0.777915C5.203 0.784581 5.14536 0.802373 5.13195 0.814902C5.11849 0.827478 5.14153 0.859435 5.14093 0.861363C5.11379 0.923165 5.13674 0.937179 5.1383 1.01446C5.13963 1.09149 5.09032 0.923179 5.07535 0.907542C5.06043 0.89196 5.04155 0.941435 5.03805 0.957588C5.03461 0.973743 5.05184 0.993311 5.04734 1.00328C5.0173 1.06857 5.00033 0.927061 4.9767 0.905448C4.92108 0.854104 4.93276 0.986653 4.90319 1.00908C4.89524 1.01512 4.89386 0.984575 4.88509 0.984366C4.85072 0.983805 4.84348 1.02834 4.79694 1.00326C4.78933 0.999187 4.73907 0.932437 4.73614 0.992884C4.73574 1.0016 4.75222 1.03058 4.74068 1.04141C4.72335 1.05766 4.68921 1.0745 4.66444 1.06998C4.64711 1.06677 4.65037 1.0154 4.63701 1.02901L4.66334 1.02535C4.66252 1.02585 4.66161 1.02649 4.66061 1.0273C4.65132 1.03482 4.66912 1.06582 4.65161 1.07734C4.63417 1.08887 4.58933 1.08796 4.57234 1.08701C4.55536 1.08604 4.56434 1.04548 4.56295 1.04277C4.55453 1.02722 4.52205 1.0079 4.51921 1.00795C4.37492 1.00375 4.24038 1.07115 4.10019 1.04621C4.08924 1.04431 4.09729 1.00175 4.09562 1.00102C4.05786 0.982466 4.08588 1.09649 4.05845 1.13398C4.06396 1.04743 4.04791 1.06283 4.02136 1.05277C4.00857 1.04785 4.01631 1.01447 4.01521 1.01101C3.99728 0.959662 3.98261 1.02514 3.97886 1.03852C3.96508 1.08773 3.9528 1.0289 3.94343 1.06178C3.93403 1.0944 3.95254 1.14359 3.92699 1.14232C3.92066 1.11113 3.94163 1.03061 3.92269 1.01698C3.85026 0.965499 3.71289 1.02442 3.65289 1.02848C3.59374 1.03267 3.57556 1.02609 3.54063 1.0357C3.47735 1.053 3.50305 0.994022 3.46608 0.964632C3.42916 0.935196 3.44016 1.08388 3.43299 1.11536C3.42589 1.14682 3.42165 1.11383 3.41398 1.13093C3.40631 1.14802 3.41978 1.17038 3.40355 1.17609C3.38743 1.18181 3.34671 1.12292 3.34291 1.08938C3.33494 1.01836 3.35872 0.945684 3.31524 0.969187C3.31274 0.970585 3.31831 1.00988 3.30882 1.01326C3.23395 1.03887 3.15705 1.03576 3.08206 1.05701C3.07176 1.05999 3.07768 1.10379 3.07164 1.10601C3.00892 1.12926 3.03553 1.05801 3.00803 0.974694C3.00759 1.08282 2.98382 1.14727 2.9371 1.14427C2.90908 1.1425 2.91762 1.09591 2.90232 1.06138C2.89775 1.05097 2.87557 1.08162 2.87383 1.05925C2.86785 0.98608 2.89314 0.90685 2.84252 0.935015C2.84029 0.936367 2.84367 0.976435 2.83619 0.978215C2.78793 0.989885 2.78885 0.913931 2.73987 0.900342C2.7011 0.889653 2.626 0.928984 2.58098 0.932051C2.57035 1.05288 2.52965 1.02091 2.52091 0.935947C2.49122 0.936353 2.46033 0.928357 2.43125 0.936854C2.42125 0.93974 2.42378 0.975328 2.42217 0.97897C2.39713 1.03613 2.39271 0.953805 2.38681 0.949947C2.32145 0.911548 2.25968 0.966453 2.20116 0.898654C2.19911 0.896217 2.20559 0.81215 2.18088 0.871084C2.17923 0.875153 2.19589 0.915824 2.16515 0.915021C2.13528 0.914341 2.06998 0.951571 2.03322 0.907309C2.02407 0.896622 2.00823 0.825523 1.97958 0.875544C1.97579 0.882351 1.97562 0.90671 1.96974 0.919478C1.95078 0.960128 1.95526 0.874799 1.93006 0.944334C1.90465 1.01383 1.86592 1.06314 1.82946 1.00743C1.82827 1.00579 1.82763 0.937508 1.81393 0.936573C1.79198 0.935138 1.75949 0.944496 1.7375 0.940696C1.72697 0.938853 1.74006 0.898458 1.73834 0.897421C1.66841 0.862935 1.61286 0.891905 1.53226 0.894789C1.51786 0.895469 1.48692 0.832198 1.45147 0.871805C1.41279 0.915155 1.40764 1.12332 1.34675 1.06248C1.32052 1.03775 1.33467 0.774936 1.25903 0.897997C1.1692 0.846343 1.06332 0.89486 0.977217 0.825561C0.973226 0.82245 0.976263 0.748317 0.966204 0.746916C0.951146 0.744954 0.935361 0.776141 0.923421 0.775503C0.875317 0.774157 0.841292 0.735114 0.798263 0.72761C0.781018 0.724385 0.776959 0.759879 0.75691 0.756026C0.737887 0.752369 0.736847 0.703638 0.704958 0.716757C0.681015 0.726793 0.629228 0.809391 0.594887 0.807796C0.61724 0.748926 0.615024 0.727003 0.606784 0.708468C0.602362 0.699284 0.595844 0.690719 0.589019 0.678929C0.585015 0.671947 0.604435 0.644942 0.603212 0.640101C0.598518 0.619736 0.57714 0.63981 0.573559 0.618338C0.572657 0.613163 0.585293 0.583852 0.585273 0.577969C0.585533 0.526792 0.526334 0.579475 0.51629 0.588791C0.477605 0.623888 0.484493 0.581736 0.461789 0.592484C0.439225 0.603308 0.453127 0.634447 0.430873 0.637445C0.385005 0.643706 0.339519 0.619824 0.30125 0.606617C0.28599 0.601138 0.311631 0.565369 0.309802 0.563661C0.282139 0.5414 0.234717 0.572128 0.246252 0.485974C0.149137 0.684145 0.234506 0.45891 0.173748 0.483955C0.168936 0.486026 0.12996 0.582308 0.138499 0.601485C0.146848 0.620584 0.178216 0.597364 0.18883 0.626534C0.191384 0.633382 0.182639 0.733814 0.183892 0.740588C0.193825 0.793454 0.252625 0.64998 0.2571 0.642556C0.306223 0.562875 0.299447 0.672659 0.30455 0.68248C0.328966 0.727771 0.367901 0.720148 0.389267 0.754737C0.403231 0.77718 0.365538 0.871543 0.382049 0.875182C0.436917 0.887458 0.512074 0.765758 0.512181 0.899959C0.512231 0.914322 0.498397 0.945846 0.493795 0.965778C0.490475 0.986123 0.498968 0.996427 0.542212 0.966498C0.550023 0.963703 0.608849 0.900349 0.613885 0.955204C0.614168 0.962017 0.603822 0.992675 0.60611 0.996303C0.621483 1.01992 0.645761 1.00056 0.664777 1.01922C0.682861 1.03761 0.708904 1.06424 0.735935 1.06026C0.753115 1.05819 0.789022 1.00536 0.800368 0.993067C0.831228 0.957221 0.835359 1.03018 0.860966 0.983499C0.886355 0.936486 0.880302 0.854051 0.921784 0.829848C0.90312 0.911823 0.885251 0.996277 0.867204 1.07889C0.940645 1.09375 1.02184 1.08395 1.09225 1.10246C1.10131 1.10491 1.08267 1.14718 1.09222 1.15096C1.13413 1.16698 1.17332 1.14198 1.21517 1.16317C1.24631 1.1795 1.27277 1.23319 1.30636 1.2516C1.34543 1.16099 1.38902 1.202 1.42888 1.19996C1.44267 1.19927 1.44632 1.17382 1.45671 1.1671C1.49613 1.14239 1.4659 1.22345 1.47313 1.23825C1.50461 1.30143 1.54037 1.11235 1.58759 1.12483C1.58996 1.12541 1.60464 1.23163 1.60806 1.23862C1.629 1.28409 1.61814 1.20408 1.63649 1.1993C1.67006 1.19054 1.69612 1.16977 1.72759 1.20488C1.73682 1.21526 1.75317 1.28233 1.78142 1.23648C1.78512 1.23048 1.78849 1.19671 1.79099 1.19507C1.83629 1.16821 1.82142 1.27365 1.8392 1.31261C1.85686 1.35154 1.90256 1.28363 1.91265 1.26361C1.93901 1.21188 1.90134 1.23841 1.90108 1.23294C1.89791 1.16787 1.92205 1.18234 1.94262 1.17967C1.95966 1.07659 1.98591 1.08645 1.96374 1.17729C1.96144 1.18723 1.94722 1.17548 1.94262 1.17967C1.94672 1.28364 1.97424 1.30058 2.02002 1.20999C2.0414 1.1675 2.03326 1.11372 2.07821 1.13878C2.09865 1.15009 2.08159 1.22041 2.09792 1.24223C2.13493 1.29196 2.19983 1.23225 2.24343 1.24796C2.25897 1.25363 2.23884 1.29092 2.24934 1.29614C2.27725 1.31013 2.30646 1.28371 2.33453 1.30205C2.33707 1.30376 2.32593 1.34398 2.33515 1.34553C2.40537 1.35809 2.46763 1.33808 2.54141 1.34465C2.57616 1.34777 2.63706 1.37639 2.67456 1.3752C2.73808 1.37332 2.82159 1.32031 2.87415 1.33912C2.90835 1.35121 2.89746 1.39168 2.91035 1.42086C2.93529 1.47744 2.99486 1.38412 3.00294 1.36957C3.00317 1.36909 2.97332 1.35712 2.9912 1.33724C3.00393 1.29398 3.0026 1.36935 3.00294 1.36957C3.00872 1.36024 3.06901 1.35519 3.08063 1.36387C3.08685 1.36862 3.0805 1.40732 3.0838 1.40906C3.16304 1.44957 3.24341 1.46457 3.32756 1.45103C3.32906 1.45033 3.32932 1.40659 3.33283 1.40548C3.38204 1.38879 3.40878 1.44369 3.44684 1.47737C3.48468 1.51102 3.51719 1.5019 3.54375 1.42804C3.57276 1.43882 3.61669 1.4075 3.642 1.38838C3.66729 1.36927 3.66744 1.45435 3.66954 1.45611C3.73581 1.51248 3.77531 1.46515 3.84583 1.4597C3.87953 1.45698 3.94475 1.47103 3.98053 1.48112C4.00883 1.48925 4.02643 1.46968 4.05254 1.48293C4.05608 1.4847 4.05175 1.52248 4.05281 1.52395C4.08151 1.56979 4.06901 1.47699 4.07538 1.46058C4.09859 1.40087 4.11207 1.36909 4.14894 1.3979C4.15738 1.4045 4.18078 1.53808 4.19659 1.54605C4.21709 1.55617 4.20982 1.50832 4.23128 1.52011C4.23311 1.52107 4.23244 1.55054 4.24581 1.54936C4.30799 1.54428 4.3744 1.52741 4.43892 1.5303C4.44772 1.53058 4.43648 1.57733 4.44922 1.57851C4.50889 1.58396 4.57358 1.58182 4.63161 1.5593C4.64586 1.55361 4.63652 1.52098 4.63951 1.51123C4.64851 1.48231 4.65979 1.488 4.66955 1.5015C4.68844 1.49964 4.7429 1.49532 4.76074 1.48884C4.77436 1.49986 4.78842 1.51947 4.79091 1.51966C4.90781 1.53025 4.96652 1.43242 5.0828 1.43468C5.08894 1.43505 5.16145 1.50817 5.15709 1.42702C5.15694 1.42159 5.15131 1.33898 5.18552 1.38559C5.18766 1.3885 5.18837 1.4318 5.20824 1.42086C5.22807 1.40994 5.2706 1.42494 5.28499 1.37211C5.28961 1.35544 5.28504 1.27238 5.33263 1.3236C5.33573 1.32727 5.42482 1.44936 5.40687 1.35003C5.40388 1.33369 5.36659 1.23501 5.41636 1.27487C5.42593 1.28262 5.42265 1.30871 5.44361 1.31692C5.47578 1.3296 5.49881 1.29144 5.54471 1.3249C5.55274 1.33086 5.59933 1.39021 5.59877 1.33263C5.59868 1.32362 5.58142 1.29241 5.58949 1.2853C5.62774 1.25138 5.68231 1.25655 5.71874 1.21725C5.73165 1.20341 5.70396 1.15292 5.71521 1.13255C5.72648 1.11217 5.75455 1.08624 5.78069 1.10435C5.80684 1.12248 5.81935 1.21454 5.84758 1.21191C5.97018 1.2005 6.06073 1.11071 6.16756 1.06479C6.18338 1.05798 6.18072 1.09333 6.2048 1.08553C6.29374 1.05665 6.45317 1.03533 6.50823 0.94579C6.55234 0.87392 6.46297 0.857982 6.50303 0.821799C6.5226 0.804414 6.5786 0.897553 6.5848 0.899128C6.6474 0.915238 6.67099 0.859493 6.72308 0.859351C6.73385 0.859341 6.73594 0.903234 6.74495 0.902784C6.77557 0.901696 6.80021 0.874937 6.82889 0.870651C6.8417 0.868852 6.84796 0.900998 6.85852 0.8955C6.88379 0.882749 6.9045 0.863003 6.92314 0.826473C6.92486 0.823142 6.89829 0.78811 6.91799 0.781388C6.9498 0.770657 6.98393 0.73081 7.02895 0.75185C7.04247 0.75819 7.06048 0.830594 7.07254 0.774643C7.07499 0.762988 7.04801 0.67727 7.09388 0.745933C7.10169 0.757275 7.1721 0.848009 7.18045 0.777101C7.18257 0.758444 7.1819 0.683401 7.19805 0.691606C7.20029 0.692992 7.20168 0.733753 7.21373 0.735074C7.23276 0.736864 7.25152 0.735182 7.27049 0.733111C7.28942 0.7315 7.30941 0.729365 7.3309 0.73244C7.34133 0.734025 7.33424 0.777474 7.34939 0.778584C7.38896 0.782057 7.43921 0.763789 7.47738 0.745805C7.49181 0.739039 7.47705 0.706293 7.47765 0.702445C7.48801 0.639799 7.50912 0.71998 7.51561 0.72403C7.55568 0.748187 7.57925 0.706972 7.61603 0.713762C7.62612 0.71555 7.62275 0.755178 7.62502 0.758472C7.64762 0.790659 7.6267 0.721965 7.63842 0.713137C7.67096 0.688211 7.71294 0.688127 7.74888 0.690745C7.76223 0.691755 7.7504 0.73803 7.76229 0.738424C7.83356 0.741594 7.90695 0.733783 7.97702 0.706391C7.99002 0.701162 7.9806 0.666504 7.98308 0.658434C8.00036 0.601974 8.03099 0.677332 8.03762 0.684427C8.06804 0.71679 8.0791 0.685641 8.1049 0.690914C8.23341 0.717092 8.39022 0.69715 8.51302 0.686828C8.67253 0.673554 8.79766 0.644678 8.95036 0.660329C8.96004 0.661287 8.94808 0.707275 8.95639 0.708699C9.06403 0.724998 9.17111 0.712838 9.27857 0.733219C9.2874 0.734811 9.27175 0.77797 9.28579 0.782005C9.31463 0.790594 9.35167 0.790689 9.38217 0.778712C9.39705 0.772955 9.38035 0.733869 9.3953 0.728848C9.43012 0.717076 9.4668 0.716595 9.50102 0.726258C9.51558 0.730468 9.48989 0.773738 9.50905 0.775709C9.63955 0.790094 9.76711 0.808712 9.90484 0.762955C9.91426 0.759811 9.93081 0.669332 9.94861 0.688674C9.94766 0.714127 9.94474 0.743896 9.9428 0.771014C10.132 0.803756 10.3239 0.79245 10.5155 0.810553C10.5236 0.811333 10.5038 0.857847 10.5195 0.859602C10.6097 0.86979 10.6952 0.894191 10.7931 0.858582C10.8029 0.855135 10.8096 0.769846 10.8349 0.786301C10.8394 0.789277 10.8784 0.806092 10.8862 0.825898C10.8872 0.828863 10.8745 0.867342 10.8872 0.870279C10.9624 0.886795 11.0421 0.889105 11.1215 0.876476C11.1342 0.874345 11.1277 0.83042 11.1368 0.828541C11.2011 0.815496 11.2634 0.857977 11.3282 0.829544C11.372 0.810437 11.3693 0.735629 11.4022 0.667874C11.4069 0.658317 11.4314 0.660814 11.4397 0.619591C11.4606 0.515944 11.4679 0.399827 11.4916 0.289582C11.4967 0.265832 11.5256 0.297246 11.5157 0.236097C11.515 0.231994 11.494 0.208705 11.4912 0.188078C11.4893 0.17381 11.504 0.132929 11.4983 0.114126C11.4925 0.0953355 11.4772 0.129095 11.4661 0.106309C11.455 0.0832684 11.4694 0.0363332 11.4411 0.0258885ZM3.75542 1.30266C3.77923 1.26263 3.77756 1.4122 3.75439 1.37561C3.75327 1.37366 3.7542 1.30463 3.75542 1.30266ZM1.04354 0.972886C1.08799 0.915088 1.08564 1.0137 1.05511 1.05927C1.02403 1.10465 1.02991 0.990362 1.04354 0.972886ZM0.752812 0.851161C0.80164 0.810978 0.750442 1.01683 0.723556 0.964683C0.721904 0.96169 0.749921 0.853471 0.752812 0.851161ZM11.3074 0.631529C11.308 0.629616 11.3258 0.630516 11.3259 0.632527C11.3276 0.680908 11.2922 0.679093 11.3074 0.631529ZM0.480487 0.692177C0.501583 0.669997 0.516462 0.712533 0.490203 0.740033C0.469123 0.762159 0.454395 0.719812 0.480487 0.692177ZM4.92373 1.07913C4.92342 1.0769 4.93526 1.07115 4.93873 1.08326C4.94987 1.12229 4.92907 1.11671 4.92373 1.07913ZM0.00780543 0.511704C0.0808625 0.527386 0.182044 0.377053 0.0963593 0.368915C0.0809701 0.367528 0.109421 0.432222 0.0862024 0.441084C0.0442411 0.457348 0.0563795 0.345555 0.00409663 0.390602C-0.00513872 0.398938 0.00351042 0.51115 0.00785598 0.511978C0.00783915 0.511886 0.00782229 0.511795 0.00780543 0.511704ZM3.77444 1.12358C3.77495 1.12163 3.79288 1.12035 3.79325 1.12232C3.80138 1.1701 3.76516 1.17269 3.77444 1.12358ZM5.60755 0.745233C5.60702 0.74094 5.6447 0.722907 5.64733 0.726079C5.69446 0.791481 5.61833 0.828164 5.60755 0.745233ZM2.57996 0.935201C2.56558 0.885786 2.54252 0.877809 2.52101 0.935896C2.54057 0.934697 2.56062 0.936241 2.57996 0.935201Z" fill="#3C8634"/>
</svg>
