<svg width="3" height="3" viewBox="0 0 3 3" fill="none" xmlns="http://www.w3.org/2000/svg">
<path d="M1.38355 1.06317C1.35732 1.06088 1.33573 1.08604 1.32296 1.11279C1.31888 1.12114 1.3331 1.1438 1.33075 1.15066C1.3261 1.16407 1.31268 1.15586 1.30896 1.17099C1.30778 1.17612 1.32858 1.2128 1.32694 1.2173C1.31784 1.24172 1.29767 1.23901 1.28444 1.25464C1.21898 1.33179 1.14284 1.38169 1.0657 1.43372C1.04044 1.45077 1.02034 1.49977 0.985668 1.49527C0.981597 1.49472 0.970348 1.45956 0.968619 1.45697C0.942055 1.41737 0.97203 1.48555 0.969073 1.49726C0.957093 1.54362 0.929375 1.5575 0.899866 1.55287C0.887445 1.55073 0.87343 1.47806 0.876802 1.52043C0.876981 1.52331 0.89262 1.55929 0.891092 1.56425C0.887553 1.57545 0.872993 1.57306 0.869122 1.57764C0.86132 1.58679 0.859576 1.58696 0.850742 1.59034C0.838637 1.59532 0.829993 1.61848 0.814193 1.61397C0.810881 1.61287 0.802878 1.57339 0.796693 1.56812C0.790669 1.56282 0.780338 1.56936 0.779348 1.57944C0.778272 1.58957 0.78826 1.61951 0.789544 1.62666C0.800071 1.68707 0.764764 1.609 0.763281 1.6072C0.731054 1.58229 0.716967 1.62133 0.713849 1.62837C0.713654 1.62911 0.713521 1.62952 0.713495 1.62951C0.711835 1.62894 0.726045 1.6145 0.734938 1.62159C0.745323 1.63027 0.731909 1.65021 0.731134 1.643C0.731132 1.64242 0.769195 1.61456 0.769603 1.61424C0.773956 1.61124 0.761975 1.6016 0.724216 1.58695C0.720373 1.58548 0.681821 1.60098 0.675548 1.60001C0.638033 1.59512 0.549463 1.57412 0.724587 1.52885C0.715349 1.5182 0.70554 1.50313 0.667869 1.49598C0.64358 1.49103 0.599951 1.50511 0.617647 1.49208C0.621596 1.48917 0.661169 1.48715 0.664145 1.48328C0.676643 1.46691 0.662224 1.45266 0.681236 1.43601C0.6852 1.43265 0.720539 1.43039 0.726818 1.42901C0.777653 1.41782 0.691732 1.41343 0.685349 1.41104C0.63781 1.39449 0.655131 1.37779 0.653207 1.35898C0.652744 1.35455 0.700467 1.35783 0.701734 1.35357C0.707671 1.33138 0.703067 1.30928 0.681732 1.28734C0.676875 1.28252 0.636418 1.28742 0.632025 1.28511C0.613157 1.27475 0.689649 1.27201 0.673095 1.26216C0.669706 1.26006 0.635032 1.26128 0.631223 1.2609C0.571435 1.2548 0.656155 1.24951 0.65803 1.24801C0.683655 1.22855 0.59538 1.21499 0.608241 1.19556C0.60987 1.19327 0.653641 1.19927 0.655541 1.19283C0.668461 1.14997 0.658044 1.10403 0.624988 1.05857C0.619906 1.05153 0.58676 1.05487 0.582721 1.05426C0.519626 1.04431 0.604812 1.04374 0.608115 1.0417C0.631979 1.02536 0.561599 1.00503 0.663399 0.998516C0.632169 0.922587 0.693937 0.849881 0.607027 0.768596C0.606023 0.767586 0.564096 0.767295 0.562273 0.765298C0.539825 0.741722 0.604688 0.74837 0.684899 0.735817C0.705049 0.732463 0.609408 0.71696 0.602391 0.715812C0.576563 0.711199 0.514144 0.712952 0.509159 0.711544C0.470031 0.699654 0.676014 0.707713 0.676471 0.692396C0.676139 0.691924 0.638165 0.692968 0.634425 0.691629C0.622678 0.687504 0.63783 0.684038 0.624842 0.680086C0.594775 0.670878 0.494704 0.666384 0.553044 0.65405C0.560601 0.652411 0.677562 0.655349 0.671974 0.641379C0.669951 0.636204 0.670885 0.614379 0.665499 0.604853C0.664844 0.604604 0.664086 0.604404 0.663201 0.604257C0.655602 0.602962 0.617953 0.604525 0.616321 0.604589C0.566542 0.596384 0.545803 0.599001 0.472714 0.586186C0.400437 0.569349 0.574583 0.590221 0.594113 0.59147C0.613519 0.593081 0.573839 0.581678 0.56068 0.575514C0.547329 0.570063 0.523492 0.56657 0.516233 0.562387C0.470671 0.530444 0.60089 0.583121 0.627404 0.591248C0.687179 0.619149 0.569147 0.563083 0.566096 0.544753C0.56458 0.541063 0.587181 0.560237 0.59011 0.560983C0.600062 0.56529 0.575432 0.532587 0.604574 0.556799C0.610541 0.559884 0.655592 0.623604 0.626549 0.5742C0.62273 0.566851 0.604283 0.540136 0.603405 0.532217C0.601703 0.520475 0.608764 0.509055 0.618834 0.516711C0.625844 0.522518 0.641398 0.573763 0.63946 0.556721C0.638898 0.549022 0.623628 0.521402 0.624201 0.509125C0.624855 0.496727 0.639186 0.49374 0.64433 0.49362C0.649729 0.493373 0.656723 0.533375 0.657839 0.535902C0.663907 0.550448 0.676028 0.567754 0.676693 0.567598C0.710618 0.565467 0.752406 0.495454 0.799757 0.51991C0.80338 0.521775 0.799106 0.564324 0.799641 0.565048C0.810677 0.583461 0.806388 0.469622 0.8177 0.432164C0.811711 0.518602 0.817823 0.503191 0.826287 0.513279C0.830342 0.518215 0.825619 0.551515 0.825787 0.554968C0.828278 0.606213 0.837511 0.540946 0.839844 0.527627C0.848136 0.478614 0.847816 0.537321 0.853636 0.504616C0.859657 0.47218 0.856981 0.423015 0.866236 0.424508C0.865772 0.455615 0.851656 0.535672 0.856875 0.549368C0.8758 0.600926 0.928186 0.543955 0.950144 0.540963C0.97148 0.537775 0.976758 0.544585 0.990567 0.535708C1.01563 0.519782 0.996769 0.577428 1.00417 0.606915C1.01147 0.636439 1.03464 0.490211 1.04283 0.459418C1.05111 0.428661 1.04671 0.46116 1.05264 0.444541C1.05862 0.427934 1.05765 0.405655 1.06479 0.400432C1.07204 0.395225 1.07608 0.453928 1.07084 0.486832C1.05994 0.556567 1.03746 0.62731 1.05711 0.605059C1.05826 0.603738 1.06408 0.565179 1.06809 0.562048C1.09982 0.538468 1.12674 0.54306 1.15874 0.523957C1.16319 0.521282 1.17085 0.478565 1.17359 0.476541C1.2023 0.455421 1.17617 0.524026 1.16657 0.605351C1.19195 0.500487 1.21548 0.438424 1.23246 0.442449C1.24262 0.444834 1.22824 0.489738 1.22554 0.52347C1.22468 0.533628 1.24042 0.504471 1.23557 0.526133C1.21967 0.596921 1.19106 0.673027 1.21583 0.646601C1.21697 0.645336 1.22579 0.606613 1.22894 0.605031C1.24941 0.594662 1.22975 0.667848 1.24357 0.681642C1.25442 0.692463 1.2916 0.655752 1.30903 0.653573C1.3463 0.538157 1.3528 0.56953 1.33185 0.650713C1.34258 0.650697 1.3516 0.658774 1.36488 0.651163C1.36942 0.648575 1.37886 0.61468 1.38052 0.61124C1.4066 0.557307 1.38391 0.635575 1.38487 0.639297C1.39714 0.676561 1.43691 0.625535 1.43709 0.690202C1.43709 0.69253 1.40772 0.771486 1.43552 0.716312C1.43745 0.712517 1.44453 0.674123 1.4554 0.675203C1.46663 0.676416 1.50229 0.642119 1.50141 0.684184C1.50127 0.694336 1.48192 0.760451 1.50946 0.714221C1.51327 0.707974 1.52207 0.685447 1.52887 0.673754C1.5508 0.636621 1.51805 0.715251 1.55292 0.651653C1.57205 0.616964 1.5909 0.588113 1.60297 0.577596C1.60855 0.57879 1.61936 0.590168 1.62401 0.593473C1.63659 0.58932 1.63967 0.594647 1.6274 0.614935C1.62663 0.616255 1.57863 0.663846 1.58276 0.666858C1.58935 0.671603 1.60728 0.670502 1.61247 0.676866C1.61495 0.679937 1.58225 0.706275 1.58215 0.707298C1.58292 0.742997 1.62354 0.731821 1.65484 0.741111C1.66057 0.742684 1.6301 0.793411 1.66957 0.769129C1.71261 0.742341 1.85149 0.590255 1.83318 0.641344C1.82555 0.661439 1.65194 0.856891 1.75952 0.7728C1.76198 0.821712 1.83237 0.792482 1.82698 0.851219C1.82674 0.853821 1.78292 0.912244 1.78658 0.914074C1.79201 0.916617 1.81649 0.892738 1.821 0.893613C1.83112 0.895205 1.83413 0.904613 1.83697 0.914301C1.83564 0.921367 1.83502 0.929928 1.84061 0.934475C1.84493 0.938152 1.87371 0.917689 1.87949 0.92357C1.88536 0.929943 1.84627 0.955092 1.87041 0.953815C1.88868 0.952597 1.97971 0.924344 1.99485 0.933159C1.90762 0.966769 1.91209 0.972955 1.89254 0.992446C1.8887 0.996104 1.85703 1.00393 1.85361 1.00615C1.83891 1.01515 1.86581 1.01081 1.84951 1.01996C1.8456 1.02217 1.81505 1.03141 1.8101 1.03367C1.76676 1.05268 1.83854 1.04291 1.85122 1.04194C1.899 1.03681 1.85981 1.05111 1.8793 1.05194C1.89888 1.05317 1.91936 1.03875 1.9321 1.04295C1.95848 1.05179 1.95777 1.07192 1.96234 1.08627C1.96398 1.0921 1.92145 1.09695 1.92072 1.098C1.91267 1.11205 1.95956 1.11524 1.87765 1.13849C2.09454 1.1041 1.85821 1.14972 1.90457 1.15813C1.90831 1.15877 2.01057 1.14105 2.02452 1.13292C2.03845 1.12473 2.00503 1.12281 2.02687 1.11087C2.03199 1.10805 2.12525 1.07859 2.13072 1.07595C2.17345 1.05514 2.02131 1.08532 2.01287 1.08654C1.92159 1.09907 2.02146 1.06528 2.02771 1.06003C2.05673 1.03766 2.03236 1.02925 2.05204 1.01033C2.06473 0.998046 2.16277 0.971456 2.15772 0.964522C2.14032 0.939781 2.00312 0.974888 2.111 0.910233C2.13371 0.895951 2.24072 0.864716 2.14964 0.870402C2.14372 0.870244 2.0632 0.883647 2.10468 0.852943C2.10986 0.848939 2.13936 0.835652 2.14093 0.832529C2.15072 0.811802 2.12299 0.813719 2.12538 0.792489C2.12771 0.771092 2.12996 0.739878 2.10752 0.727894C2.09687 0.722062 2.05875 0.736077 2.03661 0.745925C2.02885 0.740051 2.01152 0.716497 2.00279 0.71222C1.99825 0.716586 1.99449 0.72017 1.99215 0.722285C1.96018 0.751046 1.99967 0.693194 1.96357 0.730096C1.92703 0.766962 1.88281 0.832488 1.85241 0.850545C1.90653 0.786227 1.96176 0.719933 2.01617 0.655229C1.99795 0.64358 1.96346 0.649255 1.94924 0.631009C1.94755 0.628695 1.98038 0.59751 1.97941 0.594226C1.97529 0.580582 1.94512 0.59637 1.94452 0.577941C1.94418 0.563555 1.96985 0.521689 1.97105 0.505851C1.89854 0.569396 1.91019 0.534761 1.89582 0.53255C1.89078 0.531719 1.87251 0.549778 1.86441 0.553457C1.83426 0.566836 1.89923 0.511754 1.9068 0.500323C1.93932 0.451714 1.79903 0.5834 1.79133 0.568246C1.79082 0.567434 1.8589 0.490052 1.86273 0.484775C1.88735 0.450068 1.83554 0.507954 1.82619 0.508996C1.80913 0.510916 1.78608 0.521995 1.80027 0.492891C1.80446 0.484256 1.84655 0.435463 1.80516 0.463328C1.79973 0.466967 1.77474 0.489882 1.77278 0.490658C1.73956 0.502557 1.81704 0.433369 1.8403 0.403529C1.81512 0.38562 1.75652 0.323973 1.72631 0.317506C1.72638 0.317088 1.72645 0.316678 1.72651 0.316274C1.73209 0.278979 1.68601 0.338819 1.67456 0.35693C1.64439 0.403495 1.67093 0.380971 1.66911 0.386072C1.64745 0.446553 1.64164 0.431788 1.63191 0.43342C1.5887 0.528495 1.58184 0.518667 1.62238 0.434907C1.62686 0.425778 1.62857 0.437158 1.63191 0.43342C1.66715 0.336962 1.65931 0.319241 1.6092 0.402086C1.58612 0.441101 1.57162 0.491682 1.56205 0.467086C1.55756 0.455941 1.58751 0.390482 1.58754 0.369373C1.58759 0.321207 1.54202 0.375548 1.52966 0.359689C1.52509 0.353895 1.54457 0.319141 1.54186 0.31389C1.53464 0.299826 1.51444 0.323913 1.50866 0.305785C1.50814 0.304094 1.52442 0.266148 1.52117 0.264435C1.49652 0.250596 1.46505 0.267743 1.43739 0.259458C1.42405 0.255431 1.4075 0.226321 1.39202 0.226342C1.36592 0.226295 1.31954 0.275104 1.30357 0.255478C1.29285 0.242776 1.30683 0.203906 1.30852 0.175226C1.3115 0.119546 1.26607 0.2083 1.2597 0.222244C1.25951 0.222706 1.26848 0.235163 1.2569 0.253963C1.24201 0.295614 1.2598 0.222468 1.2597 0.222244C1.25546 0.231186 1.23003 0.234218 1.22741 0.225448C1.22598 0.220641 1.23699 0.183152 1.23605 0.181357C1.21332 0.139532 1.18272 0.122072 1.14593 0.132763C1.14518 0.133409 1.13677 0.176279 1.13516 0.177268C1.11233 0.192204 1.11131 0.13745 1.1013 0.103128C1.09132 0.0688395 1.07567 0.0767456 1.05295 0.148841C1.04255 0.137358 1.0194 0.167046 1.00629 0.18532C0.99326 0.203598 1.00497 0.119396 1.0043 0.117586C0.984227 0.0600855 0.959328 0.105756 0.928776 0.109818C0.913692 0.111801 0.885879 0.0966758 0.869944 0.086184C0.857149 0.0776979 0.847872 0.0970621 0.83634 0.0836641C0.834762 0.081875 0.83849 0.0441645 0.838056 0.0426815C0.826099 -0.00328824 0.828409 0.0895085 0.824801 0.105877C0.811981 0.165475 0.805026 0.197178 0.788597 0.168543C0.785113 0.161985 0.774379 0.0285772 0.765687 0.0208041C0.75468 0.010954 0.759063 0.0586783 0.747455 0.047262C0.746447 0.0463359 0.746192 0.0168513 0.738846 0.018311C0.705197 0.0247286 0.667547 0.0442064 0.626746 0.046812C0.620997 0.0473158 0.622057 -3.14756e-05 0.613283 1.14063e-05C0.57291 0.000153462 0.522595 0.012205 0.480445 0.0492046C0.470128 0.0584832 0.488227 0.0869428 0.488798 0.0970011C0.493905 0.157237 0.442848 0.0857062 0.437389 0.0862873C0.323522 0.0922744 0.268707 0.212241 0.161483 0.325048C0.155925 0.328086 0.0401358 0.356838 0.105 0.413672C0.108696 0.418934 0.17787 0.465338 0.119905 0.47251C0.116234 0.473356 0.0796972 0.44707 0.0773269 0.476884C0.075061 0.505962 0.0419019 0.549829 0.0866189 0.584403C0.0974922 0.5933 0.148115 0.608891 0.141027 0.627728C0.138798 0.628647 0.131757 0.629888 0.117586 0.631386C0.113164 0.632361 -0.0311025 0.641794 0.0685841 0.644003C0.0849899 0.6444 0.190497 0.642871 0.136423 0.651238C0.125936 0.652791 0.102414 0.649959 0.0877108 0.653969C0.06505 0.659948 0.0931633 0.669926 0.0459751 0.677408C0.0376218 0.678807 -0.0341089 0.683146 0.0200275 0.690412C0.0285057 0.691574 0.0637599 0.69097 0.0676 0.694159C0.0860506 0.708476 0.0618284 0.723956 0.0854457 0.740296C0.0937356 0.746205 0.150739 0.746084 0.16569 0.752732C0.18064 0.759299 0.194644 0.772701 0.168333 0.777534C0.142011 0.782369 0.0517688 0.770748 0.0440197 0.779639C0.0102862 0.819404 0.0609104 0.864146 0.0661685 0.908887C0.0669644 0.915391 0.0348517 0.90819 0.0336973 0.917708C0.0292526 0.95295 -0.00440959 1.01455 0.0631834 1.04975C0.117304 1.07775 0.160692 1.04732 0.182343 1.06772C0.192678 1.07738 0.0868806 1.08343 0.0834743 1.08565C0.0489205 1.10688 0.0951105 1.12429 0.080221 1.14426C0.0771334 1.14842 0.0345041 1.14311 0.0323489 1.14669C0.0246082 1.15896 0.0433933 1.17255 0.0396854 1.18448C0.0379247 1.18984 0.00529161 1.18829 0.00772933 1.19334C0.0131913 1.20542 0.0267885 1.21629 0.0573022 1.22818C0.0600831 1.22925 0.100758 1.22249 0.102202 1.23125C0.104428 1.24553 0.134593 1.26311 0.103524 1.27975C0.0941804 1.28469 0.019541 1.28556 0.0711946 1.2958C0.0819892 1.29797 0.171548 1.29391 0.0942984 1.30741C0.0814451 1.30947 -0.0225894 1.33321 0.0450169 1.34223C0.0628037 1.34463 0.136297 1.34937 0.124974 1.35581C0.123163 1.35671 0.0829859 1.35463 0.079244 1.35988C0.0667636 1.37845 0.0718436 1.39723 0.0603489 1.41689C0.0572092 1.42226 0.0153553 1.41679 0.0120107 1.42482C0.00276616 1.44716 0.0152085 1.4731 0.0301427 1.49416C0.0357145 1.50177 0.0694338 1.49308 0.0732119 1.49335C0.13461 1.49688 0.0534158 1.50999 0.0489738 1.5137C0.0224092 1.53596 0.0625079 1.54713 0.0547851 1.56689C0.052772 1.57239 0.0134836 1.57386 0.0101585 1.57535C-0.0221787 1.59083 0.0464016 1.57333 0.0550016 1.57904C0.0792799 1.59454 0.0795687 1.61678 0.0782596 1.63763C0.0777352 1.64535 0.0315525 1.64511 0.0316397 1.65211C0.031428 1.69417 0.0462242 1.73973 0.0840885 1.77826C0.0912608 1.78533 0.123034 1.76971 0.131196 1.76909C0.187812 1.76334 0.121448 1.8049 0.11633 1.81213C0.0921943 1.84319 0.124305 1.84059 0.126142 1.86037C0.133123 1.95732 0.24152 2.10685 0.397671 2.18377C0.524299 2.24861 0.650211 2.24738 0.741867 2.234C0.794498 2.22619 0.826231 2.21767 0.859785 2.21423C0.865529 2.21356 0.869206 2.26028 0.874439 2.26025C0.941955 2.25724 0.984005 2.22546 1.03514 2.22343C1.03931 2.22317 1.04712 2.26695 1.05434 2.26791C1.0696 2.27006 1.08419 2.26272 1.09236 2.2451C1.09628 2.23661 1.07605 2.20353 1.08009 2.19576C1.08905 2.17775 1.103 2.16957 1.1188 2.17146C1.12568 2.17231 1.13192 2.21794 1.13976 2.2157C1.19349 2.20129 1.24592 2.1896 1.27363 2.11589C1.27552 2.11084 1.24467 2.02451 1.25815 2.03806C1.26807 2.06148 1.2791 2.08928 1.28938 2.11444C1.3654 2.09994 1.42103 2.04223 1.48673 2.00862C1.48951 2.00721 1.50376 2.05393 1.50926 2.05142C1.54107 2.03693 1.57761 2.03565 1.59056 1.97717C1.59187 1.97143 1.55569 1.89404 1.57032 1.90169C1.57293 1.90312 1.59168 1.90725 1.60292 1.92254C1.60456 1.92487 1.61817 1.96245 1.62324 1.96147C1.65229 1.95515 1.67651 1.93428 1.69282 1.90014C1.6954 1.89457 1.67336 1.85795 1.67503 1.85365C1.68717 1.8234 1.72391 1.84209 1.72807 1.79775C1.73092 1.76787 1.69517 1.70354 1.6721 1.63464C1.66886 1.62491 1.67648 1.61961 1.65926 1.58127C1.61601 1.48484 1.56352 1.38162 1.51789 1.27861C1.50807 1.25643 1.52976 1.27519 1.4988 1.22491C1.49671 1.22155 1.48076 1.20748 1.4705 1.19031C1.4634 1.17844 1.44789 1.13852 1.4378 1.1238C1.42771 1.10908 1.43971 1.143 1.42651 1.12631C1.41321 1.10938 1.39484 1.06431 1.38355 1.06317ZM0.948969 0.267637C0.934637 0.306892 0.952897 0.158457 0.9583 0.195297C0.958538 0.197255 0.949707 0.265717 0.948969 0.267637ZM1.88794 0.732847C1.83631 0.775095 1.89684 0.69898 1.93614 0.665899C1.97511 0.632568 1.90346 0.719917 1.88794 0.732847ZM1.95312 0.866709C1.90076 0.881651 2.07017 0.753743 2.05092 0.80211C2.04985 0.804944 1.9563 0.866078 1.95312 0.866709ZM1.63033 1.6312C1.62961 1.62935 1.63479 1.62484 1.63575 1.62657C1.65876 1.66827 1.64834 1.67727 1.63033 1.6312ZM1.95578 1.01055C1.9271 1.01436 1.95568 0.993918 1.99138 0.989015C2.02029 0.985614 1.9916 1.00627 1.95578 1.01055ZM0.507897 0.500689C0.509548 0.502164 0.508114 0.507571 0.497828 0.500335C0.464684 0.476833 0.479831 0.475608 0.507897 0.500689ZM1.99273 1.19656C1.97994 1.1705 1.80477 1.18689 1.82944 1.21172C1.8339 1.21627 1.88236 1.19057 1.8991 1.1943C1.92966 1.20149 1.82281 1.22878 1.88307 1.23112C1.89411 1.23157 1.99384 1.19794 1.99296 1.19647C1.99289 1.1965 1.99281 1.19653 1.99273 1.19656ZM0.919833 0.444953C0.919402 0.446887 0.912723 0.447894 0.912825 0.445934C0.915361 0.398379 0.92924 0.396375 0.919833 0.444953ZM0.565309 0.784224C0.569503 0.784804 0.572632 0.800484 0.568734 0.800595C0.490794 0.804365 0.484203 0.773375 0.565309 0.784224ZM1.31028 0.650577C1.302 0.69812 1.30761 0.705905 1.3318 0.650761C1.3244 0.651636 1.31775 0.649927 1.31028 0.650577Z" fill="#397C57"/>
</svg>
