<svg width="7" height="8" viewBox="0 0 7 8" fill="none" xmlns="http://www.w3.org/2000/svg">
<path d="M6.78998 6.70152C6.73904 6.66852 6.65873 6.65089 6.59316 6.64365C6.57262 6.64133 6.57144 6.66965 6.55653 6.66901C6.5281 6.668 6.50944 6.64566 6.48039 6.64623C6.47052 6.64645 6.46372 6.68935 6.4537 6.68867C6.39897 6.68468 6.35859 6.65458 6.30694 6.6405C6.05191 6.57074 5.81142 6.46744 5.56362 6.36012C5.48248 6.32499 5.36759 6.30747 5.29509 6.2499C5.28647 6.24306 5.30951 6.21358 5.30912 6.20993C5.30243 6.15366 5.27689 6.22435 5.25395 6.22329C5.16262 6.21869 5.0784 6.17706 5.01576 6.12676C4.98867 6.105 5.05385 6.05716 5.00385 6.0767C5.00041 6.07798 4.98935 6.11652 4.97905 6.11566C4.9554 6.11346 4.92441 6.08854 4.9083 6.08325C4.87758 6.07345 4.87265 6.0703 4.8464 6.05638C4.81714 6.04117 4.77706 6.03399 4.74421 6.01583C4.73683 6.01175 4.72988 6.00713 4.72355 6.00174C4.71632 5.99542 4.74666 5.96639 4.73694 5.95317C4.72719 5.93996 4.69131 5.92372 4.6752 5.92546C4.65907 5.92721 4.64843 5.95741 4.64283 5.96255C4.59589 6.00611 4.59848 5.91028 4.59465 5.90565C4.5228 5.82332 4.41696 5.81651 4.33387 5.76562C4.2694 5.72603 4.20844 5.66907 4.14801 5.63286C4.07499 5.58925 4.00108 5.56655 3.9356 5.51776C3.92865 5.51264 3.96345 5.47924 3.95506 5.47293C3.86276 5.40368 3.77072 5.34512 3.65959 5.30316C3.64855 5.29907 3.63583 5.3411 3.62331 5.33899C3.54821 5.3263 3.4081 5.32257 3.48634 5.15492C3.44536 5.13214 3.39646 5.10284 3.34051 5.10451C3.30462 5.10568 3.29693 5.15742 3.28292 5.12137C3.27975 5.11329 3.31221 5.08874 3.30563 5.07898C3.27804 5.038 3.23052 5.01544 3.20716 4.96912C3.20256 4.9597 3.22738 4.93431 3.22942 4.9277C3.24544 4.87372 3.16185 4.91458 3.15155 4.91389C3.07501 4.90913 3.05063 4.86355 3.00681 4.82587C2.99657 4.81708 3.04015 4.79229 3.0315 4.7826C2.9872 4.7337 2.93149 4.6879 2.86997 4.65867C2.85613 4.65217 2.83795 4.69075 2.82989 4.68913C2.79484 4.68171 2.84226 4.6212 2.80936 4.61242C2.80246 4.61047 2.78091 4.63786 2.77743 4.6398C2.72277 4.67009 2.7706 4.5984 2.76867 4.5939C2.7452 4.53515 2.65685 4.57191 2.62539 4.52206C2.62177 4.51611 2.66376 4.49626 2.65175 4.48147C2.57332 4.38413 2.47297 4.29376 2.36449 4.22347C2.34776 4.21261 2.33203 4.24464 2.32819 4.24643C2.26751 4.27353 2.32245 4.20707 2.32079 4.20028C2.30499 4.14692 2.2206 4.15766 2.27641 4.06648C2.11285 3.9259 2.03056 3.7244 1.83494 3.60485C1.83254 3.60327 1.8011 3.63137 1.79645 3.62812C1.73998 3.58877 1.79988 3.56067 1.84118 3.48052C1.85156 3.4604 1.75406 3.48828 1.74662 3.48986C1.71911 3.49565 1.67401 3.5401 1.66781 3.53995C1.61815 3.53726 1.79113 3.42513 1.76911 3.3925C1.76814 3.39167 1.73961 3.41721 1.73463 3.41657C1.71905 3.41467 1.72587 3.39781 1.70947 3.39683C1.67189 3.39507 1.58341 3.44297 1.61214 3.38093C1.61597 3.37302 1.717 3.31386 1.69301 3.28765C1.68369 3.2778 1.65033 3.22345 1.63456 3.21314C1.61867 3.20269 1.5937 3.23333 1.59166 3.23319C1.52434 3.22126 1.5168 3.24746 1.44181 3.2675C1.36705 3.28737 1.51758 3.19735 1.52864 3.1785C1.53963 3.15963 1.48634 3.1531 1.46982 3.15391C1.45318 3.15453 1.439 3.17664 1.42798 3.17454C1.35563 3.16027 1.48859 3.10819 1.5027 3.07888C1.53644 3.01002 1.41078 3.05529 1.38021 3.03202C1.37199 3.02578 1.40107 3.01613 1.39862 3.00737C1.3889 2.97347 1.34292 2.97749 1.352 2.92444C1.35362 2.91598 1.40006 2.84522 1.34065 2.86014C1.33216 2.86241 1.31026 2.88767 1.29584 2.87957C1.27445 2.86775 1.24563 2.8392 1.24024 2.81344C1.23635 2.79451 1.29138 2.77934 1.26482 2.77116C1.25304 2.76766 1.23864 2.80071 1.21872 2.79277C1.19961 2.78489 1.1734 2.74941 1.16231 2.73404C1.16173 2.73323 1.1612 2.73247 1.16071 2.73177C1.15065 2.71734 1.18837 2.69973 1.18962 2.69692C1.19648 2.68048 1.19174 2.64276 1.18984 2.64036C1.10416 2.522 0.969814 2.44968 0.908417 2.31561C0.903619 2.30521 0.943426 2.28804 0.943062 2.28621C0.936726 2.24396 0.858607 2.33183 0.811795 2.32964C0.886526 2.28564 0.86457 2.28074 0.857601 2.25243C0.854353 2.23881 0.886453 2.2267 0.888684 2.22382C0.920931 2.1798 0.858195 2.20383 0.844953 2.20811C0.796257 2.22387 0.837842 2.18024 0.805195 2.19057C0.7727 2.20068 0.74257 2.2441 0.728859 2.22132C0.751048 2.1984 0.830083 2.17173 0.830372 2.14764C0.832093 2.05754 0.702404 1.96985 0.662872 1.9214C0.623446 1.87285 0.61682 1.85296 0.586863 1.82905C0.532449 1.78645 0.595587 1.77184 0.592752 1.72116C0.588981 1.67007 0.483502 1.77618 0.454565 1.79057C0.425864 1.80534 0.448132 1.7806 0.430048 1.7858C0.41208 1.79116 0.403998 1.81596 0.389094 1.80753C0.383637 1.80444 0.382528 1.79341 0.384214 1.77936C0.385342 1.7527 0.398347 1.71807 0.413953 1.70335C0.466358 1.65476 0.535393 1.62647 0.498819 1.61601C0.496595 1.61519 0.46564 1.63954 0.458697 1.63516C0.403537 1.59878 0.391552 1.53248 0.379877 1.45782C0.378154 1.44727 0.333952 1.44779 0.332565 1.44124C0.320661 1.37019 0.38692 1.41015 0.472893 1.40589C0.368285 1.37942 0.31073 1.33933 0.329892 1.29037C0.331899 1.28529 0.334907 1.28179 0.338665 1.27949C0.35591 1.26944 0.389409 1.28458 0.420614 1.28147C0.431985 1.28043 0.410833 1.2486 0.432588 1.25435C0.503527 1.27358 0.56915 1.32417 0.559902 1.26831C0.559417 1.26578 0.520813 1.25458 0.521768 1.24705C0.528371 1.19774 0.598481 1.2269 0.629537 1.18839C0.653792 1.15831 0.648503 1.07612 0.666898 1.03419C0.56404 0.969751 0.612497 0.946473 0.690985 0.980167C0.704743 0.954076 0.726846 0.93153 0.734526 0.902235C0.737196 0.892189 0.705426 0.875976 0.703134 0.872719C0.667694 0.821 0.74017 0.860497 0.746422 0.857731C0.812608 0.824215 0.804019 0.740746 0.892994 0.735713C0.896264 0.735497 0.958589 0.792155 0.926875 0.73692C0.92476 0.733057 0.88252 0.720955 0.901997 0.697495C0.92118 0.674203 0.934507 0.600492 0.99272 0.603316C1.00704 0.603635 1.06855 0.641853 1.05194 0.587473C1.0497 0.580063 1.03274 0.562595 1.02782 0.549466C1.01292 0.507091 1.06884 0.571643 1.0391 0.50402C1.00958 0.436311 1.01039 0.369468 1.07752 0.387726C1.07969 0.388138 1.12295 0.440925 1.13443 0.433343C1.15249 0.421198 1.17519 0.394053 1.19693 0.385248C1.20757 0.380951 1.21713 0.422442 1.21924 0.422375C1.25257 0.419781 1.27647 0.410147 1.30058 0.398108L1.28793 0.399021C1.32504 0.393634 1.36238 0.380938 1.40784 0.375489C1.42293 0.373589 1.46089 0.433929 1.4932 0.391298C1.52899 0.344693 1.51342 0.136806 1.58286 0.192057C1.61113 0.214249 1.62375 0.477442 1.68914 0.348008C1.78738 0.391432 1.8902 0.333393 1.98629 0.394939C1.99065 0.39768 1.9948 0.471815 2.00562 0.472374C2.02169 0.47306 2.03514 0.44064 2.04698 0.440151C2.09616 0.437205 2.13476 0.473092 2.18086 0.476866C2.19845 0.478421 2.19886 0.442676 2.2199 0.444653C2.24117 0.446764 2.24561 0.494855 2.27795 0.478719C2.30221 0.466372 2.34392 0.378446 2.37557 0.374474C2.35541 0.465773 2.37534 0.468293 2.40314 0.500801C2.40843 0.507093 2.39345 0.536842 2.39552 0.541439C2.40351 0.560788 2.42182 0.537734 2.42866 0.558501C2.43032 0.563495 2.42205 0.594324 2.42288 0.600133C2.42941 0.650583 2.48027 0.590724 2.48967 0.580559C2.51496 0.552151 2.52097 0.567202 2.5303 0.572533C2.53102 0.573868 2.53501 0.574887 2.54123 0.572015C2.56429 0.561654 2.55001 0.529939 2.57317 0.527683C2.62171 0.523334 2.66839 0.552286 2.70651 0.568787C2.72172 0.575575 2.69324 0.609219 2.69499 0.611084C2.72234 0.636044 2.7718 0.608296 2.75719 0.694088C2.86303 0.500221 2.76847 0.722271 2.83316 0.699273C2.8383 0.697333 2.87706 0.601018 2.86921 0.581987C2.86142 0.562984 2.82977 0.585608 2.82059 0.556113C2.81811 0.549131 2.83273 0.44963 2.83245 0.443006C2.82731 0.390371 2.75877 0.529326 2.75369 0.536401C2.69883 0.61235 2.71266 0.50276 2.70783 0.492373C2.68487 0.444437 2.64189 0.447847 2.6161 0.41082C2.61034 0.402718 2.61064 0.386726 2.61263 0.368749C2.6096 0.367763 2.60084 0.363965 2.59774 0.36324C2.59929 0.327657 2.60717 0.283826 2.59366 0.281806C2.52539 0.27188 2.46889 0.403528 2.44045 0.269661C2.4342 0.241196 2.47257 0.136042 2.40617 0.210146C2.40173 0.214737 2.3509 0.285102 2.34206 0.231628C2.34094 0.22488 2.34774 0.193246 2.34505 0.189899C2.32679 0.168092 2.30701 0.190374 2.28568 0.173638C2.26432 0.156905 2.23894 0.133495 2.20989 0.139571C2.19235 0.143159 2.16172 0.199155 2.15163 0.212459C2.12349 0.250905 2.11107 0.17841 2.08999 0.227276C2.06895 0.276423 2.08275 0.357963 2.04355 0.385885C2.05465 0.302551 2.06435 0.216764 2.07455 0.132816C1.99592 0.124236 1.91648 0.141607 1.8399 0.129229C1.83036 0.127609 1.84525 0.0838029 1.83508 0.0809065C1.79255 0.0689511 1.75119 0.0970295 1.70793 0.0798818C1.67438 0.0664332 1.64089 0.0152535 1.6056 1.73427e-05C1.57513 0.0938566 1.52449 0.0567321 1.48519 0.062393C1.47138 0.0643245 1.47023 0.0900073 1.45989 0.0975903C1.4214 0.125639 1.44493 0.0422369 1.43603 0.028119C1.39752 -0.03212 1.37924 0.159437 1.32984 0.151037C1.32829 0.150813 1.31899 0.114331 1.31066 0.0830606C1.29439 0.0832307 1.24828 0.0839045 1.23273 0.0886834C1.21645 0.070445 1.20065 0.0550779 1.19689 0.0533515C1.13888 0.0262096 1.19829 0.0897623 1.17364 0.105013C1.13029 0.133531 1.11271 0.167205 1.05436 0.161701C1.03814 0.159526 0.975417 0.119857 0.975132 0.177085C0.975127 0.184545 0.993745 0.212946 0.992226 0.216108C0.965828 0.26995 0.90961 0.180131 0.863452 0.167044C0.817468 0.153986 0.821994 0.241415 0.828008 0.26349C0.841881 0.321494 0.856324 0.271645 0.860552 0.27537C0.909765 0.318849 0.877883 0.32804 0.862927 0.346357C0.923507 0.4314 0.895886 0.44509 0.847116 0.365171C0.841902 0.35632 0.862165 0.352901 0.862927 0.346357C0.78489 0.276932 0.74398 0.292488 0.776467 0.390857C0.792093 0.436795 0.838599 0.465044 0.786713 0.486023C0.762988 0.496112 0.721066 0.436906 0.691389 0.437951C0.622721 0.441304 0.624092 0.536456 0.582811 0.567177C0.567385 0.578789 0.550143 0.538878 0.538531 0.54602C0.507577 0.565079 0.5106 0.607398 0.477162 0.624852C0.474061 0.62645 0.446811 0.594552 0.439515 0.602833C0.383866 0.665155 0.363257 0.739072 0.317792 0.810744C0.295679 0.845223 0.238135 0.896948 0.221418 0.936875C0.191437 1.00603 0.205859 1.11263 0.167947 1.16272C0.148401 1.1888 0.123014 1.17943 0.0969969 1.17679C0.0899041 1.17639 0.082739 1.17658 0.0755782 1.17832C0.00904666 1.19464 0.075975 1.30127 0.0886298 1.31402C0.0889054 1.31416 0.111218 1.27621 0.124441 1.30428C0.162582 1.32983 0.0890263 1.3134 0.0886298 1.31402C0.0952051 1.32237 0.0828944 1.41319 0.0735876 1.43342C0.0678264 1.44353 0.0299644 1.4323 0.0276912 1.43799C-0.034691 1.57137 0.0134553 1.81237 0.120954 1.91594C0.123066 1.91756 0.156593 1.88934 0.160968 1.89323C0.176449 1.9066 0.186987 1.9196 0.19464 1.93336C0.203979 1.95798 0.187877 1.99636 0.183347 2.03044C0.177315 2.07587 0.201013 2.09161 0.275273 2.06747C0.282783 2.09526 0.33263 2.11076 0.362633 2.12016C0.392474 2.12928 0.322821 2.17824 0.322522 2.18087C0.31254 2.26512 0.374318 2.27223 0.418917 2.32889C0.440108 2.35557 0.466285 2.42009 0.478937 2.45699C0.488902 2.4864 0.515367 2.49064 0.51984 2.52085C0.520464 2.52493 0.486682 2.54243 0.486087 2.54418C0.465271 2.59513 0.53451 2.53189 0.551848 2.52821C0.614823 2.51459 0.649298 2.5088 0.647721 2.55726C0.647409 2.56843 0.551941 2.66519 0.55531 2.68393C0.559809 2.70802 0.594313 2.6739 0.597979 2.6996C0.598339 2.70178 0.573827 2.71817 0.583176 2.72936C0.626076 2.78126 0.682728 2.83068 0.722391 2.88843C0.727886 2.89623 0.683137 2.91448 0.69054 2.9263C0.715427 2.96584 0.745274 3.00489 0.781332 3.0375C0.79236 3.04609 0.804744 3.05441 0.818551 3.062C0.830278 3.06835 0.851844 3.04261 0.861211 3.03889C0.918608 3.01735 0.863441 3.0867 0.864415 3.09084C0.885573 3.19039 0.993077 3.21285 1.02112 3.32273C1.02264 3.32897 0.969985 3.41584 1.04713 3.3904C1.05218 3.38858 1.13099 3.36236 1.09445 3.40695C1.09217 3.40974 1.05072 3.4219 1.06607 3.43775C1.08135 3.45352 1.0779 3.49887 1.13286 3.49991C1.15007 3.50007 1.2294 3.47497 1.19199 3.53442C1.18913 3.53821 1.09391 3.65635 1.18563 3.61431C1.20078 3.60746 1.28711 3.54683 1.26127 3.60569C1.25624 3.61706 1.22989 3.61994 1.22745 3.6428C1.22379 3.67819 1.26719 3.69224 1.24684 3.74602C1.24317 3.75545 1.19799 3.81642 1.25442 3.80271C1.26325 3.80054 1.28892 3.7757 1.29823 3.78234C1.34186 3.81268 1.35279 3.86981 1.40232 3.89773C1.41964 3.90742 1.46084 3.86708 1.48405 3.87344C1.50726 3.87982 1.54121 3.90205 1.53187 3.93352C1.5225 3.96497 1.43631 4.00066 1.44774 4.02877C1.49884 4.15266 1.61996 4.2239 1.70722 4.32037C1.72033 4.33484 1.68503 4.34277 1.70245 4.36536C1.76511 4.44765 1.86244 4.60892 1.9741 4.6298C2.06378 4.64719 2.03421 4.5511 2.08782 4.57722C2.11346 4.58971 2.05519 4.68236 2.05721 4.68949C2.07447 4.75831 2.13884 4.75873 2.16821 4.81036C2.17429 4.82104 2.13536 4.84218 2.14077 4.85083C2.15879 4.88042 2.19749 4.89293 2.21803 4.91885C2.2272 4.93056 2.20202 4.95152 2.21344 4.95951C2.24063 4.979 2.27076 4.98971 2.31435 4.98979C2.31831 4.98979 2.33332 4.9475 2.35114 4.963C2.38 4.98824 2.43517 4.99981 2.44612 5.05339C2.44903 5.06913 2.39792 5.12355 2.45376 5.10545C2.46547 5.10169 2.5214 5.03131 2.49211 5.11006C2.48709 5.12304 2.45681 5.23764 2.52294 5.20689C2.54023 5.19872 2.60371 5.15742 2.60725 5.1762C2.60757 5.17898 2.57434 5.20296 2.58127 5.21453C2.60619 5.25483 2.64509 5.28383 2.67289 5.32492C2.68029 5.33597 2.63852 5.35452 2.6505 5.37005C2.68357 5.41295 2.73873 5.4463 2.78666 5.46959C2.80429 5.47805 2.81635 5.4433 2.81981 5.44133C2.87574 5.40886 2.83316 5.48022 2.83584 5.48867C2.85265 5.53989 2.90304 5.53128 2.92912 5.5655C2.93638 5.57485 2.90543 5.60017 2.90503 5.60433C2.90228 5.64592 2.93249 5.57998 2.94912 5.58341C2.99583 5.5928 3.03128 5.62485 3.06103 5.65437C3.07209 5.66538 3.03044 5.69048 3.04074 5.69999C3.10118 5.75691 3.17469 5.80696 3.25374 5.834C3.26884 5.83915 3.28181 5.8053 3.28908 5.80074C3.33957 5.76853 3.32057 5.8489 3.32242 5.85919C3.3303 5.90579 3.3597 5.88882 3.38008 5.91044C3.48009 6.0172 3.63972 6.10049 3.76217 6.16436C3.91836 6.24572 4.05264 6.28909 4.19341 6.38192C4.20248 6.38782 4.16955 6.42241 4.17709 6.42803C4.25815 6.48634 4.34755 6.52443 4.43404 6.57671C4.45061 6.58675 4.46682 6.59725 4.48255 6.60846C4.49039 6.61395 4.45709 6.64592 4.46897 6.65603C4.49303 6.67695 4.52892 6.69394 4.56378 6.69699C4.58063 6.69849 4.58059 6.65534 4.59716 6.65752C4.63562 6.66242 4.67103 6.67818 4.70062 6.70233C4.71306 6.71263 4.67051 6.7408 4.68836 6.7511C4.80957 6.82211 4.92782 6.89445 5.08093 6.90932C5.09143 6.91033 5.14176 6.8333 5.15165 6.85837C5.14116 6.88158 5.12715 6.90801 5.11508 6.93237C5.2904 7.04121 5.48507 7.10558 5.67361 7.19303C5.68143 7.19666 5.64661 7.23363 5.66166 7.24089C5.75028 7.28367 5.83086 7.33743 5.94351 7.33679C5.95473 7.33681 5.98625 7.2573 6.00751 7.28141C6.011 7.28565 6.04692 7.31474 6.04972 7.33637C6.04998 7.33956 6.02602 7.37245 6.0386 7.37946C6.11265 7.41987 6.19736 7.44735 6.28606 7.45817C6.30041 7.45984 6.30323 7.41499 6.31352 7.41581C6.38597 7.42172 6.44443 7.47985 6.52231 7.46764C6.57408 7.45906 6.58338 7.38426 6.62991 7.32423C6.63633 7.31573 6.6626 7.32321 6.67763 7.2839C6.71523 7.18509 6.7414 7.0717 6.78301 6.96689C6.79215 6.94442 6.81285 6.97905 6.8145 6.91769C6.81477 6.91366 6.79918 6.88769 6.80092 6.86719C6.80194 6.85296 6.82253 6.81491 6.82123 6.79577C6.82012 6.77672 6.79932 6.80733 6.79466 6.78361C6.78987 6.75953 6.81166 6.7158 6.78998 6.70152ZM0.497453 2.16443C0.544242 2.16208 0.419495 2.24463 0.436564 2.20461C0.437542 2.20258 0.49513 2.1645 0.497453 2.16443ZM1.90331 0.254005C1.86496 0.31576 1.85515 0.217013 1.88299 0.168988C1.91099 0.121065 1.9152 0.235328 1.90331 0.254005ZM2.2141 0.349484C2.16944 0.394214 2.20027 0.184321 2.23217 0.233655C2.23406 0.236466 2.21675 0.346904 2.2141 0.349484ZM6.5365 7.26753C6.53741 7.26576 6.55613 7.27088 6.55592 7.2729C6.54868 7.321 6.51088 7.3106 6.5365 7.26753ZM2.51335 0.473721C2.49439 0.49793 2.47246 0.457289 2.49568 0.426804C2.51463 0.402288 2.53737 0.443656 2.51335 0.473721ZM1.31871 3.07135C1.32077 3.07042 1.32981 3.08052 1.31914 3.08723C1.28472 3.10872 1.28409 3.08693 1.31871 3.07135ZM3.00199 0.666752C2.92929 0.656698 2.8273 0.807762 2.92113 0.814569C2.93759 0.815422 2.90248 0.751367 2.92654 0.741708C2.96874 0.72364 2.96663 0.836453 3.01736 0.787415C3.02574 0.778315 3.00558 0.666925 3.00192 0.666483C3.00194 0.666573 3.00196 0.666662 3.00199 0.666752ZM0.656482 2.07986C0.658406 2.0792 0.669922 2.09398 0.668471 2.09536C0.633638 2.12914 0.610504 2.09953 0.656482 2.07986ZM1.83002 3.66848C1.83398 3.66683 1.8624 3.69958 1.86014 3.70304C1.81053 3.76702 1.75235 3.70021 1.83002 3.66848ZM0.664558 1.03185C0.715106 1.04157 0.731778 1.02679 0.690985 0.980275C0.682864 0.997715 0.672484 1.01414 0.664558 1.03185Z" fill="#963076"/>
</svg>
