<svg width="5" height="13" viewBox="0 0 5 13" fill="none" xmlns="http://www.w3.org/2000/svg">
<path d="M4.60319 12.63C4.63582 12.5512 4.64631 12.4409 4.64451 12.3559C4.64401 12.3293 4.61538 12.3368 4.61383 12.3182C4.61083 12.2817 4.62989 12.2528 4.62447 12.2166C4.62254 12.2045 4.57861 12.2104 4.57752 12.1981C4.57173 12.1306 4.59342 12.0721 4.59598 12.0059C4.60843 11.6795 4.63354 11.3664 4.64652 11.0431C4.65087 10.9363 4.62419 10.8047 4.64913 10.6969C4.65209 10.6843 4.68825 10.6947 4.69146 10.6925C4.74072 10.6578 4.66558 10.6649 4.65756 10.6392C4.62588 10.5381 4.62948 10.4283 4.64889 10.3345C4.65724 10.2945 4.72813 10.339 4.6893 10.296C4.68668 10.293 4.64706 10.3012 4.64348 10.2899C4.63546 10.2641 4.6448 10.2173 4.64261 10.1976C4.63822 10.1598 4.6389 10.1535 4.63999 10.1183C4.64114 10.0699 4.62397 10.0114 4.63462 9.96003C4.63701 9.94901 4.6766 9.96509 4.68402 9.9476C4.69146 9.93007 4.68955 9.88298 4.68055 9.86699C4.67156 9.85092 4.63984 9.85673 4.6327 9.85373C4.57241 9.82914 4.65828 9.77719 4.66053 9.77026C4.69922 9.64408 4.65273 9.53399 4.65371 9.41501C4.65454 9.32466 4.6704 9.22798 4.66765 9.14168C4.66759 9.13989 4.66753 9.13811 4.66746 9.13633C4.66343 9.03605 4.64173 8.95165 4.64407 8.85403C4.64427 8.84351 4.6916 8.85517 4.69194 8.84232C4.69551 8.70623 4.68754 8.57073 4.65127 8.43546C4.64759 8.42198 4.60678 8.44083 4.60063 8.42748C4.56397 8.34476 4.4766 8.2184 4.65399 8.15947C4.64408 8.10304 4.63277 8.03441 4.59316 7.98615C4.56766 7.95509 4.52478 7.9898 4.54127 7.9485C4.54492 7.93918 4.58515 7.9482 4.58764 7.93438C4.59807 7.87617 4.5804 7.81476 4.59583 7.7564C4.59906 7.74451 4.63459 7.74457 4.64066 7.74074C4.68969 7.70854 4.6004 7.67036 4.59326 7.66112C4.53991 7.58984 4.55211 7.53292 4.54279 7.46271C4.54058 7.44639 4.59009 7.46018 4.58965 7.44422C4.58671 7.36143 4.57142 7.27704 4.53888 7.20021C4.53152 7.1831 4.49384 7.20533 4.48827 7.19748C4.46419 7.163 4.53862 7.14356 4.51671 7.11016C4.51219 7.10313 4.47859 7.11275 4.47462 7.11196C4.41221 7.09985 4.49285 7.06784 4.49379 7.06196C4.50769 6.98821 4.41276 6.95803 4.41307 6.88942C4.41316 6.8811 4.45964 6.8914 4.45725 6.86843C4.44164 6.71564 4.39659 6.559 4.32842 6.42014C4.31787 6.39855 4.28954 6.42228 4.28525 6.42176C4.21802 6.41287 4.29726 6.37835 4.2986 6.37008C4.30718 6.30612 4.22456 6.26894 4.31281 6.20439C4.21695 5.96664 4.20148 5.70496 4.04075 5.49168C4.03881 5.48894 4.00046 5.50673 3.99676 5.50124C3.95169 5.43522 4.01794 5.42916 4.07875 5.35706C4.09401 5.33892 3.99062 5.33098 3.98286 5.32987C3.95431 5.32582 3.89888 5.35712 3.89281 5.35466C3.84466 5.33372 4.04273 5.27633 4.02816 5.23093C4.02737 5.22961 3.99319 5.24723 3.98838 5.24459C3.98609 5.24335 3.98439 5.24192 3.9831 5.24037C3.97572 5.23118 3.98099 5.21791 3.96704 5.21129C3.9289 5.19324 3.83195 5.21891 3.87162 5.15878C3.87666 5.15097 3.98933 5.1174 3.96748 5.07725C3.95912 5.06158 3.92924 4.98716 3.91268 4.97051C3.89644 4.9537 3.86882 4.98354 3.86665 4.98277C3.7965 4.95161 3.78742 4.98068 3.70914 4.98903C3.63146 4.99862 3.79037 4.92453 3.80214 4.90486C3.81385 4.88502 3.75712 4.86722 3.73967 4.8657C3.72219 4.86392 3.7077 4.8868 3.69623 4.88305C3.62099 4.85898 3.75795 4.8163 3.77139 4.78448C3.8019 4.70778 3.67133 4.74549 3.63718 4.7183C3.62776 4.71071 3.65751 4.70168 3.65382 4.69152C3.63849 4.65124 3.59156 4.65567 3.59249 4.59582C3.59292 4.58636 3.63008 4.5071 3.56955 4.52379C3.56093 4.52632 3.54212 4.55444 3.52538 4.54549C3.50047 4.53226 3.46496 4.50166 3.45435 4.47354C3.44669 4.45293 3.50224 4.43496 3.47243 4.42658C3.45917 4.42295 3.45033 4.45971 3.42747 4.45132C3.40478 4.44297 3.36833 4.40214 3.35469 4.38664C3.34106 4.37098 3.37796 4.3509 3.37877 4.34781C3.38294 4.32959 3.36793 4.28667 3.36549 4.28437C3.24049 4.15288 3.07114 4.09573 2.95503 3.96854C2.94591 3.95865 2.98015 3.93165 2.97904 3.9298C2.9552 3.88653 2.91024 3.99688 2.86131 4.00554C2.92031 3.94195 2.8957 3.94182 2.87646 3.91359C2.86754 3.90019 2.89536 3.87967 2.89647 3.87613C2.91117 3.8222 2.85681 3.86272 2.84509 3.87051C2.80184 3.89907 2.82592 3.84317 2.79679 3.86211C2.76785 3.88089 2.75579 3.93392 2.7319 3.91361C2.74486 3.88416 2.81373 3.83576 2.80398 3.81086C2.76655 3.71613 2.59716 3.66148 2.53758 3.62204C2.47771 3.58234 2.46421 3.56412 2.42443 3.54645C2.35338 3.51515 2.41286 3.48589 2.39407 3.4353C2.37512 3.38455 2.29958 3.51373 2.27434 3.53421C2.24916 3.55472 2.26412 3.52472 2.24665 3.53305C2.22922 3.5414 2.22947 3.56946 2.21028 3.56233C2.19153 3.55556 2.18663 3.47864 2.20233 3.44852C2.23567 3.38479 2.30089 3.34262 2.24489 3.3304C2.24164 3.32972 2.22442 3.3659 2.21318 3.36178C2.12628 3.32937 2.05374 3.27184 1.96874 3.23523C1.95692 3.23017 1.93759 3.27042 1.93038 3.26783C1.85554 3.24117 1.92323 3.20271 1.94467 3.11476C1.88195 3.20296 1.82252 3.23925 1.77865 3.20279C1.75207 3.18071 1.78758 3.14906 1.79265 3.10972C1.79425 3.09793 1.7552 3.10707 1.76635 3.08743C1.80272 3.02319 1.87263 2.97642 1.80784 2.96322C1.80491 2.96272 1.78515 2.99803 1.77692 2.9941C1.7231 2.96835 1.76861 2.90755 1.72887 2.86065C1.69744 2.82364 1.60372 2.80249 1.55809 2.77173C1.47827 2.86306 1.45765 2.80732 1.49814 2.73121C1.47005 2.71052 1.44515 2.68155 1.41201 2.66696C1.40063 2.6619 1.38269 2.69307 1.37903 2.69487C1.32193 2.72333 1.36531 2.65272 1.36179 2.64516C1.35983 2.64135 1.35776 2.63772 1.35557 2.63424C1.31342 2.56855 1.23076 2.56137 1.22426 2.46899C1.22398 2.46543 1.28397 2.4063 1.22491 2.43232C1.22079 2.43405 1.20865 2.47833 1.18285 2.4534C1.15739 2.42899 1.07844 2.40365 1.07959 2.33948C1.07967 2.32392 1.1175 2.25982 1.06005 2.27084C1.05224 2.27233 1.0345 2.28913 1.02074 2.2929C0.976551 2.30439 1.04214 2.2495 0.972033 2.27489C0.90193 2.30025 0.833638 2.29542 0.848144 2.22362C0.84846 2.22135 0.899551 2.1756 0.890249 2.16214C0.875438 2.14092 0.844513 2.11555 0.831616 2.0915C0.825421 2.07992 0.866136 2.06688 0.865697 2.06452C0.844308 1.97727 0.783267 1.93993 0.727992 1.86156C0.717642 1.84695 0.74889 1.77852 0.694262 1.76683C0.634275 1.7534 0.461033 1.8713 0.471367 1.77161C0.475114 1.73044 0.699771 1.59139 0.551757 1.58552C0.538608 1.46229 0.435569 1.3831 0.440907 1.2539C0.441117 1.2481 0.504282 1.20804 0.499206 1.19642C0.491644 1.17953 0.456128 1.18094 0.449673 1.16903C0.42175 1.11913 0.433157 1.06136 0.412131 1.01182C0.404838 0.994414 0.377988 1.00791 0.366232 0.992659C0.36509 0.990902 0.364187 0.989258 0.363443 0.98734C0.354565 0.964338 0.394421 0.935697 0.363698 0.910257C0.340367 0.891113 0.242351 0.893119 0.222574 0.863621C0.312217 0.837106 0.304111 0.815604 0.31717 0.769947C0.319739 0.761209 0.353308 0.760626 0.356144 0.756057C0.368372 0.737223 0.338754 0.73102 0.352681 0.712537C0.356016 0.70806 0.386799 0.699622 0.391273 0.695516C0.430514 0.66047 0.351113 0.640824 0.337302 0.637361C0.284795 0.624158 0.321952 0.601957 0.298892 0.587271C0.275849 0.572582 0.260586 0.607284 0.243823 0.587455C0.209092 0.546211 0.199074 0.484373 0.185998 0.436906C0.180966 0.417904 0.225538 0.420848 0.225778 0.417893C0.226684 0.375958 0.173024 0.346713 0.250272 0.304988C0.0303416 0.328974 0.26525 0.276248 0.208986 0.230141C0.204468 0.22655 0.102204 0.245117 0.0915025 0.265774C0.0808023 0.286375 0.118536 0.304582 0.101154 0.333853C0.0970718 0.34072 0.0102946 0.395694 0.00562951 0.401459C-0.030784 0.446779 0.121122 0.415131 0.129835 0.414935C0.224135 0.413813 0.131954 0.477875 0.1275 0.490037C0.106973 0.545454 0.138253 0.580594 0.125466 0.62623C0.117296 0.656038 0.0196088 0.683976 0.0279895 0.703911C0.0559633 0.770359 0.199015 0.756707 0.0982535 0.853628C0.0768357 0.874396 -0.0340079 0.890486 0.0640547 0.916766C0.0702522 0.918511 0.157471 0.933329 0.11506 0.968432C0.10971 0.97286 0.0786054 0.981771 0.0770172 0.986056C0.0670454 1.01478 0.096382 1.02322 0.0921427 1.05233C0.0910918 1.05961 0.0897929 1.06737 0.0887485 1.07533C0.0882965 1.10613 0.087826 1.13135 0.102774 1.15031C0.114671 1.16539 0.179463 1.1691 0.196198 1.17257C0.244327 1.1824 0.186724 1.22958 0.240477 1.22767C0.294413 1.22548 0.359109 1.17187 0.403672 1.19876C0.324655 1.22748 0.244181 1.25879 0.165044 1.28862C0.197014 1.37229 0.252265 1.44604 0.280554 1.53172C0.284017 1.54245 0.237662 1.54761 0.240307 1.55956C0.251618 1.6097 0.297771 1.63958 0.305692 1.69377C0.311541 1.73547 0.284722 1.79596 0.290885 1.84116C0.38981 1.82811 0.385381 1.89977 0.413181 1.93926C0.422847 1.95308 0.445726 1.94132 0.458223 1.94837C0.504793 1.97491 0.41927 1.99257 0.412365 2.00934C0.383714 2.08191 0.558868 2.00239 0.581531 2.05807C0.582695 2.06089 0.509765 2.14337 0.506837 2.15144C0.486469 2.20223 0.541128 2.14002 0.558184 2.15606C0.589444 2.18523 0.624076 2.19755 0.621457 2.25346C0.620593 2.26988 0.582489 2.33146 0.639228 2.32965C0.646632 2.32938 0.674592 2.31011 0.677774 2.31152C0.732744 2.33797 0.6434 2.39555 0.629712 2.44109C0.61623 2.4869 0.704396 2.48592 0.727146 2.48143C0.78644 2.47079 0.735572 2.45241 0.73938 2.4483C0.783683 2.39953 0.793135 2.43332 0.812284 2.45106C0.899842 2.39412 0.914477 2.4253 0.831738 2.46948C0.822615 2.47422 0.819099 2.4525 0.812284 2.45106C0.74101 2.5279 0.755803 2.57103 0.858681 2.54773C0.906847 2.5365 0.93586 2.48935 0.958698 2.54848C0.969387 2.57523 0.906963 2.61255 0.908256 2.64466C0.911802 2.71859 1.01339 2.73029 1.04788 2.77922C1.06068 2.79731 1.01783 2.8103 1.02582 2.82376C1.04745 2.85989 1.09361 2.86248 1.11391 2.9005C1.11561 2.90373 1.08709 2.92498 1.08957 2.93533C1.08381 2.93092 1.08419 2.9317 1.08485 2.93237C1.14549 2.99455 1.21531 3.02222 1.283 3.08177C1.31522 3.11017 1.35615 3.17678 1.39318 3.20314C1.45569 3.24783 1.56632 3.26429 1.60592 3.31729C1.63179 3.35166 1.59794 3.37693 1.59385 3.41034C1.58597 3.47515 1.6965 3.44087 1.71244 3.43453C1.71297 3.43434 1.69146 3.40348 1.71992 3.39981C1.75694 3.37337 1.71224 3.43412 1.71244 3.43453C1.7226 3.43038 1.78486 3.47042 1.79102 3.48578C1.79433 3.49415 1.76591 3.5213 1.76811 3.52509C1.82014 3.61402 1.88954 3.68404 1.97827 3.73283C1.98012 3.73332 2.00569 3.69782 2.00969 3.69938C2.06594 3.72018 2.06066 3.78469 2.07746 3.83909C2.09391 3.89319 2.12942 3.90817 2.19834 3.86742C2.22027 3.89721 2.27938 3.90223 2.31532 3.90533C2.35073 3.908 2.30051 3.97672 2.30146 3.97964C2.32887 4.07076 2.39608 4.06235 2.46432 4.10786C2.49716 4.12962 2.54874 4.18754 2.57502 4.22124C2.59536 4.24769 2.62349 4.2451 2.63865 4.27429C2.6407 4.27821 2.6133 4.30466 2.61333 4.30658C2.61001 4.36278 2.65696 4.28144 2.67288 4.2732C2.73054 4.24309 2.76333 4.22877 2.77807 4.27839C2.78157 4.28986 2.7166 4.40962 2.72459 4.42682C2.73569 4.44948 2.76038 4.40767 2.77102 4.43227C2.77195 4.43433 2.7523 4.45628 2.76421 4.46498C2.81892 4.50538 2.88555 4.54253 2.93315 4.59198C2.93967 4.5986 2.89886 4.62425 2.90762 4.63427C2.94961 4.6821 2.99747 4.72793 3.0534 4.75611C3.06731 4.76301 3.08519 4.73414 3.09448 4.72988C3.15133 4.70475 3.10633 4.78261 3.10785 4.78682C3.14621 4.89261 3.25578 4.90742 3.28258 5.01488C3.28435 5.02136 3.22849 5.10426 3.30508 5.07971C3.31008 5.07788 3.38935 5.05403 3.34991 5.09598C3.34738 5.09851 3.30579 5.10888 3.31924 5.12426C3.33289 5.14008 3.32301 5.18035 3.37594 5.18515C3.39251 5.1864 3.4747 5.17213 3.42766 5.22341C3.42481 5.22773 3.30769 5.32069 3.40492 5.29559C3.42092 5.29154 3.51807 5.24975 3.47974 5.30044C3.47218 5.31003 3.44623 5.30797 3.43825 5.32835C3.42625 5.35767 3.45978 5.3784 3.43236 5.4185C3.43112 5.42073 3.42973 5.42301 3.42819 5.42532C3.42229 5.43411 3.36257 5.48219 3.42097 5.48642C3.43012 5.48709 3.46168 5.47015 3.46895 5.47998C3.50364 5.52642 3.49838 5.58822 3.53815 5.63439C3.55213 5.65066 3.60358 5.62428 3.62419 5.63941C3.64473 5.6543 3.67099 5.69019 3.65236 5.71856C3.63368 5.7468 3.54002 5.7504 3.5423 5.78328C3.55199 5.92558 3.64081 6.04308 3.68424 6.17549C3.69065 6.19501 3.65493 6.187 3.66202 6.21618C3.68867 6.32504 3.70436 6.51722 3.79234 6.59538C3.86329 6.65928 3.88291 6.55424 3.91789 6.60774C3.93466 6.63377 3.83807 6.68625 3.83623 6.69352C3.81734 6.76642 3.87224 6.80169 3.86994 6.86433C3.86941 6.87713 3.82511 6.87335 3.82511 6.88411C3.8247 6.92082 3.85039 6.95418 3.85316 6.98889C3.85429 7.00438 3.82164 7.00739 3.82662 7.02083C3.8381 7.0529 3.85676 7.08022 3.89243 7.10782C3.89568 7.11036 3.93236 7.08346 3.93803 7.10813C3.947 7.1477 3.98494 7.19385 3.96106 7.24485C3.95385 7.26002 3.88012 7.27141 3.93544 7.29359C3.94698 7.29823 4.0346 7.27761 3.96286 7.32318C3.95101 7.33101 3.85546 7.40252 3.92585 7.4221C3.94439 7.42726 4.01961 7.43719 4.01027 7.45534C4.00872 7.45782 3.96782 7.4538 3.96565 7.46801C3.95872 7.51825 3.96884 7.56842 3.96172 7.61985C3.95973 7.63353 3.91637 7.61813 3.91471 7.63832C3.91005 7.69369 3.92706 7.76059 3.94459 7.81298C3.95114 7.83229 3.98421 7.81573 3.98805 7.81683C4.05065 7.83492 3.96995 7.85555 3.9658 7.86357C3.94109 7.91363 3.98224 7.94703 3.97512 7.99211C3.97325 8.00452 3.9336 7.99851 3.93028 8.00118C3.89795 8.02858 3.96683 8.00515 3.97563 8.02058C4.00048 8.06378 4.00034 8.11432 3.99778 8.15994C3.99678 8.17675 3.95045 8.16041 3.95007 8.17543C3.94695 8.26442 3.95512 8.35609 3.98306 8.44285C3.9884 8.45904 4.02299 8.4476 4.03108 8.45075C4.08769 8.47252 4.01259 8.50975 4.00556 8.51794C3.97349 8.55546 4.00475 8.56841 3.99978 8.60073C3.97504 8.75828 3.9979 8.95327 4.01161 9.10356C4.01274 9.11607 4.01393 9.12845 4.01517 9.14072C4.0333 9.31679 4.06114 9.45999 4.05 9.63271C4.04928 9.64439 4.00301 9.63172 4.00179 9.64181C3.98814 9.77182 4.00258 9.90052 3.98397 10.0301C3.98252 10.0408 3.9391 10.0236 3.93529 10.0406C3.92717 10.0755 3.92764 10.1197 3.94 10.156C3.94596 10.1736 3.98484 10.1522 3.99006 10.1699C4.00228 10.2112 4.00318 10.2549 3.99381 10.2963C3.98972 10.3139 3.9462 10.2847 3.9444 10.3076C3.93111 10.4642 3.91268 10.6165 3.95732 10.7793C3.96039 10.7905 4.05087 10.8077 4.0313 10.8295C4.00581 10.829 3.97603 10.8263 3.94889 10.8246C3.91407 11.0506 3.92065 11.2775 3.89374 11.5043C3.8926 11.5138 3.84683 11.4906 3.84438 11.509C3.83 11.6154 3.8009 11.7151 3.83003 11.8309C3.83284 11.8423 3.91797 11.8514 3.89969 11.8811C3.8964 11.8863 3.87672 11.9319 3.85622 11.9408C3.85316 11.9419 3.81553 11.9261 3.81159 11.9412C3.78946 12.0286 3.78015 12.1226 3.78524 12.215C3.78611 12.2301 3.83087 12.2238 3.83183 12.2347C3.83837 12.3114 3.78912 12.3816 3.80986 12.4587C3.82389 12.5101 3.89916 12.5113 3.96301 12.5536C3.97202 12.5597 3.96623 12.5888 4.00652 12.6008C4.10782 12.6312 4.22356 12.6457 4.33113 12.6797C4.35431 12.6871 4.3185 12.7209 4.38147 12.7118C4.38571 12.7111 4.41217 12.6864 4.43332 12.684C4.44795 12.6822 4.48701 12.7021 4.50674 12.6959C4.52647 12.6896 4.49467 12.6692 4.51909 12.6567C4.5437 12.6444 4.58905 12.6638 4.60319 12.63ZM2.4735 3.91724C2.52011 3.90237 2.42929 4.02125 2.42912 3.97515C2.42922 3.97278 2.47116 3.91793 2.4735 3.91724ZM0.358495 1.4067C0.432774 1.41785 0.350319 1.47427 0.293731 1.46817C0.237084 1.46165 0.33595 1.4032 0.358495 1.4067ZM0.283881 1.04205C0.346198 1.06516 0.146908 1.13795 0.173631 1.08194C0.175118 1.07869 0.280253 1.04067 0.283881 1.04205ZM4.01118 12.4434C4.01303 12.4442 4.00992 12.4657 4.00788 12.4657C3.95905 12.4657 3.96524 12.4232 4.01118 12.4434ZM0.234106 0.674083C0.265118 0.679335 0.242614 0.723595 0.204026 0.717268C0.17294 0.712087 0.195497 0.667518 0.234106 0.674083ZM3.57643 4.75878C3.57851 4.75785 3.5889 4.7695 3.57829 4.77632C3.54414 4.79821 3.54169 4.77441 3.57643 4.75878ZM0.0894618 0.0753126C0.118713 0.16136 0.301952 0.174182 0.259341 0.0822411C0.251626 0.0656376 0.214211 0.133105 0.193464 0.114598C0.155662 0.0808736 0.255878 0.0276386 0.188396 0.000203784C0.176108 -0.00459701 0.0874185 0.0704614 0.0892632 0.0755278C0.0893296 0.0754563 0.0893956 0.075384 0.0894618 0.0753126ZM2.59833 3.78715C2.60001 3.78596 2.61797 3.79804 2.61713 3.79988C2.59639 3.84415 2.56023 3.81986 2.59833 3.78715ZM4.01852 5.5587C4.02294 5.55868 4.04144 5.60618 4.03817 5.60883C3.97147 5.65645 3.93402 5.56102 4.01852 5.5587ZM1.5553 2.77357C1.56965 2.72234 1.55224 2.69915 1.49826 2.73124C1.5177 2.74447 1.53587 2.76015 1.5553 2.77357Z" fill="#963076"/>
</svg>
