<svg width="5" height="6" viewBox="0 0 5 6" fill="none" xmlns="http://www.w3.org/2000/svg">
<path d="M4.12808 5.07116C4.13195 5.03668 4.1077 4.99892 4.08108 4.97074C4.0728 4.96191 4.04834 4.97343 4.04145 4.96753C4.02803 4.95597 4.0375 4.93973 4.02224 4.9285C4.01705 4.92477 3.97756 4.94024 3.97305 4.93608C3.94862 4.91317 3.9531 4.88469 3.93808 4.85837C3.86413 4.72852 3.819 4.58743 3.7679 4.44397C3.7511 4.39655 3.70075 4.34562 3.70562 4.29172C3.70622 4.28539 3.74296 4.28076 3.74567 4.27897C3.78699 4.25097 3.71577 4.27329 3.70356 4.26415C3.69177 4.25528 3.68195 4.24552 3.67387 4.23509C3.64873 4.20227 3.64049 4.16483 3.6426 4.12855C3.64388 4.1081 3.71964 4.10949 3.675 4.10024C3.67197 4.09959 3.63521 4.11388 3.62986 4.1097C3.61783 4.10022 3.61896 4.07629 3.61362 4.06801C3.60315 4.05213 3.60276 4.04907 3.59799 4.03265C3.59112 4.01024 3.56518 3.98866 3.56712 3.96225C3.56764 3.95655 3.6082 3.95277 3.6125 3.94268C3.6168 3.93257 3.60741 3.91159 3.59623 3.90682C3.58506 3.90204 3.5556 3.91374 3.54828 3.91441C3.48661 3.92044 3.56075 3.87248 3.56176 3.86852C3.57887 3.79948 3.51747 3.76278 3.50051 3.70833C3.48761 3.6666 3.48844 3.61771 3.47315 3.5788C3.45489 3.53286 3.42067 3.50026 3.40831 3.45415C3.40696 3.44929 3.45338 3.4391 3.45181 3.4331C3.43486 3.36897 3.4073 3.30921 3.35419 3.25961C3.34882 3.25464 3.31318 3.27735 3.30551 3.2733C3.25942 3.24803 3.16072 3.22078 3.31914 3.1316C3.30258 3.10926 3.2832 3.08106 3.24043 3.0728C3.21289 3.06745 3.17699 3.09862 3.1875 3.07376C3.18979 3.06813 3.22843 3.05812 3.2291 3.05079C3.23188 3.01989 3.20851 2.99764 3.21664 2.96484C3.21836 2.9581 3.25148 2.9455 3.25672 2.94154C3.2989 2.90892 3.21184 2.92269 3.20429 2.9209C3.14759 2.90657 3.15347 2.87491 3.13877 2.84491C3.13534 2.83795 3.18247 2.82683 3.18071 2.81941C3.1708 2.78077 3.15039 2.74603 3.11497 2.72C3.10702 2.71433 3.07362 2.73854 3.06795 2.73672C3.04342 2.72859 3.11099 2.69251 3.08876 2.68412C3.08417 2.68233 3.05368 2.69897 3.04996 2.70001C2.99155 2.71632 3.06423 2.67191 3.06476 2.66869C3.07331 2.62719 2.98453 2.64667 2.98162 2.61211C2.98135 2.60795 3.02461 2.59655 3.02144 2.58599C3.00058 2.51567 2.95509 2.45222 2.89101 2.40498C2.88111 2.39762 2.85552 2.41985 2.85159 2.4211C2.79006 2.44038 2.86213 2.39465 2.86329 2.38995C2.87049 2.35394 2.79493 2.36369 2.87533 2.29916C2.78732 2.2088 2.77803 2.07557 2.63891 2.0173C2.63724 2.01652 2.60243 2.03998 2.59926 2.03835C2.56083 2.01926 2.62032 1.99203 2.67652 1.93061C2.69058 1.91508 2.59851 1.94834 2.59166 1.95063C2.58957 1.95131 2.5873 1.95219 2.5849 1.95323C2.58363 1.95012 2.57703 1.9426 2.57525 1.93975C2.55093 1.95554 2.51401 1.99365 2.50931 1.99525C2.46858 2.00835 2.62709 1.87657 2.61264 1.85957C2.61193 1.85926 2.585 1.88615 2.58092 1.88718C2.56816 1.89049 2.57589 1.87633 2.56231 1.88055C2.53094 1.8904 2.45216 1.95237 2.48335 1.89926C2.48745 1.89243 2.57855 1.81904 2.56136 1.80756C2.55439 1.80299 2.53326 1.7755 2.5209 1.77284C2.50871 1.77035 2.48472 1.80018 2.48302 1.80071C2.42808 1.81344 2.41908 1.83458 2.35487 1.87316C2.29095 1.91165 2.42537 1.79914 2.43658 1.78225C2.44783 1.76547 2.40401 1.77781 2.39015 1.78369C2.37628 1.78955 2.36218 1.80979 2.35332 1.81195C2.29524 1.82591 2.41059 1.74534 2.4254 1.72005C2.46053 1.66028 2.35169 1.73339 2.32904 1.72705C2.3229 1.72532 2.34795 1.70894 2.34684 1.70353C2.34216 1.68234 2.30443 1.70095 2.31763 1.65994C2.3198 1.65327 2.36622 1.58799 2.31605 1.61797C2.30884 1.62232 2.28778 1.64734 2.27702 1.64623C2.26093 1.64463 2.2409 1.63303 2.24026 1.61623C2.23977 1.60377 2.28663 1.57599 2.26627 1.57823C2.2572 1.57927 2.24075 1.60758 2.22566 1.60779C2.21073 1.60817 2.1942 1.58805 2.18848 1.58024C2.18273 1.57235 2.21613 1.54887 2.21761 1.54644C2.22588 1.53235 2.22768 1.5055 2.22643 1.50423C2.17304 1.43915 2.0706 1.43015 2.03006 1.35622C2.02677 1.3504 2.06032 1.32365 2.06014 1.32246C2.05742 1.2941 1.98846 1.38591 1.95069 1.40165C2.01406 1.34255 1.99654 1.34707 1.99255 1.32951C1.99068 1.321 2.01735 1.30027 2.01932 1.29738C2.0478 1.25372 1.99545 1.2944 1.98455 1.30254C1.94429 1.33228 1.98011 1.28534 1.95319 1.30524C1.9265 1.32501 1.90003 1.36741 1.89019 1.35671C1.90918 1.33185 1.97412 1.28216 1.97546 1.26496C1.98009 1.19927 1.87836 1.18924 1.84892 1.17071C1.81959 1.15214 1.81518 1.14031 1.79311 1.1352C1.75274 1.12568 1.80312 1.0903 1.80487 1.05475C1.80628 1.01898 1.71573 1.13653 1.69208 1.15803C1.66855 1.17963 1.68784 1.15298 1.67332 1.16344C1.65884 1.17394 1.6506 1.19556 1.63956 1.19451C1.62864 1.19354 1.64773 1.135 1.66703 1.10773C1.70819 1.05015 1.76543 1.00191 1.72967 1.00528C1.7276 1.00552 1.70559 1.03792 1.69895 1.03737C1.64686 1.03191 1.61188 1.0051 1.56204 0.999061C1.5552 0.998325 1.53217 1.03533 1.52791 1.03531C1.48366 1.03546 1.53868 0.986014 1.57304 0.909976C1.51012 0.997715 1.46153 1.04339 1.44049 1.02817C1.42786 1.01913 1.45838 0.983157 1.47005 0.950415C1.47348 0.940479 1.44509 0.959705 1.45659 0.940673C1.49399 0.878299 1.55079 0.819308 1.5086 0.828574C1.50669 0.829092 1.48668 0.863539 1.48181 0.862982C1.44992 0.859463 1.49142 0.795988 1.4707 0.770594C1.45479 0.75089 1.39292 0.76551 1.36603 0.757736C1.30227 0.86087 1.29651 0.824677 1.33038 0.747562C1.32746 0.746507 1.32464 0.745234 1.32186 0.743857C1.30998 0.738037 1.29756 0.728758 1.2815 0.730282C1.27471 0.730808 1.2598 0.762804 1.25725 0.765699C1.21745 0.811234 1.2527 0.737521 1.25141 0.733028C1.23354 0.686172 1.17477 0.722811 1.17351 0.65177C1.17349 0.649227 1.21506 0.575927 1.1748 0.623497C1.17205 0.626794 1.16297 0.666047 1.14627 0.659478C1.12959 0.65292 1.07786 0.674527 1.07705 0.628491C1.07673 0.617332 1.09922 0.551058 1.0614 0.590669C1.05629 0.596062 1.04535 0.617671 1.03643 0.628C1.00795 0.660862 1.04824 0.585734 1.00344 0.643198C0.958797 0.700758 0.914979 0.737619 0.919681 0.682204C0.919758 0.680557 0.949575 0.619736 0.942357 0.616638C0.930708 0.611685 0.908545 0.614755 0.897653 0.607686C0.892451 0.604281 0.917469 0.570428 0.91694 0.569215C0.89336 0.527612 0.84875 0.54436 0.802103 0.535194C0.793632 0.533658 0.802699 0.472408 0.765998 0.503043C0.72561 0.53645 0.634789 0.72192 0.625737 0.659244C0.622207 0.634228 0.739125 0.399947 0.644719 0.500942C0.613889 0.443239 0.533577 0.475639 0.510103 0.405616C0.50903 0.402494 0.539729 0.335941 0.534126 0.333721C0.525757 0.330558 0.504028 0.357214 0.497469 0.355878C0.469452 0.350961 0.46388 0.313585 0.439609 0.30424C0.43042 0.300621 0.415189 0.332546 0.404296 0.328275C0.393432 0.323982 0.410786 0.280313 0.385786 0.291382C0.366826 0.299876 0.307858 0.374964 0.288698 0.376307C0.336478 0.295977 0.326157 0.292 0.322578 0.261029C0.321906 0.255034 0.342079 0.229212 0.342627 0.224938C0.345232 0.20693 0.325696 0.226631 0.329358 0.207526C0.330219 0.202927 0.346638 0.175556 0.348273 0.170252C0.362777 0.124107 0.309675 0.175924 0.300468 0.184969C0.265395 0.219258 0.281895 0.18073 0.264124 0.191843C0.246362 0.202961 0.246414 0.230282 0.231084 0.234283C0.199439 0.242596 0.176829 0.222938 0.15625 0.212237C0.148118 0.207785 0.175537 0.174567 0.174884 0.173083C0.16406 0.153933 0.124022 0.182709 0.158784 0.104565C0.0340629 0.285601 0.159893 0.0803763 0.11372 0.103824C0.110041 0.105755 0.054085 0.193189 0.0533094 0.210514C0.0525534 0.227833 0.0800755 0.206553 0.0776455 0.232821C0.0770986 0.239 0.040205 0.330307 0.0389791 0.336446C0.0294986 0.38449 0.111613 0.252923 0.11677 0.246087C0.172817 0.172552 0.135001 0.272082 0.135546 0.280864C0.13813 0.321158 0.16603 0.312519 0.17026 0.342719C0.173131 0.362319 0.121717 0.449932 0.131765 0.452362C0.165046 0.460435 0.248197 0.345107 0.211087 0.466206C0.203226 0.492067 0.140266 0.583744 0.205702 0.521262C0.209825 0.517322 0.266154 0.458032 0.248744 0.506523C0.246544 0.512634 0.229803 0.540322 0.229849 0.543523C0.230483 0.564437 0.250262 0.546264 0.25442 0.563188C0.258555 0.580098 0.261738 0.60351 0.27947 0.601387C0.290121 0.600147 0.330537 0.554123 0.341616 0.54357C0.373312 0.513035 0.347946 0.579139 0.380585 0.538701C0.413427 0.498081 0.442039 0.423573 0.475346 0.404616C0.432534 0.476963 0.389347 0.551674 0.34665 0.624647C0.383402 0.64335 0.432109 0.640975 0.465468 0.665418C0.469584 0.668535 0.44176 0.70453 0.445568 0.708867C0.461695 0.726971 0.4956 0.709791 0.509542 0.733172C0.520071 0.751313 0.513086 0.802968 0.523362 0.823233C0.583123 0.74694 0.591037 0.78983 0.613466 0.793078C0.621351 0.794282 0.634181 0.772019 0.642983 0.767537C0.675827 0.751133 0.624066 0.819187 0.621775 0.833423C0.61198 0.894171 0.713251 0.730565 0.733987 0.7486C0.73504 0.749452 0.697435 0.846522 0.69621 0.853239C0.687992 0.896902 0.716825 0.823984 0.729014 0.822477C0.751114 0.819619 0.774551 0.805139 0.776695 0.841489C0.777171 0.852161 0.756809 0.914512 0.792345 0.87819C0.797005 0.873438 0.813752 0.843953 0.815838 0.842891C0.852038 0.826052 0.797758 0.917701 0.790208 0.955257C0.782651 0.9928 0.837474 0.939969 0.851948 0.923944C0.889306 0.882439 0.857042 0.899669 0.859297 0.894747C0.886456 0.836371 0.893367 0.85339 0.905613 0.854441C0.960822 0.765773 0.970745 0.779054 0.918069 0.855877C0.912299 0.864259 0.90998 0.851499 0.905613 0.854441C0.861053 0.947214 0.868994 0.967302 0.934399 0.894891C0.965084 0.860973 0.984628 0.811669 0.99794 0.842001C1.00389 0.855659 0.96285 0.914893 0.961856 0.937167C0.959878 0.988163 1.02176 0.947073 1.03775 0.968993C1.04373 0.97706 1.01573 1.00617 1.01911 1.01283C1.02794 1.03058 1.05561 1.01274 1.06218 1.03432C1.06274 1.03631 1.03841 1.06977 1.04255 1.07287C1.06226 1.08819 1.08688 1.09202 1.11082 1.09758C1.12419 1.10036 1.1365 1.1034 1.14743 1.1099C1.16184 1.11841 1.1746 1.1538 1.19159 1.15983C1.22078 1.17021 1.28714 1.14402 1.30073 1.17233C1.30939 1.19043 1.28144 1.22102 1.27043 1.24789C1.24879 1.29974 1.32825 1.23804 1.34065 1.22861C1.34105 1.22828 1.33487 1.21113 1.35439 1.19953C1.38538 1.16779 1.34065 1.22837 1.34065 1.22861C1.34855 1.22237 1.37857 1.23429 1.37847 1.24439C1.37838 1.24986 1.35235 1.27903 1.35275 1.28129C1.36247 1.33414 1.3872 1.36805 1.43077 1.38193C1.43186 1.38183 1.45978 1.34822 1.46198 1.34841C1.49347 1.35021 1.46992 1.40083 1.46361 1.43787C1.45716 1.47479 1.47624 1.47791 1.53591 1.43096C1.54075 1.44828 1.58001 1.43963 1.60313 1.43382C1.62641 1.42816 1.56918 1.49108 1.56883 1.49306C1.55728 1.55637 1.60564 1.53545 1.63722 1.55586C1.65251 1.56562 1.66842 1.59886 1.67539 1.61911C1.68081 1.63521 1.70117 1.62748 1.70191 1.64642C1.70202 1.64896 1.67367 1.67411 1.67303 1.67554C1.65154 1.71832 1.71245 1.64825 1.72652 1.639C1.77778 1.60546 1.80578 1.5883 1.79955 1.6225C1.79818 1.6304 1.71168 1.73266 1.71187 1.7441C1.71224 1.75877 1.74386 1.72272 1.74337 1.73894C1.74336 1.7403 1.72192 1.76052 1.7277 1.76469C1.75445 1.78453 1.79134 1.79866 1.81258 1.82578C1.81553 1.82938 1.77729 1.85689 1.78098 1.86259C1.79845 1.88949 1.823 1.91359 1.8602 1.92189C1.86947 1.92385 1.8904 1.89823 1.8987 1.89292C1.949 1.86081 1.89552 1.92898 1.89589 1.93182C1.9038 2.00165 1.99019 1.98226 2.00152 2.05062C2.00217 2.0546 1.94936 2.13316 2.01553 2.0895C2.01994 2.08659 2.08747 2.04171 2.05252 2.08519C2.05033 2.0879 2.01476 2.11008 2.02571 2.11618C2.03681 2.12247 2.0281 2.15448 2.07305 2.13691C2.0872 2.13135 2.15573 2.088 2.11762 2.14158C2.11492 2.14528 2.02093 2.25745 2.10187 2.19867C2.11519 2.18899 2.1941 2.11897 2.16516 2.16823C2.15951 2.17774 2.13752 2.18826 2.13243 2.20486C2.12463 2.23052 2.15798 2.22599 2.1336 2.26978C2.12925 2.27749 2.08317 2.33376 2.13124 2.30638C2.13877 2.3021 2.16355 2.27688 2.17012 2.27851C2.17211 2.279 2.17397 2.2796 2.17572 2.2803L2.13387 2.22187C2.15699 2.23525 2.15351 2.26718 2.1851 2.276C2.19708 2.27953 2.24389 2.24679 2.26191 2.24741C2.27993 2.24803 2.30249 2.25769 2.28487 2.27923C2.26731 2.30088 2.18326 2.33675 2.18437 2.35323C2.18907 2.42471 2.26683 2.4546 2.30456 2.50748C2.3102 2.5154 2.27787 2.5239 2.28412 2.53669C2.30681 2.58328 2.32153 2.67629 2.40344 2.68482C2.46918 2.69183 2.48572 2.632 2.51841 2.64641C2.53412 2.65353 2.44675 2.71444 2.44524 2.71879C2.42956 2.76242 2.48088 2.76052 2.4808 2.79258C2.48075 2.79917 2.43988 2.813 2.44025 2.81839C2.44119 2.83699 2.46603 2.84425 2.47004 2.86043C2.47173 2.8677 2.44178 2.88079 2.44698 2.8857C2.45911 2.89773 2.47748 2.90423 2.51184 2.90509C2.51497 2.90518 2.54744 2.87892 2.55394 2.88901C2.56435 2.90535 2.60204 2.91435 2.58318 2.94757C2.57748 2.95753 2.50997 2.98932 2.56264 2.98031C2.57364 2.97844 2.65331 2.93722 2.59006 2.98486C2.57966 2.99301 2.49617 3.06133 2.56295 3.04553C2.58054 3.04138 2.65107 3.0193 2.64388 3.03134C2.64265 3.03308 2.60437 3.04573 2.60352 3.05332C2.60121 3.07991 2.6148 3.09977 2.61294 3.12658C2.61235 3.13375 2.57062 3.14195 2.57095 3.15206C2.57178 3.17987 2.59408 3.20463 2.616 3.22279C2.62415 3.22944 2.65319 3.20998 2.6569 3.20913C2.71711 3.19522 2.64412 3.23337 2.64111 3.23852C2.62345 3.27024 2.66561 3.271 2.66418 3.2941C2.66385 3.30037 2.62616 3.31169 2.62337 3.31407C2.59634 3.33789 2.65794 3.30292 2.66793 3.30679C2.69615 3.31757 2.70212 3.34046 2.70542 3.36195C2.70655 3.3698 2.66122 3.37879 2.66271 3.38561C2.67071 3.42633 2.6903 3.46421 2.72797 3.49251C2.73515 3.49783 2.76608 3.48088 2.7741 3.47949C2.83019 3.46974 2.76472 3.51191 2.75918 3.5178C2.73404 3.54499 2.76522 3.54008 2.76495 3.55587C2.7631 3.63288 2.81167 3.70863 2.84514 3.76859C2.88855 3.84667 2.94094 3.90196 2.95679 3.98513C2.95783 3.99038 2.91174 3.99851 2.91205 4.00318C2.91809 4.06288 2.95137 4.11382 2.95363 4.17422C2.9539 4.17914 2.90952 4.18383 2.9085 4.19207C2.90609 4.20904 2.91349 4.22782 2.93109 4.23973C2.9396 4.24558 2.97362 4.22602 2.98144 4.23214C2.99975 4.2464 3.00765 4.26488 3.00533 4.28499C3.00425 4.29356 2.95758 4.29258 2.95957 4.30282C2.96514 4.33381 2.96975 4.3646 2.97947 4.39444C2.99215 4.43403 3.01291 4.47137 3.05372 4.50523C3.05875 4.50937 3.14921 4.49404 3.13446 4.50866C3.10982 4.51499 3.08061 4.52143 3.05416 4.52768C3.06349 4.63711 3.11705 4.73595 3.14517 4.84424C3.14633 4.84877 3.09717 4.85101 3.09919 4.85983C3.11097 4.91151 3.1087 4.96518 3.16789 5.00937C3.1737 5.01377 3.25647 4.99256 3.24737 5.01113C3.24569 5.01445 3.23995 5.0409 3.2233 5.05127C3.22077 5.05274 3.18088 5.0571 3.18153 5.06522C3.18596 5.11205 3.20628 5.1586 3.24164 5.19935C3.24742 5.20588 3.28658 5.18753 3.29104 5.19206C3.32232 5.22399 3.30215 5.27371 3.34951 5.2996C3.38132 5.31667 3.44936 5.28759 3.52232 5.27991C3.5326 5.27881 3.53833 5.29262 3.57885 5.28143C3.68073 5.25327 3.78982 5.21407 3.89865 5.18489C3.92208 5.17858 3.90207 5.20296 3.95528 5.17622C3.95883 5.1744 3.97391 5.15675 3.99216 5.14826C4.00477 5.14237 4.04686 5.13406 4.06257 5.12503C4.07828 5.11605 4.04254 5.12143 4.06047 5.1089C4.07867 5.09635 4.12628 5.08608 4.12808 5.07116ZM1.70808 1.40978C1.74538 1.38905 1.6425 1.49761 1.65797 1.46278C1.65884 1.46097 1.70623 1.41078 1.70808 1.40978ZM0.490118 0.544229C0.538433 0.496336 0.498044 0.585237 0.461735 0.622831C0.425442 0.660371 0.475445 0.558731 0.490118 0.544229ZM0.367286 0.413937C0.410845 0.379472 0.303958 0.562655 0.308213 0.515159C0.308421 0.512456 0.364756 0.415937 0.367286 0.413937ZM3.52613 5.2175C3.52809 5.21716 3.53276 5.22688 3.53094 5.22765C3.48667 5.2458 3.47728 5.22609 3.52613 5.2175ZM0.247907 0.280711C0.267892 0.259265 0.265764 0.296654 0.240875 0.3233C0.220835 0.344725 0.223027 0.307377 0.247907 0.280711ZM2.27408 1.7751C2.27588 1.77377 2.28228 1.77795 2.27275 1.7862C2.24206 1.81273 2.24384 1.7975 2.27408 1.7751ZM0.000215769 0.128445C0.0410905 0.143781 0.153917 0.0072629 0.103636 1.53929e-05C0.0945411 -0.00129452 0.0904007 0.0572705 0.0730171 0.0652281C0.0412803 0.0796848 0.0868764 -0.0212613 0.0391779 0.0187965C0.0304835 0.0261501 -0.00231624 0.127904 0.000154972 0.128694C0.000175476 0.128611 0.000195503 0.128528 0.000215769 0.128445ZM1.83819 1.28572C1.83975 1.28447 1.84841 1.29027 1.84722 1.29186C1.81808 1.32973 1.80072 1.31818 1.83819 1.28572ZM2.61751 2.06182C2.62153 2.06035 2.63673 2.07876 2.63377 2.08142C2.57265 2.13081 2.54175 2.09373 2.61751 2.06182ZM1.36395 0.760257C1.37932 0.71355 1.36919 0.700805 1.33045 0.747537C1.34203 0.750748 1.35252 0.756599 1.36395 0.760257Z" fill="black"/>
</svg>
