<svg width="6" height="9" viewBox="0 0 6 9" fill="none" xmlns="http://www.w3.org/2000/svg">
<path d="M4.57547 1.60622C4.53287 1.7015 4.50715 1.83684 4.49676 1.94134C4.49337 1.9743 4.52342 1.96583 4.52226 1.98885C4.51998 2.03387 4.49635 2.0692 4.49628 2.11445C4.4964 2.12941 4.54166 2.12367 4.54087 2.13907C4.53639 2.22306 4.50523 2.29521 4.49188 2.37825C4.42687 2.78588 4.34528 3.18249 4.28425 3.59805C4.26405 3.73536 4.27286 3.90765 4.23616 4.04758C4.23184 4.0638 4.19676 4.04878 4.1933 4.0515C4.14019 4.09546 4.21621 4.08908 4.22164 4.12288C4.24307 4.25747 4.2316 4.40104 4.21009 4.5285C4.20098 4.58265 4.13069 4.52427 4.16906 4.58129C4.17166 4.58531 4.21138 4.57293 4.21487 4.58837C4.22261 4.62315 4.21406 4.68745 4.21712 4.71424C4.22237 4.75924 4.22292 4.77228 4.22402 4.80754C4.22415 4.81122 4.22428 4.81524 4.2244 4.81968C4.22628 4.87152 4.24226 4.93646 4.22606 4.99307C4.2225 5.00497 4.18481 4.98399 4.17552 5.00195C4.16644 5.01983 4.16125 5.06986 4.16682 5.08871C4.1726 5.10753 4.2049 5.10691 4.21134 5.11145C4.26574 5.1506 4.168 5.19153 4.16389 5.19746C4.09142 5.32358 4.08799 5.45512 4.0227 5.58061C3.97322 5.67488 3.89944 5.76396 3.84288 5.84863C3.77553 5.94959 3.72758 6.04498 3.6454 6.13229C3.63677 6.14147 3.6113 6.09916 3.60081 6.11012C3.53928 6.17424 3.47721 6.23787 3.41734 6.30147C3.37151 6.35053 3.32227 6.40242 3.2739 6.45666C3.2629 6.46898 3.30456 6.48949 3.29485 6.50389C3.23652 6.59124 3.13924 6.75204 2.99223 6.63021C2.93759 6.67233 2.86845 6.72131 2.83135 6.78405C2.80757 6.82434 2.86414 6.84429 2.8109 6.85206C2.7989 6.85384 2.79253 6.81217 2.77605 6.8174C2.70673 6.83939 2.64406 6.88766 2.57174 6.9026C2.55699 6.90556 2.54403 6.87237 2.53746 6.86862C2.48329 6.83876 2.47199 6.94067 2.46355 6.95196C2.39987 7.03667 2.32889 7.05201 2.2495 7.09301C2.23101 7.10257 2.23174 7.04904 2.2132 7.0567C2.11773 7.09678 2.02239 7.14855 1.94036 7.21319C1.92201 7.22775 1.95899 7.25454 1.95116 7.26335C1.91644 7.30175 1.87311 7.2379 1.83888 7.27373C1.83166 7.28118 1.85226 7.30961 1.85239 7.31382C1.85454 7.37974 1.79476 7.31515 1.78752 7.31675C1.69461 7.33559 1.6837 7.44092 1.60064 7.47134C1.59049 7.47502 1.59088 7.42494 1.56357 7.43767C1.38396 7.52192 1.20025 7.64038 1.05832 7.80366C1.03624 7.82944 1.07595 7.83899 1.07688 7.84352C1.09361 7.91268 1.02211 7.86326 1.01099 7.86932C0.949014 7.90302 0.933972 7.98101 0.877584 8.01219C0.862972 8.01917 0.844566 8.02237 0.820129 8.01999C0.800999 8.06397 0.763341 8.11333 0.779709 8.09944C0.779534 8.07936 0.918817 8.08695 0.919249 8.11233C0.931968 8.12662 0.920362 8.11453 0.91475 8.1003C0.826171 7.90651 0.762113 7.71253 0.653409 7.52409C0.651447 7.52043 0.612409 7.53728 0.608657 7.52986C0.564069 7.4413 0.631825 7.44381 0.698412 7.36934C0.715348 7.35178 0.61258 7.32059 0.605024 7.3173C0.576957 7.30604 0.517901 7.33166 0.512118 7.32727C0.466464 7.28965 0.671058 7.26586 0.664251 7.21118C0.663697 7.20947 0.626923 7.22136 0.622609 7.21712C0.609098 7.20404 0.622381 7.18722 0.607893 7.17403C0.574556 7.14411 0.47336 7.13963 0.527846 7.08241C0.535043 7.07526 0.652008 7.07788 0.643907 7.0277C0.640264 7.00768 0.640192 6.91872 0.63307 6.89338C0.62561 6.86807 0.587861 6.88517 0.586234 6.8834C0.537173 6.81404 0.516324 6.83946 0.443477 6.80167C0.371223 6.76295 0.546073 6.77966 0.566176 6.76607C0.586174 6.75241 0.547782 6.69991 0.534422 6.68575C0.520952 6.67209 0.496057 6.68655 0.488703 6.67463C0.441052 6.59569 0.57774 6.64762 0.607232 6.62516C0.6772 6.57345 0.551851 6.51684 0.544108 6.46179C0.542013 6.44702 0.570394 6.46164 0.574355 6.44882C0.589614 6.3981 0.552169 6.36396 0.59401 6.30748C0.600821 6.29871 0.682493 6.25476 0.62692 6.2194C0.6189 6.21445 0.585908 6.22539 0.579834 6.20239C0.570801 6.16819 0.565295 6.1078 0.575345 6.07088C0.582804 6.04358 0.636955 6.07393 0.619379 6.03921C0.611398 6.02395 0.581316 6.05354 0.568861 6.02537C0.556843 5.99772 0.551453 5.92569 0.547686 5.89811C0.544415 5.87065 0.586681 5.8788 0.589046 5.8762C0.597154 5.86609 0.603666 5.83974 0.606396 5.81937C0.608554 5.80856 0.609728 5.80012 0.609379 5.79854C0.571206 5.59411 0.499652 5.395 0.558732 5.18737C0.563302 5.17137 0.603402 5.18976 0.604532 5.18739C0.632281 5.13641 0.512437 5.15866 0.483266 5.11083C0.567002 5.13398 0.556045 5.10787 0.574609 5.07059C0.583683 5.05264 0.613802 5.07094 0.617557 5.06999C0.673551 5.05527 0.614907 5.02009 0.603302 5.01134C0.560506 4.97968 0.622468 4.97566 0.594335 4.95393C0.566579 4.93188 0.510984 4.94807 0.523121 4.90938C0.55599 4.9078 0.625277 4.95866 0.646281 4.93461C0.723743 4.84537 0.739357 4.63121 0.770771 4.54431C0.80075 4.45876 0.818442 4.43458 0.830575 4.38147C0.852627 4.28644 0.892531 4.34313 0.942703 4.30193C0.993157 4.26071 0.847642 4.22191 0.822744 4.20033C0.797896 4.17873 0.831428 4.18462 0.820449 4.16729C0.809449 4.15002 0.779924 4.16115 0.78496 4.13595C0.789725 4.11122 0.871279 4.0742 0.904676 4.08186C0.975942 4.09692 1.0283 4.1573 1.03439 4.08744C1.03472 4.08337 0.994465 4.07679 0.997483 4.0621C1.02224 3.9467 1.07539 3.84015 1.10537 3.72594C1.10931 3.71045 1.06452 3.70267 1.06639 3.69341C1.08608 3.59643 1.13533 3.6596 1.23117 3.6516C1.13042 3.61141 1.08507 3.55588 1.11892 3.49059C1.12046 3.48763 1.12209 3.48505 1.12382 3.48281C1.1451 3.45529 1.18058 3.47933 1.21997 3.47078C1.23278 3.46804 1.2188 3.42575 1.24091 3.43145C1.31336 3.4498 1.37093 3.51348 1.37802 3.43303C1.37823 3.42945 1.33849 3.41949 1.34177 3.40849C1.36284 3.33754 1.43355 3.36617 1.47983 3.30283C1.51598 3.25337 1.53082 3.13577 1.56036 3.07202C1.45524 3.01143 1.51408 2.96749 1.5992 2.98871C1.62013 2.94789 1.64977 2.90919 1.66363 2.86564C1.66837 2.85077 1.6334 2.84038 1.63121 2.83674C1.59663 2.7801 1.67604 2.80699 1.68401 2.80047C1.76746 2.72798 1.76434 2.62144 1.87164 2.57146C1.87549 2.5697 1.9481 2.61272 1.91287 2.55551C1.9104 2.55163 1.85974 2.55749 1.88454 2.51645C1.90916 2.47561 1.92458 2.37539 1.99529 2.34416C2.01236 2.33654 2.09147 2.34387 2.06756 2.28606C2.06427 2.27827 2.04195 2.26786 2.03481 2.25484C2.0123 2.21307 2.08748 2.25454 2.04347 2.19233C1.99939 2.13022 1.98601 2.05717 2.06649 2.03302C2.06893 2.03217 2.13258 2.05978 2.14445 2.04224C2.16327 2.01428 2.18126 1.96719 2.20291 1.93943C2.21336 1.92607 2.24015 1.96007 2.24254 1.95819C2.33006 1.88192 2.34974 1.79497 2.41127 1.68829C2.42237 1.66883 2.50701 1.6525 2.49751 1.59071C2.48744 1.52262 2.29437 1.43629 2.39972 1.37952C2.44193 1.35667 2.68351 1.47056 2.62378 1.32587C2.68916 1.2702 2.72743 1.19953 2.77067 1.13021C2.81015 1.0726 2.85269 1.01871 2.91569 0.980175C2.92193 0.976292 2.99094 1.00823 3.00093 0.995601C3.01572 0.976673 2.99933 0.944068 3.00934 0.929764C3.05057 0.869384 3.11727 0.841318 3.16262 0.788811C3.18005 0.768856 3.14843 0.750684 3.16956 0.726825C3.19078 0.703059 3.23804 0.721564 3.25337 0.675966C3.26483 0.641507 3.22414 0.549769 3.24992 0.511662C3.3138 0.579991 3.33444 0.558408 3.39043 0.542974C3.40118 0.540098 3.41409 0.571836 3.42024 0.571777C3.44551 0.572288 3.44184 0.540247 3.46747 0.542898C3.47363 0.543532 3.4939 0.568187 3.50001 0.57017C3.52447 0.578263 3.53594 0.564543 3.54154 0.545814C3.54821 0.523825 3.54705 0.494888 3.54678 0.486717C3.54536 0.428835 3.58244 0.453622 3.59268 0.424039C3.60356 0.394199 3.55839 0.396346 3.57739 0.369997C3.61735 0.315026 3.69127 0.277716 3.74625 0.2454C3.76821 0.232679 3.77386 0.278333 3.77749 0.277375C3.82866 0.261221 3.85304 0.196217 3.91952 0.256423C3.84515 0.0467699 3.95756 0.259864 4.00188 0.184686C4.00525 0.178711 3.96082 0.0846557 3.93386 0.0823216C3.90678 0.080067 3.89277 0.12499 3.85396 0.119296C3.84461 0.118105 3.76057 0.0533911 3.75266 0.0510213C3.69033 0.0327994 3.75951 0.171778 3.76151 0.180399C3.78212 0.273988 3.68517 0.208312 3.66907 0.209283C3.59623 0.212802 3.55897 0.261134 3.49907 0.272864C3.46001 0.28084 3.39831 0.200164 3.37494 0.220773C3.35534 0.238208 3.3449 0.259982 3.33764 0.282089C3.31687 0.34698 3.32645 0.411031 3.21546 0.38582C3.18368 0.378912 3.12426 0.282768 3.12984 0.395091C3.13005 0.402249 3.14636 0.495564 3.09059 0.478893C3.08351 0.47682 3.06136 0.453242 3.05589 0.454682C3.01979 0.464728 3.02178 0.498647 2.98768 0.514897C2.95355 0.531198 2.90999 0.548963 2.88948 0.585933C2.87697 0.608252 2.89906 0.672489 2.90192 0.690965C2.91052 0.743737 2.83576 0.721882 2.85997 0.771664C2.8846 0.821411 2.96868 0.84582 2.9585 0.906646C2.89495 0.851585 2.82799 0.796988 2.76311 0.742691C2.69899 0.817323 2.65046 0.903053 2.59185 0.981158C2.5905 0.983007 2.58605 0.988255 2.58477 0.990159C2.57398 1.00593 2.56275 1.02124 2.55085 1.03594C2.54206 1.04667 2.51454 1.00813 2.50422 1.01889C2.46075 1.06445 2.45353 1.1272 2.40335 1.17184C2.365 1.20547 2.29293 1.22092 2.25147 1.25519C2.30798 1.33958 2.23424 1.382 2.20652 1.43247C2.1968 1.45009 2.21785 1.46487 2.21579 1.4813C2.20752 1.54292 2.15554 1.47106 2.13596 1.47459C2.05211 1.49001 2.20142 1.61145 2.15206 1.668C2.14946 1.67108 2.03868 1.64705 2.02952 1.64852C1.97045 1.65721 2.05356 1.67585 2.04337 1.70166C2.02499 1.74856 2.02383 1.79049 1.96551 1.81774C1.94828 1.82574 1.87309 1.81922 1.89307 1.87494C1.89567 1.88227 1.9242 1.90073 1.92372 1.90468C1.91282 1.97436 1.82669 1.91176 1.77625 1.91913C1.72586 1.92643 1.75207 2.01488 1.76256 2.03644C1.78939 2.09258 1.79478 2.03212 1.80008 2.03402C1.86273 2.05691 1.82999 2.08276 1.8163 2.1107C1.89801 2.17587 1.86786 2.20666 1.80174 2.13949C1.79456 2.13209 1.81653 2.11847 1.8163 2.1107C1.71768 2.07199 1.67873 2.10323 1.7261 2.20158C1.74841 2.24761 1.8043 2.25912 1.74597 2.30836C1.71955 2.33084 1.66822 2.27882 1.63498 2.2921C1.55905 2.32252 1.56382 2.4343 1.51614 2.48681C1.4987 2.50607 1.47983 2.46338 1.46675 2.47586C1.4321 2.50871 1.43402 2.55967 1.39608 2.59058C1.39257 2.59339 1.36359 2.56229 1.35521 2.57432C1.29108 2.66523 1.26244 2.76134 1.2037 2.86084C1.17544 2.90853 1.10515 2.98379 1.08072 3.03603C1.03737 3.12728 1.03101 3.26317 0.978261 3.33091C0.944524 3.37453 0.914293 3.34638 0.878984 3.3531C0.878376 3.35321 0.877768 3.35333 0.877157 3.35346C0.807394 3.36884 0.857227 3.4833 0.865162 3.50065C0.865539 3.501 0.895912 3.46424 0.903065 3.49603C0.935242 3.52951 0.865572 3.50028 0.865162 3.50065C0.870173 3.51201 0.835572 3.59796 0.819527 3.61171C0.810976 3.61877 0.779022 3.59561 0.775219 3.59963C0.686083 3.69473 0.619144 3.80273 0.577471 3.92695C0.577175 3.92931 0.617754 3.94582 0.616576 3.95111C0.600297 4.02727 0.531409 4.04653 0.475833 4.08894C0.419907 4.13222 0.408438 4.18206 0.460889 4.24756C0.432706 4.28619 0.434935 4.36279 0.437857 4.40707C0.440785 4.45125 0.360501 4.42312 0.357549 4.42574C0.2654 4.50715 0.286382 4.58635 0.255068 4.69963C0.240223 4.75312 0.195002 4.8579 0.170533 4.9173C0.150839 4.96379 0.163257 4.99837 0.141265 5.04129C0.138304 5.04722 0.102534 5.03324 0.100711 5.03487C0.0456944 5.07887 0.141703 5.07116 0.155841 5.0849C0.207888 5.13433 0.235251 5.16119 0.198614 5.22251C0.190261 5.23594 0.0526332 5.26691 0.0424081 5.29712C0.0295179 5.33522 0.0781387 5.32395 0.0642555 5.36353C0.0631572 5.36693 0.0336455 5.36467 0.0339037 5.39007C0.0347389 5.50829 0.0583247 5.63543 0.0719917 5.75379C0.0739965 5.7701 0.024704 5.75559 0.0269818 5.77966C0.0321316 5.83267 0.0411524 5.88724 0.0548337 5.94029C0.0625312 5.96497 0.0723126 5.99183 0.0860925 6.02105C0.0926297 6.03485 0.12464 6.02378 0.134556 6.02628C0.194714 6.04338 0.110015 6.07815 0.108356 6.08244C0.0681763 6.20168 0.131485 6.32416 0.0799554 6.49025C0.0769797 6.4988 -0.0204523 6.56418 0.0555465 6.60394C0.0605765 6.6068 0.138458 6.64412 0.0818969 6.67026C0.0783686 6.6719 0.0382602 6.64858 0.0403837 6.68526C0.0425368 6.72143 0.0123133 6.78034 0.0568522 6.83317C0.0708738 6.84961 0.150368 6.88792 0.0869957 6.93609C0.082366 6.93808 -0.0604631 7.01945 0.0405973 7.04311C0.0572753 7.04685 0.162035 7.03756 0.111368 7.09793C0.101607 7.10962 0.0767947 7.09085 0.0640734 7.12125C0.044585 7.16894 0.0780095 7.22562 0.0381933 7.28736C0.0310038 7.29758 -0.0345581 7.34994 0.0243575 7.37624C0.0335507 7.38015 0.0669028 7.3652 0.0734161 7.3819C0.104676 7.46174 0.0984772 7.55295 0.141477 7.62912C0.156743 7.65626 0.208637 7.62869 0.230622 7.65407C0.252414 7.67896 0.282708 7.73499 0.266239 7.77117C0.250092 7.80866 0.153046 7.80064 0.160069 7.84944C0.187579 8.03472 0.288201 8.19193 0.375066 8.34606C0.398785 8.38885 0.419025 8.43769 0.495359 8.52039C0.54387 8.56898 0.55626 8.58361 0.565385 8.60065C0.58431 8.61259 0.578545 8.66852 0.808429 8.70321C1.21638 8.67765 1.22674 8.50592 1.28741 8.46572C1.33393 8.40636 1.35968 8.36524 1.379 8.33718C1.38187 8.33101 1.43743 8.26642 1.45739 8.20353C1.49 8.11041 1.3811 8.13854 1.42008 8.08206C1.44095 8.05374 1.53018 8.121 1.53814 8.11973C1.62102 8.1055 1.64428 8.03716 1.71707 8.01173C1.73181 8.00672 1.74004 8.05127 1.75231 8.04663C1.79469 8.031 1.82712 7.99132 1.8678 7.97335C1.88619 7.96534 1.89837 7.99586 1.91305 7.98516C1.94844 7.95987 1.97711 7.92937 2.00122 7.88244C2.00347 7.87814 1.96103 7.85435 1.98971 7.83782C2.03662 7.81098 2.08254 7.7538 2.15234 7.75363C2.17316 7.75367 2.20712 7.82011 2.22002 7.75602C2.22278 7.74262 2.17306 7.66726 2.24938 7.71571C2.26207 7.72375 2.37931 7.78204 2.38406 7.70449C2.38533 7.68407 2.37622 7.60669 2.40171 7.60687C2.40529 7.60715 2.41213 7.64852 2.43069 7.64365C2.49591 7.62578 2.5567 7.59062 2.62411 7.57063C2.64215 7.56536 2.63629 7.61481 2.66261 7.60574C2.73505 7.58086 2.81539 7.52774 2.87616 7.48107C2.89853 7.4638 2.86548 7.44237 2.86553 7.43811C2.86582 7.36921 2.92115 7.43273 2.93301 7.43183C3.00631 7.42516 3.03309 7.36663 3.09315 7.34479C3.10965 7.33866 3.11802 7.37884 3.12275 7.38019C3.17094 7.39223 3.11306 7.34413 3.12904 7.32621C3.17402 7.27558 3.23703 7.24252 3.29603 7.21259C3.31761 7.20169 3.318 7.25458 3.33719 7.24427C3.45186 7.18347 3.56579 7.10345 3.65813 7.00357C3.67551 6.98463 3.64181 6.96616 3.64121 6.95663C3.63585 6.891 3.72359 6.91889 3.73833 6.91627C3.80327 6.90643 3.80069 6.86815 3.84312 6.83861C3.85692 6.82897 3.87068 6.81884 3.88436 6.80827C4.06989 6.66691 4.23231 6.45138 4.34445 6.27484C4.50095 6.02725 4.58439 5.81327 4.69494 5.54653C4.70179 5.52935 4.739 5.56296 4.74551 5.54811C4.82756 5.35403 4.85898 5.1397 4.882 4.91445C4.88375 4.89576 4.92681 4.92476 4.93098 4.89422C4.93534 4.86251 4.93665 4.82613 4.93413 4.78955C4.93205 4.76928 4.92775 4.74742 4.92085 4.72809C4.91417 4.70909 4.87619 4.73452 4.87027 4.71506C4.85647 4.66869 4.85516 4.61734 4.86504 4.56875C4.86938 4.54781 4.91249 4.58225 4.91466 4.55497C4.93081 4.37036 4.96308 4.18352 4.93819 3.97603C4.93647 3.96197 4.84808 3.93489 4.87044 3.90852C4.89588 3.91063 4.92534 3.91585 4.95228 3.91952C5.01622 3.63634 5.04766 3.3454 5.11379 3.05493C5.11659 3.04274 5.15857 3.0753 5.16422 3.05178C5.19711 2.91538 5.24427 2.78686 5.23522 2.63497C5.23439 2.61995 5.14998 2.60483 5.17355 2.56731C5.17776 2.56072 5.20565 2.50197 5.22789 2.49118C5.23118 2.48978 5.26652 2.51156 5.2731 2.49214C5.31075 2.3787 5.33619 2.2563 5.34637 2.13483C5.34793 2.11522 5.30142 2.12298 5.30219 2.10889C5.30808 2.00864 5.36935 1.91652 5.35974 1.81589C5.35319 1.74847 5.27624 1.74922 5.21698 1.6961C5.20861 1.6886 5.21856 1.65087 5.17901 1.63651C5.07959 1.60031 4.9634 1.58435 4.85808 1.54364C4.83538 1.53491 4.87604 1.49198 4.81074 1.50463C4.80633 1.50556 4.77639 1.53655 4.7546 1.53975C4.73952 1.542 4.70217 1.51806 4.68138 1.52576C4.6606 1.53348 4.69051 1.55813 4.66422 1.57338C4.63769 1.58854 4.59401 1.56504 4.57547 1.60622ZM0.453754 4.60507C0.478877 4.65336 0.337118 4.60541 0.38489 4.58091C0.387374 4.57978 0.452569 4.60259 0.453754 4.60507ZM2.71927 1.01081C2.73212 1.05931 2.70061 1.06312 2.67019 1.04548C2.65655 1.04627 2.64739 1.0395 2.63948 1.03137C2.63681 1.01564 2.63033 1.00515 2.62681 0.993825C2.609 0.935438 2.71319 0.986972 2.71927 1.01081ZM3.07948 0.686171C3.07872 0.761024 2.92038 0.619683 2.99288 0.607083C2.99707 0.606294 3.07958 0.681781 3.07948 0.686171ZM5.15215 1.83837C5.15038 1.83734 5.15662 1.81 5.1587 1.80993C5.20846 1.80945 5.19598 1.86402 5.15215 1.83837ZM3.47186 0.406444C3.47319 0.420111 3.4645 0.428433 3.45292 0.431192C3.43661 0.43486 3.41443 0.426718 3.41143 0.402254C3.41054 0.394884 3.41279 0.388905 3.41687 0.384567C3.43166 0.368913 3.46866 0.374177 3.47186 0.406444ZM0.47155 6.45366C0.47372 6.45439 0.473884 6.47457 0.461376 6.47304C0.421098 6.46795 0.435054 6.4412 0.47155 6.45366ZM4.16168 0.000290534C4.06588 0.0662981 4.08983 0.254172 4.19238 0.171892C4.21077 0.157007 4.12056 0.149128 4.13829 0.120507C4.17029 0.068515 4.25775 0.144522 4.27504 0.0652897C4.27777 0.0510908 4.16702 -0.00379645 4.16138 0.000186523C4.16148 0.000221197 4.16158 0.00025586 4.16168 0.000290534ZM0.613979 4.68879C0.615542 4.69018 0.607541 4.71659 0.605424 4.71673C0.555569 4.71433 0.572074 4.65995 0.613979 4.68879ZM0.63158 7.60411C0.635924 7.60467 0.656747 7.66444 0.653697 7.66727C0.588303 7.7216 0.544965 7.59757 0.63158 7.60411ZM1.55815 3.06942C1.61459 3.06809 1.63795 3.0404 1.59918 2.98886C1.58643 3.0158 1.57107 3.04211 1.55815 3.06942Z" fill="#963076"/>
</svg>
