<svg width="8" height="7" viewBox="0 0 8 7" fill="none" xmlns="http://www.w3.org/2000/svg">
<path d="M6.89037 0.0277068C6.85549 0.077377 6.83487 0.156976 6.82519 0.22223C6.82211 0.242673 6.85036 0.244904 6.84916 0.259777C6.84709 0.288151 6.82407 0.305964 6.82355 0.335013C6.8234 0.344884 6.86602 0.353286 6.86497 0.363271C6.85894 0.417819 6.82736 0.457046 6.81136 0.508135C6.73213 0.760377 6.61992 0.99685 6.50343 1.24047C6.46529 1.32024 6.44349 1.4344 6.38326 1.5047C6.3761 1.51306 6.3475 1.48893 6.34384 1.48919C6.28736 1.49376 6.35705 1.52193 6.35513 1.54481C6.34712 1.63591 6.30238 1.71851 6.24978 1.77924C6.22702 1.8055 6.18164 1.73857 6.19931 1.78927C6.20046 1.79275 6.23856 1.80525 6.23732 1.8155C6.23423 1.83905 6.20818 1.86909 6.20228 1.885C6.19135 1.91533 6.18801 1.92014 6.17312 1.94585C6.15683 1.97452 6.14816 2.01431 6.12879 2.04646C6.12444 2.05367 6.11956 2.06045 6.11393 2.06657C6.10735 2.07356 6.07948 2.04216 6.0659 2.05138C6.05233 2.06063 6.03477 2.09588 6.03591 2.11204C6.03705 2.12823 6.06684 2.13999 6.07176 2.14577C6.11353 2.19431 6.01787 2.18814 6.0131 2.1918C5.92815 2.26052 5.91739 2.36604 5.86343 2.44717C5.82146 2.51011 5.76227 2.56891 5.72383 2.62794C5.67752 2.69928 5.65208 2.77229 5.60088 2.83591C5.5955 2.84266 5.56342 2.80664 5.5568 2.81479C5.48416 2.90444 5.42221 2.99423 5.37612 3.10372C5.37163 3.11459 5.41315 3.12888 5.41058 3.14131C5.39509 3.21588 5.38613 3.35576 5.22152 3.27131C5.19723 3.31141 5.16612 3.35918 5.16571 3.41516C5.16553 3.45106 5.21695 3.46068 5.1804 3.47334C5.17221 3.4762 5.14888 3.44285 5.13889 3.44906C5.09691 3.4751 5.07259 3.52174 5.02542 3.54336C5.01585 3.5476 4.9914 3.52186 4.98487 3.51957C4.93152 3.50154 4.96923 3.5866 4.96816 3.59687C4.96055 3.67318 4.91409 3.69584 4.8748 3.73823C4.86563 3.74812 4.84248 3.70365 4.83248 3.71193C4.78197 3.75438 4.73412 3.80834 4.7026 3.86873C4.6956 3.88232 4.73347 3.90192 4.73155 3.90991C4.72283 3.94467 4.66413 3.89501 4.65413 3.92757C4.65192 3.93439 4.67849 3.95695 4.68029 3.96049C4.70853 4.01625 4.63867 3.96578 4.6341 3.96754C4.57452 3.9888 4.60795 4.07845 4.55696 4.10804C4.55088 4.11143 4.53261 4.06873 4.51738 4.08018C4.41719 4.15492 4.32313 4.25183 4.24885 4.3576C4.23736 4.37392 4.26879 4.39083 4.27043 4.39474C4.29525 4.45639 4.23089 4.399 4.22404 4.40041C4.17013 4.41421 4.1777 4.49894 4.08868 4.43977C3.94209 4.59796 3.73766 4.67267 3.61088 4.8637C3.60922 4.86603 3.63612 4.8985 3.6327 4.90303C3.59128 4.95799 3.56543 4.89708 3.48688 4.85282C3.46715 4.8417 3.49138 4.94016 3.49268 4.94766C3.49744 4.97537 3.54017 5.0221 3.53979 5.02828C3.53525 5.07781 3.42966 4.90076 3.39622 4.92155C3.39536 4.92249 3.41981 4.95196 3.419 4.95691C3.41651 4.97241 3.39992 4.96496 3.39832 4.98132C3.39516 5.01881 3.43973 5.10901 3.37881 5.07798C3.37104 5.07386 3.3157 4.97069 3.28861 4.99369C3.27842 5.00263 3.22286 5.03394 3.21197 5.04932C3.20093 5.0648 3.23062 5.0909 3.2304 5.09294C3.21596 5.15976 3.24187 5.16827 3.2591 5.24396C3.27616 5.31941 3.19182 5.16563 3.17339 5.15386C3.15495 5.14218 3.14643 5.19519 3.14663 5.21172C3.14663 5.22838 3.1682 5.24338 3.16568 5.25431C3.14873 5.32607 3.10164 5.19127 3.07288 5.17607C3.00533 5.13978 3.04587 5.26705 3.02148 5.29672C3.01494 5.30471 3.00637 5.27528 2.99753 5.27741C2.9633 5.28585 2.9656 5.33196 2.91292 5.3209C2.90453 5.31897 2.83555 5.26992 2.84824 5.32984C2.85019 5.33841 2.87461 5.36124 2.86599 5.37535C2.85338 5.39628 2.82377 5.42401 2.79782 5.42844C2.77876 5.43162 2.76566 5.37606 2.75649 5.40229C2.75256 5.41393 2.78504 5.42956 2.77637 5.44917C2.76778 5.46797 2.73135 5.49284 2.71557 5.50335C2.71474 5.50389 2.71396 5.5044 2.71324 5.50487C2.69845 5.51438 2.68226 5.47603 2.67949 5.47468C2.66332 5.46721 2.62546 5.47054 2.62299 5.47234C2.50151 5.55354 2.42422 5.6851 2.28796 5.74145C2.27739 5.74585 2.26171 5.70543 2.25987 5.70573C2.21742 5.71048 2.30231 5.79183 2.29837 5.83852C2.25719 5.7622 2.25148 5.78396 2.22292 5.78987C2.2092 5.79261 2.19829 5.76008 2.19549 5.75774C2.15271 5.72387 2.17438 5.78746 2.17816 5.80085C2.1921 5.8501 2.15004 5.80692 2.15915 5.83993C2.16804 5.87278 2.21031 5.90451 2.18703 5.91736C2.16496 5.89433 2.14125 5.81435 2.11719 5.81317C2.02722 5.80808 1.93474 5.93441 1.88486 5.9721C1.83486 6.00969 1.81474 6.01557 1.78974 6.04461C1.74514 6.0974 1.73289 6.03376 1.68213 6.0347C1.63094 6.03656 1.73304 6.14593 1.74634 6.17538C1.76003 6.20461 1.73613 6.18144 1.74066 6.1997C1.74535 6.21786 1.76982 6.22686 1.76085 6.24144C1.75756 6.24678 1.74649 6.24748 1.73251 6.24527C1.70591 6.24314 1.67179 6.22885 1.65767 6.21271C1.61106 6.15853 1.58537 6.08848 1.57355 6.12464C1.57265 6.12683 1.59583 6.15868 1.59119 6.16545C1.55277 6.21921 1.48608 6.22872 1.41103 6.2376C1.40043 6.23892 1.3993 6.28311 1.3927 6.28426C1.32125 6.2935 1.36366 6.22878 1.36261 6.14271C1.33226 6.24625 1.29004 6.30227 1.24183 6.2813C1.23683 6.2791 1.23345 6.27596 1.23129 6.27212C1.22189 6.25452 1.23827 6.2216 1.23633 6.1903C1.23571 6.1789 1.20311 6.19885 1.20968 6.17733C1.23154 6.10716 1.28454 6.04347 1.22838 6.05062C1.22583 6.05101 1.2132 6.08917 1.20571 6.08794C1.15668 6.0795 1.18844 6.01052 1.15112 5.97805C1.12196 5.95269 1.03963 5.95491 0.998412 5.93496C0.93018 6.03534 0.908727 5.98605 0.945327 5.90888C0.919768 5.89415 0.898063 5.87122 0.869075 5.86245C0.859136 5.85941 0.841748 5.89055 0.838408 5.89272C0.785402 5.92621 0.827577 5.85526 0.825046 5.84891C0.794024 5.78151 0.710292 5.78698 0.708585 5.69788C0.708491 5.69461 0.767436 5.63444 0.711055 5.66407C0.707117 5.66604 0.693446 5.7078 0.670729 5.68746C0.64817 5.66742 0.575008 5.65135 0.580003 5.59328C0.580857 5.57898 0.621344 5.51895 0.566381 5.53352C0.558893 5.53547 0.540804 5.55177 0.527501 5.55619C0.484599 5.5695 0.551193 5.51604 0.482508 5.54323C0.413743 5.5702 0.346978 5.56689 0.367728 5.5005C0.368222 5.49834 0.422586 5.45709 0.415439 5.44533C0.403976 5.42683 0.377698 5.40313 0.36971 5.38107C0.365813 5.37028 0.407632 5.36227 0.407644 5.36016C0.406295 5.32676 0.397561 5.30252 0.38643 5.27798L0.38687 5.29065C0.382872 5.25336 0.371579 5.21558 0.367831 5.16995C0.366496 5.1548 0.428211 5.11912 0.386816 5.08524C0.341579 5.04773 0.133256 5.05553 0.19106 4.9882C0.214292 4.96078 0.477773 4.958 0.35087 4.88781C0.39793 4.79127 0.34377 4.68635 0.40886 4.59263C0.411763 4.58837 0.486001 4.58699 0.486964 4.5762C0.488249 4.56017 0.456353 4.54551 0.456307 4.53367C0.455198 4.48441 0.492501 4.44718 0.497994 4.40125C0.500205 4.38373 0.464499 4.38199 0.467261 4.36103C0.470164 4.33986 0.518387 4.33721 0.50347 4.3043C0.492038 4.27959 0.40573 4.23463 0.402942 4.20286C0.493424 4.22641 0.496686 4.20659 0.53021 4.18002C0.536695 4.17497 0.565864 4.19105 0.570535 4.18915C0.590169 4.18189 0.567814 4.16273 0.588822 4.15667C0.593875 4.15519 0.624374 4.16461 0.630209 4.164C0.680868 4.15936 0.62295 4.1063 0.613142 4.09652C0.585698 4.07019 0.600963 4.06475 0.606638 4.05563C0.608 4.05496 0.609167 4.05101 0.606529 4.04469C0.597036 4.02125 0.56481 4.03434 0.56342 4.01111C0.560886 3.96245 0.591561 3.91687 0.609473 3.8794C0.616824 3.86445 0.649381 3.89417 0.65131 3.89249C0.677274 3.86609 0.651392 3.81563 0.736579 3.83343C0.546798 3.72043 0.765163 3.82321 0.744596 3.75771C0.742849 3.7525 0.648048 3.71017 0.628737 3.71731C0.609456 3.72438 0.630883 3.75685 0.601066 3.76493C0.593997 3.76715 0.495111 3.74882 0.488481 3.74885C0.435691 3.75202 0.57199 3.8257 0.578871 3.83105C0.652719 3.8887 0.543721 3.87079 0.533161 3.87523C0.484403 3.89638 0.486205 3.93945 0.448241 3.96385C0.43993 3.9693 0.423961 3.9684 0.40607 3.96574C0.404972 3.96874 0.400849 3.97735 0.400009 3.98042C0.364509 3.97755 0.321002 3.96803 0.31848 3.98146C0.306012 4.04931 0.435459 4.11068 0.300623 4.13411C0.271945 4.13929 0.168297 4.09702 0.239871 4.16614C0.244292 4.17075 0.312711 4.22417 0.258944 4.23101C0.252159 4.23187 0.220801 4.2239 0.217357 4.22646C0.194882 4.24389 0.216411 4.26449 0.19889 4.28518C0.181371 4.3059 0.15703 4.33039 0.162018 4.35965C0.164949 4.37731 0.219762 4.41001 0.23268 4.42059C0.270048 4.45015 0.197141 4.45985 0.245186 4.48274C0.293513 4.5056 0.375511 4.49485 0.401951 4.53507C0.319089 4.52086 0.233724 4.50797 0.150215 4.49464C0.138706 4.5729 0.153099 4.65293 0.137871 4.72899C0.135896 4.73847 0.0926764 4.72196 0.0894026 4.732C0.0758678 4.77406 0.102383 4.81644 0.0836318 4.85904C0.0689403 4.89206 0.0165463 4.92361 3.43852e-06 4.9583C0.0926396 4.99226 0.0536505 5.04148 0.0578407 5.08096C0.0592553 5.09484 0.084877 5.09695 0.092069 5.10756C0.118661 5.14707 0.0361956 5.12044 0.0217552 5.12881C-0.0398792 5.16504 0.150862 5.19047 0.140624 5.23951C0.140342 5.24105 0.103538 5.24899 0.0719786 5.25614C0.0715414 5.27241 0.0704932 5.31851 0.0746883 5.33423C0.0558549 5.34982 0.0399089 5.36503 0.0380434 5.36872C0.00875492 5.42568 0.0744811 5.36868 0.088801 5.39388C0.115681 5.43827 0.148675 5.45709 0.140997 5.5152C0.138218 5.53133 0.0962349 5.59253 0.153412 5.59495C0.160867 5.59523 0.189944 5.57769 0.193046 5.57932C0.245865 5.60771 0.15401 5.66054 0.139209 5.70617C0.124444 5.75164 0.211981 5.75038 0.234265 5.74519C0.292747 5.7335 0.243472 5.7172 0.247352 5.71312C0.292637 5.66556 0.300632 5.69776 0.318378 5.71339C0.405623 5.65603 0.418273 5.68414 0.336588 5.7299C0.327549 5.73478 0.324889 5.7144 0.318378 5.71339C0.246088 5.78878 0.260106 5.83025 0.359619 5.80145C0.406109 5.78755 0.436074 5.74213 0.455102 5.79477C0.464298 5.81885 0.403568 5.85854 0.403504 5.88823C0.404292 5.95698 0.499429 5.95916 0.528587 6.00156C0.539615 6.01741 0.499088 6.03315 0.505792 6.04502C0.523682 6.07666 0.566085 6.07522 0.582278 6.10929C0.58376 6.11244 0.550866 6.13848 0.558869 6.14608C0.61907 6.20402 0.692167 6.22737 0.762091 6.27548C0.795721 6.29887 0.845262 6.3583 0.884537 6.3765C0.952527 6.40904 1.05959 6.39861 1.10822 6.43836C1.13356 6.45887 1.12325 6.48389 1.11964 6.50979C1.11898 6.51686 1.1189 6.52403 1.12037 6.53125C1.1342 6.59834 1.24325 6.53544 1.25646 6.52327C1.25661 6.523 1.21952 6.49929 1.24807 6.48712C1.27502 6.44996 1.25586 6.52285 1.25646 6.52327C1.26506 6.51701 1.35535 6.53271 1.37522 6.54276C1.38511 6.5489 1.37247 6.58631 1.37807 6.5888C1.50903 6.65611 1.75166 6.617 1.85917 6.51344C1.86087 6.51139 1.83392 6.47683 1.83797 6.47261C1.85191 6.45764 1.8653 6.44759 1.87933 6.44046C1.90428 6.43204 1.94203 6.44957 1.97592 6.45537C2.02109 6.46309 2.03771 6.43999 2.01636 6.36489C2.04441 6.35842 2.06175 6.30918 2.07227 6.27955C2.0825 6.25007 2.12882 6.32151 2.13144 6.3219C2.21526 6.33502 2.22467 6.27355 2.28295 6.2311C2.31041 6.21092 2.37585 6.18717 2.4132 6.1759C2.44297 6.16704 2.4482 6.14076 2.47855 6.13741C2.48265 6.13694 2.49887 6.17135 2.50061 6.17201C2.55074 6.19472 2.49013 6.12317 2.48709 6.1057C2.47583 6.04226 2.47134 6.0076 2.5197 6.01098C2.53086 6.01171 2.62399 6.11072 2.64284 6.10806C2.66708 6.10446 2.63427 6.06871 2.66009 6.066C2.66228 6.06572 2.67774 6.09083 2.68927 6.08191C2.74275 6.04097 2.79424 5.98621 2.85343 5.94873C2.86143 5.94353 2.878 5.98892 2.89009 5.98197C2.93053 5.95857 2.97066 5.93021 3.0046 5.89539C3.01359 5.88469 3.02238 5.87263 3.03047 5.85911C3.03725 5.84763 3.01233 5.82512 3.00897 5.81562C2.98959 5.75746 3.05683 5.81518 3.06101 5.81436C3.16127 5.79693 3.18773 5.69034 3.29858 5.66641C3.30488 5.66513 3.38972 5.72099 3.36718 5.64295C3.36555 5.63784 3.34228 5.55811 3.38548 5.59628C3.38819 5.59866 3.39878 5.64054 3.4152 5.6258C3.43153 5.61111 3.47672 5.61625 3.47981 5.56137C3.48061 5.54418 3.45849 5.46396 3.5165 5.50356C3.52019 5.50656 3.63469 5.60613 3.5961 5.5129C3.58982 5.49751 3.53245 5.40897 3.59031 5.437C3.60149 5.44245 3.60338 5.46888 3.62613 5.47218C3.66136 5.47715 3.67702 5.43431 3.73 5.45666C3.73929 5.46068 3.79853 5.5081 3.78693 5.4512C3.7851 5.44229 3.76123 5.41571 3.76821 5.40665C3.80017 5.36419 3.85766 5.3554 3.88741 5.30695C3.89774 5.29 3.85896 5.24733 3.86619 5.22437C3.87343 5.20142 3.89692 5.16831 3.92801 5.17882C3.95909 5.18936 3.99154 5.27683 4.02006 5.26645C4.14577 5.22001 4.22148 5.10163 4.32113 5.01803C4.33609 5.00547 4.34269 5.04105 4.36592 5.02448C4.45049 4.96494 4.61529 4.8737 4.64032 4.7629C4.66104 4.67393 4.56391 4.69989 4.59202 4.64729C4.60545 4.62214 4.69587 4.68382 4.70306 4.68207C4.77248 4.6674 4.7753 4.60308 4.82799 4.57566C4.8389 4.56998 4.85857 4.60968 4.86741 4.60459C4.89765 4.58769 4.9116 4.54949 4.93827 4.52992C4.95031 4.5212 4.97032 4.54715 4.97873 4.53603C4.99922 4.50958 5.01105 4.47988 5.01276 4.43632C5.0129 4.43236 4.9712 4.41579 4.98736 4.39855C5.01365 4.37066 5.02728 4.31596 5.08123 4.30701C5.09707 4.30469 5.14955 4.3578 5.13354 4.30133C5.13022 4.28948 5.06197 4.23097 5.13958 4.26317C5.15236 4.26868 5.26575 4.30321 5.23749 4.23598C5.22997 4.21839 5.19107 4.15342 5.20997 4.15058C5.21276 4.15036 5.23548 4.18446 5.2473 4.17798C5.2885 4.15458 5.31894 4.11679 5.36104 4.09054C5.37236 4.08355 5.38934 4.12599 5.4053 4.1146C5.4494 4.08315 5.48479 4.02928 5.50986 3.98225C5.51896 3.96495 5.48469 3.9516 5.48285 3.94807C5.45249 3.89096 5.52221 3.93617 5.53075 3.93382C5.58256 3.91893 5.57584 3.86825 5.61101 3.84347C5.62062 3.83657 5.64478 3.86843 5.64892 3.86899C5.69037 3.8733 5.62561 3.84064 5.62966 3.82415C5.64079 3.77782 5.67414 3.74359 5.70474 3.71497C5.71616 3.70433 5.73969 3.74688 5.74957 3.73694C5.80871 3.67867 5.86148 3.60709 5.89145 3.5291C5.89715 3.5142 5.86382 3.49998 5.85953 3.49254C5.82923 3.44088 5.90883 3.46287 5.91918 3.4614C5.96604 3.45527 5.95018 3.42526 5.97255 3.4057C6.08296 3.30974 6.17216 3.15333 6.24055 3.03335C6.32769 2.88031 6.37603 2.74775 6.47406 2.61054C6.48029 2.6017 6.51363 2.6359 6.51953 2.62857C6.58082 2.54974 6.62222 2.46182 6.67769 2.37735C6.68835 2.36116 6.69945 2.34536 6.71123 2.33006C6.71701 2.32242 6.74772 2.35689 6.75826 2.3454C6.78007 2.32214 6.79839 2.28691 6.80274 2.25219C6.80487 2.23541 6.76174 2.23384 6.76454 2.21736C6.77087 2.1791 6.78794 2.14431 6.81318 2.11564C6.82394 2.10359 6.8505 2.14716 6.86146 2.12972C6.93694 2.01124 7.01365 1.89577 7.03422 1.74333C7.03563 1.73287 6.96053 1.6797 6.98594 1.67075C7.00875 1.6821 7.03464 1.69709 7.05853 1.71006C7.17384 1.53892 7.24543 1.34679 7.33986 1.16165C7.34378 1.15396 7.37943 1.19014 7.38724 1.17538C7.43329 1.08841 7.49003 1.0099 7.49359 0.897305C7.49404 0.886089 7.41576 0.851623 7.44064 0.831279C7.44501 0.827948 7.47542 0.793136 7.49714 0.791153C7.50034 0.791011 7.53231 0.816178 7.53979 0.803866C7.58293 0.731383 7.61356 0.647757 7.62768 0.559518C7.62989 0.54524 7.58517 0.540756 7.58637 0.530497C7.59498 0.458324 7.65525 0.402075 7.64596 0.323792C7.63932 0.271738 7.56491 0.259653 7.50667 0.210907C7.49841 0.204177 7.50687 0.178206 7.46815 0.16172C7.37081 0.120457 7.25847 0.0900695 7.1553 0.0445773C7.13318 0.0346092 7.16855 0.0152088 7.1073 0.0112759C7.10329 0.010853 7.07675 0.0254668 7.05632 0.022956C7.04215 0.0214051 7.00489 -0.000592428 6.98572 -6.40943e-06C6.96664 0.000396083 6.99645 0.0223249 6.97257 0.0260981C6.94833 0.0299796 6.90545 0.00657244 6.89037 0.0277068ZM2.12154 6.14648C2.12094 6.09964 2.19878 6.22738 2.15942 6.20883C2.15743 6.20777 2.12152 6.1488 2.12154 6.14648ZM0.264927 4.67029C0.325207 4.71092 0.226163 4.71703 0.17921 4.68742C0.132367 4.65765 0.246707 4.65771 0.264927 4.67029ZM0.371941 4.36328C0.414973 4.40957 0.206377 4.37093 0.256868 4.3409C0.259748 4.33911 0.369462 4.36053 0.371941 4.36328ZM7.44652 0.302142C7.44479 0.301166 7.4506 0.282651 7.45261 0.282932C7.5004 0.291964 7.4886 0.329344 7.44652 0.302142ZM0.507263 4.06887C0.530747 4.08872 0.489316 4.10912 0.459719 4.08478C0.435928 4.06493 0.478115 4.04375 0.507263 4.06887ZM3.05849 5.35965C3.05764 5.35756 3.06807 5.3489 3.07437 5.35981C3.09456 5.39501 3.07277 5.39483 3.05849 5.35965ZM0.7184 3.58778C0.705638 3.66006 0.85279 3.76762 0.863095 3.6741C0.864563 3.65768 0.799241 3.69039 0.790487 3.66598C0.774007 3.62313 0.886663 3.62945 0.839553 3.57693C0.830772 3.56821 0.718706 3.5842 0.718128 3.58784C0.718219 3.58782 0.718309 3.5878 0.7184 3.58778ZM2.04297 5.9844C2.04238 5.98246 2.05758 5.9715 2.0589 5.973C2.09136 6.00907 2.06091 6.03109 2.04297 5.9844ZM3.67429 4.87099C3.67278 4.86697 3.70657 4.83979 3.70995 4.84217C3.77203 4.89414 3.7031 4.94979 3.67429 4.87099ZM0.995986 5.93721C1.00759 5.88706 0.993438 5.86985 0.945435 5.90888C0.96256 5.91765 0.978591 5.92863 0.995986 5.93721Z" fill="#963076"/>
</svg>
