<svg width="11" height="12" viewBox="0 0 11 12" fill="none" xmlns="http://www.w3.org/2000/svg">
<path d="M0.79957 3.88599C0.863214 3.69138 0.918486 3.44334 0.962397 3.25532C0.976096 3.19647 0.941157 3.21684 0.949871 3.17552C0.96706 3.09509 1.00554 3.02876 1.02348 2.94988C1.0294 2.92355 0.978087 2.93901 0.985308 2.91157C1.02524 2.76189 1.09448 2.63324 1.15607 2.49112C1.16255 2.47618 1.16915 2.46123 1.17586 2.44626C1.36354 2.02434 1.61953 1.66131 1.93853 1.27459C2.02572 1.14892 2.3172 1.03293 2.59421 0.961546C2.84143 0.895392 3.15761 0.807632 3.4349 0.790323C3.46717 0.788333 3.45257 0.827269 3.45904 0.829531C3.5616 0.863959 3.51912 0.794175 3.58125 0.77704C3.67234 0.752124 3.76661 0.732597 3.86464 0.717427C4.01721 0.692344 4.17144 0.695854 4.24091 0.738948C4.24345 0.740273 4.24597 0.74174 4.24824 0.743232C4.29844 0.778637 4.21199 0.808846 4.28955 0.805193C4.29542 0.805361 4.29837 0.76194 4.3183 0.768588C4.36426 0.782553 4.43299 0.848443 4.46393 0.876981C4.52434 0.930625 4.53342 0.942844 4.5849 1.00718C4.65519 1.0961 4.75071 1.20536 4.81294 1.3218C4.82597 1.34647 4.7724 1.33631 4.79012 1.37776C4.79608 1.39155 4.80628 1.41024 4.81927 1.4319C4.84103 1.4678 4.86767 1.51263 4.88293 1.53072C4.90552 1.5574 4.92839 1.53182 4.93751 1.53443C5.01635 1.55819 4.97582 1.70672 4.97631 1.72081C5.01682 2.00553 5.06773 2.26618 5.06083 2.56981C5.06063 2.57739 5.06041 2.58496 5.06017 2.59251C5.05676 2.75774 4.94965 2.9307 4.83179 3.08131C4.68616 3.26777 4.53744 3.42905 4.34257 3.59116C4.32192 3.60828 4.31527 3.55203 4.29003 3.57278C4.07849 3.75123 3.85349 3.9137 3.65351 4.18457C3.59347 4.27044 3.55268 4.35914 3.52869 4.4656C3.51822 4.51954 3.57507 4.46136 3.56846 4.51498C3.56726 4.52681 3.56626 4.539 3.56593 4.55598C3.56585 4.56466 3.56566 4.57384 3.56703 4.59032C3.56802 4.59931 3.56828 4.60781 3.57402 4.62933C3.58445 4.63619 3.57233 4.73428 3.74015 4.75099C4.04611 4.72087 4.23323 4.38198 4.42973 4.35737C4.50738 4.21036 4.56986 4.05601 4.6025 3.95722C4.62465 3.89407 4.54995 3.90835 4.619 3.86566C4.6342 3.85792 4.64517 3.90059 4.66401 3.88921C4.66792 3.88698 4.67176 3.88486 4.67554 3.88284C4.78971 3.8135 4.9079 3.7259 5.03312 3.67595C5.06012 3.66527 5.07085 3.69998 5.08097 3.70152C5.16442 3.71294 5.22237 3.58528 5.24222 3.56819C5.38904 3.44016 5.52436 3.39763 5.68687 3.32713C5.72467 3.31088 5.69838 3.37353 5.73528 3.3596C5.92633 3.28707 6.12315 3.21065 6.3078 3.12995C6.3489 3.11193 6.29756 3.08565 6.31667 3.07505C6.4017 3.02901 6.4436 3.09642 6.52548 3.05603C6.54285 3.04766 6.52326 3.01713 6.52558 3.01253C6.5625 2.94018 6.63056 3.01001 6.64429 3.00839C6.68099 3.00437 6.71406 2.99655 6.74464 2.98651C6.86413 2.94774 6.94863 2.87441 7.08563 2.85867C7.10604 2.85651 7.06891 2.90796 7.12541 2.89938C7.50243 2.84308 7.90001 2.79566 8.27187 2.79737C8.3292 2.79786 8.29224 2.7609 8.29617 2.75721C8.3637 2.70055 8.39088 2.79057 8.40923 2.7965C8.55012 2.84021 8.70487 2.80642 8.76873 2.9336C8.91815 2.9715 9.05077 3.03176 9.20747 3.10584C9.172 3.06407 9.22619 3.15203 9.2212 3.24205C9.22469 3.33417 9.21773 3.43641 9.21201 3.54209C9.1986 3.76467 9.07976 4.01542 8.96956 4.26479C8.96612 4.27223 9.00937 4.28218 9.00228 4.29701C8.91499 4.47575 8.88009 4.40794 8.74129 4.4696C8.70636 4.48496 8.72692 4.62274 8.72752 4.63411C8.72986 4.67589 8.80047 4.68386 8.79823 4.69579C8.77828 4.79317 8.61851 4.66028 8.5467 4.76641C8.54483 4.76984 8.58553 4.77718 8.58285 4.788C8.5795 4.80106 8.57309 4.812 8.56629 4.82211C8.55687 4.836 8.54494 4.84834 8.54128 4.86718C8.52869 4.93404 8.58681 5.02306 8.47083 5.05884C8.45568 5.06267 8.38832 4.96769 8.31957 5.03868C8.29348 5.06804 8.15199 5.17813 8.11335 5.2128C8.07611 5.24835 8.12626 5.25907 8.12427 5.26249C8.0369 5.38287 8.09183 5.36983 8.07073 5.47148C8.04793 5.57262 7.97209 5.41307 7.93758 5.41129C7.90351 5.40956 7.83335 5.4978 7.81802 5.52238C7.80236 5.54748 7.84234 5.55262 7.82598 5.57098C7.71622 5.69105 7.7251 5.52679 7.66866 5.52546C7.53555 5.52089 7.51175 5.67703 7.41759 5.73485C7.39252 5.75022 7.4018 5.71335 7.37696 5.72172C7.2787 5.75487 7.23737 5.81729 7.11439 5.82848C7.10762 5.82909 7.08981 5.82551 7.06763 5.82336C7.02601 5.8183 6.97264 5.81449 6.94785 5.86167C6.94229 5.87191 6.97439 5.8964 6.93591 5.91506C6.91662 5.92428 6.89076 5.93433 6.86337 5.94202C6.85657 5.94393 6.8497 5.94569 6.84353 5.94702C6.84224 5.94733 6.84013 5.94765 6.84138 5.94764C6.84175 5.94762 6.84232 5.94758 6.84371 5.94757C6.84442 5.94756 6.84533 5.94755 6.84684 5.94762C6.84811 5.94773 6.84455 5.94732 6.85169 5.94804C6.84244 5.94838 6.92058 5.94631 6.89209 6.03286C6.84724 6.07532 6.87133 6.04933 6.86464 6.05575C6.8577 6.05819 6.85818 6.05762 6.85786 6.05776C6.85742 6.05781 6.85819 6.0576 6.85863 6.05748C6.8611 6.05685 6.86505 6.0561 6.86819 6.05551C6.88285 6.0529 6.89797 6.05102 6.91321 6.04965C6.94342 6.04694 6.97169 6.04593 6.99485 6.04735C7.04751 6.05066 6.99213 6.10916 7.05702 6.0868C7.08573 6.07689 7.02867 6.05045 7.08281 6.03448C7.13591 6.01844 7.27759 6.00925 7.33025 6.00717C7.38412 6.00488 7.35711 6.04715 7.36166 6.04959C7.38848 6.06346 7.49154 6.07741 7.50011 6.07705C7.95226 6.05861 8.37147 6.00323 8.81657 6.05249C8.85154 6.05615 8.82581 6.09748 8.83112 6.09848C8.95009 6.12295 8.86183 6.00445 8.94753 5.97104C8.93081 6.05686 8.98106 6.04401 9.06541 6.05756C9.10606 6.06412 9.08228 6.09658 9.08584 6.10019C9.14448 6.15389 9.18991 6.08969 9.20114 6.07663C9.24075 6.03142 9.28007 6.08182 9.30846 6.06075C9.31008 6.05945 9.31165 6.05788 9.3132 6.056C9.34085 6.02442 9.28007 5.97214 9.36208 5.97772C9.38079 6.01051 9.31969 6.08633 9.37272 6.1045C9.56769 6.14784 9.89309 6.34623 10.0097 6.50138C10.0619 6.56263 10.0963 6.60889 10.1258 6.64713C10.1586 6.69036 10.1805 6.72489 10.211 6.77188C10.3035 6.9317 10.2195 6.89334 10.2267 7.00667C10.2287 7.12221 10.3582 7.0353 10.3934 7.04399C10.4283 7.05338 10.4006 7.07914 10.4222 7.09682C10.4437 7.11422 10.4553 7.06397 10.4721 7.11261C10.4896 7.16248 10.4558 7.30915 10.425 7.33102C10.3605 7.37862 10.2793 7.32758 10.3221 7.4535C10.3246 7.46077 10.3601 7.43158 10.3677 7.45974C10.426 7.68531 10.4493 7.92598 10.4995 8.15478C10.5065 8.18606 10.5466 8.15332 10.5511 8.17151C10.5987 8.36127 10.519 8.29968 10.4499 8.41478C10.5546 8.37922 10.6262 8.43037 10.6439 8.57565C10.6549 8.66377 10.6062 8.65319 10.5803 8.71464C10.5726 8.7336 10.6124 8.79039 10.592 8.80481C10.5461 8.83679 10.4903 8.82405 10.4764 8.86062C10.4698 8.8763 10.4721 8.90069 10.4859 8.94372C10.4879 8.94988 10.5258 8.92657 10.53 8.94823C10.5533 9.08895 10.4781 9.10664 10.454 9.24733C10.4361 9.35668 10.424 9.56563 10.3728 9.69529C10.4862 9.74028 10.4035 9.85396 10.3041 9.86259C10.2923 9.88814 10.2791 9.91388 10.2655 9.9398C10.2355 9.99697 10.2036 10.0524 10.1785 10.1075C10.1658 10.1349 10.206 10.1371 10.2072 10.1423C10.2257 10.2242 10.1345 10.2126 10.1213 10.226C9.97614 10.3777 9.90231 10.5482 9.7093 10.631C9.70211 10.634 9.64144 10.5755 9.63838 10.6558C9.63797 10.6613 9.71402 10.6514 9.64112 10.7108C9.56964 10.7699 9.43981 10.9061 9.30246 10.9308C9.2692 10.9374 9.16893 10.9102 9.13174 10.9846C9.12672 10.9947 9.14513 11.013 9.13893 11.0304C9.11802 11.0861 9.06502 11.016 9.04746 11.1009C9.02972 11.1858 8.95012 11.2747 8.80294 11.2703C8.7983 11.2703 8.74633 11.2164 8.70603 11.2301C8.65443 11.2478 8.58798 11.2773 8.52768 11.2982C8.51188 11.3037 8.49663 11.3086 8.48234 11.3124C8.44931 11.3212 8.45949 11.2749 8.45357 11.2758C8.22718 11.3112 8.07608 11.3779 7.83257 11.4246C7.78775 11.4333 7.65349 11.3897 7.57026 11.4412C7.47802 11.4974 7.5914 11.6965 7.36465 11.6617C7.27419 11.6478 7.14428 11.3919 6.99515 11.5409C6.94026 11.54 6.88644 11.5434 6.83393 11.551C6.58532 11.5865 6.3494 11.6557 6.08843 11.6362C6.07422 11.6352 6.02447 11.5658 5.99232 11.5688C5.94359 11.5735 5.91878 11.6089 5.88407 11.6128C5.7378 11.6298 5.6033 11.6034 5.46359 11.601C5.41064 11.5994 5.4266 11.6364 5.36193 11.6319C5.33611 11.6297 5.31492 11.6197 5.29406 11.6081C5.26198 11.59 5.23114 11.5707 5.17779 11.5669C5.11292 11.5627 5.0079 11.6206 4.91805 11.5782C4.96415 11.4964 4.9095 11.4669 4.8421 11.3809C4.82922 11.3644 4.86671 11.3529 4.86175 11.3438C4.84282 11.3067 4.79821 11.3038 4.7829 11.2656C4.77921 11.2564 4.80026 11.2324 4.7985 11.2236C4.785 11.1484 4.66221 11.1294 4.64067 11.1258C4.55854 11.1119 4.5656 11.0603 4.51487 11.0361C4.46508 11.0129 4.50347 11.0842 4.45242 11.0492C4.34595 10.9759 4.23488 10.8571 4.14237 10.7683C4.10529 10.7324 4.16025 10.7267 4.15564 10.7209C4.11373 10.6704 4.05668 10.6353 4.0219 10.5913C4.00026 10.5645 3.98778 10.5342 3.994 10.4951C3.78909 10.6024 3.96213 10.436 3.82436 10.3611C3.81349 10.3552 3.72905 10.4176 3.75114 10.4612C3.77333 10.5048 3.84617 10.5308 3.87619 10.5924C3.88219 10.6048 3.88065 10.7037 3.88346 10.739C3.88175 10.7427 3.88219 10.7467 3.88281 10.7485C3.91666 10.8452 4.03382 10.7431 4.04341 10.7405C4.14655 10.7126 4.1491 10.8623 4.16323 10.8865C4.22919 10.9987 4.32138 11.0606 4.37994 11.1525C4.41872 11.2128 4.35229 11.2899 4.39395 11.3266C4.53835 11.4517 4.67309 11.3895 4.74813 11.6034C4.76766 11.6487 4.66424 11.7181 4.85258 11.7338C4.8656 11.7362 5.00697 11.7232 5.05412 11.7933C5.06026 11.8024 5.04861 11.8327 5.05917 11.8394C5.11931 11.8767 5.17196 11.8747 5.23377 11.8901C5.24888 11.8937 5.26493 11.8976 5.27945 11.9019C5.37099 11.9282 5.45976 11.9503 5.54599 11.9413C5.59768 11.9359 5.66215 11.8753 5.68483 11.8602C5.75047 11.817 5.82293 11.8842 5.86181 11.831C5.89989 11.7774 5.81817 11.7027 5.92121 11.6642C5.9295 11.7479 5.94324 11.8336 5.9545 11.9176C6.19202 11.9012 6.41817 11.8507 6.65161 11.823C6.68042 11.8196 6.65708 11.8684 6.68825 11.8659C6.75535 11.8602 6.81575 11.8448 6.87767 11.8294C6.92608 11.8162 6.97951 11.8055 7.04077 11.8065C7.13684 11.8083 7.24993 11.85 7.35891 11.8556C7.41928 11.7558 7.58434 11.7783 7.70515 11.758C7.74697 11.751 7.74212 11.7257 7.77101 11.7143C7.88094 11.6713 7.83733 11.7613 7.87041 11.771C8.01373 11.8105 7.99916 11.6189 8.15428 11.5969C8.16224 11.5959 8.28341 11.6769 8.29936 11.6798C8.39841 11.7011 8.30687 11.6418 8.36099 11.622C8.44556 11.5905 8.50407 11.5554 8.59793 11.5427C8.61316 11.5406 8.62935 11.5392 8.64679 11.5386C8.6819 11.5377 8.78113 11.5747 8.83101 11.5068C8.83759 11.4979 8.82252 11.4671 8.82875 11.463C8.94149 11.3914 8.97891 11.4904 9.06341 11.4985C9.14859 11.5063 9.23364 11.3925 9.24696 11.3635C9.2835 11.2883 9.19348 11.3607 9.18808 11.3567C9.12724 11.3123 9.21029 11.291 9.2677 11.2594C9.23423 11.1604 9.31695 11.1289 9.32709 11.2267C9.32799 11.2376 9.27767 11.2499 9.2677 11.2594C9.36075 11.3304 9.46566 11.2963 9.51921 11.1575C9.54327 11.092 9.4755 11.0735 9.61911 11.0081C9.68389 10.9769 9.69994 11.0523 9.76527 11.0316C9.91662 10.9827 10.0264 10.8018 10.1379 10.6979C10.1793 10.6595 10.1704 10.7266 10.1999 10.7007C10.2783 10.6311 10.3128 10.5419 10.3854 10.4681C10.3921 10.4613 10.4119 10.5043 10.4314 10.4782C10.515 10.3661 10.5755 10.2522 10.6304 10.1349C10.6702 10.0491 10.7108 9.9584 10.7546 9.85669C10.8051 9.74597 10.8998 9.53055 10.9161 9.39206C10.945 9.203 10.9059 8.97959 10.8731 8.80839C10.8657 8.76903 10.8608 8.73208 10.8596 8.69824C10.8553 8.58849 10.8994 8.6088 10.9217 8.55866C10.9651 8.46457 10.8508 8.31682 10.8337 8.29759C10.833 8.29672 10.8335 8.39089 10.8071 8.34346C10.7601 8.31933 10.8336 8.29865 10.8337 8.29759C10.8223 8.28434 10.7937 8.09979 10.7978 8.06128C10.8001 8.04066 10.8401 8.04804 10.8405 8.0374C10.8496 7.7842 10.8382 7.53027 10.7807 7.26208C10.7792 7.25744 10.737 7.27101 10.7341 7.26011C10.6908 7.10752 10.7241 6.99616 10.714 6.84483C10.7037 6.69356 10.6352 6.56746 10.5211 6.52161C10.5035 6.48506 10.4766 6.446 10.4442 6.40955C10.3945 6.35671 10.3294 6.30265 10.2837 6.26759C10.216 6.21569 10.2711 6.15111 10.2675 6.14397C10.1425 5.92606 9.98065 5.83308 9.69682 5.7276C9.60819 5.69546 9.45556 5.65529 9.31902 5.64774C9.26756 5.64324 9.21912 5.63788 9.18136 5.63311C9.09627 5.62214 9.04336 5.63938 8.9639 5.62242C8.95314 5.62014 8.96613 5.58292 8.96289 5.58129C8.87586 5.53122 8.91372 5.62594 8.8943 5.64143C8.82348 5.69775 8.78004 5.72723 8.66462 5.69279C8.63794 5.68488 8.56586 5.54781 8.51562 5.53781C8.45121 5.52513 8.47334 5.57382 8.40576 5.55965C8.40001 5.5585 8.40198 5.52903 8.35981 5.5289C8.16264 5.52783 7.94613 5.54338 7.74055 5.54569C7.7126 5.54611 7.74738 5.49844 7.70667 5.49834C7.51512 5.49799 7.30633 5.51152 7.12422 5.54783C7.07904 5.55695 7.11024 5.58732 7.10111 5.59779C7.04657 5.66108 6.9535 5.58367 6.93967 5.58335C6.91557 5.58262 6.89167 5.58254 6.86793 5.58303C6.84902 5.58368 6.83102 5.58458 6.80764 5.58692C6.8014 5.58757 6.79494 5.5883 6.78671 5.58944C6.78108 5.59029 6.77879 5.59049 6.7664 5.59279C6.75209 5.59726 6.78203 5.58395 6.69072 5.61474C6.68687 5.61626 6.68259 5.61801 6.67769 5.62014C6.6821 5.61856 6.6574 5.6274 6.62145 5.64987C6.59254 5.68142 6.49104 5.68952 6.43044 5.94464C6.40684 6.07355 6.4735 6.22686 6.53902 6.28916C6.60439 6.35673 6.65351 6.37611 6.68659 6.39074C6.75252 6.41602 6.77655 6.41569 6.79695 6.41896C6.84439 6.4231 6.81779 6.4206 6.82737 6.42132C6.83835 6.42176 6.84562 6.42172 6.85158 6.42164C6.86327 6.42143 6.86977 6.42099 6.87523 6.42063C6.88709 6.41973 6.88609 6.41974 6.89044 6.41934C6.92862 6.41507 6.93076 6.41405 6.9451 6.41182C6.99203 6.40371 7.02753 6.39476 7.06444 6.3841C7.13645 6.36303 7.20248 6.33664 7.26639 6.30662C7.41708 6.23352 7.5613 6.15517 7.74506 6.08815C7.76227 6.08256 7.93908 6.09636 7.96139 5.99476C7.96345 5.98776 7.98267 5.88631 8.06039 5.90539C8.06544 5.90643 8.04915 5.96336 8.11076 5.9234C8.17146 5.88393 8.28892 5.8455 8.34982 5.75016C8.36932 5.71992 8.38603 5.61256 8.50228 5.60502C8.50812 5.60726 8.72474 5.62074 8.70343 5.50483C8.69963 5.48552 8.6224 5.41653 8.74843 5.37035C8.77279 5.36088 8.75794 5.4093 8.81422 5.37331C8.89045 5.32361 8.95341 5.22322 9.04522 5.13131C9.05317 5.12573 9.06227 5.12006 9.07248 5.11471C9.08699 5.10767 9.18273 5.09442 9.17139 5.0162C9.16958 5.00397 9.13109 4.99749 9.14514 4.97064C9.21344 4.84087 9.32674 4.72161 9.39339 4.57179C9.41696 4.51859 9.35317 4.51324 9.37149 4.45462C9.38999 4.39608 9.43745 4.2845 9.49012 4.23885C9.54315 4.19252 9.59114 4.29949 9.6431 4.21076C9.73822 4.04114 9.81797 3.84247 9.83042 3.58355C9.83223 3.47734 9.83483 3.36052 9.82335 3.21839C9.81659 3.14618 9.80887 3.06835 9.77745 2.9627C9.74645 2.86753 9.67982 2.67861 9.45324 2.57119C9.45287 2.57103 9.4525 2.57087 9.45213 2.57071C9.40888 2.5517 9.46236 2.5412 9.38988 2.50567C9.10527 2.33814 8.46529 2.15597 8.17144 2.22661C7.93512 2.27232 8.22697 2.32522 8.04968 2.34178C7.96655 2.35036 7.87474 2.24665 7.85273 2.24395C7.65019 2.21603 7.51571 2.27545 7.33896 2.28311C7.30297 2.2848 7.33246 2.2378 7.3016 2.23981C7.19446 2.24664 7.08597 2.28372 6.98792 2.29843C6.94307 2.30514 6.94515 2.27151 6.90393 2.28214C6.80886 2.30672 6.72478 2.33914 6.63839 2.39097C6.63049 2.39571 6.69757 2.42157 6.62655 2.43996C6.62231 2.44107 6.61804 2.44222 6.61373 2.44342C6.50161 2.47455 6.37369 2.53683 6.24042 2.54567C6.19939 2.54835 6.17547 2.47728 6.10824 2.5527C6.09415 2.56863 6.14387 2.64629 6.02437 2.60426C6.00484 2.59681 5.80869 2.55396 5.75365 2.647C5.73912 2.67132 5.71315 2.75955 5.66436 2.76638C5.65758 2.76707 5.66739 2.72011 5.62865 2.73118C5.49242 2.77099 5.35741 2.8334 5.21982 2.88367C5.18283 2.89719 5.21827 2.83474 5.16353 2.85628C5.01319 2.9153 4.83723 3.01852 4.70516 3.11049C4.65645 3.14449 4.70919 3.15354 4.7073 3.15895C4.67911 3.24593 4.60246 3.19688 4.57983 3.20522C4.46656 3.24781 4.39792 3.32026 4.31323 3.38522C4.28017 3.41004 4.24915 3.43598 4.21931 3.46211C4.1741 3.50298 4.17687 3.44517 4.16575 3.45131C4.05518 3.52082 4.16919 3.49949 4.12797 3.56017C4.02386 3.72785 3.96087 3.86452 3.90175 3.95957C3.88092 3.99368 3.86242 3.9331 3.84465 3.96285C3.72315 4.14577 3.76027 4.10118 3.70956 4.13829C3.99883 4.12568 4.13191 4.36743 4.14152 4.39959C4.17251 4.47207 4.17115 4.48982 4.17639 4.51587C4.18203 4.55639 4.18076 4.57257 4.18053 4.58613C4.17933 4.61146 4.17725 4.61916 4.17573 4.62674C4.16519 4.65801 4.13498 4.62877 4.12624 4.63218C4.07191 4.61437 4.1627 4.59909 4.16979 4.60461C4.17926 4.6033 4.18535 4.60206 4.18943 4.60032C4.21586 4.57911 4.22059 4.54667 4.2603 4.51239C4.52099 4.28964 4.96541 3.95107 5.26113 3.59013C5.47457 3.33093 5.66562 3.00907 5.6689 2.60871C5.6667 2.40329 5.66515 2.18552 5.6404 1.9371C5.63658 1.90109 5.68719 1.93191 5.6843 1.90035C5.65691 1.62909 5.57768 1.33967 5.41219 1.06946C5.34904 0.966854 5.2849 0.862802 5.21489 0.753208C5.19744 0.726254 5.26041 0.739529 5.23287 0.694654C5.17678 0.602887 5.08576 0.486896 4.98341 0.401572C4.93337 0.360227 4.96678 0.447882 4.91744 0.406873C4.8055 0.314008 4.65772 0.209438 4.50742 0.139659C4.50444 0.138229 4.50131 0.136748 4.49805 0.135223C4.42457 0.102631 4.55892 0.10623 4.45396 0.0661127C4.1609 -0.0274918 3.97533 0.00190226 3.79617 0.0144275C3.52305 0.042655 3.25204 0.084293 2.97685 0.164771C2.9463 0.173656 2.93587 0.267971 2.86837 0.26158C2.85924 0.23734 2.85446 0.207813 2.84775 0.181387C2.3868 0.27937 1.91126 0.275347 1.38075 0.813659C1.28423 0.934977 1.16329 1.07942 1.05359 1.22327C1.03665 1.2454 1.02793 1.1774 0.994815 1.22039C0.804294 1.46861 0.620149 1.72304 0.509792 2.03299C0.501422 2.05659 0.549081 2.07701 0.546065 2.12067C0.545224 2.13351 0.540025 2.14832 0.527855 2.16585C0.518122 2.17892 0.446292 2.3 0.414703 2.32516C0.410074 2.32852 0.384774 2.28819 0.364572 2.32917C0.248172 2.56732 0.158713 2.82978 0.103267 3.08379C0.0944596 3.12463 0.148369 3.0952 0.142448 3.1245C0.100608 3.33043 0.0111546 3.53991 0.000457313 3.73508C-0.00669468 3.86534 0.0763802 3.83774 0.128938 3.9213C0.136373 3.93336 0.117518 4.00812 0.156654 4.02361C0.255366 4.06293 0.377446 4.05638 0.481481 4.10252C0.504338 4.11214 0.446724 4.21461 0.522241 4.16623C0.5278 4.16191 0.568646 4.08886 0.592922 4.0747C0.609762 4.06511 0.644567 4.10017 0.668881 4.07763C0.69332 4.05447 0.666457 4.01595 0.697884 3.97748C0.729485 3.93934 0.771711 3.97 0.79957 3.88599ZM9.94944 6.05012C9.86108 6.03265 9.9371 5.90305 9.99101 5.98993C9.99344 5.99433 9.95399 6.05125 9.94944 6.05012ZM6.40402 11.7361C6.48931 11.6602 6.56453 11.7482 6.50505 11.8069C6.44456 11.8655 6.37766 11.7591 6.40402 11.7361ZM5.4261 11.7303C5.53947 11.6843 5.55403 11.8968 5.42865 11.8479C5.42158 11.845 5.41896 11.7329 5.4261 11.7303ZM0.228912 3.62158C0.230618 3.6228 0.217697 3.67917 0.215529 3.67975C0.161768 3.69725 0.187462 3.58514 0.228912 3.62158ZM4.58219 11.2211C4.62638 11.2243 4.67442 11.3148 4.61949 11.3122C4.57449 11.3096 4.52679 11.2171 4.58219 11.2211ZM7.44561 5.80232C7.44554 5.79993 7.48193 5.78074 7.48659 5.79244C7.50111 5.8305 7.44454 5.84414 7.44561 5.80232ZM3.43961 10.1085C3.47049 10.1237 3.49969 10.1373 3.52799 10.15C3.67342 10.2373 3.80697 10.2013 3.64346 10.0564C3.60818 10.0252 3.67385 10.1681 3.62088 10.1361C3.60249 10.125 3.58863 10.1113 3.57736 10.0962C3.52009 10.0335 3.47171 9.94072 3.36879 9.95335C3.34679 9.9558 3.43432 10.1029 3.43983 10.1089C3.43976 10.1088 3.43969 10.1086 3.43961 10.1085ZM9.80413 6.16446C9.802 6.16485 9.75486 6.13379 9.75461 6.13175C9.75461 6.07377 9.85452 6.13929 9.80413 6.16446ZM9.08098 4.15937C9.07951 4.15476 9.1375 4.04085 9.14216 4.03869C9.24401 4.01411 9.12398 4.25141 9.08098 4.15937ZM10.3749 9.69855C10.3077 9.73346 10.2728 9.79218 10.3042 9.86232C10.3286 9.80767 10.354 9.75375 10.3749 9.69855Z" fill="#397C57"/>
</svg>
