<svg width="9" height="11" viewBox="0 0 9 11" fill="none" xmlns="http://www.w3.org/2000/svg">
<path d="M0.307302 0.000634638C0.391108 0.0167127 0.488961 0.0685142 0.559015 0.116752C0.580952 0.131783 0.558991 0.151605 0.573656 0.16311C0.602529 0.185681 0.637124 0.185632 0.664431 0.210078C0.673402 0.218292 0.644344 0.251751 0.654081 0.259465C0.707232 0.301357 0.768091 0.315423 0.824734 0.349623C1.10428 0.518593 1.37972 0.66972 1.65695 0.836542C1.74855 0.891588 1.84384 0.986205 1.94763 1.02462C1.95978 1.02907 1.97095 0.993141 1.97455 0.991662C2.03061 0.969574 1.98339 1.02846 2.00042 1.04925C2.06753 1.13132 2.16122 1.18864 2.25024 1.22396C2.28827 1.23897 2.29006 1.1553 2.30464 1.21137C2.30568 1.2152 2.27707 1.2438 2.28455 1.253C2.30166 1.27386 2.34592 1.29179 2.36116 1.30443C2.39029 1.32885 2.39595 1.33176 2.42601 1.35022C2.46703 1.37583 2.50644 1.42231 2.55525 1.44167C2.56577 1.44573 2.57409 1.40381 2.59278 1.40722C2.61151 1.41065 2.64981 1.43812 2.65822 1.45443C2.6667 1.47077 2.64442 1.49407 2.64301 1.50169C2.63042 1.56557 2.72101 1.52238 2.72803 1.52431C2.85471 1.56132 2.92114 1.66066 3.02108 1.72523C3.09702 1.77419 3.18651 1.81406 3.2571 1.86379C3.25856 1.86482 3.26002 1.86586 3.26147 1.8669C3.34304 1.92537 3.40162 1.98988 3.48446 2.04157C3.49336 2.04718 3.50963 2.00123 3.52055 2.00801C3.63621 2.07982 3.74504 2.16094 3.83812 2.26558C3.84735 2.27606 3.80918 2.2998 3.81695 2.31227C3.86592 2.38836 3.92348 2.5308 4.07019 2.41498C4.11189 2.45427 4.16301 2.50143 4.18157 2.56104C4.1935 2.59942 4.14094 2.61616 4.1845 2.62509C4.1943 2.62716 4.20887 2.58859 4.22178 2.59411C4.27615 2.61738 4.31775 2.66589 4.37498 2.68508C4.38669 2.68891 4.40617 2.65919 4.4127 2.65623C4.46654 2.63296 4.44937 2.72854 4.45317 2.73958C4.4834 2.82332 4.53767 2.84442 4.5912 2.89079C4.60362 2.9016 4.6193 2.85266 4.6324 2.86179C4.69995 2.90975 4.76205 2.9689 4.80836 3.03831C4.81861 3.05386 4.77932 3.07312 4.78282 3.08209C4.7984 3.12115 4.85555 3.06966 4.87141 3.10631C4.8748 3.11396 4.8483 3.13674 4.84677 3.14049C4.8226 3.19928 4.89365 3.1495 4.89908 3.15195C4.96834 3.18086 4.94138 3.27676 4.99887 3.31421C5.00587 3.3187 5.02281 3.27421 5.04069 3.28883C5.15976 3.38584 5.26587 3.50956 5.34442 3.64283C5.35667 3.6635 5.32126 3.67413 5.31934 3.678C5.28982 3.73905 5.36221 3.69182 5.36986 3.69525C5.42801 3.72323 5.41366 3.81268 5.5161 3.77443C5.66205 3.98517 5.87217 4.14191 5.96203 4.39339C5.96325 4.39652 5.92731 4.41879 5.92986 4.42489C5.96026 4.49883 6.00173 4.44681 6.09538 4.43563C6.11892 4.43285 6.06873 4.52359 6.0654 4.53069C6.05309 4.55676 5.99648 4.58587 5.9952 4.59229C5.98624 4.64403 6.14303 4.51008 6.17295 4.54721C6.17362 4.54859 6.14012 4.56746 6.13968 4.57294C6.13946 4.57553 6.13972 4.57773 6.14031 4.57966C6.14392 4.59088 6.1579 4.59377 6.15578 4.60906C6.14989 4.65085 6.07517 4.71774 6.1472 4.71764C6.1565 4.71772 6.24646 4.64203 6.268 4.68236C6.2765 4.69796 6.32225 4.76381 6.32706 4.7868C6.33218 4.80961 6.29207 4.81628 6.29153 4.81852C6.27901 4.89425 6.24973 4.88586 6.19973 4.94667C6.14904 5.0063 6.29826 4.91425 6.32116 4.91522C6.34417 4.91635 6.32787 4.97352 6.31955 4.98894C6.31143 5.00452 6.28435 5.00405 6.28118 5.0157C6.25994 5.09179 6.37087 5.00082 6.40484 5.00707C6.48568 5.02374 6.38242 5.1121 6.38637 5.15557C6.38754 5.16761 6.41143 5.14772 6.4179 5.15638C6.44312 5.19133 6.41363 5.2281 6.46414 5.26021C6.47228 5.26506 6.55892 5.27757 6.51172 5.31897C6.50486 5.32478 6.47103 5.32504 6.46931 5.34394C6.46667 5.37202 6.47272 5.41851 6.49038 5.44283C6.5034 5.46055 6.54894 5.42402 6.53956 5.45353C6.5353 5.4666 6.49974 5.45378 6.49419 5.47749C6.48869 5.50104 6.50277 5.55393 6.50822 5.57385C6.51382 5.59384 6.55087 5.57404 6.5539 5.57507C6.57141 5.58159 6.59902 5.61772 6.5996 5.62102C6.64076 5.79772 6.59544 5.97061 6.6379 6.13751C6.64115 6.15057 6.68252 6.1368 6.68345 6.13874C6.7065 6.18244 6.5896 6.15935 6.55548 6.19548C6.64103 6.18113 6.62761 6.20176 6.64062 6.23335C6.64692 6.24817 6.67935 6.2362 6.68292 6.23722C6.73606 6.25457 6.67233 6.27772 6.65938 6.28324C6.61175 6.30368 6.67169 6.31427 6.63985 6.3282C6.60826 6.34207 6.55733 6.323 6.56117 6.35411C6.59289 6.35947 6.67118 6.32853 6.68662 6.35036C6.74519 6.43369 6.69776 6.60524 6.69797 6.67669C6.69824 6.74853 6.70604 6.76982 6.69895 6.81277C6.68605 6.88933 6.74318 6.85571 6.77512 6.89921C6.80711 6.94293 6.65767 6.93505 6.62669 6.94489C6.59572 6.95465 6.629 6.95864 6.61244 6.96866C6.59589 6.97863 6.57259 6.963 6.56799 6.98295C6.56334 7.00234 6.62492 7.04871 6.65871 7.05214C6.73027 7.05931 6.80135 7.028 6.78079 7.08149C6.77956 7.08459 6.73988 7.07909 6.73714 7.09074C6.71646 7.18116 6.72466 7.27337 6.70853 7.36451C6.70627 7.37717 6.66202 7.3712 6.66022 7.37864C6.64136 7.45582 6.7107 7.4204 6.79595 7.45082C6.6878 7.45475 6.62482 7.48446 6.63118 7.54115C6.63501 7.57549 6.68097 7.56321 6.71662 7.5806C6.72736 7.58574 6.69826 7.61334 6.72079 7.61482C6.79445 7.61974 6.87194 7.58703 6.84737 7.64842C6.84617 7.65114 6.80581 7.64824 6.80458 7.65728C6.79651 7.7164 6.87232 7.71178 6.88966 7.77076C6.9033 7.81736 6.86948 7.90728 6.8701 7.9623C6.74993 7.97881 6.78517 8.02666 6.871 8.03466C6.87286 8.0695 6.88337 8.10622 6.87735 8.14193C6.87532 8.15422 6.83943 8.15208 6.83591 8.15415C6.78076 8.18621 6.86359 8.18876 6.86797 8.19587C6.87008 8.19959 6.87197 8.20332 6.87367 8.20706C6.90539 8.27838 6.86596 8.35138 6.93957 8.40757C6.9424 8.40977 7.02477 8.39214 6.97056 8.42719C6.96686 8.42967 6.92319 8.41549 6.92984 8.45074C6.93624 8.48543 6.91402 8.56531 6.96827 8.59962C6.98131 8.6081 7.05565 8.61172 7.01487 8.65366C7.00934 8.65937 6.98556 8.66496 6.97484 8.67438C6.94096 8.70498 7.02286 8.68035 6.96312 8.72497C6.90341 8.76961 6.86992 8.82931 6.93788 8.85665C6.93994 8.85763 7.00624 8.84009 7.01238 8.85526C7.02197 8.8793 7.02617 8.91908 7.03917 8.94307C7.04545 8.95461 7.07871 8.92776 7.08044 8.92942C7.14159 8.99524 7.13923 9.06676 7.17434 9.15601C7.18085 9.17268 7.2552 9.18418 7.23494 9.23624C7.2132 9.29374 7.01948 9.37368 7.10845 9.41983C7.14491 9.43933 7.38454 9.32805 7.3081 9.45494C7.40383 9.53364 7.41337 9.66325 7.52424 9.72979C7.5292 9.7328 7.59738 9.70204 7.6043 9.71267C7.61426 9.72827 7.59356 9.75717 7.59997 9.76911C7.62631 9.81986 7.68085 9.84208 7.71067 9.88686C7.72121 9.90252 7.69518 9.91754 7.70146 9.93574C7.7023 9.93766 7.70318 9.93932 7.70437 9.941C7.71871 9.96105 7.76454 9.9435 7.76891 9.98314C7.77209 10.0132 7.71655 10.0939 7.73032 10.1267C7.80174 10.0664 7.81525 10.0849 7.86057 10.0991C7.86928 10.1018 7.88822 10.0741 7.89359 10.0742C7.91605 10.0743 7.90495 10.1025 7.92805 10.101C7.93362 10.1007 7.95759 10.0796 7.96348 10.0781C8.01432 10.0646 7.9871 10.1417 7.9824 10.1552C7.96458 10.2063 8.00355 10.1874 8.00314 10.2148C8.00275 10.2421 7.96537 10.2358 7.97273 10.2607C7.9881 10.3124 8.03426 10.3547 8.06673 10.3917C8.07984 10.4064 8.10187 10.3675 8.10447 10.3689C8.14 10.3912 8.13495 10.4521 8.21226 10.4105C8.07136 10.5811 8.2445 10.4138 8.2521 10.4862C8.25262 10.4919 8.18091 10.5671 8.15777 10.5647C8.13468 10.5623 8.1402 10.5208 8.1062 10.5193C8.09822 10.5189 8.0046 10.5612 7.99722 10.5619C7.93935 10.5674 8.04927 10.4579 8.05422 10.4507C8.10698 10.3726 8.0028 10.4144 7.99019 10.4114C7.93261 10.3981 7.92044 10.3527 7.87529 10.3383C7.84589 10.3287 7.76887 10.395 7.75682 10.377C7.71668 10.3171 7.8067 10.2051 7.67035 10.236C7.64123 10.2425 7.56687 10.3263 7.59881 10.2299C7.60076 10.2238 7.63631 10.1428 7.58367 10.1589C7.57703 10.1609 7.5525 10.182 7.54804 10.181C7.51857 10.1735 7.52763 10.1444 7.50098 10.1319C7.49432 10.1288 7.48713 10.1256 7.4799 10.1221C7.45392 10.1056 7.43259 10.0921 7.42497 10.0692C7.41891 10.051 7.45142 9.99482 7.45771 9.97893C7.47595 9.93332 7.40488 9.95552 7.43601 9.91166C7.46748 9.8678 7.54782 9.84321 7.54985 9.7912C7.48243 9.84143 7.41205 9.89146 7.34364 9.94118C7.2913 9.86849 7.26005 9.7818 7.20401 9.71108C7.19695 9.70229 7.16716 9.73818 7.15863 9.72941C7.12296 9.6924 7.12336 9.63743 7.08244 9.60103C7.05082 9.57323 6.98554 9.56239 6.95116 9.5324C7.01643 9.45692 6.95413 9.42124 6.93641 9.37632C6.93018 9.36065 6.95258 9.348 6.95355 9.33368C6.95698 9.28019 6.89522 9.34193 6.87741 9.33848C6.80104 9.32254 6.96373 9.21991 6.92967 9.17037C6.92795 9.16785 6.81897 9.18346 6.81061 9.18147C6.75699 9.17057 6.839 9.15909 6.83497 9.13603C6.82778 9.09388 6.83652 9.05818 6.78837 9.02964C6.77418 9.02134 6.70179 9.01933 6.73448 8.97293C6.73878 8.96689 6.77024 8.95412 6.77081 8.95068C6.77892 8.89022 6.68172 8.93323 6.63615 8.91963C6.59047 8.90572 6.63974 8.8326 6.65599 8.81606C6.69746 8.77237 6.68487 8.82497 6.69039 8.82405C6.75549 8.81384 6.73245 8.78737 6.72815 8.76162C6.82384 8.71976 6.80583 8.6904 6.72345 8.73525C6.71448 8.74027 6.73069 8.75514 6.72815 8.76162C6.62479 8.77894 6.59688 8.74288 6.67289 8.66974C6.70874 8.63566 6.76407 8.63734 6.72723 8.58576C6.71075 8.56213 6.64526 8.59377 6.61914 8.57505C6.55933 8.53146 6.60538 8.44016 6.58345 8.38445C6.57538 8.36381 6.54098 8.39248 6.53413 8.3784C6.51583 8.34048 6.53903 8.30049 6.51842 8.26263C6.51666 8.25944 6.48322 8.27159 6.47594 8.26383C6.47646 8.27106 6.47602 8.27032 6.47582 8.2694C6.4572 8.18457 6.47244 8.11103 6.45989 8.02175C6.45388 7.97923 6.42073 7.90842 6.41905 7.863C6.41606 7.78622 6.46311 7.68474 6.44059 7.62253C6.42609 7.58203 6.38638 7.59643 6.35622 7.58148C6.29774 7.55245 6.38712 7.47895 6.40117 7.46911C6.40163 7.46878 6.41559 7.5037 6.4343 7.48194C6.47673 7.46554 6.40141 7.4695 6.40117 7.46911C6.41023 7.4629 6.41099 7.38888 6.40154 7.37529C6.39637 7.36793 6.35807 7.37675 6.35611 7.37283C6.3104 7.28049 6.29005 7.18404 6.29804 7.08309C6.29865 7.08128 6.34237 7.07942 6.34325 7.07522C6.35679 7.01679 6.3 6.98576 6.26378 6.94183C6.22762 6.89836 6.23462 6.86045 6.30654 6.82526C6.2937 6.79057 6.32199 6.73843 6.33916 6.7067C6.35638 6.67565 6.27137 6.67984 6.26945 6.67744C6.20839 6.60447 6.25235 6.55294 6.25183 6.47092C6.2517 6.43152 6.23165 6.3566 6.21794 6.31612C6.20702 6.28459 6.22465 6.26251 6.20859 6.23381C6.20644 6.22994 6.16929 6.2383 6.1677 6.23722C6.11892 6.20911 6.21268 6.21459 6.22831 6.20581C6.28515 6.17419 6.31514 6.15466 6.28178 6.11508C6.27412 6.10584 6.13836 6.09431 6.12838 6.07819C6.11555 6.05646 6.16405 6.05881 6.14935 6.0364C6.14813 6.0345 6.119 6.03885 6.11827 6.02411C6.11458 5.95621 6.12016 5.88012 6.10501 5.81318C6.10306 5.8041 6.0592 5.8241 6.05565 5.81127C6.03877 5.74991 6.02678 5.68474 6.03397 5.62252C6.03585 5.60711 6.06979 5.60803 6.07846 5.60261C6.1307 5.56893 6.04092 5.56373 6.03823 5.56015C5.97093 5.46997 6.01877 5.37028 5.94372 5.28884C5.93928 5.2838 5.83933 5.28492 5.90192 5.23442C5.9062 5.23125 5.96969 5.17813 5.91297 5.18802C5.90946 5.18874 5.87794 5.2178 5.87248 5.19811C5.86677 5.17801 5.8277 5.16413 5.85278 5.11727C5.86083 5.10274 5.91793 5.04191 5.84923 5.05303C5.84406 5.05304 5.70203 5.09981 5.77643 5.03237C5.78861 5.02122 5.87691 4.96303 5.8135 4.96719C5.80133 4.96824 5.78879 4.99105 5.76738 4.98652C5.73629 4.98043 5.7374 4.94103 5.68883 4.94189C5.68628 4.94171 5.68362 4.94162 5.68083 4.94163C5.67025 4.94173 5.59726 4.96521 5.62582 4.91409C5.63029 4.90608 5.66178 4.88902 5.65757 4.87754C5.63783 4.82304 5.58331 4.79347 5.56659 4.73487C5.56068 4.71424 5.61099 4.68576 5.60968 4.66023C5.60853 4.63489 5.59298 4.59322 5.55903 4.5932C5.52517 4.59329 5.4707 4.66955 5.44449 4.64958C5.33092 4.56329 5.28156 4.4245 5.19481 4.31545C5.18202 4.29938 5.16909 4.33362 5.1486 4.31166C5.0723 4.22957 4.92036 4.11085 4.90341 3.99439C4.88902 3.9 4.98755 3.94134 4.96208 3.88271C4.94955 3.8544 4.85262 3.90626 4.84554 3.9038C4.77426 3.87951 4.77496 3.81427 4.72136 3.78176C4.71037 3.77517 4.68919 3.81426 4.6802 3.80835C4.6493 3.78852 4.63555 3.74872 4.60808 3.72733C4.59575 3.71787 4.5753 3.7435 4.5668 3.73195C4.54632 3.70474 4.53375 3.67413 4.53029 3.62916C4.52995 3.62505 4.57259 3.60919 4.55509 3.5909C4.52696 3.56165 4.50926 3.5046 4.45353 3.49652C4.43689 3.49421 4.38686 3.54955 4.39872 3.49114C4.40119 3.47895 4.46657 3.41708 4.38908 3.45197C4.37602 3.45757 4.26376 3.49809 4.28608 3.42853C4.29197 3.41021 4.32501 3.3419 4.30471 3.33974C4.30179 3.33967 4.28267 3.37605 4.26961 3.37005C4.22382 3.34823 4.18747 3.3122 4.14059 3.28989C4.12806 3.28403 4.1171 3.32872 4.09932 3.31902C4.05051 3.29248 4.00396 3.2415 3.96983 3.19806C3.95729 3.18198 3.9893 3.16346 3.99049 3.15964C4.00978 3.0974 3.94819 3.15348 3.93922 3.15254C3.88381 3.14568 3.87852 3.09295 3.83694 3.07412C3.82555 3.06887 3.80878 3.10529 3.80472 3.1066C3.76406 3.11855 3.8215 3.07388 3.81344 3.05805C3.791 3.01355 3.7487 2.98589 3.70918 2.96296C3.69459 2.95456 3.68278 3.00224 3.67003 2.99431C3.59396 2.94801 3.52186 2.89081 3.46473 2.81978C3.45414 2.80643 3.4827 2.78382 3.48452 2.77532C3.49744 2.71606 3.42506 2.75835 3.41436 2.75972C3.36539 2.76589 3.37175 2.73266 3.34202 2.71905C3.19679 2.65314 3.04645 2.52688 2.92842 2.43284C2.91859 2.42502 2.9089 2.41722 2.89934 2.40944C2.76219 2.29753 2.65786 2.19559 2.50744 2.10997C2.49728 2.10415 2.48244 2.14977 2.47334 2.14525C2.35722 2.08521 2.25763 2.00242 2.13911 1.94673C2.12941 1.94208 2.11989 1.98779 2.10359 1.98163C2.06999 1.96925 2.03336 1.9446 2.00982 1.91431C1.99836 1.89965 2.03765 1.87895 2.02569 1.86484C1.99791 1.83194 1.96188 1.80716 1.92213 1.79223C1.90522 1.786 1.90572 1.83842 1.88554 1.8273C1.74742 1.75235 1.61005 1.68406 1.49856 1.55729C1.49093 1.5486 1.52623 1.46352 1.49726 1.46789C1.48367 1.48945 1.4696 1.51584 1.45606 1.53942C1.2481 1.44431 1.06217 1.31414 0.857947 1.21201C0.849378 1.20774 0.843548 1.25868 0.826903 1.25067C0.730104 1.20421 0.630744 1.17368 0.550048 1.08574C0.542042 1.07711 0.58122 1.00098 0.546426 0.999976C0.540207 0.999823 0.491351 0.991242 0.47265 1.00348C0.469995 1.00539 0.462528 1.04552 0.44773 1.04051C0.362567 1.01098 0.278921 0.967095 0.204526 0.912071C0.192416 0.903072 0.222226 0.869101 0.2137 0.862339C0.153162 0.814698 0.0674968 0.817295 0.014449 0.757581C-0.0207937 0.717597 0.0195493 0.654039 0.0193133 0.577459C0.0192224 0.566624 -0.00828608 0.555459 0.00382829 0.515202C0.0341237 0.413874 0.0855384 0.309156 0.116245 0.200607C0.122846 0.177196 0.0749307 0.18855 0.117163 0.140954C0.120037 0.13777 0.155183 0.129212 0.168877 0.112915C0.17837 0.101645 0.183271 0.0581171 0.19929 0.0450297C0.215342 0.0319767 0.214895 0.0697496 0.238775 0.0562252C0.262583 0.0424293 0.271313 -0.00610715 0.307302 0.000634638ZM6.41613 6.568C6.45417 6.53723 6.30494 6.54778 6.34336 6.57326C6.3454 6.57448 6.41427 6.56958 6.41613 6.568ZM7.3513 9.71467C7.3828 9.64649 7.29035 9.68437 7.26435 9.735C7.23866 9.78591 7.34183 9.73543 7.3513 9.71467ZM7.61494 9.9774C7.62988 9.91264 7.45955 10.0391 7.52103 10.0476C7.52456 10.0481 7.6141 9.98119 7.61494 9.9774ZM0.13787 0.597792C0.138197 0.59579 0.11859 0.586619 0.117446 0.588306C0.0905913 0.629091 0.12954 0.647295 0.13787 0.597792ZM7.89501 10.2212C7.90767 10.1924 7.85832 10.1869 7.8424 10.2226C7.82965 10.2514 7.87928 10.2571 7.89501 10.2212ZM6.31917 5.18408C6.32109 5.18286 6.31707 5.16776 6.30554 5.17289C6.26849 5.18939 6.28702 5.20452 6.31917 5.18408ZM8.31577 10.6711C8.25996 10.5994 8.34994 10.4392 8.40334 10.5254C8.41297 10.5409 8.33604 10.5351 8.34011 10.5626C8.34751 10.6127 8.44706 10.5583 8.43289 10.6297C8.43015 10.6426 8.3187 10.6755 8.31548 10.6711C8.31558 10.6711 8.31568 10.6711 8.31577 10.6711ZM6.59342 6.5352C6.59533 6.53446 6.59511 6.51281 6.59311 6.5125C6.54473 6.5055 6.54514 6.54906 6.59342 6.5352ZM5.89382 4.37513C5.89626 4.37145 5.86675 4.32989 5.86273 4.33118C5.78629 4.36073 5.84544 4.44446 5.89382 4.37513ZM6.86703 7.96363C6.91771 7.97979 6.92752 8.00707 6.87105 8.03455C6.87068 8.01103 6.86756 7.98724 6.86703 7.96363Z" fill="#963076"/>
</svg>
