<svg width="7" height="9" viewBox="0 0 7 9" fill="none" xmlns="http://www.w3.org/2000/svg">
<path d="M5.59833 0.0714363C5.57741 0.127711 5.57965 0.205581 5.58887 0.266646C5.59172 0.285725 5.61938 0.280913 5.62249 0.294344C5.62851 0.320654 5.61173 0.341338 5.61949 0.367785C5.62219 0.376568 5.66531 0.373914 5.66718 0.382994C5.67711 0.432789 5.65827 0.475006 5.65772 0.523703C5.65486 0.764344 5.61409 0.996187 5.56345 1.23285C5.54679 1.31081 5.5537 1.41506 5.5114 1.48812C5.50644 1.4966 5.47337 1.47936 5.46991 1.48012C5.41672 1.49218 5.4902 1.50713 5.49346 1.5281C5.50617 1.61126 5.48085 1.69113 5.44202 1.7532C5.42537 1.77957 5.36794 1.72484 5.39533 1.76815C5.39716 1.77114 5.43647 1.77794 5.43735 1.78728C5.43929 1.80842 5.4196 1.83953 5.41703 1.85438C5.41225 1.8831 5.41011 1.88736 5.40043 1.91245C5.3875 1.94685 5.3886 1.99491 5.36492 2.02782C5.35977 2.03478 5.32724 2.00881 5.31571 2.01843C5.3042 2.02805 5.29327 2.06185 5.29711 2.07657C5.30098 2.0913 5.33189 2.09934 5.33765 2.10419C5.38642 2.14491 5.29232 2.1484 5.28828 2.15221C5.21631 2.22514 5.22452 2.31989 5.18387 2.40121C5.15298 2.46275 5.10506 2.52062 5.07609 2.57906C5.04168 2.64877 5.02836 2.71708 4.98708 2.78078C4.98276 2.78751 4.94669 2.75573 4.94136 2.76385C4.88472 2.85012 4.83591 2.93933 4.80665 3.043C4.80374 3.05343 4.84575 3.06478 4.84488 3.07659C4.84311 3.09733 4.84285 3.12288 4.83913 3.14715C4.82851 3.20916 4.79943 3.26143 4.67712 3.21407C4.65802 3.25611 4.63461 3.30553 4.64397 3.35809C4.64945 3.39277 4.7011 3.39588 4.66763 3.41234C4.66014 3.41606 4.63195 3.38685 4.62322 3.39406C4.58642 3.42461 4.57165 3.47169 4.53002 3.49937C4.52156 3.50481 4.49296 3.4838 4.48619 3.48259C4.43087 3.47349 4.48414 3.54915 4.48536 3.5589C4.49236 3.63487 4.45474 3.66102 4.4262 3.70963C4.41963 3.72088 4.38716 3.68288 4.37937 3.69283C4.33996 3.74405 4.3082 3.80442 4.29451 3.86851C4.29134 3.8832 4.33284 3.89271 4.3331 3.9008C4.33389 3.93614 4.26475 3.90274 4.26454 3.93556C4.26443 3.9424 4.29599 3.95715 4.29872 3.96003C4.34159 4.00499 4.2613 3.97443 4.25743 3.97731C4.20651 4.01359 4.26619 4.08688 4.22804 4.12805C4.22346 4.13284 4.19266 4.09839 4.1821 4.1132C4.11167 4.21149 4.05998 4.32893 4.03426 4.45013C4.03018 4.46899 4.06547 4.47305 4.06848 4.47602C4.11533 4.52284 4.03478 4.49301 4.02913 4.49675C3.98601 4.5282 4.0288 4.5997 3.92381 4.58155C3.86082 4.77572 3.72073 4.92833 3.71182 5.14414C3.71161 5.14683 3.75089 5.16206 3.75032 5.16735C3.74357 5.23168 3.69107 5.19141 3.60224 5.1895C3.57994 5.18901 3.65102 5.26036 3.65597 5.26604C3.67437 5.28678 3.73418 5.30701 3.7371 5.31225C3.7591 5.35504 3.5792 5.25443 3.56223 5.28589C3.562 5.28704 3.59764 5.30087 3.59953 5.30532C3.60546 5.31927 3.58772 5.32039 3.59479 5.33473C3.61126 5.36765 3.69535 5.4227 3.62846 5.42312C3.61985 5.423 3.5207 5.36087 3.50997 5.39126C3.50575 5.40361 3.47613 5.45122 3.47464 5.46856C3.47322 5.48592 3.51114 5.49575 3.51199 5.49753C3.53309 5.55973 3.55908 5.55631 3.61101 5.61313C3.66238 5.67018 3.51574 5.57395 3.49451 5.57121C3.49093 5.57075 3.48849 5.57174 3.48694 5.57377C3.47905 5.58415 3.49275 5.62005 3.49946 5.63186C3.50754 5.64607 3.53311 5.65013 3.53635 5.66034C3.55726 5.72756 3.45144 5.63249 3.4197 5.63113C3.34454 5.62792 3.44085 5.71977 3.43471 5.75453C3.43303 5.76396 3.41147 5.74241 3.40499 5.74779C3.37949 5.76955 3.40439 5.80681 3.35404 5.81839C3.34589 5.82019 3.26375 5.80517 3.30325 5.85081C3.30898 5.85735 3.34065 5.86751 3.33994 5.8828C3.33895 5.90563 3.32642 5.94036 3.30599 5.95344C3.29092 5.96305 3.2545 5.91996 3.25842 5.94572C3.2602 5.95718 3.29548 5.95899 3.29659 5.97918C3.29779 5.9992 3.27466 6.03529 3.26544 6.04867C3.25619 6.06201 3.22596 6.03367 3.22295 6.03339C3.20546 6.03222 3.17285 6.04879 3.17144 6.05126C3.09619 6.16783 3.08943 6.31252 3.00036 6.41604C2.99343 6.42418 2.96056 6.39605 2.95912 6.39706C2.92514 6.41861 3.03694 6.45314 3.05631 6.49445C2.98417 6.44634 2.98981 6.4673 2.96844 6.48411C2.95808 6.49216 2.93292 6.46899 2.92941 6.46816C2.87647 6.4571 2.92605 6.50214 2.93583 6.51196C2.9718 6.54805 2.91501 6.52872 2.93893 6.55301C2.96262 6.57722 3.01403 6.58659 3.00065 6.60716C2.97065 6.59674 2.91113 6.53883 2.89024 6.5477C2.81155 6.58099 2.79656 6.72449 2.77165 6.77535C2.74706 6.82592 2.73233 6.83799 2.72394 6.87136C2.70863 6.93167 2.67017 6.88068 2.62721 6.89572C2.58419 6.9107 2.71703 6.9781 2.74057 7.00013C2.76411 7.02211 2.73374 7.00867 2.74464 7.02379C2.75554 7.03891 2.78134 7.03926 2.77826 7.05562C2.77515 7.07206 2.70487 7.07497 2.67439 7.06061C2.6098 7.03027 2.55919 6.97334 2.55825 7.02067C2.55823 7.02343 2.5945 7.03933 2.59278 7.04878C2.57799 7.12318 2.53767 7.18352 2.51794 7.2556C2.51526 7.26556 2.55531 7.28408 2.55413 7.29019C2.54176 7.35392 2.49524 7.29391 2.41132 7.27102C2.50213 7.32963 2.54458 7.38335 2.51796 7.41962C2.50198 7.44138 2.46728 7.40916 2.43042 7.40269C2.41934 7.40071 2.43346 7.43539 2.41382 7.42456C2.34965 7.3891 2.2964 7.32562 2.29428 7.38081C2.29427 7.38331 2.32938 7.40278 2.32705 7.40965C2.31193 7.4543 2.24937 7.41129 2.21257 7.44231C2.18384 7.46649 2.17732 7.54681 2.15536 7.58406C2.24843 7.66187 2.20037 7.67533 2.12663 7.63264C2.11116 7.65569 2.08776 7.67507 2.07865 7.70257C2.07546 7.71204 2.10563 7.73099 2.10768 7.73438C2.13996 7.78753 2.07134 7.74209 2.06501 7.74432C1.99868 7.77117 2.0072 7.85212 1.92081 7.8547C1.91769 7.8548 1.85492 7.79854 1.88747 7.85324C1.88946 7.85654 1.92201 7.86633 1.91735 7.88426L1.93318 7.87154C1.93195 7.87379 1.93 7.87603 1.92717 7.87821C1.90375 7.89631 1.88016 7.96392 1.82518 7.95161C1.81171 7.9488 1.75517 7.90309 1.76584 7.95898C1.76726 7.96659 1.78222 7.98579 1.78579 7.99933C1.79697 8.04257 1.74748 7.97295 1.77194 8.04257C1.79663 8.11204 1.79691 8.17488 1.736 8.15256C1.7341 8.15199 1.69164 8.09861 1.68099 8.10599C1.66419 8.11773 1.64519 8.14478 1.62632 8.15491C1.61726 8.15975 1.60242 8.12001 1.60049 8.12022C1.52857 8.13367 1.50355 8.18999 1.44489 8.23894C1.43425 8.24796 1.37361 8.21489 1.37017 8.26706C1.366 8.32427 1.48502 8.49528 1.40019 8.48189C1.36501 8.47695 1.22544 8.25427 1.2365 8.39718C1.13727 8.40415 1.07814 8.5015 0.970654 8.48394C0.965919 8.48316 0.932407 8.41708 0.923644 8.42055C0.910554 8.42588 0.911273 8.4609 0.901692 8.46568C0.861144 8.48661 0.815713 8.46627 0.775543 8.47681C0.759973 8.4807 0.77032 8.51487 0.751111 8.51923C0.741627 8.52129 0.732544 8.51172 0.723321 8.5041C0.715109 8.4946 0.706006 8.48725 0.69157 8.49747C0.670882 8.51265 0.639016 8.6044 0.60882 8.61119C0.621119 8.5185 0.602441 8.51791 0.575094 8.48797C0.569921 8.48218 0.582129 8.45132 0.580011 8.44694C0.571656 8.42839 0.556189 8.45287 0.548787 8.43278C0.547052 8.42796 0.553247 8.39665 0.552241 8.39095C0.544081 8.34139 0.500036 8.40508 0.491634 8.41593C0.4611 8.45758 0.461377 8.41489 0.441727 8.42924C0.421922 8.44351 0.439013 8.47196 0.418307 8.4784C0.374919 8.49158 0.327845 8.47299 0.28983 8.46303C0.274633 8.45884 0.297289 8.42118 0.295398 8.41963C0.268042 8.40007 0.222937 8.43319 0.232424 8.347C0.142875 8.54854 0.220698 8.32087 0.163865 8.34793C0.159395 8.35015 0.121142 8.44674 0.129607 8.46574C0.13823 8.48477 0.168891 8.46087 0.180025 8.4895C0.182706 8.49627 0.178365 8.59706 0.180458 8.60389C0.194769 8.65673 0.244918 8.50983 0.248767 8.50212C0.291887 8.41929 0.29262 8.52882 0.299268 8.53827C0.328387 8.58129 0.367236 8.56923 0.394175 8.60049C0.412034 8.62075 0.390169 8.71995 0.408906 8.72122C0.472409 8.72529 0.517926 8.59007 0.553787 8.72104C0.561791 8.74884 0.531911 8.85686 0.592248 8.77752C0.596434 8.7726 0.640426 8.69794 0.655165 8.75012C0.657086 8.75671 0.653748 8.7889 0.656974 8.79195C0.673436 8.80685 0.688144 8.7967 0.704918 8.79662C0.714051 8.79639 0.741064 8.79764 0.750052 8.796C0.755613 8.7951 0.761623 8.79523 0.768566 8.79758C0.796613 8.80704 0.831352 8.82082 0.859483 8.80478C0.876288 8.79525 0.887095 8.73163 0.891527 8.71561C0.904691 8.66949 0.943499 8.73192 0.944992 8.67848C0.94511 8.62507 0.902127 8.55499 0.925282 8.51448C0.947863 8.59546 0.972878 8.67809 0.996978 8.75915C1.07641 8.73473 1.14093 8.68372 1.21372 8.65936C1.22289 8.65636 1.23014 8.70206 1.24054 8.69985C1.28385 8.69045 1.30648 8.64598 1.35165 8.64004C1.38688 8.6355 1.44077 8.66336 1.47864 8.65863C1.45659 8.56264 1.51724 8.56934 1.5467 8.54444C1.55694 8.53582 1.54448 8.51333 1.5489 8.50165C1.56577 8.45807 1.59015 8.54112 1.60488 8.54856C1.66825 8.57984 1.58119 8.40827 1.62517 8.38997C1.62728 8.38906 1.70331 8.46442 1.71031 8.46784C1.75442 8.4911 1.69722 8.43431 1.70828 8.41955C1.72831 8.39262 1.73504 8.36078 1.78098 8.3692C1.7946 8.37169 1.84819 8.41467 1.84116 8.3616C1.84024 8.35465 1.82197 8.32606 1.82284 8.32326C1.83998 8.27503 1.89406 8.36674 1.93189 8.38635C1.96993 8.40583 1.96152 8.32524 1.95675 8.30339C1.94435 8.24692 1.93267 8.29049 1.92909 8.28635C1.88639 8.23726 1.91341 8.23401 1.92695 8.21956C1.8755 8.12865 1.90101 8.12059 1.94094 8.20509C1.94525 8.21435 1.9277 8.21355 1.92695 8.21956C1.99358 8.29908 2.02642 8.2946 2.00365 8.1963C1.99306 8.15017 1.95351 8.11308 2.00244 8.10547C2.02429 8.10215 2.05535 8.16748 2.08117 8.17456C2.09644 8.17871 2.10855 8.176 2.11886 8.16944C2.12926 8.1616 2.15999 8.13987 2.16823 8.12979C2.19308 8.10396 2.19475 8.05188 2.22281 8.03352C2.23658 8.02449 2.25454 8.06285 2.26498 8.05755C2.29287 8.04345 2.2885 8.00469 2.31945 7.99322C2.3223 7.9922 2.34834 8.02481 2.35492 8.01837C2.40535 7.97003 2.4255 7.90724 2.47175 7.85184C2.49408 7.8252 2.55158 7.79167 2.57082 7.76072C2.60472 7.70707 2.60488 7.60999 2.64845 7.57705C2.67685 7.55529 2.70501 7.58626 2.73641 7.59135C2.79739 7.60111 2.74985 7.50167 2.74159 7.48739C2.74132 7.48694 2.71582 7.50499 2.70827 7.47966C2.67833 7.44604 2.74123 7.48756 2.74159 7.48739C2.73648 7.478 2.76389 7.42477 2.7771 7.41984C2.78433 7.41719 2.81388 7.44297 2.81706 7.44115C2.89199 7.39714 2.94618 7.33701 2.9763 7.26029C2.97645 7.25868 2.93914 7.23586 2.93992 7.23239C2.94981 7.18327 3.01057 7.18854 3.0582 7.17414C3.1058 7.15973 3.11367 7.12827 3.06309 7.06854C3.08668 7.04964 3.08107 6.99715 3.07676 6.96654C3.07246 6.93593 3.14592 6.97883 3.14846 6.97798C3.22863 6.95215 3.20748 6.89432 3.23628 6.83365C3.24989 6.80467 3.29336 6.7576 3.31913 6.73324C3.33963 6.71407 3.33109 6.68977 3.35494 6.67506C3.35814 6.67307 3.38873 6.69562 3.39051 6.6955C3.44364 6.69527 3.35759 6.65867 3.34642 6.64521C3.30578 6.59632 3.28498 6.56887 3.32751 6.55311C3.33724 6.54952 3.46365 6.59792 3.47803 6.58912C3.4965 6.57758 3.45178 6.55927 3.47216 6.5478C3.47386 6.54681 3.49897 6.56224 3.50427 6.55087C3.52925 6.49826 3.54686 6.43532 3.58015 6.38526C3.58458 6.37841 3.61936 6.41133 3.62642 6.40181C3.65959 6.35701 3.68907 6.30414 3.69792 6.24664C3.69992 6.23249 3.66758 6.22281 3.66071 6.21538C3.61923 6.17016 3.70538 6.19251 3.70889 6.18981C3.79446 6.12667 3.76679 6.02253 3.84976 5.95664C3.85441 5.95312 3.95433 5.965 3.8968 5.90851C3.89298 5.90472 3.83393 5.84722 3.88929 5.86199C3.89275 5.86293 3.92208 5.89425 3.92889 5.87504C3.93137 5.86805 3.93828 5.86189 3.94491 5.85461C3.95758 5.84013 3.96944 5.82184 3.95449 5.79039C3.9472 5.77464 3.88948 5.71488 3.95887 5.72258C3.96354 5.72349 4.11102 5.75682 4.03203 5.69389C4.01898 5.68359 3.92588 5.63408 3.98926 5.63155C4.00152 5.63108 4.01642 5.65269 4.03746 5.64508C4.06994 5.63326 4.06134 5.59012 4.11769 5.58457C4.12757 5.58378 4.20179 5.5969 4.16262 5.55478C4.15648 5.5482 4.12278 5.53658 4.12391 5.52604C4.12895 5.4762 4.17207 5.44443 4.17171 5.39197C4.17155 5.37361 4.11714 5.35492 4.11131 5.3329C4.10554 5.31078 4.10795 5.2739 4.13909 5.27013C4.1703 5.26625 4.2423 5.32476 4.26086 5.30438C4.34103 5.21661 4.34374 5.09362 4.38814 4.99107C4.39474 4.97581 4.41733 5.00275 4.42901 4.98161C4.47241 4.903 4.57076 4.783 4.54743 4.68209C4.52838 4.60174 4.45429 4.64952 4.45725 4.59729C4.45885 4.57205 4.56358 4.60062 4.56897 4.59775C4.62411 4.56778 4.60202 4.51162 4.63814 4.47686C4.64568 4.46959 4.67803 4.49922 4.68403 4.49281C4.70509 4.47068 4.70315 4.4356 4.7201 4.41312C4.72777 4.40312 4.75492 4.42142 4.75849 4.41017C4.76767 4.38295 4.76724 4.35634 4.75445 4.31755C4.75328 4.31402 4.70986 4.30782 4.71886 4.28942C4.73385 4.25914 4.72803 4.20953 4.77448 4.19242C4.78833 4.18748 4.85277 4.22512 4.8209 4.17796C4.81422 4.16816 4.734 4.12766 4.81477 4.14351C4.82823 4.14608 4.94192 4.1597 4.89663 4.10459C4.88469 4.09011 4.82992 4.03901 4.8468 4.03345C4.84932 4.03286 4.87975 4.05995 4.88889 4.05248C4.92043 4.02587 4.93908 3.98738 4.97071 3.96018C4.97932 3.95281 5.0061 3.98833 5.0178 3.97667C5.05027 3.94421 5.0704 3.89218 5.08271 3.84842C5.08721 3.83219 5.05222 3.82324 5.04968 3.82026C5.00841 3.77171 5.08385 3.80608 5.09128 3.80331C5.13592 3.7865 5.11916 3.74111 5.1473 3.7162C5.15498 3.70928 5.18408 3.73641 5.18809 3.73662C5.22791 3.73776 5.16048 3.71263 5.16106 3.69742C5.16199 3.65547 5.18632 3.62374 5.21077 3.59542C5.21979 3.58507 5.24944 3.62268 5.2571 3.61311C5.29018 3.57284 5.31821 3.52895 5.33894 3.4789C5.34754 3.45885 5.35476 3.4382 5.36036 3.41703C5.36413 3.40244 5.32991 3.39094 5.32484 3.3841C5.28904 3.3367 5.36911 3.35294 5.37901 3.35089C5.42386 3.34216 5.40427 3.31524 5.42383 3.29483C5.52026 3.19502 5.58714 3.03908 5.63665 2.92105C5.70164 2.76693 5.7293 2.63771 5.80391 2.49907C5.80861 2.49022 5.84646 2.51905 5.85107 2.51163C5.9086 2.41469 5.93634 2.3064 5.9916 2.20804C5.99606 2.19991 6.03171 2.22907 6.04027 2.21651C6.05811 2.19087 6.0704 2.15412 6.06869 2.12027C6.06793 2.10382 6.02536 2.10854 6.02528 2.09233C6.02498 2.05459 6.03552 2.01874 6.05488 1.98769C6.0632 1.97451 6.09716 2.0121 6.10471 1.99364C6.1569 1.8683 6.20861 1.74378 6.19481 1.59591C6.19386 1.58574 6.10907 1.55011 6.13175 1.5367C6.15644 1.54295 6.18494 1.55203 6.21105 1.5596C6.28428 1.37629 6.30555 1.18 6.34626 0.988303C6.34798 0.980199 6.39189 1.00541 6.39548 0.989721C6.41627 0.898992 6.44899 0.812861 6.42057 0.710126C6.41781 0.69995 6.33316 0.687788 6.3512 0.663378C6.35448 0.659086 6.37359 0.620657 6.3938 0.613565C6.39682 0.612645 6.43454 0.627639 6.43821 0.614611C6.45882 0.538823 6.46409 0.456239 6.45243 0.375501C6.45047 0.362462 6.40643 0.368914 6.40466 0.359604C6.39239 0.293947 6.43438 0.230673 6.40434 0.165793C6.38403 0.122438 6.30929 0.127426 6.24043 0.0971638C6.23072 0.0929008 6.23224 0.068534 6.1907 0.0619891C6.08627 0.0454967 5.97003 0.042177 5.8589 0.0232024C5.83497 0.0191433 5.86477 -0.00829679 5.80431 0.00254197C5.80026 0.00332591 5.77812 0.0230308 5.75769 0.0258828C5.74356 0.0278801 5.70206 0.0155812 5.6836 0.0209603C5.66517 0.0263064 5.69958 0.0394265 5.67737 0.049382C5.6549 0.0592493 5.6075 0.047171 5.59833 0.0714363ZM3.05727 6.82942C3.03417 6.78945 3.16257 6.86617 3.11977 6.86704C3.11755 6.86699 3.05837 6.83143 3.05727 6.82942ZM1.10169 8.57677C1.10711 8.50485 1.16002 8.58843 1.15755 8.64374C1.15435 8.69916 1.09943 8.59876 1.10169 8.57677ZM0.785057 8.60808C0.811618 8.5516 0.853554 8.7596 0.804628 8.72366C0.801725 8.72163 0.783352 8.61136 0.785057 8.60808ZM6.20687 0.190419C6.20495 0.18984 6.2055 0.172272 6.2075 0.172135C6.25584 0.169503 6.2547 0.204838 6.20687 0.190419ZM0.474532 8.52397C0.490776 8.49831 0.51309 8.53695 0.492961 8.56912C0.476354 8.59496 0.45371 8.55583 0.474532 8.52397ZM3.49672 5.79306C3.49499 5.79162 3.49963 5.78006 3.51028 5.78679C3.54456 5.80851 3.52593 5.8172 3.49672 5.79306ZM0.0034884 8.37519C0.0749892 8.39314 0.173556 8.24203 0.0947628 8.2347C0.0804018 8.23328 0.103919 8.29746 0.0818584 8.30625C0.040866 8.32197 0.0590728 8.21141 0.00706923 8.25474C-0.0024902 8.26268 -0.000964812 8.37447 0.0035244 8.37546C0.0035123 8.37537 0.00350002 8.37528 0.0034884 8.37519ZM2.91176 6.72339C2.91031 6.72197 2.91781 6.70648 2.91968 6.70719C2.96485 6.72451 2.94973 6.75581 2.91176 6.72339ZM3.76905 5.12224C3.76575 5.11944 3.78013 5.08269 3.78422 5.08322C3.86273 5.10021 3.83368 5.17499 3.76905 5.12224ZM2.15739 7.58667C2.10915 7.56966 2.0909 7.58224 2.12664 7.63254C2.13612 7.61677 2.14777 7.60251 2.15739 7.58667Z" fill="#963076"/>
</svg>
