<svg width="21" height="9" viewBox="0 0 21 9" fill="none" xmlns="http://www.w3.org/2000/svg">
<path d="M0.0137749 0.490506C0.0794403 0.630338 0.194221 0.801703 0.287885 0.925719C0.316915 0.964153 0.327742 0.929892 0.349016 0.956168C0.39142 1.009 0.409593 1.06643 0.453417 1.11768C0.467621 1.13385 0.490792 1.09006 0.504873 1.10754C0.582725 1.20506 0.63208 1.31154 0.702514 1.41503C1.04988 1.92538 1.37068 2.44 1.70616 2.96497C1.81678 3.13818 1.97843 3.33367 2.0735 3.52358C2.08469 3.54598 2.04546 3.55227 2.04531 3.5579C2.04372 3.64529 2.09459 3.58559 2.12797 3.62175C2.26095 3.76646 2.37354 3.94542 2.45789 4.11104C2.49329 4.18091 2.38998 4.15211 2.46612 4.19801C2.47135 4.20124 2.49438 4.16387 2.50915 4.18005C2.54256 4.21677 2.58519 4.29987 2.60735 4.33011C2.6506 4.3889 2.65659 4.39942 2.69325 4.45828C2.69454 4.46034 2.69584 4.46239 2.69717 4.46446C2.74819 4.54417 2.82276 4.6279 2.8703 4.71637C2.88065 4.73585 2.83109 4.73342 2.84471 4.76662C2.85828 4.79988 2.9129 4.8755 2.93838 4.89603C2.96378 4.91659 2.98235 4.8878 2.99144 4.88832C3.0673 4.8916 3.05885 5.02726 3.06534 5.03991C3.18181 5.26677 3.35128 5.41091 3.49869 5.59468C3.6109 5.73464 3.72288 5.89132 3.83794 6.01744C3.97552 6.16791 4.1088 6.2784 4.2444 6.42185C4.25872 6.43689 4.20803 6.45265 4.2255 6.4711C4.31744 6.56806 4.41262 6.66129 4.51206 6.74919C4.6214 6.84628 4.74016 6.93143 4.86692 7.00156C4.89208 7.01537 4.88605 6.96045 4.9124 6.97201C5.0737 7.04649 5.33799 7.09749 5.35405 7.30216C5.46319 7.34646 5.59859 7.3933 5.7081 7.39314C5.77853 7.39288 5.73236 7.32949 5.80272 7.37343C5.81869 7.38317 5.78377 7.41335 5.8089 7.42514C5.91541 7.47486 6.04093 7.49569 6.14837 7.54101C6.1702 7.55031 6.15627 7.58343 6.16139 7.59111C6.20554 7.65409 6.31477 7.58834 6.33512 7.58557C6.49379 7.5672 6.60046 7.59973 6.74167 7.61291C6.77434 7.6158 6.7311 7.65941 6.76253 7.66385C6.92635 7.68616 7.09766 7.69001 7.25824 7.67032C7.29401 7.6658 7.2615 7.62504 7.2785 7.62079C7.35199 7.6023 7.37024 7.67866 7.44118 7.66103C7.45642 7.65736 7.44714 7.62285 7.44985 7.61899C7.49192 7.55841 7.52976 7.64197 7.54174 7.64347C7.68303 7.6643 7.76702 7.5708 7.9007 7.5739C7.91665 7.57433 7.88421 7.6207 7.92868 7.61922C7.95576 7.61834 7.98507 7.617 8.01155 7.61561C8.24852 7.6022 8.49318 7.64316 8.73866 7.71051C8.78061 7.722 8.76484 7.67982 8.76884 7.67707C8.83532 7.63597 8.82866 7.72624 8.84012 7.73486C8.93288 7.80172 9.0608 7.78657 9.0863 7.91262C9.26552 7.98622 9.44383 8.08148 9.65535 8.14029C9.95452 8.22189 10.2653 8.27516 10.5755 8.24305C10.582 8.24248 10.5737 8.19986 10.5865 8.19889C10.7397 8.18544 10.7059 8.24807 10.8066 8.33121C10.8324 8.35208 10.9125 8.25681 10.9189 8.24963C10.9439 8.2237 10.9181 8.16134 10.9265 8.15632C10.9941 8.11655 10.9849 8.32315 11.0805 8.32068C11.0834 8.32025 11.0698 8.28271 11.0776 8.2787C11.1019 8.2661 11.1267 8.28022 11.1502 8.26606C11.2041 8.23311 11.2162 8.1324 11.3026 8.18422C11.3137 8.19079 11.3069 8.30919 11.391 8.29583C11.4245 8.2909 11.5735 8.27519 11.6138 8.26107C11.6541 8.24752 11.6201 8.21442 11.6228 8.21237C11.7253 8.14626 11.6804 8.13212 11.7217 8.05038C11.7619 7.96863 11.7785 8.1436 11.8045 8.15869C11.8305 8.17385 11.9025 8.11736 11.9186 8.0991C11.935 8.08095 11.9058 8.06276 11.9212 8.05114C12.0225 7.97435 11.9903 8.12478 12.0346 8.1431C12.0411 8.14574 12.0473 8.14765 12.0533 8.14892C12.1427 8.16885 12.1798 8.04155 12.2523 8.012C12.2731 8.00352 12.2624 8.03651 12.2822 8.03463C12.3609 8.02679 12.3975 7.97646 12.4928 7.99211C12.5084 7.99464 12.5966 8.05409 12.6288 7.98753C12.6333 7.97796 12.6076 7.95077 12.6384 7.93601C12.6846 7.91389 12.7704 7.88625 12.8252 7.88432C12.8656 7.88292 12.8338 7.94538 12.8785 7.91766C12.8984 7.90531 12.8511 7.8845 12.889 7.86382C12.9267 7.84321 13.0301 7.81975 13.0695 7.81129C13.1089 7.80287 13.0971 7.8474 13.1009 7.84929C13.1238 7.85982 13.2035 7.86046 13.2102 7.85875C13.5468 7.78136 13.838 7.63543 14.1673 7.56749C14.1933 7.56205 14.1877 7.6079 14.1918 7.6075C14.2836 7.60049 14.1845 7.51032 14.2348 7.45676C14.2494 7.54264 14.2814 7.51742 14.3448 7.5093C14.3756 7.50538 14.3687 7.54221 14.3723 7.54475C14.4307 7.58111 14.4422 7.50933 14.4464 7.49409C14.4617 7.43818 14.5096 7.48523 14.5198 7.4478C14.5302 7.41057 14.4716 7.3769 14.5301 7.36053C14.5552 7.38551 14.5343 7.47603 14.5826 7.47562C14.6818 7.47501 14.8155 7.42839 14.9375 7.37805C14.9435 7.37645 14.9596 7.3687 14.9651 7.36562C15.0537 7.2988 15.1316 7.2293 15.183 7.18986C15.296 7.10277 15.3357 7.07842 15.3941 7.01841C15.4979 6.90851 15.4931 6.98955 15.5829 6.94912C15.6726 6.90699 15.5392 6.82709 15.5282 6.79445C15.5165 6.76223 15.5489 6.77714 15.549 6.75333C15.549 6.72968 15.5092 6.73685 15.5321 6.70696C15.5548 6.67761 15.6679 6.64761 15.7006 6.66184C15.7701 6.69219 15.7887 6.77824 15.8426 6.68771C15.8456 6.68249 15.8047 6.66846 15.8176 6.6499C15.921 6.50295 16.0419 6.36733 16.1375 6.21837C16.1507 6.19769 16.1039 6.18547 16.1112 6.17311C16.1854 6.04594 16.2065 6.13257 16.3201 6.12498C16.2266 6.0682 16.2051 5.99228 16.2762 5.90751C16.3182 5.8573 16.3469 5.89631 16.4002 5.88459C16.4167 5.88056 16.4212 5.82487 16.4438 5.83239C16.5172 5.85749 16.5514 5.9431 16.5995 5.8351C16.6015 5.8303 16.561 5.81705 16.5701 5.80234C16.6301 5.70575 16.6963 5.74462 16.7803 5.65742C16.8448 5.59029 16.9114 5.44235 16.9734 5.3514C16.9769 5.34632 16.9791 5.34304 16.9813 5.33985C16.8842 5.26707 16.9695 5.20373 17.0604 5.22339C17.1005 5.16685 17.1511 5.11012 17.1837 5.04979C17.1951 5.02886 17.1579 5.01935 17.1567 5.01468C17.1383 4.94176 17.22 4.96935 17.232 4.9592C17.3574 4.84922 17.3903 4.70685 17.5337 4.6208C17.5388 4.61777 17.6107 4.66259 17.5879 4.59174C17.5862 4.58698 17.5241 4.60437 17.5671 4.54423C17.6096 4.48482 17.6591 4.34765 17.7522 4.29141C17.7749 4.2774 17.867 4.27034 17.8553 4.19821C17.8537 4.18851 17.8301 4.17945 17.8254 4.16361C17.8106 4.11276 17.8884 4.15147 17.8539 4.07792C17.8187 4.00519 17.8226 3.91184 17.925 3.86116C17.9281 3.85949 17.9962 3.88178 18.0151 3.85562C18.0453 3.81375 18.0792 3.74699 18.1122 3.70505C18.1281 3.68484 18.1512 3.72351 18.1546 3.72045C18.2796 3.59716 18.3247 3.47775 18.4258 3.32037C18.4442 3.29155 18.5488 3.24971 18.5536 3.16945C18.5588 3.08182 18.3502 3.01537 18.4906 2.91368C18.5476 2.87187 18.8051 2.96543 18.7723 2.78659C18.9412 2.62239 19.0183 2.40904 19.1993 2.25243C19.2074 2.24542 19.2854 2.26356 19.2997 2.24333C19.3208 2.21322 19.3062 2.17642 19.3205 2.15417C19.3795 2.06083 19.4641 1.9986 19.5251 1.91196C19.5483 1.87911 19.5118 1.86879 19.5396 1.82952C19.5673 1.79035 19.6239 1.79283 19.6456 1.72794C19.6619 1.67868 19.6168 1.58198 19.6479 1.5234C19.7236 1.57833 19.7492 1.54185 19.8173 1.49384C19.8304 1.48463 19.8462 1.51747 19.8538 1.51414C19.885 1.50102 19.8803 1.46294 19.9119 1.45184C19.9195 1.44911 19.945 1.46832 19.9527 1.46718C20.0188 1.45831 20.0093 1.35296 20.0075 1.33468C20.0012 1.26507 20.0488 1.27131 20.058 1.22867C20.0671 1.18621 20.0128 1.2184 20.0317 1.1752C20.071 1.08572 20.1498 0.991671 20.2074 0.914391C20.2306 0.883602 20.2483 0.930422 20.2524 0.926618C20.3096 0.869959 20.3228 0.778474 20.417 0.795214C20.2767 0.617654 20.4632 0.770064 20.4978 0.652954C20.5005 0.643682 20.4252 0.571388 20.3921 0.589373C20.3591 0.6074 20.3529 0.668676 20.3049 0.692073C20.2936 0.697655 20.177 0.689727 20.167 0.693129C20.0883 0.719945 20.2051 0.822375 20.2097 0.830455C20.2571 0.919501 20.1258 0.918403 20.1074 0.930489C20.0229 0.985874 19.9906 1.06368 19.9233 1.11231C19.8794 1.14436 19.7957 1.08657 19.7731 1.12098C19.6982 1.23519 19.7814 1.35944 19.6058 1.38624C19.5682 1.39209 19.497 1.30254 19.506 1.43408C19.5065 1.44238 19.525 1.54926 19.4593 1.55192C19.451 1.55224 19.4254 1.53238 19.419 1.53626C19.3765 1.56264 19.3778 1.60323 19.3367 1.63637C19.2956 1.66951 19.2437 1.70685 19.2167 1.7598C19.2004 1.79183 19.2205 1.86446 19.2219 1.88682C19.2266 1.95052 19.1404 1.94811 19.1632 2.00298C19.1859 2.05821 19.2838 2.05993 19.2625 2.14232C19.1942 2.09332 19.1218 2.04595 19.0519 1.99805C18.9502 2.13496 18.8692 2.28474 18.7613 2.41855C18.748 2.435 18.7254 2.39025 18.7101 2.40717C18.646 2.47862 18.6198 2.56536 18.5491 2.63608C18.4935 2.69161 18.4047 2.72836 18.3454 2.78542C18.3912 2.88356 18.2928 2.95761 18.2462 3.03234C18.23 3.0583 18.2516 3.07238 18.245 3.09459C18.2198 3.17789 18.176 3.09563 18.1516 3.10529C18.0472 3.14705 18.1948 3.2707 18.1217 3.3575C18.1178 3.36223 17.9916 3.35774 17.9805 3.36176C17.9084 3.3869 18.0022 3.392 17.9837 3.42825C17.95 3.49451 17.9374 3.55075 17.8616 3.5997C17.8392 3.61401 17.7513 3.62314 17.7608 3.69171C17.762 3.70073 17.7909 3.71869 17.7894 3.72397C17.759 3.81715 17.6723 3.75514 17.6113 3.775C17.5502 3.79491 17.5578 3.9051 17.5641 3.93154C17.5804 3.99996 17.6033 3.91922 17.6091 3.92055C17.677 3.93747 17.631 3.97885 17.6072 4.01834C17.6856 4.08768 17.6415 4.1342 17.5822 4.05895C17.5758 4.05067 17.6053 4.02857 17.6072 4.01834C17.5018 3.98704 17.4478 4.03522 17.4756 4.15546C17.4885 4.21195 17.5519 4.21571 17.4679 4.29255C17.4301 4.32712 17.3853 4.26761 17.3427 4.29044C17.2451 4.34305 17.2166 4.48872 17.1444 4.56419C17.1183 4.59136 17.1098 4.53823 17.0907 4.5562C17.0389 4.60529 17.0267 4.66886 16.971 4.71549C16.966 4.71957 16.943 4.68208 16.9293 4.69875C16.8252 4.82408 16.759 4.95114 16.6541 5.08531C16.6523 5.08759 16.6505 5.08991 16.6486 5.09227C16.5973 5.15271 16.4933 5.24611 16.4444 5.31217C16.3569 5.43037 16.2872 5.60805 16.1956 5.69423C16.1352 5.75148 16.1156 5.71066 16.0719 5.7189C15.9866 5.73554 15.9838 5.88851 15.9849 5.91018C15.9849 5.91105 16.0376 5.8646 16.0294 5.90659C16.0487 5.95175 15.9856 5.90972 15.9849 5.91018C15.9854 5.92475 15.9009 6.03597 15.8769 6.05098C15.8638 6.05918 15.8401 6.02711 15.8339 6.03184C15.6846 6.1474 15.5556 6.27219 15.4396 6.41076C15.4379 6.41352 15.4718 6.44151 15.4674 6.44762C15.4054 6.53461 15.3194 6.54052 15.2357 6.57113C15.1517 6.60171 15.1086 6.64955 15.1148 6.73953C15.0589 6.77109 15.0045 6.85145 14.9714 6.89849C14.9383 6.94562 14.8845 6.87897 14.8798 6.88015C14.8075 6.89748 14.7601 6.92473 14.7147 6.95909L14.799 6.92113C14.738 6.94577 14.6809 6.97882 14.6015 7.0065C14.5286 7.03212 14.3804 7.06253 14.2978 7.07645C14.2328 7.08725 14.2007 7.11705 14.1389 7.12121C14.1305 7.12178 14.1282 7.0831 14.1255 7.08237C14.0487 7.05684 14.1047 7.13725 14.0958 7.1569C14.0631 7.22838 14.0422 7.26747 13.9509 7.26311C13.9301 7.26208 13.839 7.14873 13.8024 7.1505C13.7548 7.15304 13.7838 7.19472 13.7334 7.19619C13.7291 7.19635 13.7223 7.16768 13.6935 7.17665C13.5587 7.21822 13.414 7.27314 13.2709 7.30586C13.2514 7.31044 13.265 7.25886 13.2366 7.26474C13.1034 7.29228 12.9591 7.32918 12.8348 7.3815C12.8042 7.39453 12.8318 7.42156 12.8272 7.43267C12.7984 7.50003 12.7182 7.43133 12.7078 7.43212C12.4608 7.44873 12.2958 7.56675 12.0432 7.58928C12.0327 7.59013 11.962 7.55445 11.9145 7.57241C11.9 7.57815 11.8882 7.59012 11.8821 7.61213C11.8807 7.61782 11.8565 7.70583 11.8081 7.65985C11.8052 7.65693 11.8222 7.61116 11.7784 7.62457C11.7341 7.63807 11.6579 7.62438 11.6031 7.67918C11.5861 7.69642 11.5501 7.78332 11.4818 7.72784C11.4765 7.72424 11.3701 7.59166 11.3484 7.69371C11.3449 7.71045 11.3605 7.81537 11.284 7.76773C11.2695 7.75839 11.2921 7.73298 11.2553 7.72117C11.1994 7.70286 11.1283 7.7353 11.0599 7.69034C11.0477 7.68244 10.9977 7.61214 10.9591 7.66667C10.953 7.67522 10.9651 7.71038 10.944 7.71441C10.8435 7.73365 10.7394 7.70664 10.6362 7.72376C10.5996 7.72967 10.6138 7.78787 10.5743 7.79998C10.5348 7.81216 10.4553 7.81884 10.4184 7.78803C10.3817 7.75728 10.4359 7.67272 10.3786 7.65797C10.1925 7.60926 10.0029 7.59534 9.81282 7.56111C9.7674 7.55458 9.71606 7.54136 9.66217 7.52101C9.6299 7.5086 9.66914 7.49031 9.62218 7.46895C9.45423 7.39243 9.09072 7.15919 8.83967 7.14755C8.64662 7.13927 8.85166 7.25367 8.71323 7.23081C8.64818 7.22075 8.60373 7.10025 8.58674 7.09279C8.42997 7.02047 8.30103 7.05078 8.14702 7.03281C8.11452 7.02941 8.14693 6.98699 8.11901 6.98474C8.06744 6.98062 8.01448 6.98625 7.96244 6.99408C7.93006 6.99986 7.89508 7.00578 7.86435 7.00638C7.8338 7.00691 7.83597 6.97402 7.80904 6.97839C7.74268 6.98853 7.68449 7.00563 7.62196 7.03912C7.61609 7.04217 7.65819 7.08094 7.60852 7.08468C7.5295 7.09049 7.43036 7.12341 7.33907 7.09245C7.31178 7.08309 7.31183 7.00864 7.25354 7.05965C7.24138 7.07021 7.25513 7.16027 7.18953 7.08154C7.17766 7.06862 7.07054 6.96085 7.01339 7.02477C6.9984 7.04171 6.95621 7.11268 6.92506 7.09887C6.9209 7.09673 6.94094 7.05799 6.91501 7.05218C6.82274 7.03223 6.72677 7.02667 6.63459 7.00142C6.61034 6.99461 6.65269 6.95862 6.61664 6.94975C6.51711 6.92526 6.39211 6.91309 6.29335 6.9036C6.25693 6.9002 6.27354 6.93929 6.27016 6.94236C6.21404 6.99174 6.20881 6.90562 6.19666 6.89759C6.1194 6.84804 6.04549 6.86636 5.9727 6.83159C5.95268 6.82204 5.97994 6.78988 5.97691 6.78518C5.94552 6.73848 5.95441 6.81582 5.92472 6.81373C5.84175 6.80802 5.75864 6.77173 5.68733 6.73419C5.6612 6.72032 5.70999 6.69258 5.68665 6.68068C5.54926 6.60935 5.41065 6.53572 5.27398 6.47105C5.24809 6.45881 5.24253 6.49757 5.23309 6.5007C5.16671 6.52249 5.16327 6.42434 5.15741 6.41042C5.12931 6.34636 5.0914 6.35494 5.05364 6.31465C5.0326 6.29188 5.01084 6.26856 4.98855 6.24463C4.79524 6.04083 4.5594 5.82283 4.38175 5.64176C4.1209 5.37549 3.9111 5.17031 3.70525 4.87868C3.69216 4.8601 3.74317 4.85092 3.73241 4.83459C3.59275 4.62586 3.43848 4.43171 3.31588 4.21156C3.30577 4.19353 3.35883 4.19519 3.34402 4.16567C3.33248 4.14237 3.31845 4.11742 3.30287 4.09253C3.27664 4.05059 3.24638 4.00935 3.21605 3.97644C3.19212 3.95035 3.1842 4.00985 3.16078 3.98319C3.10651 3.92173 3.05732 3.84725 3.0201 3.77264C3.00428 3.74074 3.07064 3.76297 3.04708 3.72332C2.8863 3.45094 2.73223 3.18123 2.5177 2.93731C2.503 2.9206 2.41452 2.95124 2.40581 2.90254C2.42583 2.88648 2.45158 2.87126 2.47411 2.85598C2.2497 2.45312 1.9902 2.07774 1.75214 1.68187C1.7421 1.66514 1.80102 1.66962 1.78181 1.63715C1.67081 1.44939 1.57561 1.25971 1.42174 1.0911C1.4065 1.07427 1.33877 1.12771 1.31687 1.06432C1.31281 1.05264 1.27381 0.962778 1.27693 0.931193C1.2776 0.926771 1.32119 0.922464 1.30611 0.894149C1.21901 0.731879 1.1144 0.569051 1.00143 0.421952C0.98325 0.398459 0.962121 0.446792 0.948882 0.430289C0.854255 0.311351 0.801263 0.154682 0.695445 0.0485172C0.624993 -0.0215443 0.57911 0.0457319 0.490878 0.0374732C0.478607 0.0366036 0.447208 -0.0143453 0.409238 0.00397251C0.313843 0.0501379 0.228337 0.133349 0.124911 0.17955C0.102295 0.188891 0.0863267 0.109416 0.0584464 0.178124C0.0562524 0.182142 0.0692912 0.243383 0.0585951 0.264617C0.0515319 0.279858 0.00581497 0.286204 0.000479978 0.312116C-0.00503858 0.337683 0.0381941 0.340858 0.0362657 0.378852C0.0345578 0.417749 -0.0144701 0.430069 0.0137749 0.490506ZM14.8147 7.10783C14.8136 7.1108 14.8124 7.11335 14.811 7.1155L14.8522 7.09693C14.8152 7.13089 14.7734 7.01081 14.8291 7.02065L14.7692 7.04764C14.7706 7.04754 14.772 7.04751 14.7735 7.04754C14.7768 7.04777 14.8159 7.10472 14.8147 7.10783ZM18.959 2.35298C18.9691 2.44786 18.8631 2.4265 18.8527 2.35659C18.8424 2.28657 18.9559 2.32423 18.959 2.35298ZM19.4344 1.81457C19.4264 1.91016 19.2507 1.79082 19.3373 1.74861C19.3423 1.74611 19.4349 1.80899 19.4344 1.81457ZM0.591834 0.253383C0.590095 0.254343 0.566355 0.217061 0.567661 0.215387C0.59726 0.171647 0.643931 0.244871 0.591834 0.253383ZM19.9098 1.2828C19.9171 1.32029 19.8467 1.35752 19.8375 1.31099C19.8301 1.27356 19.9006 1.23615 19.9098 1.2828ZM12.2376 7.94048C12.2373 7.94283 12.2079 7.9519 12.2056 7.9395C12.1982 7.89954 12.2424 7.9008 12.2376 7.94048ZM20.6488 0.325887C20.5463 0.472261 20.6191 0.66501 20.722 0.498722C20.7406 0.468642 20.6315 0.524795 20.6463 0.479661C20.6734 0.397151 20.7938 0.421007 20.7982 0.318652C20.7989 0.300057 20.6543 0.317303 20.6484 0.325989C20.6486 0.325955 20.6487 0.325921 20.6488 0.325887ZM14.8806 7.2712C14.8801 7.27342 14.8399 7.28751 14.8385 7.28591C14.8027 7.24709 14.8836 7.21873 14.8806 7.2712ZM10.4637 8.19219C10.461 8.1964 10.361 8.18924 10.3582 8.18473C10.3167 8.10196 10.5152 8.116 10.4637 8.19219ZM16.9797 5.33654C17.0451 5.33085 17.0854 5.28878 17.0603 5.22359C17.0349 5.26102 17.0053 5.2994 16.9797 5.33654Z" fill="#963076"/>
</svg>
