<svg width="7" height="9" viewBox="0 0 7 9" fill="none" xmlns="http://www.w3.org/2000/svg">
<path d="M0.860196 0.0714058C0.881114 0.12768 0.878874 0.205551 0.869653 0.266616C0.86681 0.285694 0.839142 0.280882 0.836034 0.294314C0.830014 0.320623 0.846792 0.341308 0.839034 0.367755C0.836337 0.376538 0.793216 0.373883 0.791344 0.382963C0.781421 0.432759 0.800258 0.474976 0.800804 0.523673C0.803663 0.764314 0.84444 0.996156 0.89508 1.23282C0.911737 1.31078 0.904826 1.41503 0.947127 1.48809C0.952084 1.49657 0.985158 1.47933 0.988619 1.48009C1.04181 1.49215 0.968327 1.5071 0.965066 1.52807C0.952357 1.61123 0.977677 1.6911 1.01651 1.75316C1.03315 1.77954 1.09059 1.72481 1.06319 1.76812C1.06137 1.77111 1.02206 1.77791 1.02118 1.78725C1.01924 1.80839 1.03893 1.8395 1.0415 1.85435C1.04627 1.88307 1.04841 1.88733 1.0581 1.91242C1.07103 1.94682 1.06993 1.99488 1.0936 2.02779C1.09876 2.03475 1.13129 2.00878 1.14282 2.0184C1.15432 2.02802 1.16526 2.06182 1.16141 2.07654C1.15754 2.09127 1.12664 2.09931 1.12088 2.10416C1.07211 2.14488 1.16621 2.14837 1.17025 2.15218C1.24222 2.22511 1.23401 2.31986 1.27465 2.40118C1.30555 2.46272 1.35346 2.52058 1.38244 2.57903C1.41685 2.64874 1.43017 2.71705 1.47145 2.78075C1.47576 2.78748 1.51184 2.7557 1.51717 2.76382C1.5738 2.85009 1.62261 2.9393 1.65187 3.04297C1.65479 3.0534 1.61278 3.06475 1.61365 3.07656C1.61542 3.0973 1.61568 3.12285 1.61939 3.14712C1.63001 3.20913 1.6591 3.2614 1.78141 3.21404C1.80051 3.25608 1.82392 3.3055 1.81456 3.35806C1.80907 3.39274 1.75743 3.39585 1.7909 3.41231C1.79839 3.41603 1.82658 3.38682 1.8353 3.39403C1.8721 3.42458 1.88687 3.47166 1.92851 3.49934C1.93696 3.50478 1.96557 3.48377 1.97234 3.48256C2.02766 3.47346 1.97439 3.54912 1.97317 3.55887C1.96617 3.63484 2.00378 3.66099 2.03232 3.7096C2.0389 3.72085 2.07137 3.68285 2.07916 3.6928C2.11857 3.74402 2.15032 3.80439 2.16402 3.86848C2.16718 3.88316 2.12569 3.89268 2.12543 3.90077C2.12464 3.93611 2.19378 3.90271 2.19398 3.93553C2.1941 3.94237 2.16254 3.95712 2.15981 3.95999C2.11694 4.00496 2.19723 3.9744 2.2011 3.97728C2.25202 4.01356 2.19233 4.08685 2.23048 4.12802C2.23506 4.13281 2.26587 4.09836 2.27643 4.11317C2.34686 4.21146 2.39854 4.3289 2.42427 4.4501C2.42834 4.46896 2.39306 4.47302 2.39005 4.47599C2.3432 4.52281 2.42375 4.49298 2.4294 4.49672C2.47251 4.52817 2.42972 4.59967 2.53472 4.58152C2.59771 4.77569 2.7378 4.9283 2.74671 5.14411C2.74692 5.1468 2.70764 5.16203 2.70821 5.16732C2.71496 5.23165 2.76746 5.19138 2.85629 5.18947C2.87859 5.18898 2.80751 5.26033 2.80256 5.26601C2.78415 5.28675 2.72434 5.30698 2.72143 5.31222C2.69943 5.35501 2.87933 5.25439 2.8963 5.28586C2.89653 5.28701 2.86089 5.30084 2.859 5.30529C2.85306 5.31924 2.87081 5.32036 2.86374 5.3347C2.84726 5.36762 2.76318 5.42267 2.83007 5.42309C2.83868 5.42297 2.93783 5.36084 2.94856 5.39123C2.95278 5.40358 2.98239 5.45119 2.98388 5.46853C2.98531 5.48589 2.94738 5.49572 2.94654 5.4975C2.92544 5.5597 2.89945 5.55628 2.84752 5.6131C2.79615 5.67015 2.94279 5.57392 2.96402 5.57118C2.96759 5.57072 2.97003 5.57171 2.97158 5.57374C2.97948 5.58412 2.96578 5.62002 2.95906 5.63183C2.95099 5.64603 2.92542 5.65009 2.92218 5.66031C2.90127 5.72753 3.00708 5.63246 3.03883 5.6311C3.11399 5.62789 3.01768 5.71974 3.02381 5.7545C3.02549 5.76393 3.04706 5.74238 3.05354 5.74775C3.07904 5.76952 3.05414 5.80678 3.10449 5.81836C3.11264 5.82015 3.19478 5.80514 3.15527 5.85078C3.14955 5.85732 3.11788 5.86748 3.11858 5.88277C3.11957 5.9056 3.13211 5.94033 3.15253 5.95341C3.16761 5.96302 3.20403 5.91993 3.20011 5.94569C3.19833 5.95715 3.16305 5.95896 3.16194 5.97915C3.16073 5.99917 3.18386 6.03526 3.19309 6.04863C3.20233 6.06198 3.23256 6.03364 3.23558 6.03336C3.25307 6.03219 3.28567 6.04876 3.28709 6.05123C3.36234 6.1678 3.3691 6.31249 3.45817 6.41601C3.4651 6.42415 3.49797 6.39602 3.4994 6.39703C3.53338 6.41858 3.42158 6.45311 3.40222 6.49442C3.47435 6.44631 3.46872 6.46727 3.49009 6.48408C3.50045 6.49213 3.5256 6.46896 3.52912 6.46813C3.58205 6.45707 3.53247 6.50211 3.5227 6.51193C3.48673 6.54802 3.54352 6.52869 3.51959 6.55298C3.49591 6.57719 3.4445 6.58656 3.45788 6.60713C3.48788 6.59671 3.5474 6.5388 3.56828 6.54767C3.64698 6.58096 3.66197 6.72446 3.68688 6.77532C3.71147 6.82589 3.72619 6.83796 3.73458 6.87133C3.74989 6.93164 3.78836 6.88065 3.83131 6.89569C3.87433 6.91067 3.7415 6.97807 3.71796 7.0001C3.69441 7.02208 3.72479 7.00864 3.71388 7.02376C3.70299 7.03888 3.67719 7.03923 3.68026 7.05559C3.68337 7.07203 3.75366 7.07494 3.78413 7.06058C3.84873 7.03024 3.89933 6.97331 3.90027 7.02064C3.9003 7.0234 3.86403 7.0393 3.86575 7.04875C3.88054 7.12315 3.92086 7.18349 3.94059 7.25557C3.94326 7.26553 3.90322 7.28405 3.9044 7.29016C3.91676 7.35389 3.96328 7.29388 4.0472 7.27099C3.9564 7.3296 3.91395 7.38332 3.94057 7.41959C3.95655 7.44135 3.99125 7.40913 4.02811 7.40266C4.03919 7.40068 4.02507 7.43536 4.04471 7.42453C4.10887 7.38907 4.16213 7.32559 4.16424 7.38078C4.16425 7.38328 4.12915 7.40275 4.13148 7.40962C4.1466 7.45427 4.20916 7.41126 4.24596 7.44228C4.27468 7.46646 4.28121 7.54678 4.30316 7.58403C4.2101 7.66184 4.25815 7.6753 4.33189 7.63261C4.34736 7.65566 4.37076 7.67504 4.37987 7.70254C4.38307 7.71201 4.3529 7.73096 4.35085 7.73435C4.31856 7.7875 4.38719 7.74206 4.39352 7.74429C4.45984 7.77114 4.45132 7.85209 4.53772 7.85467C4.54084 7.85477 4.60361 7.79851 4.57106 7.85321C4.56906 7.85651 4.53652 7.8663 4.54117 7.88423L4.52535 7.87151C4.52658 7.87376 4.52853 7.876 4.53136 7.87818C4.55478 7.89628 4.57837 7.96389 4.63334 7.95158C4.64681 7.94877 4.70336 7.90306 4.69269 7.95895C4.69126 7.96656 4.6763 7.98576 4.67273 7.9993C4.66156 8.04254 4.71104 7.97292 4.68659 8.04254C4.6619 8.11201 4.66161 8.17485 4.72252 8.15253C4.72443 8.15196 4.76688 8.09858 4.77754 8.10596C4.79433 8.1177 4.81334 8.14475 4.83221 8.15488C4.84126 8.15972 4.85611 8.11998 4.85804 8.12018C4.92995 8.13364 4.95498 8.18996 5.01364 8.23891C5.02428 8.24793 5.08492 8.21486 5.08836 8.26703C5.09253 8.32424 4.97351 8.49525 5.05833 8.48185C5.09351 8.47692 5.23308 8.25424 5.22203 8.39715C5.32126 8.40412 5.38038 8.50147 5.48787 8.48391C5.49261 8.48313 5.52612 8.41705 5.53488 8.42052C5.54797 8.42585 5.54725 8.46087 5.55683 8.46565C5.59738 8.48658 5.64281 8.46624 5.68298 8.47678C5.69855 8.48067 5.68821 8.51484 5.70742 8.51919C5.7169 8.52126 5.72598 8.51169 5.73521 8.50407C5.74342 8.49457 5.75252 8.48722 5.76696 8.49743C5.78764 8.51262 5.81951 8.60437 5.84971 8.61116C5.83741 8.51847 5.85609 8.51788 5.88343 8.48794C5.88861 8.48215 5.8764 8.45129 5.87852 8.4469C5.88687 8.42836 5.90234 8.45284 5.90974 8.43275C5.91147 8.42793 5.90528 8.39662 5.90629 8.39092C5.91445 8.34136 5.95849 8.40505 5.96689 8.4159C5.99743 8.45755 5.99715 8.41486 6.0168 8.42921C6.0366 8.44348 6.01951 8.47193 6.04022 8.47837C6.08361 8.49155 6.13068 8.47296 6.1687 8.463C6.18389 8.45881 6.16124 8.42115 6.16313 8.4196C6.19048 8.40004 6.23559 8.43316 6.2261 8.34697C6.31565 8.5485 6.23783 8.32084 6.29466 8.3479C6.29913 8.35012 6.33738 8.44671 6.32892 8.46571C6.3203 8.48474 6.28964 8.46084 6.2785 8.48947C6.27582 8.49624 6.28016 8.59703 6.27807 8.60386C6.26376 8.6567 6.21361 8.5098 6.20976 8.50209C6.16664 8.41926 6.16591 8.52879 6.15926 8.53824C6.13014 8.58126 6.09129 8.5692 6.06435 8.60046C6.04649 8.62072 6.06836 8.71992 6.04962 8.72119C5.98612 8.72526 5.9406 8.59004 5.90474 8.72101C5.89674 8.74881 5.92662 8.85683 5.86628 8.77748C5.86209 8.77257 5.8181 8.69791 5.80336 8.75008C5.80144 8.75668 5.80478 8.78887 5.80155 8.79192C5.78509 8.80682 5.77038 8.79667 5.75361 8.79659C5.74448 8.79636 5.71746 8.79761 5.70847 8.79597C5.70291 8.79507 5.6969 8.7952 5.68996 8.79754C5.66191 8.80701 5.62717 8.82079 5.59904 8.80475C5.58224 8.79522 5.57143 8.7316 5.567 8.71558C5.55384 8.66946 5.51503 8.73189 5.51353 8.67845C5.51342 8.62504 5.5564 8.55496 5.53324 8.51445C5.51066 8.59543 5.48565 8.67806 5.46155 8.75912C5.38211 8.7347 5.31759 8.68369 5.24481 8.65933C5.23564 8.65633 5.22839 8.70203 5.21798 8.69982C5.17468 8.69042 5.15205 8.64595 5.10688 8.64001C5.07165 8.63547 5.01776 8.66333 4.97988 8.6586C5.00194 8.56261 4.94128 8.56931 4.91183 8.54441C4.90159 8.53579 4.91405 8.5133 4.90963 8.50162C4.89275 8.45804 4.86838 8.54109 4.85365 8.54853C4.79028 8.57981 4.87733 8.40824 4.83336 8.38994C4.83125 8.38903 4.75522 8.46439 4.74821 8.46781C4.70411 8.49107 4.76131 8.43428 4.75024 8.41952C4.73022 8.39259 4.72349 8.36075 4.67755 8.36917C4.66393 8.37166 4.61034 8.41464 4.61737 8.36157C4.61829 8.35462 4.63656 8.32603 4.63569 8.32323C4.61854 8.275 4.56447 8.36671 4.52664 8.38632C4.4886 8.40579 4.49701 8.32521 4.50178 8.30336C4.51418 8.24689 4.52586 8.29046 4.52944 8.28632C4.57214 8.23723 4.54511 8.23398 4.53157 8.21953C4.58303 8.12862 4.55751 8.12056 4.51758 8.20506C4.51328 8.21432 4.53082 8.21352 4.53157 8.21953C4.46495 8.29905 4.43211 8.29457 4.45487 8.19627C4.46547 8.15014 4.50502 8.11305 4.45608 8.10544C4.43424 8.10212 4.40317 8.16745 4.37736 8.17453C4.36209 8.17868 4.34998 8.17597 4.33966 8.16941C4.32927 8.16157 4.29854 8.13984 4.2903 8.12976C4.26545 8.10393 4.26378 8.05185 4.23572 8.03349C4.22194 8.02446 4.20399 8.06282 4.19355 8.05752C4.16565 8.04342 4.17003 8.00466 4.13907 7.99319C4.13622 7.99217 4.11019 8.02478 4.1036 8.01833C4.05317 7.97 4.03303 7.90721 3.98678 7.85181C3.96445 7.82516 3.90695 7.79164 3.88771 7.76069C3.8538 7.70704 3.85364 7.60996 3.81008 7.57702C3.78168 7.55526 3.75352 7.58623 3.72211 7.59132C3.66113 7.60108 3.70868 7.50164 3.71693 7.48736C3.71721 7.48691 3.74271 7.50495 3.75025 7.47963C3.7802 7.44601 3.7173 7.48753 3.71693 7.48736C3.72205 7.47796 3.69464 7.42474 3.68142 7.41981C3.67419 7.41716 3.64465 7.44294 3.64147 7.44112C3.56654 7.39711 3.51234 7.33698 3.48222 7.26026C3.48208 7.25865 3.51939 7.23583 3.51861 7.23236C3.50871 7.18324 3.44796 7.18851 3.40033 7.17411C3.35273 7.1597 3.34485 7.12824 3.39544 7.06851C3.37185 7.04961 3.37746 6.99712 3.38177 6.96651C3.38606 6.9359 3.31261 6.9788 3.31007 6.97794C3.22989 6.95212 3.25105 6.89429 3.22225 6.83361C3.20864 6.80464 3.16517 6.75757 3.1394 6.73321C3.1189 6.71403 3.12743 6.68974 3.10358 6.67503C3.10039 6.67304 3.06979 6.69559 3.06801 6.69547C3.01489 6.69524 3.10094 6.65864 3.1121 6.64518C3.15275 6.59629 3.17355 6.56884 3.13102 6.55308C3.12129 6.54949 2.99488 6.59789 2.9805 6.58909C2.96203 6.57755 3.00674 6.55924 2.98637 6.54777C2.98467 6.54678 2.95956 6.56221 2.95425 6.55084C2.92928 6.49823 2.91167 6.43529 2.87838 6.38523C2.87395 6.37837 2.83916 6.4113 2.8321 6.40178C2.79894 6.35698 2.76945 6.30411 2.76061 6.24661C2.75861 6.23246 2.79094 6.22278 2.79782 6.21534C2.8393 6.17012 2.75314 6.19247 2.74963 6.18978C2.66406 6.12664 2.69174 6.0225 2.60877 5.9566C2.60412 5.95309 2.5042 5.96497 2.56173 5.90848C2.56555 5.90469 2.6246 5.84719 2.56924 5.86196C2.56578 5.8629 2.53645 5.89422 2.52964 5.87501C2.52716 5.86802 2.52025 5.86186 2.51362 5.85458C2.50094 5.8401 2.48909 5.8218 2.50404 5.79036C2.51133 5.77461 2.56905 5.71485 2.49966 5.72255C2.49499 5.72346 2.3475 5.75679 2.4265 5.69385C2.43954 5.68356 2.53264 5.63405 2.46927 5.63152C2.45701 5.63105 2.4421 5.65266 2.42106 5.64505C2.38859 5.63323 2.39718 5.59009 2.34084 5.58454C2.33096 5.58375 2.25674 5.59687 2.2959 5.55475C2.30205 5.54817 2.33575 5.53655 2.33461 5.52601C2.32958 5.47617 2.28646 5.4444 2.28681 5.39194C2.28698 5.37358 2.34139 5.35489 2.34722 5.33287C2.35299 5.31075 2.35057 5.27387 2.31944 5.2701C2.28823 5.26622 2.21622 5.32473 2.19767 5.30435C2.11749 5.21658 2.11479 5.09359 2.07039 4.99104C2.06379 4.97578 2.04119 5.00272 2.02952 4.98158C1.98611 4.90297 1.88776 4.78297 1.91109 4.68206C1.93015 4.60171 2.00423 4.64949 2.00128 4.59726C1.99968 4.57202 1.89494 4.60059 1.88956 4.59771C1.83442 4.56775 1.85651 4.51159 1.82038 4.47683C1.81285 4.46956 1.78049 4.49919 1.77449 4.49278C1.75343 4.47065 1.75537 4.43557 1.73843 4.41309C1.73076 4.40309 1.70361 4.42139 1.70003 4.41014C1.69086 4.38292 1.69128 4.35631 1.70408 4.31752C1.70524 4.31399 1.74867 4.30779 1.73967 4.28939C1.72468 4.25911 1.73049 4.2095 1.68405 4.19239C1.67019 4.18745 1.60576 4.22509 1.63763 4.17793C1.64431 4.16813 1.72453 4.12763 1.64375 4.14348C1.6303 4.14605 1.51661 4.15967 1.5619 4.10456C1.57384 4.09008 1.62861 4.03898 1.61173 4.03342C1.60921 4.03283 1.57877 4.05991 1.56964 4.05245C1.53809 4.02584 1.51945 3.98735 1.48781 3.96015C1.47921 3.95278 1.45242 3.9883 1.44073 3.97664C1.40826 3.94418 1.38812 3.89215 1.37581 3.84839C1.37131 3.83216 1.40631 3.82321 1.40885 3.82022C1.45011 3.77168 1.37468 3.80604 1.36725 3.80328C1.32261 3.78647 1.33936 3.74108 1.31123 3.71617C1.30355 3.70925 1.27445 3.73638 1.27044 3.73659C1.23062 3.73773 1.29804 3.71259 1.29746 3.69738C1.29654 3.65544 1.27221 3.62371 1.24776 3.59539C1.23874 3.58504 1.20908 3.62265 1.20143 3.61308C1.16835 3.57281 1.14032 3.52892 1.11958 3.47887C1.11099 3.45882 1.10377 3.43817 1.09817 3.417C1.0944 3.40241 1.12861 3.39091 1.13369 3.38407C1.16948 3.33667 1.08942 3.35291 1.07952 3.35086C1.03467 3.34213 1.05426 3.31521 1.0347 3.2948C0.938271 3.19499 0.871382 3.03905 0.821879 2.92102C0.756882 2.7669 0.729223 2.63768 0.654612 2.49904C0.649918 2.49019 0.612062 2.51902 0.607461 2.5116C0.54993 2.41466 0.522185 2.30637 0.466929 2.20801C0.462463 2.19988 0.426816 2.22904 0.41826 2.21648C0.40042 2.19084 0.388125 2.15409 0.389832 2.12024C0.3906 2.10379 0.433164 2.10851 0.433248 2.0923C0.433551 2.05456 0.423005 2.01871 0.40365 1.98766C0.395326 1.97447 0.361368 2.01207 0.353815 1.99361C0.301631 1.86827 0.249916 1.74375 0.263716 1.59588C0.264664 1.58571 0.349452 1.55008 0.326779 1.53667C0.302086 1.54292 0.273588 1.552 0.247474 1.55957C0.17425 1.37626 0.152974 1.17997 0.112271 0.988273C0.110542 0.980168 0.0666394 1.00538 0.0630443 0.98969C0.0422608 0.898961 0.00953592 0.81283 0.0379566 0.710096C0.0407213 0.699919 0.125363 0.687757 0.107332 0.663348C0.104051 0.659056 0.084933 0.620627 0.0647296 0.613535C0.0617075 0.612615 0.0239838 0.627609 0.0203151 0.614581C-0.000293964 0.538792 -0.00556456 0.456209 0.00609991 0.375471C0.00806049 0.362431 0.0520956 0.368884 0.0538643 0.359573C0.0661411 0.293917 0.0241505 0.230643 0.0541913 0.165762C0.0744978 0.122407 0.14924 0.127395 0.218094 0.0971333C0.227804 0.0928703 0.226282 0.0685035 0.267823 0.0619586C0.372254 0.0454661 0.488493 0.0421465 0.599628 0.0231718C0.623556 0.0191127 0.593756 -0.0083273 0.654219 0.00251146C0.658266 0.0032954 0.680402 0.0230003 0.700841 0.0258523C0.714969 0.0278495 0.756468 0.0155507 0.774923 0.0209298C0.793361 0.0262759 0.75895 0.039396 0.781159 0.0493515C0.803627 0.0592187 0.85103 0.0471405 0.860196 0.0714058ZM3.40126 6.82939C3.42436 6.78942 3.29595 6.86614 3.33875 6.86701C3.34097 6.86696 3.40015 6.8314 3.40126 6.82939ZM5.35683 8.57674C5.35142 8.50482 5.29851 8.5884 5.30098 8.6437C5.30417 8.69913 5.3591 8.59873 5.35683 8.57674ZM5.67347 8.60805C5.64691 8.55156 5.60497 8.75957 5.6539 8.72363C5.6568 8.7216 5.67517 8.61133 5.67347 8.60805ZM0.251655 0.190388C0.253574 0.189809 0.253031 0.172242 0.251028 0.172104C0.202682 0.169472 0.203825 0.204808 0.251655 0.190388ZM5.98399 8.52394C5.96775 8.49828 5.94544 8.53692 5.96557 8.56909C5.98217 8.59493 6.00482 8.5558 5.98399 8.52394ZM2.96181 5.79303C2.96354 5.79159 2.95889 5.78003 2.94824 5.78676C2.91397 5.80848 2.9326 5.81717 2.96181 5.79303ZM6.45504 8.37516C6.38354 8.39311 6.28497 8.242 6.36376 8.23466C6.37812 8.23325 6.35461 8.29743 6.37667 8.30622C6.41766 8.32194 6.39945 8.21138 6.45146 8.25471C6.46102 8.26265 6.45949 8.37444 6.455 8.37543C6.45501 8.37534 6.45503 8.37525 6.45504 8.37516ZM3.54677 6.72336C3.54821 6.72194 3.54072 6.70645 3.53885 6.70716C3.49368 6.72448 3.5088 6.75578 3.54677 6.72336ZM2.68948 5.12221C2.69277 5.11941 2.6784 5.08266 2.67431 5.08318C2.5958 5.10018 2.62485 5.17496 2.68948 5.12221ZM4.30113 7.58664C4.34937 7.56963 4.36763 7.58221 4.33188 7.63251C4.3224 7.61674 4.31076 7.60248 4.30113 7.58664Z" fill="#963076"/>
</svg>
