<svg width="3" height="3" viewBox="0 0 3 3" fill="none" xmlns="http://www.w3.org/2000/svg">
<path d="M0.823534 1.15592C0.84985 1.15126 0.874344 1.17441 0.890073 1.19996C0.895075 1.20792 0.883039 1.23182 0.886131 1.23846C0.892243 1.25142 0.904981 1.242 0.910328 1.25676C0.912056 1.26177 0.89482 1.30027 0.896949 1.30462C0.908716 1.32816 0.92885 1.32362 0.943888 1.33801C1.01822 1.40906 1.10053 1.45192 1.1841 1.49678C1.21147 1.51148 1.23693 1.55852 1.27161 1.55086C1.27568 1.54994 1.28344 1.51385 1.28492 1.51111C1.30775 1.46919 1.28443 1.53992 1.28864 1.55133C1.30559 1.59646 1.33513 1.60776 1.36458 1.60044C1.37696 1.59717 1.38367 1.52342 1.38463 1.56597C1.38475 1.56886 1.3726 1.60617 1.37466 1.61098C1.37941 1.62181 1.39393 1.61809 1.39834 1.6223C1.4072 1.63071 1.40899 1.63072 1.4183 1.63327C1.43111 1.63712 1.44227 1.6594 1.45786 1.65346C1.46111 1.65205 1.46518 1.61197 1.47092 1.60614C1.4765 1.6003 1.48769 1.60587 1.48974 1.61582C1.49188 1.62581 1.48479 1.65657 1.48422 1.66381C1.4797 1.72498 1.50762 1.64392 1.50895 1.64198C1.53928 1.61418 1.55766 1.65175 1.56205 1.65842C1.56238 1.65914 1.56262 1.65953 1.56271 1.65951C1.56482 1.65874 1.54983 1.64556 1.54208 1.6532C1.53308 1.66253 1.5487 1.68068 1.54907 1.67296C1.54905 1.67232 1.50843 1.64833 1.50804 1.64799C1.50381 1.64475 1.51504 1.63324 1.55137 1.61424C1.55507 1.61232 1.59492 1.62413 1.60108 1.62248C1.63805 1.61352 1.72427 1.58331 1.54562 1.55488C1.55381 1.54307 1.56215 1.52671 1.59896 1.51567C1.62267 1.50821 1.66744 1.5182 1.64858 1.50671C1.64437 1.50414 1.60479 1.50602 1.60145 1.50237C1.58744 1.48695 1.60042 1.47103 1.57989 1.45597C1.57562 1.45294 1.54022 1.45412 1.53384 1.45333C1.48216 1.44695 1.56725 1.43401 1.57337 1.43096C1.61908 1.40947 1.60021 1.3942 1.60029 1.37489C1.60032 1.37034 1.55314 1.37832 1.55146 1.37411C1.54338 1.35213 1.54579 1.32921 1.56487 1.30485C1.56923 1.29948 1.60998 1.30054 1.61412 1.29777C1.63188 1.28542 1.55548 1.29003 1.57099 1.27842C1.57415 1.27597 1.60879 1.27386 1.61254 1.27311C1.67145 1.26113 1.5866 1.26394 1.58459 1.2626C1.55716 1.2453 1.64369 1.22303 1.62896 1.20453C1.62712 1.20237 1.58414 1.21267 1.58161 1.20631C1.56451 1.16403 1.57032 1.11639 1.59871 1.06708C1.60307 1.05946 1.63639 1.05967 1.64036 1.05866C1.70217 1.04253 1.61732 1.0501 1.61383 1.04835C1.58845 1.03405 1.65649 1.00669 1.5545 1.00981C1.57803 0.92977 1.50929 0.861919 1.58773 0.77118C1.58863 0.770059 1.63034 0.765752 1.63196 0.763553C1.65196 0.737493 1.58805 0.75044 1.50697 0.745405C1.48658 0.743939 1.58024 0.719052 1.58711 0.717213C1.61237 0.710058 1.67467 0.705846 1.67949 0.703939C1.71726 0.688121 1.51303 0.716068 1.51106 0.700598C1.51134 0.700087 1.54924 0.697493 1.55284 0.695777C1.56412 0.690467 1.5487 0.688412 1.56123 0.683158C1.59025 0.670937 1.68941 0.656728 1.63013 0.649849C1.62245 0.648918 1.50632 0.663182 1.51051 0.648506C1.51202 0.643071 1.50895 0.621085 1.51339 0.610937C1.51401 0.610602 1.51475 0.610312 1.51561 0.610065C1.52304 0.607917 1.56067 0.605923 1.5623 0.605819C1.61102 0.592517 1.63193 0.593244 1.70342 0.573272C1.7737 0.549378 1.60239 0.587018 1.58306 0.590081C1.56389 0.59349 1.60221 0.578079 1.61469 0.570622C1.62743 0.563853 1.65085 0.55814 1.65765 0.553229C1.69979 0.51672 1.57533 0.581903 1.54968 0.59245C1.49276 0.625755 1.60471 0.558382 1.60581 0.539661C1.60692 0.535793 1.58631 0.5571 1.58343 0.558083C1.57378 0.563167 1.59502 0.528145 1.56814 0.554914C1.56246 0.558536 1.52359 0.626201 1.5476 0.574163C1.55067 0.56647 1.5665 0.538122 1.56652 0.530113C1.56695 0.5182 1.55857 0.507419 1.54913 0.515967C1.5426 0.522391 1.5322 0.574936 1.53234 0.557747C1.5321 0.550012 1.54474 0.521078 1.54287 0.508882C1.5409 0.496572 1.52603 0.494919 1.52079 0.495281C1.51528 0.495538 1.51224 0.536038 1.51137 0.53866C1.50668 0.553715 1.49605 0.572082 1.49535 0.57199C1.46036 0.573043 1.41106 0.507465 1.36531 0.536512C1.36181 0.538729 1.37022 0.580659 1.36975 0.581434C1.36028 0.600863 1.35376 0.487113 1.3387 0.45095C1.35304 0.536401 1.34536 0.521668 1.33772 0.532557C1.33407 0.537877 1.34204 0.570557 1.3422 0.574011C1.34453 0.62528 1.32894 0.561226 1.32531 0.548199C1.31224 0.500232 1.31813 0.558652 1.30912 0.526673C1.29994 0.494981 1.29799 0.445761 1.28874 0.448175C1.29216 0.479102 1.31407 0.557395 1.31007 0.571557C1.2957 0.624799 1.23712 0.573376 1.21457 0.572628C1.19262 0.571623 1.18791 0.578947 1.17307 0.571512C1.14616 0.558203 1.17066 0.613714 1.16588 0.643854C1.1612 0.674024 1.12415 0.530679 1.11299 0.500833C1.10174 0.471031 1.10922 0.502965 1.10166 0.487011C1.09406 0.471073 1.09297 0.448774 1.08526 0.444297C1.07743 0.439848 1.07878 0.498761 1.08714 0.531017C1.10465 0.599398 1.13398 0.667597 1.112 0.647439C1.11071 0.646241 1.10124 0.608407 1.09688 0.605699C1.06253 0.585456 1.03568 0.592802 1.00149 0.577057C0.996737 0.574848 0.985054 0.533048 0.982092 0.531313C0.951066 0.513214 0.983843 0.578921 1.00103 0.659022C0.965693 0.55708 0.936158 0.497625 0.919341 0.503389C0.90927 0.506815 0.927955 0.550108 0.933786 0.583468C0.93558 0.593509 0.916975 0.566059 0.923863 0.587161C0.946454 0.656113 0.982405 0.72905 0.954884 0.705265C0.95361 0.704122 0.941134 0.666415 0.9378 0.665163C0.916115 0.656944 0.942714 0.727904 0.929965 0.743104C0.919955 0.755029 0.878944 0.722276 0.861086 0.72192C0.812849 0.610641 0.809136 0.642617 0.837714 0.721447C0.826851 0.72255 0.81845 0.731553 0.804312 0.725345C0.799475 0.723237 0.786849 0.690393 0.784859 0.687133C0.753571 0.636027 0.78363 0.711776 0.783001 0.715591C0.773937 0.754073 0.729081 0.707296 0.734723 0.771889C0.734936 0.774213 0.77177 0.849976 0.738668 0.797799C0.736369 0.794212 0.725745 0.756614 0.714846 0.758835C0.703582 0.761229 0.664425 0.730719 0.669093 0.772653C0.670141 0.782779 0.695634 0.846805 0.663628 0.803521C0.659213 0.797681 0.648297 0.776099 0.640377 0.765132C0.614885 0.730337 0.655029 0.805463 0.614086 0.745584C0.591644 0.712935 0.570015 0.686086 0.556882 0.676845C0.551454 0.678594 0.541766 0.690922 0.537476 0.694679C0.52449 0.691844 0.521866 0.697542 0.535963 0.716661C0.536849 0.717909 0.589175 0.7607 0.585307 0.764173C0.579111 0.769656 0.561032 0.770466 0.556382 0.777431C0.554169 0.780788 0.589281 0.803805 0.589477 0.804824C0.591852 0.840841 0.550122 0.833932 0.51952 0.846635C0.513912 0.848833 0.548957 0.896607 0.507199 0.876404C0.461646 0.854064 0.308858 0.715933 0.33171 0.765395C0.341119 0.784813 0.532631 0.962777 0.417196 0.889743C0.419022 0.939191 0.345716 0.917374 0.356275 0.97582C0.356743 0.97841 0.405931 1.0324 0.40242 1.03463C0.397178 1.03776 0.370467 1.0164 0.366015 1.01776C0.355972 1.02045 0.35377 1.03022 0.351769 1.04025C0.353691 1.04727 0.355059 1.05586 0.349863 1.06106C0.345868 1.06524 0.315262 1.04762 0.310016 1.05416C0.304726 1.0612 0.346029 1.08254 0.321812 1.08379C0.303465 1.08448 0.210088 1.06529 0.195816 1.07571C0.285881 1.10075 0.281995 1.10746 0.303286 1.1252C0.30745 1.12852 0.339736 1.1332 0.343352 1.1351C0.35883 1.14272 0.331626 1.14108 0.348714 1.1487C0.352818 1.15053 0.384117 1.15679 0.389254 1.15857C0.434208 1.17344 0.361774 1.17088 0.349057 1.17118C0.300978 1.17083 0.341355 1.18136 0.322018 1.18418C0.302636 1.18741 0.280878 1.17486 0.268586 1.18041C0.243143 1.19203 0.245748 1.21236 0.242556 1.22737C0.24147 1.23344 0.28428 1.23409 0.285108 1.23507C0.294449 1.24852 0.248064 1.25646 0.331816 1.27182C0.1126 1.25871 0.352238 1.28126 0.306878 1.29445C0.303216 1.29547 0.199715 1.28774 0.185051 1.28091C0.17041 1.27399 0.203501 1.2687 0.180629 1.25879C0.175257 1.25644 0.0796105 1.23593 0.0739159 1.23381C0.0293984 1.21701 0.183743 1.23233 0.192264 1.23272C0.284337 1.23625 0.181696 1.21204 0.174982 1.20735C0.143968 1.18761 0.16744 1.17665 0.146063 1.15948C0.132271 1.14833 0.0321261 1.13131 0.0364954 1.1238C0.0514901 1.0971 0.191473 1.11865 0.0779358 1.06435C0.0539688 1.05225 -0.0555786 1.03157 0.0356976 1.02815C0.0415803 1.02741 0.123082 1.03276 0.0788723 1.00609C0.0733324 1.00259 0.0426837 0.992211 0.0408323 0.989234C0.029124 0.96942 0.0569439 0.968561 0.0525735 0.947521C0.0482542 0.92631 0.0430822 0.895295 0.0643467 0.881051C0.0744215 0.874147 0.113774 0.88433 0.136803 0.891941C0.143924 0.885315 0.158946 0.860263 0.167207 0.855127C0.172158 0.859022 0.176257 0.862216 0.1788 0.864087C0.213491 0.889527 0.168709 0.835651 0.208266 0.868831C0.248257 0.901933 0.298481 0.963004 0.330646 0.977875C0.270565 0.919079 0.209204 0.858415 0.148807 0.799259C0.166172 0.78554 0.201385 0.78749 0.214119 0.767576C0.215623 0.765062 0.179891 0.737242 0.180578 0.73383C0.183553 0.719638 0.215269 0.73225 0.21428 0.713624C0.213376 0.699098 0.183947 0.659714 0.181371 0.643882C0.259774 0.700013 0.245056 0.66639 0.259311 0.6626C0.264301 0.661215 0.284228 0.67743 0.292685 0.680258C0.324136 0.690473 0.25408 0.642012 0.245483 0.631314C0.208593 0.585849 0.360964 0.70335 0.367364 0.687257C0.367805 0.686386 0.292701 0.615768 0.288403 0.610861C0.260655 0.578543 0.317722 0.631281 0.327202 0.631319C0.344494 0.631409 0.368602 0.640089 0.351818 0.612286C0.346858 0.604036 0.300357 0.559393 0.344331 0.583013C0.350097 0.586096 0.377173 0.606499 0.379215 0.607069C0.413587 0.615481 0.329792 0.554093 0.303854 0.526513C0.327099 0.506157 0.379594 0.439364 0.409002 0.429882C0.40889 0.429473 0.408784 0.42907 0.408684 0.428674C0.399654 0.392016 0.451511 0.447002 0.464706 0.463895C0.499349 0.507263 0.470552 0.487525 0.472848 0.49243C0.500176 0.550579 0.50469 0.535229 0.514654 0.535846C0.566867 0.626293 0.572907 0.615758 0.524407 0.536338C0.519057 0.527688 0.518362 0.539231 0.514654 0.535846C0.470361 0.443187 0.476633 0.424691 0.534725 0.502194C0.561559 0.538747 0.580785 0.58774 0.58822 0.562183C0.59175 0.550586 0.555565 0.488352 0.553613 0.467283C0.549181 0.419209 0.600146 0.468717 0.611186 0.451605C0.615282 0.445347 0.592432 0.412685 0.594695 0.407163C0.600705 0.39238 0.623302 0.414323 0.627495 0.395633C0.627857 0.393893 0.607956 0.357715 0.611077 0.35567C0.634714 0.339311 0.668074 0.353164 0.695275 0.342041C0.708381 0.336647 0.722439 0.305904 0.738096 0.30433C0.764463 0.301595 0.815844 0.345492 0.830197 0.32428C0.839861 0.310513 0.822143 0.273195 0.817788 0.244775C0.809635 0.189569 0.863764 0.273395 0.871494 0.286642C0.871728 0.287083 0.863805 0.300422 0.877257 0.317976C0.89616 0.357971 0.871416 0.286875 0.871494 0.286642C0.876605 0.295122 0.90261 0.295537 0.904449 0.286527C0.905448 0.28159 0.890841 0.245348 0.891629 0.243463C0.910742 0.199448 0.940044 0.178931 0.978242 0.185845C0.979054 0.186413 0.991549 0.228275 0.993277 0.229096C1.01775 0.241657 1.01368 0.186998 1.02059 0.151792C1.02747 0.116621 1.04402 0.122919 1.07375 0.192439C1.08319 0.179949 1.10939 0.207185 1.12436 0.224065C1.13926 0.240956 1.1195 0.158273 1.12001 0.156403C1.13488 0.0971192 1.16434 0.140107 1.19561 0.141098C1.21104 0.141565 1.23771 0.123737 1.2528 0.111713C1.26491 0.101997 1.27613 0.120355 1.28649 0.105879C1.28791 0.103942 1.28054 0.0667715 1.28083 0.0652524C1.28849 0.0183132 1.29506 0.110914 1.30027 0.126851C1.31893 0.184912 1.32902 0.21578 1.34286 0.185662C1.34575 0.178791 1.34372 0.0449509 1.35173 0.0363647C1.36188 0.0254844 1.36207 0.0734134 1.37267 0.0609169C1.3736 0.0598968 1.371 0.0305253 1.37855 0.0312619C1.41308 0.0343681 1.4529 0.0501037 1.4942 0.0487738C1.50003 0.0487225 1.49432 0.00169563 1.50315 0.000894666C1.54375 -0.00284535 1.59544 0.00434119 1.64136 0.0371853C1.65262 0.0454462 1.63729 0.075507 1.63772 0.0855783C1.63858 0.146055 1.68266 0.0699783 1.68818 0.0700385C1.80278 0.0652226 1.86945 0.179623 1.98751 0.282146C1.99336 0.284665 2.11155 0.302359 2.05253 0.365325C2.04936 0.370929 1.98505 0.423921 2.04347 0.425574C2.04721 0.426068 2.08101 0.396296 2.0863 0.425881C2.09141 0.454748 2.1287 0.495442 2.08756 0.534374C2.0776 0.54433 2.02873 0.564841 2.03762 0.583047C2.03993 0.583783 2.04706 0.584376 2.06131 0.584541C2.0658 0.585094 2.21033 0.580845 2.11133 0.592787C2.09504 0.594785 1.98988 0.603436 2.04453 0.606764C2.05512 0.60734 2.07825 0.60217 2.09329 0.604856C2.11644 0.608795 2.08944 0.621687 2.13716 0.624785C2.14561 0.625408 2.21745 0.62296 2.16428 0.635554C2.15596 0.63755 2.12081 0.640314 2.1173 0.64393C2.10036 0.660276 2.12602 0.673702 2.10413 0.692566C2.09647 0.699364 2.03971 0.70469 2.02549 0.712871C2.01126 0.720971 1.99866 0.735917 2.02533 0.73831C2.05202 0.740706 2.14069 0.720286 2.14929 0.728574C2.18684 0.765734 2.1409 0.815959 2.14011 0.861834C2.13997 0.868506 2.17122 0.858135 2.17332 0.867677C2.18125 0.902994 2.22087 0.962205 2.15708 1.00434C2.10598 1.03791 2.05977 1.01123 2.04024 1.03398C2.03091 1.04476 2.13683 1.04074 2.14044 1.04267C2.17693 1.06087 2.13268 1.08294 2.14947 1.10174C2.15296 1.10566 2.19486 1.09618 2.19736 1.0996C2.20628 1.11129 2.18892 1.12685 2.19379 1.13858C2.19607 1.14384 2.2284 1.13912 2.22647 1.14448C2.22222 1.15723 2.20976 1.16954 2.18056 1.18453C2.1779 1.18588 2.13675 1.18296 2.13617 1.19197C2.13536 1.20665 2.10706 1.22737 2.13962 1.24121C2.14941 1.24531 2.22378 1.23897 2.17337 1.25433C2.16284 1.25757 2.07331 1.26213 2.15152 1.26833C2.16451 1.26916 2.27038 1.2831 2.20397 1.29879C2.1865 1.30294 2.11382 1.31487 2.12572 1.32029C2.12761 1.32102 2.16739 1.31501 2.17163 1.31996C2.18587 1.33755 2.18264 1.35704 2.19599 1.3758C2.19964 1.38092 2.24077 1.37131 2.24488 1.37911C2.25625 1.40079 2.24638 1.42821 2.23355 1.45096C2.22874 1.45919 2.19434 1.45372 2.19061 1.45435C2.12984 1.46394 2.21192 1.46923 2.2167 1.47254C2.24529 1.49242 2.20645 1.50764 2.21604 1.52682C2.21857 1.53218 2.25782 1.5298 2.26127 1.53097C2.29495 1.54341 2.225 1.53251 2.21699 1.53911C2.19431 1.55715 2.19615 1.57963 2.19945 1.60053C2.2007 1.60825 2.24666 1.60345 2.24724 1.61052C2.25147 1.65289 2.24107 1.70022 2.207 1.74275C2.20052 1.75057 2.1674 1.73802 2.15922 1.73822C2.10228 1.73809 2.1723 1.77326 2.17808 1.78001C2.20505 1.80881 2.17282 1.8094 2.17285 1.82945C2.17501 1.92751 2.08099 2.08788 1.93227 2.18004C1.8119 2.25725 1.68583 2.26836 1.59266 2.26393C1.53915 2.26125 1.50638 2.25582 1.47226 2.25559C1.46641 2.25547 1.46733 2.30234 1.46206 2.3028C1.39379 2.30625 1.34812 2.27853 1.29626 2.28129C1.29203 2.28142 1.28858 2.32577 1.28138 2.3274C1.26618 2.33097 1.2507 2.32501 1.24066 2.30821C1.23584 2.30012 1.25291 2.26527 1.24804 2.25791C1.23715 2.24079 1.22221 2.23393 1.20643 2.23728C1.19956 2.23876 1.19792 2.28482 1.18976 2.28332C1.13398 2.27393 1.07977 2.26712 1.04416 2.19617C1.04172 2.1913 1.06404 2.10239 1.0518 2.11713C1.04417 2.1414 1.03588 2.17014 1.02807 2.19617C0.949697 2.1887 0.887454 2.13623 0.817504 2.10871C0.814545 2.10755 0.804974 2.15546 0.799152 2.15346C0.765471 2.14191 0.72838 2.14397 0.709212 2.08681C0.707291 2.0812 0.735857 2.0007 0.721856 2.00966C0.71936 2.01132 0.700818 2.01716 0.691035 2.03343C0.68962 2.03591 0.679751 2.07464 0.674523 2.07412C0.644476 2.07047 0.617817 2.05185 0.597762 2.01927C0.594573 2.01394 0.613066 1.9754 0.610923 1.97126C0.595502 1.94218 0.560275 1.96417 0.55145 1.9203C0.54546 1.89075 0.57493 1.8233 0.59109 1.75244C0.593364 1.74244 0.585098 1.73784 0.598522 1.69801C0.632239 1.59785 0.67459 1.49007 0.710025 1.38313C0.717655 1.36009 0.697654 1.38078 0.723745 1.32779C0.725506 1.32425 0.740184 1.30877 0.74878 1.2907C0.754728 1.27821 0.766254 1.23696 0.774938 1.22135C0.783612 1.20575 0.775005 1.24069 0.78663 1.22283C0.798323 1.20473 0.812216 1.15809 0.823534 1.15592ZM1.19011 0.300275C1.20832 0.337926 1.17583 0.191943 1.17384 0.229172C1.17379 0.231145 1.18918 0.298437 1.19011 0.300275ZM0.284623 0.863397C0.340232 0.900309 0.27273 0.830292 0.230315 0.80127C0.188214 0.771965 0.267883 0.852073 0.284623 0.863397ZM0.231302 1.00454C0.284976 1.01414 0.104017 0.90316 0.127736 0.949667C0.129059 0.952399 0.228076 1.00423 0.231302 1.00454ZM0.633002 1.74522C0.633539 1.7433 0.627823 1.73927 0.627031 1.74108C0.608096 1.78479 0.619578 1.79282 0.633002 1.74522ZM0.241966 1.14998C0.270884 1.15093 0.240509 1.13313 0.204479 1.13179C0.175367 1.13127 0.205882 1.14927 0.241966 1.14998ZM1.65948 0.490177C1.65798 0.491806 1.65999 0.497117 1.66953 0.48892C1.70024 0.462322 1.68496 0.462471 1.65948 0.490177ZM0.222747 1.34225C0.233008 1.31455 0.408966 1.31363 0.386763 1.3413C0.38275 1.34636 0.332062 1.32513 0.315754 1.33059C0.286011 1.34095 0.394983 1.35795 0.335207 1.36635C0.324262 1.3679 0.221772 1.34376 0.222508 1.34218C0.222587 1.3422 0.222667 1.34223 0.222747 1.34225ZM1.23632 0.473927C1.23694 0.47581 1.24381 0.476138 1.24352 0.474196C1.23647 0.427093 1.22222 0.426497 1.23632 0.473927ZM1.63082 0.78304C1.6267 0.784028 1.62514 0.800233 1.62903 0.799973C1.707 0.796349 1.71048 0.764278 1.63082 0.78304ZM0.859553 0.71906C0.872254 0.765638 0.867279 0.773994 0.837768 0.72149C0.845349 0.721589 0.851929 0.719191 0.859553 0.71906Z" fill="black"/>
</svg>
