<svg width="7" height="14" viewBox="0 0 7 14" fill="none" xmlns="http://www.w3.org/2000/svg">
<path d="M6.00659 0.0272367C5.94149 0.0912407 5.88242 0.194471 5.84646 0.276566C5.83491 0.302566 5.86464 0.306721 5.85764 0.325397C5.84381 0.362078 5.81358 0.38185 5.802 0.419145C5.79831 0.43153 5.84131 0.443569 5.83667 0.455985C5.81105 0.523773 5.76445 0.571201 5.73145 0.633868C5.56875 0.943088 5.39387 1.23164 5.21764 1.53125C5.1596 1.62989 5.11461 1.76693 5.0359 1.85588C5.02664 1.86631 5.00042 1.83913 4.99644 1.83965C4.93495 1.84838 5.00458 1.87795 4.99805 1.90578C4.97221 2.01575 4.90969 2.1167 4.84165 2.19389C4.81268 2.22657 4.77563 2.14987 4.78565 2.20922C4.78628 2.2133 4.82504 2.22563 4.82191 2.23793C4.81473 2.26582 4.78067 2.30463 4.77182 2.32361C4.75469 2.36067 4.7505 2.36628 4.72983 2.39826C4.70215 2.44172 4.68342 2.50504 4.6454 2.54607C4.63719 2.55478 4.61247 2.51954 4.59637 2.53138C4.58001 2.54363 4.55473 2.58758 4.55325 2.60678C4.55173 2.62605 4.58192 2.63763 4.58626 2.64413C4.62359 2.69802 4.52032 2.70023 4.51457 2.70501C4.40878 2.79834 4.3837 2.92071 4.31044 3.02572C4.25448 3.10569 4.18323 3.17855 4.13088 3.25317C4.09566 3.30352 4.06781 3.35296 4.03946 3.3979C4.01481 3.43594 3.98908 3.47439 3.95909 3.51165C3.95175 3.52086 3.9223 3.48149 3.91321 3.49277C3.81652 3.61296 3.73395 3.7426 3.67933 3.88782C3.67392 3.90238 3.71935 3.90808 3.71607 3.92389C3.69449 4.02084 3.69226 4.18455 3.50864 4.14278C3.48345 4.20061 3.45252 4.27126 3.45799 4.33771C3.46148 4.38058 3.51773 4.37113 3.48001 4.40087C3.47158 4.40758 3.44275 4.37764 3.43272 4.38918C3.39041 4.43802 3.37032 4.50515 3.32421 4.55186C3.31473 4.56136 3.28459 4.54248 3.27726 4.54289C3.21732 4.54738 3.27184 4.63032 3.27272 4.64283C3.27806 4.7382 3.2361 4.78526 3.20523 4.85627C3.19809 4.87278 3.16348 4.83383 3.15504 4.84909C3.11172 4.92884 3.07848 5.01645 3.06439 5.10586C3.06136 5.12583 3.10568 5.1246 3.10616 5.13491C3.1079 5.1801 3.03367 5.15959 3.03425 5.20252C3.0343 5.21152 3.06824 5.22003 3.07121 5.22285C3.11797 5.26692 3.0317 5.25484 3.02769 5.25993C2.97565 5.32262 3.04058 5.40065 3.00327 5.46541C2.9987 5.47321 2.96449 5.43916 2.95415 5.46208C2.88508 5.61477 2.83974 5.7869 2.82452 5.95458C2.82211 5.98062 2.859 5.9729 2.8624 5.97565C2.91536 6.01928 2.82913 6.01049 2.82362 6.01762C2.78236 6.07407 2.83373 6.15272 2.72405 6.16785C2.6813 6.44531 2.56005 6.70376 2.5938 6.99296C2.59414 6.99659 2.63644 6.99882 2.63693 7.00601C2.64278 7.08386 2.5946 7.06878 2.5203 7.0938C2.51188 7.09655 2.50313 7.09982 2.49409 7.10378C2.47183 7.11357 2.55829 7.17317 2.56451 7.17818C2.58745 7.19645 2.65132 7.19429 2.6554 7.19972C2.68709 7.24421 2.48578 7.19954 2.47613 7.24984C2.47618 7.25146 2.51469 7.25201 2.5176 7.2569C2.52676 7.27208 2.50951 7.28216 2.51992 7.29733C2.54407 7.33216 2.64052 7.3611 2.5748 7.3951C2.56631 7.39933 2.45299 7.36923 2.45003 7.41492C2.44896 7.43304 2.43222 7.51164 2.43554 7.53532C2.43885 7.55891 2.47873 7.55055 2.48004 7.55243C2.51796 7.62107 2.54248 7.60218 2.60949 7.64536C2.67625 7.68844 2.50544 7.64838 2.48395 7.657C2.46252 7.66564 2.4949 7.71685 2.50698 7.7302C2.51907 7.74354 2.54507 7.73446 2.55128 7.74545C2.59174 7.81794 2.46065 7.75744 2.42948 7.77324C2.35573 7.81048 2.47659 7.87234 2.48102 7.91942C2.48221 7.93217 2.45487 7.917 2.45019 7.92732C2.43205 7.96833 2.46732 8.00131 2.42195 8.04369C2.41455 8.05065 2.33058 8.07635 2.38249 8.11199C2.38998 8.11706 2.4237 8.11245 2.42759 8.13202C2.43345 8.16124 2.43168 8.21182 2.41585 8.23929C2.40414 8.25959 2.35596 8.22546 2.36748 8.25566C2.37263 8.26908 2.40734 8.25199 2.41446 8.27675C2.4216 8.30139 2.41009 8.35915 2.40519 8.38105C2.40026 8.4029 2.36248 8.38389 2.35949 8.3852C2.34221 8.39331 2.31563 8.43231 2.31503 8.43606C2.27743 8.6241 2.31527 8.8093 2.26258 8.98961C2.25851 9.00373 2.21798 8.98718 2.21692 8.98927C2.19115 9.03564 2.30954 9.01522 2.34134 9.05594C2.25669 9.03688 2.26879 9.05989 2.25372 9.09319C2.24639 9.10922 2.21478 9.09467 2.21114 9.09565C2.15679 9.11234 2.21893 9.14021 2.23149 9.14682C2.2777 9.1712 2.21706 9.17962 2.2479 9.19625C2.27851 9.21274 2.33077 9.19466 2.32474 9.22804C2.29261 9.23248 2.21663 9.19469 2.19955 9.21804C2.13497 9.30594 2.16959 9.49432 2.16418 9.57288C2.15886 9.65038 2.14937 9.67477 2.15363 9.72128C2.16141 9.80523 2.10656 9.7659 2.0717 9.81274C2.0369 9.85946 2.18691 9.85655 2.21728 9.86853C2.24766 9.88032 2.21414 9.88327 2.23012 9.89466C2.2461 9.90601 2.2703 9.89017 2.27373 9.91178C2.27716 9.93331 2.21293 9.98148 2.17892 9.98431C2.10693 9.98976 2.03748 9.95346 2.05518 10.0124C2.05625 10.0157 2.09623 10.0111 2.09837 10.0237C2.11417 10.1236 2.10188 10.224 2.11497 10.3241C2.11685 10.3378 2.16132 10.3319 2.16291 10.3399C2.17964 10.4225 2.11106 10.3853 2.02485 10.4186C2.13312 10.4228 2.19518 10.4563 2.18805 10.516C2.18368 10.553 2.13779 10.5406 2.10181 10.5602C2.09096 10.566 2.11978 10.5959 2.09722 10.5978C2.02343 10.6042 1.94606 10.5692 1.97022 10.6365C1.9714 10.6395 2.01185 10.6354 2.01303 10.6454C2.02093 10.71 1.94506 10.7062 1.92792 10.7734C1.91458 10.8251 1.94997 10.9246 1.95142 10.9842C2.07213 10.9956 2.03872 11.0495 1.95336 11.0638C1.95307 11.1021 1.94431 11.146 1.95276 11.183C1.95557 11.1965 1.99129 11.1908 1.99493 11.1928C2.05206 11.2235 1.96967 11.2336 1.96583 11.2419C1.92787 11.3314 1.98472 11.4082 1.92208 11.4958C1.9201 11.4984 1.85373 11.5014 1.88092 11.519C1.88445 11.5212 1.88955 11.5237 1.89656 11.5264C1.89848 11.5271 1.90754 11.5218 1.91707 11.5196C1.92196 11.5185 1.92696 11.5181 1.93119 11.5198C1.93686 11.5221 1.94115 11.5281 1.94183 11.5406C1.94412 11.5805 1.9869 11.6585 1.94426 11.7115C1.93404 11.7246 1.86356 11.752 1.91433 11.783C1.92122 11.7872 1.94565 11.7855 1.95855 11.792C1.99957 11.8131 1.91398 11.8133 1.98364 11.841C2.05327 11.8686 2.10169 11.9212 2.04226 11.9712C2.04048 11.9729 1.97172 11.9744 1.96939 11.9919C1.96578 12.0199 1.97059 12.0626 1.96251 12.0915C1.95863 12.1053 1.92047 12.0857 1.9191 12.0879C1.87192 12.1711 1.88592 12.2441 1.85603 12.3441C1.85027 12.3632 1.77601 12.3819 1.79648 12.435C1.813 12.4811 1.93408 12.5345 1.94411 12.585C1.94198 12.5888 1.93382 12.5989 1.93125 12.6024C1.93229 12.6178 1.92319 12.632 1.89845 12.6428C1.8517 12.6651 1.63774 12.5118 1.67873 12.6552C1.55814 12.7151 1.49054 12.8389 1.34994 12.8595C1.3436 12.8605 1.29355 12.8045 1.28217 12.8114C1.265 12.8219 1.27034 12.8573 1.25812 12.8657C1.25104 12.8708 1.2436 12.8752 1.23589 12.8789C1.18992 12.9014 1.13737 12.9021 1.0928 12.925C1.07309 12.935 1.09345 12.9647 1.06955 12.9766C1.04511 12.9885 1.01209 12.9517 0.986302 12.9854C0.967222 13.0108 0.973307 13.1095 0.941577 13.1323C0.909392 13.0445 0.88632 13.0548 0.836572 13.0451C0.826996 13.0432 0.825535 13.0095 0.8205 13.007C0.799727 12.9961 0.794058 13.0263 0.773679 13.0135C0.768766 13.0105 0.759035 12.9801 0.754581 12.9758C0.716416 12.9386 0.696783 13.0194 0.6929 13.0335C0.679303 13.0869 0.65477 13.0507 0.639093 13.0745C0.623024 13.0984 0.660914 13.1121 0.639116 13.1299C0.59413 13.1667 0.526184 13.1788 0.474091 13.1928C0.453275 13.1982 0.457652 13.1533 0.454439 13.1532C0.409106 13.1529 0.374858 13.207 0.332975 13.1293C0.349405 13.3502 0.302528 13.1143 0.25014 13.17C0.246041 13.1745 0.260499 13.2774 0.282494 13.2885C0.304603 13.2995 0.32657 13.2617 0.358038 13.2791C0.365443 13.2832 0.422231 13.3702 0.428809 13.3748C0.478029 13.4108 0.44838 13.2584 0.448425 13.2496C0.450104 13.1549 0.517643 13.2463 0.530936 13.2504C0.591695 13.2695 0.631026 13.2366 0.681168 13.2472C0.714029 13.254 0.744679 13.3508 0.767075 13.3411C0.841809 13.3085 0.824085 13.1656 0.933682 13.2587C0.957413 13.2783 0.977906 13.3889 1.0054 13.2869C1.00728 13.2804 1.02082 13.1909 1.06188 13.2294C1.06706 13.2343 1.07828 13.2646 1.08316 13.2657C1.11595 13.2722 1.12443 13.2413 1.15752 13.2414C1.19091 13.2414 1.23286 13.244 1.26129 13.2197C1.27868 13.205 1.27908 13.1387 1.28193 13.1212C1.28834 13.082 1.3239 13.1036 1.33676 13.0897C1.3405 13.0857 1.34229 13.0788 1.34081 13.0667C1.33379 13.0126 1.26969 12.9565 1.29463 12.907C1.33338 12.9816 1.37524 13.0572 1.41552 13.1316C1.50859 13.0817 1.58741 13.0066 1.68132 12.9469C1.69306 12.9395 1.70687 12.9849 1.72041 12.9777C1.77779 12.9463 1.80353 12.886 1.86347 12.8505C1.90999 12.8232 1.98702 12.815 2.03608 12.7788C2.01604 12.7397 2.01862 12.7103 2.03029 12.6848C2.03466 12.6788 2.04852 12.6615 2.05215 12.6551C2.06342 12.6198 2.09192 12.5888 2.10421 12.5562C2.11161 12.5364 2.08833 12.5254 2.08774 12.5086C2.08517 12.446 2.14928 12.5069 2.16826 12.4989C2.24937 12.4615 2.07649 12.3773 2.10683 12.3131C2.1083 12.3103 2.22123 12.2997 2.22956 12.2945C2.28296 12.266 2.19811 12.2763 2.19915 12.2485C2.20057 12.1977 2.18564 12.1604 2.22771 12.1133C2.24003 12.1 2.31122 12.0737 2.26842 12.0331C2.26282 12.0278 2.22907 12.0239 2.22771 12.0203C2.20541 11.9569 2.31029 11.9726 2.35109 11.9427C2.39186 11.9124 2.32454 11.8509 2.30433 11.8389C2.25243 11.8065 2.27898 11.8573 2.27336 11.8583C2.20784 11.8684 2.22292 11.833 2.21993 11.805C2.11634 11.7916 2.12554 11.7553 2.21716 11.776C2.22717 11.7784 2.21569 11.799 2.21993 11.805C2.32417 11.7901 2.34086 11.7449 2.24762 11.6935C2.20381 11.6697 2.1509 11.6873 2.1725 11.6242C2.18211 11.5955 2.25363 11.609 2.27395 11.5836C2.28811 11.5658 2.29174 11.546 2.29025 11.5257C2.28668 11.488 2.25854 11.4409 2.26797 11.4028C2.27295 11.3823 2.31112 11.4047 2.31589 11.3907C2.32853 11.357 2.30141 11.3205 2.3192 11.2859C2.32087 11.2827 2.36135 11.2938 2.36273 11.2827C2.37434 11.1949 2.35495 11.1189 2.36387 11.0253C2.36796 10.982 2.3995 10.903 2.40021 10.8574C2.4019 10.7753 2.35454 10.6695 2.37771 10.603C2.39272 10.5591 2.43236 10.5742 2.46272 10.5583C2.5214 10.5289 2.43344 10.4506 2.41972 10.4394C2.41925 10.4391 2.40444 10.4767 2.38623 10.4532C2.34414 10.4353 2.41947 10.4398 2.41972 10.4394C2.41088 10.4317 2.41193 10.3542 2.42189 10.3397C2.42731 10.332 2.46535 10.342 2.46744 10.3378C2.51631 10.2389 2.54072 10.1378 2.53801 10.0301C2.5375 10.0281 2.49387 10.0246 2.49321 10.0201C2.48291 9.95637 2.54145 9.92597 2.58038 9.8802C2.61924 9.8348 2.61467 9.7942 2.54509 9.75307C2.56023 9.71635 2.53573 9.65765 2.5207 9.62332C2.50567 9.58902 2.59037 9.59769 2.59246 9.59521C2.65898 9.51781 2.61865 9.46117 2.62535 9.37119C2.62833 9.32875 2.65412 9.24637 2.67067 9.20265C2.68393 9.16786 2.66783 9.14289 2.68588 9.11162C2.6883 9.10738 2.7249 9.11808 2.72657 9.11694C2.77738 9.08707 2.68311 9.08998 2.66807 9.07962C2.61333 9.04217 2.58457 9.01978 2.62037 8.97684C2.62859 8.96692 2.76536 8.95682 2.77638 8.93816C2.79046 8.91393 2.74172 8.9158 2.75768 8.89059C2.75901 8.88843 2.78798 8.89379 2.78952 8.87683C2.79705 8.79805 2.79454 8.71047 2.81136 8.63004C2.81355 8.61904 2.85717 8.64112 2.86109 8.62536C2.8794 8.55156 2.89194 8.46927 2.88317 8.39264C2.88087 8.37375 2.84666 8.37934 2.83778 8.37376C2.78407 8.33967 2.87417 8.32056 2.87676 8.31527C2.94074 8.18899 2.8829 8.07331 2.94377 7.94398C2.94725 7.93692 3.0477 7.89643 2.97507 7.85701C2.97025 7.85431 2.89577 7.81492 2.95391 7.80247C2.95755 7.80171 2.99535 7.82487 2.99624 7.79672C2.99713 7.76856 3.0324 7.72964 2.99464 7.68399C2.98273 7.66964 2.90917 7.62671 2.97861 7.60289C2.98343 7.60134 3.13565 7.57326 3.04132 7.53551C3.0258 7.52928 2.92145 7.51337 2.98259 7.48088C2.99442 7.47471 3.01477 7.49379 3.03324 7.47514C3.06165 7.44662 3.04206 7.39818 3.09579 7.36721C3.10527 7.36188 3.18132 7.34528 3.1325 7.31126C3.12485 7.30592 3.08891 7.30641 3.08745 7.29306C3.08406 7.26279 3.09028 7.23383 3.09637 7.20487C3.10291 7.1738 3.10943 7.14267 3.10315 7.10946C3.09897 7.08698 3.04101 7.08628 3.03053 7.06142C3.02005 7.03652 3.01498 6.98928 3.04533 6.97194C3.07568 6.95467 3.15902 6.9985 3.17344 6.96632C3.23615 6.82659 3.21907 6.67013 3.25003 6.52258C3.25462 6.50074 3.28124 6.52689 3.29029 6.49545C3.3235 6.37903 3.41106 6.18909 3.37731 6.06878C3.3503 5.97155 3.27783 6.06023 3.27619 5.99155C3.27562 5.95823 3.3864 5.95902 3.39187 5.95307C3.4469 5.89409 3.41898 5.83141 3.45446 5.77373C3.46178 5.76192 3.49767 5.78869 3.50345 5.77853C3.52349 5.74411 3.51962 5.69869 3.5359 5.66463C3.54329 5.64941 3.57284 5.66367 3.57585 5.64835C3.58338 5.61193 3.58223 5.57625 3.56666 5.53157C3.56526 5.52747 3.51932 5.53367 3.52784 5.50742C3.54165 5.46523 3.53428 5.40183 3.58247 5.36622C3.59695 5.35558 3.66616 5.38338 3.63096 5.33359C3.62363 5.32319 3.53751 5.29676 3.62367 5.29141C3.63804 5.29029 3.75883 5.27277 3.70942 5.21767C3.6964 5.20313 3.63761 5.15444 3.65555 5.14231C3.65823 5.14079 3.69093 5.166 3.70059 5.15376C3.73416 5.11009 3.75304 5.05806 3.78756 5.01371C3.79681 5.002 3.82527 5.03909 3.83783 5.02118C3.87226 4.97224 3.89489 4.90117 3.90915 4.84365C3.91436 4.82236 3.87703 4.82018 3.87438 4.81712C3.83131 4.7673 3.91136 4.79102 3.91934 4.78589C3.96811 4.75331 3.9522 4.70044 3.98342 4.66355C3.99198 4.65329 4.02213 4.67993 4.02644 4.67928C4.06922 4.67165 3.99777 4.65611 3.99907 4.63735C4.00251 4.58469 4.03117 4.53938 4.05943 4.49976C4.06984 4.4853 4.09946 4.52502 4.10831 4.51186C4.16157 4.43428 4.20741 4.34948 4.23499 4.25909C4.24012 4.24203 4.20483 4.23242 4.20001 4.22512C4.16624 4.17405 4.25006 4.18473 4.26068 4.18176C4.30912 4.16819 4.29133 4.13913 4.31463 4.11478C4.40051 4.02557 4.47843 3.9074 4.54966 3.80201C4.57788 3.76117 4.60541 3.71906 4.62889 3.68241C4.75278 3.48855 4.82164 3.32895 4.94599 3.16195C4.95383 3.15131 4.9848 3.18846 4.99207 3.1796C5.08433 3.06364 5.14982 2.93292 5.24212 2.8183C5.24968 2.80876 5.27677 2.84764 5.29006 2.83327C5.31733 2.80433 5.34309 2.76114 5.35366 2.71968C5.35868 2.69981 5.31283 2.70056 5.31852 2.68099C5.33167 2.63544 5.35635 2.59241 5.38799 2.55734C5.40151 2.5425 5.42263 2.59233 5.43728 2.57109C5.53835 2.42618 5.63998 2.28608 5.68923 2.10584C5.69259 2.0935 5.62206 2.03405 5.65099 2.02218C5.67327 2.0346 5.69815 2.0512 5.72128 2.0655C5.87461 1.86051 5.98808 1.63297 6.1272 1.4197C6.13306 1.41074 6.1628 1.45333 6.17433 1.43615C6.24148 1.33625 6.31814 1.24845 6.34862 1.12043C6.35169 1.10779 6.27812 1.06394 6.3092 1.04206C6.31469 1.0383 6.35498 1.00074 6.37826 0.999925C6.38164 0.999991 6.40855 1.031 6.41951 1.01747C6.48213 0.939222 6.53604 0.848284 6.57526 0.753389C6.58145 0.738139 6.53714 0.726795 6.54127 0.715706C6.57148 0.636256 6.65032 0.58452 6.66608 0.5004C6.67709 0.443298 6.60728 0.413796 6.56716 0.347529C6.56154 0.338114 6.5801 0.311577 6.54798 0.284447C6.46734 0.215999 6.36624 0.157483 6.28141 0.0830808C6.26315 0.0669988 6.31133 0.0478525 6.24881 0.0325882C6.2446 0.0315853 6.2091 0.0454774 6.18834 0.0398156C6.17398 0.0359024 6.14651 0.00156995 6.12543 4.03852e-05C6.10433 -0.00143334 6.12482 0.0306485 6.09647 0.0336287C6.06788 0.0365302 6.03445 0.000140336 6.00659 0.0272367ZM2.45386 9.46886C2.41809 9.43357 2.56648 9.45267 2.5262 9.47832C2.52408 9.47953 2.4556 9.47066 2.45386 9.46886ZM1.52768 12.9073C1.52805 12.8299 1.6043 12.8957 1.60623 12.955C1.60684 13.0149 1.52684 12.9311 1.52768 12.9073ZM1.13204 13.0509C1.15412 12.9852 1.24531 13.1768 1.18081 13.1575C1.17707 13.1564 1.13068 13.0547 1.13204 13.0509ZM6.472 0.438344C6.47066 0.436807 6.48331 0.416846 6.48521 0.417607C6.53061 0.436312 6.50542 0.476022 6.472 0.438344ZM0.733661 13.1353C0.739117 13.1038 0.787638 13.1236 0.781171 13.1628C0.775806 13.1945 0.726603 13.1745 0.733661 13.1353ZM2.55263 7.93362C2.55052 7.93276 2.55157 7.91569 2.56391 7.91827C2.60363 7.92663 2.58815 7.94784 2.55263 7.93362ZM0.0730295 13.2851C0.170722 13.2593 0.194925 13.0759 0.0941385 13.1152C0.0757238 13.1222 0.145567 13.1624 0.124142 13.1825C0.084601 13.2191 0.0359325 13.1161 0.000412919 13.1821C-0.00612594 13.1942 0.0676368 13.287 0.0732453 13.2853C0.0731737 13.2852 0.0731011 13.2852 0.0730295 13.2851ZM2.27906 9.42417C2.2772 9.42329 2.27904 9.39968 2.28106 9.39942C2.32995 9.39423 2.32628 9.44177 2.27906 9.42417ZM2.64672 6.93892C2.64284 6.93676 2.65043 6.88203 2.65463 6.88111C2.73646 6.86954 2.72149 6.97938 2.64672 6.93892ZM1.95454 10.9855C1.90428 11.007 1.89557 11.0377 1.95331 11.0637C1.95259 11.0381 1.95473 11.0122 1.95454 10.9855Z" fill="#963076"/>
</svg>
