<svg width="9" height="9" viewBox="0 0 9 9" fill="none" xmlns="http://www.w3.org/2000/svg">
<path d="M8.04573 4.47726C7.96516 4.56383 7.88071 4.69626 7.82181 4.80185C7.80344 4.83475 7.83594 4.83633 7.82408 4.85987C7.80051 4.90628 7.76123 4.93472 7.73911 4.98191C7.73189 4.99761 7.77765 5.00768 7.76941 5.02343C7.724 5.10958 7.65806 5.17369 7.60321 5.25442C7.33196 5.65288 7.03382 6.02259 6.71968 6.39353C6.61611 6.51568 6.51024 6.68381 6.38344 6.78874C6.36881 6.80077 6.35045 6.76689 6.34578 6.76731C6.2724 6.77539 6.33863 6.8142 6.31963 6.84723C6.31809 6.8499 6.31653 6.85256 6.31497 6.85521C6.27509 6.94967 6.16745 7.00367 6.05905 7.00351C6.01249 7.00321 6.05024 6.92531 6.00919 6.97061C6.00605 6.97364 6.02143 7.01168 6.00845 7.01689C5.97943 7.02899 5.91892 7.02204 5.89409 7.02353C5.84457 7.02687 5.8376 7.02568 5.78978 7.02029C5.7264 7.01318 5.64253 7.01635 5.57381 6.98951C5.55913 6.98366 5.58909 6.95 5.5669 6.93715C5.54405 6.9243 5.48156 6.90972 5.45657 6.91165C5.43227 6.91397 5.43196 6.94689 5.42596 6.95258C5.37583 7.00098 5.32669 6.89464 5.3189 6.88942C5.15847 6.79383 4.99211 6.77329 4.83025 6.69683C4.70747 6.63852 4.58472 6.55859 4.46818 6.49999C4.32932 6.43029 4.20247 6.38602 4.0708 6.30915C4.0569 6.30108 4.09618 6.26889 4.07926 6.25895C3.90334 6.15563 3.72326 6.05959 3.52911 5.98615C3.5233 5.98368 3.51748 5.98131 3.51166 5.97903C3.48488 5.96891 3.49805 6.02207 3.47123 6.01496C3.29603 5.9605 3.07782 6.04728 2.97802 5.87848C2.87903 5.89489 2.77645 5.92025 2.71037 5.96447C2.66743 5.99285 2.71636 6.03319 2.65815 6.01945C2.64533 6.0162 2.65801 5.97556 2.63966 5.97353C2.6173 5.97094 2.59548 5.97 2.5744 5.96894C2.49114 5.96623 2.40774 5.98172 2.32907 5.98986C2.3064 5.99219 2.30165 5.95676 2.29343 5.95264C2.22145 5.92035 2.1698 6.03726 2.15879 6.0505C2.05519 6.15527 1.97271 6.19548 1.88099 6.27299C1.86025 6.29103 1.85418 6.23366 1.83294 6.24999C1.72272 6.33621 1.62937 6.43958 1.55973 6.54701C1.54434 6.57102 1.59168 6.57921 1.5859 6.59204C1.56048 6.64803 1.49488 6.60672 1.4701 6.65948C1.46484 6.67052 1.49518 6.68857 1.49661 6.6927C1.5192 6.75734 1.43666 6.72287 1.4296 6.72803C1.3391 6.79186 1.36045 6.90165 1.28184 6.96798C1.27245 6.97572 1.25884 6.92603 1.23454 6.94941C1.16555 7.01535 1.09732 7.08247 1.03027 7.14354C0.894954 7.26846 0.838748 7.39598 0.777597 7.46963C0.761688 7.48916 0.795398 7.50449 0.796983 7.50845C0.801288 7.52592 0.799264 7.53541 0.794471 7.53933C0.779132 7.55161 0.744247 7.51686 0.737901 7.5177C0.680428 7.53101 0.601498 7.59927 0.627861 7.49842C0.630123 7.50103 0.635708 7.5058 0.639308 7.5113C0.611222 7.5285 0.615596 7.37111 0.677478 7.24142C0.733432 7.10582 0.80815 6.96681 0.868003 6.81616C0.883444 6.77675 0.900825 6.73039 0.912467 6.69016C0.914077 6.68532 0.873379 6.67194 0.876766 6.66234C0.916313 6.54794 0.960699 6.60102 1.06967 6.57232C1.09714 6.56493 1.04356 6.46609 1.04067 6.45709C1.02838 6.42667 0.964073 6.41316 0.963126 6.40482C0.956504 6.33796 1.12858 6.45196 1.16653 6.38737C1.16743 6.38516 1.12969 6.37451 1.12964 6.36714C1.12885 6.34508 1.1509 6.3373 1.14901 6.31473C1.14437 6.26298 1.06635 6.19807 1.14871 6.17308C1.15949 6.16971 1.2534 6.24059 1.28235 6.18065C1.29239 6.15905 1.35394 6.05891 1.3626 6.02949C1.37215 5.99855 1.32871 5.99793 1.32845 5.99517C1.32941 5.89591 1.29516 5.91318 1.25423 5.83767C1.21258 5.76395 1.35729 5.86349 1.38295 5.85862C1.4085 5.85382 1.40577 5.7781 1.40177 5.75693C1.39763 5.73598 1.36704 5.74052 1.36713 5.72458C1.36777 5.62043 1.46203 5.73533 1.50119 5.72403C1.59451 5.69631 1.51098 5.58287 1.53362 5.52046C1.53979 5.5035 1.55771 5.53115 1.56823 5.51903C1.61037 5.46946 1.59315 5.41944 1.66201 5.37732C1.67323 5.37045 1.77001 5.36137 1.73957 5.30093C1.73518 5.29221 1.69983 5.28806 1.70722 5.26185C1.71789 5.22319 1.75035 5.15604 1.78069 5.127C1.80363 5.10468 1.83074 5.16281 1.8369 5.12077C1.83965 5.10202 1.79615 5.11344 1.80356 5.07952C1.81071 5.04602 1.85659 4.97342 1.87344 4.94793C1.89081 4.92161 1.91636 4.95744 1.92001 4.95669C1.94133 4.95175 1.98988 4.9098 1.99273 4.90507C2.13894 4.6758 2.21272 4.42674 2.37227 4.21363C2.38468 4.19698 2.4136 4.23128 2.41587 4.22897C2.46867 4.17818 2.34267 4.16565 2.33688 4.10322C2.40653 4.15523 2.40878 4.12202 2.44381 4.08397C2.46062 4.06587 2.48201 4.09493 2.48611 4.09485C2.54803 4.09197 2.50545 4.036 2.49744 4.02344C2.46803 3.97714 2.53131 3.98638 2.51189 3.95507C2.49269 3.92387 2.4316 3.92956 2.45784 3.88897C2.49132 3.89399 2.54081 3.96752 2.57148 3.94341C2.6868 3.85317 2.77011 3.60263 2.82439 3.50515C2.87868 3.40754 2.90182 3.38198 2.92732 3.32125C2.9732 3.21191 3.00118 3.27975 3.06289 3.23447C3.1249 3.18877 2.98154 3.13827 2.96036 3.11238C2.93912 3.08663 2.97268 3.09492 2.96485 3.07477C2.95702 3.05465 2.92397 3.06609 2.93459 3.03742C2.9452 3.00878 3.03731 2.97017 3.07109 2.97916C3.1423 2.99871 3.18466 3.06945 3.20527 2.98957C3.20642 2.98495 3.1658 2.97616 3.17186 2.95951C3.22151 2.82737 3.29787 2.70623 3.35125 2.57581C3.35858 2.55779 3.313 2.54847 3.31686 2.53771C3.35686 2.4257 3.39508 2.50069 3.49734 2.49236C3.39938 2.44509 3.36298 2.3801 3.41051 2.30641C3.4391 2.26205 3.47352 2.29547 3.52006 2.28507C3.53407 2.28197 3.52718 2.23355 3.54939 2.2401C3.62205 2.26144 3.67059 2.33514 3.6929 2.24252C3.69379 2.23838 3.65378 2.22706 3.65926 2.21437C3.69453 2.13228 3.76412 2.16436 3.82402 2.0904C3.86495 2.03992 3.89674 1.92953 3.93188 1.85182C3.93702 1.84051 3.94215 1.83002 3.94733 1.82059C3.84569 1.75433 3.913 1.70395 4.00085 1.72371C4.02828 1.67743 4.06604 1.63131 4.08741 1.58118C4.09475 1.56401 4.05919 1.55346 4.05743 1.54939C4.02924 1.48629 4.10943 1.51424 4.11901 1.50644C4.21869 1.42199 4.23349 1.30068 4.35708 1.2481C4.36135 1.24649 4.42974 1.29588 4.40378 1.23226C4.40208 1.22783 4.34746 1.23166 4.38195 1.18831C4.41579 1.14551 4.4605 1.03427 4.54378 1.02266C4.56589 1.01814 4.62932 1.05764 4.63125 0.999707C4.63205 0.991553 4.61882 0.970814 4.6196 0.956049C4.62698 0.907794 4.65782 0.987039 4.66859 0.911787C4.67605 0.87048 4.7024 0.834005 4.73165 0.81682C4.75861 0.801875 4.7927 0.800411 4.83177 0.821327C4.8346 0.822646 4.85699 0.88907 4.88218 0.88721C4.92248 0.884069 4.98029 0.869606 5.02291 0.870778C5.04326 0.871348 5.02947 0.913034 5.03298 0.913859C5.16739 0.940241 5.26539 0.910081 5.41331 0.906743C5.44038 0.906041 5.512 0.97013 5.56811 0.93002C5.62948 0.88598 5.59075 0.676122 5.71515 0.736273C5.76402 0.76002 5.81328 1.02617 5.91623 0.895691C6.09998 0.937192 6.26356 0.864389 6.4475 0.875775C6.45559 0.876325 6.49716 0.941928 6.51689 0.936085C6.53136 0.931749 6.54045 0.920074 6.54824 0.908625C6.55684 0.896302 6.56261 0.884836 6.57201 0.880417C6.65092 0.842363 6.73579 0.843164 6.81318 0.809867C6.84254 0.797273 6.82009 0.76807 6.8547 0.753038C6.88962 0.737849 6.92989 0.772187 6.96973 0.732654C7.00009 0.702477 7.00049 0.6004 7.04324 0.570913C7.08044 0.656627 7.11229 0.641716 7.1799 0.639506C7.19281 0.639147 7.19388 0.674118 7.20067 0.675481C7.22919 0.681422 7.23781 0.64818 7.26588 0.655617C7.27264 0.657394 7.28594 0.686406 7.29223 0.689482C7.34669 0.716661 7.37364 0.624525 7.37757 0.608644C7.39373 0.548094 7.42895 0.576832 7.44875 0.545675C7.46776 0.514775 7.41602 0.515302 7.44259 0.488695C7.498 0.433421 7.58211 0.390801 7.6424 0.347328C7.66654 0.330122 7.67437 0.376535 7.67839 0.374891C7.72013 0.355169 7.74243 0.310912 7.78063 0.30184C7.79591 0.297967 7.8142 0.299778 7.83769 0.311121C7.72391 0.118845 7.87968 0.300338 7.9185 0.21171C7.92146 0.204846 7.86513 0.116911 7.83271 0.123447C7.80016 0.13017 7.78844 0.183215 7.74416 0.191161C7.73741 0.192389 7.69199 0.177473 7.6585 0.166294C7.64304 0.157182 7.62929 0.150809 7.62643 0.150476C7.56507 0.141541 7.65231 0.268802 7.65511 0.277578C7.68459 0.370694 7.57349 0.31887 7.55782 0.319901C7.48092 0.329305 7.43857 0.377403 7.37417 0.384219C7.33184 0.3888 7.28334 0.299372 7.25785 0.315391C7.17285 0.367841 7.19573 0.51258 7.05705 0.438314C7.02743 0.422303 7.00422 0.311949 6.96875 0.42097C6.96669 0.427807 6.94432 0.523025 6.89561 0.487822C6.88949 0.483383 6.87779 0.453217 6.87182 0.45264C6.83207 0.449304 6.81892 0.481986 6.778 0.484266C6.73684 0.486625 6.68658 0.485611 6.64791 0.511287C6.62497 0.526594 6.61212 0.595184 6.60481 0.61343C6.58386 0.665988 6.52357 0.613181 6.51874 0.669325C6.51368 0.72581 6.58265 0.78517 6.53531 0.836819C6.51113 0.772114 6.48459 0.706631 6.45882 0.641623L6.47544 0.636559C6.47093 0.622048 6.46647 0.607558 6.46208 0.593105C6.35955 0.623539 6.25184 0.664635 6.13131 0.66472C6.11646 0.664613 6.13024 0.619021 6.11455 0.617682C6.04879 0.612 5.98852 0.64304 5.91613 0.626706C5.86014 0.613854 5.80098 0.561625 5.74119 0.544488C5.69599 0.637322 5.60609 0.596217 5.53627 0.598457C5.51178 0.599219 5.51105 0.624954 5.49302 0.631703C5.42486 0.656586 5.46314 0.574749 5.4463 0.559793C5.37304 0.496109 5.35016 0.687006 5.25849 0.675759C5.25392 0.675181 5.19936 0.569068 5.19078 0.562307C5.13845 0.517944 5.17996 0.597444 5.1458 0.603418C5.08309 0.614624 5.04025 0.637768 4.9665 0.607719C4.9454 0.598801 4.89103 0.535523 4.84967 0.586724C4.8443 0.593418 4.84876 0.627165 4.84439 0.629332C4.76615 0.665967 4.75711 0.561915 4.70599 0.529296C4.70581 0.529089 4.70563 0.528885 4.70544 0.528683C4.68221 0.491266 4.53623 0.588126 4.52657 0.619196C4.48308 0.691693 4.58029 0.626122 4.58632 0.632647C4.6373 0.687543 4.55405 0.691228 4.50258 0.72157C4.53534 0.820074 4.47852 0.844352 4.45342 0.751983C4.45084 0.741395 4.4937 0.730171 4.50258 0.72157C4.4137 0.646912 4.31141 0.69494 4.31514 0.818627C4.3179 0.875917 4.37391 0.893514 4.29043 0.946792C4.25267 0.972314 4.21425 0.908853 4.17187 0.924821C4.07539 0.961643 4.05448 1.09221 3.99313 1.15391C3.9702 1.17714 3.95819 1.12844 3.94195 1.14289C3.89846 1.18172 3.89147 1.24043 3.84595 1.27712C3.84177 1.28043 3.8159 1.24597 3.80505 1.25998C3.72172 1.36663 3.67765 1.47711 3.60155 1.59202C3.59606 1.60032 3.58947 1.60938 3.58207 1.61905C3.54088 1.67266 3.47587 1.74182 3.44743 1.79185C3.3897 1.8929 3.35905 2.04828 3.29274 2.12276C3.24887 2.1726 3.2223 2.13799 3.18337 2.14614C3.10797 2.16184 3.13736 2.29507 3.14306 2.31396C3.14325 2.31458 3.182 2.27304 3.18337 2.30962C3.21078 2.34826 3.14357 2.31354 3.14306 2.31396C3.14684 2.32597 3.09294 2.42573 3.07414 2.4402C3.0639 2.44804 3.03488 2.42103 3.03016 2.42552C2.9193 2.53178 2.82814 2.65428 2.76171 2.79108C2.7609 2.79379 2.79983 2.81401 2.79748 2.82008C2.76556 2.90549 2.69015 2.92404 2.62444 2.96774C2.5588 3.01137 2.53585 3.06699 2.57603 3.14339C2.53847 3.18466 2.52477 3.26785 2.51693 3.31768C2.50944 3.36694 2.43433 3.32662 2.43076 3.32911C2.31903 3.40471 2.32101 3.49257 2.25889 3.60526C2.23022 3.65771 2.15345 3.75663 2.11093 3.80699C2.07718 3.84674 2.07676 3.88497 2.04022 3.91939C2.03529 3.92407 2.00671 3.89837 2.00441 3.8993C1.93728 3.92127 2.02959 3.94818 2.03769 3.96641C2.06719 4.03267 2.08174 4.06981 2.02099 4.11387C2.00696 4.12417 1.86906 4.09358 1.8471 4.11417C1.81878 4.14104 1.86685 4.15416 1.8363 4.18145C1.83374 4.18379 1.80904 4.1677 1.79743 4.1889C1.74166 4.28959 1.69242 4.40199 1.6274 4.50215C1.61875 4.51568 1.5897 4.47368 1.57655 4.49281C1.51541 4.58174 1.45386 4.68565 1.41688 4.78839C1.40787 4.8138 1.44443 4.8167 1.44975 4.82664C1.48168 4.88723 1.38327 4.88466 1.37771 4.89067C1.24059 5.03732 1.23116 5.2025 1.0968 5.35493C1.09019 5.36174 0.967259 5.38876 1.01614 5.4601C1.01913 5.46529 1.07031 5.53628 1.00589 5.53704C1.00189 5.53703 0.978296 5.49583 0.961081 5.53293C0.943505 5.57063 0.8888 5.60852 0.898548 5.68113C0.901735 5.70381 0.950161 5.77926 0.86889 5.79112C0.863121 5.79209 0.697533 5.78826 0.76952 5.86242C0.781378 5.87462 0.874709 5.92399 0.79617 5.95071C0.781121 5.9556 0.77173 5.92518 0.743289 5.94451C0.700649 5.97228 0.690999 6.04443 0.622149 6.06894C0.609511 6.07404 0.525046 6.07655 0.554994 6.13296C0.559681 6.1418 0.595096 6.15101 0.589575 6.16824C0.560506 6.25533 0.494575 6.32161 0.47107 6.41021C0.462241 6.44231 0.519371 6.45738 0.516849 6.49193C0.51388 6.51961 0.501265 6.56312 0.480556 6.58618C0.472746 6.59536 0.463745 6.60278 0.453559 6.60715C0.413072 6.62467 0.354705 6.54476 0.321046 6.58798C0.178781 6.78746 0.0841054 6.99619 0.034827 7.38647C0.0320398 7.45174 -0.000369435 7.3906 -1.05324e-05 7.4988C0.00139929 7.60751 0.041879 7.81714 0.199428 7.96825C0.397629 8.15953 0.644841 8.15377 0.775739 8.12504C0.917534 8.0942 1.01521 8.03666 1.09253 7.97505C1.16916 7.9136 1.20967 7.85623 1.2326 7.81058C1.30133 7.65065 1.13697 7.77329 1.19691 7.67041C1.22299 7.62287 1.33305 7.65462 1.34121 7.65033C1.38708 7.62417 1.40057 7.60334 1.40624 7.59011C1.44088 7.5538 1.47216 7.51725 1.51416 7.48625C1.53307 7.47224 1.54611 7.51901 1.56201 7.50654C1.61679 7.46387 1.65117 7.40065 1.69524 7.35849C1.71506 7.33963 1.73574 7.36534 1.75076 7.34529C1.78694 7.29745 1.81091 7.24995 1.82458 7.1884C1.82582 7.1828 1.77297 7.18119 1.79956 7.1489C1.84247 7.09693 1.87376 7.01545 1.94597 6.98176C1.96748 6.9719 2.02335 7.02124 2.016 6.95286C2.01445 6.93868 1.94043 6.88652 2.03317 6.90049C2.04912 6.90204 2.1829 6.91279 2.1632 6.83806C2.15818 6.81808 2.12671 6.74628 2.15193 6.73844C2.15546 6.73765 2.17381 6.77537 2.19036 6.76526C2.24777 6.72963 2.29534 6.68441 2.3488 6.6624C2.36279 6.65688 2.36892 6.70301 2.38821 6.69441C2.44155 6.6706 2.4847 6.63845 2.51268 6.61723C2.5231 6.60925 2.50611 6.57833 2.50581 6.57452C2.50745 6.51109 2.53524 6.58962 2.53906 6.59385C2.55471 6.60584 2.5639 6.60279 2.57492 6.59795C2.62484 6.59308 2.66951 6.5834 2.71587 6.58437C2.74129 6.58472 2.7272 6.62535 2.73256 6.62835C2.78798 6.65695 2.74235 6.59105 2.77291 6.57985C2.85694 6.54792 2.93745 6.53762 2.99815 6.53543C3.02011 6.53473 3.00136 6.58263 3.02031 6.58163C3.13613 6.57686 3.16427 6.58129 3.1967 6.56835C3.20386 6.56651 3.21643 6.53376 3.22121 6.52722C3.2275 6.51926 3.23237 6.51532 3.23596 6.51421C3.27189 6.51986 3.28044 6.58475 3.28663 6.59503C3.32097 6.65211 3.35528 6.63588 3.39711 6.66586C3.6005 6.81254 3.88353 6.9473 4.10373 7.0492C4.39164 7.18224 4.62728 7.26329 4.91472 7.39116C4.93299 7.39913 4.89667 7.43458 4.91258 7.44213C5.11894 7.53686 5.34069 7.59517 5.58691 7.65525C5.60776 7.66008 5.56929 7.69796 5.60301 7.70713C5.67148 7.72611 5.76465 7.73548 5.84285 7.72559C5.88085 7.7208 5.8327 7.68049 5.87024 7.67625C5.95613 7.66588 6.05252 7.66024 6.14939 7.65346C6.19166 7.65023 6.13426 7.70473 6.19037 7.69638C6.41132 7.66505 6.66222 7.55419 6.82896 7.37098C6.90186 7.28931 6.96798 7.20278 7.02536 7.10719C7.03473 7.09152 6.97955 7.01659 7.0178 7.00166C7.03824 7.01705 7.0599 7.03768 7.08053 7.05542C7.34854 6.79207 7.56828 6.49673 7.80674 6.21177C7.81681 6.19974 7.83599 6.25194 7.85567 6.22879C7.96948 6.09495 8.09005 5.97277 8.16749 5.80339C8.17522 5.78661 8.10346 5.73943 8.14682 5.7071C8.15466 5.70133 8.21329 5.6478 8.24072 5.64345C8.24465 5.64305 8.26637 5.6795 8.28347 5.66037C8.38197 5.54913 8.47247 5.42157 8.54494 5.28929C8.55648 5.268 8.50739 5.26189 8.51528 5.24654C8.57199 5.13729 8.67797 5.05174 8.71661 4.93471C8.74225 4.85623 8.66608 4.83583 8.63163 4.76051C8.62646 4.75035 8.65387 4.70962 8.62091 4.6834C8.53863 4.6168 8.4315 4.5676 8.34541 4.49437C8.32705 4.47843 8.3829 4.44509 8.3147 4.43975C8.31019 4.43937 8.2688 4.46367 8.24607 4.46108C8.23045 4.4592 8.20384 4.42309 8.18058 4.42518C8.15758 4.42692 8.17677 4.46144 8.14484 4.46995C8.11256 4.47845 8.08051 4.44011 8.04573 4.47726ZM2.48384 3.53763C2.49567 3.59528 2.36595 3.52062 2.42071 3.50098C2.42351 3.50012 2.48332 3.53471 2.48384 3.53763ZM6.26088 0.773245C6.21574 0.843787 6.17462 0.748508 6.2061 0.695557C6.23549 0.642528 6.27357 0.751838 6.26088 0.773245ZM6.78392 0.680726C6.74237 0.751441 6.66084 0.555423 6.73815 0.572708C6.74265 0.573628 6.78635 0.676605 6.78392 0.680726ZM8.50236 4.90048C8.5012 4.89873 8.51971 4.87087 8.522 4.87108C8.5709 4.88505 8.53309 4.94179 8.50236 4.90048ZM7.31717 0.516579C7.31181 0.551046 7.24614 0.544833 7.25344 0.502183C7.25896 0.46816 7.32355 0.473991 7.31717 0.516579ZM1.47195 5.48135C1.47351 5.48308 1.46271 5.50497 1.45217 5.49805C1.41821 5.47579 1.44551 5.45258 1.47195 5.48135ZM8.12102 0.000446197C7.97762 0.0705848 8.01854 0.261669 8.1227 0.17831C8.14375 0.163428 8.04873 0.153962 8.0699 0.124931C8.11485 0.0691683 8.19129 0.156756 8.23011 0.083487C8.2396 0.0687879 8.13069 -0.00528086 8.12068 0.000317339C8.1208 0.000360253 8.12091 0.000403157 8.12102 0.000446197ZM2.62258 3.6543C2.62379 3.65608 2.60728 3.68569 2.6052 3.68532C2.55527 3.67544 2.58851 3.61576 2.62258 3.6543ZM0.832236 6.74627C0.833525 6.74829 0.823632 6.76921 0.815449 6.78497C0.806312 6.80228 0.796402 6.8191 0.794141 6.81917C0.749617 6.81687 0.746525 6.77954 0.761407 6.75289C0.77403 6.73009 0.806741 6.71067 0.832236 6.74627ZM3.94538 1.81768C4.00539 1.81387 4.03371 1.78205 4.00081 1.72388C3.9827 1.75606 3.96328 1.78566 3.94538 1.81768Z" fill="#963076"/>
</svg>
