<svg width="5" height="10" viewBox="0 0 5 10" fill="none" xmlns="http://www.w3.org/2000/svg">
<path d="M4.9424 9.23783C4.90688 9.18943 4.84059 9.14851 4.78451 9.12266C4.767 9.11455 4.75582 9.14031 4.74289 9.13552C4.7176 9.12609 4.70954 9.10071 4.68318 9.09266C4.67436 9.09008 4.65288 9.12757 4.64427 9.12414C4.59721 9.10507 4.57229 9.06613 4.53191 9.03891C4.33243 8.90428 4.16115 8.7428 3.99125 8.57044C3.93528 8.51368 3.84438 8.46216 3.80659 8.38667C3.80222 8.37787 3.8348 8.35971 3.83607 8.3564C3.85523 8.30534 3.80235 8.35851 3.78304 8.34971C3.70658 8.31463 3.65377 8.24959 3.62325 8.18303C3.61036 8.15463 3.68765 8.13672 3.63642 8.13581C3.63291 8.13569 3.60563 8.16479 3.59734 8.1604C3.57862 8.15041 3.56345 8.11686 3.55246 8.10655C3.53108 8.08678 3.5287 8.08265 3.51305 8.06077C3.49143 8.03106 3.45067 8.00557 3.43619 7.96771C3.4332 7.95957 3.47277 7.94667 3.47108 7.93175C3.46936 7.91685 3.44713 7.88913 3.43272 7.88426C3.41828 7.8794 3.39458 7.9008 3.38737 7.90295C3.32655 7.92132 3.37534 7.84078 3.37438 7.83532C3.353 7.73511 3.26933 7.6899 3.22373 7.61125C3.18928 7.55162 3.16728 7.47979 3.13437 7.42346C3.09504 7.3564 3.04529 7.30773 3.01476 7.23824C3.01151 7.23094 3.05788 7.21826 3.05403 7.20935C3.01308 7.11462 2.96537 7.02482 2.89483 6.9434C2.88772 6.93524 2.85516 6.96409 2.84576 6.95688C2.82941 6.944 2.8082 6.92974 2.78997 6.9133C2.744 6.87035 2.71632 6.81733 2.82309 6.74117C2.79847 6.70211 2.77005 6.65539 2.72099 6.63432C2.689 6.61985 2.65802 6.66129 2.66267 6.62428C2.66367 6.61598 2.70357 6.60848 2.70234 6.59723C2.69704 6.54969 2.66582 6.51148 2.66558 6.46149C2.66568 6.45143 2.69895 6.43908 2.70369 6.43409C2.74169 6.39287 2.6492 6.3958 2.64039 6.39146C2.57307 6.35556 2.57189 6.30976 2.54697 6.25921C2.54118 6.24753 2.59077 6.24128 2.58674 6.22931C2.5656 6.16823 2.53262 6.10853 2.4866 6.06186C2.47607 6.05115 2.44532 6.08059 2.43842 6.07636C2.40846 6.0576 2.47436 6.01819 2.44705 5.99998C2.44139 5.99613 2.41173 6.01439 2.40783 6.01509C2.34671 6.0262 2.41636 5.97591 2.41608 5.9711C2.41375 5.90861 2.31972 5.9182 2.30629 5.86371C2.30481 5.85725 2.35052 5.85044 2.34395 5.83348C2.30053 5.72063 2.23082 5.61291 2.1437 5.5248C2.13018 5.51104 2.1074 5.53828 2.10326 5.53917C2.03841 5.55258 2.10759 5.50168 2.10757 5.4949C2.10498 5.4416 2.02174 5.43805 2.0946 5.36031C1.967 5.20098 1.91648 5.00007 1.74108 4.87403C1.73894 4.87238 1.70463 4.89683 1.70053 4.89344C1.6505 4.85245 1.71298 4.83071 1.7634 4.75756C1.77606 4.73919 1.67739 4.75937 1.66992 4.76038C1.64248 4.76436 1.59271 4.80321 1.58673 4.80277C1.53889 4.79763 1.72182 4.70263 1.70486 4.67115C1.70402 4.67033 1.67288 4.6925 1.66813 4.69164C1.65321 4.68893 1.66203 4.67349 1.64616 4.67152C1.6096 4.66719 1.5174 4.70719 1.55381 4.65107C1.55864 4.64395 1.66503 4.59525 1.64554 4.56958C1.63755 4.55927 1.61404 4.50837 1.60038 4.4976C1.58665 4.48687 1.5576 4.51315 1.55565 4.51288C1.49209 4.49632 1.48067 4.51992 1.40466 4.53208C1.32876 4.54364 1.48974 4.47401 1.5037 4.45778C1.50604 4.45505 1.50656 4.45246 1.50572 4.45005C1.50138 4.43775 1.46386 4.42947 1.4503 4.42859C1.434 4.42753 1.41655 4.44666 1.40624 4.44376C1.33859 4.42428 1.47617 4.38812 1.49475 4.36235C1.53873 4.30132 1.40907 4.33131 1.3834 4.30708C1.37645 4.3005 1.4063 4.29432 1.40537 4.28595C1.4012 4.25269 1.35639 4.25302 1.37439 4.20459C1.37736 4.19679 1.43504 4.13642 1.3752 4.14434C1.3666 4.14553 1.34071 4.16641 1.32832 4.15742C1.30979 4.14404 1.28766 4.11448 1.28796 4.09023C1.28821 4.07236 1.34423 4.06561 1.32055 4.05472C1.31 4.04991 1.2891 4.0784 1.27162 4.06823C1.25423 4.05823 1.23679 4.01907 1.23069 4.00401C1.22461 3.98896 1.26491 3.97928 1.26679 3.97691C1.27739 3.96294 1.28146 3.92659 1.28018 3.92406C1.22414 3.79713 1.10697 3.71196 1.06943 3.58066C1.06644 3.5704 1.10801 3.5584 1.10795 3.55664C1.10862 3.51641 1.01833 3.59084 0.973176 3.58432C1.05301 3.55049 1.03241 3.54368 1.03011 3.51659C1.02907 3.50351 1.06226 3.49523 1.06488 3.49275C1.10321 3.4546 1.03833 3.47127 1.02476 3.47403C0.97484 3.48426 1.0222 3.44743 0.988754 3.45407C0.955518 3.46056 0.919434 3.49836 0.909604 3.47588C0.934797 3.45654 1.01588 3.43863 1.01995 3.41631C1.03538 3.33227 0.923731 3.24088 0.894929 3.19213C0.866192 3.14379 0.864206 3.12486 0.840935 3.09951C0.798959 3.05357 0.862704 3.04946 0.873744 3.00531C0.884865 2.96113 0.755558 3.03507 0.724217 3.04264C0.69291 3.05022 0.720832 3.03223 0.70221 3.03303C0.68359 3.03383 0.669118 3.05519 0.657138 3.04363C0.645111 3.03199 0.681306 2.97168 0.710056 2.95411C0.770897 2.91681 0.846275 2.90582 0.807245 2.87903C0.804954 2.87749 0.771737 2.89905 0.764789 2.89242C0.71076 2.83918 0.682504 2.77234 0.633125 2.71624C0.626273 2.70853 0.58879 2.73181 0.584336 2.72747C0.537888 2.68211 0.613589 2.67622 0.678836 2.6187C0.579964 2.66235 0.511752 2.66829 0.496081 2.62612C0.486682 2.60081 0.532674 2.58952 0.558331 2.56229C0.566077 2.55412 0.529341 2.54685 0.549185 2.5364C0.614069 2.50228 0.696376 2.49267 0.65143 2.46058C0.649345 2.45919 0.613786 2.47782 0.609325 2.4721C0.580334 2.43494 0.650643 2.4063 0.644947 2.35851C0.640532 2.32122 0.577013 2.27163 0.557958 2.23282C0.441809 2.26781 0.456977 2.22027 0.533161 2.18212C0.52241 2.15653 0.519073 2.12632 0.501105 2.1036C0.494949 2.09573 0.462541 2.11052 0.458577 2.11037C0.396435 2.10814 0.47211 2.07578 0.473726 2.06926C0.487737 1.99909 0.415429 1.96172 0.46075 1.88812C0.462387 1.88546 0.54388 1.86394 0.480295 1.86108C0.476443 1.86093 0.450375 1.88274 0.437956 1.869L0.439881 1.88921C0.43868 1.88694 0.437884 1.88408 0.437618 1.88052C0.435365 1.851 0.391839 1.79414 0.43234 1.75498C0.442089 1.74527 0.511355 1.72315 0.458788 1.70135C0.451651 1.69836 0.427388 1.7003 0.414118 1.69585C0.371848 1.68142 0.457207 1.67834 0.385602 1.66051C0.313995 1.64296 0.261338 1.60866 0.313459 1.57004C0.314984 1.56877 0.382911 1.56263 0.3826 1.54967C0.382022 1.52919 0.369869 1.49844 0.371774 1.47711C0.372709 1.46689 0.414068 1.47632 0.414954 1.4746C0.443233 1.40712 0.409934 1.35526 0.401274 1.27935C0.399588 1.26551 0.460539 1.23302 0.418848 1.20148C0.37334 1.16655 0.165057 1.17201 0.222865 1.1085C0.246318 1.08182 0.509059 1.08759 0.38359 1.01829C0.432302 0.931562 0.383463 0.828666 0.457199 0.748509C0.460458 0.744985 0.534077 0.753298 0.535994 0.74407C0.538733 0.730204 0.509081 0.71156 0.510352 0.700929C0.51515 0.655551 0.557112 0.628774 0.570379 0.58942C0.57569 0.574278 0.541453 0.564142 0.548371 0.5457C0.551857 0.536642 0.564844 0.534311 0.576281 0.530795C0.588728 0.529154 0.599871 0.525587 0.599271 0.507914C0.597955 0.482286 0.53881 0.40524 0.549733 0.376281C0.620415 0.437496 0.631167 0.422212 0.671211 0.41582C0.678896 0.414683 0.697965 0.441838 0.702794 0.442479C0.722883 0.445693 0.710924 0.419313 0.731779 0.424171C0.736759 0.42537 0.759515 0.447753 0.764829 0.450044C0.810715 0.47046 0.781713 0.398665 0.777264 0.385681C0.75925 0.337285 0.794762 0.360976 0.793568 0.33667C0.792529 0.312282 0.759374 0.310929 0.765371 0.290091C0.778207 0.246601 0.8196 0.217483 0.848816 0.1912C0.860665 0.180803 0.879681 0.220429 0.882012 0.219699C0.91339 0.207596 0.910507 0.151712 0.977303 0.207004C0.858138 0.0214348 1.00557 0.211563 1.0142 0.149213C1.0148 0.144258 0.955125 0.0592171 0.934602 0.0558494C0.913964 0.0525952 0.917086 0.0913482 0.887042 0.0849137C0.879915 0.0834341 0.798095 0.0244182 0.791241 0.0224158C0.739228 0.00533145 0.834398 0.127957 0.83872 0.135409C0.884226 0.216953 0.792314 0.157373 0.780773 0.157738C0.728828 0.158425 0.71755 0.197506 0.676634 0.202837C0.649887 0.206619 0.579027 0.133839 0.567673 0.148797C0.529369 0.19961 0.617329 0.311949 0.488203 0.269938C0.460578 0.261347 0.38675 0.17702 0.419882 0.271034C0.421685 0.27723 0.459891 0.355016 0.408198 0.338656C0.401629 0.336634 0.376574 0.316158 0.372252 0.317176C0.35076 0.322744 0.351152 0.340605 0.342004 0.354666C0.33718 0.362424 0.321289 0.384305 0.317721 0.392716C0.315413 0.397854 0.311999 0.402802 0.306228 0.407317C0.282905 0.425546 0.252303 0.446997 0.250246 0.479315C0.248976 0.498594 0.296183 0.542582 0.307134 0.55509C0.338434 0.591435 0.264948 0.589548 0.308776 0.620165C0.353332 0.649613 0.435503 0.652215 0.456621 0.693822C0.376555 0.668184 0.293774 0.643675 0.212805 0.619261C0.189559 0.69905 0.196712 0.780982 0.177065 0.85518C0.174535 0.86449 0.132369 0.845432 0.128499 0.855342C0.112554 0.896684 0.137274 0.940031 0.117411 0.98103C0.10184 1.01296 0.0489511 1.04267 0.0320874 1.07691C0.124403 1.11124 0.0854711 1.15823 0.0900913 1.19652C0.0916642 1.20982 0.117302 1.21177 0.124636 1.22188C0.151767 1.25993 0.0689849 1.23465 0.0546773 1.24287C-0.00628329 1.27862 0.184903 1.30018 0.176027 1.34697C0.175625 1.34924 0.0708783 1.37134 0.0641739 1.37532C0.0205029 1.39938 0.0993816 1.3828 0.105637 1.40016C0.117128 1.43169 0.140034 1.45481 0.107748 1.48856C0.0981832 1.49857 0.0328264 1.51973 0.0810293 1.54302C0.0873404 1.54607 0.121269 1.54651 0.123129 1.54878C0.153996 1.58961 0.0476586 1.58439 0.0104843 1.60522C-0.0266862 1.62629 0.0452622 1.66355 0.0661403 1.67158C0.120132 1.69225 0.0901474 1.65855 0.0955753 1.65783C0.160052 1.64913 0.147916 1.6735 0.152548 1.69275C0.25678 1.69972 0.249492 1.72547 0.156953 1.71239C0.146845 1.7109 0.157159 1.69668 0.152548 1.69275C0.0494979 1.70472 0.0351941 1.73461 0.129828 1.76961C0.174195 1.78611 0.22691 1.77345 0.206381 1.81852C0.197149 1.83859 0.125493 1.82864 0.105391 1.84632C0.0935355 1.8568 0.0891424 1.8684 0.0889537 1.88063C0.0897983 1.89362 0.0910625 1.93123 0.0949571 1.94366C0.102878 1.97862 0.145476 2.00864 0.145389 2.04216C0.145367 2.05864 0.103451 2.05256 0.102138 2.06419C0.0985952 2.09525 0.133377 2.11289 0.125949 2.14506C0.125232 2.14799 0.0836841 2.15183 0.0854495 2.16087C0.0981176 2.22957 0.139501 2.2809 0.160375 2.34999C0.170363 2.38329 0.166771 2.44974 0.182058 2.48283C0.208246 2.54064 0.289262 2.59412 0.292845 2.64862C0.295416 2.68431 0.254065 2.69081 0.232554 2.71425C0.190894 2.75984 0.300094 2.77476 0.316565 2.77571C0.317089 2.77573 0.316029 2.74451 0.341332 2.75212C0.385876 2.74558 0.316623 2.77532 0.316565 2.77571C0.327223 2.77661 0.356632 2.82876 0.353485 2.8425C0.351724 2.85 0.313949 2.86052 0.313728 2.86418C0.309316 2.95096 0.329772 3.02929 0.377315 3.09661C0.378583 3.09762 0.418146 3.07899 0.420619 3.08154C0.456221 3.11681 0.41843 3.16467 0.404283 3.21237C0.390164 3.26006 0.412119 3.28393 0.48982 3.27449C0.49265 3.30459 0.539587 3.32875 0.567526 3.34197C0.595464 3.3552 0.51925 3.39299 0.518569 3.39558C0.496086 3.47676 0.556025 3.49087 0.59089 3.54827C0.607619 3.57557 0.623051 3.63775 0.629244 3.67266C0.634 3.70033 0.658986 3.70655 0.658174 3.73456C0.658077 3.73833 0.622422 3.75149 0.621545 3.75304C0.592542 3.79755 0.670408 3.74578 0.687789 3.74385C0.750979 3.73676 0.785335 3.73446 0.77513 3.77865C0.772785 3.78876 0.66288 3.86777 0.662328 3.88462C0.661816 3.90639 0.701693 3.8791 0.700072 3.90242C0.699968 3.90439 0.673278 3.91689 0.679864 3.92757C0.710093 3.97735 0.752994 4.02665 0.776523 4.08197C0.779819 4.08944 0.733197 4.10041 0.737269 4.11154C0.75647 4.16386 0.78444 4.21755 0.827621 4.25654C0.838339 4.26598 0.864196 4.24429 0.874188 4.24263C0.934762 4.23283 0.868743 4.29253 0.869069 4.29694C0.874788 4.40313 0.977008 4.43724 0.986463 4.54277C0.986843 4.54858 0.922005 4.62554 1.00082 4.60852C1.00608 4.60741 1.08657 4.58967 1.04381 4.62781C1.04113 4.63018 0.998836 4.63747 1.01115 4.65372C1.01562 4.65963 1.01697 4.66879 1.01941 4.67833C1.02455 4.69688 1.03331 4.71684 1.0678 4.72163C1.08496 4.72419 1.16661 4.70881 1.12205 4.76255C1.11872 4.76596 1.00982 4.87085 1.10581 4.83944C1.12159 4.8342 1.21411 4.78363 1.1814 4.83796C1.17505 4.84846 1.14881 4.84904 1.1436 4.8708C1.13563 4.90443 1.1764 4.92096 1.15007 4.97108C1.1453 4.97977 1.09355 5.03456 1.15026 5.02499C1.15913 5.02348 1.18736 5.00171 1.19555 5.00845C1.23441 5.04004 1.23727 5.09353 1.28129 5.12206C1.29672 5.13201 1.34224 5.09682 1.36384 5.10406C1.38548 5.11139 1.41497 5.13368 1.40101 5.16176C1.3871 5.18997 1.29865 5.21797 1.30548 5.24467C1.33475 5.35989 1.43601 5.42974 1.49729 5.52319C1.50641 5.53709 1.47149 5.54116 1.48273 5.56254C1.52456 5.642 1.57076 5.79011 1.66789 5.82607C1.74549 5.85431 1.74628 5.76615 1.7883 5.79732C1.80851 5.81254 1.72708 5.88434 1.72652 5.89042C1.72125 5.95295 1.78032 5.96536 1.78951 6.01465C1.79144 6.02494 1.7489 6.03568 1.75096 6.04421C1.75787 6.07397 1.78825 6.09163 1.79772 6.11814C1.80185 6.13004 1.77165 6.14267 1.77908 6.15184C1.79678 6.17446 1.81924 6.18873 1.85869 6.19936C1.86228 6.20032 1.89132 6.16745 1.90175 6.18508C1.9188 6.21425 1.96345 6.23665 1.95222 6.28486C1.94873 6.29915 1.88188 6.3323 1.93879 6.33158C1.95065 6.33139 2.02857 6.28663 1.97093 6.3454C1.9614 6.35523 1.88754 6.44273 1.95847 6.43518C1.97713 6.43316 2.04992 6.41549 2.04529 6.43264C2.0444 6.43507 2.00504 6.44561 2.00626 6.45735C2.01116 6.49833 2.03307 6.53505 2.03841 6.57643C2.03983 6.58767 1.99544 6.59053 1.99876 6.60671C2.00803 6.65168 2.04043 6.69709 2.07023 6.73142C2.08131 6.7441 2.10802 6.71978 2.11191 6.7193C2.17514 6.7115 2.10498 6.75564 2.10321 6.76336C2.09272 6.8099 2.13985 6.82084 2.1452 6.85804C2.14676 6.86826 2.10811 6.87766 2.10572 6.88089C2.08289 6.91354 2.14094 6.87102 2.15333 6.87986C2.18786 6.90369 2.20101 6.94145 2.21123 6.97744C2.21492 6.99067 2.1672 6.99477 2.17099 7.00643C2.18645 7.05619 2.20772 7.10373 2.23814 7.14856C2.25016 7.16676 2.26345 7.18414 2.27806 7.20046C2.28818 7.21162 2.31659 7.18936 2.32509 7.18888C2.38437 7.18502 2.32679 7.24299 2.32306 7.25238C2.30572 7.29465 2.33897 7.29308 2.34527 7.32063C2.37566 7.45604 2.46919 7.59762 2.5406 7.70385C2.63364 7.84285 2.7264 7.93697 2.80122 8.07549C2.80604 8.08428 2.76115 8.10006 2.76482 8.10798C2.81419 8.20932 2.88942 8.29201 2.94123 8.39223C2.94557 8.40043 2.90162 8.41419 2.9074 8.42823C2.91903 8.45723 2.94297 8.4877 2.97219 8.50487C2.98635 8.51327 3.0058 8.47512 3.01939 8.48395C3.05109 8.50444 3.07524 8.53295 3.09055 8.56619C3.09699 8.58039 3.04692 8.5881 3.05819 8.60455C3.13423 8.71703 3.20984 8.82867 3.34097 8.8984C3.34998 8.9032 3.42635 8.85194 3.42509 8.87825C3.4063 8.89545 3.38305 8.91426 3.36238 8.93192C3.47528 9.09383 3.62759 9.21948 3.76537 9.35883C3.77119 9.36473 3.726 9.38756 3.73713 9.39918C3.80151 9.46641 3.85549 9.54108 3.95694 9.57379C3.96696 9.57708 4.02363 9.51304 4.03412 9.54152C4.0359 9.54662 4.0575 9.58371 4.05232 9.60449C4.05143 9.60752 4.01817 9.6308 4.02704 9.64102C4.07903 9.69989 4.14513 9.74968 4.219 9.7843C4.23097 9.78983 4.24978 9.74949 4.25853 9.75313C4.32013 9.77896 4.34992 9.84881 4.42063 9.85937C4.46801 9.86623 4.50492 9.80104 4.56804 9.76015C4.57694 9.75438 4.59646 9.76904 4.62475 9.73793C4.69592 9.65975 4.76258 9.56446 4.8395 9.48204C4.85604 9.46428 4.86259 9.50425 4.88676 9.44778C4.88833 9.44397 4.88403 9.41465 4.89288 9.396C4.89898 9.3831 4.93206 9.35519 4.93771 9.33682C4.94337 9.31847 4.9135 9.34001 4.91739 9.31599C4.92149 9.29179 4.95763 9.25883 4.9424 9.23783ZM0.692793 3.40104C0.738885 3.4037 0.604222 3.46882 0.627015 3.43258C0.628278 3.43076 0.690509 3.40085 0.692793 3.40104ZM0.307633 0.806976C0.364741 0.851018 0.265836 0.849293 0.22099 0.81684C0.176445 0.783712 0.290507 0.792999 0.307633 0.806976ZM0.455484 0.525232C0.488076 0.578462 0.29125 0.499191 0.348159 0.478062C0.351454 0.476755 0.453676 0.522003 0.455484 0.525232ZM4.50857 9.68086C4.51011 9.67958 4.52449 9.68968 4.5235 9.69143C4.49913 9.73327 4.47024 9.7129 4.50857 9.68086ZM0.696397 0.312019C0.708908 0.339691 0.664369 0.337104 0.648555 0.302608C0.636086 0.274529 0.681227 0.277118 0.696397 0.312019ZM1.31713 4.33771C1.31929 4.33705 1.32639 4.34729 1.31492 4.35249C1.27793 4.36919 1.28091 4.34884 1.31713 4.33771ZM1.07956 0.000244087C1.02527 0.0501134 1.09735 0.215507 1.14678 0.153709C1.15586 0.14249 1.08931 0.126869 1.09409 0.103605C1.10348 0.0607183 1.18585 0.136689 1.17822 0.0694262C1.17684 0.0570778 1.08261 -0.00308204 1.07931 0.000123419C1.0794 0.000163381 1.07948 0.000203268 1.07956 0.000244087ZM0.861349 3.33774C0.863326 3.33731 0.872144 3.35208 0.870529 3.35326C0.831229 3.38148 0.813396 3.35164 0.861349 3.33774ZM1.72792 4.93388C1.73207 4.93266 1.75488 4.96487 1.75219 4.968C1.69484 5.02425 1.64834 4.95889 1.72792 4.93388ZM0.554666 2.23308C0.595387 2.20212 0.594913 2.17996 0.533242 2.18218C0.54121 2.19877 0.546725 2.21634 0.554666 2.23308Z" fill="#963076"/>
</svg>
