<svg width="3" height="11" viewBox="0 0 3 11" fill="none" xmlns="http://www.w3.org/2000/svg">
<path d="M0.826383 10.643C0.853285 10.5868 0.858534 10.5061 0.854358 10.4426C0.853113 10.4228 0.82508 10.4258 0.823067 10.4118C0.819166 10.3844 0.837503 10.3642 0.831661 10.3365C0.829591 10.3274 0.786325 10.3275 0.785089 10.3181C0.778608 10.2668 0.799974 10.2249 0.803146 10.1751C0.818643 9.92992 0.861893 9.69529 0.90444 9.45294C0.918471 9.37316 0.906231 9.26819 0.943319 9.19157C0.947688 9.18262 0.981898 9.1975 0.985304 9.19646C1.03762 9.17995 0.963182 9.17064 0.958397 9.14974C0.939657 9.06662 0.957434 8.98491 0.989604 8.91801C1.00339 8.8896 1.06636 8.93814 1.03449 8.89759C1.03235 8.89479 0.992504 8.89251 0.990614 8.88323C0.986387 8.86227 1.00237 8.82881 1.00314 8.81361C1.00444 8.78427 1.00602 8.77977 1.01248 8.75336C1.02097 8.7172 1.01341 8.66935 1.03207 8.63317C1.03617 8.62546 1.07211 8.64652 1.08216 8.63515C1.09219 8.62376 1.09802 8.58817 1.09196 8.57404C1.08589 8.55992 1.05408 8.5569 1.04763 8.55299C0.993121 8.52042 1.08541 8.50164 1.08879 8.49699C1.14801 8.41178 1.12277 8.31862 1.14623 8.2301C1.1641 8.16305 1.19846 8.09503 1.2132 8.03055C1.23058 7.95376 1.22664 7.8834 1.24973 7.81036C1.25212 7.80264 1.29532 7.8238 1.29834 7.81439C1.33033 7.71442 1.35188 7.61224 1.34759 7.50313C1.34713 7.49217 1.30364 7.49473 1.30078 7.48315C1.28417 7.41236 1.2307 7.29384 1.41478 7.30255C1.41896 7.25874 1.42526 7.2058 1.39988 7.15911C1.38356 7.12899 1.33377 7.14113 1.36016 7.11623C1.36606 7.1106 1.40201 7.1293 1.40797 7.1201C1.43301 7.08136 1.43266 7.03171 1.46332 6.99487C1.46964 6.98741 1.5033 6.99864 1.5101 6.99782C1.56534 6.99049 1.49151 6.93521 1.48742 6.92629C1.45721 6.85853 1.48546 6.82197 1.49788 6.76935C1.50074 6.75714 1.54308 6.78337 1.54748 6.77205C1.56972 6.71316 1.58193 6.64926 1.57675 6.58452C1.57548 6.57011 1.53313 6.5722 1.53052 6.56481C1.51946 6.53234 1.59515 6.54515 1.58597 6.51436C1.58412 6.50789 1.54972 6.50247 1.54629 6.5005C1.49248 6.46963 1.57812 6.47664 1.58099 6.47296C1.6191 6.42698 1.54196 6.37158 1.56692 6.32421C1.56999 6.31856 1.60905 6.34299 1.61509 6.32644C1.65558 6.21621 1.67413 6.09331 1.66814 5.97255C1.66726 5.95379 1.63217 5.95826 1.62851 5.95618C1.57139 5.9229 1.6568 5.93192 1.66133 5.92699C1.6949 5.8877 1.63607 5.82863 1.74197 5.82249C1.755 5.6238 1.85655 5.44764 1.81357 5.23733C1.81312 5.23469 1.77135 5.22924 1.77063 5.224C1.76154 5.16089 1.82221 5.18711 1.90878 5.16731C1.93053 5.16229 1.84396 5.11075 1.83771 5.10655C1.81468 5.09111 1.75172 5.08652 1.74757 5.0822C1.71534 5.04697 1.9149 5.09873 1.92332 5.06339C1.92324 5.0622 1.88523 5.05812 1.88226 5.05429C1.8729 5.04237 1.88973 5.03671 1.87914 5.02471C1.85458 4.99716 1.75882 4.96692 1.82294 4.9488C1.83124 4.94655 1.94364 4.97936 1.94566 4.94653C1.94637 4.93343 1.96133 4.87815 1.95758 4.86081C1.95384 4.84349 1.91465 4.84567 1.91332 4.84419C1.87454 4.79094 1.85073 4.8022 1.78374 4.76456C1.71701 4.72702 1.88641 4.77235 1.90745 4.76818C1.92844 4.76399 1.89549 4.72396 1.8833 4.7132C1.87111 4.70243 1.84561 4.70648 1.83928 4.69795C1.79801 4.64159 1.92855 4.69789 1.95904 4.68942C2.0312 4.66946 1.91069 4.61338 1.90548 4.57893C1.90408 4.56959 1.93135 4.58316 1.93578 4.57614C1.95298 4.54822 1.91755 4.52107 1.96161 4.49483C1.96879 4.49054 2.05131 4.47983 1.99942 4.44918C1.99193 4.44481 1.9587 4.44496 1.95452 4.43046C1.94824 4.40878 1.94911 4.3725 1.96429 4.35415C1.97552 4.3406 2.0237 4.36975 2.01181 4.34688C2.0065 4.33671 1.97249 4.34578 1.96504 4.32725C1.95757 4.3088 1.96798 4.26821 1.97247 4.25286C1.97698 4.23756 2.01463 4.2548 2.01757 4.25413C2.03451 4.2499 2.06016 4.22422 2.06069 4.22156C2.08372 4.13241 2.07292 4.04099 2.07866 3.95251C2.07966 3.90464 2.08367 3.86214 2.09726 3.82062C2.10047 3.81061 2.14169 3.8237 2.14261 3.82223C2.16551 3.78966 2.04913 3.8008 2.01518 3.77066C2.10036 3.78688 2.08698 3.77008 2.10005 3.74661C2.10642 3.7353 2.13864 3.74672 2.1422 3.74613C2.19522 3.7358 2.13193 3.71393 2.11908 3.70879C2.07181 3.68985 2.13158 3.6856 2.10001 3.67279C2.06868 3.66002 2.01779 3.67131 2.02191 3.64761C2.05357 3.64544 2.13115 3.67492 2.1468 3.65875C2.20599 3.59779 2.16171 3.46145 2.16323 3.40562C2.1647 3.35009 2.17296 3.33322 2.16655 3.2997C2.15494 3.2393 2.21133 3.26909 2.24381 3.23739C2.27631 3.20555 2.12738 3.20144 2.09668 3.19166C2.06597 3.18197 2.09916 3.18119 2.0828 3.17237C2.06644 3.16356 2.04305 3.17397 2.03873 3.15828C2.03441 3.1426 2.0963 3.11051 2.12997 3.11013C2.2013 3.10936 2.27176 3.13834 2.25183 3.09551C2.25063 3.09303 2.21107 3.09464 2.20846 3.08546C2.1889 3.01291 2.19759 2.94172 2.18159 2.86966C2.17933 2.85974 2.13527 2.86172 2.13348 2.85587C2.11461 2.79495 2.18373 2.82607 2.26855 2.807C2.16084 2.79796 2.09815 2.77095 2.10403 2.72767C2.10753 2.70168 2.15344 2.71318 2.18881 2.7014C2.19946 2.69787 2.17026 2.67469 2.19267 2.67469C2.26594 2.6746 2.34347 2.70403 2.3183 2.65481C2.31708 2.65263 2.27694 2.65286 2.27559 2.64577C2.26669 2.5999 2.34237 2.60614 2.35864 2.56059C2.37141 2.52489 2.33588 2.4524 2.33502 2.40932C2.21505 2.3915 2.2487 2.35609 2.33383 2.35303C2.33472 2.32531 2.34404 2.29669 2.3368 2.26859C2.33435 2.25893 2.29872 2.25936 2.29516 2.25762C2.23917 2.23076 2.3214 2.23173 2.32548 2.22637C2.36626 2.16771 2.31378 2.10605 2.38319 2.05508C2.38568 2.05328 2.46938 2.06345 2.41135 2.03729C2.40734 2.03555 2.36622 2.04935 2.36799 2.02035C2.36974 1.99141 2.33414 1.93009 2.3793 1.89699C2.39018 1.88896 2.46168 1.87621 2.4123 1.84783C2.40559 1.84402 2.38129 1.84282 2.36867 1.83682C2.32849 1.81753 2.41355 1.82523 2.34467 1.79885C2.2758 1.77246 2.22748 1.73365 2.28361 1.70203C2.28527 1.701 2.3534 1.70307 2.35454 1.69034C2.3563 1.66997 2.34742 1.6392 2.35157 1.61825C2.35357 1.60825 2.3937 1.62197 2.39477 1.62036C2.4298 1.55718 2.40164 1.5027 2.3989 1.42777C2.39833 1.41398 2.46154 1.3864 2.4219 1.35261C2.37857 1.31542 2.17086 1.30656 2.23135 1.25046C2.25564 1.22763 2.51818 1.24427 2.39453 1.17169C2.44505 1.08757 2.39409 0.989876 2.45988 0.908688C2.46281 0.905018 2.53678 0.907158 2.53783 0.897354C2.53924 0.882795 2.50758 0.867956 2.50754 0.857327C2.50653 0.812663 2.54338 0.779962 2.54794 0.738091C2.54974 0.722234 2.51416 0.720076 2.51633 0.701148C2.51853 0.682307 2.56656 0.67989 2.55035 0.64993C2.53797 0.627257 2.44986 0.587327 2.44491 0.559556C2.53623 0.579516 2.53833 0.561666 2.56951 0.536623C2.57554 0.531827 2.60575 0.545531 2.61024 0.543648C2.6292 0.536177 2.6054 0.519581 2.62569 0.513081C2.63057 0.51149 2.66166 0.518709 2.6674 0.517831C2.67385 0.516906 2.67843 0.515334 2.68147 0.513282L2.67703 0.527399C2.69919 0.517061 2.65618 0.47473 2.64795 0.466193C2.61179 0.429487 2.65375 0.436948 2.64267 0.415464C2.63168 0.393887 2.60101 0.405767 2.59787 0.384593C2.59162 0.340238 2.61709 0.297708 2.63306 0.262304C2.63959 0.24829 2.67303 0.276739 2.67485 0.275172C2.69842 0.252021 2.67333 0.202373 2.75638 0.227105C2.57353 0.10388 2.78392 0.220496 2.76695 0.160755C2.76554 0.156016 2.67743 0.100976 2.65729 0.105746C2.63713 0.110597 2.65529 0.144813 2.6252 0.150662C2.61818 0.15187 2.51962 0.130197 2.51256 0.131051C2.45794 0.136273 2.59431 0.21049 2.60125 0.215578C2.67565 0.271951 2.56789 0.253763 2.55745 0.258852C2.51043 0.280105 2.51622 0.32014 2.48134 0.340914C2.45867 0.354753 2.36437 0.317001 2.36033 0.334622C2.35433 0.36094 2.37635 0.389732 2.3902 0.41385C2.38851 0.419598 2.38215 0.4362 2.3813 0.442131C2.40264 0.467715 2.41067 0.488362 2.33835 0.500731C2.31033 0.505582 2.20461 0.469867 2.28074 0.528346C2.28554 0.532039 2.35688 0.578325 2.30387 0.58373C2.29719 0.584408 2.26565 0.577213 2.26237 0.57937C2.24106 0.59397 2.26343 0.612003 2.24691 0.629443C2.2304 0.646776 2.2071 0.667026 2.2128 0.692402C2.21619 0.707677 2.27124 0.738312 2.28426 0.747937C2.32183 0.775418 2.2494 0.780803 2.2973 0.803079C2.34546 0.825427 2.42711 0.819146 2.45341 0.856359C2.37092 0.840093 2.28596 0.824855 2.20286 0.80923C2.19157 0.877038 2.20463 0.9486 2.18753 1.01512C2.18533 1.02337 2.14272 1.00595 2.13921 1.01459C2.12458 1.05124 2.14974 1.09018 2.1295 1.12706C2.11365 1.15563 2.06031 1.17968 2.0424 1.20937C2.13318 1.24683 2.09225 1.28768 2.09454 1.32356C2.0953 1.33611 2.12071 1.33999 2.12737 1.35004C2.15192 1.38782 2.0711 1.35737 2.05632 1.36376C1.99323 1.39129 2.1819 1.4291 2.16918 1.47266C2.16857 1.47497 2.06244 1.48565 2.05545 1.4885C2.00994 1.5064 2.08984 1.49897 2.09447 1.51608C2.10297 1.54733 2.12353 1.57165 2.088 1.60026C2.07751 1.60855 2.01039 1.62123 2.05577 1.64889C2.06171 1.65252 2.09535 1.65694 2.09695 1.6593C2.12319 1.70164 2.01807 1.68452 1.9789 1.69939C1.93974 1.71431 2.00667 1.75921 2.02645 1.76934C2.07756 1.7958 2.05179 1.76004 2.05726 1.76001C2.12224 1.75981 2.10734 1.78156 2.10962 1.80052C2.21214 1.82059 2.20171 1.84471 2.11157 1.82009C2.10173 1.81736 2.11371 1.80494 2.10962 1.80052C2.0059 1.79924 1.98825 1.82491 2.07757 1.87136C2.11943 1.8931 2.1733 1.88817 2.14717 1.92851C2.13537 1.94684 2.0657 1.92743 2.04347 1.94166C1.99274 1.97421 2.05043 2.03699 2.03336 2.07628C2.02716 2.09058 1.99065 2.06976 1.98508 2.07932C1.97015 2.10468 1.99546 2.1333 1.97618 2.15805C1.97438 2.16028 1.93465 2.14775 1.93278 2.15613C1.9178 2.21951 1.93505 2.27946 1.92532 2.34647C1.9206 2.37884 1.88918 2.43315 1.88854 2.46734C1.88717 2.52657 1.93554 2.60691 1.91365 2.65423C1.89955 2.68513 1.85988 2.67188 1.83002 2.68153C1.77215 2.70016 1.86146 2.76198 1.87544 2.77056C1.87591 2.77083 1.88969 2.74449 1.90838 2.76246C1.95068 2.77762 1.87568 2.77027 1.87544 2.77056C1.88446 2.77618 1.88541 2.83306 1.87597 2.84292C1.87082 2.84827 1.8327 2.83916 1.83074 2.84206C1.78511 2.91111 1.76427 2.98401 1.77123 3.06194C1.77181 3.06338 1.81532 3.06776 1.81616 3.07106C1.82895 3.11743 1.77199 3.13747 1.73532 3.16879C1.69867 3.2001 1.70502 3.22998 1.77608 3.26218C1.76276 3.28792 1.78987 3.33152 1.8065 3.35672C1.82312 3.38201 1.73854 3.37279 1.73659 3.37451C1.67437 3.42801 1.71733 3.47046 1.7155 3.53507C1.7148 3.56566 1.69375 3.624 1.67976 3.65517C1.66856 3.67979 1.68595 3.69841 1.66984 3.7203C1.66768 3.72327 1.63071 3.71448 1.62912 3.71525C1.5804 3.73514 1.67383 3.73593 1.68937 3.74383C1.74589 3.77247 1.77576 3.78934 1.74273 3.81928C1.73516 3.82619 1.59996 3.82942 1.59014 3.8425C1.5776 3.85955 1.62588 3.85961 1.61155 3.87726C1.61153 3.87729 1.61149 3.87732 1.61145 3.87734L1.61581 3.85333C1.61349 3.85444 1.58588 3.84842 1.58464 3.86024C1.57842 3.91616 1.58226 3.97944 1.56696 4.03564C1.56498 4.04333 1.5215 4.02341 1.51789 4.03436C1.50098 4.08574 1.48996 4.14378 1.49994 4.19973C1.50254 4.21354 1.53624 4.21274 1.54512 4.21758C1.59877 4.24717 1.51007 4.25245 1.5076 4.25602C1.44659 4.34083 1.50578 4.42967 1.44806 4.51707C1.44476 4.52182 1.34634 4.54138 1.41878 4.5768C1.4236 4.57919 1.49784 4.6149 1.4407 4.6182C1.43712 4.6184 1.39935 4.5981 1.39903 4.61826C1.3987 4.63842 1.36465 4.66307 1.4028 4.69972C1.41481 4.71129 1.48829 4.74925 1.42024 4.75973C1.41551 4.76038 1.26584 4.76599 1.35969 4.80242C1.37514 4.80838 1.4784 4.8301 1.41876 4.84755C1.40722 4.85084 1.38673 4.83515 1.36892 4.84677C1.34149 4.86453 1.36183 4.9014 1.30945 4.91877C1.30019 4.92177 1.22557 4.92623 1.27447 4.95553C1.28213 4.96012 1.31758 4.96325 1.31931 4.97303C1.3277 5.01959 1.29428 5.05828 1.30774 5.10673C1.31244 5.12388 1.36966 5.12938 1.38071 5.14875C1.39176 5.16809 1.39835 5.20348 1.36906 5.21396C1.33977 5.22444 1.25591 5.18511 1.24288 5.20819C1.18628 5.30843 1.21202 5.42767 1.19314 5.53703C1.19035 5.55325 1.16207 5.53228 1.1557 5.5556C1.13202 5.64178 1.06538 5.78365 1.11342 5.87568C1.15192 5.94936 1.21174 5.88375 1.222 5.93528C1.22682 5.96014 1.11848 5.95847 1.11391 5.96301C1.06805 6.00706 1.10414 6.05499 1.07832 6.09862C1.07297 6.10763 1.03394 6.08759 1.02985 6.09537C1.0155 6.12184 1.02646 6.15624 1.01622 6.18239C1.01153 6.19409 0.980447 6.18382 0.980058 6.19558C0.978753 6.22366 0.986033 6.2507 1.00905 6.2843C1.01115 6.28736 1.05459 6.28138 1.05101 6.30153C1.04511 6.3341 1.06421 6.38129 1.02459 6.41032C1.01271 6.41891 0.94031 6.40078 0.984219 6.43705C0.993383 6.44465 1.0818 6.46064 0.999775 6.46876C0.986128 6.47018 0.873174 6.49011 0.932577 6.5294C0.948208 6.53976 1.01532 6.57322 1.00078 6.58347C0.998537 6.58479 0.961554 6.56766 0.954965 6.57756C0.932424 6.61261 0.926203 6.65381 0.903845 6.69011C0.8978 6.69977 0.861693 6.67371 0.853967 6.68844C0.832662 6.72893 0.828946 6.78535 0.830581 6.8307C0.831261 6.84744 0.867306 6.84536 0.870632 6.84742C0.924777 6.88091 0.842513 6.87104 0.836311 6.87587C0.7988 6.90623 0.828679 6.94453 0.809788 6.97654C0.804676 6.9854 0.768559 6.96876 0.764687 6.96978C0.72655 6.98087 0.798402 6.98394 0.802649 6.99836C0.814777 7.03881 0.80156 7.07698 0.787466 7.11112C0.782236 7.12364 0.742138 7.09756 0.737952 7.10892C0.712335 7.17599 0.697818 7.24854 0.704316 7.32239C0.705624 7.33629 0.741526 7.33718 0.748554 7.34185C0.797796 7.37425 0.7171 7.38161 0.708469 7.3859C0.669089 7.40541 0.696137 7.4241 0.684083 7.44727C0.624621 7.56055 0.605245 7.71451 0.587476 7.83159C0.564133 7.98408 0.565942 8.10767 0.520312 8.24713C0.517457 8.256 0.474876 8.2351 0.471838 8.24259C0.434673 8.33978 0.426271 8.44324 0.38695 8.54026C0.3838 8.54826 0.344281 8.52518 0.33779 8.53765C0.324177 8.56313 0.31748 8.59816 0.323914 8.62917C0.326971 8.64427 0.368262 8.63589 0.370593 8.6509C0.376101 8.68587 0.370374 8.72019 0.355087 8.75076C0.348495 8.76372 0.31029 8.73159 0.305121 8.74933C0.269058 8.86976 0.230417 8.98752 0.255196 9.12494C0.256893 9.1344 0.343689 9.16473 0.322042 9.17829C0.297071 9.17328 0.268128 9.16573 0.241659 9.15953C0.181718 9.33316 0.16754 9.51673 0.127307 9.6962C0.125604 9.70376 0.0818055 9.6789 0.0782673 9.69347C0.0577109 9.7779 0.0241034 9.85666 0.0494783 9.95455C0.0519252 9.96427 0.135899 9.98048 0.117093 10.0026C0.113697 10.0065 0.0932183 10.0418 0.0727935 10.0471C0.0697484 10.0478 0.0327671 10.0313 0.0286081 10.0433C0.00514913 10.1129 -0.00440931 10.19 0.00192308 10.2669C0.00302029 10.2793 0.0472436 10.2771 0.0483844 10.286C0.0562027 10.3492 0.00950503 10.4049 0.0336654 10.4694C0.049994 10.5125 0.124651 10.5159 0.190188 10.5524C0.199432 10.5576 0.195532 10.5808 0.236129 10.5917C0.338194 10.6193 0.453381 10.6352 0.561859 10.6659C0.585227 10.6725 0.552557 10.6968 0.61388 10.6924C0.617996 10.6921 0.642185 10.6746 0.662827 10.6738C0.677105 10.6732 0.717046 10.69 0.736007 10.6864C0.754952 10.6828 0.722136 10.666 0.745311 10.658C0.768735 10.6501 0.814663 10.6671 0.826383 10.643ZM1.88071 3.47031C1.91808 3.49688 1.76967 3.47824 1.80834 3.46109C1.81039 3.46029 1.87888 3.46896 1.88071 3.47031ZM2.31536 0.970731C2.37453 1.01071 2.27576 1.00998 2.22967 0.980829C2.18366 0.951607 2.29744 0.958525 2.31536 0.970731ZM2.42157 0.701435C2.4655 0.743878 2.25722 0.703686 2.30653 0.678965C2.30933 0.677512 2.41903 0.698951 2.42157 0.701435ZM0.232094 10.4661C0.233956 10.4668 0.231866 10.4837 0.229859 10.4837C0.181567 10.4813 0.185783 10.4475 0.232094 10.4661ZM2.54428 0.43131C2.56697 0.451459 2.52541 0.466146 2.49699 0.441173C2.47417 0.420868 2.51616 0.405887 2.54428 0.43131ZM1.8345 4.56186C1.8366 4.56268 1.83586 4.57493 1.82364 4.57189C1.78426 4.56207 1.79916 4.54821 1.8345 4.56186ZM2.76789 0.000544033C2.7382 0.0661249 2.8689 0.19019 2.88989 0.115152C2.8938 0.101459 2.82671 0.112381 2.82198 0.0892662C2.81361 0.0467548 2.9191 0.0846344 2.88541 0.0260719C2.87921 0.0154003 2.76925 -0.0034138 2.76761 0.000527335C2.76771 0.000532832 2.7678 0.000538534 2.76789 0.000544033ZM2.05669 3.50827C2.05858 3.50898 2.058 3.52588 2.056 3.52599C2.00771 3.5281 2.00885 3.49406 2.05669 3.50827ZM1.76333 5.27148C1.76721 5.27337 1.76193 5.3122 1.75785 5.31253C1.67762 5.31411 1.68806 5.23564 1.76333 5.27148ZM2.33192 2.40816C2.38193 2.39748 2.39087 2.37682 2.33388 2.35313C2.3342 2.37155 2.33184 2.38967 2.33192 2.40816Z" fill="black"/>
</svg>
