<svg width="4" height="15" viewBox="0 0 4 15" fill="none" xmlns="http://www.w3.org/2000/svg">
<path d="M2.35496 14.1232C2.32624 14.0466 2.31884 13.9402 2.32144 13.8576C2.3222 13.8317 2.35072 13.8389 2.35241 13.8208C2.35566 13.7854 2.33653 13.7568 2.34175 13.7213C2.34361 13.7096 2.38753 13.7147 2.38854 13.7025C2.3938 13.6361 2.37103 13.5789 2.36652 13.5134C2.34445 13.1911 2.29438 12.8796 2.24474 12.5583C2.22837 12.4525 2.23803 12.317 2.19829 12.2126C2.19361 12.2004 2.15924 12.2158 2.15575 12.214C2.10213 12.1863 2.17755 12.183 2.18185 12.1563C2.19869 12.0501 2.17845 11.9414 2.14396 11.8503C2.12919 11.8116 2.06647 11.8674 2.09778 11.8183C2.09988 11.8149 2.14033 11.8167 2.142 11.8048C2.14574 11.778 2.1286 11.7325 2.12741 11.7126C2.1253 11.6742 2.12357 11.6681 2.1163 11.6329C2.1067 11.5847 2.11312 11.5233 2.09317 11.4738C2.0888 11.4633 2.05281 11.4864 2.0423 11.4704C2.03179 11.4544 2.02491 11.4072 2.0307 11.3896C2.03649 11.3719 2.06875 11.3718 2.0752 11.3674C2.12976 11.3315 2.03541 11.296 2.03185 11.2895C1.96936 11.1713 1.99252 11.0529 1.9663 10.9347C1.94632 10.8452 1.90956 10.7524 1.89285 10.6666C1.87312 10.5644 1.87524 10.4732 1.84981 10.3753C1.84718 10.3649 1.80381 10.3873 1.80049 10.3747C1.76529 10.2405 1.74066 10.1048 1.74211 9.96316C1.7423 9.94893 1.78658 9.95748 1.78918 9.94273C1.80418 9.85248 1.85539 9.70441 1.66849 9.69376C1.66307 9.63615 1.65527 9.56644 1.67984 9.50862C1.69563 9.47131 1.74656 9.49307 1.71908 9.45748C1.71294 9.44944 1.67688 9.46951 1.67058 9.45681C1.64411 9.40335 1.64315 9.33867 1.61103 9.28704C1.60441 9.27657 1.57049 9.2872 1.56356 9.28533C1.50722 9.26921 1.5808 9.20595 1.58473 9.1948C1.61365 9.11009 1.58398 9.05905 1.56999 8.98903C1.56676 8.97278 1.52442 9.00197 1.51965 8.98669C1.49552 8.90733 1.48144 8.82261 1.48503 8.73883C1.48595 8.72022 1.52903 8.7279 1.53149 8.71857C1.54189 8.67755 1.46532 8.68538 1.47385 8.64631C1.47556 8.63809 1.51037 8.63506 1.5138 8.63289C1.56766 8.59895 1.48085 8.59806 1.47784 8.59293C1.43794 8.52855 1.51486 8.46529 1.48829 8.40065C1.48503 8.39292 1.44598 8.42022 1.43942 8.39794C1.39546 8.24952 1.37349 8.08717 1.37652 7.93035C1.37693 7.90597 1.41267 7.91583 1.41634 7.91354C1.47348 7.87667 1.38699 7.87864 1.38227 7.8717C1.34721 7.81664 1.40543 7.74627 1.29779 7.7262C1.27956 7.46551 1.1722 7.22437 1.21067 6.9546C1.21106 6.9512 1.25329 6.94869 1.25389 6.94194C1.26157 6.86051 1.20069 6.88806 1.11244 6.85271C1.09027 6.84378 1.17679 6.78599 1.18302 6.78117C1.206 6.76354 1.26972 6.76443 1.27381 6.75924C1.30564 6.71674 1.10458 6.76251 1.0952 6.71547C1.09525 6.71394 1.13369 6.71274 1.13661 6.70807C1.1458 6.69353 1.12861 6.68431 1.13906 6.66979C1.16329 6.63649 1.25962 6.60739 1.19419 6.57675C1.18573 6.5729 1.0726 6.60357 1.06977 6.56049C1.06874 6.5433 1.05227 6.46952 1.05566 6.44726C1.05904 6.42504 1.0988 6.4321 1.10011 6.43031C1.13814 6.36494 1.16254 6.38218 1.22952 6.34017C1.29623 6.29825 1.12568 6.33934 1.10427 6.33165C1.0829 6.32393 1.11534 6.27515 1.12743 6.26238C1.13953 6.24961 1.16545 6.25763 1.17167 6.24715C1.21215 6.17785 1.08124 6.23756 1.05015 6.22325C0.976601 6.18952 1.09735 6.12901 1.10182 6.08452C1.10302 6.07246 1.07572 6.08732 1.07106 6.07767C1.05301 6.03938 1.08825 6.0076 1.04303 5.96867C1.03566 5.96231 0.95186 5.9397 1.00369 5.90505C1.01118 5.90012 1.04482 5.90379 1.04872 5.88526C1.05458 5.85756 1.05287 5.81003 1.03708 5.78446C1.0254 5.76558 0.977297 5.79872 0.988807 5.77004C0.993959 5.75729 1.02859 5.77267 1.03571 5.7492C1.04284 5.72585 1.03138 5.67167 1.02649 5.65114C1.02157 5.63066 0.983864 5.64935 0.980873 5.64817C0.963636 5.6409 0.937101 5.60469 0.936503 5.60117C0.911394 5.48318 0.919961 5.36563 0.912517 5.25012C0.911239 5.18872 0.906618 5.13161 0.892088 5.07516C0.888698 5.06176 0.847458 5.07608 0.846504 5.07409C0.822971 5.02964 0.94017 5.05247 0.973833 5.01519C0.888445 5.03055 0.901627 5.00938 0.888123 4.97759C0.881545 4.96227 0.849325 4.97503 0.845738 4.97401C0.792264 4.95671 0.855566 4.93237 0.868405 4.9265C0.915634 4.90489 0.855474 4.89512 0.887018 4.88047C0.918319 4.86586 0.969661 4.88428 0.965151 4.8528C0.933283 4.84774 0.855742 4.88109 0.839752 4.85872C0.779298 4.77439 0.821703 4.59809 0.819315 4.5245C0.816973 4.45133 0.808409 4.42856 0.814329 4.38489C0.825065 4.30621 0.768827 4.34148 0.735679 4.29748C0.702511 4.25331 0.852183 4.25832 0.882904 4.24759C0.913626 4.23699 0.880245 4.23366 0.896559 4.22317C0.912874 4.21273 0.936552 4.22806 0.940654 4.20773C0.94475 4.18739 0.882018 4.14084 0.848157 4.13798C0.776427 4.13196 0.706032 4.16515 0.725408 4.11018C0.726569 4.10701 0.766371 4.1119 0.76886 4.10001C0.787384 4.00589 0.777529 3.9116 0.792491 3.81791C0.794608 3.80502 0.838939 3.81076 0.840657 3.80319C0.85867 3.72438 0.78965 3.76041 0.704039 3.72925C0.812227 3.72506 0.874843 3.69399 0.868243 3.63666C0.864311 3.60222 0.818321 3.61406 0.782564 3.59601C0.77179 3.5906 0.800793 3.56221 0.778253 3.56059C0.704558 3.5552 0.627052 3.58832 0.651574 3.52535C0.652766 3.52257 0.693141 3.52579 0.694384 3.51655C0.702602 3.45683 0.626579 3.45955 0.609465 3.39839C0.596045 3.35045 0.630594 3.25763 0.630758 3.20101C0.751166 3.18647 0.716733 3.13741 0.631021 3.12702C0.629663 3.09047 0.619819 3.05212 0.62663 3.01569C0.628938 3.00316 0.664793 3.00642 0.668352 3.0044C0.724252 2.9733 0.641516 2.96835 0.637314 2.96099C0.595294 2.88072 0.647068 2.80361 0.576319 2.73122C0.573776 2.72865 0.489687 2.73549 0.547661 2.70559C0.551669 2.70362 0.593303 2.72499 0.591021 2.6867C0.588755 2.64847 0.623546 2.57071 0.577484 2.52356C0.566385 2.51211 0.494155 2.48966 0.543381 2.45628C0.550075 2.45181 0.574531 2.45219 0.587136 2.44532C0.627263 2.4232 0.541719 2.42645 0.610633 2.39734C0.679537 2.3682 0.727548 2.32126 0.67043 2.27515C0.668747 2.27366 0.600136 2.27078 0.598762 2.25395C0.596623 2.22704 0.605006 2.18731 0.600456 2.15953C0.598253 2.14623 0.558058 2.16089 0.556958 2.15869C0.520478 2.07265 0.547871 2.00354 0.549208 1.90535C0.549552 1.88744 0.485255 1.84555 0.524587 1.80469C0.567593 1.75972 0.776936 1.76635 0.714889 1.68774C0.689968 1.6558 0.425323 1.65364 0.548712 1.56988C0.496018 1.45471 0.545601 1.332 0.477391 1.21911C0.474358 1.21404 0.399613 1.20947 0.398368 1.19664C0.396651 1.17753 0.428328 1.16112 0.428145 1.14721C0.428198 1.08869 0.390261 1.0424 0.384704 0.986944C0.382527 0.965973 0.418483 0.966827 0.415866 0.941819C0.413212 0.916848 0.3646 0.908967 0.38031 0.871336C0.392334 0.842943 0.480643 0.800011 0.485063 0.764404C0.393033 0.780787 0.390514 0.757293 0.358333 0.721099C0.352104 0.714163 0.321815 0.728802 0.317222 0.725845C0.297826 0.713975 0.321552 0.694854 0.300833 0.684104C0.295849 0.681481 0.264501 0.687491 0.258659 0.685703C0.242203 0.680861 0.237625 0.672007 0.239324 0.661921L0.242633 0.674453C0.243609 0.653251 0.270929 0.623142 0.27739 0.615927C0.313643 0.575362 0.270248 0.577188 0.281032 0.551842C0.291671 0.526223 0.324113 0.547284 0.326569 0.520697C0.331669 0.46574 0.303434 0.406856 0.285372 0.359273C0.277948 0.340257 0.243892 0.369427 0.241914 0.367079C0.216176 0.333058 0.240599 0.275825 0.153714 0.289415C0.342115 0.173348 0.124242 0.275212 0.1394 0.203697C0.140664 0.19803 0.231958 0.148272 0.253561 0.158499C0.275146 0.16874 0.257293 0.207524 0.289368 0.221072C0.29687 0.224091 0.400072 0.217111 0.407435 0.219368C0.464971 0.236379 0.32418 0.301972 0.317071 0.306955C0.240951 0.362821 0.353549 0.361567 0.364515 0.369638C0.414484 0.405381 0.409486 0.4541 0.446396 0.48664C0.470286 0.507907 0.567037 0.476923 0.571618 0.499529C0.576605 0.524358 0.565853 0.548667 0.554404 0.571043C0.555798 0.576472 0.560794 0.592374 0.561504 0.597934C0.532773 0.638012 0.502565 0.670334 0.59172 0.699225C0.620195 0.708489 0.726544 0.673489 0.650628 0.741104C0.645848 0.745378 0.574615 0.798159 0.628386 0.810748C0.635166 0.812328 0.666945 0.806247 0.670303 0.809392C0.69218 0.830569 0.669937 0.851846 0.686976 0.875991C0.704032 0.900241 0.728023 0.928939 0.722772 0.961397C0.719672 0.981004 0.664579 1.01515 0.651615 1.02646C0.614196 1.05856 0.687537 1.07278 0.639564 1.09711C0.591345 1.12155 0.508653 1.10521 0.482858 1.15133C0.565903 1.1382 0.65148 1.12666 0.735163 1.11441C0.747883 1.20366 0.736088 1.29573 0.754648 1.38422C0.757035 1.3952 0.799717 1.37642 0.803426 1.38802C0.818864 1.43696 0.794229 1.48565 0.815346 1.53562C0.831844 1.57418 0.886136 1.61048 0.90474 1.65078C0.813856 1.69173 0.855871 1.74857 0.854221 1.79532C0.853683 1.81166 0.82813 1.81453 0.821593 1.8271C0.797524 1.87437 0.878451 1.84146 0.89347 1.85109C0.957576 1.89247 0.768042 1.92579 0.781653 1.98397C0.782318 1.98709 0.889462 2.0099 0.896565 2.01424C0.942753 2.04148 0.862093 2.02505 0.857721 2.04706C0.849715 2.08724 0.829441 2.11749 0.865727 2.15778C0.876444 2.1695 0.944285 2.1916 0.899048 2.22412C0.893127 2.22839 0.859313 2.23142 0.857738 2.23439C0.832047 2.28776 0.937636 2.27379 0.977344 2.29644C1.01705 2.31911 0.950392 2.37252 0.93065 2.38423C0.879626 2.41481 0.904963 2.37001 0.899457 2.36954C0.834002 2.36405 0.849381 2.39376 0.847415 2.41844C0.74451 2.4366 0.755427 2.46901 0.845786 2.44393C0.85565 2.44114 0.843375 2.42392 0.847415 2.41844C0.95185 2.42506 0.970044 2.45999 0.8809 2.51386C0.839109 2.53908 0.78479 2.52836 0.811781 2.58337C0.82397 2.6083 0.893796 2.58831 0.916415 2.60871C0.968034 2.65534 0.91099 2.73318 0.928827 2.78607C0.935307 2.8053 0.971706 2.78078 0.977479 2.79374C0.992918 2.82815 0.967912 2.86375 0.987723 2.89768C0.989568 2.90075 1.02934 2.88732 1.03136 2.89844C1.04747 2.9827 1.03108 3.06006 1.04194 3.14875C1.04721 3.19158 1.07968 3.26517 1.08087 3.31011C1.08318 3.38795 1.0358 3.49002 1.05856 3.55376C1.07322 3.59537 1.11292 3.58081 1.1431 3.59562C1.20158 3.62422 1.11273 3.69906 1.0988 3.70935C1.09834 3.70967 1.08407 3.67408 1.06555 3.69636C1.02325 3.71327 1.09856 3.70896 1.0988 3.70935C1.08983 3.71609 1.08976 3.79079 1.0994 3.80442C1.10467 3.81182 1.14286 3.80254 1.14487 3.80649C1.19183 3.90046 1.21391 3.99773 1.20812 4.09973C1.20755 4.10158 1.16388 4.10429 1.16309 4.10858C1.15094 4.16865 1.20852 4.19901 1.24588 4.24276C1.28321 4.28649 1.27729 4.32537 1.20634 4.36277C1.22013 4.39755 1.19355 4.45303 1.17722 4.48503C1.1609 4.51715 1.24579 4.51091 1.24778 4.51332C1.31117 4.58805 1.26863 4.64093 1.27148 4.7261C1.27267 4.76642 1.29474 4.8447 1.3093 4.88672C1.32094 4.91992 1.30375 4.94322 1.32029 4.97318C1.32251 4.97724 1.35955 4.96828 1.36116 4.9694C1.41046 4.99903 1.31653 4.99349 1.30102 5.00279C1.24464 5.03654 1.21487 5.05662 1.24856 5.09839C1.25628 5.10802 1.39229 5.12186 1.40238 5.1398C1.41526 5.16315 1.3667 5.1598 1.38139 5.18407C1.38191 5.18495 1.38735 5.18473 1.39355 5.18537L1.39035 5.16433C1.39894 5.16477 1.40904 5.16675 1.40994 5.17601C1.41752 5.2501 1.41509 5.3328 1.43187 5.40811C1.43405 5.41841 1.4776 5.39672 1.4815 5.41146C1.4998 5.48064 1.51233 5.55802 1.50355 5.63039C1.50125 5.64824 1.46711 5.64368 1.45824 5.64911C1.40462 5.68234 1.49454 5.6985 1.49712 5.70344C1.5609 5.8211 1.5031 5.93139 1.56366 6.05208C1.56711 6.05865 1.6673 6.09485 1.59477 6.13353C1.58995 6.13615 1.51559 6.17497 1.57357 6.18544C1.57719 6.18608 1.61497 6.16355 1.61579 6.19C1.61661 6.21646 1.65172 6.25245 1.61395 6.29636C1.60207 6.31023 1.52852 6.35197 1.59775 6.37309C1.60255 6.37444 1.75439 6.39811 1.66017 6.43561C1.64465 6.44174 1.54052 6.45893 1.6014 6.48829C1.61318 6.49386 1.63356 6.47554 1.65191 6.49271C1.68015 6.51898 1.66044 6.56504 1.71398 6.59355C1.72344 6.59848 1.79921 6.61255 1.75036 6.64555C1.74271 6.65072 1.70684 6.6509 1.70533 6.66352C1.69798 6.72358 1.73284 6.77795 1.72041 6.83988C1.71607 6.86181 1.65817 6.86265 1.64745 6.88676C1.63673 6.91085 1.63093 6.9564 1.66089 6.97338C1.69087 6.99037 1.77494 6.94827 1.78874 6.97994C1.84869 7.11753 1.82562 7.27067 1.84758 7.41585C1.85083 7.43738 1.87899 7.41318 1.88606 7.44441C1.9123 7.55983 1.98363 7.75303 1.93725 7.86778C1.90007 7.95961 1.83763 7.86696 1.82854 7.9331C1.82428 7.96501 1.93427 7.97538 1.93902 7.98185C1.98675 8.04473 1.95134 8.10316 1.97871 8.16317C1.98438 8.17556 2.0235 8.15394 2.02786 8.16458C2.04313 8.20084 2.03289 8.2445 2.04398 8.27986C2.04906 8.29569 2.08036 8.28591 2.08107 8.30132C2.08313 8.33814 2.07645 8.37263 2.05395 8.4138C2.0519 8.41756 2.0076 8.40465 2.01177 8.43139C2.01863 8.47462 2.00046 8.53398 2.04148 8.57655C2.05378 8.58916 2.12687 8.57404 2.08321 8.61619C2.0741 8.62503 1.98467 8.63547 2.06824 8.65576C2.08214 8.65922 2.19745 8.6986 2.13813 8.74287C2.12252 8.75455 2.05521 8.79028 2.07026 8.80538C2.07257 8.80737 2.1097 8.78939 2.11666 8.80309C2.14049 8.85151 2.14791 8.90601 2.1716 8.95605C2.178 8.96939 2.214 8.93966 2.22225 8.95981C2.24498 9.0152 2.25026 9.08928 2.24981 9.14826C2.24957 9.17002 2.21287 9.163 2.20955 9.16531C2.1554 9.20252 2.23876 9.19947 2.24519 9.20651C2.28413 9.2506 2.25478 9.29701 2.27484 9.34104C2.28028 9.35321 2.31655 9.33581 2.32051 9.33761C2.35958 9.35664 2.28662 9.35205 2.28268 9.37035C2.27144 9.42168 2.28589 9.47304 2.30114 9.51926C2.30679 9.53622 2.34686 9.507 2.35142 9.52232C2.37926 9.61289 2.39596 9.70925 2.39134 9.80477C2.39038 9.82274 2.3539 9.81959 2.34688 9.82483C2.29768 9.86117 2.37993 9.88046 2.38882 9.8871C2.42938 9.91727 2.40238 9.93839 2.41526 9.97005C2.47876 10.1249 2.50259 10.3279 2.5238 10.4827C2.55162 10.6842 2.55309 10.845 2.60321 11.0322C2.60635 11.0441 2.64909 11.022 2.65238 11.0321C2.69276 11.1632 2.70405 11.299 2.7466 11.4301C2.75001 11.4409 2.78958 11.4156 2.79651 11.4326C2.81102 11.4674 2.81876 11.5138 2.81304 11.5535C2.81033 11.5728 2.76813 11.5569 2.76616 11.5762C2.76148 11.6211 2.76821 11.6665 2.78455 11.7081C2.7916 11.7258 2.82959 11.6885 2.83531 11.7122C2.87514 11.8734 2.91749 12.0313 2.89588 12.2073C2.8944 12.2194 2.80699 12.2487 2.82934 12.2689C2.85459 12.2654 2.8838 12.2589 2.91054 12.254C2.97595 12.4872 2.99507 12.7279 3.04046 12.9663C3.04239 12.9763 3.08623 12.949 3.09019 12.9684C3.1132 13.0807 3.14928 13.1871 3.12596 13.3117C3.12372 13.3241 3.03889 13.3357 3.05853 13.3667C3.06208 13.3721 3.08374 13.4204 3.1046 13.4297C3.10771 13.4309 3.14483 13.4136 3.14935 13.4296C3.17488 13.523 3.18646 13.6244 3.18191 13.7239C3.1811 13.74 3.13619 13.7322 3.13525 13.7437C3.12887 13.8252 3.17758 13.903 3.15463 13.9844C3.13912 14.0388 3.0635 14.035 2.99793 14.0754C2.98868 14.0811 2.9932 14.1119 2.9523 14.1217C2.84949 14.1465 2.73307 14.1545 2.62383 14.1826C2.6003 14.1887 2.63403 14.2241 2.57174 14.2116C2.56756 14.2107 2.54259 14.1851 2.52163 14.1818C2.50714 14.1794 2.46705 14.1969 2.44773 14.1901C2.42842 14.1833 2.46128 14.1649 2.43757 14.1519C2.41362 14.139 2.36746 14.1561 2.35496 14.1232ZM1.10437 4.62934C1.06721 4.6617 1.21614 4.64752 1.17698 4.62224C1.17491 4.62104 1.10618 4.62768 1.10437 4.62934ZM0.624677 1.31418C0.565708 1.36087 0.665458 1.36925 0.711429 1.33549C0.757326 1.30168 0.642533 1.29993 0.624677 1.31418ZM0.511765 0.951975C0.468245 1.00299 0.678084 0.971626 0.627686 0.934408C0.624823 0.932232 0.514287 0.948992 0.511765 0.951975ZM2.95332 13.9581C2.95145 13.9588 2.95398 13.9812 2.95602 13.9813C3.00494 13.9836 2.99983 13.9389 2.95332 13.9581ZM0.383785 0.589786C0.368951 0.604182 0.382138 0.619731 0.401168 0.621869C0.412664 0.631525 0.424133 0.630252 0.434822 0.623094C0.434521 0.620739 0.432405 0.614004 0.431814 0.611704C0.432236 0.61133 0.432655 0.610945 0.43307 0.610549C0.456042 0.58851 0.412149 0.562392 0.383785 0.589786ZM1.17331 6.0697C1.1712 6.07055 1.17223 6.08664 1.18454 6.08396C1.22419 6.07528 1.20877 6.05557 1.17331 6.0697ZM0.130761 0.00366306C0.165615 0.091585 0.0320904 0.218084 0.00581835 0.119437C0.000946235 0.101464 0.073309 0.130036 0.0772124 0.102206C0.0841006 0.0510611 -0.0270144 0.0748059 0.00617269 0.00937796C0.0122832 -0.00252721 0.129123 -0.00154443 0.131054 0.00370285C0.130957 0.00368962 0.130859 0.00367629 0.130761 0.00366306ZM0.928023 4.66702C0.926128 4.66781 0.926977 4.69009 0.928987 4.69038C0.977577 4.69652 0.975894 4.65165 0.928023 4.66702ZM1.26245 7.00473C1.25856 7.00676 1.26487 7.05806 1.26901 7.05893C1.35042 7.06992 1.3379 6.96625 1.26245 7.00473ZM0.633851 3.19972C0.583358 3.18195 0.574025 3.15406 0.630975 3.12714C0.630952 3.15136 0.633632 3.17539 0.633851 3.19972Z" fill="black"/>
</svg>
