<svg width="14" height="4" viewBox="0 0 14 4" fill="none" xmlns="http://www.w3.org/2000/svg">
<path d="M13.7344 3.81428C13.6542 3.81129 13.545 3.77492 13.4713 3.74046C13.4466 3.72941 13.465 3.7061 13.4479 3.69724C13.4147 3.67999 13.383 3.68684 13.3506 3.66775C13.34 3.66132 13.3626 3.62306 13.3513 3.61725C13.2884 3.58557 13.2288 3.58442 13.1632 3.56204C12.8532 3.45434 12.537 3.37438 12.2169 3.29031C12.1097 3.2623 11.9894 3.19919 11.8728 3.19269C11.8592 3.19197 11.8598 3.22968 11.8567 3.23215C11.8091 3.27001 11.8368 3.19969 11.8138 3.18499C11.7231 3.12691 11.6096 3.1006 11.5123 3.09553C11.4701 3.09332 11.4968 3.17335 11.4635 3.12475C11.4611 3.12145 11.4793 3.08519 11.4688 3.07882C11.4452 3.06449 11.3944 3.0614 11.3752 3.0544C11.3391 3.04083 11.3328 3.03996 11.2972 3.03235C11.2485 3.0216 11.1935 2.9907 11.1379 2.98858C11.1261 2.98825 11.1333 3.03061 11.1138 3.03366C11.0949 3.03681 11.0485 3.02403 11.0344 3.01155C11.0203 2.99908 11.0333 2.96953 11.0319 2.96187C11.0208 2.89741 10.9489 2.96916 10.9413 2.96976C10.8022 2.97813 10.7059 2.90974 10.5816 2.88493C10.4908 2.86693 10.3895 2.86284 10.301 2.84287C10.1979 2.81941 10.1146 2.78056 10.011 2.76362C10 2.76179 10.0035 2.81058 9.99013 2.80844C9.85283 2.78655 9.71158 2.75305 9.58223 2.69472C9.56908 2.68879 9.59497 2.65173 9.58231 2.64338C9.50518 2.59325 9.38382 2.48563 9.29995 2.65274C9.24443 2.63447 9.17617 2.61342 9.13155 2.56745C9.10275 2.53785 9.14403 2.50009 9.0992 2.51077C9.08909 2.51312 9.09342 2.55427 9.07883 2.55487C9.01686 2.55725 8.95807 2.53242 8.8965 2.54095C8.88403 2.5428 8.88028 2.57815 8.87574 2.58374C8.83792 2.62884 8.80822 2.53589 8.79928 2.52778C8.73079 2.46697 8.67141 2.47368 8.60068 2.45843C8.58422 2.45486 8.59445 2.50539 8.57827 2.50363C8.49465 2.49391 8.40838 2.47255 8.33148 2.43572C8.31456 2.42745 8.33889 2.391 8.33121 2.38501C8.29722 2.3591 8.27391 2.43246 8.24085 2.40902C8.23386 2.40418 8.24494 2.37103 8.24429 2.36702C8.23411 2.30404 8.19852 2.38332 8.19252 2.38403C8.11616 2.39488 8.0875 2.29901 8.01536 2.29742C8.00689 2.29736 8.01673 2.34405 7.99344 2.34123C7.83902 2.32285 7.67384 2.27772 7.53021 2.2134C7.50756 2.2034 7.5309 2.17443 7.53021 2.17015C7.51827 2.10305 7.48591 2.18335 7.47754 2.18495C7.41191 2.19542 7.36832 2.11404 7.30666 2.20509C7.05561 2.11939 6.78681 2.12408 6.54615 1.98387C6.54306 1.98218 6.55711 1.94226 6.55091 1.93908C6.47714 1.90049 6.47979 1.96738 6.41259 2.03525C6.3957 2.05229 6.3747 1.95012 6.37254 1.94251C6.36478 1.9145 6.39017 1.856 6.38686 1.85021C6.35902 1.80444 6.3248 2.00778 6.27677 1.99834C6.27533 1.9977 6.28901 1.96174 6.28571 1.95724C6.27549 1.94314 6.26012 1.95547 6.25038 1.94023C6.22813 1.90502 6.23757 1.80479 6.18318 1.85345C6.17645 1.8596 6.16275 1.9693 6.12348 1.96307L6.13531 1.965C6.1341 1.96489 6.13285 1.96467 6.13157 1.96434C6.11438 1.95984 6.03737 1.95208 6.01698 1.94187C5.99656 1.93165 6.01597 1.89613 6.01465 1.89432C5.96339 1.83761 5.9878 1.81989 5.96831 1.74308C5.94883 1.66656 5.93483 1.84144 5.9207 1.85937C5.90681 1.87727 5.86926 1.83111 5.86062 1.81562C5.85197 1.80012 5.86798 1.77801 5.85971 1.76881C5.80484 1.70862 5.82187 1.85172 5.79817 1.87677C5.74235 1.93613 5.72171 1.80254 5.68015 1.78449C5.66891 1.77961 5.67474 1.81018 5.66402 1.81162C5.62091 1.81687 5.60071 1.77347 5.54882 1.80445C5.54032 1.80949 5.49248 1.88225 5.47503 1.82228C5.47258 1.81364 5.48648 1.78274 5.46979 1.77334C5.44509 1.75928 5.39805 1.74627 5.36809 1.75344C5.34602 1.75876 5.36356 1.81473 5.33911 1.79497C5.32826 1.78616 5.35393 1.7579 5.33322 1.74393C5.31261 1.72997 5.2565 1.72436 5.23521 1.72279C5.21393 1.72125 5.2205 1.76286 5.21845 1.76536C5.20634 1.77959 5.16286 1.79385 5.15917 1.79334C4.97562 1.77547 4.81734 1.68704 4.6361 1.6872C4.62196 1.68717 4.62596 1.73068 4.62375 1.73112C4.57394 1.74293 4.62548 1.63498 4.59701 1.59314C4.59109 1.6797 4.57342 1.66169 4.53898 1.66696C4.52238 1.66958 4.52695 1.70395 4.52506 1.70718C4.49451 1.7547 4.48584 1.6873 4.48318 1.6734C4.47333 1.62226 4.44871 1.67815 4.44198 1.64395C4.43524 1.61 4.46618 1.56479 4.43388 1.56137C4.421 1.59101 4.43484 1.67442 4.40876 1.68439C4.31129 1.72227 4.14592 1.63737 4.07283 1.62144C3.99916 1.60545 3.97475 1.60811 3.9333 1.59153C3.85828 1.56152 3.8787 1.62474 3.82673 1.64583C3.77457 1.66688 3.81708 1.52319 3.81414 1.49075C3.81136 1.45834 3.79972 1.48984 3.79346 1.47141C3.78724 1.453 3.8083 1.4339 3.78926 1.42484C3.77014 1.41578 3.70904 1.46491 3.69728 1.49691C3.67315 1.56482 3.68839 1.64136 3.63855 1.6087C3.63569 1.60677 3.65061 1.56948 3.63943 1.56407C3.55098 1.52238 3.45471 1.50788 3.36636 1.46941C3.35425 1.46406 3.37122 1.42266 3.36424 1.41907C3.29143 1.38144 3.30872 1.45735 3.2557 1.53202C3.2796 1.42639 3.2648 1.35784 3.20688 1.34936C3.17211 1.34423 3.17182 1.39173 3.14484 1.42157C3.1366 1.43055 3.11594 1.39508 3.10842 1.41641C3.08371 1.48613 3.09612 1.56967 3.04012 1.5294C3.03769 1.52751 3.0515 1.4894 3.0427 1.48576C2.9857 1.46203 2.96948 1.53627 2.90341 1.5363C2.85169 1.53635 2.77068 1.47821 2.71388 1.46241C2.73232 1.34255 2.6747 1.36228 2.64101 1.44186C2.60517 1.43317 2.56384 1.43187 2.52986 1.41513C2.51815 1.4094 2.5314 1.37587 2.5304 1.37189C2.51545 1.30949 2.4875 1.38756 2.47909 1.38952C2.38849 1.40725 2.3272 1.33546 2.2356 1.38204C2.23234 1.38372 2.21438 1.46618 2.20186 1.40192C2.20111 1.39751 2.23436 1.36398 2.196 1.35489C2.15767 1.3458 2.09237 1.28954 2.03198 1.3191C2.01746 1.32623 1.97334 1.38823 1.95605 1.33114C1.95377 1.3234 1.96158 1.30021 1.9588 1.28611C1.9495 1.2411 1.92613 1.32351 1.91891 1.2489C1.91165 1.17429 1.88105 1.11412 1.81924 1.15394C1.81727 1.15507 1.79267 1.21927 1.77575 1.21519C1.74875 1.20863 1.71284 1.1879 1.68478 1.18324C1.67134 1.18103 1.67241 1.22382 1.66994 1.22415C1.57393 1.23046 1.51671 1.18167 1.42223 1.14655C1.40523 1.14009 1.34275 1.18589 1.31698 1.13448C1.28918 1.07825 1.36896 0.884783 1.27403 0.914973C1.23538 0.926843 1.13568 1.17247 1.10232 1.0265C0.972908 1.03194 0.87794 0.938164 0.745699 0.953339C0.739864 0.954018 0.704324 1.02004 0.691494 1.01562C0.672665 1.00899 0.67099 0.97329 0.658045 0.967487C0.604651 0.942488 0.544031 0.955759 0.491343 0.935671C0.485853 0.933599 0.483158 0.92971 0.481648 0.924974C0.477222 0.911015 0.484152 0.893426 0.468335 0.884103C0.44708 0.871389 0.410002 0.90463 0.389908 0.867495C0.375239 0.839375 0.403632 0.745604 0.387197 0.720388C0.332292 0.795779 0.314546 0.78212 0.266743 0.773297C0.257335 0.771377 0.242537 0.801713 0.23688 0.801972C0.212761 0.802962 0.220251 0.772758 0.19607 0.773843C0.190189 0.774018 0.166791 0.795725 0.160475 0.796844C0.103674 0.805652 0.129021 0.718911 0.136695 0.706833C0.16036 0.656288 0.118692 0.665864 0.125136 0.636595C0.132987 0.609097 0.167223 0.627683 0.167813 0.601524C0.169892 0.549164 0.152232 0.494237 0.14857 0.444992C0.146961 0.425776 0.105919 0.443007 0.104704 0.440373C0.0896805 0.398077 0.134592 0.35565 0.0499121 0.331225C0.269806 0.304707 0.0284538 0.304971 0.0754738 0.243765C0.0793083 0.239014 0.183187 0.23958 0.197456 0.257689C0.21171 0.276041 0.178216 0.301485 0.201704 0.325544C0.207099 0.332184 0.30451 0.36171 0.310589 0.364797C0.357386 0.391756 0.203285 0.404813 0.194841 0.407602C0.104287 0.435329 0.213493 0.464602 0.222107 0.470045C0.261476 0.504502 0.250192 0.539668 0.283982 0.556871C0.306144 0.5677 0.395627 0.518845 0.396942 0.527174C0.399201 0.551086 0.316159 0.670738 0.431541 0.607178C0.456211 0.593115 0.51403 0.498375 0.488184 0.587255C0.485533 0.592285 0.465834 0.675151 0.507675 0.641001C0.512719 0.63658 0.529029 0.608638 0.532672 0.607615C0.556903 0.601311 0.555276 0.629779 0.580404 0.628716C0.592161 0.627953 0.605641 0.626295 0.618869 0.627205L0.574053 0.610225C0.58998 0.609594 0.605625 0.611904 0.618842 0.621573C0.634248 0.632826 0.640388 0.697182 0.644955 0.713777C0.657893 0.761547 0.701187 0.701115 0.702544 0.754817C0.704084 0.808825 0.653893 0.876701 0.685156 0.91972C0.708366 0.838911 0.733999 0.756452 0.758088 0.675382C0.842573 0.700956 0.920294 0.748412 1.00816 0.765407C1.01912 0.76744 1.01844 0.720844 1.03044 0.721877C1.08061 0.726308 1.11529 0.767293 1.1695 0.766202C1.2105 0.764961 1.26351 0.727496 1.30738 0.724455C1.31256 0.823899 1.37996 0.804575 1.42333 0.822258C1.43856 0.828423 1.43235 0.853377 1.44175 0.863807C1.47743 0.902521 1.47444 0.815245 1.48846 0.804388C1.54843 0.757997 1.5165 0.947813 1.57601 0.954347C1.57915 0.954765 1.63594 0.861127 1.64231 0.855811C1.68309 0.821072 1.64121 0.891926 1.66064 0.903257C1.69635 0.923972 1.7184 0.952918 1.76814 0.93136C1.78272 0.924949 1.8251 0.867592 1.84201 0.920776C1.84424 0.927744 1.8365 0.960801 1.83886 0.963233C1.8819 1.00439 1.90107 0.899582 1.93485 0.868816C1.96849 0.838031 1.9992 0.917823 2.00457 0.940215C2.01856 0.998173 1.98296 0.960327 1.98085 0.965417C1.95537 1.02603 1.98921 1.02061 2.01202 1.02992C1.99814 1.13349 2.03268 1.1329 2.03585 1.03917C2.03614 1.02892 2.016 1.03542 2.01202 1.02992C2.04987 0.932369 2.08827 0.925476 2.11375 1.02668C2.12563 1.07409 2.09935 1.12286 2.16055 1.11339C2.1881 1.10908 2.18941 1.03645 2.21562 1.0208C2.27547 0.985094 2.33469 1.0623 2.39069 1.06022C2.41116 1.05949 2.39777 1.01761 2.41197 1.01576C2.44945 1.01072 2.47799 1.04493 2.51575 1.03532C2.51922 1.03441 2.5174 0.992462 2.52865 0.993625C2.61431 1.00166 2.68534 1.03879 2.77451 1.05238C2.81834 1.05905 2.89784 1.0474 2.94225 1.05824C3.01999 1.07693 3.10553 1.14922 3.17518 1.14401C3.21973 1.14067 3.21563 1.09851 3.2379 1.0732C3.28071 1.02407 3.33139 1.12926 3.33808 1.14538C3.33826 1.14591 3.29943 1.1505 3.31665 1.17416C3.32244 1.21941 3.33764 1.14551 3.33808 1.14538C3.34273 1.15585 3.41571 1.17502 3.4315 1.16916C3.44009 1.16596 3.44074 1.12665 3.44512 1.12571C3.54994 1.10436 3.65007 1.10744 3.75004 1.13878C3.75174 1.1398 3.74342 1.18276 3.74749 1.18461C3.80342 1.21142 3.8475 1.16322 3.90015 1.13799C3.95297 1.11279 3.98987 1.1282 4.00883 1.2062C4.04634 1.20146 4.0947 1.24101 4.12263 1.26482C4.15057 1.28864 4.16544 1.20481 4.16825 1.20348C4.25696 1.16046 4.29928 1.21484 4.38456 1.23318C4.42452 1.24197 4.50707 1.23988 4.55293 1.23624C4.58941 1.23325 4.60735 1.25557 4.64112 1.24694C4.64567 1.24579 4.64597 1.20768 4.64747 1.2064C4.68893 1.16593 4.66026 1.25561 4.66562 1.27294C4.68508 1.33594 4.69774 1.36978 4.74762 1.3475C4.75905 1.34239 4.80709 1.2141 4.82702 1.20872C4.85324 1.20202 4.83789 1.24825 4.86557 1.24003C4.86794 1.23937 4.8711 1.21007 4.88718 1.21338C4.96186 1.22837 5.0431 1.25575 5.12139 1.26252C5.13215 1.26356 5.12417 1.21547 5.13982 1.21622C5.21346 1.2198 5.29331 1.23149 5.36117 1.26199C5.37794 1.26966 5.36295 1.30077 5.36554 1.31088C5.38152 1.37212 5.42525 1.29149 5.43094 1.29056C5.566 1.26605 5.65642 1.35527 5.79279 1.33531C5.80021 1.33406 5.86706 1.25017 5.88214 1.33123C5.88319 1.33663 5.89773 1.41945 5.92643 1.36769C5.92822 1.36446 5.918 1.32147 5.94434 1.32904C5.97104 1.33665 6.01641 1.31454 6.04738 1.36427C6.05715 1.37994 6.0744 1.46291 6.11713 1.40393C6.11991 1.39978 6.19179 1.26327 6.1985 1.36461C6.1992 1.37572 6.19207 1.42576 6.20162 1.44355C6.20638 1.44448 6.22083 1.44616 6.22551 1.44742C6.22965 1.45662 6.23849 1.45806 6.25569 1.44309C6.26557 1.43436 6.2559 1.40846 6.27942 1.39814C6.3155 1.3822 6.35189 1.4182 6.39975 1.37977C6.40812 1.37295 6.45077 1.3084 6.46321 1.36627C6.46516 1.37533 6.45147 1.40852 6.46285 1.41479C6.51696 1.44477 6.58158 1.43356 6.63521 1.46902C6.65452 1.48158 6.63274 1.5353 6.65162 1.55459C6.67051 1.57388 6.71156 1.59697 6.73936 1.57596C6.76717 1.55494 6.75997 1.46101 6.79544 1.46064C6.94913 1.45896 7.08496 1.54016 7.2313 1.57714C7.25291 1.58261 7.24114 1.54718 7.27341 1.55295C7.39087 1.5738 7.60503 1.5853 7.6933 1.67319C7.76452 1.74368 7.65317 1.76444 7.7114 1.79894C7.73917 1.81539 7.79351 1.71864 7.80146 1.71684C7.88049 1.69815 7.92141 1.75393 7.98871 1.7527C8.0026 1.75243 7.99789 1.7079 8.00961 1.70813C8.04974 1.70856 8.08651 1.73533 8.12388 1.73921C8.14087 1.74089 8.14426 1.70827 8.15921 1.71382C8.19512 1.72673 8.22506 1.74668 8.25492 1.78383C8.25764 1.78722 8.22769 1.82267 8.25459 1.82957C8.29813 1.84061 8.34659 1.88105 8.40278 1.86045C8.41947 1.85421 8.43465 1.78113 8.45645 1.83803C8.46116 1.84994 8.43455 1.93602 8.48761 1.86763C8.49653 1.85629 8.58052 1.76653 8.59836 1.83873C8.60309 1.85774 8.60964 1.93382 8.62991 1.92611C8.63271 1.92479 8.63076 1.88353 8.64645 1.88267C8.70161 1.88032 8.75559 1.89544 8.81145 1.89378C8.82641 1.89326 8.81314 1.84831 8.83534 1.84888C8.89732 1.85054 8.96948 1.87571 9.02463 1.89995C9.04494 1.90896 9.02352 1.93973 9.02434 1.94371C9.03731 2.00832 9.06803 1.93073 9.07719 1.92768C9.13398 1.90978 9.16491 1.95528 9.21522 1.95492C9.22897 1.95489 9.22726 1.91464 9.23058 1.91174C9.26452 1.88374 9.23045 1.94862 9.24618 1.95966C9.29017 1.99082 9.34427 1.99842 9.39345 2.00314C9.41152 2.00482 9.40052 1.95633 9.41663 1.95835C9.51067 1.96916 9.61149 1.99374 9.69796 2.03654C9.71433 2.04471 9.69658 2.0768 9.69863 2.08535C9.71254 2.14509 9.76371 2.07763 9.77345 2.07218C9.81746 2.04719 9.8271 2.08064 9.86227 2.08179C10.0338 2.0868 10.2344 2.14784 10.3862 2.19117C10.5878 2.24814 10.7384 2.31226 10.9331 2.34253C10.9453 2.34447 10.9422 2.29642 10.9529 2.29751C11.0941 2.31442 11.2212 2.35849 11.3643 2.37354C11.3758 2.37481 11.3682 2.32832 11.3869 2.32891C11.4254 2.3298 11.4715 2.34152 11.5056 2.36272C11.5222 2.37298 11.4907 2.40522 11.5075 2.41479C11.5484 2.43746 11.5943 2.44991 11.6397 2.45183C11.659 2.45255 11.6397 2.40267 11.6641 2.40705C11.8292 2.4357 11.9947 2.4611 12.1515 2.55226C12.1621 2.55849 12.154 2.65032 12.1814 2.63793C12.1883 2.61337 12.1941 2.58403 12.2002 2.55754C12.4458 2.5921 12.6785 2.67147 12.9198 2.72526C12.93 2.72751 12.922 2.67637 12.9417 2.68048C13.0539 2.70389 13.1682 2.71329 13.2772 2.7846C13.2877 2.79153 13.2651 2.87409 13.3009 2.86817C13.306 2.86679 13.3624 2.86659 13.3792 2.85107C13.3816 2.8487 13.38 2.80771 13.397 2.80996C13.4919 2.823 13.5931 2.85279 13.6853 2.89635C13.6996 2.90334 13.6751 2.94169 13.6852 2.94702C13.7604 2.98528 13.8517 2.97088 13.919 3.02388C13.9648 3.05965 13.9297 3.12741 13.9423 3.20367C13.9448 3.21459 13.9763 3.22263 13.9691 3.26405C13.9521 3.36843 13.9144 3.47885 13.898 3.59047C13.8951 3.61464 13.9381 3.5967 13.904 3.64963C13.9021 3.65322 13.8689 3.66635 13.8566 3.68415C13.8484 3.69651 13.8498 3.74042 13.835 3.75537C13.8189 3.77004 13.8173 3.73316 13.7956 3.74986C13.7739 3.76681 13.7728 3.81621 13.7344 3.81428ZM4.24706 1.37116C4.26997 1.41519 4.29278 1.26734 4.25802 1.29902C4.25632 1.30073 4.24587 1.36899 4.24706 1.37116ZM0.893361 0.857561C0.912708 0.930242 0.95977 0.841762 0.946964 0.786272C0.934463 0.730884 0.887593 0.835542 0.893361 0.857561ZM0.517193 0.806443C0.54325 0.868225 0.608081 0.666204 0.553618 0.695003C0.551542 0.696061 0.53571 0.742687 0.525587 0.775308L0.545774 0.782957C0.54136 0.792016 0.537619 0.799944 0.535285 0.805309L0.518632 0.798999C0.517524 0.803228 0.516974 0.805921 0.517193 0.806443ZM13.8155 3.19893C13.8156 3.20097 13.8371 3.20729 13.8379 3.20545C13.8589 3.16126 13.8161 3.14866 13.8155 3.19893ZM0.232419 0.653523C0.215796 0.680522 0.264039 0.686879 0.282158 0.652772C0.297731 0.627156 0.254319 0.622494 0.232419 0.653523ZM5.68807 1.71191C5.68823 1.71418 5.70408 1.71819 5.70533 1.70565C5.70928 1.66526 5.68546 1.67381 5.68807 1.71191ZM0.170769 0.0640128C0.153198 0.156344 -0.0260427 0.201249 0.00322121 0.0969426C0.00859333 0.0783244 0.0549542 0.143065 0.0729518 0.120495C0.10577 0.0791958 -0.000598156 0.0393114 0.0629041 0.000471623C0.0744656 -0.00619786 0.172129 0.0587575 0.170994 0.0642073C0.170919 0.0641424 0.170844 0.0640777 0.170769 0.0640128ZM4.24075 1.55141C4.24106 1.55344 4.26337 1.55813 4.26416 1.55626C4.28229 1.51069 4.23736 1.5012 4.24075 1.55141ZM6.61397 1.95562C6.6144 1.96 6.66541 1.97412 6.66783 1.97065C6.70994 1.89984 6.60686 1.87106 6.61397 1.95562ZM2.71344 1.45908C2.68202 1.50281 2.65186 1.50412 2.64111 1.44194C2.66486 1.44862 2.68928 1.45263 2.71344 1.45908Z" fill="#3C8634"/>
</svg>
