<svg width="6" height="6" viewBox="0 0 6 6" fill="none" xmlns="http://www.w3.org/2000/svg">
<path d="M4.34913 4.49634C4.27652 4.48328 4.18138 4.49709 4.10929 4.51606C4.08656 4.52194 4.09801 4.54847 4.08233 4.55373C4.05167 4.56397 4.02324 4.5509 3.99313 4.5631C3.98309 4.56727 3.99548 4.60928 3.98493 4.6127C3.92703 4.63109 3.87306 4.62023 3.81448 4.62893C3.52718 4.67183 3.245 4.68577 2.95454 4.70126C2.85921 4.70633 2.7422 4.74268 2.6437 4.72416C2.63232 4.72196 2.63983 4.68524 2.63771 4.68217C2.60487 4.63503 2.61444 4.70962 2.59166 4.71906C2.50255 4.75631 2.40286 4.75732 2.31809 4.74051C2.28252 4.73324 2.32137 4.66123 2.28307 4.70112C2.28041 4.70381 2.28849 4.74322 2.27825 4.74707C2.25501 4.75572 2.2134 4.74724 2.19545 4.74964C2.16237 4.75453 2.15615 4.75388 2.12478 4.75294C2.08203 4.75198 2.02964 4.76877 1.98555 4.75681C1.97622 4.75414 1.99134 4.715 1.97717 4.70714C1.96332 4.69937 1.92473 4.69946 1.91266 4.70751C1.90088 4.71571 1.90185 4.74753 1.89909 4.75449C1.88515 4.7974 1.84649 4.7574 1.88911 4.74747C1.8897 4.73794 1.89148 4.7302 1.89125 4.72943C1.89629 4.69601 1.84351 4.70896 1.80318 4.60724C1.77694 4.53816 1.76162 4.44349 1.72684 4.36512C1.68522 4.27119 1.62663 4.20027 1.57915 4.11161C1.57402 4.1022 1.62111 4.08918 1.61474 4.07741C1.59475 4.04063 1.57324 4.00561 1.54912 3.97134C1.49637 3.89668 1.4359 3.82784 1.36335 3.76868C1.35302 3.76033 1.32986 3.79844 1.31762 3.79166C1.24323 3.74894 1.10459 3.70607 1.21454 3.5561C1.17542 3.51934 1.1286 3.47489 1.07058 3.46287C1.03319 3.45509 1.0179 3.50663 1.00859 3.46614C1.00643 3.45704 1.04346 3.43952 1.03795 3.42782C1.01474 3.37856 0.967603 3.34388 0.949713 3.29199C0.946159 3.28139 0.974775 3.26036 0.977682 3.25398C1.00064 3.20162 0.909548 3.22656 0.899061 3.22382C0.844749 3.20929 0.819478 3.18134 0.796139 3.1501C0.787742 3.13857 0.780223 3.12633 0.77113 3.11412C0.764459 3.1051 0.81082 3.08845 0.806232 3.07931C0.782694 3.03298 0.756624 2.98854 0.718173 2.94084C0.709523 2.93014 0.674873 2.95427 0.668707 2.94956C0.641881 2.92741 0.713607 2.8998 0.690886 2.87836C0.686173 2.87358 0.65336 2.88523 0.649404 2.88512C0.587101 2.88259 0.666159 2.8478 0.667177 2.84368C0.680785 2.78524 0.587825 2.76296 0.592937 2.70296C0.593691 2.6959 0.639078 2.70607 0.638582 2.6867C0.636393 2.57889 0.624069 2.46256 0.598572 2.34839C0.594068 2.33655 0.590064 2.3235 0.586762 2.30912C0.583694 2.2944 0.549616 2.29856 0.545704 2.29724C0.486269 2.26832 0.572651 2.2741 0.576733 2.27127C0.608007 2.2417 0.562231 2.17098 0.666584 2.19025C0.703823 2.07084 0.811088 1.96735 0.898907 1.85189C0.934675 1.80288 0.977873 1.74987 1.02089 1.68394C1.02254 1.68159 0.995414 1.6493 0.998921 1.6447C1.04252 1.58888 1.06741 1.65076 1.14241 1.69941C1.16084 1.71187 1.14351 1.61205 1.14346 1.60419C1.14101 1.57617 1.10215 1.52616 1.10307 1.52C1.11333 1.47028 1.20202 1.65626 1.23701 1.63933C1.23798 1.63848 1.21685 1.60654 1.21822 1.6017C1.22248 1.58651 1.23846 1.59564 1.24236 1.57945C1.25083 1.5423 1.21862 1.44684 1.27665 1.48527C1.28398 1.4904 1.32336 1.60053 1.35444 1.58157C1.3665 1.57388 1.427 1.55207 1.44111 1.53883C1.45534 1.52539 1.43052 1.49448 1.43112 1.4925C1.46024 1.42853 1.43538 1.41578 1.43454 1.33764C1.4341 1.25978 1.48589 1.4274 1.50192 1.4425C1.51807 1.45746 1.5389 1.40688 1.54326 1.39039C1.54741 1.37393 1.52894 1.35486 1.53416 1.34459C1.56865 1.2775 1.58367 1.41985 1.60889 1.44086C1.66751 1.49112 1.65898 1.35768 1.69217 1.33438C1.70103 1.32814 1.7015 1.3589 1.71104 1.35893C1.74891 1.3587 1.75863 1.31364 1.80833 1.33827C1.81255 1.34035 1.8289 1.3592 1.84442 1.36835C1.85864 1.37688 1.87187 1.3772 1.87466 1.34793C1.87547 1.33916 1.85881 1.31005 1.87185 1.29912C1.89146 1.28268 1.92921 1.26602 1.95626 1.2709C1.9759 1.27458 1.96753 1.33125 1.986 1.31004C1.99425 1.3006 1.96899 1.27427 1.98523 1.25905C2.00156 1.24374 2.04901 1.23526 2.06797 1.23278C2.08653 1.23034 2.08404 1.27204 2.08605 1.27443C2.09791 1.28802 2.13553 1.30105 2.13846 1.30053C2.29017 1.27916 2.42771 1.19722 2.58248 1.21645C2.59455 1.21793 2.58731 1.26077 2.58916 1.26143C2.62992 1.27873 2.59623 1.16564 2.62517 1.12739C2.62153 1.21407 2.6383 1.19817 2.66716 1.2079C2.68117 1.21269 2.67312 1.24616 2.67437 1.2496C2.69409 1.30078 2.70924 1.23535 2.71341 1.22198C2.72842 1.17281 2.74148 1.23179 2.75183 1.19906C2.76252 1.1666 2.74227 1.11704 2.77104 1.11883C2.7776 1.15016 2.75343 1.23021 2.77389 1.24426C2.84879 1.29645 2.99901 1.24774 3.06412 1.25131C3.12754 1.25399 3.14761 1.26358 3.18576 1.2591C3.25589 1.25182 3.22031 1.30629 3.25448 1.34146C3.28868 1.37699 3.30114 1.22837 3.31386 1.19858C3.32673 1.16888 3.32611 1.20227 3.33735 1.18691C3.34865 1.17157 3.33736 1.1468 3.35635 1.14443C3.37543 1.142 3.40995 1.20869 3.40754 1.24247C3.40278 1.31399 3.3642 1.38029 3.41386 1.36643C3.41675 1.3656 3.41861 1.32585 3.4292 1.32459C3.51442 1.31628 3.59513 1.33893 3.68008 1.33983C3.6919 1.33995 3.69634 1.29574 3.70342 1.29537C3.77704 1.29156 3.7301 1.35258 3.73708 1.4412C3.76617 1.33706 3.80763 1.28161 3.8575 1.2998C3.88715 1.31067 3.86502 1.35267 3.87154 1.39083C3.87359 1.40237 3.90604 1.38041 3.90153 1.40247C3.88682 1.47461 3.83767 1.54211 3.89793 1.53171C3.90066 1.53117 3.90879 1.49167 3.91713 1.49248C3.97061 1.49747 3.94751 1.56994 3.99424 1.59987C4.0312 1.62347 4.12123 1.61266 4.17056 1.62613C4.21863 1.5148 4.25031 1.55901 4.23562 1.64367C4.25396 1.64931 4.27461 1.65903 4.29359 1.66519C4.30592 1.66918 4.31864 1.67229 4.33177 1.67281C4.34315 1.67333 4.35034 1.63826 4.35305 1.63528C4.39548 1.5886 4.3766 1.66906 4.38163 1.6747C4.43833 1.73301 4.51992 1.70236 4.56126 1.78739C4.56273 1.79045 4.53153 1.8688 4.5748 1.82094C4.57771 1.8176 4.57171 1.77274 4.60414 1.78428C4.63663 1.79583 4.71422 1.78164 4.74204 1.83679C4.74876 1.85009 4.74833 1.92474 4.79165 1.88529C4.79748 1.87991 4.8039 1.85636 4.81346 1.84586C4.84387 1.81234 4.8179 1.89386 4.862 1.83397C4.90635 1.77411 4.95778 1.73722 4.98313 1.79989C4.98388 1.80168 4.97173 1.86655 4.98539 1.87278C4.98568 1.87291 4.98598 1.87302 4.9863 1.8731C5.01238 1.88066 5.05043 1.87175 5.0727 1.86312C5.08381 1.85909 5.09335 1.90027 5.09574 1.90015C5.22368 1.84417 5.1774 1.74455 5.17286 1.66307C5.17116 1.64749 5.23009 1.60135 5.18471 1.56968C5.13495 1.53575 4.93012 1.57228 4.97731 1.49857C4.99603 1.46917 5.25504 1.4172 5.11709 1.36737C5.14554 1.25728 5.06847 1.1555 5.12458 1.04301C5.12714 1.0376 5.20115 1.02916 5.20151 1.01966C5.20215 1.00348 5.17007 0.989998 5.17078 0.976716C5.1711 0.962938 5.17545 0.949238 5.1818 0.938525C5.19647 0.904485 5.22108 0.876603 5.23019 0.842041C5.23509 0.824016 5.19979 0.817809 5.20603 0.795936C5.21249 0.773894 5.2609 0.777522 5.2519 0.741023C5.24497 0.71346 5.16745 0.654027 5.17062 0.62028C5.25627 0.65778 5.2632 0.637546 5.30153 0.614441C5.30893 0.61005 5.33499 0.63096 5.33999 0.629633C5.36094 0.624686 5.34222 0.601505 5.36431 0.597917C5.36963 0.597016 5.39834 0.610971 5.4043 0.611058C5.45585 0.61268 5.40786 0.548573 5.39961 0.537291C5.36824 0.49437 5.4103 0.503479 5.40218 0.478667C5.39414 0.453745 5.36066 0.467259 5.36064 0.44289C5.36072 0.39226 5.39261 0.344109 5.41322 0.30358C5.42159 0.287542 5.45298 0.318894 5.45504 0.317073C5.48248 0.289601 5.46125 0.234609 5.54543 0.25793C5.39288 0.147366 5.52196 0.218654 5.55573 0.199924C5.5617 0.196253 5.56444 0.190628 5.56259 0.180796C5.56137 0.175797 5.47461 0.118332 5.45244 0.126622C5.44692 0.128664 5.44377 0.132695 5.44167 0.137733C5.43657 0.150098 5.43984 0.172301 5.41605 0.178418C5.40863 0.180248 5.30874 0.159725 5.30157 0.160522C5.24527 0.167056 5.3788 0.246098 5.3854 0.251752C5.45634 0.313374 5.34674 0.295396 5.33556 0.300809C5.28475 0.324744 5.28573 0.369145 5.24702 0.391966C5.22193 0.406914 5.13053 0.362535 5.12406 0.381883C5.1023 0.447107 5.21978 0.529087 5.08158 0.53388C5.05207 0.53524 4.95691 0.476018 5.01524 0.5586C5.01882 0.563974 5.07678 0.630053 5.02199 0.629985C5.01505 0.630016 4.9853 0.617291 4.98137 0.619617C4.95559 0.635495 4.97311 0.660675 4.95172 0.6813C4.9303 0.702053 4.90126 0.727168 4.90113 0.761105C4.90092 0.781642 4.95056 0.823815 4.96199 0.83665C4.97663 0.853063 4.97008 0.863038 4.96223 0.871946L4.97092 0.84801C4.95517 0.868856 4.93978 0.889912 4.96416 0.909164C5.00916 0.942306 5.09294 0.928731 5.1161 0.978172C5.03336 0.963211 4.9478 0.951234 4.86394 0.939941C4.84575 1.0725 4.8794 1.15404 4.8776 1.24197C4.87745 1.25253 4.83188 1.24341 4.83057 1.25487C4.82531 1.30354 4.85965 1.34199 4.84916 1.38883C4.84086 1.42499 4.79488 1.46519 4.78393 1.49921C4.88083 1.51701 4.84933 1.56849 4.85724 1.59978C4.86 1.61108 4.88568 1.61107 4.89376 1.61925C4.92329 1.65017 4.83904 1.63131 4.82529 1.63751C4.76632 1.65744 4.95745 1.68305 4.94673 1.71034C4.94526 1.71535 4.84654 1.68603 4.84432 1.67462C4.81754 1.63482 4.87697 1.68814 4.89113 1.67862C4.91802 1.65719 4.99026 1.63035 5.04406 1.60534C5.05516 1.59733 5.08725 1.55672 5.08896 1.5729C5.08547 1.57463 5.08113 1.57845 5.07575 1.58503C5.07137 1.59034 5.06117 1.6227 5.05864 1.62389C5.0129 1.64236 5.04924 1.54187 5.04349 1.50074C5.0376 1.45951 4.97689 1.51355 4.96148 1.52996C4.92206 1.57266 4.96579 1.55733 4.9646 1.56264C4.95083 1.62635 4.93081 1.60591 4.90964 1.60256C4.86527 1.69717 4.84058 1.67946 4.88787 1.59868C4.893 1.58985 4.90399 1.60531 4.90964 1.60256C4.93387 1.50135 4.91114 1.47697 4.83917 1.54957C4.80545 1.58358 4.79843 1.63788 4.7594 1.59915C4.74158 1.58155 4.77972 1.5199 4.76898 1.49345C4.74455 1.43315 4.66002 1.46825 4.61879 1.43813C4.6038 1.42718 4.63609 1.39853 4.62635 1.3898C4.60045 1.36648 4.5616 1.38155 4.53662 1.35419C4.53437 1.35166 4.5577 1.31687 4.54819 1.31217C4.51714 1.29646 4.48502 1.2869 4.45184 1.27869C4.41699 1.27151 4.37646 1.2634 4.33592 1.24605C4.30149 1.2313 4.24584 1.18192 4.20643 1.16991C4.13757 1.1484 4.03192 1.16943 3.97954 1.13338C3.94507 1.10992 3.96833 1.07481 3.96179 1.04222C3.94821 0.978675 3.85784 1.04959 3.845 1.06112C3.84469 1.06151 3.87484 1.08272 3.84984 1.09619C3.82462 1.13396 3.84535 1.06145 3.845 1.06112C3.83672 1.06839 3.76707 1.05412 3.75597 1.04229C3.75015 1.03582 3.76648 1.0001 3.76317 0.997412C3.6829 0.933995 3.59103 0.896586 3.49051 0.890124C3.48862 0.890464 3.4805 0.933458 3.47624 0.933739C3.41638 0.938837 3.39383 0.878971 3.35337 0.837963C3.31349 0.79717 3.27229 0.800315 3.23212 0.869339C3.1986 0.85372 3.1427 0.878442 3.11129 0.894341C3.0798 0.910189 3.08691 0.825469 3.0845 0.823431C3.01065 0.759667 2.95714 0.803048 2.8724 0.804514C2.83268 0.805296 2.7531 0.78929 2.70971 0.779347C2.67502 0.771194 2.65402 0.791004 2.62238 0.778406C2.61806 0.776731 2.62219 0.738849 2.62086 0.737399C2.58434 0.692418 2.60271 0.784834 2.59559 0.801435C2.56985 0.861965 2.55522 0.894171 2.51016 0.867604C2.50003 0.8615 2.46323 0.729806 2.4427 0.72323C2.41673 0.714895 2.42944 0.761935 2.40253 0.752177C2.40023 0.751398 2.39864 0.721939 2.38239 0.724459C2.30635 0.735843 2.22633 0.761898 2.14899 0.770181C2.13834 0.771444 2.14526 0.723185 2.12959 0.724296C2.05527 0.729682 1.97623 0.745885 1.91154 0.782119C1.89568 0.791179 1.91326 0.820878 1.91163 0.831166C1.90198 0.893363 1.85151 0.817334 1.84555 0.817081C1.78999 0.812791 1.74453 0.82771 1.7003 0.847149C1.64123 0.87388 1.58645 0.908369 1.50926 0.909572C1.50256 0.909333 1.4236 0.838209 1.42493 0.920493C1.42476 0.926045 1.42837 1.00941 1.39095 0.964072C1.3886 0.961243 1.38943 0.917278 1.36627 0.92958C1.3436 0.941709 1.29432 0.929651 1.27605 0.984783C1.27028 1.00215 1.2736 1.08631 1.21926 1.03883C1.21614 1.03517 1.11228 0.920811 1.13195 1.02063C1.13531 1.03704 1.17855 1.13309 1.12 1.09914C1.10863 1.0926 1.11275 1.06522 1.08754 1.06006C1.04849 1.05222 1.02106 1.09549 0.963477 1.07106C0.953693 1.0665 0.893348 1.01622 0.894866 1.07653C0.895204 1.08593 0.91791 1.11384 0.907934 1.12341C0.861072 1.16888 0.789937 1.18206 0.745035 1.24023C0.729475 1.26065 0.771024 1.30139 0.759195 1.32776C0.747414 1.354 0.716396 1.39467 0.679376 1.39103C0.641714 1.38788 0.609261 1.29719 0.570115 1.32005C0.52118 1.34928 0.475964 1.38895 0.435307 1.43714C0.370543 1.5166 0.323341 1.61537 0.258934 1.71299C0.245543 1.73356 0.231092 1.69778 0.209179 1.7278C0.131721 1.82367 -0.0499659 2.09973 0.0225973 2.32418C0.027029 2.33793 0.0317693 2.34885 0.0364962 2.35743C0.0856299 2.40301 0.121105 2.32427 0.142627 2.37873C0.153887 2.40657 0.0494075 2.44158 0.0463262 2.44868C0.014955 2.51967 0.0641465 2.56675 0.0546603 2.63247C0.0527411 2.64629 0.00907516 2.63623 0.00793695 2.64805C0.00367069 2.68816 0.0268335 2.72917 0.0280733 2.76863C0.0285783 2.78654 -0.00424433 2.78722 0.000411987 2.80347C0.0112867 2.84247 0.0304871 2.87668 0.0678406 2.91056C0.0712252 2.91351 0.106762 2.88234 0.11374 2.91162C0.125131 2.95939 0.167796 3.0115 0.155128 3.0777C0.151428 3.09761 0.0801568 3.12103 0.142239 3.1437C0.155442 3.14851 0.23545 3.10759 0.179211 3.17822C0.168651 3.18825 0.106248 3.31051 0.187724 3.32013C0.20881 3.32253 0.286196 3.31197 0.287904 3.33761C0.288002 3.3414 0.246598 3.35011 0.253563 3.36962C0.274122 3.42483 0.310181 3.4748 0.343378 3.52408C0.348783 3.53286 0.353877 3.54183 0.358452 3.55114C0.364663 3.56392 0.319621 3.57472 0.329955 3.59299C0.358413 3.64333 0.411406 3.68873 0.45543 3.71976C0.471721 3.73115 0.488989 3.69859 0.492736 3.69721C0.553496 3.67447 0.499988 3.73809 0.501238 3.74684C0.509627 3.80032 0.561222 3.80102 0.580209 3.83886C0.585524 3.84923 0.550556 3.86858 0.549369 3.87256C0.538476 3.91231 0.580713 3.85352 0.596163 3.85968C0.639597 3.87679 0.666506 3.91364 0.688584 3.94826C0.69667 3.96104 0.650982 3.97697 0.658522 3.98798C0.702677 4.05392 0.75567 4.11398 0.821441 4.15966C0.833867 4.16819 0.856392 4.14 0.86457 4.13759C0.92193 4.1209 0.87887 4.19082 0.877063 4.20064C0.868988 4.24567 0.901062 4.2373 0.912777 4.26358C0.927937 4.29824 0.947056 4.33287 0.968555 4.36738C1.01427 4.44196 1.06771 4.5143 1.10793 4.58492C1.19595 4.71625 1.1908 4.80979 1.4181 5.12827C1.43542 5.14767 1.38313 5.15992 1.39878 5.17785C1.46728 5.25512 1.56525 5.31785 1.65405 5.35089C1.86138 5.4107 1.83575 5.38428 1.90042 5.39465C1.94766 5.39815 1.99253 5.40175 2.0358 5.40853C2.04639 5.41009 2.02869 5.45333 2.04579 5.45732C2.08187 5.46586 2.12614 5.46537 2.16058 5.45261C2.17775 5.44649 2.15651 5.40782 2.17378 5.40242C2.21529 5.38981 2.25636 5.38805 2.29636 5.39634C2.31324 5.39995 2.2862 5.44424 2.30835 5.44542C2.46103 5.45441 2.60728 5.46506 2.76011 5.40913C2.77052 5.40528 2.7817 5.31383 2.80292 5.33172C2.80417 5.35717 2.80364 5.38708 2.80394 5.41426C3.0216 5.43217 3.23732 5.40243 3.45452 5.39898C3.46368 5.39884 3.44752 5.44729 3.46527 5.44727C3.56842 5.44723 3.66772 5.46119 3.77328 5.41337C3.78369 5.4087 3.77868 5.32327 3.8093 5.33631C3.81467 5.33869 3.86101 5.35025 3.87296 5.36883C3.87456 5.37163 3.86603 5.41146 3.88086 5.41268C3.96725 5.41902 4.05826 5.41014 4.14468 5.38594C4.15862 5.38195 4.14386 5.33947 4.15379 5.33627C4.22435 5.31385 4.30084 5.3462 4.36824 5.30769C4.41326 5.28176 4.39663 5.20837 4.42057 5.13614C4.42395 5.12595 4.45184 5.12434 4.45329 5.08232C4.45699 4.97664 4.44351 4.86092 4.44906 4.74827C4.45023 4.72401 4.48753 4.75014 4.46545 4.69151C4.4639 4.68759 4.43688 4.66812 4.43023 4.64823C4.4256 4.63448 4.43396 4.59174 4.42452 4.57413C4.41508 4.55655 4.40469 4.59237 4.38905 4.57168C4.37343 4.55074 4.38033 4.50212 4.34913 4.49634ZM2.97194 0.967713C2.94193 1.00571 2.95229 0.856469 2.97768 0.894981C2.97891 0.897024 2.97351 0.965861 2.97194 0.967713ZM4.99206 1.15226C5.05827 1.18552 4.96213 1.21144 4.91058 1.18782C4.85916 1.16309 4.97203 1.14138 4.99206 1.15226ZM5.11061 0.786851C5.14604 0.841392 4.94358 0.777898 4.99949 0.749469C5.00269 0.747794 5.1086 0.7836 5.11061 0.786851ZM4.30966 5.11552C4.31 5.11353 4.33006 5.11161 4.33054 5.11358C4.34119 5.16108 4.30107 5.16489 4.30966 5.11552ZM5.29847 0.49541C5.31858 0.519055 5.27366 0.534873 5.2484 0.505634C5.22813 0.481924 5.27346 0.465874 5.29847 0.49541ZM1.67216 1.26418C1.67241 1.26642 1.65934 1.27246 1.65595 1.26033C1.64509 1.22122 1.66762 1.2264 1.67216 1.26418ZM5.60045 0.000446075C5.54173 0.0751037 5.66195 0.211723 5.6926 0.141657C5.69961 0.128012 5.62963 0.129417 5.62973 0.104885C5.63258 0.0572472 5.72928 0.115698 5.71378 0.0474884C5.71119 0.0346929 5.60363 -0.00433432 5.60017 0.000390887C5.60027 0.000409263 5.60036 0.000427681 5.60045 0.000446075ZM2.93922 1.14494C2.93855 1.14685 2.91875 1.14684 2.91844 1.14486C2.912 1.09656 2.95256 1.09659 2.93922 1.14494ZM0.957198 1.67829C0.958701 1.68214 0.92703 1.71115 0.923717 1.70913C0.856049 1.66312 0.92559 1.59972 0.957198 1.67829ZM4.1726 1.6235C4.17341 1.67602 4.19551 1.69179 4.2355 1.64368C4.21394 1.63788 4.19386 1.62962 4.1726 1.6235Z" fill="black"/>
</svg>
